<?xml version="1.0" standalone="no"?>
<svg width="567.429" height="216.733" viewBox="0 0 567.429 216.733" xmlns="http://www.w3.org/2000/svg" shape-rendering="crispEdges">
<title>
plots/May_10/mu_5GeV_energy_10_run1_no_error.svg
</title>
<desc>
Creator: ROOT Version 6.28/10
CreationDate: Fri May 10 13:37:02 2024</desc>
<defs>
</defs>
<rect x="0.5" y="0" width="566.929" height="216.233" fill="white"/>
<rect x="6.16929" y="2.16233" width="272.126" height="211.908" fill="white"/>
<rect x="33.3819" y="23.3531" width="217.701" height="169.526" fill="white"/>
<rect x="33.3819" y="23.3531" width="217.701" height="169.526" fill="none" stroke="black"/>
<rect x="33.3819" y="23.3531" width="217.701" height="169.526" fill="white"/>
<rect x="33.3819" y="23.3531" width="217.701" height="169.526" fill="none" stroke="black"/>
<path d="M33.3819,192.879h 217.701" fill="none" stroke="black"/>
<path d="M33.3819,187.794v 5.08579" fill="none" stroke="black"/>
<path d="M41.1569,190.337v 2.5429" fill="none" stroke="black"/>
<path d="M48.9319,190.337v 2.5429" fill="none" stroke="black"/>
<path d="M56.707,190.337v 2.5429" fill="none" stroke="black"/>
<path d="M64.482,187.794v 5.08579" fill="none" stroke="black"/>
<path d="M72.257,190.337v 2.5429" fill="none" stroke="black"/>
<path d="M80.0321,190.337v 2.5429" fill="none" stroke="black"/>
<path d="M87.8071,190.337v 2.5429" fill="none" stroke="black"/>
<path d="M95.5821,187.794v 5.08579" fill="none" stroke="black"/>
<path d="M103.357,190.337v 2.5429" fill="none" stroke="black"/>
<path d="M111.132,190.337v 2.5429" fill="none" stroke="black"/>
<path d="M118.907,190.337v 2.5429" fill="none" stroke="black"/>
<path d="M126.682,187.794v 5.08579" fill="none" stroke="black"/>
<path d="M134.457,190.337v 2.5429" fill="none" stroke="black"/>
<path d="M142.232,190.337v 2.5429" fill="none" stroke="black"/>
<path d="M150.007,190.337v 2.5429" fill="none" stroke="black"/>
<path d="M157.782,187.794v 5.08579" fill="none" stroke="black"/>
<path d="M165.557,190.337v 2.5429" fill="none" stroke="black"/>
<path d="M173.332,190.337v 2.5429" fill="none" stroke="black"/>
<path d="M181.107,190.337v 2.5429" fill="none" stroke="black"/>
<path d="M188.882,187.794v 5.08579" fill="none" stroke="black"/>
<path d="M196.657,190.337v 2.5429" fill="none" stroke="black"/>
<path d="M204.433,190.337v 2.5429" fill="none" stroke="black"/>
<path d="M212.208,190.337v 2.5429" fill="none" stroke="black"/>
<path d="M219.983,187.794v 5.08579" fill="none" stroke="black"/>
<path d="M227.758,190.337v 2.5429" fill="none" stroke="black"/>
<path d="M235.533,190.337v 2.5429" fill="none" stroke="black"/>
<path d="M243.308,190.337v 2.5429" fill="none" stroke="black"/>
<path d="M251.083,187.794v 5.08579" fill="none" stroke="black"/>
<text xml:space="preserve" x="25.4849" y="199.425" fill="black" font-size="7.30438" font-family="Helvetica">1600</text>
<text xml:space="preserve" x="56.3752" y="199.425" fill="black" font-size="7.30438" font-family="Helvetica">1800</text>
<text xml:space="preserve" x="87.7199" y="199.425" fill="black" font-size="7.30438" font-family="Helvetica">2000</text>
<text xml:space="preserve" x="118.61" y="199.425" fill="black" font-size="7.30438" font-family="Helvetica">2200</text>
<text xml:space="preserve" x="149.955" y="199.425" fill="black" font-size="7.30438" font-family="Helvetica">2400</text>
<text xml:space="preserve" x="180.845" y="199.425" fill="black" font-size="7.30438" font-family="Helvetica">2600</text>
<text xml:space="preserve" x="212.19" y="199.425" fill="black" font-size="7.30438" font-family="Helvetica">2800</text>
<text xml:space="preserve" x="243.08" y="199.425" fill="black" font-size="7.30438" font-family="Helvetica">3000</text>
<text xml:space="preserve" x="175.394" y="206.239" fill="black" font-size="7.30438" font-family="Helvetica">Barrel hit x position (mm)</text>
<path d="M33.3819,192.879v -169.526" fill="none" stroke="black"/>
<path d="M39.9129,180.635h -6.53102" fill="none" stroke="black"/>
<path d="M36.6474,176.559h -3.26551" fill="none" stroke="black"/>
<path d="M36.6474,172.483h -3.26551" fill="none" stroke="black"/>
<path d="M36.6474,168.407h -3.26551" fill="none" stroke="black"/>
<path d="M39.9129,164.331h -6.53102" fill="none" stroke="black"/>
<path d="M36.6474,160.255h -3.26551" fill="none" stroke="black"/>
<path d="M36.6474,156.178h -3.26551" fill="none" stroke="black"/>
<path d="M36.6474,152.102h -3.26551" fill="none" stroke="black"/>
<path d="M39.9129,148.026h -6.53102" fill="none" stroke="black"/>
<path d="M36.6474,143.95h -3.26551" fill="none" stroke="black"/>
<path d="M36.6474,139.874h -3.26551" fill="none" stroke="black"/>
<path d="M36.6474,135.798h -3.26551" fill="none" stroke="black"/>
<path d="M39.9129,131.721h -6.53102" fill="none" stroke="black"/>
<path d="M36.6474,127.645h -3.26551" fill="none" stroke="black"/>
<path d="M36.6474,123.569h -3.26551" fill="none" stroke="black"/>
<path d="M36.6474,119.493h -3.26551" fill="none" stroke="black"/>
<path d="M39.9129,115.417h -6.53102" fill="none" stroke="black"/>
<path d="M36.6474,111.341h -3.26551" fill="none" stroke="black"/>
<path d="M36.6474,107.264h -3.26551" fill="none" stroke="black"/>
<path d="M36.6474,103.188h -3.26551" fill="none" stroke="black"/>
<path d="M39.9129,99.112h -6.53102" fill="none" stroke="black"/>
<path d="M36.6474,95.0359h -3.26551" fill="none" stroke="black"/>
<path d="M36.6474,90.9597h -3.26551" fill="none" stroke="black"/>
<path d="M36.6474,86.8835h -3.26551" fill="none" stroke="black"/>
<path d="M39.9129,82.8074h -6.53102" fill="none" stroke="black"/>
<path d="M36.6474,78.7312h -3.26551" fill="none" stroke="black"/>
<path d="M36.6474,74.655h -3.26551" fill="none" stroke="black"/>
<path d="M36.6474,70.5788h -3.26551" fill="none" stroke="black"/>
<path d="M39.9129,66.5027h -6.53102" fill="none" stroke="black"/>
<path d="M36.6474,62.4265h -3.26551" fill="none" stroke="black"/>
<path d="M36.6474,58.3503h -3.26551" fill="none" stroke="black"/>
<path d="M36.6474,54.2741h -3.26551" fill="none" stroke="black"/>
<path d="M39.9129,50.198h -6.53102" fill="none" stroke="black"/>
<path d="M36.6474,46.1218h -3.26551" fill="none" stroke="black"/>
<path d="M36.6474,42.0456h -3.26551" fill="none" stroke="black"/>
<path d="M36.6474,37.9695h -3.26551" fill="none" stroke="black"/>
<path d="M39.9129,33.8933h -6.53102" fill="none" stroke="black"/>
<path d="M39.9129,180.635h -6.53102" fill="none" stroke="black"/>
<path d="M36.6474,184.712h -3.26551" fill="none" stroke="black"/>
<path d="M36.6474,188.788h -3.26551" fill="none" stroke="black"/>
<path d="M36.6474,192.864h -3.26551" fill="none" stroke="black"/>
<path d="M39.9129,33.8933h -6.53102" fill="none" stroke="black"/>
<path d="M36.6474,29.8171h -3.26551" fill="none" stroke="black"/>
<path d="M36.6474,25.7409h -3.26551" fill="none" stroke="black"/>
<text xml:space="preserve" x="16.8537" y="183.071" fill="black" font-size="7.30438" font-family="Helvetica">3000</text>
<text xml:space="preserve" x="16.8537" y="166.717" fill="black" font-size="7.30438" font-family="Helvetica">3200</text>
<text xml:space="preserve" x="16.8537" y="150.363" fill="black" font-size="7.30438" font-family="Helvetica">3400</text>
<text xml:space="preserve" x="16.8537" y="134.01" fill="black" font-size="7.30438" font-family="Helvetica">3600</text>
<text xml:space="preserve" x="16.8537" y="118.11" fill="black" font-size="7.30438" font-family="Helvetica">3800</text>
<text xml:space="preserve" x="16.8537" y="101.757" fill="black" font-size="7.30438" font-family="Helvetica">4000</text>
<text xml:space="preserve" x="16.8537" y="85.4028" fill="black" font-size="7.30438" font-family="Helvetica">4200</text>
<text xml:space="preserve" x="16.8537" y="69.0491" fill="black" font-size="7.30438" font-family="Helvetica">4400</text>
<text xml:space="preserve" x="16.8537" y="52.6953" fill="black" font-size="7.30438" font-family="Helvetica">4600</text>
<text xml:space="preserve" x="16.8537" y="36.3416" fill="black" font-size="7.30438" font-family="Helvetica">4800</text>
<g transform="rotate(-90,10.4939,77.2259)">
<text xml:space="preserve" x="10.4939" y="77.2259" fill="black" font-size="7.30438" font-family="Helvetica"># of hits per event</text>
</g>
<g fill="#0000ff">
<circle cx="69.2714" cy="93.5032" r="1.09025"/>
<circle cx="70.9197" cy="89.4515" r="1.09025"/>
<circle cx="81.1983" cy="100.115" r="1.09025"/>
<circle cx="82.8466" cy="37.4803" r="1.09025"/>
<circle cx="93.1252" cy="129.626" r="1.09025"/>
<circle cx="94.7735" cy="159.782" r="1.09025"/>
<circle cx="105.052" cy="68.1331" r="1.09025"/>
<circle cx="106.7" cy="133.686" r="1.09025"/>
<circle cx="116.979" cy="113.37" r="1.09025"/>
<circle cx="118.627" cy="112.922" r="1.09025"/>
<circle cx="128.906" cy="138.578" r="1.09025"/>
<circle cx="130.554" cy="161.078" r="1.09025"/>
<circle cx="140.833" cy="151.352" r="1.09025"/>
<circle cx="142.481" cy="151.295" r="1.09025"/>
<circle cx="152.76" cy="164.054" r="1.09025"/>
<circle cx="154.408" cy="171.627" r="1.09025"/>
<circle cx="164.687" cy="85.7993" r="1.09025"/>
<circle cx="166.335" cy="167.233" r="1.09025"/>
<circle cx="176.613" cy="178.752" r="1.09025"/>
<circle cx="178.262" cy="141.064" r="1.09025"/>
<circle cx="188.54" cy="156.121" r="1.09025"/>
<circle cx="190.189" cy="115.596" r="1.09025"/>
<circle cx="200.467" cy="163.776" r="1.09025"/>
<circle cx="202.116" cy="90.4787" r="1.09025"/>
<circle cx="212.394" cy="106.188" r="1.09025"/>
<circle cx="214.042" cy="124.091" r="1.09025"/>
<circle cx="224.321" cy="172.141" r="1.09025"/>
<circle cx="225.969" cy="177.538" r="1.09025"/>
</g>
<text xml:space="preserve" x="58.1923" y="11.3568" fill="black" font-size="5.59168" font-family="Helvetica">avg # of hits in each layer 10 events (5GeV mu- gun) | total: 101209.296875</text>
<rect x="289.634" y="2.16233" width="272.126" height="211.908" fill="white"/>
<rect x="316.846" y="23.3531" width="217.701" height="169.526" fill="white"/>
<rect x="316.846" y="23.3531" width="217.701" height="169.526" fill="none" stroke="black"/>
<rect x="316.846" y="23.3531" width="217.701" height="169.526" fill="white"/>
<rect x="316.846" y="23.3531" width="217.701" height="169.526" fill="none" stroke="black"/>
<path d="M316.846,192.879h 217.701" fill="none" stroke="black"/>
<path d="M316.846,187.794v 5.08579" fill="none" stroke="black"/>
<path d="M324.621,190.337v 2.5429" fill="none" stroke="black"/>
<path d="M332.397,190.337v 2.5429" fill="none" stroke="black"/>
<path d="M340.172,190.337v 2.5429" fill="none" stroke="black"/>
<path d="M347.947,187.794v 5.08579" fill="none" stroke="black"/>
<path d="M355.722,190.337v 2.5429" fill="none" stroke="black"/>
<path d="M363.497,190.337v 2.5429" fill="none" stroke="black"/>
<path d="M371.272,190.337v 2.5429" fill="none" stroke="black"/>
<path d="M379.047,187.794v 5.08579" fill="none" stroke="black"/>
<path d="M386.822,190.337v 2.5429" fill="none" stroke="black"/>
<path d="M394.597,190.337v 2.5429" fill="none" stroke="black"/>
<path d="M402.372,190.337v 2.5429" fill="none" stroke="black"/>
<path d="M410.147,187.794v 5.08579" fill="none" stroke="black"/>
<path d="M417.922,190.337v 2.5429" fill="none" stroke="black"/>
<path d="M425.697,190.337v 2.5429" fill="none" stroke="black"/>
<path d="M433.472,190.337v 2.5429" fill="none" stroke="black"/>
<path d="M441.247,187.794v 5.08579" fill="none" stroke="black"/>
<path d="M449.022,190.337v 2.5429" fill="none" stroke="black"/>
<path d="M456.797,190.337v 2.5429" fill="none" stroke="black"/>
<path d="M464.572,190.337v 2.5429" fill="none" stroke="black"/>
<path d="M472.347,187.794v 5.08579" fill="none" stroke="black"/>
<path d="M480.122,190.337v 2.5429" fill="none" stroke="black"/>
<path d="M487.897,190.337v 2.5429" fill="none" stroke="black"/>
<path d="M495.672,190.337v 2.5429" fill="none" stroke="black"/>
<path d="M503.447,187.794v 5.08579" fill="none" stroke="black"/>
<path d="M511.222,190.337v 2.5429" fill="none" stroke="black"/>
<path d="M518.997,190.337v 2.5429" fill="none" stroke="black"/>
<path d="M526.772,190.337v 2.5429" fill="none" stroke="black"/>
<path d="M534.547,187.794v 5.08579" fill="none" stroke="black"/>
<text xml:space="preserve" x="308.949" y="199.425" fill="black" font-size="7.30438" font-family="Helvetica">1600</text>
<text xml:space="preserve" x="339.84" y="199.425" fill="black" font-size="7.30438" font-family="Helvetica">1800</text>
<text xml:space="preserve" x="371.184" y="199.425" fill="black" font-size="7.30438" font-family="Helvetica">2000</text>
<text xml:space="preserve" x="402.075" y="199.425" fill="black" font-size="7.30438" font-family="Helvetica">2200</text>
<text xml:space="preserve" x="433.419" y="199.425" fill="black" font-size="7.30438" font-family="Helvetica">2400</text>
<text xml:space="preserve" x="464.31" y="199.425" fill="black" font-size="7.30438" font-family="Helvetica">2600</text>
<text xml:space="preserve" x="495.654" y="199.425" fill="black" font-size="7.30438" font-family="Helvetica">2800</text>
<text xml:space="preserve" x="526.545" y="199.425" fill="black" font-size="7.30438" font-family="Helvetica">3000</text>
<text xml:space="preserve" x="467.49" y="206.239" fill="black" font-size="7.30438" font-family="Helvetica">vertex x position (mm)</text>
<path d="M316.846,192.879v -169.526" fill="none" stroke="black"/>
<path d="M323.377,171.681h -6.53102" fill="none" stroke="black"/>
<path d="M320.112,164.839h -3.26551" fill="none" stroke="black"/>
<path d="M320.112,157.997h -3.26551" fill="none" stroke="black"/>
<path d="M320.112,151.156h -3.26551" fill="none" stroke="black"/>
<path d="M323.377,144.314h -6.53102" fill="none" stroke="black"/>
<path d="M320.112,137.472h -3.26551" fill="none" stroke="black"/>
<path d="M320.112,130.631h -3.26551" fill="none" stroke="black"/>
<path d="M320.112,123.789h -3.26551" fill="none" stroke="black"/>
<path d="M323.377,116.947h -6.53102" fill="none" stroke="black"/>
<path d="M320.112,110.106h -3.26551" fill="none" stroke="black"/>
<path d="M320.112,103.264h -3.26551" fill="none" stroke="black"/>
<path d="M320.112,96.4225h -3.26551" fill="none" stroke="black"/>
<path d="M323.377,89.5809h -6.53102" fill="none" stroke="black"/>
<path d="M320.112,82.7392h -3.26551" fill="none" stroke="black"/>
<path d="M320.112,75.8976h -3.26551" fill="none" stroke="black"/>
<path d="M320.112,69.0559h -3.26551" fill="none" stroke="black"/>
<path d="M323.377,62.2143h -6.53102" fill="none" stroke="black"/>
<path d="M320.112,55.3726h -3.26551" fill="none" stroke="black"/>
<path d="M320.112,48.531h -3.26551" fill="none" stroke="black"/>
<path d="M320.112,41.6893h -3.26551" fill="none" stroke="black"/>
<path d="M323.377,34.8476h -6.53102" fill="none" stroke="black"/>
<path d="M323.377,171.681h -6.53102" fill="none" stroke="black"/>
<path d="M320.112,178.522h -3.26551" fill="none" stroke="black"/>
<path d="M320.112,185.364h -3.26551" fill="none" stroke="black"/>
<path d="M320.112,192.206h -3.26551" fill="none" stroke="black"/>
<path d="M323.377,34.8476h -6.53102" fill="none" stroke="black"/>
<path d="M320.112,28.006h -3.26551" fill="none" stroke="black"/>
<text xml:space="preserve" x="296.684" y="173.985" fill="black" font-size="7.30438" font-family="Helvetica">18000</text>
<text xml:space="preserve" x="296.684" y="146.729" fill="black" font-size="7.30438" font-family="Helvetica">20000</text>
<text xml:space="preserve" x="296.684" y="119.473" fill="black" font-size="7.30438" font-family="Helvetica">22000</text>
<text xml:space="preserve" x="296.684" y="92.2168" fill="black" font-size="7.30438" font-family="Helvetica">24000</text>
<text xml:space="preserve" x="296.684" y="64.5064" fill="black" font-size="7.30438" font-family="Helvetica">26000</text>
<text xml:space="preserve" x="296.684" y="37.2502" fill="black" font-size="7.30438" font-family="Helvetica">28000</text>
<g transform="rotate(-90,290.779,158.54)">
<text xml:space="preserve" x="290.779" y="158.54" fill="black" font-size="7.30438" font-family="Helvetica"># of optical photons in MCParticles per event</text>
</g>
<g fill="#ff0000">
<circle cx="352.736" cy="135.12" r="1.09025"/>
<circle cx="354.384" cy="130.297" r="1.09025"/>
<circle cx="364.663" cy="131.568" r="1.09025"/>
<circle cx="366.311" cy="77.7517" r="1.09025"/>
<circle cx="376.59" cy="150.641" r="1.09025"/>
<circle cx="378.238" cy="178.752" r="1.09025"/>
<circle cx="388.517" cy="87.4914" r="1.09025"/>
<circle cx="390.165" cy="149.556" r="1.09025"/>
<circle cx="400.444" cy="119.943" r="1.09025"/>
<circle cx="402.092" cy="120.623" r="1.09025"/>
<circle cx="412.37" cy="136.16" r="1.09025"/>
<circle cx="414.019" cy="158.025" r="1.09025"/>
<circle cx="424.297" cy="141.427" r="1.09025"/>
<circle cx="425.946" cy="144.009" r="1.09025"/>
<circle cx="436.224" cy="148.986" r="1.09025"/>
<circle cx="437.873" cy="156.585" r="1.09025"/>
<circle cx="448.151" cy="59.0548" r="1.09025"/>
<circle cx="449.799" cy="144.365" r="1.09025"/>
<circle cx="460.078" cy="149.967" r="1.09025"/>
<circle cx="461.726" cy="110.44" r="1.09025"/>
<circle cx="472.005" cy="119.203" r="1.09025"/>
<circle cx="473.653" cy="74.9685" r="1.09025"/>
<circle cx="483.932" cy="123.931" r="1.09025"/>
<circle cx="485.58" cy="37.4803" r="1.09025"/>
<circle cx="495.859" cy="47.3816" r="1.09025"/>
<circle cx="497.507" cy="67.2962" r="1.09025"/>
<circle cx="507.786" cy="116.247" r="1.09025"/>
<circle cx="509.434" cy="122.998" r="1.09025"/>
</g>
<text xml:space="preserve" x="335.751" y="11.3568" fill="black" font-size="5.26498" font-family="Helvetica">avg # of -22 PDG in each layer 10 events (5GeV mu- gun) | total: 611201.187500</text></svg>
