<?xml version="1.0" standalone="no"?>
<svg width="567.429" height="216.733" viewBox="0 0 567.429 216.733" xmlns="http://www.w3.org/2000/svg" shape-rendering="crispEdges">
<title>
plots/May_10/pi_5GeV_energy_10_run1_no_error.svg
</title>
<desc>
Creator: ROOT Version 6.28/10
CreationDate: Fri May 10 14:06:19 2024</desc>
<defs>
</defs>
<rect x="0.5" y="0" width="566.929" height="216.233" fill="white"/>
<rect x="6.16929" y="2.16233" width="272.126" height="211.908" fill="white"/>
<rect x="33.3819" y="23.3531" width="217.701" height="169.526" fill="white"/>
<rect x="33.3819" y="23.3531" width="217.701" height="169.526" fill="none" stroke="black"/>
<rect x="33.3819" y="23.3531" width="217.701" height="169.526" fill="white"/>
<rect x="33.3819" y="23.3531" width="217.701" height="169.526" fill="none" stroke="black"/>
<path d="M33.3819,192.879h 217.701" fill="none" stroke="black"/>
<path d="M33.3819,187.794v 5.08579" fill="none" stroke="black"/>
<path d="M41.1569,190.337v 2.5429" fill="none" stroke="black"/>
<path d="M48.9319,190.337v 2.5429" fill="none" stroke="black"/>
<path d="M56.707,190.337v 2.5429" fill="none" stroke="black"/>
<path d="M64.482,187.794v 5.08579" fill="none" stroke="black"/>
<path d="M72.257,190.337v 2.5429" fill="none" stroke="black"/>
<path d="M80.0321,190.337v 2.5429" fill="none" stroke="black"/>
<path d="M87.8071,190.337v 2.5429" fill="none" stroke="black"/>
<path d="M95.5821,187.794v 5.08579" fill="none" stroke="black"/>
<path d="M103.357,190.337v 2.5429" fill="none" stroke="black"/>
<path d="M111.132,190.337v 2.5429" fill="none" stroke="black"/>
<path d="M118.907,190.337v 2.5429" fill="none" stroke="black"/>
<path d="M126.682,187.794v 5.08579" fill="none" stroke="black"/>
<path d="M134.457,190.337v 2.5429" fill="none" stroke="black"/>
<path d="M142.232,190.337v 2.5429" fill="none" stroke="black"/>
<path d="M150.007,190.337v 2.5429" fill="none" stroke="black"/>
<path d="M157.782,187.794v 5.08579" fill="none" stroke="black"/>
<path d="M165.557,190.337v 2.5429" fill="none" stroke="black"/>
<path d="M173.332,190.337v 2.5429" fill="none" stroke="black"/>
<path d="M181.107,190.337v 2.5429" fill="none" stroke="black"/>
<path d="M188.882,187.794v 5.08579" fill="none" stroke="black"/>
<path d="M196.657,190.337v 2.5429" fill="none" stroke="black"/>
<path d="M204.433,190.337v 2.5429" fill="none" stroke="black"/>
<path d="M212.208,190.337v 2.5429" fill="none" stroke="black"/>
<path d="M219.983,187.794v 5.08579" fill="none" stroke="black"/>
<path d="M227.758,190.337v 2.5429" fill="none" stroke="black"/>
<path d="M235.533,190.337v 2.5429" fill="none" stroke="black"/>
<path d="M243.308,190.337v 2.5429" fill="none" stroke="black"/>
<path d="M251.083,187.794v 5.08579" fill="none" stroke="black"/>
<text xml:space="preserve" x="25.4849" y="199.425" fill="black" font-size="7.30438" font-family="Helvetica">1600</text>
<text xml:space="preserve" x="56.3752" y="199.425" fill="black" font-size="7.30438" font-family="Helvetica">1800</text>
<text xml:space="preserve" x="87.7199" y="199.425" fill="black" font-size="7.30438" font-family="Helvetica">2000</text>
<text xml:space="preserve" x="118.61" y="199.425" fill="black" font-size="7.30438" font-family="Helvetica">2200</text>
<text xml:space="preserve" x="149.955" y="199.425" fill="black" font-size="7.30438" font-family="Helvetica">2400</text>
<text xml:space="preserve" x="180.845" y="199.425" fill="black" font-size="7.30438" font-family="Helvetica">2600</text>
<text xml:space="preserve" x="212.19" y="199.425" fill="black" font-size="7.30438" font-family="Helvetica">2800</text>
<text xml:space="preserve" x="243.08" y="199.425" fill="black" font-size="7.30438" font-family="Helvetica">3000</text>
<text xml:space="preserve" x="175.394" y="206.239" fill="black" font-size="7.30438" font-family="Helvetica">Barrel hit x position (mm)</text>
<path d="M33.3819,192.879v -169.526" fill="none" stroke="black"/>
<path d="M39.9129,169.877h -6.53102" fill="none" stroke="black"/>
<path d="M36.6474,164.986h -3.26551" fill="none" stroke="black"/>
<path d="M36.6474,160.094h -3.26551" fill="none" stroke="black"/>
<path d="M36.6474,155.202h -3.26551" fill="none" stroke="black"/>
<path d="M36.6474,150.311h -3.26551" fill="none" stroke="black"/>
<path d="M39.9129,145.419h -6.53102" fill="none" stroke="black"/>
<path d="M36.6474,140.528h -3.26551" fill="none" stroke="black"/>
<path d="M36.6474,135.636h -3.26551" fill="none" stroke="black"/>
<path d="M36.6474,130.744h -3.26551" fill="none" stroke="black"/>
<path d="M36.6474,125.853h -3.26551" fill="none" stroke="black"/>
<path d="M39.9129,120.961h -6.53102" fill="none" stroke="black"/>
<path d="M36.6474,116.069h -3.26551" fill="none" stroke="black"/>
<path d="M36.6474,111.178h -3.26551" fill="none" stroke="black"/>
<path d="M36.6474,106.286h -3.26551" fill="none" stroke="black"/>
<path d="M36.6474,101.395h -3.26551" fill="none" stroke="black"/>
<path d="M39.9129,96.503h -6.53102" fill="none" stroke="black"/>
<path d="M36.6474,91.6114h -3.26551" fill="none" stroke="black"/>
<path d="M36.6474,86.7198h -3.26551" fill="none" stroke="black"/>
<path d="M36.6474,81.8282h -3.26551" fill="none" stroke="black"/>
<path d="M36.6474,76.9366h -3.26551" fill="none" stroke="black"/>
<path d="M39.9129,72.0449h -6.53102" fill="none" stroke="black"/>
<path d="M36.6474,67.1533h -3.26551" fill="none" stroke="black"/>
<path d="M36.6474,62.2617h -3.26551" fill="none" stroke="black"/>
<path d="M36.6474,57.3701h -3.26551" fill="none" stroke="black"/>
<path d="M36.6474,52.4785h -3.26551" fill="none" stroke="black"/>
<path d="M39.9129,47.5869h -6.53102" fill="none" stroke="black"/>
<path d="M39.9129,169.877h -6.53102" fill="none" stroke="black"/>
<path d="M36.6474,174.769h -3.26551" fill="none" stroke="black"/>
<path d="M36.6474,179.661h -3.26551" fill="none" stroke="black"/>
<path d="M36.6474,184.552h -3.26551" fill="none" stroke="black"/>
<path d="M36.6474,189.444h -3.26551" fill="none" stroke="black"/>
<path d="M39.9129,47.5869h -6.53102" fill="none" stroke="black"/>
<path d="M36.6474,42.6952h -3.26551" fill="none" stroke="black"/>
<path d="M36.6474,37.8036h -3.26551" fill="none" stroke="black"/>
<path d="M36.6474,32.912h -3.26551" fill="none" stroke="black"/>
<path d="M36.6474,28.0204h -3.26551" fill="none" stroke="black"/>
<text xml:space="preserve" x="13.2196" y="172.168" fill="black" font-size="7.30438" font-family="Helvetica">10000</text>
<text xml:space="preserve" x="13.2196" y="148.092" fill="black" font-size="7.30438" font-family="Helvetica">20000</text>
<text xml:space="preserve" x="13.2196" y="123.561" fill="black" font-size="7.30438" font-family="Helvetica">30000</text>
<text xml:space="preserve" x="13.2196" y="99.0309" fill="black" font-size="7.30438" font-family="Helvetica">40000</text>
<text xml:space="preserve" x="13.2196" y="74.5003" fill="black" font-size="7.30438" font-family="Helvetica">50000</text>
<text xml:space="preserve" x="13.2196" y="49.9697" fill="black" font-size="7.30438" font-family="Helvetica">60000</text>
<g transform="rotate(-90,6.85978,77.2259)">
<text xml:space="preserve" x="6.85978" y="77.2259" fill="black" font-size="7.30438" font-family="Helvetica"># of hits per event</text>
</g>
<g fill="#0000ff">
<circle cx="69.2714" cy="164.044" r="1.09025"/>
<circle cx="70.9197" cy="154.302" r="1.09025"/>
<circle cx="81.1983" cy="116.99" r="1.09025"/>
<circle cx="82.8466" cy="120.758" r="1.09025"/>
<circle cx="93.1252" cy="146.743" r="1.09025"/>
<circle cx="94.7735" cy="148.13" r="1.09025"/>
<circle cx="105.052" cy="38.7499" r="1.09025"/>
<circle cx="106.7" cy="94.9715" r="1.09025"/>
<circle cx="116.979" cy="118.916" r="1.09025"/>
<circle cx="118.627" cy="81.2299" r="1.09025"/>
<circle cx="128.906" cy="146.998" r="1.09025"/>
<circle cx="130.554" cy="151.577" r="1.09025"/>
<circle cx="140.833" cy="140.334" r="1.09025"/>
<circle cx="142.481" cy="159.661" r="1.09025"/>
<circle cx="152.76" cy="170.579" r="1.09025"/>
<circle cx="154.408" cy="162.802" r="1.09025"/>
<circle cx="164.687" cy="164.37" r="1.09025"/>
<circle cx="166.335" cy="162.445" r="1.09025"/>
<circle cx="176.613" cy="180.233" r="1.09025"/>
<circle cx="178.262" cy="173.697" r="1.09025"/>
<circle cx="188.54" cy="184.219" r="1.09025"/>
<circle cx="190.189" cy="186.835" r="1.09025"/>
<circle cx="200.467" cy="189.33" r="1.09025"/>
<circle cx="202.116" cy="184.985" r="1.09025"/>
<circle cx="212.394" cy="192.438" r="1.09025"/>
<circle cx="214.042" cy="191.548" r="1.09025"/>
<circle cx="224.321" cy="192.718" r="1.09025"/>
<circle cx="225.969" cy="192.332" r="1.09025"/>
</g>
<text xml:space="preserve" x="52.2868" y="11.3568" fill="black" font-size="5.6856" font-family="Helvetica">avg # of hits in each layer 10 events (5GeV pi- gun) | total: 461791.406250</text>
<rect x="289.634" y="2.16233" width="272.126" height="211.908" fill="white"/>
<rect x="316.846" y="23.3531" width="217.701" height="169.526" fill="white"/>
<rect x="316.846" y="23.3531" width="217.701" height="169.526" fill="none" stroke="black"/>
<rect x="316.846" y="23.3531" width="217.701" height="169.526" fill="white"/>
<rect x="316.846" y="23.3531" width="217.701" height="169.526" fill="none" stroke="black"/>
<path d="M316.846,192.879h 217.701" fill="none" stroke="black"/>
<path d="M316.846,187.794v 5.08579" fill="none" stroke="black"/>
<path d="M324.621,190.337v 2.5429" fill="none" stroke="black"/>
<path d="M332.397,190.337v 2.5429" fill="none" stroke="black"/>
<path d="M340.172,190.337v 2.5429" fill="none" stroke="black"/>
<path d="M347.947,187.794v 5.08579" fill="none" stroke="black"/>
<path d="M355.722,190.337v 2.5429" fill="none" stroke="black"/>
<path d="M363.497,190.337v 2.5429" fill="none" stroke="black"/>
<path d="M371.272,190.337v 2.5429" fill="none" stroke="black"/>
<path d="M379.047,187.794v 5.08579" fill="none" stroke="black"/>
<path d="M386.822,190.337v 2.5429" fill="none" stroke="black"/>
<path d="M394.597,190.337v 2.5429" fill="none" stroke="black"/>
<path d="M402.372,190.337v 2.5429" fill="none" stroke="black"/>
<path d="M410.147,187.794v 5.08579" fill="none" stroke="black"/>
<path d="M417.922,190.337v 2.5429" fill="none" stroke="black"/>
<path d="M425.697,190.337v 2.5429" fill="none" stroke="black"/>
<path d="M433.472,190.337v 2.5429" fill="none" stroke="black"/>
<path d="M441.247,187.794v 5.08579" fill="none" stroke="black"/>
<path d="M449.022,190.337v 2.5429" fill="none" stroke="black"/>
<path d="M456.797,190.337v 2.5429" fill="none" stroke="black"/>
<path d="M464.572,190.337v 2.5429" fill="none" stroke="black"/>
<path d="M472.347,187.794v 5.08579" fill="none" stroke="black"/>
<path d="M480.122,190.337v 2.5429" fill="none" stroke="black"/>
<path d="M487.897,190.337v 2.5429" fill="none" stroke="black"/>
<path d="M495.672,190.337v 2.5429" fill="none" stroke="black"/>
<path d="M503.447,187.794v 5.08579" fill="none" stroke="black"/>
<path d="M511.222,190.337v 2.5429" fill="none" stroke="black"/>
<path d="M518.997,190.337v 2.5429" fill="none" stroke="black"/>
<path d="M526.772,190.337v 2.5429" fill="none" stroke="black"/>
<path d="M534.547,187.794v 5.08579" fill="none" stroke="black"/>
<text xml:space="preserve" x="308.949" y="199.425" fill="black" font-size="7.30438" font-family="Helvetica">1600</text>
<text xml:space="preserve" x="339.84" y="199.425" fill="black" font-size="7.30438" font-family="Helvetica">1800</text>
<text xml:space="preserve" x="371.184" y="199.425" fill="black" font-size="7.30438" font-family="Helvetica">2000</text>
<text xml:space="preserve" x="402.075" y="199.425" fill="black" font-size="7.30438" font-family="Helvetica">2200</text>
<text xml:space="preserve" x="433.419" y="199.425" fill="black" font-size="7.30438" font-family="Helvetica">2400</text>
<text xml:space="preserve" x="464.31" y="199.425" fill="black" font-size="7.30438" font-family="Helvetica">2600</text>
<text xml:space="preserve" x="495.654" y="199.425" fill="black" font-size="7.30438" font-family="Helvetica">2800</text>
<text xml:space="preserve" x="526.545" y="199.425" fill="black" font-size="7.30438" font-family="Helvetica">3000</text>
<text xml:space="preserve" x="467.49" y="206.239" fill="black" font-size="7.30438" font-family="Helvetica">vertex x position (mm)</text>
<path d="M316.846,192.879v -169.526" fill="none" stroke="black"/>
<path d="M323.377,172.211h -6.53102" fill="none" stroke="black"/>
<path d="M320.112,167.721h -3.26551" fill="none" stroke="black"/>
<path d="M320.112,163.232h -3.26551" fill="none" stroke="black"/>
<path d="M320.112,158.742h -3.26551" fill="none" stroke="black"/>
<path d="M320.112,154.253h -3.26551" fill="none" stroke="black"/>
<path d="M323.377,149.763h -6.53102" fill="none" stroke="black"/>
<path d="M320.112,145.274h -3.26551" fill="none" stroke="black"/>
<path d="M320.112,140.784h -3.26551" fill="none" stroke="black"/>
<path d="M320.112,136.295h -3.26551" fill="none" stroke="black"/>
<path d="M320.112,131.805h -3.26551" fill="none" stroke="black"/>
<path d="M323.377,127.316h -6.53102" fill="none" stroke="black"/>
<path d="M320.112,122.826h -3.26551" fill="none" stroke="black"/>
<path d="M320.112,118.337h -3.26551" fill="none" stroke="black"/>
<path d="M320.112,113.847h -3.26551" fill="none" stroke="black"/>
<path d="M320.112,109.358h -3.26551" fill="none" stroke="black"/>
<path d="M323.377,104.868h -6.53102" fill="none" stroke="black"/>
<path d="M320.112,100.379h -3.26551" fill="none" stroke="black"/>
<path d="M320.112,95.8893h -3.26551" fill="none" stroke="black"/>
<path d="M320.112,91.3998h -3.26551" fill="none" stroke="black"/>
<path d="M320.112,86.9103h -3.26551" fill="none" stroke="black"/>
<path d="M323.377,82.4208h -6.53102" fill="none" stroke="black"/>
<path d="M320.112,77.9313h -3.26551" fill="none" stroke="black"/>
<path d="M320.112,73.4418h -3.26551" fill="none" stroke="black"/>
<path d="M320.112,68.9523h -3.26551" fill="none" stroke="black"/>
<path d="M320.112,64.4628h -3.26551" fill="none" stroke="black"/>
<path d="M323.377,59.9733h -6.53102" fill="none" stroke="black"/>
<path d="M320.112,55.4838h -3.26551" fill="none" stroke="black"/>
<path d="M320.112,50.9943h -3.26551" fill="none" stroke="black"/>
<path d="M320.112,46.5048h -3.26551" fill="none" stroke="black"/>
<path d="M320.112,42.0153h -3.26551" fill="none" stroke="black"/>
<path d="M323.377,37.5258h -6.53102" fill="none" stroke="black"/>
<path d="M323.377,172.211h -6.53102" fill="none" stroke="black"/>
<path d="M320.112,176.7h -3.26551" fill="none" stroke="black"/>
<path d="M320.112,181.19h -3.26551" fill="none" stroke="black"/>
<path d="M320.112,185.679h -3.26551" fill="none" stroke="black"/>
<path d="M320.112,190.169h -3.26551" fill="none" stroke="black"/>
<path d="M323.377,37.5258h -6.53102" fill="none" stroke="black"/>
<path d="M320.112,33.0363h -3.26551" fill="none" stroke="black"/>
<path d="M320.112,28.5468h -3.26551" fill="none" stroke="black"/>
<path d="M320.112,24.0573h -3.26551" fill="none" stroke="black"/>
<text xml:space="preserve" x="308.041" y="174.894" fill="black" font-size="7.30438" font-family="Helvetica">50</text>
<text xml:space="preserve" x="303.952" y="152.18" fill="black" font-size="7.30438" font-family="Helvetica">100</text>
<text xml:space="preserve" x="303.952" y="129.921" fill="black" font-size="7.30438" font-family="Helvetica">150</text>
<text xml:space="preserve" x="303.952" y="107.208" fill="black" font-size="7.30438" font-family="Helvetica">200</text>
<text xml:space="preserve" x="303.952" y="84.9485" fill="black" font-size="7.30438" font-family="Helvetica">250</text>
<text xml:space="preserve" x="303.952" y="62.6893" fill="black" font-size="7.30438" font-family="Helvetica">300</text>
<text xml:space="preserve" x="303.952" y="39.9758" fill="black" font-size="7.30438" font-family="Helvetica">350</text>
<text xml:space="preserve" x="327.574" y="18.6251" fill="black" font-size="5.03626" font-family="Helvetica">3</text>
<text xml:space="preserve" x="320.306" y="22.2592" fill="black" font-size="7.30438" font-family="Helvetica">10</text>
<text xml:space="preserve" x="316.672" y="22.2592" fill="black" font-size="7.30438" font-family="Times">&#0215;</text>
<g transform="rotate(-90,298.047,158.54)">
<text xml:space="preserve" x="298.047" y="158.54" fill="black" font-size="7.30438" font-family="Helvetica"># of optical photons in MCParticles per event</text>
</g>
<g fill="#ff0000">
<circle cx="352.736" cy="165.392" r="1.09025"/>
<circle cx="354.384" cy="155.379" r="1.09025"/>
<circle cx="364.663" cy="123.958" r="1.09025"/>
<circle cx="366.311" cy="126.108" r="1.09025"/>
<circle cx="376.59" cy="147.563" r="1.09025"/>
<circle cx="378.238" cy="149.556" r="1.09025"/>
<circle cx="388.517" cy="38.7466" r="1.09025"/>
<circle cx="390.165" cy="93.425" r="1.09025"/>
<circle cx="400.444" cy="115.635" r="1.09025"/>
<circle cx="402.092" cy="79.8509" r="1.09025"/>
<circle cx="412.37" cy="143.879" r="1.09025"/>
<circle cx="414.019" cy="148.079" r="1.09025"/>
<circle cx="424.297" cy="133.091" r="1.09025"/>
<circle cx="425.946" cy="156.671" r="1.09025"/>
<circle cx="436.224" cy="168.764" r="1.09025"/>
<circle cx="437.873" cy="160.692" r="1.09025"/>
<circle cx="448.151" cy="160.018" r="1.09025"/>
<circle cx="449.799" cy="159.024" r="1.09025"/>
<circle cx="460.078" cy="177.985" r="1.09025"/>
<circle cx="461.726" cy="168.872" r="1.09025"/>
<circle cx="472.005" cy="183.673" r="1.09025"/>
<circle cx="473.653" cy="185.089" r="1.09025"/>
<circle cx="483.932" cy="188.862" r="1.09025"/>
<circle cx="485.58" cy="183.347" r="1.09025"/>
<circle cx="495.859" cy="192.311" r="1.09025"/>
<circle cx="497.507" cy="191.49" r="1.09025"/>
<circle cx="507.786" cy="192.682" r="1.09025"/>
<circle cx="509.434" cy="192.245" r="1.09025"/>
</g>
<text xml:space="preserve" x="335.751" y="11.3568" fill="black" font-size="5.27075" font-family="Helvetica">avg # of -22 PDG in each layer 10 events (5GeV pi- gun) | total: 1677721.625000</text></svg>
