<?xml version="1.0" standalone="no"?>
<svg width="567.429" height="387.116" viewBox="0 0 567.429 387.116" xmlns="http://www.w3.org/2000/svg" shape-rendering="crispEdges">
<title>
plots/april_11/mu_1GeV_energy_run1.svg
</title>
<desc>
Creator: ROOT Version 6.28/10
CreationDate: Thu Apr 11 12:31:34 2024</desc>
<defs>
</defs>
<rect x="0.5" y="0" width="566.929" height="386.616" fill="white"/>
<rect x="57.1929" y="38.6616" width="453.543" height="309.293" fill="white"/>
<rect x="57.1929" y="38.6616" width="453.543" height="309.293" fill="none" stroke="black"/>
<path d="M57.1929,347.955h 453.543" fill="none" stroke="black"/>
<path d="M57.1929,338.676v 9.27879" fill="none" stroke="black"/>
<path d="M73.3909,343.315v 4.6394" fill="none" stroke="black"/>
<path d="M89.5889,343.315v 4.6394" fill="none" stroke="black"/>
<path d="M105.787,343.315v 4.6394" fill="none" stroke="black"/>
<path d="M121.985,338.676v 9.27879" fill="none" stroke="black"/>
<path d="M138.183,343.315v 4.6394" fill="none" stroke="black"/>
<path d="M154.381,343.315v 4.6394" fill="none" stroke="black"/>
<path d="M170.579,343.315v 4.6394" fill="none" stroke="black"/>
<path d="M186.777,338.676v 9.27879" fill="none" stroke="black"/>
<path d="M202.975,343.315v 4.6394" fill="none" stroke="black"/>
<path d="M219.173,343.315v 4.6394" fill="none" stroke="black"/>
<path d="M235.371,343.315v 4.6394" fill="none" stroke="black"/>
<path d="M251.569,338.676v 9.27879" fill="none" stroke="black"/>
<path d="M267.767,343.315v 4.6394" fill="none" stroke="black"/>
<path d="M283.965,343.315v 4.6394" fill="none" stroke="black"/>
<path d="M300.163,343.315v 4.6394" fill="none" stroke="black"/>
<path d="M316.361,338.676v 9.27879" fill="none" stroke="black"/>
<path d="M332.559,343.315v 4.6394" fill="none" stroke="black"/>
<path d="M348.756,343.315v 4.6394" fill="none" stroke="black"/>
<path d="M364.954,343.315v 4.6394" fill="none" stroke="black"/>
<path d="M381.152,338.676v 9.27879" fill="none" stroke="black"/>
<path d="M397.35,343.315v 4.6394" fill="none" stroke="black"/>
<path d="M413.548,343.315v 4.6394" fill="none" stroke="black"/>
<path d="M429.746,343.315v 4.6394" fill="none" stroke="black"/>
<path d="M445.944,338.676v 9.27879" fill="none" stroke="black"/>
<path d="M462.142,343.315v 4.6394" fill="none" stroke="black"/>
<path d="M478.34,343.315v 4.6394" fill="none" stroke="black"/>
<path d="M494.538,343.315v 4.6394" fill="none" stroke="black"/>
<path d="M510.736,338.676v 9.27879" fill="none" stroke="black"/>
<text xml:space="preserve" x="41.9232" y="360.625" fill="black" font-size="12.9143" font-family="Helvetica">1600</text>
<text xml:space="preserve" x="106.901" y="360.625" fill="black" font-size="12.9143" font-family="Helvetica">1800</text>
<text xml:space="preserve" x="171.878" y="360.625" fill="black" font-size="12.9143" font-family="Helvetica">2000</text>
<text xml:space="preserve" x="236.856" y="360.625" fill="black" font-size="12.9143" font-family="Helvetica">2200</text>
<text xml:space="preserve" x="301.021" y="360.625" fill="black" font-size="12.9143" font-family="Helvetica">2400</text>
<text xml:space="preserve" x="365.999" y="360.625" fill="black" font-size="12.9143" font-family="Helvetica">2600</text>
<text xml:space="preserve" x="430.976" y="360.625" fill="black" font-size="12.9143" font-family="Helvetica">2800</text>
<text xml:space="preserve" x="495.954" y="360.625" fill="black" font-size="12.9143" font-family="Helvetica">3000</text>
<text xml:space="preserve" x="366.811" y="373.621" fill="black" font-size="12.9143" font-family="Helvetica">Barrel hit x position (mm)</text>
<path d="M57.1929,347.955v -309.293" fill="none" stroke="black"/>
<path d="M70.7992,319.869h -13.6063" fill="none" stroke="black"/>
<path d="M63.9961,311.969h -6.80315" fill="none" stroke="black"/>
<path d="M63.9961,304.069h -6.80315" fill="none" stroke="black"/>
<path d="M63.9961,296.169h -6.80315" fill="none" stroke="black"/>
<path d="M63.9961,288.269h -6.80315" fill="none" stroke="black"/>
<path d="M70.7992,280.369h -13.6063" fill="none" stroke="black"/>
<path d="M63.9961,272.469h -6.80315" fill="none" stroke="black"/>
<path d="M63.9961,264.57h -6.80315" fill="none" stroke="black"/>
<path d="M63.9961,256.67h -6.80315" fill="none" stroke="black"/>
<path d="M63.9961,248.77h -6.80315" fill="none" stroke="black"/>
<path d="M70.7992,240.87h -13.6063" fill="none" stroke="black"/>
<path d="M63.9961,232.97h -6.80315" fill="none" stroke="black"/>
<path d="M63.9961,225.07h -6.80315" fill="none" stroke="black"/>
<path d="M63.9961,217.17h -6.80315" fill="none" stroke="black"/>
<path d="M63.9961,209.271h -6.80315" fill="none" stroke="black"/>
<path d="M70.7992,201.371h -13.6063" fill="none" stroke="black"/>
<path d="M63.9961,193.471h -6.80315" fill="none" stroke="black"/>
<path d="M63.9961,185.571h -6.80315" fill="none" stroke="black"/>
<path d="M63.9961,177.671h -6.80315" fill="none" stroke="black"/>
<path d="M63.9961,169.771h -6.80315" fill="none" stroke="black"/>
<path d="M70.7992,161.871h -13.6063" fill="none" stroke="black"/>
<path d="M63.9961,153.971h -6.80315" fill="none" stroke="black"/>
<path d="M63.9961,146.072h -6.80315" fill="none" stroke="black"/>
<path d="M63.9961,138.172h -6.80315" fill="none" stroke="black"/>
<path d="M63.9961,130.272h -6.80315" fill="none" stroke="black"/>
<path d="M70.7992,122.372h -13.6063" fill="none" stroke="black"/>
<path d="M63.9961,114.472h -6.80315" fill="none" stroke="black"/>
<path d="M63.9961,106.572h -6.80315" fill="none" stroke="black"/>
<path d="M63.9961,98.6723h -6.80315" fill="none" stroke="black"/>
<path d="M63.9961,90.7724h -6.80315" fill="none" stroke="black"/>
<path d="M70.7992,82.8726h -13.6063" fill="none" stroke="black"/>
<path d="M63.9961,74.9727h -6.80315" fill="none" stroke="black"/>
<path d="M63.9961,67.0728h -6.80315" fill="none" stroke="black"/>
<path d="M63.9961,59.1729h -6.80315" fill="none" stroke="black"/>
<path d="M63.9961,51.2731h -6.80315" fill="none" stroke="black"/>
<path d="M70.7992,43.3732h -13.6063" fill="none" stroke="black"/>
<path d="M70.7992,319.869h -13.6063" fill="none" stroke="black"/>
<path d="M63.9961,327.769h -6.80315" fill="none" stroke="black"/>
<path d="M63.9961,335.668h -6.80315" fill="none" stroke="black"/>
<path d="M63.9961,343.568h -6.80315" fill="none" stroke="black"/>
<path d="M70.7992,43.3732h -13.6063" fill="none" stroke="black"/>
<text xml:space="preserve" x="24.0544" y="324.076" fill="black" font-size="12.9143" font-family="Helvetica">0.001</text>
<text xml:space="preserve" x="16.7444" y="324.076" fill="black" font-size="12.9143" font-family="Times">&#8722;</text>
<text xml:space="preserve" x="46.7965" y="285.089" fill="black" font-size="12.9143" font-family="Helvetica">0</text>
<text xml:space="preserve" x="24.0544" y="245.29" fill="black" font-size="12.9143" font-family="Helvetica">0.001</text>
<text xml:space="preserve" x="21.6177" y="205.492" fill="black" font-size="12.9143" font-family="Helvetica">0.002</text>
<text xml:space="preserve" x="21.6177" y="166.505" fill="black" font-size="12.9143" font-family="Helvetica">0.003</text>
<text xml:space="preserve" x="21.6177" y="126.706" fill="black" font-size="12.9143" font-family="Helvetica">0.004</text>
<text xml:space="preserve" x="21.6177" y="87.7197" fill="black" font-size="12.9143" font-family="Helvetica">0.005</text>
<text xml:space="preserve" x="21.6177" y="47.9209" fill="black" font-size="12.9143" font-family="Helvetica">0.006</text>
<g transform="rotate(-90,3.74888,234.731)">
<text xml:space="preserve" x="3.74888" y="234.731" fill="black" font-size="12.9143" font-family="Helvetica">Energy deposited per event (GeV)</text>
</g>
<text xml:space="preserve" x="104.464" y="17.0566" fill="black" font-size="12.6119" font-family="Helvetica">avg energy deposition in each layer 10000 events (1GeV mu- gun)</text>
<g fill="#ff0000">
<polygon points=" 131.421, 199.42 131.421, 198.337 132.504, 198.337 132.504, 199.42 133.587, 199.42 133.587, 200.503 132.504, 200.503 132.504, 201.586 131.421, 201.586 131.421, 200.503 130.338, 200.503 130.338, 199.42"/>
<polygon points=" 134.855, 197.792 134.855, 196.709 135.938, 196.709 135.938, 197.792 137.021, 197.792 137.021, 198.875 135.938, 198.875 135.938, 199.958 134.855, 199.958 134.855, 198.875 133.772, 198.875 133.772, 197.792"/>
<polygon points=" 156.269, 199.939 156.269, 198.856 157.352, 198.856 157.352, 199.939 158.435, 199.939 158.435, 201.022 157.352, 201.022 157.352, 202.105 156.269, 202.105 156.269, 201.022 155.186, 201.022 155.186, 199.939"/>
<polygon points=" 159.703, 198.305 159.703, 197.222 160.786, 197.222 160.786, 198.305 161.869, 198.305 161.869, 199.388 160.786, 199.388 160.786, 200.471 159.703, 200.471 159.703, 199.388 158.62, 199.388 158.62, 198.305"/>
<polygon points=" 181.117, 199.929 181.117, 198.846 182.2, 198.846 182.2, 199.929 183.283, 199.929 183.283, 201.012 182.2, 201.012 182.2, 202.095 181.117, 202.095 181.117, 201.012 180.034, 201.012 180.034, 199.929"/>
<polygon points=" 184.551, 198.574 184.551, 197.491 185.634, 197.491 185.634, 198.574 186.717, 198.574 186.717, 199.657 185.634, 199.657 185.634, 200.74 184.551, 200.74 184.551, 199.657 183.468, 199.657 183.468, 198.574"/>
<polygon points=" 205.964, 200.335 205.964, 199.252 207.047, 199.252 207.047, 200.335 208.13, 200.335 208.13, 201.418 207.047, 201.418 207.047, 202.501 205.964, 202.501 205.964, 201.418 204.881, 201.418 204.881, 200.335"/>
<polygon points=" 209.398, 198.816 209.398, 197.733 210.481, 197.733 210.481, 198.816 211.564, 198.816 211.564, 199.899 210.481, 199.899 210.481, 200.982 209.398, 200.982 209.398, 199.899 208.315, 199.899 208.315, 198.816"/>
<polygon points=" 230.812, 200.946 230.812, 199.863 231.895, 199.863 231.895, 200.946 232.978, 200.946 232.978, 202.029 231.895, 202.029 231.895, 203.112 230.812, 203.112 230.812, 202.029 229.729, 202.029 229.729, 200.946"/>
<polygon points=" 234.246, 199.728 234.246, 198.645 235.329, 198.645 235.329, 199.728 236.412, 199.728 236.412, 200.811 235.329, 200.811 235.329, 201.894 234.246, 201.894 234.246, 200.811 233.163, 200.811 233.163, 199.728"/>
<polygon points=" 255.66, 200.843 255.66, 199.76 256.743, 199.76 256.743, 200.843 257.826, 200.843 257.826, 201.926 256.743, 201.926 256.743, 203.009 255.66, 203.009 255.66, 201.926 254.577, 201.926 254.577, 200.843"/>
<polygon points=" 259.094, 199.86 259.094, 198.777 260.177, 198.777 260.177, 199.86 261.26, 199.86 261.26, 200.943 260.177, 200.943 260.177, 202.026 259.094, 202.026 259.094, 200.943 258.011, 200.943 258.011, 199.86"/>
<polygon points=" 280.507, 201.223 280.507, 200.141 281.59, 200.141 281.59, 201.223 282.673, 201.223 282.673, 202.306 281.59, 202.306 281.59, 203.389 280.507, 203.389 280.507, 202.306 279.424, 202.306 279.424, 201.223"/>
<polygon points=" 283.941, 200.142 283.941, 199.059 285.024, 199.059 285.024, 200.142 286.107, 200.142 286.107, 201.225 285.024, 201.225 285.024, 202.308 283.941, 202.308 283.941, 201.225 282.858, 201.225 282.858, 200.142"/>
<polygon points=" 305.355, 200.521 305.355, 199.438 306.438, 199.438 306.438, 200.521 307.521, 200.521 307.521, 201.604 306.438, 201.604 306.438, 202.687 305.355, 202.687 305.355, 201.604 304.272, 201.604 304.272, 200.521"/>
<polygon points=" 308.789, 199.386 308.789, 198.303 309.872, 198.303 309.872, 199.386 310.955, 199.386 310.955, 200.469 309.872, 200.469 309.872, 201.552 308.789, 201.552 308.789, 200.469 307.706, 200.469 307.706, 199.386"/>
<polygon points=" 330.203, 200.124 330.203, 199.041 331.286, 199.041 331.286, 200.124 332.369, 200.124 332.369, 201.207 331.286, 201.207 331.286, 202.29 330.203, 202.29 330.203, 201.207 329.12, 201.207 329.12, 200.124"/>
<polygon points=" 333.637, 199.383 333.637, 198.3 334.72, 198.3 334.72, 199.383 335.803, 199.383 335.803, 200.466 334.72, 200.466 334.72, 201.549 333.637, 201.549 333.637, 200.466 332.554, 200.466 332.554, 199.383"/>
<polygon points=" 355.051, 197.912 355.051, 196.829 356.134, 196.829 356.134, 197.912 357.216, 197.912 357.216, 198.995 356.134, 198.995 356.134, 200.078 355.051, 200.078 355.051, 198.995 353.968, 198.995 353.968, 197.912"/>
<polygon points=" 358.484, 197.159 358.484, 196.076 359.567, 196.076 359.567, 197.159 360.65, 197.159 360.65, 198.242 359.567, 198.242 359.567, 199.325 358.484, 199.325 358.484, 198.242 357.402, 198.242 357.402, 197.159"/>
<polygon points=" 379.898, 189.301 379.898, 188.218 380.981, 188.218 380.981, 189.301 382.064, 189.301 382.064, 190.384 380.981, 190.384 380.981, 191.467 379.898, 191.467 379.898, 190.384 378.815, 190.384 378.815, 189.301"/>
<polygon points=" 383.332, 188.048 383.332, 186.965 384.415, 186.965 384.415, 188.048 385.498, 188.048 385.498, 189.131 384.415, 189.131 384.415, 190.214 383.332, 190.214 383.332, 189.131 382.249, 189.131 382.249, 188.048"/>
<polygon points=" 404.746, 166.792 404.746, 165.709 405.829, 165.709 405.829, 166.792 406.912, 166.792 406.912, 167.875 405.829, 167.875 405.829, 168.958 404.746, 168.958 404.746, 167.875 403.663, 167.875 403.663, 166.792"/>
<polygon points=" 408.18, 166.315 408.18, 165.232 409.263, 165.232 409.263, 166.315 410.346, 166.315 410.346, 167.398 409.263, 167.398 409.263, 168.481 408.18, 168.481 408.18, 167.398 407.097, 167.398 407.097, 166.315"/>
<polygon points=" 429.594, 270.618 429.594, 269.535 430.677, 269.535 430.677, 270.618 431.76, 270.618 431.76, 271.701 430.677, 271.701 430.677, 272.784 429.594, 272.784 429.594, 271.701 428.511, 271.701 428.511, 270.618"/>
<polygon points=" 433.028, 272.327 433.028, 271.244 434.111, 271.244 434.111, 272.327 435.194, 272.327 435.194, 273.41 434.111, 273.41 434.111, 274.493 433.028, 274.493 433.028, 273.41 431.945, 273.41 431.945, 272.327"/>
<polygon points=" 454.441, 279.108 454.441, 278.026 455.524, 278.026 455.524, 279.108 456.607, 279.108 456.607, 280.191 455.524, 280.191 455.524, 281.274 454.441, 281.274 454.441, 280.191 453.358, 280.191 453.358, 279.108"/>
<polygon points=" 457.875, 279.279 457.875, 278.196 458.958, 278.196 458.958, 279.279 460.041, 279.279 460.041, 280.362 458.958, 280.362 458.958, 281.445 457.875, 281.445 457.875, 280.362 456.792, 280.362 456.792, 279.279"/>
</g>
<path d="M131.963,198.337v -29.9413" fill="none" stroke="black"/>
<path d="M130.338,168.395h 3.24888" fill="none" stroke="black"/>
<path d="M131.963,201.586v 29.9413" fill="none" stroke="black"/>
<path d="M130.338,231.527h 3.24888" fill="none" stroke="black"/>
<path d="M135.397,196.709v -31.3088" fill="none" stroke="black"/>
<path d="M133.772,165.401h 3.24888" fill="none" stroke="black"/>
<path d="M135.397,199.958v 31.3088" fill="none" stroke="black"/>
<path d="M133.772,231.267h 3.24888" fill="none" stroke="black"/>
<path d="M156.81,198.856v -28.9493" fill="none" stroke="black"/>
<path d="M155.186,169.907h 3.24888" fill="none" stroke="black"/>
<path d="M156.81,202.105v 28.9493" fill="none" stroke="black"/>
<path d="M155.186,231.054h 3.24888" fill="none" stroke="black"/>
<path d="M160.244,197.222v -30.8945" fill="none" stroke="black"/>
<path d="M158.62,166.327h 3.24888" fill="none" stroke="black"/>
<path d="M160.244,200.471v 30.8945" fill="none" stroke="black"/>
<path d="M158.62,231.365h 3.24888" fill="none" stroke="black"/>
<path d="M181.658,198.846v -29.7359" fill="none" stroke="black"/>
<path d="M180.034,169.11h 3.24888" fill="none" stroke="black"/>
<path d="M181.658,202.095v 29.7359" fill="none" stroke="black"/>
<path d="M180.034,231.831h 3.24888" fill="none" stroke="black"/>
<path d="M185.092,197.491v -29.4524" fill="none" stroke="black"/>
<path d="M183.468,168.039h 3.24888" fill="none" stroke="black"/>
<path d="M185.092,200.74v 29.4524" fill="none" stroke="black"/>
<path d="M183.468,230.192h 3.24888" fill="none" stroke="black"/>
<path d="M206.506,199.252v -27.44" fill="none" stroke="black"/>
<path d="M204.881,171.812h 3.24888" fill="none" stroke="black"/>
<path d="M206.506,202.501v 27.44" fill="none" stroke="black"/>
<path d="M204.881,229.941h 3.24888" fill="none" stroke="black"/>
<path d="M209.94,197.733v -29.5319" fill="none" stroke="black"/>
<path d="M208.315,168.201h 3.24888" fill="none" stroke="black"/>
<path d="M209.94,200.982v 29.5319" fill="none" stroke="black"/>
<path d="M208.315,230.514h 3.24888" fill="none" stroke="black"/>
<path d="M231.354,199.863v -25.971" fill="none" stroke="black"/>
<path d="M229.729,173.892h 3.24888" fill="none" stroke="black"/>
<path d="M231.354,203.112v 25.971" fill="none" stroke="black"/>
<path d="M229.729,229.083h 3.24888" fill="none" stroke="black"/>
<path d="M234.788,198.645v -27.4764" fill="none" stroke="black"/>
<path d="M233.163,171.168h 3.24888" fill="none" stroke="black"/>
<path d="M234.788,201.894v 27.4764" fill="none" stroke="black"/>
<path d="M233.163,229.37h 3.24888" fill="none" stroke="black"/>
<path d="M256.201,199.76v -25.4722" fill="none" stroke="black"/>
<path d="M254.577,174.288h 3.24888" fill="none" stroke="black"/>
<path d="M256.201,203.009v 25.4722" fill="none" stroke="black"/>
<path d="M254.577,228.481h 3.24888" fill="none" stroke="black"/>
<path d="M259.635,198.777v -26.7878" fill="none" stroke="black"/>
<path d="M258.011,171.99h 3.24888" fill="none" stroke="black"/>
<path d="M259.635,202.026v 26.7878" fill="none" stroke="black"/>
<path d="M258.011,228.814h 3.24888" fill="none" stroke="black"/>
<path d="M281.049,200.141v -22.8519" fill="none" stroke="black"/>
<path d="M279.424,177.289h 3.24888" fill="none" stroke="black"/>
<path d="M281.049,203.389v 22.8519" fill="none" stroke="black"/>
<path d="M279.424,226.241h 3.24888" fill="none" stroke="black"/>
<path d="M284.483,199.059v -25.012" fill="none" stroke="black"/>
<path d="M282.858,174.047h 3.24888" fill="none" stroke="black"/>
<path d="M284.483,202.308v 25.012" fill="none" stroke="black"/>
<path d="M282.858,227.32h 3.24888" fill="none" stroke="black"/>
<path d="M305.897,199.438v -23.523" fill="none" stroke="black"/>
<path d="M304.272,175.915h 3.24888" fill="none" stroke="black"/>
<path d="M305.897,202.687v 23.523" fill="none" stroke="black"/>
<path d="M304.272,226.21h 3.24888" fill="none" stroke="black"/>
<path d="M309.331,198.303v -24.8678" fill="none" stroke="black"/>
<path d="M307.706,173.435h 3.24888" fill="none" stroke="black"/>
<path d="M309.331,201.552v 24.8678" fill="none" stroke="black"/>
<path d="M307.706,226.419h 3.24888" fill="none" stroke="black"/>
<path d="M330.744,199.041v -20.9041" fill="none" stroke="black"/>
<path d="M329.12,178.137h 3.24888" fill="none" stroke="black"/>
<path d="M330.744,202.29v 20.9041" fill="none" stroke="black"/>
<path d="M329.12,223.194h 3.24888" fill="none" stroke="black"/>
<path d="M334.178,198.3v -21.8112" fill="none" stroke="black"/>
<path d="M332.554,176.489h 3.24888" fill="none" stroke="black"/>
<path d="M334.178,201.549v 21.8112" fill="none" stroke="black"/>
<path d="M332.554,223.36h 3.24888" fill="none" stroke="black"/>
<path d="M355.592,196.829v -19.5938" fill="none" stroke="black"/>
<path d="M353.968,177.235h 3.24888" fill="none" stroke="black"/>
<path d="M355.592,200.078v 19.5938" fill="none" stroke="black"/>
<path d="M353.968,219.672h 3.24888" fill="none" stroke="black"/>
<path d="M359.026,196.076v -20.8107" fill="none" stroke="black"/>
<path d="M357.402,175.266h 3.24888" fill="none" stroke="black"/>
<path d="M359.026,199.325v 20.8107" fill="none" stroke="black"/>
<path d="M357.402,220.136h 3.24888" fill="none" stroke="black"/>
<path d="M380.44,188.218v -25.5212" fill="none" stroke="black"/>
<path d="M378.815,162.697h 3.24888" fill="none" stroke="black"/>
<path d="M380.44,191.467v 25.5212" fill="none" stroke="black"/>
<path d="M378.815,216.988h 3.24888" fill="none" stroke="black"/>
<path d="M383.874,186.965v -26.8277" fill="none" stroke="black"/>
<path d="M382.249,160.138h 3.24888" fill="none" stroke="black"/>
<path d="M383.874,190.214v 26.8277" fill="none" stroke="black"/>
<path d="M382.249,217.042h 3.24888" fill="none" stroke="black"/>
<path d="M405.287,165.709v -99.9081" fill="none" stroke="black"/>
<path d="M403.663,65.8013h 3.24888" fill="none" stroke="black"/>
<path d="M405.287,168.958v 99.9081" fill="none" stroke="black"/>
<path d="M403.663,268.866h 3.24888" fill="none" stroke="black"/>
<path d="M408.721,165.232v -100.796" fill="none" stroke="black"/>
<path d="M407.097,64.4361h 3.24888" fill="none" stroke="black"/>
<path d="M408.721,168.481v 100.796" fill="none" stroke="black"/>
<path d="M407.097,269.277h 3.24888" fill="none" stroke="black"/>
<path d="M430.135,269.535v -49.396" fill="none" stroke="black"/>
<path d="M428.511,220.139h 3.24888" fill="none" stroke="black"/>
<path d="M430.135,272.784v 49.396" fill="none" stroke="black"/>
<path d="M428.511,322.18h 3.24888" fill="none" stroke="black"/>
<path d="M433.569,271.244v -43.0103" fill="none" stroke="black"/>
<path d="M431.945,228.234h 3.24888" fill="none" stroke="black"/>
<path d="M433.569,274.493v 43.0103" fill="none" stroke="black"/>
<path d="M431.945,317.503h 3.24888" fill="none" stroke="black"/>
<path d="M454.983,278.026v -5.09103" fill="none" stroke="black"/>
<path d="M453.358,272.935h 3.24888" fill="none" stroke="black"/>
<path d="M454.983,281.274v 5.09103" fill="none" stroke="black"/>
<path d="M453.358,286.365h 3.24888" fill="none" stroke="black"/>
<path d="M458.417,278.196v -4.23659" fill="none" stroke="black"/>
<path d="M456.792,273.96h 3.24888" fill="none" stroke="black"/>
<path d="M458.417,281.445v 4.23659" fill="none" stroke="black"/>
<path d="M456.792,285.682h 3.24888" fill="none" stroke="black"/>
<text xml:space="preserve" x="104.464" y="17.0566" fill="black" font-size="12.6119" font-family="Helvetica">avg energy deposition in each layer 10000 events (1GeV mu- gun)</text></svg>
