<?xml version="1.0" encoding="utf-8" standalone="no"?>
<!DOCTYPE svg PUBLIC "-//W3C//DTD SVG 1.1//EN"
  "http://www.w3.org/Graphics/SVG/1.1/DTD/svg11.dtd">
<svg xmlns:xlink="http://www.w3.org/1999/xlink" width="432pt" height="288pt" viewBox="0 0 432 288" xmlns="http://www.w3.org/2000/svg" version="1.1">
 <metadata>
  <rdf:RDF xmlns:dc="http://purl.org/dc/elements/1.1/" xmlns:cc="http://creativecommons.org/ns#" xmlns:rdf="http://www.w3.org/1999/02/22-rdf-syntax-ns#">
   <cc:Work>
    <dc:type rdf:resource="http://purl.org/dc/dcmitype/StillImage"/>
    <dc:date>2024-05-31T15:17:03.294348</dc:date>
    <dc:format>image/svg+xml</dc:format>
    <dc:creator>
     <cc:Agent>
      <dc:title>Matplotlib v3.7.4, https://matplotlib.org/</dc:title>
     </cc:Agent>
    </dc:creator>
   </cc:Work>
  </rdf:RDF>
 </metadata>
 <defs>
  <style type="text/css">*{stroke-linejoin: round; stroke-linecap: butt}</style>
 </defs>
 <g id="figure_1">
  <g id="patch_1">
   <path d="M 0 288 
L 432 288 
L 432 0 
L 0 0 
L 0 288 
z
" style="fill: none"/>
  </g>
  <g id="axes_1">
   <g id="patch_2">
    <path d="M 54 252 
L 388.8 252 
L 388.8 34.56 
L 54 34.56 
z
" style="fill: #ffffff"/>
   </g>
   <g id="patch_3">
    <path d="M 69.218182 252 
L 75.305412 252 
L 75.305412 249.411429 
L 69.218182 249.411429 
z
" clip-path="url(#pb1633e975b)" style="fill: #ffa500; opacity: 0.75"/>
   </g>
   <g id="patch_4">
    <path d="M 75.305412 252 
L 81.392641 252 
L 81.392641 252 
L 75.305412 252 
z
" clip-path="url(#pb1633e975b)" style="fill: #ffa500; opacity: 0.75"/>
   </g>
   <g id="patch_5">
    <path d="M 81.392641 252 
L 87.48011 252 
L 87.48011 252 
L 81.392641 252 
z
" clip-path="url(#pb1633e975b)" style="fill: #ffa500; opacity: 0.75"/>
   </g>
   <g id="patch_6">
    <path d="M 87.48011 252 
L 93.567339 252 
L 93.567339 252 
L 87.48011 252 
z
" clip-path="url(#pb1633e975b)" style="fill: #ffa500; opacity: 0.75"/>
   </g>
   <g id="patch_7">
    <path d="M 93.567339 252 
L 99.654569 252 
L 99.654569 241.645714 
L 93.567339 241.645714 
z
" clip-path="url(#pb1633e975b)" style="fill: #ffa500; opacity: 0.75"/>
   </g>
   <g id="patch_8">
    <path d="M 99.654569 252 
L 105.741799 252 
L 105.741799 249.411429 
L 99.654569 249.411429 
z
" clip-path="url(#pb1633e975b)" style="fill: #ffa500; opacity: 0.75"/>
   </g>
   <g id="patch_9">
    <path d="M 105.741799 252 
L 111.829029 252 
L 111.829029 244.234286 
L 105.741799 244.234286 
z
" clip-path="url(#pb1633e975b)" style="fill: #ffa500; opacity: 0.75"/>
   </g>
   <g id="patch_10">
    <path d="M 111.829029 252 
L 117.916259 252 
L 117.916259 246.822857 
L 111.829029 246.822857 
z
" clip-path="url(#pb1633e975b)" style="fill: #ffa500; opacity: 0.75"/>
   </g>
   <g id="patch_11">
    <path d="M 117.916259 252 
L 124.003727 252 
L 124.003727 231.292239 
L 117.916259 231.292239 
z
" clip-path="url(#pb1633e975b)" style="fill: #ffa500; opacity: 0.75"/>
   </g>
   <g id="patch_12">
    <path d="M 124.003727 252 
L 130.090957 252 
L 130.090957 241.645714 
L 124.003727 241.645714 
z
" clip-path="url(#pb1633e975b)" style="fill: #ffa500; opacity: 0.75"/>
   </g>
   <g id="patch_13">
    <path d="M 130.090957 252 
L 136.178187 252 
L 136.178187 228.702857 
L 130.090957 228.702857 
z
" clip-path="url(#pb1633e975b)" style="fill: #ffa500; opacity: 0.75"/>
   </g>
   <g id="patch_14">
    <path d="M 136.178187 252 
L 142.265416 252 
L 142.265416 187.285714 
L 136.178187 187.285714 
z
" clip-path="url(#pb1633e975b)" style="fill: #ffa500; opacity: 0.75"/>
   </g>
   <g id="patch_15">
    <path d="M 142.265416 252 
L 148.352646 252 
L 148.352646 187.285714 
L 142.265416 187.285714 
z
" clip-path="url(#pb1633e975b)" style="fill: #ffa500; opacity: 0.75"/>
   </g>
   <g id="patch_16">
    <path d="M 148.352646 252 
L 154.440114 252 
L 154.440114 145.872726 
L 148.352646 145.872726 
z
" clip-path="url(#pb1633e975b)" style="fill: #ffa500; opacity: 0.75"/>
   </g>
   <g id="patch_17">
    <path d="M 154.440114 252 
L 160.527344 252 
L 160.527344 119.982857 
L 154.440114 119.982857 
z
" clip-path="url(#pb1633e975b)" style="fill: #ffa500; opacity: 0.75"/>
   </g>
   <g id="patch_18">
    <path d="M 160.527344 252 
L 166.614574 252 
L 166.614574 68.211429 
L 160.527344 68.211429 
z
" clip-path="url(#pb1633e975b)" style="fill: #ffa500; opacity: 0.75"/>
   </g>
   <g id="patch_19">
    <path d="M 166.614574 252 
L 172.701804 252 
L 172.701804 44.914286 
L 166.614574 44.914286 
z
" clip-path="url(#pb1633e975b)" style="fill: #ffa500; opacity: 0.75"/>
   </g>
   <g id="patch_20">
    <path d="M 172.701804 252 
L 178.789034 252 
L 178.789034 47.502857 
L 172.701804 47.502857 
z
" clip-path="url(#pb1633e975b)" style="fill: #ffa500; opacity: 0.75"/>
   </g>
   <g id="patch_21">
    <path d="M 178.789034 252 
L 184.876264 252 
L 184.876264 78.565714 
L 178.789034 78.565714 
z
" clip-path="url(#pb1633e975b)" style="fill: #ffa500; opacity: 0.75"/>
   </g>
   <g id="patch_22">
    <path d="M 184.876264 252 
L 190.963732 252 
L 190.963732 55.276272 
L 184.876264 55.276272 
z
" clip-path="url(#pb1633e975b)" style="fill: #ffa500; opacity: 0.75"/>
   </g>
   <g id="patch_23">
    <path d="M 190.963732 252 
L 197.050962 252 
L 197.050962 86.331429 
L 190.963732 86.331429 
z
" clip-path="url(#pb1633e975b)" style="fill: #ffa500; opacity: 0.75"/>
   </g>
   <g id="patch_24">
    <path d="M 197.050962 252 
L 203.138191 252 
L 203.138191 148.457143 
L 197.050962 148.457143 
z
" clip-path="url(#pb1633e975b)" style="fill: #ffa500; opacity: 0.75"/>
   </g>
   <g id="patch_25">
    <path d="M 203.138191 252 
L 209.225421 252 
L 209.225421 86.331429 
L 203.138191 86.331429 
z
" clip-path="url(#pb1633e975b)" style="fill: #ffa500; opacity: 0.75"/>
   </g>
   <g id="patch_26">
    <path d="M 209.225421 252 
L 215.312651 252 
L 215.312651 145.868571 
L 209.225421 145.868571 
z
" clip-path="url(#pb1633e975b)" style="fill: #ffa500; opacity: 0.75"/>
   </g>
   <g id="patch_27">
    <path d="M 215.312651 252 
L 221.400119 252 
L 221.400119 163.992016 
L 215.312651 163.992016 
z
" clip-path="url(#pb1633e975b)" style="fill: #ffa500; opacity: 0.75"/>
   </g>
   <g id="patch_28">
    <path d="M 221.400119 252 
L 227.487349 252 
L 227.487349 207.994286 
L 221.400119 207.994286 
z
" clip-path="url(#pb1633e975b)" style="fill: #ffa500; opacity: 0.75"/>
   </g>
   <g id="patch_29">
    <path d="M 227.487349 252 
L 233.574579 252 
L 233.574579 166.577143 
L 227.487349 166.577143 
z
" clip-path="url(#pb1633e975b)" style="fill: #ffa500; opacity: 0.75"/>
   </g>
   <g id="patch_30">
    <path d="M 233.574579 252 
L 239.661809 252 
L 239.661809 184.697143 
L 233.574579 184.697143 
z
" clip-path="url(#pb1633e975b)" style="fill: #ffa500; opacity: 0.75"/>
   </g>
   <g id="patch_31">
    <path d="M 239.661809 252 
L 245.749038 252 
L 245.749038 192.462857 
L 239.661809 192.462857 
z
" clip-path="url(#pb1633e975b)" style="fill: #ffa500; opacity: 0.75"/>
   </g>
   <g id="patch_32">
    <path d="M 245.749038 252 
L 251.836268 252 
L 251.836268 189.874286 
L 245.749038 189.874286 
z
" clip-path="url(#pb1633e975b)" style="fill: #ffa500; opacity: 0.75"/>
   </g>
   <g id="patch_33">
    <path d="M 251.836268 252 
L 257.923736 252 
L 257.923736 207.996008 
L 251.836268 207.996008 
z
" clip-path="url(#pb1633e975b)" style="fill: #ffa500; opacity: 0.75"/>
   </g>
   <g id="patch_34">
    <path d="M 257.923736 252 
L 264.010966 252 
L 264.010966 220.937143 
L 257.923736 220.937143 
z
" clip-path="url(#pb1633e975b)" style="fill: #ffa500; opacity: 0.75"/>
   </g>
   <g id="patch_35">
    <path d="M 264.010966 252 
L 270.098196 252 
L 270.098196 228.702857 
L 264.010966 228.702857 
z
" clip-path="url(#pb1633e975b)" style="fill: #ffa500; opacity: 0.75"/>
   </g>
   <g id="patch_36">
    <path d="M 270.098196 252 
L 276.185426 252 
L 276.185426 233.88 
L 270.098196 233.88 
z
" clip-path="url(#pb1633e975b)" style="fill: #ffa500; opacity: 0.75"/>
   </g>
   <g id="patch_37">
    <path d="M 276.185426 252 
L 282.272656 252 
L 282.272656 223.525714 
L 276.185426 223.525714 
z
" clip-path="url(#pb1633e975b)" style="fill: #ffa500; opacity: 0.75"/>
   </g>
   <g id="patch_38">
    <path d="M 282.272656 252 
L 288.359886 252 
L 288.359886 233.88 
L 282.272656 233.88 
z
" clip-path="url(#pb1633e975b)" style="fill: #ffa500; opacity: 0.75"/>
   </g>
   <g id="patch_39">
    <path d="M 288.359886 252 
L 294.447354 252 
L 294.447354 236.469179 
L 288.359886 236.469179 
z
" clip-path="url(#pb1633e975b)" style="fill: #ffa500; opacity: 0.75"/>
   </g>
   <g id="patch_40">
    <path d="M 294.447354 252 
L 300.534584 252 
L 300.534584 246.822857 
L 294.447354 246.822857 
z
" clip-path="url(#pb1633e975b)" style="fill: #ffa500; opacity: 0.75"/>
   </g>
   <g id="patch_41">
    <path d="M 300.534584 252 
L 306.621813 252 
L 306.621813 241.645714 
L 300.534584 241.645714 
z
" clip-path="url(#pb1633e975b)" style="fill: #ffa500; opacity: 0.75"/>
   </g>
   <g id="patch_42">
    <path d="M 306.621813 252 
L 312.709043 252 
L 312.709043 246.822857 
L 306.621813 246.822857 
z
" clip-path="url(#pb1633e975b)" style="fill: #ffa500; opacity: 0.75"/>
   </g>
   <g id="patch_43">
    <path d="M 312.709043 252 
L 318.796273 252 
L 318.796273 244.234286 
L 312.709043 244.234286 
z
" clip-path="url(#pb1633e975b)" style="fill: #ffa500; opacity: 0.75"/>
   </g>
   <g id="patch_44">
    <path d="M 318.796273 252 
L 324.883741 252 
L 324.883741 249.41153 
L 318.796273 249.41153 
z
" clip-path="url(#pb1633e975b)" style="fill: #ffa500; opacity: 0.75"/>
   </g>
   <g id="patch_45">
    <path d="M 324.883741 252 
L 330.970971 252 
L 330.970971 246.822857 
L 324.883741 246.822857 
z
" clip-path="url(#pb1633e975b)" style="fill: #ffa500; opacity: 0.75"/>
   </g>
   <g id="patch_46">
    <path d="M 330.970971 252 
L 337.058201 252 
L 337.058201 252 
L 330.970971 252 
z
" clip-path="url(#pb1633e975b)" style="fill: #ffa500; opacity: 0.75"/>
   </g>
   <g id="patch_47">
    <path d="M 337.058201 252 
L 343.145431 252 
L 343.145431 246.822857 
L 337.058201 246.822857 
z
" clip-path="url(#pb1633e975b)" style="fill: #ffa500; opacity: 0.75"/>
   </g>
   <g id="patch_48">
    <path d="M 343.145431 252 
L 349.232661 252 
L 349.232661 252 
L 343.145431 252 
z
" clip-path="url(#pb1633e975b)" style="fill: #ffa500; opacity: 0.75"/>
   </g>
   <g id="patch_49">
    <path d="M 349.232661 252 
L 355.31989 252 
L 355.31989 249.411429 
L 349.232661 249.411429 
z
" clip-path="url(#pb1633e975b)" style="fill: #ffa500; opacity: 0.75"/>
   </g>
   <g id="patch_50">
    <path d="M 355.31989 252 
L 361.407359 252 
L 361.407359 252 
L 355.31989 252 
z
" clip-path="url(#pb1633e975b)" style="fill: #ffa500; opacity: 0.75"/>
   </g>
   <g id="patch_51">
    <path d="M 361.407359 252 
L 367.494588 252 
L 367.494588 252 
L 361.407359 252 
z
" clip-path="url(#pb1633e975b)" style="fill: #ffa500; opacity: 0.75"/>
   </g>
   <g id="patch_52">
    <path d="M 367.494588 252 
L 373.581818 252 
L 373.581818 249.411429 
L 367.494588 249.411429 
z
" clip-path="url(#pb1633e975b)" style="fill: #ffa500; opacity: 0.75"/>
   </g>
   <g id="matplotlib.axis_1">
    <g id="xtick_1">
     <g id="line2d_1">
      <path d="M 68.723617 252 
L 68.723617 34.56 
" clip-path="url(#pb1633e975b)" style="fill: none; stroke: #b0b0b0; stroke-width: 0.8; stroke-linecap: square"/>
     </g>
     <g id="line2d_2">
      <defs>
       <path id="mcf24956a48" d="M 0 0 
L 0 3.5 
" style="stroke: #000000; stroke-width: 0.8"/>
      </defs>
      <g>
       <use xlink:href="#mcf24956a48" x="68.723617" y="252" style="stroke: #000000; stroke-width: 0.8"/>
      </g>
     </g>
     <g id="text_1">
      <!-- 11.4 -->
      <g transform="translate(57.590804 266.598437) scale(0.1 -0.1)">
       <defs>
        <path id="DejaVuSans-31" d="M 794 531 
L 1825 531 
L 1825 4091 
L 703 3866 
L 703 4441 
L 1819 4666 
L 2450 4666 
L 2450 531 
L 3481 531 
L 3481 0 
L 794 0 
L 794 531 
z
" transform="scale(0.015625)"/>
        <path id="DejaVuSans-2e" d="M 684 794 
L 1344 794 
L 1344 0 
L 684 0 
L 684 794 
z
" transform="scale(0.015625)"/>
        <path id="DejaVuSans-34" d="M 2419 4116 
L 825 1625 
L 2419 1625 
L 2419 4116 
z
M 2253 4666 
L 3047 4666 
L 3047 1625 
L 3713 1625 
L 3713 1100 
L 3047 1100 
L 3047 0 
L 2419 0 
L 2419 1100 
L 313 1100 
L 313 1709 
L 2253 4666 
z
" transform="scale(0.015625)"/>
       </defs>
       <use xlink:href="#DejaVuSans-31"/>
       <use xlink:href="#DejaVuSans-31" x="63.623047"/>
       <use xlink:href="#DejaVuSans-2e" x="127.246094"/>
       <use xlink:href="#DejaVuSans-34" x="159.033203"/>
      </g>
     </g>
    </g>
    <g id="xtick_2">
     <g id="line2d_3">
      <path d="M 118.693657 252 
L 118.693657 34.56 
" clip-path="url(#pb1633e975b)" style="fill: none; stroke: #b0b0b0; stroke-width: 0.8; stroke-linecap: square"/>
     </g>
     <g id="line2d_4">
      <g>
       <use xlink:href="#mcf24956a48" x="118.693657" y="252" style="stroke: #000000; stroke-width: 0.8"/>
      </g>
     </g>
     <g id="text_2">
      <!-- 11.6 -->
      <g transform="translate(107.560845 266.598437) scale(0.1 -0.1)">
       <defs>
        <path id="DejaVuSans-36" d="M 2113 2584 
Q 1688 2584 1439 2293 
Q 1191 2003 1191 1497 
Q 1191 994 1439 701 
Q 1688 409 2113 409 
Q 2538 409 2786 701 
Q 3034 994 3034 1497 
Q 3034 2003 2786 2293 
Q 2538 2584 2113 2584 
z
M 3366 4563 
L 3366 3988 
Q 3128 4100 2886 4159 
Q 2644 4219 2406 4219 
Q 1781 4219 1451 3797 
Q 1122 3375 1075 2522 
Q 1259 2794 1537 2939 
Q 1816 3084 2150 3084 
Q 2853 3084 3261 2657 
Q 3669 2231 3669 1497 
Q 3669 778 3244 343 
Q 2819 -91 2113 -91 
Q 1303 -91 875 529 
Q 447 1150 447 2328 
Q 447 3434 972 4092 
Q 1497 4750 2381 4750 
Q 2619 4750 2861 4703 
Q 3103 4656 3366 4563 
z
" transform="scale(0.015625)"/>
       </defs>
       <use xlink:href="#DejaVuSans-31"/>
       <use xlink:href="#DejaVuSans-31" x="63.623047"/>
       <use xlink:href="#DejaVuSans-2e" x="127.246094"/>
       <use xlink:href="#DejaVuSans-36" x="159.033203"/>
      </g>
     </g>
    </g>
    <g id="xtick_3">
     <g id="line2d_5">
      <path d="M 168.663698 252 
L 168.663698 34.56 
" clip-path="url(#pb1633e975b)" style="fill: none; stroke: #b0b0b0; stroke-width: 0.8; stroke-linecap: square"/>
     </g>
     <g id="line2d_6">
      <g>
       <use xlink:href="#mcf24956a48" x="168.663698" y="252" style="stroke: #000000; stroke-width: 0.8"/>
      </g>
     </g>
     <g id="text_3">
      <!-- 11.8 -->
      <g transform="translate(157.530885 266.598437) scale(0.1 -0.1)">
       <defs>
        <path id="DejaVuSans-38" d="M 2034 2216 
Q 1584 2216 1326 1975 
Q 1069 1734 1069 1313 
Q 1069 891 1326 650 
Q 1584 409 2034 409 
Q 2484 409 2743 651 
Q 3003 894 3003 1313 
Q 3003 1734 2745 1975 
Q 2488 2216 2034 2216 
z
M 1403 2484 
Q 997 2584 770 2862 
Q 544 3141 544 3541 
Q 544 4100 942 4425 
Q 1341 4750 2034 4750 
Q 2731 4750 3128 4425 
Q 3525 4100 3525 3541 
Q 3525 3141 3298 2862 
Q 3072 2584 2669 2484 
Q 3125 2378 3379 2068 
Q 3634 1759 3634 1313 
Q 3634 634 3220 271 
Q 2806 -91 2034 -91 
Q 1263 -91 848 271 
Q 434 634 434 1313 
Q 434 1759 690 2068 
Q 947 2378 1403 2484 
z
M 1172 3481 
Q 1172 3119 1398 2916 
Q 1625 2713 2034 2713 
Q 2441 2713 2670 2916 
Q 2900 3119 2900 3481 
Q 2900 3844 2670 4047 
Q 2441 4250 2034 4250 
Q 1625 4250 1398 4047 
Q 1172 3844 1172 3481 
z
" transform="scale(0.015625)"/>
       </defs>
       <use xlink:href="#DejaVuSans-31"/>
       <use xlink:href="#DejaVuSans-31" x="63.623047"/>
       <use xlink:href="#DejaVuSans-2e" x="127.246094"/>
       <use xlink:href="#DejaVuSans-38" x="159.033203"/>
      </g>
     </g>
    </g>
    <g id="xtick_4">
     <g id="line2d_7">
      <path d="M 218.633738 252 
L 218.633738 34.56 
" clip-path="url(#pb1633e975b)" style="fill: none; stroke: #b0b0b0; stroke-width: 0.8; stroke-linecap: square"/>
     </g>
     <g id="line2d_8">
      <g>
       <use xlink:href="#mcf24956a48" x="218.633738" y="252" style="stroke: #000000; stroke-width: 0.8"/>
      </g>
     </g>
     <g id="text_4">
      <!-- 12.0 -->
      <g transform="translate(207.500926 266.598437) scale(0.1 -0.1)">
       <defs>
        <path id="DejaVuSans-32" d="M 1228 531 
L 3431 531 
L 3431 0 
L 469 0 
L 469 531 
Q 828 903 1448 1529 
Q 2069 2156 2228 2338 
Q 2531 2678 2651 2914 
Q 2772 3150 2772 3378 
Q 2772 3750 2511 3984 
Q 2250 4219 1831 4219 
Q 1534 4219 1204 4116 
Q 875 4013 500 3803 
L 500 4441 
Q 881 4594 1212 4672 
Q 1544 4750 1819 4750 
Q 2544 4750 2975 4387 
Q 3406 4025 3406 3419 
Q 3406 3131 3298 2873 
Q 3191 2616 2906 2266 
Q 2828 2175 2409 1742 
Q 1991 1309 1228 531 
z
" transform="scale(0.015625)"/>
        <path id="DejaVuSans-30" d="M 2034 4250 
Q 1547 4250 1301 3770 
Q 1056 3291 1056 2328 
Q 1056 1369 1301 889 
Q 1547 409 2034 409 
Q 2525 409 2770 889 
Q 3016 1369 3016 2328 
Q 3016 3291 2770 3770 
Q 2525 4250 2034 4250 
z
M 2034 4750 
Q 2819 4750 3233 4129 
Q 3647 3509 3647 2328 
Q 3647 1150 3233 529 
Q 2819 -91 2034 -91 
Q 1250 -91 836 529 
Q 422 1150 422 2328 
Q 422 3509 836 4129 
Q 1250 4750 2034 4750 
z
" transform="scale(0.015625)"/>
       </defs>
       <use xlink:href="#DejaVuSans-31"/>
       <use xlink:href="#DejaVuSans-32" x="63.623047"/>
       <use xlink:href="#DejaVuSans-2e" x="127.246094"/>
       <use xlink:href="#DejaVuSans-30" x="159.033203"/>
      </g>
     </g>
    </g>
    <g id="xtick_5">
     <g id="line2d_9">
      <path d="M 268.603778 252 
L 268.603778 34.56 
" clip-path="url(#pb1633e975b)" style="fill: none; stroke: #b0b0b0; stroke-width: 0.8; stroke-linecap: square"/>
     </g>
     <g id="line2d_10">
      <g>
       <use xlink:href="#mcf24956a48" x="268.603778" y="252" style="stroke: #000000; stroke-width: 0.8"/>
      </g>
     </g>
     <g id="text_5">
      <!-- 12.2 -->
      <g transform="translate(257.470966 266.598437) scale(0.1 -0.1)">
       <use xlink:href="#DejaVuSans-31"/>
       <use xlink:href="#DejaVuSans-32" x="63.623047"/>
       <use xlink:href="#DejaVuSans-2e" x="127.246094"/>
       <use xlink:href="#DejaVuSans-32" x="159.033203"/>
      </g>
     </g>
    </g>
    <g id="xtick_6">
     <g id="line2d_11">
      <path d="M 318.573819 252 
L 318.573819 34.56 
" clip-path="url(#pb1633e975b)" style="fill: none; stroke: #b0b0b0; stroke-width: 0.8; stroke-linecap: square"/>
     </g>
     <g id="line2d_12">
      <g>
       <use xlink:href="#mcf24956a48" x="318.573819" y="252" style="stroke: #000000; stroke-width: 0.8"/>
      </g>
     </g>
     <g id="text_6">
      <!-- 12.4 -->
      <g transform="translate(307.441006 266.598437) scale(0.1 -0.1)">
       <use xlink:href="#DejaVuSans-31"/>
       <use xlink:href="#DejaVuSans-32" x="63.623047"/>
       <use xlink:href="#DejaVuSans-2e" x="127.246094"/>
       <use xlink:href="#DejaVuSans-34" x="159.033203"/>
      </g>
     </g>
    </g>
    <g id="xtick_7">
     <g id="line2d_13">
      <path d="M 368.543859 252 
L 368.543859 34.56 
" clip-path="url(#pb1633e975b)" style="fill: none; stroke: #b0b0b0; stroke-width: 0.8; stroke-linecap: square"/>
     </g>
     <g id="line2d_14">
      <g>
       <use xlink:href="#mcf24956a48" x="368.543859" y="252" style="stroke: #000000; stroke-width: 0.8"/>
      </g>
     </g>
     <g id="text_7">
      <!-- 12.6 -->
      <g transform="translate(357.411047 266.598437) scale(0.1 -0.1)">
       <use xlink:href="#DejaVuSans-31"/>
       <use xlink:href="#DejaVuSans-32" x="63.623047"/>
       <use xlink:href="#DejaVuSans-2e" x="127.246094"/>
       <use xlink:href="#DejaVuSans-36" x="159.033203"/>
      </g>
     </g>
    </g>
    <g id="text_8">
     <!-- Time -->
     <g transform="translate(209.166406 280.276563) scale(0.1 -0.1)">
      <defs>
       <path id="DejaVuSans-54" d="M -19 4666 
L 3928 4666 
L 3928 4134 
L 2272 4134 
L 2272 0 
L 1638 0 
L 1638 4134 
L -19 4134 
L -19 4666 
z
" transform="scale(0.015625)"/>
       <path id="DejaVuSans-69" d="M 603 3500 
L 1178 3500 
L 1178 0 
L 603 0 
L 603 3500 
z
M 603 4863 
L 1178 4863 
L 1178 4134 
L 603 4134 
L 603 4863 
z
" transform="scale(0.015625)"/>
       <path id="DejaVuSans-6d" d="M 3328 2828 
Q 3544 3216 3844 3400 
Q 4144 3584 4550 3584 
Q 5097 3584 5394 3201 
Q 5691 2819 5691 2113 
L 5691 0 
L 5113 0 
L 5113 2094 
Q 5113 2597 4934 2840 
Q 4756 3084 4391 3084 
Q 3944 3084 3684 2787 
Q 3425 2491 3425 1978 
L 3425 0 
L 2847 0 
L 2847 2094 
Q 2847 2600 2669 2842 
Q 2491 3084 2119 3084 
Q 1678 3084 1418 2786 
Q 1159 2488 1159 1978 
L 1159 0 
L 581 0 
L 581 3500 
L 1159 3500 
L 1159 2956 
Q 1356 3278 1631 3431 
Q 1906 3584 2284 3584 
Q 2666 3584 2933 3390 
Q 3200 3197 3328 2828 
z
" transform="scale(0.015625)"/>
       <path id="DejaVuSans-65" d="M 3597 1894 
L 3597 1613 
L 953 1613 
Q 991 1019 1311 708 
Q 1631 397 2203 397 
Q 2534 397 2845 478 
Q 3156 559 3463 722 
L 3463 178 
Q 3153 47 2828 -22 
Q 2503 -91 2169 -91 
Q 1331 -91 842 396 
Q 353 884 353 1716 
Q 353 2575 817 3079 
Q 1281 3584 2069 3584 
Q 2775 3584 3186 3129 
Q 3597 2675 3597 1894 
z
M 3022 2063 
Q 3016 2534 2758 2815 
Q 2500 3097 2075 3097 
Q 1594 3097 1305 2825 
Q 1016 2553 972 2059 
L 3022 2063 
z
" transform="scale(0.015625)"/>
      </defs>
      <use xlink:href="#DejaVuSans-54"/>
      <use xlink:href="#DejaVuSans-69" x="57.958984"/>
      <use xlink:href="#DejaVuSans-6d" x="85.742188"/>
      <use xlink:href="#DejaVuSans-65" x="183.154297"/>
     </g>
    </g>
   </g>
   <g id="matplotlib.axis_2">
    <g id="ytick_1">
     <g id="line2d_15">
      <path d="M 54 252 
L 388.8 252 
" clip-path="url(#pb1633e975b)" style="fill: none; stroke: #b0b0b0; stroke-width: 0.8; stroke-linecap: square"/>
     </g>
     <g id="line2d_16">
      <defs>
       <path id="mdf235ed994" d="M 0 0 
L -3.5 0 
" style="stroke: #000000; stroke-width: 0.8"/>
      </defs>
      <g>
       <use xlink:href="#mdf235ed994" x="54" y="252" style="stroke: #000000; stroke-width: 0.8"/>
      </g>
     </g>
     <g id="text_9">
      <!-- 0.0 -->
      <g transform="translate(31.096875 255.799219) scale(0.1 -0.1)">
       <use xlink:href="#DejaVuSans-30"/>
       <use xlink:href="#DejaVuSans-2e" x="63.623047"/>
       <use xlink:href="#DejaVuSans-30" x="95.410156"/>
      </g>
     </g>
    </g>
    <g id="ytick_2">
     <g id="line2d_17">
      <path d="M 54 220.466647 
L 388.8 220.466647 
" clip-path="url(#pb1633e975b)" style="fill: none; stroke: #b0b0b0; stroke-width: 0.8; stroke-linecap: square"/>
     </g>
     <g id="line2d_18">
      <g>
       <use xlink:href="#mdf235ed994" x="54" y="220.466647" style="stroke: #000000; stroke-width: 0.8"/>
      </g>
     </g>
     <g id="text_10">
      <!-- 0.5 -->
      <g transform="translate(31.096875 224.265866) scale(0.1 -0.1)">
       <defs>
        <path id="DejaVuSans-35" d="M 691 4666 
L 3169 4666 
L 3169 4134 
L 1269 4134 
L 1269 2991 
Q 1406 3038 1543 3061 
Q 1681 3084 1819 3084 
Q 2600 3084 3056 2656 
Q 3513 2228 3513 1497 
Q 3513 744 3044 326 
Q 2575 -91 1722 -91 
Q 1428 -91 1123 -41 
Q 819 9 494 109 
L 494 744 
Q 775 591 1075 516 
Q 1375 441 1709 441 
Q 2250 441 2565 725 
Q 2881 1009 2881 1497 
Q 2881 1984 2565 2268 
Q 2250 2553 1709 2553 
Q 1456 2553 1204 2497 
Q 953 2441 691 2322 
L 691 4666 
z
" transform="scale(0.015625)"/>
       </defs>
       <use xlink:href="#DejaVuSans-30"/>
       <use xlink:href="#DejaVuSans-2e" x="63.623047"/>
       <use xlink:href="#DejaVuSans-35" x="95.410156"/>
      </g>
     </g>
    </g>
    <g id="ytick_3">
     <g id="line2d_19">
      <path d="M 54 188.933294 
L 388.8 188.933294 
" clip-path="url(#pb1633e975b)" style="fill: none; stroke: #b0b0b0; stroke-width: 0.8; stroke-linecap: square"/>
     </g>
     <g id="line2d_20">
      <g>
       <use xlink:href="#mdf235ed994" x="54" y="188.933294" style="stroke: #000000; stroke-width: 0.8"/>
      </g>
     </g>
     <g id="text_11">
      <!-- 1.0 -->
      <g transform="translate(31.096875 192.732513) scale(0.1 -0.1)">
       <use xlink:href="#DejaVuSans-31"/>
       <use xlink:href="#DejaVuSans-2e" x="63.623047"/>
       <use xlink:href="#DejaVuSans-30" x="95.410156"/>
      </g>
     </g>
    </g>
    <g id="ytick_4">
     <g id="line2d_21">
      <path d="M 54 157.399941 
L 388.8 157.399941 
" clip-path="url(#pb1633e975b)" style="fill: none; stroke: #b0b0b0; stroke-width: 0.8; stroke-linecap: square"/>
     </g>
     <g id="line2d_22">
      <g>
       <use xlink:href="#mdf235ed994" x="54" y="157.399941" style="stroke: #000000; stroke-width: 0.8"/>
      </g>
     </g>
     <g id="text_12">
      <!-- 1.5 -->
      <g transform="translate(31.096875 161.19916) scale(0.1 -0.1)">
       <use xlink:href="#DejaVuSans-31"/>
       <use xlink:href="#DejaVuSans-2e" x="63.623047"/>
       <use xlink:href="#DejaVuSans-35" x="95.410156"/>
      </g>
     </g>
    </g>
    <g id="ytick_5">
     <g id="line2d_23">
      <path d="M 54 125.866588 
L 388.8 125.866588 
" clip-path="url(#pb1633e975b)" style="fill: none; stroke: #b0b0b0; stroke-width: 0.8; stroke-linecap: square"/>
     </g>
     <g id="line2d_24">
      <g>
       <use xlink:href="#mdf235ed994" x="54" y="125.866588" style="stroke: #000000; stroke-width: 0.8"/>
      </g>
     </g>
     <g id="text_13">
      <!-- 2.0 -->
      <g transform="translate(31.096875 129.665807) scale(0.1 -0.1)">
       <use xlink:href="#DejaVuSans-32"/>
       <use xlink:href="#DejaVuSans-2e" x="63.623047"/>
       <use xlink:href="#DejaVuSans-30" x="95.410156"/>
      </g>
     </g>
    </g>
    <g id="ytick_6">
     <g id="line2d_25">
      <path d="M 54 94.333235 
L 388.8 94.333235 
" clip-path="url(#pb1633e975b)" style="fill: none; stroke: #b0b0b0; stroke-width: 0.8; stroke-linecap: square"/>
     </g>
     <g id="line2d_26">
      <g>
       <use xlink:href="#mdf235ed994" x="54" y="94.333235" style="stroke: #000000; stroke-width: 0.8"/>
      </g>
     </g>
     <g id="text_14">
      <!-- 2.5 -->
      <g transform="translate(31.096875 98.132454) scale(0.1 -0.1)">
       <use xlink:href="#DejaVuSans-32"/>
       <use xlink:href="#DejaVuSans-2e" x="63.623047"/>
       <use xlink:href="#DejaVuSans-35" x="95.410156"/>
      </g>
     </g>
    </g>
    <g id="ytick_7">
     <g id="line2d_27">
      <path d="M 54 62.799882 
L 388.8 62.799882 
" clip-path="url(#pb1633e975b)" style="fill: none; stroke: #b0b0b0; stroke-width: 0.8; stroke-linecap: square"/>
     </g>
     <g id="line2d_28">
      <g>
       <use xlink:href="#mdf235ed994" x="54" y="62.799882" style="stroke: #000000; stroke-width: 0.8"/>
      </g>
     </g>
     <g id="text_15">
      <!-- 3.0 -->
      <g transform="translate(31.096875 66.599101) scale(0.1 -0.1)">
       <defs>
        <path id="DejaVuSans-33" d="M 2597 2516 
Q 3050 2419 3304 2112 
Q 3559 1806 3559 1356 
Q 3559 666 3084 287 
Q 2609 -91 1734 -91 
Q 1441 -91 1130 -33 
Q 819 25 488 141 
L 488 750 
Q 750 597 1062 519 
Q 1375 441 1716 441 
Q 2309 441 2620 675 
Q 2931 909 2931 1356 
Q 2931 1769 2642 2001 
Q 2353 2234 1838 2234 
L 1294 2234 
L 1294 2753 
L 1863 2753 
Q 2328 2753 2575 2939 
Q 2822 3125 2822 3475 
Q 2822 3834 2567 4026 
Q 2313 4219 1838 4219 
Q 1578 4219 1281 4162 
Q 984 4106 628 3988 
L 628 4550 
Q 988 4650 1302 4700 
Q 1616 4750 1894 4750 
Q 2613 4750 3031 4423 
Q 3450 4097 3450 3541 
Q 3450 3153 3228 2886 
Q 3006 2619 2597 2516 
z
" transform="scale(0.015625)"/>
       </defs>
       <use xlink:href="#DejaVuSans-33"/>
       <use xlink:href="#DejaVuSans-2e" x="63.623047"/>
       <use xlink:href="#DejaVuSans-30" x="95.410156"/>
      </g>
     </g>
    </g>
    <g id="text_16">
     <!-- Counts -->
     <g transform="translate(25.017187 160.733125) rotate(-90) scale(0.1 -0.1)">
      <defs>
       <path id="DejaVuSans-43" d="M 4122 4306 
L 4122 3641 
Q 3803 3938 3442 4084 
Q 3081 4231 2675 4231 
Q 1875 4231 1450 3742 
Q 1025 3253 1025 2328 
Q 1025 1406 1450 917 
Q 1875 428 2675 428 
Q 3081 428 3442 575 
Q 3803 722 4122 1019 
L 4122 359 
Q 3791 134 3420 21 
Q 3050 -91 2638 -91 
Q 1578 -91 968 557 
Q 359 1206 359 2328 
Q 359 3453 968 4101 
Q 1578 4750 2638 4750 
Q 3056 4750 3426 4639 
Q 3797 4528 4122 4306 
z
" transform="scale(0.015625)"/>
       <path id="DejaVuSans-6f" d="M 1959 3097 
Q 1497 3097 1228 2736 
Q 959 2375 959 1747 
Q 959 1119 1226 758 
Q 1494 397 1959 397 
Q 2419 397 2687 759 
Q 2956 1122 2956 1747 
Q 2956 2369 2687 2733 
Q 2419 3097 1959 3097 
z
M 1959 3584 
Q 2709 3584 3137 3096 
Q 3566 2609 3566 1747 
Q 3566 888 3137 398 
Q 2709 -91 1959 -91 
Q 1206 -91 779 398 
Q 353 888 353 1747 
Q 353 2609 779 3096 
Q 1206 3584 1959 3584 
z
" transform="scale(0.015625)"/>
       <path id="DejaVuSans-75" d="M 544 1381 
L 544 3500 
L 1119 3500 
L 1119 1403 
Q 1119 906 1312 657 
Q 1506 409 1894 409 
Q 2359 409 2629 706 
Q 2900 1003 2900 1516 
L 2900 3500 
L 3475 3500 
L 3475 0 
L 2900 0 
L 2900 538 
Q 2691 219 2414 64 
Q 2138 -91 1772 -91 
Q 1169 -91 856 284 
Q 544 659 544 1381 
z
M 1991 3584 
L 1991 3584 
z
" transform="scale(0.015625)"/>
       <path id="DejaVuSans-6e" d="M 3513 2113 
L 3513 0 
L 2938 0 
L 2938 2094 
Q 2938 2591 2744 2837 
Q 2550 3084 2163 3084 
Q 1697 3084 1428 2787 
Q 1159 2491 1159 1978 
L 1159 0 
L 581 0 
L 581 3500 
L 1159 3500 
L 1159 2956 
Q 1366 3272 1645 3428 
Q 1925 3584 2291 3584 
Q 2894 3584 3203 3211 
Q 3513 2838 3513 2113 
z
" transform="scale(0.015625)"/>
       <path id="DejaVuSans-74" d="M 1172 4494 
L 1172 3500 
L 2356 3500 
L 2356 3053 
L 1172 3053 
L 1172 1153 
Q 1172 725 1289 603 
Q 1406 481 1766 481 
L 2356 481 
L 2356 0 
L 1766 0 
Q 1100 0 847 248 
Q 594 497 594 1153 
L 594 3053 
L 172 3053 
L 172 3500 
L 594 3500 
L 594 4494 
L 1172 4494 
z
" transform="scale(0.015625)"/>
       <path id="DejaVuSans-73" d="M 2834 3397 
L 2834 2853 
Q 2591 2978 2328 3040 
Q 2066 3103 1784 3103 
Q 1356 3103 1142 2972 
Q 928 2841 928 2578 
Q 928 2378 1081 2264 
Q 1234 2150 1697 2047 
L 1894 2003 
Q 2506 1872 2764 1633 
Q 3022 1394 3022 966 
Q 3022 478 2636 193 
Q 2250 -91 1575 -91 
Q 1294 -91 989 -36 
Q 684 19 347 128 
L 347 722 
Q 666 556 975 473 
Q 1284 391 1588 391 
Q 1994 391 2212 530 
Q 2431 669 2431 922 
Q 2431 1156 2273 1281 
Q 2116 1406 1581 1522 
L 1381 1569 
Q 847 1681 609 1914 
Q 372 2147 372 2553 
Q 372 3047 722 3315 
Q 1072 3584 1716 3584 
Q 2034 3584 2315 3537 
Q 2597 3491 2834 3397 
z
" transform="scale(0.015625)"/>
      </defs>
      <use xlink:href="#DejaVuSans-43"/>
      <use xlink:href="#DejaVuSans-6f" x="69.824219"/>
      <use xlink:href="#DejaVuSans-75" x="131.005859"/>
      <use xlink:href="#DejaVuSans-6e" x="194.384766"/>
      <use xlink:href="#DejaVuSans-74" x="257.763672"/>
      <use xlink:href="#DejaVuSans-73" x="296.972656"/>
     </g>
    </g>
   </g>
   <g id="line2d_29">
    <path d="M 69.218182 250.783133 
L 75.305412 250.065574 
L 81.392641 248.995457 
L 87.48011 247.440372 
L 93.567339 245.239315 
L 99.654569 242.205787 
L 105.741799 238.136721 
L 111.829029 232.827444 
L 117.916259 226.093326 
L 124.003727 217.796903 
L 130.090957 207.880369 
L 136.178187 196.394736 
L 142.265416 183.527286 
L 148.352646 169.617158 
L 154.440114 155.155235 
L 160.527344 140.76789 
L 166.614574 127.174935 
L 172.701804 115.135436 
L 178.789034 105.37844 
L 184.876264 98.53044 
L 190.963732 95.048872 
L 197.050962 95.171983 
L 203.138191 98.891093 
L 209.225421 105.952254 
L 215.312651 115.884727 
L 221.400119 128.053387 
L 227.487349 141.723884 
L 233.574579 156.138139 
L 239.661809 170.58061 
L 245.749038 184.434121 
L 251.836268 197.217151 
L 257.923736 208.601449 
L 264.010966 218.408669 
L 270.098196 226.596311 
L 276.185426 233.229149 
L 282.272656 238.448457 
L 288.359886 242.44103 
L 294.447354 245.412137 
L 300.534584 247.563896 
L 306.621813 249.081387 
L 312.709043 250.123845 
L 318.796273 250.821638 
L 324.883741 251.276901 
L 330.970971 251.566447 
L 337.058201 251.746017 
L 343.145431 251.854627 
L 349.232661 251.918702 
L 355.31989 251.955578 
L 361.407359 251.976285 
L 367.494588 251.98763 
L 373.581818 251.993696 
" clip-path="url(#pb1633e975b)" style="fill: none; stroke-dasharray: 7.4,3.2; stroke-dashoffset: 0; stroke: #ff0000; stroke-width: 2"/>
   </g>
   <g id="patch_53">
    <path d="M 54 252 
L 54 34.56 
" style="fill: none; stroke: #000000; stroke-width: 0.8; stroke-linejoin: miter; stroke-linecap: square"/>
   </g>
   <g id="patch_54">
    <path d="M 388.8 252 
L 388.8 34.56 
" style="fill: none; stroke: #000000; stroke-width: 0.8; stroke-linejoin: miter; stroke-linecap: square"/>
   </g>
   <g id="patch_55">
    <path d="M 54 252 
L 388.8 252 
" style="fill: none; stroke: #000000; stroke-width: 0.8; stroke-linejoin: miter; stroke-linecap: square"/>
   </g>
   <g id="patch_56">
    <path d="M 54 34.56 
L 388.8 34.56 
" style="fill: none; stroke: #000000; stroke-width: 0.8; stroke-linejoin: miter; stroke-linecap: square"/>
   </g>
  </g>
  <g id="text_17">
   <!-- times for 1000 5GeV mu-; one segment, new sensor place, 2 m long -->
   <g transform="translate(10.484063 14.878125) scale(0.12 -0.12)">
    <defs>
     <path id="DejaVuSans-20" transform="scale(0.015625)"/>
     <path id="DejaVuSans-66" d="M 2375 4863 
L 2375 4384 
L 1825 4384 
Q 1516 4384 1395 4259 
Q 1275 4134 1275 3809 
L 1275 3500 
L 2222 3500 
L 2222 3053 
L 1275 3053 
L 1275 0 
L 697 0 
L 697 3053 
L 147 3053 
L 147 3500 
L 697 3500 
L 697 3744 
Q 697 4328 969 4595 
Q 1241 4863 1831 4863 
L 2375 4863 
z
" transform="scale(0.015625)"/>
     <path id="DejaVuSans-72" d="M 2631 2963 
Q 2534 3019 2420 3045 
Q 2306 3072 2169 3072 
Q 1681 3072 1420 2755 
Q 1159 2438 1159 1844 
L 1159 0 
L 581 0 
L 581 3500 
L 1159 3500 
L 1159 2956 
Q 1341 3275 1631 3429 
Q 1922 3584 2338 3584 
Q 2397 3584 2469 3576 
Q 2541 3569 2628 3553 
L 2631 2963 
z
" transform="scale(0.015625)"/>
     <path id="DejaVuSans-47" d="M 3809 666 
L 3809 1919 
L 2778 1919 
L 2778 2438 
L 4434 2438 
L 4434 434 
Q 4069 175 3628 42 
Q 3188 -91 2688 -91 
Q 1594 -91 976 548 
Q 359 1188 359 2328 
Q 359 3472 976 4111 
Q 1594 4750 2688 4750 
Q 3144 4750 3555 4637 
Q 3966 4525 4313 4306 
L 4313 3634 
Q 3963 3931 3569 4081 
Q 3175 4231 2741 4231 
Q 1884 4231 1454 3753 
Q 1025 3275 1025 2328 
Q 1025 1384 1454 906 
Q 1884 428 2741 428 
Q 3075 428 3337 486 
Q 3600 544 3809 666 
z
" transform="scale(0.015625)"/>
     <path id="DejaVuSans-56" d="M 1831 0 
L 50 4666 
L 709 4666 
L 2188 738 
L 3669 4666 
L 4325 4666 
L 2547 0 
L 1831 0 
z
" transform="scale(0.015625)"/>
     <path id="DejaVuSans-2d" d="M 313 2009 
L 1997 2009 
L 1997 1497 
L 313 1497 
L 313 2009 
z
" transform="scale(0.015625)"/>
     <path id="DejaVuSans-3b" d="M 750 3309 
L 1409 3309 
L 1409 2516 
L 750 2516 
L 750 3309 
z
M 750 794 
L 1409 794 
L 1409 256 
L 897 -744 
L 494 -744 
L 750 256 
L 750 794 
z
" transform="scale(0.015625)"/>
     <path id="DejaVuSans-67" d="M 2906 1791 
Q 2906 2416 2648 2759 
Q 2391 3103 1925 3103 
Q 1463 3103 1205 2759 
Q 947 2416 947 1791 
Q 947 1169 1205 825 
Q 1463 481 1925 481 
Q 2391 481 2648 825 
Q 2906 1169 2906 1791 
z
M 3481 434 
Q 3481 -459 3084 -895 
Q 2688 -1331 1869 -1331 
Q 1566 -1331 1297 -1286 
Q 1028 -1241 775 -1147 
L 775 -588 
Q 1028 -725 1275 -790 
Q 1522 -856 1778 -856 
Q 2344 -856 2625 -561 
Q 2906 -266 2906 331 
L 2906 616 
Q 2728 306 2450 153 
Q 2172 0 1784 0 
Q 1141 0 747 490 
Q 353 981 353 1791 
Q 353 2603 747 3093 
Q 1141 3584 1784 3584 
Q 2172 3584 2450 3431 
Q 2728 3278 2906 2969 
L 2906 3500 
L 3481 3500 
L 3481 434 
z
" transform="scale(0.015625)"/>
     <path id="DejaVuSans-2c" d="M 750 794 
L 1409 794 
L 1409 256 
L 897 -744 
L 494 -744 
L 750 256 
L 750 794 
z
" transform="scale(0.015625)"/>
     <path id="DejaVuSans-77" d="M 269 3500 
L 844 3500 
L 1563 769 
L 2278 3500 
L 2956 3500 
L 3675 769 
L 4391 3500 
L 4966 3500 
L 4050 0 
L 3372 0 
L 2619 2869 
L 1863 0 
L 1184 0 
L 269 3500 
z
" transform="scale(0.015625)"/>
     <path id="DejaVuSans-70" d="M 1159 525 
L 1159 -1331 
L 581 -1331 
L 581 3500 
L 1159 3500 
L 1159 2969 
Q 1341 3281 1617 3432 
Q 1894 3584 2278 3584 
Q 2916 3584 3314 3078 
Q 3713 2572 3713 1747 
Q 3713 922 3314 415 
Q 2916 -91 2278 -91 
Q 1894 -91 1617 61 
Q 1341 213 1159 525 
z
M 3116 1747 
Q 3116 2381 2855 2742 
Q 2594 3103 2138 3103 
Q 1681 3103 1420 2742 
Q 1159 2381 1159 1747 
Q 1159 1113 1420 752 
Q 1681 391 2138 391 
Q 2594 391 2855 752 
Q 3116 1113 3116 1747 
z
" transform="scale(0.015625)"/>
     <path id="DejaVuSans-6c" d="M 603 4863 
L 1178 4863 
L 1178 0 
L 603 0 
L 603 4863 
z
" transform="scale(0.015625)"/>
     <path id="DejaVuSans-61" d="M 2194 1759 
Q 1497 1759 1228 1600 
Q 959 1441 959 1056 
Q 959 750 1161 570 
Q 1363 391 1709 391 
Q 2188 391 2477 730 
Q 2766 1069 2766 1631 
L 2766 1759 
L 2194 1759 
z
M 3341 1997 
L 3341 0 
L 2766 0 
L 2766 531 
Q 2569 213 2275 61 
Q 1981 -91 1556 -91 
Q 1019 -91 701 211 
Q 384 513 384 1019 
Q 384 1609 779 1909 
Q 1175 2209 1959 2209 
L 2766 2209 
L 2766 2266 
Q 2766 2663 2505 2880 
Q 2244 3097 1772 3097 
Q 1472 3097 1187 3025 
Q 903 2953 641 2809 
L 641 3341 
Q 956 3463 1253 3523 
Q 1550 3584 1831 3584 
Q 2591 3584 2966 3190 
Q 3341 2797 3341 1997 
z
" transform="scale(0.015625)"/>
     <path id="DejaVuSans-63" d="M 3122 3366 
L 3122 2828 
Q 2878 2963 2633 3030 
Q 2388 3097 2138 3097 
Q 1578 3097 1268 2742 
Q 959 2388 959 1747 
Q 959 1106 1268 751 
Q 1578 397 2138 397 
Q 2388 397 2633 464 
Q 2878 531 3122 666 
L 3122 134 
Q 2881 22 2623 -34 
Q 2366 -91 2075 -91 
Q 1284 -91 818 406 
Q 353 903 353 1747 
Q 353 2603 823 3093 
Q 1294 3584 2113 3584 
Q 2378 3584 2631 3529 
Q 2884 3475 3122 3366 
z
" transform="scale(0.015625)"/>
    </defs>
    <use xlink:href="#DejaVuSans-74"/>
    <use xlink:href="#DejaVuSans-69" x="39.208984"/>
    <use xlink:href="#DejaVuSans-6d" x="66.992188"/>
    <use xlink:href="#DejaVuSans-65" x="164.404297"/>
    <use xlink:href="#DejaVuSans-73" x="225.927734"/>
    <use xlink:href="#DejaVuSans-20" x="278.027344"/>
    <use xlink:href="#DejaVuSans-66" x="309.814453"/>
    <use xlink:href="#DejaVuSans-6f" x="345.019531"/>
    <use xlink:href="#DejaVuSans-72" x="406.201172"/>
    <use xlink:href="#DejaVuSans-20" x="447.314453"/>
    <use xlink:href="#DejaVuSans-31" x="479.101562"/>
    <use xlink:href="#DejaVuSans-30" x="542.724609"/>
    <use xlink:href="#DejaVuSans-30" x="606.347656"/>
    <use xlink:href="#DejaVuSans-30" x="669.970703"/>
    <use xlink:href="#DejaVuSans-20" x="733.59375"/>
    <use xlink:href="#DejaVuSans-35" x="765.380859"/>
    <use xlink:href="#DejaVuSans-47" x="829.003906"/>
    <use xlink:href="#DejaVuSans-65" x="906.494141"/>
    <use xlink:href="#DejaVuSans-56" x="968.017578"/>
    <use xlink:href="#DejaVuSans-20" x="1036.425781"/>
    <use xlink:href="#DejaVuSans-6d" x="1068.212891"/>
    <use xlink:href="#DejaVuSans-75" x="1165.625"/>
    <use xlink:href="#DejaVuSans-2d" x="1229.003906"/>
    <use xlink:href="#DejaVuSans-3b" x="1265.087891"/>
    <use xlink:href="#DejaVuSans-20" x="1298.779297"/>
    <use xlink:href="#DejaVuSans-6f" x="1330.566406"/>
    <use xlink:href="#DejaVuSans-6e" x="1391.748047"/>
    <use xlink:href="#DejaVuSans-65" x="1455.126953"/>
    <use xlink:href="#DejaVuSans-20" x="1516.650391"/>
    <use xlink:href="#DejaVuSans-73" x="1548.4375"/>
    <use xlink:href="#DejaVuSans-65" x="1600.537109"/>
    <use xlink:href="#DejaVuSans-67" x="1662.060547"/>
    <use xlink:href="#DejaVuSans-6d" x="1725.537109"/>
    <use xlink:href="#DejaVuSans-65" x="1822.949219"/>
    <use xlink:href="#DejaVuSans-6e" x="1884.472656"/>
    <use xlink:href="#DejaVuSans-74" x="1947.851562"/>
    <use xlink:href="#DejaVuSans-2c" x="1987.060547"/>
    <use xlink:href="#DejaVuSans-20" x="2018.847656"/>
    <use xlink:href="#DejaVuSans-6e" x="2050.634766"/>
    <use xlink:href="#DejaVuSans-65" x="2114.013672"/>
    <use xlink:href="#DejaVuSans-77" x="2175.537109"/>
    <use xlink:href="#DejaVuSans-20" x="2257.324219"/>
    <use xlink:href="#DejaVuSans-73" x="2289.111328"/>
    <use xlink:href="#DejaVuSans-65" x="2341.210938"/>
    <use xlink:href="#DejaVuSans-6e" x="2402.734375"/>
    <use xlink:href="#DejaVuSans-73" x="2466.113281"/>
    <use xlink:href="#DejaVuSans-6f" x="2518.212891"/>
    <use xlink:href="#DejaVuSans-72" x="2579.394531"/>
    <use xlink:href="#DejaVuSans-20" x="2620.507812"/>
    <use xlink:href="#DejaVuSans-70" x="2652.294922"/>
    <use xlink:href="#DejaVuSans-6c" x="2715.771484"/>
    <use xlink:href="#DejaVuSans-61" x="2743.554688"/>
    <use xlink:href="#DejaVuSans-63" x="2804.833984"/>
    <use xlink:href="#DejaVuSans-65" x="2859.814453"/>
    <use xlink:href="#DejaVuSans-2c" x="2921.337891"/>
    <use xlink:href="#DejaVuSans-20" x="2953.125"/>
    <use xlink:href="#DejaVuSans-32" x="2984.912109"/>
    <use xlink:href="#DejaVuSans-20" x="3048.535156"/>
    <use xlink:href="#DejaVuSans-6d" x="3080.322266"/>
    <use xlink:href="#DejaVuSans-20" x="3177.734375"/>
    <use xlink:href="#DejaVuSans-6c" x="3209.521484"/>
    <use xlink:href="#DejaVuSans-6f" x="3237.304688"/>
    <use xlink:href="#DejaVuSans-6e" x="3298.486328"/>
    <use xlink:href="#DejaVuSans-67" x="3361.865234"/>
   </g>
  </g>
 </g>
 <defs>
  <clipPath id="pb1633e975b">
   <rect x="54" y="34.56" width="334.8" height="217.44"/>
  </clipPath>
 </defs>
</svg>
