<?xml version="1.0" standalone="no"?>
<svg width="567.429" height="216.733" viewBox="0 0 567.429 216.733" xmlns="http://www.w3.org/2000/svg" shape-rendering="crispEdges">
<title>
plots/May_9/mu_5GeV_energy_1000_nocherenkov_run1.svg
</title>
<desc>
Creator: ROOT Version 6.28/10
CreationDate: Thu May  9 17:54:42 2024</desc>
<defs>
</defs>
<rect x="0.5" y="0" width="566.929" height="216.233" fill="white"/>
<rect x="6.16929" y="2.16233" width="272.126" height="211.908" fill="white"/>
<rect x="33.3819" y="23.3531" width="217.701" height="169.526" fill="white"/>
<rect x="33.3819" y="23.3531" width="217.701" height="169.526" fill="none" stroke="black"/>
<rect x="33.3819" y="23.3531" width="217.701" height="169.526" fill="white"/>
<rect x="33.3819" y="23.3531" width="217.701" height="169.526" fill="none" stroke="black"/>
<path d="M33.3819,192.879h 217.701" fill="none" stroke="black"/>
<path d="M33.3819,187.794v 5.08579" fill="none" stroke="black"/>
<path d="M41.1569,190.337v 2.5429" fill="none" stroke="black"/>
<path d="M48.9319,190.337v 2.5429" fill="none" stroke="black"/>
<path d="M56.707,190.337v 2.5429" fill="none" stroke="black"/>
<path d="M64.482,187.794v 5.08579" fill="none" stroke="black"/>
<path d="M72.257,190.337v 2.5429" fill="none" stroke="black"/>
<path d="M80.0321,190.337v 2.5429" fill="none" stroke="black"/>
<path d="M87.8071,190.337v 2.5429" fill="none" stroke="black"/>
<path d="M95.5821,187.794v 5.08579" fill="none" stroke="black"/>
<path d="M103.357,190.337v 2.5429" fill="none" stroke="black"/>
<path d="M111.132,190.337v 2.5429" fill="none" stroke="black"/>
<path d="M118.907,190.337v 2.5429" fill="none" stroke="black"/>
<path d="M126.682,187.794v 5.08579" fill="none" stroke="black"/>
<path d="M134.457,190.337v 2.5429" fill="none" stroke="black"/>
<path d="M142.232,190.337v 2.5429" fill="none" stroke="black"/>
<path d="M150.007,190.337v 2.5429" fill="none" stroke="black"/>
<path d="M157.782,187.794v 5.08579" fill="none" stroke="black"/>
<path d="M165.557,190.337v 2.5429" fill="none" stroke="black"/>
<path d="M173.332,190.337v 2.5429" fill="none" stroke="black"/>
<path d="M181.107,190.337v 2.5429" fill="none" stroke="black"/>
<path d="M188.882,187.794v 5.08579" fill="none" stroke="black"/>
<path d="M196.657,190.337v 2.5429" fill="none" stroke="black"/>
<path d="M204.433,190.337v 2.5429" fill="none" stroke="black"/>
<path d="M212.208,190.337v 2.5429" fill="none" stroke="black"/>
<path d="M219.983,187.794v 5.08579" fill="none" stroke="black"/>
<path d="M227.758,190.337v 2.5429" fill="none" stroke="black"/>
<path d="M235.533,190.337v 2.5429" fill="none" stroke="black"/>
<path d="M243.308,190.337v 2.5429" fill="none" stroke="black"/>
<path d="M251.083,187.794v 5.08579" fill="none" stroke="black"/>
<text xml:space="preserve" x="25.4849" y="199.425" fill="black" font-size="7.30438" font-family="Helvetica">1600</text>
<text xml:space="preserve" x="56.3752" y="199.425" fill="black" font-size="7.30438" font-family="Helvetica">1800</text>
<text xml:space="preserve" x="87.7199" y="199.425" fill="black" font-size="7.30438" font-family="Helvetica">2000</text>
<text xml:space="preserve" x="118.61" y="199.425" fill="black" font-size="7.30438" font-family="Helvetica">2200</text>
<text xml:space="preserve" x="149.955" y="199.425" fill="black" font-size="7.30438" font-family="Helvetica">2400</text>
<text xml:space="preserve" x="180.845" y="199.425" fill="black" font-size="7.30438" font-family="Helvetica">2600</text>
<text xml:space="preserve" x="212.19" y="199.425" fill="black" font-size="7.30438" font-family="Helvetica">2800</text>
<text xml:space="preserve" x="243.08" y="199.425" fill="black" font-size="7.30438" font-family="Helvetica">3000</text>
<text xml:space="preserve" x="175.394" y="206.239" fill="black" font-size="7.30438" font-family="Helvetica">Barrel hit x position (mm)</text>
<path d="M33.3819,192.879v -169.526" fill="none" stroke="black"/>
<path d="M39.9129,184.162h -6.53102" fill="none" stroke="black"/>
<path d="M36.6474,178.644h -3.26551" fill="none" stroke="black"/>
<path d="M36.6474,173.125h -3.26551" fill="none" stroke="black"/>
<path d="M36.6474,167.607h -3.26551" fill="none" stroke="black"/>
<path d="M39.9129,162.088h -6.53102" fill="none" stroke="black"/>
<path d="M36.6474,156.569h -3.26551" fill="none" stroke="black"/>
<path d="M36.6474,151.051h -3.26551" fill="none" stroke="black"/>
<path d="M36.6474,145.532h -3.26551" fill="none" stroke="black"/>
<path d="M39.9129,140.014h -6.53102" fill="none" stroke="black"/>
<path d="M36.6474,134.495h -3.26551" fill="none" stroke="black"/>
<path d="M36.6474,128.977h -3.26551" fill="none" stroke="black"/>
<path d="M36.6474,123.458h -3.26551" fill="none" stroke="black"/>
<path d="M39.9129,117.939h -6.53102" fill="none" stroke="black"/>
<path d="M36.6474,112.421h -3.26551" fill="none" stroke="black"/>
<path d="M36.6474,106.902h -3.26551" fill="none" stroke="black"/>
<path d="M36.6474,101.384h -3.26551" fill="none" stroke="black"/>
<path d="M39.9129,95.8651h -6.53102" fill="none" stroke="black"/>
<path d="M36.6474,90.3465h -3.26551" fill="none" stroke="black"/>
<path d="M36.6474,84.8279h -3.26551" fill="none" stroke="black"/>
<path d="M36.6474,79.3093h -3.26551" fill="none" stroke="black"/>
<path d="M39.9129,73.7907h -6.53102" fill="none" stroke="black"/>
<path d="M36.6474,68.2722h -3.26551" fill="none" stroke="black"/>
<path d="M36.6474,62.7536h -3.26551" fill="none" stroke="black"/>
<path d="M36.6474,57.235h -3.26551" fill="none" stroke="black"/>
<path d="M39.9129,51.7164h -6.53102" fill="none" stroke="black"/>
<path d="M36.6474,46.1978h -3.26551" fill="none" stroke="black"/>
<path d="M36.6474,40.6793h -3.26551" fill="none" stroke="black"/>
<path d="M36.6474,35.1607h -3.26551" fill="none" stroke="black"/>
<path d="M39.9129,29.6421h -6.53102" fill="none" stroke="black"/>
<path d="M39.9129,184.162h -6.53102" fill="none" stroke="black"/>
<path d="M36.6474,189.681h -3.26551" fill="none" stroke="black"/>
<path d="M39.9129,29.6421h -6.53102" fill="none" stroke="black"/>
<path d="M36.6474,24.1235h -3.26551" fill="none" stroke="black"/>
<text xml:space="preserve" x="28.2105" y="186.705" fill="black" font-size="7.30438" font-family="Helvetica">2</text>
<text xml:space="preserve" x="24.122" y="186.705" fill="black" font-size="7.30438" font-family="Times">&#8722;</text>
<text xml:space="preserve" x="28.2105" y="164.446" fill="black" font-size="7.30438" font-family="Helvetica">0</text>
<text xml:space="preserve" x="28.2105" y="142.641" fill="black" font-size="7.30438" font-family="Helvetica">2</text>
<text xml:space="preserve" x="28.2105" y="120.382" fill="black" font-size="7.30438" font-family="Helvetica">4</text>
<text xml:space="preserve" x="28.2105" y="98.5766" fill="black" font-size="7.30438" font-family="Helvetica">6</text>
<text xml:space="preserve" x="28.2105" y="76.3174" fill="black" font-size="7.30438" font-family="Helvetica">8</text>
<text xml:space="preserve" x="24.5763" y="54.0581" fill="black" font-size="7.30438" font-family="Helvetica">10</text>
<text xml:space="preserve" x="24.122" y="32.2532" fill="black" font-size="7.30438" font-family="Helvetica">12</text>
<g transform="rotate(-90,17.7623,77.2259)">
<text xml:space="preserve" x="17.7623" y="77.2259" fill="black" font-size="7.30438" font-family="Helvetica"># of hits per event</text>
</g>
<g fill="#0000ff">
<circle cx="69.2714" cy="114.959" r="1.09025"/>
<circle cx="70.9197" cy="109.882" r="1.09025"/>
<circle cx="81.1983" cy="116.173" r="1.09025"/>
<circle cx="82.8466" cy="115.29" r="1.09025"/>
<circle cx="93.1252" cy="122.244" r="1.09025"/>
<circle cx="94.7735" cy="115.953" r="1.09025"/>
<circle cx="105.052" cy="108.116" r="1.09025"/>
<circle cx="106.7" cy="111.207" r="1.09025"/>
<circle cx="116.979" cy="123.789" r="1.09025"/>
<circle cx="118.627" cy="117.277" r="1.09025"/>
<circle cx="128.906" cy="118.16" r="1.09025"/>
<circle cx="130.554" cy="119.374" r="1.09025"/>
<circle cx="140.833" cy="117.608" r="1.09025"/>
<circle cx="142.481" cy="116.063" r="1.09025"/>
<circle cx="152.76" cy="122.023" r="1.09025"/>
<circle cx="154.408" cy="117.719" r="1.09025"/>
<circle cx="164.687" cy="122.244" r="1.09025"/>
<circle cx="166.335" cy="117.719" r="1.09025"/>
<circle cx="176.613" cy="125.003" r="1.09025"/>
<circle cx="178.262" cy="128.425" r="1.09025"/>
<circle cx="188.54" cy="123.458" r="1.09025"/>
<circle cx="190.189" cy="122.796" r="1.09025"/>
<circle cx="200.467" cy="128.866" r="1.09025"/>
<circle cx="202.116" cy="123.458" r="1.09025"/>
<circle cx="212.394" cy="125.996" r="1.09025"/>
<circle cx="214.042" cy="128.645" r="1.09025"/>
<circle cx="224.321" cy="131.736" r="1.09025"/>
<circle cx="225.969" cy="128.425" r="1.09025"/>
</g>
<path d="M69.2714,114.051v -31.9761" fill="none" stroke="black"/>
<path d="M68.3629,82.0747h 1.81708" fill="none" stroke="black"/>
<path d="M69.2714,115.868v 31.9761" fill="none" stroke="black"/>
<path d="M68.3629,147.844h 1.81708" fill="none" stroke="black"/>
<path d="M70.9197,108.974v -26.9198" fill="none" stroke="black"/>
<path d="M70.0112,82.0539h 1.81708" fill="none" stroke="black"/>
<path d="M70.9197,110.791v 26.9198" fill="none" stroke="black"/>
<path d="M70.0112,137.711h 1.81708" fill="none" stroke="black"/>
<path d="M81.1983,115.265v -29.6674" fill="none" stroke="black"/>
<path d="M80.2898,85.5975h 1.81708" fill="none" stroke="black"/>
<path d="M81.1983,117.082v 29.6674" fill="none" stroke="black"/>
<path d="M80.2898,146.749h 1.81708" fill="none" stroke="black"/>
<path d="M82.8466,114.382v -32.5003" fill="none" stroke="black"/>
<path d="M81.9381,81.8816h 1.81708" fill="none" stroke="black"/>
<path d="M82.8466,116.199v 32.5003" fill="none" stroke="black"/>
<path d="M81.9381,148.699h 1.81708" fill="none" stroke="black"/>
<path d="M93.1252,121.335v -28.9079" fill="none" stroke="black"/>
<path d="M92.2167,92.4274h 1.81708" fill="none" stroke="black"/>
<path d="M93.1252,123.152v 28.9079" fill="none" stroke="black"/>
<path d="M92.2167,152.06h 1.81708" fill="none" stroke="black"/>
<path d="M94.7735,115.044v -30.402" fill="none" stroke="black"/>
<path d="M93.865,84.6422h 1.81708" fill="none" stroke="black"/>
<path d="M94.7735,116.861v 30.402" fill="none" stroke="black"/>
<path d="M93.865,147.263h 1.81708" fill="none" stroke="black"/>
<path d="M105.052,107.208v -69.7274" fill="none" stroke="black"/>
<path d="M104.144,37.4803h 1.81708" fill="none" stroke="black"/>
<path d="M105.052,109.025v 69.7274" fill="none" stroke="black"/>
<path d="M104.144,178.752h 1.81708" fill="none" stroke="black"/>
<path d="M106.7,110.298v -57.3253" fill="none" stroke="black"/>
<path d="M105.792,52.9729h 1.81708" fill="none" stroke="black"/>
<path d="M106.7,112.115v 57.3253" fill="none" stroke="black"/>
<path d="M105.792,169.441h 1.81708" fill="none" stroke="black"/>
<path d="M116.979,122.881v -25.1847" fill="none" stroke="black"/>
<path d="M116.07,97.6958h 1.81708" fill="none" stroke="black"/>
<path d="M116.979,124.698v 25.1847" fill="none" stroke="black"/>
<path d="M116.07,149.882h 1.81708" fill="none" stroke="black"/>
<path d="M118.627,116.369v -29.4715" fill="none" stroke="black"/>
<path d="M117.719,86.8971h 1.81708" fill="none" stroke="black"/>
<path d="M118.627,118.186v 29.4715" fill="none" stroke="black"/>
<path d="M117.719,147.657h 1.81708" fill="none" stroke="black"/>
<path d="M128.906,117.252v -30.6577" fill="none" stroke="black"/>
<path d="M127.997,86.5938h 1.81708" fill="none" stroke="black"/>
<path d="M128.906,119.069v 30.6577" fill="none" stroke="black"/>
<path d="M127.997,149.726h 1.81708" fill="none" stroke="black"/>
<path d="M130.554,118.466v -31.7083" fill="none" stroke="black"/>
<path d="M129.646,86.7574h 1.81708" fill="none" stroke="black"/>
<path d="M130.554,120.283v 31.7083" fill="none" stroke="black"/>
<path d="M129.646,151.991h 1.81708" fill="none" stroke="black"/>
<path d="M140.833,116.7v -42.6695" fill="none" stroke="black"/>
<path d="M139.924,74.0302h 1.81708" fill="none" stroke="black"/>
<path d="M140.833,118.517v 42.6695" fill="none" stroke="black"/>
<path d="M139.924,161.186h 1.81708" fill="none" stroke="black"/>
<path d="M142.481,115.155v -31.835" fill="none" stroke="black"/>
<path d="M141.573,83.3195h 1.81708" fill="none" stroke="black"/>
<path d="M142.481,116.972v 31.835" fill="none" stroke="black"/>
<path d="M141.573,148.807h 1.81708" fill="none" stroke="black"/>
<path d="M152.76,121.115v -36.4439" fill="none" stroke="black"/>
<path d="M151.851,84.6707h 1.81708" fill="none" stroke="black"/>
<path d="M152.76,122.932v 36.4439" fill="none" stroke="black"/>
<path d="M151.851,159.376h 1.81708" fill="none" stroke="black"/>
<path d="M154.408,116.81v -34.5817" fill="none" stroke="black"/>
<path d="M153.499,82.2284h 1.81708" fill="none" stroke="black"/>
<path d="M154.408,118.627v 34.5817" fill="none" stroke="black"/>
<path d="M153.499,153.209h 1.81708" fill="none" stroke="black"/>
<path d="M164.687,121.335v -28.4135" fill="none" stroke="black"/>
<path d="M163.778,92.9218h 1.81708" fill="none" stroke="black"/>
<path d="M164.687,123.152v 28.4135" fill="none" stroke="black"/>
<path d="M163.778,151.566h 1.81708" fill="none" stroke="black"/>
<path d="M166.335,116.81v -32.4587" fill="none" stroke="black"/>
<path d="M165.426,84.3513h 1.81708" fill="none" stroke="black"/>
<path d="M166.335,118.627v 32.4587" fill="none" stroke="black"/>
<path d="M165.426,151.086h 1.81708" fill="none" stroke="black"/>
<path d="M176.613,124.095v -26.7293" fill="none" stroke="black"/>
<path d="M175.705,97.3653h 1.81708" fill="none" stroke="black"/>
<path d="M176.613,125.912v 26.7293" fill="none" stroke="black"/>
<path d="M175.705,152.641h 1.81708" fill="none" stroke="black"/>
<path d="M178.262,127.516v -23.392" fill="none" stroke="black"/>
<path d="M177.353,104.124h 1.81708" fill="none" stroke="black"/>
<path d="M178.262,129.333v 23.392" fill="none" stroke="black"/>
<path d="M177.353,152.725h 1.81708" fill="none" stroke="black"/>
<path d="M188.54,122.549v -31.3645" fill="none" stroke="black"/>
<path d="M187.632,91.1849h 1.81708" fill="none" stroke="black"/>
<path d="M188.54,124.366v 31.3645" fill="none" stroke="black"/>
<path d="M187.632,155.731h 1.81708" fill="none" stroke="black"/>
<path d="M190.189,121.887v -24.8021" fill="none" stroke="black"/>
<path d="M189.28,97.0851h 1.81708" fill="none" stroke="black"/>
<path d="M190.189,123.704v 24.8021" fill="none" stroke="black"/>
<path d="M189.28,148.506h 1.81708" fill="none" stroke="black"/>
<path d="M200.467,127.958v -22.4264" fill="none" stroke="black"/>
<path d="M199.559,105.531h 1.81708" fill="none" stroke="black"/>
<path d="M200.467,129.775v 22.4264" fill="none" stroke="black"/>
<path d="M199.559,152.201h 1.81708" fill="none" stroke="black"/>
<path d="M202.116,122.549v -21.952" fill="none" stroke="black"/>
<path d="M201.207,100.597h 1.81708" fill="none" stroke="black"/>
<path d="M202.116,124.366v 21.952" fill="none" stroke="black"/>
<path d="M201.207,146.318h 1.81708" fill="none" stroke="black"/>
<path d="M212.394,125.088v -25.2034" fill="none" stroke="black"/>
<path d="M211.486,99.8846h 1.81708" fill="none" stroke="black"/>
<path d="M212.394,126.905v 25.2034" fill="none" stroke="black"/>
<path d="M211.486,152.108h 1.81708" fill="none" stroke="black"/>
<path d="M214.042,127.737v -24.7136" fill="none" stroke="black"/>
<path d="M213.134,103.023h 1.81708" fill="none" stroke="black"/>
<path d="M214.042,129.554v 24.7136" fill="none" stroke="black"/>
<path d="M213.134,154.268h 1.81708" fill="none" stroke="black"/>
<path d="M224.321,130.827v -19.5251" fill="none" stroke="black"/>
<path d="M223.412,111.302h 1.81708" fill="none" stroke="black"/>
<path d="M224.321,132.644v 19.5251" fill="none" stroke="black"/>
<path d="M223.412,152.169h 1.81708" fill="none" stroke="black"/>
<path d="M225.969,127.516v -22.5243" fill="none" stroke="black"/>
<path d="M225.061,104.992h 1.81708" fill="none" stroke="black"/>
<path d="M225.969,129.333v 22.5243" fill="none" stroke="black"/>
<path d="M225.061,151.858h 1.81708" fill="none" stroke="black"/>
<text xml:space="preserve" x="59.5551" y="10.9025" fill="black" font-size="4.26999" font-family="Helvetica">No cherenkov | avg # of hits in each layer 100 events (5GeV mu- gun) | total: 105.629997+/-21.259659</text>
<rect x="289.634" y="2.16233" width="272.126" height="211.908" fill="white"/>
<rect x="316.846" y="23.3531" width="217.701" height="169.526" fill="white"/>
<rect x="316.846" y="23.3531" width="217.701" height="169.526" fill="none" stroke="black"/>
<rect x="316.846" y="23.3531" width="217.701" height="169.526" fill="white"/>
<rect x="316.846" y="23.3531" width="217.701" height="169.526" fill="none" stroke="black"/>
<path d="M316.846,192.879h 217.701" fill="none" stroke="black"/>
<path d="M316.846,187.794v 5.08579" fill="none" stroke="black"/>
<path d="M324.621,190.337v 2.5429" fill="none" stroke="black"/>
<path d="M332.397,190.337v 2.5429" fill="none" stroke="black"/>
<path d="M340.172,190.337v 2.5429" fill="none" stroke="black"/>
<path d="M347.947,187.794v 5.08579" fill="none" stroke="black"/>
<path d="M355.722,190.337v 2.5429" fill="none" stroke="black"/>
<path d="M363.497,190.337v 2.5429" fill="none" stroke="black"/>
<path d="M371.272,190.337v 2.5429" fill="none" stroke="black"/>
<path d="M379.047,187.794v 5.08579" fill="none" stroke="black"/>
<path d="M386.822,190.337v 2.5429" fill="none" stroke="black"/>
<path d="M394.597,190.337v 2.5429" fill="none" stroke="black"/>
<path d="M402.372,190.337v 2.5429" fill="none" stroke="black"/>
<path d="M410.147,187.794v 5.08579" fill="none" stroke="black"/>
<path d="M417.922,190.337v 2.5429" fill="none" stroke="black"/>
<path d="M425.697,190.337v 2.5429" fill="none" stroke="black"/>
<path d="M433.472,190.337v 2.5429" fill="none" stroke="black"/>
<path d="M441.247,187.794v 5.08579" fill="none" stroke="black"/>
<path d="M449.022,190.337v 2.5429" fill="none" stroke="black"/>
<path d="M456.797,190.337v 2.5429" fill="none" stroke="black"/>
<path d="M464.572,190.337v 2.5429" fill="none" stroke="black"/>
<path d="M472.347,187.794v 5.08579" fill="none" stroke="black"/>
<path d="M480.122,190.337v 2.5429" fill="none" stroke="black"/>
<path d="M487.897,190.337v 2.5429" fill="none" stroke="black"/>
<path d="M495.672,190.337v 2.5429" fill="none" stroke="black"/>
<path d="M503.447,187.794v 5.08579" fill="none" stroke="black"/>
<path d="M511.222,190.337v 2.5429" fill="none" stroke="black"/>
<path d="M518.997,190.337v 2.5429" fill="none" stroke="black"/>
<path d="M526.772,190.337v 2.5429" fill="none" stroke="black"/>
<path d="M534.547,187.794v 5.08579" fill="none" stroke="black"/>
<text xml:space="preserve" x="308.949" y="199.425" fill="black" font-size="7.30438" font-family="Helvetica">1600</text>
<text xml:space="preserve" x="339.84" y="199.425" fill="black" font-size="7.30438" font-family="Helvetica">1800</text>
<text xml:space="preserve" x="371.184" y="199.425" fill="black" font-size="7.30438" font-family="Helvetica">2000</text>
<text xml:space="preserve" x="402.075" y="199.425" fill="black" font-size="7.30438" font-family="Helvetica">2200</text>
<text xml:space="preserve" x="433.419" y="199.425" fill="black" font-size="7.30438" font-family="Helvetica">2400</text>
<text xml:space="preserve" x="464.31" y="199.425" fill="black" font-size="7.30438" font-family="Helvetica">2600</text>
<text xml:space="preserve" x="495.654" y="199.425" fill="black" font-size="7.30438" font-family="Helvetica">2800</text>
<text xml:space="preserve" x="526.545" y="199.425" fill="black" font-size="7.30438" font-family="Helvetica">3000</text>
<text xml:space="preserve" x="467.49" y="206.239" fill="black" font-size="7.30438" font-family="Helvetica">vertex x position (mm)</text>
<path d="M316.846,192.879v -169.526" fill="none" stroke="black"/>
<path d="M323.377,182.84h -6.53102" fill="none" stroke="black"/>
<path d="M320.112,178.298h -3.26551" fill="none" stroke="black"/>
<path d="M320.112,173.755h -3.26551" fill="none" stroke="black"/>
<path d="M320.112,169.213h -3.26551" fill="none" stroke="black"/>
<path d="M320.112,164.67h -3.26551" fill="none" stroke="black"/>
<path d="M323.377,160.128h -6.53102" fill="none" stroke="black"/>
<path d="M320.112,155.585h -3.26551" fill="none" stroke="black"/>
<path d="M320.112,151.043h -3.26551" fill="none" stroke="black"/>
<path d="M320.112,146.5h -3.26551" fill="none" stroke="black"/>
<path d="M320.112,141.958h -3.26551" fill="none" stroke="black"/>
<path d="M323.377,137.415h -6.53102" fill="none" stroke="black"/>
<path d="M320.112,132.873h -3.26551" fill="none" stroke="black"/>
<path d="M320.112,128.33h -3.26551" fill="none" stroke="black"/>
<path d="M320.112,123.788h -3.26551" fill="none" stroke="black"/>
<path d="M320.112,119.245h -3.26551" fill="none" stroke="black"/>
<path d="M323.377,114.703h -6.53102" fill="none" stroke="black"/>
<path d="M320.112,110.16h -3.26551" fill="none" stroke="black"/>
<path d="M320.112,105.618h -3.26551" fill="none" stroke="black"/>
<path d="M320.112,101.075h -3.26551" fill="none" stroke="black"/>
<path d="M320.112,96.5329h -3.26551" fill="none" stroke="black"/>
<path d="M323.377,91.9904h -6.53102" fill="none" stroke="black"/>
<path d="M320.112,87.4479h -3.26551" fill="none" stroke="black"/>
<path d="M320.112,82.9054h -3.26551" fill="none" stroke="black"/>
<path d="M320.112,78.3629h -3.26551" fill="none" stroke="black"/>
<path d="M320.112,73.8204h -3.26551" fill="none" stroke="black"/>
<path d="M323.377,69.2779h -6.53102" fill="none" stroke="black"/>
<path d="M320.112,64.7354h -3.26551" fill="none" stroke="black"/>
<path d="M320.112,60.1929h -3.26551" fill="none" stroke="black"/>
<path d="M320.112,55.6504h -3.26551" fill="none" stroke="black"/>
<path d="M320.112,51.1079h -3.26551" fill="none" stroke="black"/>
<path d="M323.377,46.5654h -6.53102" fill="none" stroke="black"/>
<path d="M320.112,42.0228h -3.26551" fill="none" stroke="black"/>
<path d="M320.112,37.4803h -3.26551" fill="none" stroke="black"/>
<path d="M320.112,32.9378h -3.26551" fill="none" stroke="black"/>
<path d="M320.112,28.3953h -3.26551" fill="none" stroke="black"/>
<path d="M323.377,23.8528h -6.53102" fill="none" stroke="black"/>
<path d="M323.377,182.84h -6.53102" fill="none" stroke="black"/>
<path d="M320.112,187.383h -3.26551" fill="none" stroke="black"/>
<path d="M320.112,191.926h -3.26551" fill="none" stroke="black"/>
<path d="M323.377,23.8528h -6.53102" fill="none" stroke="black"/>
<text xml:space="preserve" x="308.041" y="185.342" fill="black" font-size="7.30438" font-family="Helvetica">10</text>
<text xml:space="preserve" x="303.952" y="185.342" fill="black" font-size="7.30438" font-family="Times">&#8722;</text>
<text xml:space="preserve" x="311.675" y="162.629" fill="black" font-size="7.30438" font-family="Helvetica">0</text>
<text xml:space="preserve" x="308.041" y="139.915" fill="black" font-size="7.30438" font-family="Helvetica">10</text>
<text xml:space="preserve" x="308.041" y="117.202" fill="black" font-size="7.30438" font-family="Helvetica">20</text>
<text xml:space="preserve" x="308.041" y="94.4882" fill="black" font-size="7.30438" font-family="Helvetica">30</text>
<text xml:space="preserve" x="308.041" y="71.7747" fill="black" font-size="7.30438" font-family="Helvetica">40</text>
<text xml:space="preserve" x="308.041" y="49.0612" fill="black" font-size="7.30438" font-family="Helvetica">50</text>
<text xml:space="preserve" x="308.041" y="26.3477" fill="black" font-size="7.30438" font-family="Helvetica">60</text>
<g transform="rotate(-90,298.501,158.54)">
<text xml:space="preserve" x="298.501" y="158.54" fill="black" font-size="7.30438" font-family="Helvetica"># of optical photons in MCParticles per event</text>
</g>
<g fill="#ff0000">
<circle cx="352.736" cy="109.048" r="1.09025"/>
<circle cx="354.384" cy="105.709" r="1.09025"/>
<circle cx="364.663" cy="107.957" r="1.09025"/>
<circle cx="366.311" cy="111.75" r="1.09025"/>
<circle cx="376.59" cy="110.978" r="1.09025"/>
<circle cx="378.238" cy="107.594" r="1.09025"/>
<circle cx="388.517" cy="102.347" r="1.09025"/>
<circle cx="390.165" cy="104.846" r="1.09025"/>
<circle cx="400.444" cy="113.022" r="1.09025"/>
<circle cx="402.092" cy="108.298" r="1.09025"/>
<circle cx="412.37" cy="107.753" r="1.09025"/>
<circle cx="414.019" cy="106.572" r="1.09025"/>
<circle cx="424.297" cy="106.913" r="1.09025"/>
<circle cx="425.946" cy="107.185" r="1.09025"/>
<circle cx="436.224" cy="107.662" r="1.09025"/>
<circle cx="437.873" cy="105.55" r="1.09025"/>
<circle cx="448.151" cy="107.072" r="1.09025"/>
<circle cx="449.799" cy="105.641" r="1.09025"/>
<circle cx="460.078" cy="111.432" r="1.09025"/>
<circle cx="461.726" cy="108.661" r="1.09025"/>
<circle cx="472.005" cy="107.344" r="1.09025"/>
<circle cx="473.653" cy="108.957" r="1.09025"/>
<circle cx="483.932" cy="110.887" r="1.09025"/>
<circle cx="485.58" cy="108.116" r="1.09025"/>
<circle cx="495.859" cy="107.662" r="1.09025"/>
<circle cx="497.507" cy="108.775" r="1.09025"/>
<circle cx="507.786" cy="113.454" r="1.09025"/>
<circle cx="509.434" cy="108.752" r="1.09025"/>
</g>
<path d="M352.736,108.139v -9.28939" fill="none" stroke="black"/>
<path d="M351.827,98.8496h 1.81708" fill="none" stroke="black"/>
<path d="M352.736,109.956v 9.28939" fill="none" stroke="black"/>
<path d="M351.827,119.245h 1.81708" fill="none" stroke="black"/>
<path d="M354.384,104.8v -26.2557" fill="none" stroke="black"/>
<path d="M353.476,78.5446h 1.81708" fill="none" stroke="black"/>
<path d="M354.384,106.617v 26.2557" fill="none" stroke="black"/>
<path d="M353.476,132.873h 1.81708" fill="none" stroke="black"/>
<path d="M364.663,107.049v -12.6508" fill="none" stroke="black"/>
<path d="M363.754,94.3979h 1.81708" fill="none" stroke="black"/>
<path d="M364.663,108.866v 12.6508" fill="none" stroke="black"/>
<path d="M363.754,121.517h 1.81708" fill="none" stroke="black"/>
<path d="M376.59,110.07v -11.9013" fill="none" stroke="black"/>
<path d="M375.681,98.1682h 1.81708" fill="none" stroke="black"/>
<path d="M376.59,111.887v 11.9013" fill="none" stroke="black"/>
<path d="M375.681,123.788h 1.81708" fill="none" stroke="black"/>
<path d="M378.238,106.685v -10.743" fill="none" stroke="black"/>
<path d="M377.33,95.9424h 1.81708" fill="none" stroke="black"/>
<path d="M378.238,108.502v 10.743" fill="none" stroke="black"/>
<path d="M377.33,119.245h 1.81708" fill="none" stroke="black"/>
<path d="M388.517,101.439v -2.36207" fill="none" stroke="black"/>
<path d="M387.608,99.0767h 1.81708" fill="none" stroke="black"/>
<path d="M388.517,103.256v 2.36207" fill="none" stroke="black"/>
<path d="M387.608,105.618h 1.81708" fill="none" stroke="black"/>
<path d="M390.165,103.937v -15.7624" fill="none" stroke="black"/>
<path d="M389.256,88.1747h 1.81708" fill="none" stroke="black"/>
<path d="M390.165,105.754v 15.7624" fill="none" stroke="black"/>
<path d="M389.256,121.517h 1.81708" fill="none" stroke="black"/>
<path d="M400.444,112.114v -12.1284" fill="none" stroke="black"/>
<path d="M399.535,99.9852h 1.81708" fill="none" stroke="black"/>
<path d="M400.444,113.931v 12.1284" fill="none" stroke="black"/>
<path d="M399.535,126.059h 1.81708" fill="none" stroke="black"/>
<path d="M402.092,107.389v -16.8526" fill="none" stroke="black"/>
<path d="M401.183,90.5368h 1.81708" fill="none" stroke="black"/>
<path d="M402.092,109.207v 16.8526" fill="none" stroke="black"/>
<path d="M401.183,126.059h 1.81708" fill="none" stroke="black"/>
<path d="M412.37,106.844v -15.1265" fill="none" stroke="black"/>
<path d="M411.462,91.7179h 1.81708" fill="none" stroke="black"/>
<path d="M412.37,108.661v 15.1265" fill="none" stroke="black"/>
<path d="M411.462,123.788h 1.81708" fill="none" stroke="black"/>
<path d="M414.019,105.663v -16.3076" fill="none" stroke="black"/>
<path d="M413.11,89.3558h 1.81708" fill="none" stroke="black"/>
<path d="M414.019,107.48v 16.3076" fill="none" stroke="black"/>
<path d="M413.11,123.788h 1.81708" fill="none" stroke="black"/>
<path d="M424.297,106.004v -9.1531" fill="none" stroke="black"/>
<path d="M423.389,96.8509h 1.81708" fill="none" stroke="black"/>
<path d="M424.297,107.821v 9.1531" fill="none" stroke="black"/>
<path d="M423.389,116.974h 1.81708" fill="none" stroke="black"/>
<path d="M425.946,106.277v -15.6943" fill="none" stroke="black"/>
<path d="M425.037,90.5822h 1.81708" fill="none" stroke="black"/>
<path d="M425.946,108.094v 15.6943" fill="none" stroke="black"/>
<path d="M425.037,123.788h 1.81708" fill="none" stroke="black"/>
<path d="M436.224,106.754v -12.9461" fill="none" stroke="black"/>
<path d="M435.316,93.8074h 1.81708" fill="none" stroke="black"/>
<path d="M436.224,108.571v 12.9461" fill="none" stroke="black"/>
<path d="M435.316,121.517h 1.81708" fill="none" stroke="black"/>
<path d="M437.873,104.641v -19.6009" fill="none" stroke="black"/>
<path d="M436.964,85.0404h 1.81708" fill="none" stroke="black"/>
<path d="M437.873,106.458v 19.6009" fill="none" stroke="black"/>
<path d="M436.964,126.059h 1.81708" fill="none" stroke="black"/>
<path d="M448.151,106.163v -7.35882" fill="none" stroke="black"/>
<path d="M447.243,98.8042h 1.81708" fill="none" stroke="black"/>
<path d="M448.151,107.98v 7.35882" fill="none" stroke="black"/>
<path d="M447.243,115.339h 1.81708" fill="none" stroke="black"/>
<path d="M449.799,104.732v -19.51" fill="none" stroke="black"/>
<path d="M448.891,85.2221h 1.81708" fill="none" stroke="black"/>
<path d="M449.799,106.549v 19.51" fill="none" stroke="black"/>
<path d="M448.891,126.059h 1.81708" fill="none" stroke="black"/>
<path d="M460.078,110.524v -23.0759" fill="none" stroke="black"/>
<path d="M459.169,87.4479h 1.81708" fill="none" stroke="black"/>
<path d="M460.078,112.341v 23.0759" fill="none" stroke="black"/>
<path d="M459.169,135.417h 1.81708" fill="none" stroke="black"/>
<path d="M461.726,107.753v -7.40424" fill="none" stroke="black"/>
<path d="M460.818,100.349h 1.81708" fill="none" stroke="black"/>
<path d="M461.726,109.57v 7.40424" fill="none" stroke="black"/>
<path d="M460.818,116.974h 1.81708" fill="none" stroke="black"/>
<path d="M472.005,106.436v -10.9928" fill="none" stroke="black"/>
<path d="M471.096,95.4427h 1.81708" fill="none" stroke="black"/>
<path d="M472.005,108.253v 10.9928" fill="none" stroke="black"/>
<path d="M471.096,119.245h 1.81708" fill="none" stroke="black"/>
<path d="M473.653,108.048v -16.194" fill="none" stroke="black"/>
<path d="M472.745,91.8541h 1.81708" fill="none" stroke="black"/>
<path d="M473.653,109.865v 16.194" fill="none" stroke="black"/>
<path d="M472.745,126.059h 1.81708" fill="none" stroke="black"/>
<path d="M483.932,109.979v -24.802" fill="none" stroke="black"/>
<path d="M483.023,85.1766h 1.81708" fill="none" stroke="black"/>
<path d="M483.932,111.796v 24.802" fill="none" stroke="black"/>
<path d="M483.023,136.598h 1.81708" fill="none" stroke="black"/>
<path d="M485.58,107.208v -69.7274" fill="none" stroke="black"/>
<path d="M484.672,37.4803h 1.81708" fill="none" stroke="black"/>
<path d="M485.58,109.025v 69.7274" fill="none" stroke="black"/>
<path d="M484.672,178.752h 1.81708" fill="none" stroke="black"/>
<path d="M495.859,106.754v -17.4886" fill="none" stroke="black"/>
<path d="M494.95,89.2649h 1.81708" fill="none" stroke="black"/>
<path d="M495.859,108.571v 17.4886" fill="none" stroke="black"/>
<path d="M494.95,126.059h 1.81708" fill="none" stroke="black"/>
<path d="M497.507,107.866v -18.647" fill="none" stroke="black"/>
<path d="M496.598,89.2195h 1.81708" fill="none" stroke="black"/>
<path d="M497.507,109.683v 18.647" fill="none" stroke="black"/>
<path d="M496.598,128.33h 1.81708" fill="none" stroke="black"/>
<path d="M507.786,112.545v -9.19853" fill="none" stroke="black"/>
<path d="M506.877,103.347h 1.81708" fill="none" stroke="black"/>
<path d="M507.786,114.362v 9.19853" fill="none" stroke="black"/>
<path d="M506.877,123.561h 1.81708" fill="none" stroke="black"/>
<path d="M509.434,107.844v -16.3984" fill="none" stroke="black"/>
<path d="M508.525,91.4453h 1.81708" fill="none" stroke="black"/>
<path d="M509.434,109.661v 16.3984" fill="none" stroke="black"/>
<path d="M508.525,126.059h 1.81708" fill="none" stroke="black"/>
<text xml:space="preserve" x="338.931" y="10.9025" fill="black" font-size="4.08458" font-family="Helvetica">No cherenkov | avg # of -22 PDG in each layer 100 events (5GeV mu- gun) | total: 640.030029+/-86.030052</text></svg>
