<?xml version="1.0" standalone="no"?>
<svg width="567.429" height="216.278" viewBox="0 0 567.429 216.278" xmlns="http://www.w3.org/2000/svg" shape-rendering="crispEdges">
<title>
plots/May_9/mu_5GeV_energy_1000_noscint_run1.svg
</title>
<desc>
Creator: ROOT Version 6.30/02
CreationDate: Thu May  9 17:41:35 2024</desc>
<defs>
</defs>
<rect x="0.5" y="0" width="566.929" height="215.778" fill="white"/>
<rect x="6.16929" y="2.15778" width="272.126" height="211.463" fill="white"/>
<rect x="33.3819" y="23.3041" width="217.701" height="169.17" fill="white"/>
<rect x="33.3819" y="23.3041" width="217.701" height="169.17" fill="none" stroke="black"/>
<rect x="33.3819" y="23.3041" width="217.701" height="169.17" fill="white"/>
<rect x="33.3819" y="23.3041" width="217.701" height="169.17" fill="none" stroke="black"/>
<path d="M33.3819,192.474h 217.701" fill="none" stroke="black"/>
<path d="M33.3819,187.399v 5.07511" fill="none" stroke="black"/>
<path d="M41.1569,189.937v 2.53755" fill="none" stroke="black"/>
<path d="M48.9319,189.937v 2.53755" fill="none" stroke="black"/>
<path d="M56.707,189.937v 2.53755" fill="none" stroke="black"/>
<path d="M64.482,187.399v 5.07511" fill="none" stroke="black"/>
<path d="M72.257,189.937v 2.53755" fill="none" stroke="black"/>
<path d="M80.0321,189.937v 2.53755" fill="none" stroke="black"/>
<path d="M87.8071,189.937v 2.53755" fill="none" stroke="black"/>
<path d="M95.5821,187.399v 5.07511" fill="none" stroke="black"/>
<path d="M103.357,189.937v 2.53755" fill="none" stroke="black"/>
<path d="M111.132,189.937v 2.53755" fill="none" stroke="black"/>
<path d="M118.907,189.937v 2.53755" fill="none" stroke="black"/>
<path d="M126.682,187.399v 5.07511" fill="none" stroke="black"/>
<path d="M134.457,189.937v 2.53755" fill="none" stroke="black"/>
<path d="M142.232,189.937v 2.53755" fill="none" stroke="black"/>
<path d="M150.007,189.937v 2.53755" fill="none" stroke="black"/>
<path d="M157.782,187.399v 5.07511" fill="none" stroke="black"/>
<path d="M165.557,189.937v 2.53755" fill="none" stroke="black"/>
<path d="M173.332,189.937v 2.53755" fill="none" stroke="black"/>
<path d="M181.107,189.937v 2.53755" fill="none" stroke="black"/>
<path d="M188.882,187.399v 5.07511" fill="none" stroke="black"/>
<path d="M196.657,189.937v 2.53755" fill="none" stroke="black"/>
<path d="M204.433,189.937v 2.53755" fill="none" stroke="black"/>
<path d="M212.208,189.937v 2.53755" fill="none" stroke="black"/>
<path d="M219.983,187.399v 5.07511" fill="none" stroke="black"/>
<path d="M227.758,189.937v 2.53755" fill="none" stroke="black"/>
<path d="M235.533,189.937v 2.53755" fill="none" stroke="black"/>
<path d="M243.308,189.937v 2.53755" fill="none" stroke="black"/>
<path d="M251.083,187.399v 5.07511" fill="none" stroke="black"/>
<text xml:space="preserve" x="25.4849" y="199.425" fill="black" font-size="7.29009" font-family="Helvetica">1600</text>
<text xml:space="preserve" x="56.3752" y="199.425" fill="black" font-size="7.29009" font-family="Helvetica">1800</text>
<text xml:space="preserve" x="87.7199" y="199.425" fill="black" font-size="7.29009" font-family="Helvetica">2000</text>
<text xml:space="preserve" x="118.61" y="199.425" fill="black" font-size="7.29009" font-family="Helvetica">2200</text>
<text xml:space="preserve" x="149.955" y="199.425" fill="black" font-size="7.29009" font-family="Helvetica">2400</text>
<text xml:space="preserve" x="180.845" y="199.425" fill="black" font-size="7.29009" font-family="Helvetica">2600</text>
<text xml:space="preserve" x="212.19" y="199.425" fill="black" font-size="7.29009" font-family="Helvetica">2800</text>
<text xml:space="preserve" x="243.08" y="199.425" fill="black" font-size="7.29009" font-family="Helvetica">3000</text>
<text xml:space="preserve" x="175.394" y="205.784" fill="black" font-size="7.29009" font-family="Helvetica">Barrel hit x position (mm)</text>
<path d="M33.3819,192.474v -169.17" fill="none" stroke="black"/>
<path d="M39.9129,184.54h -6.53102" fill="none" stroke="black"/>
<path d="M36.6474,180.241h -3.26551" fill="none" stroke="black"/>
<path d="M36.6474,175.942h -3.26551" fill="none" stroke="black"/>
<path d="M36.6474,171.643h -3.26551" fill="none" stroke="black"/>
<path d="M39.9129,167.344h -6.53102" fill="none" stroke="black"/>
<path d="M36.6474,163.045h -3.26551" fill="none" stroke="black"/>
<path d="M36.6474,158.745h -3.26551" fill="none" stroke="black"/>
<path d="M36.6474,154.446h -3.26551" fill="none" stroke="black"/>
<path d="M39.9129,150.147h -6.53102" fill="none" stroke="black"/>
<path d="M36.6474,145.848h -3.26551" fill="none" stroke="black"/>
<path d="M36.6474,141.549h -3.26551" fill="none" stroke="black"/>
<path d="M36.6474,137.25h -3.26551" fill="none" stroke="black"/>
<path d="M39.9129,132.951h -6.53102" fill="none" stroke="black"/>
<path d="M36.6474,128.652h -3.26551" fill="none" stroke="black"/>
<path d="M36.6474,124.353h -3.26551" fill="none" stroke="black"/>
<path d="M36.6474,120.054h -3.26551" fill="none" stroke="black"/>
<path d="M39.9129,115.755h -6.53102" fill="none" stroke="black"/>
<path d="M36.6474,111.456h -3.26551" fill="none" stroke="black"/>
<path d="M36.6474,107.157h -3.26551" fill="none" stroke="black"/>
<path d="M36.6474,102.858h -3.26551" fill="none" stroke="black"/>
<path d="M39.9129,98.559h -6.53102" fill="none" stroke="black"/>
<path d="M36.6474,94.26h -3.26551" fill="none" stroke="black"/>
<path d="M36.6474,89.9609h -3.26551" fill="none" stroke="black"/>
<path d="M36.6474,85.6619h -3.26551" fill="none" stroke="black"/>
<path d="M39.9129,81.3629h -6.53102" fill="none" stroke="black"/>
<path d="M36.6474,77.0638h -3.26551" fill="none" stroke="black"/>
<path d="M36.6474,72.7648h -3.26551" fill="none" stroke="black"/>
<path d="M36.6474,68.4658h -3.26551" fill="none" stroke="black"/>
<path d="M39.9129,64.1667h -6.53102" fill="none" stroke="black"/>
<path d="M36.6474,59.8677h -3.26551" fill="none" stroke="black"/>
<path d="M36.6474,55.5687h -3.26551" fill="none" stroke="black"/>
<path d="M36.6474,51.2696h -3.26551" fill="none" stroke="black"/>
<path d="M39.9129,46.9706h -6.53102" fill="none" stroke="black"/>
<path d="M36.6474,42.6716h -3.26551" fill="none" stroke="black"/>
<path d="M36.6474,38.3725h -3.26551" fill="none" stroke="black"/>
<path d="M36.6474,34.0735h -3.26551" fill="none" stroke="black"/>
<path d="M39.9129,29.7745h -6.53102" fill="none" stroke="black"/>
<path d="M39.9129,184.54h -6.53102" fill="none" stroke="black"/>
<path d="M36.6474,188.839h -3.26551" fill="none" stroke="black"/>
<path d="M39.9129,29.7745h -6.53102" fill="none" stroke="black"/>
<path d="M36.6474,25.4754h -3.26551" fill="none" stroke="black"/>
<text xml:space="preserve" x="24.5763" y="187.159" fill="black" font-size="7.29009" font-family="Helvetica">20</text>
<text xml:space="preserve" x="24.5763" y="169.897" fill="black" font-size="7.29009" font-family="Helvetica">40</text>
<text xml:space="preserve" x="24.5763" y="152.635" fill="black" font-size="7.29009" font-family="Helvetica">60</text>
<text xml:space="preserve" x="24.5763" y="135.372" fill="black" font-size="7.29009" font-family="Helvetica">80</text>
<text xml:space="preserve" x="20.4879" y="118.11" fill="black" font-size="7.29009" font-family="Helvetica">100</text>
<text xml:space="preserve" x="20.4879" y="100.848" fill="black" font-size="7.29009" font-family="Helvetica">120</text>
<text xml:space="preserve" x="20.4879" y="84.04" fill="black" font-size="7.29009" font-family="Helvetica">140</text>
<text xml:space="preserve" x="20.4879" y="66.7777" fill="black" font-size="7.29009" font-family="Helvetica">160</text>
<text xml:space="preserve" x="20.4879" y="49.5154" fill="black" font-size="7.29009" font-family="Helvetica">180</text>
<text xml:space="preserve" x="20.4879" y="32.2532" fill="black" font-size="7.29009" font-family="Helvetica">200</text>
<g transform="rotate(-90,14.1281,77.2259)">
<text xml:space="preserve" x="14.1281" y="77.2259" fill="black" font-size="7.29009" font-family="Helvetica"># of hits per event</text>
</g>
<g fill="#0000ff">
<circle cx="69.2714" cy="99.8754" r="1.09025"/>
<circle cx="70.9197" cy="97.3802" r="1.09025"/>
<circle cx="81.1983" cy="98.4352" r="1.09025"/>
<circle cx="82.8466" cy="99.3586" r="1.09025"/>
<circle cx="93.1252" cy="103.258" r="1.09025"/>
<circle cx="94.7735" cy="100.401" r="1.09025"/>
<circle cx="105.052" cy="104.148" r="1.09025"/>
<circle cx="106.7" cy="105.023" r="1.09025"/>
<circle cx="116.979" cy="109.467" r="1.09025"/>
<circle cx="118.627" cy="106.762" r="1.09025"/>
<circle cx="128.906" cy="110.175" r="1.09025"/>
<circle cx="130.554" cy="109.95" r="1.09025"/>
<circle cx="140.833" cy="112.544" r="1.09025"/>
<circle cx="142.481" cy="111.448" r="1.09025"/>
<circle cx="152.76" cy="113.632" r="1.09025"/>
<circle cx="154.408" cy="115.072" r="1.09025"/>
<circle cx="164.687" cy="115.369" r="1.09025"/>
<circle cx="166.335" cy="114.547" r="1.09025"/>
<circle cx="176.613" cy="121.129" r="1.09025"/>
<circle cx="178.262" cy="119.375" r="1.09025"/>
<circle cx="188.54" cy="122.697" r="1.09025"/>
<circle cx="190.189" cy="121.82" r="1.09025"/>
<circle cx="200.467" cy="125.67" r="1.09025"/>
<circle cx="202.116" cy="123.846" r="1.09025"/>
<circle cx="212.394" cy="126.764" r="1.09025"/>
<circle cx="214.042" cy="124.333" r="1.09025"/>
<circle cx="224.321" cy="127.26" r="1.09025"/>
<circle cx="225.969" cy="128.056" r="1.09025"/>
</g>
<path d="M69.2714,98.9668v -40.4035" fill="none" stroke="black"/>
<path d="M69.2714,100.784v 40.4035" fill="none" stroke="black"/>
<path d="M68.3629,58.5634h 1.81708" fill="none" stroke="black"/>
<path d="M68.3629,141.187h 1.81708" fill="none" stroke="black"/>
<path d="M70.9197,96.4717v -43.2917" fill="none" stroke="black"/>
<path d="M70.9197,98.2887v 43.2917" fill="none" stroke="black"/>
<path d="M70.0112,53.18h 1.81708" fill="none" stroke="black"/>
<path d="M70.0112,141.58h 1.81708" fill="none" stroke="black"/>
<path d="M81.1983,97.5267v -60.1251" fill="none" stroke="black"/>
<path d="M81.1983,99.3437v 60.1251" fill="none" stroke="black"/>
<path d="M80.2898,37.4016h 1.81708" fill="none" stroke="black"/>
<path d="M80.2898,159.469h 1.81708" fill="none" stroke="black"/>
<path d="M82.8466,98.4501v -50.8396" fill="none" stroke="black"/>
<path d="M82.8466,100.267v 50.8396" fill="none" stroke="black"/>
<path d="M81.9381,47.6105h 1.81708" fill="none" stroke="black"/>
<path d="M81.9381,151.107h 1.81708" fill="none" stroke="black"/>
<path d="M93.1252,102.349v -49.1939" fill="none" stroke="black"/>
<path d="M93.1252,104.166v 49.1939" fill="none" stroke="black"/>
<path d="M92.2167,53.1554h 1.81708" fill="none" stroke="black"/>
<path d="M92.2167,153.36h 1.81708" fill="none" stroke="black"/>
<path d="M94.7735,99.4922v -52.6655" fill="none" stroke="black"/>
<path d="M94.7735,101.309v 52.6655" fill="none" stroke="black"/>
<path d="M93.865,46.8267h 1.81708" fill="none" stroke="black"/>
<path d="M93.865,153.975h 1.81708" fill="none" stroke="black"/>
<path d="M105.052,103.239v -60.3584" fill="none" stroke="black"/>
<path d="M105.052,105.056v 60.3584" fill="none" stroke="black"/>
<path d="M104.144,42.8808h 1.81708" fill="none" stroke="black"/>
<path d="M104.144,165.415h 1.81708" fill="none" stroke="black"/>
<path d="M106.7,104.114v -43.862" fill="none" stroke="black"/>
<path d="M106.7,105.932v 43.862" fill="none" stroke="black"/>
<path d="M105.792,60.2525h 1.81708" fill="none" stroke="black"/>
<path d="M105.792,149.794h 1.81708" fill="none" stroke="black"/>
<path d="M116.979,108.559v -44.8024" fill="none" stroke="black"/>
<path d="M116.979,110.376v 44.8024" fill="none" stroke="black"/>
<path d="M116.07,63.7564h 1.81708" fill="none" stroke="black"/>
<path d="M116.07,155.178h 1.81708" fill="none" stroke="black"/>
<path d="M118.627,105.853v -51.6779" fill="none" stroke="black"/>
<path d="M118.627,107.67v 51.6779" fill="none" stroke="black"/>
<path d="M117.719,54.1751h 1.81708" fill="none" stroke="black"/>
<path d="M117.719,159.348h 1.81708" fill="none" stroke="black"/>
<path d="M128.906,109.266v -52.7612" fill="none" stroke="black"/>
<path d="M128.906,111.084v 52.7612" fill="none" stroke="black"/>
<path d="M127.997,56.5053h 1.81708" fill="none" stroke="black"/>
<path d="M127.997,163.845h 1.81708" fill="none" stroke="black"/>
<path d="M130.554,109.041v -47.2362" fill="none" stroke="black"/>
<path d="M130.554,110.858v 47.2362" fill="none" stroke="black"/>
<path d="M129.646,61.805h 1.81708" fill="none" stroke="black"/>
<path d="M129.646,158.094h 1.81708" fill="none" stroke="black"/>
<path d="M140.833,111.635v -41.025" fill="none" stroke="black"/>
<path d="M140.833,113.452v 41.025" fill="none" stroke="black"/>
<path d="M139.924,70.6102h 1.81708" fill="none" stroke="black"/>
<path d="M139.924,154.477h 1.81708" fill="none" stroke="black"/>
<path d="M142.481,110.539v -45.5668" fill="none" stroke="black"/>
<path d="M142.481,112.356v 45.5668" fill="none" stroke="black"/>
<path d="M141.573,64.9722h 1.81708" fill="none" stroke="black"/>
<path d="M141.573,157.923h 1.81708" fill="none" stroke="black"/>
<path d="M152.76,112.724v -46.9285" fill="none" stroke="black"/>
<path d="M152.76,114.541v 46.9285" fill="none" stroke="black"/>
<path d="M151.851,65.7953h 1.81708" fill="none" stroke="black"/>
<path d="M151.851,161.469h 1.81708" fill="none" stroke="black"/>
<path d="M154.408,114.164v -40.4683" fill="none" stroke="black"/>
<path d="M154.408,115.981v 40.4683" fill="none" stroke="black"/>
<path d="M153.499,73.6956h 1.81708" fill="none" stroke="black"/>
<path d="M153.499,156.449h 1.81708" fill="none" stroke="black"/>
<path d="M164.687,114.461v -44.3439" fill="none" stroke="black"/>
<path d="M164.687,116.278v 44.3439" fill="none" stroke="black"/>
<path d="M163.778,70.1166h 1.81708" fill="none" stroke="black"/>
<path d="M163.778,160.622h 1.81708" fill="none" stroke="black"/>
<path d="M166.335,113.639v -50.5528" fill="none" stroke="black"/>
<path d="M166.335,115.456v 50.5528" fill="none" stroke="black"/>
<path d="M165.426,63.0857h 1.81708" fill="none" stroke="black"/>
<path d="M165.426,166.008h 1.81708" fill="none" stroke="black"/>
<path d="M176.613,120.22v -39.3967" fill="none" stroke="black"/>
<path d="M176.613,122.037v 39.3967" fill="none" stroke="black"/>
<path d="M175.705,80.8237h 1.81708" fill="none" stroke="black"/>
<path d="M175.705,161.434h 1.81708" fill="none" stroke="black"/>
<path d="M178.262,118.466v -38.8703" fill="none" stroke="black"/>
<path d="M178.262,120.283v 38.8703" fill="none" stroke="black"/>
<path d="M177.353,79.5961h 1.81708" fill="none" stroke="black"/>
<path d="M177.353,159.154h 1.81708" fill="none" stroke="black"/>
<path d="M188.54,121.789v -37.5395" fill="none" stroke="black"/>
<path d="M188.54,123.606v 37.5395" fill="none" stroke="black"/>
<path d="M187.632,84.2492h 1.81708" fill="none" stroke="black"/>
<path d="M187.632,161.145h 1.81708" fill="none" stroke="black"/>
<path d="M190.189,120.912v -34.7672" fill="none" stroke="black"/>
<path d="M190.189,122.729v 34.7672" fill="none" stroke="black"/>
<path d="M189.28,86.1444h 1.81708" fill="none" stroke="black"/>
<path d="M189.28,157.496h 1.81708" fill="none" stroke="black"/>
<path d="M200.467,124.761v -34.614" fill="none" stroke="black"/>
<path d="M200.467,126.578v 34.614" fill="none" stroke="black"/>
<path d="M199.559,90.1471h 1.81708" fill="none" stroke="black"/>
<path d="M199.559,161.192h 1.81708" fill="none" stroke="black"/>
<path d="M202.116,122.937v -35.2845" fill="none" stroke="black"/>
<path d="M202.116,124.754v 35.2845" fill="none" stroke="black"/>
<path d="M201.207,87.6529h 1.81708" fill="none" stroke="black"/>
<path d="M201.207,160.039h 1.81708" fill="none" stroke="black"/>
<path d="M212.394,125.856v -36.5013" fill="none" stroke="black"/>
<path d="M212.394,127.673v 36.5013" fill="none" stroke="black"/>
<path d="M211.486,89.3542h 1.81708" fill="none" stroke="black"/>
<path d="M211.486,164.174h 1.81708" fill="none" stroke="black"/>
<path d="M214.042,123.424v -47.4424" fill="none" stroke="black"/>
<path d="M214.042,125.241v 47.4424" fill="none" stroke="black"/>
<path d="M213.134,75.9816h 1.81708" fill="none" stroke="black"/>
<path d="M213.134,172.684h 1.81708" fill="none" stroke="black"/>
<path d="M224.321,126.352v -40.9957" fill="none" stroke="black"/>
<path d="M224.321,128.169v 40.9957" fill="none" stroke="black"/>
<path d="M223.412,85.3559h 1.81708" fill="none" stroke="black"/>
<path d="M223.412,169.164h 1.81708" fill="none" stroke="black"/>
<path d="M225.969,127.148v -49.4118" fill="none" stroke="black"/>
<path d="M225.969,128.965v 49.4118" fill="none" stroke="black"/>
<path d="M225.061,77.7361h 1.81708" fill="none" stroke="black"/>
<path d="M225.061,178.377h 1.81708" fill="none" stroke="black"/>
<text xml:space="preserve" x="51.3783" y="10.9025" fill="black" font-size="4.34362" font-family="Helvetica">No scint | avg # of hits in each layer 1000 events (5GeV mu- gun) | total: 2885.309082+/-420.727783</text>
<rect x="289.634" y="2.15778" width="272.126" height="211.463" fill="white"/>
<rect x="316.846" y="23.3041" width="217.701" height="169.17" fill="white"/>
<rect x="316.846" y="23.3041" width="217.701" height="169.17" fill="none" stroke="black"/>
<rect x="316.846" y="23.3041" width="217.701" height="169.17" fill="white"/>
<rect x="316.846" y="23.3041" width="217.701" height="169.17" fill="none" stroke="black"/>
<path d="M316.846,192.474h 217.701" fill="none" stroke="black"/>
<path d="M316.846,187.399v 5.07511" fill="none" stroke="black"/>
<path d="M324.621,189.937v 2.53755" fill="none" stroke="black"/>
<path d="M332.397,189.937v 2.53755" fill="none" stroke="black"/>
<path d="M340.172,189.937v 2.53755" fill="none" stroke="black"/>
<path d="M347.947,187.399v 5.07511" fill="none" stroke="black"/>
<path d="M355.722,189.937v 2.53755" fill="none" stroke="black"/>
<path d="M363.497,189.937v 2.53755" fill="none" stroke="black"/>
<path d="M371.272,189.937v 2.53755" fill="none" stroke="black"/>
<path d="M379.047,187.399v 5.07511" fill="none" stroke="black"/>
<path d="M386.822,189.937v 2.53755" fill="none" stroke="black"/>
<path d="M394.597,189.937v 2.53755" fill="none" stroke="black"/>
<path d="M402.372,189.937v 2.53755" fill="none" stroke="black"/>
<path d="M410.147,187.399v 5.07511" fill="none" stroke="black"/>
<path d="M417.922,189.937v 2.53755" fill="none" stroke="black"/>
<path d="M425.697,189.937v 2.53755" fill="none" stroke="black"/>
<path d="M433.472,189.937v 2.53755" fill="none" stroke="black"/>
<path d="M441.247,187.399v 5.07511" fill="none" stroke="black"/>
<path d="M449.022,189.937v 2.53755" fill="none" stroke="black"/>
<path d="M456.797,189.937v 2.53755" fill="none" stroke="black"/>
<path d="M464.572,189.937v 2.53755" fill="none" stroke="black"/>
<path d="M472.347,187.399v 5.07511" fill="none" stroke="black"/>
<path d="M480.122,189.937v 2.53755" fill="none" stroke="black"/>
<path d="M487.897,189.937v 2.53755" fill="none" stroke="black"/>
<path d="M495.672,189.937v 2.53755" fill="none" stroke="black"/>
<path d="M503.447,187.399v 5.07511" fill="none" stroke="black"/>
<path d="M511.222,189.937v 2.53755" fill="none" stroke="black"/>
<path d="M518.997,189.937v 2.53755" fill="none" stroke="black"/>
<path d="M526.772,189.937v 2.53755" fill="none" stroke="black"/>
<path d="M534.547,187.399v 5.07511" fill="none" stroke="black"/>
<text xml:space="preserve" x="308.949" y="199.425" fill="black" font-size="7.29009" font-family="Helvetica">1600</text>
<text xml:space="preserve" x="339.84" y="199.425" fill="black" font-size="7.29009" font-family="Helvetica">1800</text>
<text xml:space="preserve" x="371.184" y="199.425" fill="black" font-size="7.29009" font-family="Helvetica">2000</text>
<text xml:space="preserve" x="402.075" y="199.425" fill="black" font-size="7.29009" font-family="Helvetica">2200</text>
<text xml:space="preserve" x="433.419" y="199.425" fill="black" font-size="7.29009" font-family="Helvetica">2400</text>
<text xml:space="preserve" x="464.31" y="199.425" fill="black" font-size="7.29009" font-family="Helvetica">2600</text>
<text xml:space="preserve" x="495.654" y="199.425" fill="black" font-size="7.29009" font-family="Helvetica">2800</text>
<text xml:space="preserve" x="526.545" y="199.425" fill="black" font-size="7.29009" font-family="Helvetica">3000</text>
<text xml:space="preserve" x="467.49" y="205.784" fill="black" font-size="7.29009" font-family="Helvetica">vertex x position (mm)</text>
<path d="M316.846,192.474v -169.17" fill="none" stroke="black"/>
<path d="M323.377,173.963h -6.53102" fill="none" stroke="black"/>
<path d="M320.112,168.931h -3.26551" fill="none" stroke="black"/>
<path d="M320.112,163.9h -3.26551" fill="none" stroke="black"/>
<path d="M320.112,158.868h -3.26551" fill="none" stroke="black"/>
<path d="M323.377,153.836h -6.53102" fill="none" stroke="black"/>
<path d="M320.112,148.804h -3.26551" fill="none" stroke="black"/>
<path d="M320.112,143.773h -3.26551" fill="none" stroke="black"/>
<path d="M320.112,138.741h -3.26551" fill="none" stroke="black"/>
<path d="M323.377,133.709h -6.53102" fill="none" stroke="black"/>
<path d="M320.112,128.677h -3.26551" fill="none" stroke="black"/>
<path d="M320.112,123.646h -3.26551" fill="none" stroke="black"/>
<path d="M320.112,118.614h -3.26551" fill="none" stroke="black"/>
<path d="M323.377,113.582h -6.53102" fill="none" stroke="black"/>
<path d="M320.112,108.55h -3.26551" fill="none" stroke="black"/>
<path d="M320.112,103.519h -3.26551" fill="none" stroke="black"/>
<path d="M320.112,98.4868h -3.26551" fill="none" stroke="black"/>
<path d="M323.377,93.4551h -6.53102" fill="none" stroke="black"/>
<path d="M320.112,88.4233h -3.26551" fill="none" stroke="black"/>
<path d="M320.112,83.3916h -3.26551" fill="none" stroke="black"/>
<path d="M320.112,78.3598h -3.26551" fill="none" stroke="black"/>
<path d="M323.377,73.3281h -6.53102" fill="none" stroke="black"/>
<path d="M320.112,68.2963h -3.26551" fill="none" stroke="black"/>
<path d="M320.112,63.2646h -3.26551" fill="none" stroke="black"/>
<path d="M320.112,58.2328h -3.26551" fill="none" stroke="black"/>
<path d="M323.377,53.201h -6.53102" fill="none" stroke="black"/>
<path d="M320.112,48.1693h -3.26551" fill="none" stroke="black"/>
<path d="M320.112,43.1375h -3.26551" fill="none" stroke="black"/>
<path d="M320.112,38.1058h -3.26551" fill="none" stroke="black"/>
<path d="M323.377,33.074h -6.53102" fill="none" stroke="black"/>
<path d="M323.377,173.963h -6.53102" fill="none" stroke="black"/>
<path d="M320.112,178.995h -3.26551" fill="none" stroke="black"/>
<path d="M320.112,184.027h -3.26551" fill="none" stroke="black"/>
<path d="M320.112,189.058h -3.26551" fill="none" stroke="black"/>
<path d="M323.377,33.074h -6.53102" fill="none" stroke="black"/>
<path d="M320.112,28.0423h -3.26551" fill="none" stroke="black"/>
<text xml:space="preserve" x="303.952" y="176.257" fill="black" font-size="7.29009" font-family="Helvetica">200</text>
<text xml:space="preserve" x="303.952" y="156.269" fill="black" font-size="7.29009" font-family="Helvetica">400</text>
<text xml:space="preserve" x="303.952" y="136.281" fill="black" font-size="7.29009" font-family="Helvetica">600</text>
<text xml:space="preserve" x="303.952" y="116.293" fill="black" font-size="7.29009" font-family="Helvetica">800</text>
<text xml:space="preserve" x="300.318" y="95.851" fill="black" font-size="7.29009" font-family="Helvetica">1000</text>
<text xml:space="preserve" x="300.318" y="75.8631" fill="black" font-size="7.29009" font-family="Helvetica">1200</text>
<text xml:space="preserve" x="300.318" y="55.8752" fill="black" font-size="7.29009" font-family="Helvetica">1400</text>
<text xml:space="preserve" x="300.318" y="35.4331" fill="black" font-size="7.29009" font-family="Helvetica">1600</text>
<g transform="rotate(-90,294.413,158.54)">
<text xml:space="preserve" x="294.413" y="158.54" fill="black" font-size="7.29009" font-family="Helvetica"># of optical photons in MCParticles per event</text>
</g>
<g fill="#ff0000">
<circle cx="352.736" cy="109.452" r="1.09025"/>
<circle cx="354.384" cy="107.895" r="1.09025"/>
<circle cx="364.663" cy="107.889" r="1.09025"/>
<circle cx="366.311" cy="106.644" r="1.09025"/>
<circle cx="376.59" cy="107.24" r="1.09025"/>
<circle cx="378.238" cy="105.798" r="1.09025"/>
<circle cx="388.517" cy="106.644" r="1.09025"/>
<circle cx="390.165" cy="106.479" r="1.09025"/>
<circle cx="400.444" cy="108.656" r="1.09025"/>
<circle cx="402.092" cy="106.764" r="1.09025"/>
<circle cx="412.37" cy="106.809" r="1.09025"/>
<circle cx="414.019" cy="106.593" r="1.09025"/>
<circle cx="424.297" cy="106.627" r="1.09025"/>
<circle cx="425.946" cy="105.249" r="1.09025"/>
<circle cx="436.224" cy="105.87" r="1.09025"/>
<circle cx="437.873" cy="106.631" r="1.09025"/>
<circle cx="448.151" cy="104.654" r="1.09025"/>
<circle cx="449.799" cy="103.126" r="1.09025"/>
<circle cx="460.078" cy="108.172" r="1.09025"/>
<circle cx="461.726" cy="107.114" r="1.09025"/>
<circle cx="472.005" cy="108.961" r="1.09025"/>
<circle cx="473.653" cy="106.972" r="1.09025"/>
<circle cx="483.932" cy="108.937" r="1.09025"/>
<circle cx="485.58" cy="106.654" r="1.09025"/>
<circle cx="495.859" cy="107.445" r="1.09025"/>
<circle cx="497.507" cy="106.187" r="1.09025"/>
<circle cx="507.786" cy="105.874" r="1.09025"/>
<circle cx="509.434" cy="107.575" r="1.09025"/>
</g>
<path d="M352.736,108.543v -9.6625" fill="none" stroke="black"/>
<path d="M352.736,110.36v 9.6625" fill="none" stroke="black"/>
<path d="M351.827,98.8806h 1.81708" fill="none" stroke="black"/>
<path d="M351.827,120.023h 1.81708" fill="none" stroke="black"/>
<path d="M354.384,106.987v -19.1691" fill="none" stroke="black"/>
<path d="M354.384,108.804v 19.1691" fill="none" stroke="black"/>
<path d="M353.476,87.8176h 1.81708" fill="none" stroke="black"/>
<path d="M353.476,127.973h 1.81708" fill="none" stroke="black"/>
<path d="M364.663,106.981v -69.579" fill="none" stroke="black"/>
<path d="M364.663,108.798v 69.579" fill="none" stroke="black"/>
<path d="M363.754,37.4016h 1.81708" fill="none" stroke="black"/>
<path d="M363.754,178.377h 1.81708" fill="none" stroke="black"/>
<path d="M366.311,105.736v -9.0484" fill="none" stroke="black"/>
<path d="M366.311,107.553v 9.0484" fill="none" stroke="black"/>
<path d="M365.403,96.6873h 1.81708" fill="none" stroke="black"/>
<path d="M365.403,116.601h 1.81708" fill="none" stroke="black"/>
<path d="M376.59,106.331v -19.0196" fill="none" stroke="black"/>
<path d="M376.59,108.148v 19.0196" fill="none" stroke="black"/>
<path d="M375.681,87.3117h 1.81708" fill="none" stroke="black"/>
<path d="M375.681,127.168h 1.81708" fill="none" stroke="black"/>
<path d="M378.238,104.89v -18.4483" fill="none" stroke="black"/>
<path d="M378.238,106.707v 18.4483" fill="none" stroke="black"/>
<path d="M377.33,86.4414h 1.81708" fill="none" stroke="black"/>
<path d="M377.33,125.155h 1.81708" fill="none" stroke="black"/>
<path d="M388.517,105.736v -13.778" fill="none" stroke="black"/>
<path d="M388.517,107.553v 13.778" fill="none" stroke="black"/>
<path d="M387.608,91.9579h 1.81708" fill="none" stroke="black"/>
<path d="M387.608,121.331h 1.81708" fill="none" stroke="black"/>
<path d="M390.165,105.571v -17.3646" fill="none" stroke="black"/>
<path d="M390.165,107.388v 17.3646" fill="none" stroke="black"/>
<path d="M389.256,88.2063h 1.81708" fill="none" stroke="black"/>
<path d="M389.256,124.752h 1.81708" fill="none" stroke="black"/>
<path d="M400.444,107.747v -12.2697" fill="none" stroke="black"/>
<path d="M400.444,109.565v 12.2697" fill="none" stroke="black"/>
<path d="M399.535,95.4778h 1.81708" fill="none" stroke="black"/>
<path d="M399.535,121.834h 1.81708" fill="none" stroke="black"/>
<path d="M402.092,105.856v -15.7714" fill="none" stroke="black"/>
<path d="M402.092,107.673v 15.7714" fill="none" stroke="black"/>
<path d="M401.183,90.0843h 1.81708" fill="none" stroke="black"/>
<path d="M401.183,123.444h 1.81708" fill="none" stroke="black"/>
<path d="M412.37,105.901v -14.3177" fill="none" stroke="black"/>
<path d="M412.37,107.718v 14.3177" fill="none" stroke="black"/>
<path d="M411.462,91.5829h 1.81708" fill="none" stroke="black"/>
<path d="M411.462,122.035h 1.81708" fill="none" stroke="black"/>
<path d="M414.019,105.685v -17.9555" fill="none" stroke="black"/>
<path d="M414.019,107.502v 17.9555" fill="none" stroke="black"/>
<path d="M413.11,87.7291h 1.81708" fill="none" stroke="black"/>
<path d="M413.11,125.457h 1.81708" fill="none" stroke="black"/>
<path d="M424.297,105.718v -46.0766" fill="none" stroke="black"/>
<path d="M424.297,107.535v 46.0766" fill="none" stroke="black"/>
<path d="M423.389,59.6415h 1.81708" fill="none" stroke="black"/>
<path d="M423.389,153.612h 1.81708" fill="none" stroke="black"/>
<path d="M425.946,104.341v -19.7017" fill="none" stroke="black"/>
<path d="M425.946,106.158v 19.7017" fill="none" stroke="black"/>
<path d="M425.037,84.639h 1.81708" fill="none" stroke="black"/>
<path d="M425.037,125.86h 1.81708" fill="none" stroke="black"/>
<path d="M436.224,104.962v -22.5022" fill="none" stroke="black"/>
<path d="M436.224,106.779v 22.5022" fill="none" stroke="black"/>
<path d="M435.316,82.4595h 1.81708" fill="none" stroke="black"/>
<path d="M435.316,129.281h 1.81708" fill="none" stroke="black"/>
<path d="M437.873,105.722v -21.0375" fill="none" stroke="black"/>
<path d="M437.873,107.539v 21.0375" fill="none" stroke="black"/>
<path d="M436.964,84.6845h 1.81708" fill="none" stroke="black"/>
<path d="M436.964,128.577h 1.81708" fill="none" stroke="black"/>
<path d="M448.151,103.745v -16.473" fill="none" stroke="black"/>
<path d="M448.151,105.562v 16.473" fill="none" stroke="black"/>
<path d="M447.243,87.2724h 1.81708" fill="none" stroke="black"/>
<path d="M447.243,122.036h 1.81708" fill="none" stroke="black"/>
<path d="M449.799,102.218v -20.0132" fill="none" stroke="black"/>
<path d="M449.799,104.035v 20.0132" fill="none" stroke="black"/>
<path d="M448.891,82.2047h 1.81708" fill="none" stroke="black"/>
<path d="M448.891,124.048h 1.81708" fill="none" stroke="black"/>
<path d="M460.078,107.263v -14.0621" fill="none" stroke="black"/>
<path d="M460.078,109.08v 14.0621" fill="none" stroke="black"/>
<path d="M459.169,93.2011h 1.81708" fill="none" stroke="black"/>
<path d="M459.169,123.142h 1.81708" fill="none" stroke="black"/>
<path d="M461.726,106.206v -16.1258" fill="none" stroke="black"/>
<path d="M461.726,108.023v 16.1258" fill="none" stroke="black"/>
<path d="M460.818,90.0801h 1.81708" fill="none" stroke="black"/>
<path d="M460.818,124.149h 1.81708" fill="none" stroke="black"/>
<path d="M472.005,108.052v -13.4899" fill="none" stroke="black"/>
<path d="M472.005,109.869v 13.4899" fill="none" stroke="black"/>
<path d="M471.096,94.5621h 1.81708" fill="none" stroke="black"/>
<path d="M471.096,123.359h 1.81708" fill="none" stroke="black"/>
<path d="M473.653,106.064v -14.9595" fill="none" stroke="black"/>
<path d="M473.653,107.881v 14.9595" fill="none" stroke="black"/>
<path d="M472.745,91.1045h 1.81708" fill="none" stroke="black"/>
<path d="M472.745,122.84h 1.81708" fill="none" stroke="black"/>
<path d="M483.932,108.029v -13.9003" fill="none" stroke="black"/>
<path d="M483.932,109.846v 13.9003" fill="none" stroke="black"/>
<path d="M483.023,94.1286h 1.81708" fill="none" stroke="black"/>
<path d="M483.023,123.746h 1.81708" fill="none" stroke="black"/>
<path d="M485.58,105.746v -15.1771" fill="none" stroke="black"/>
<path d="M485.58,107.563v 15.1771" fill="none" stroke="black"/>
<path d="M484.672,90.5686h 1.81708" fill="none" stroke="black"/>
<path d="M484.672,122.74h 1.81708" fill="none" stroke="black"/>
<path d="M495.859,106.537v -9.55925" fill="none" stroke="black"/>
<path d="M495.859,108.354v 9.55925" fill="none" stroke="black"/>
<path d="M494.95,96.9773h 1.81708" fill="none" stroke="black"/>
<path d="M494.95,117.913h 1.81708" fill="none" stroke="black"/>
<path d="M497.507,105.279v -2.76665" fill="none" stroke="black"/>
<path d="M497.507,107.096v 2.76665" fill="none" stroke="black"/>
<path d="M496.598,102.512h 1.81708" fill="none" stroke="black"/>
<path d="M496.598,109.863h 1.81708" fill="none" stroke="black"/>
<path d="M507.786,104.965v -37.9775" fill="none" stroke="black"/>
<path d="M507.786,106.782v 37.9775" fill="none" stroke="black"/>
<path d="M506.877,66.9879h 1.81708" fill="none" stroke="black"/>
<path d="M506.877,144.76h 1.81708" fill="none" stroke="black"/>
<path d="M509.434,106.667v -9.82787" fill="none" stroke="black"/>
<path d="M509.434,108.484v 9.82787" fill="none" stroke="black"/>
<path d="M508.525,96.8391h 1.81708" fill="none" stroke="black"/>
<path d="M508.525,118.312h 1.81708" fill="none" stroke="black"/>
<text xml:space="preserve" x="338.477" y="10.9025" fill="black" font-size="4.06833" font-family="Helvetica">No scint | avg # of -22 PDG in each layer 1000 events (5GeV mu- gun) | total: 16777.216797+/-5639.803223</text></svg>
