<?xml version="1.0" standalone="no"?>
<svg width="567.429" height="216.278" viewBox="0 0 567.429 216.278" xmlns="http://www.w3.org/2000/svg" shape-rendering="crispEdges">
<title>
plots/May_9/mu_5GeV_energy_100_noscint_run1.svg
</title>
<desc>
Creator: ROOT Version 6.30/02
CreationDate: Thu May  9 17:49:48 2024</desc>
<defs>
</defs>
<rect x="0.5" y="0" width="566.929" height="215.778" fill="white"/>
<rect x="6.16929" y="2.15778" width="272.126" height="211.463" fill="white"/>
<rect x="33.3819" y="23.3041" width="217.701" height="169.17" fill="white"/>
<rect x="33.3819" y="23.3041" width="217.701" height="169.17" fill="none" stroke="black"/>
<rect x="33.3819" y="23.3041" width="217.701" height="169.17" fill="white"/>
<rect x="33.3819" y="23.3041" width="217.701" height="169.17" fill="none" stroke="black"/>
<path d="M33.3819,192.474h 217.701" fill="none" stroke="black"/>
<path d="M33.3819,187.399v 5.07511" fill="none" stroke="black"/>
<path d="M41.1569,189.937v 2.53755" fill="none" stroke="black"/>
<path d="M48.9319,189.937v 2.53755" fill="none" stroke="black"/>
<path d="M56.707,189.937v 2.53755" fill="none" stroke="black"/>
<path d="M64.482,187.399v 5.07511" fill="none" stroke="black"/>
<path d="M72.257,189.937v 2.53755" fill="none" stroke="black"/>
<path d="M80.0321,189.937v 2.53755" fill="none" stroke="black"/>
<path d="M87.8071,189.937v 2.53755" fill="none" stroke="black"/>
<path d="M95.5821,187.399v 5.07511" fill="none" stroke="black"/>
<path d="M103.357,189.937v 2.53755" fill="none" stroke="black"/>
<path d="M111.132,189.937v 2.53755" fill="none" stroke="black"/>
<path d="M118.907,189.937v 2.53755" fill="none" stroke="black"/>
<path d="M126.682,187.399v 5.07511" fill="none" stroke="black"/>
<path d="M134.457,189.937v 2.53755" fill="none" stroke="black"/>
<path d="M142.232,189.937v 2.53755" fill="none" stroke="black"/>
<path d="M150.007,189.937v 2.53755" fill="none" stroke="black"/>
<path d="M157.782,187.399v 5.07511" fill="none" stroke="black"/>
<path d="M165.557,189.937v 2.53755" fill="none" stroke="black"/>
<path d="M173.332,189.937v 2.53755" fill="none" stroke="black"/>
<path d="M181.107,189.937v 2.53755" fill="none" stroke="black"/>
<path d="M188.882,187.399v 5.07511" fill="none" stroke="black"/>
<path d="M196.657,189.937v 2.53755" fill="none" stroke="black"/>
<path d="M204.433,189.937v 2.53755" fill="none" stroke="black"/>
<path d="M212.208,189.937v 2.53755" fill="none" stroke="black"/>
<path d="M219.983,187.399v 5.07511" fill="none" stroke="black"/>
<path d="M227.758,189.937v 2.53755" fill="none" stroke="black"/>
<path d="M235.533,189.937v 2.53755" fill="none" stroke="black"/>
<path d="M243.308,189.937v 2.53755" fill="none" stroke="black"/>
<path d="M251.083,187.399v 5.07511" fill="none" stroke="black"/>
<text xml:space="preserve" x="25.4849" y="199.425" fill="black" font-size="7.29009" font-family="Helvetica">1600</text>
<text xml:space="preserve" x="56.3752" y="199.425" fill="black" font-size="7.29009" font-family="Helvetica">1800</text>
<text xml:space="preserve" x="87.7199" y="199.425" fill="black" font-size="7.29009" font-family="Helvetica">2000</text>
<text xml:space="preserve" x="118.61" y="199.425" fill="black" font-size="7.29009" font-family="Helvetica">2200</text>
<text xml:space="preserve" x="149.955" y="199.425" fill="black" font-size="7.29009" font-family="Helvetica">2400</text>
<text xml:space="preserve" x="180.845" y="199.425" fill="black" font-size="7.29009" font-family="Helvetica">2600</text>
<text xml:space="preserve" x="212.19" y="199.425" fill="black" font-size="7.29009" font-family="Helvetica">2800</text>
<text xml:space="preserve" x="243.08" y="199.425" fill="black" font-size="7.29009" font-family="Helvetica">3000</text>
<text xml:space="preserve" x="175.394" y="205.784" fill="black" font-size="7.29009" font-family="Helvetica">Barrel hit x position (mm)</text>
<path d="M33.3819,192.474v -169.17" fill="none" stroke="black"/>
<path d="M39.9129,187.329h -6.53102" fill="none" stroke="black"/>
<path d="M36.6474,183.535h -3.26551" fill="none" stroke="black"/>
<path d="M36.6474,179.74h -3.26551" fill="none" stroke="black"/>
<path d="M36.6474,175.945h -3.26551" fill="none" stroke="black"/>
<path d="M39.9129,172.15h -6.53102" fill="none" stroke="black"/>
<path d="M36.6474,168.355h -3.26551" fill="none" stroke="black"/>
<path d="M36.6474,164.561h -3.26551" fill="none" stroke="black"/>
<path d="M36.6474,160.766h -3.26551" fill="none" stroke="black"/>
<path d="M39.9129,156.971h -6.53102" fill="none" stroke="black"/>
<path d="M36.6474,153.176h -3.26551" fill="none" stroke="black"/>
<path d="M36.6474,149.381h -3.26551" fill="none" stroke="black"/>
<path d="M36.6474,145.587h -3.26551" fill="none" stroke="black"/>
<path d="M39.9129,141.792h -6.53102" fill="none" stroke="black"/>
<path d="M36.6474,137.997h -3.26551" fill="none" stroke="black"/>
<path d="M36.6474,134.202h -3.26551" fill="none" stroke="black"/>
<path d="M36.6474,130.407h -3.26551" fill="none" stroke="black"/>
<path d="M39.9129,126.613h -6.53102" fill="none" stroke="black"/>
<path d="M36.6474,122.818h -3.26551" fill="none" stroke="black"/>
<path d="M36.6474,119.023h -3.26551" fill="none" stroke="black"/>
<path d="M36.6474,115.228h -3.26551" fill="none" stroke="black"/>
<path d="M39.9129,111.433h -6.53102" fill="none" stroke="black"/>
<path d="M36.6474,107.639h -3.26551" fill="none" stroke="black"/>
<path d="M36.6474,103.844h -3.26551" fill="none" stroke="black"/>
<path d="M36.6474,100.049h -3.26551" fill="none" stroke="black"/>
<path d="M39.9129,96.2543h -6.53102" fill="none" stroke="black"/>
<path d="M36.6474,92.4595h -3.26551" fill="none" stroke="black"/>
<path d="M36.6474,88.6647h -3.26551" fill="none" stroke="black"/>
<path d="M36.6474,84.8699h -3.26551" fill="none" stroke="black"/>
<path d="M39.9129,81.0751h -6.53102" fill="none" stroke="black"/>
<path d="M36.6474,77.2803h -3.26551" fill="none" stroke="black"/>
<path d="M36.6474,73.4855h -3.26551" fill="none" stroke="black"/>
<path d="M36.6474,69.6907h -3.26551" fill="none" stroke="black"/>
<path d="M39.9129,65.8959h -6.53102" fill="none" stroke="black"/>
<path d="M36.6474,62.1011h -3.26551" fill="none" stroke="black"/>
<path d="M36.6474,58.3064h -3.26551" fill="none" stroke="black"/>
<path d="M36.6474,54.5116h -3.26551" fill="none" stroke="black"/>
<path d="M39.9129,50.7168h -6.53102" fill="none" stroke="black"/>
<path d="M36.6474,46.922h -3.26551" fill="none" stroke="black"/>
<path d="M36.6474,43.1272h -3.26551" fill="none" stroke="black"/>
<path d="M36.6474,39.3324h -3.26551" fill="none" stroke="black"/>
<path d="M39.9129,35.5376h -6.53102" fill="none" stroke="black"/>
<path d="M39.9129,187.329h -6.53102" fill="none" stroke="black"/>
<path d="M36.6474,191.124h -3.26551" fill="none" stroke="black"/>
<path d="M39.9129,35.5376h -6.53102" fill="none" stroke="black"/>
<path d="M36.6474,31.7428h -3.26551" fill="none" stroke="black"/>
<path d="M36.6474,27.948h -3.26551" fill="none" stroke="black"/>
<path d="M36.6474,24.1532h -3.26551" fill="none" stroke="black"/>
<text xml:space="preserve" x="24.5763" y="189.885" fill="black" font-size="7.29009" font-family="Helvetica">20</text>
<text xml:space="preserve" x="24.5763" y="174.44" fill="black" font-size="7.29009" font-family="Helvetica">40</text>
<text xml:space="preserve" x="24.5763" y="159.449" fill="black" font-size="7.29009" font-family="Helvetica">60</text>
<text xml:space="preserve" x="24.5763" y="144.458" fill="black" font-size="7.29009" font-family="Helvetica">80</text>
<text xml:space="preserve" x="20.4879" y="129.013" fill="black" font-size="7.29009" font-family="Helvetica">100</text>
<text xml:space="preserve" x="20.4879" y="114.022" fill="black" font-size="7.29009" font-family="Helvetica">120</text>
<text xml:space="preserve" x="20.4879" y="98.5766" fill="black" font-size="7.29009" font-family="Helvetica">140</text>
<text xml:space="preserve" x="20.4879" y="83.5857" fill="black" font-size="7.29009" font-family="Helvetica">160</text>
<text xml:space="preserve" x="20.4879" y="68.5948" fill="black" font-size="7.29009" font-family="Helvetica">180</text>
<text xml:space="preserve" x="20.4879" y="53.1496" fill="black" font-size="7.29009" font-family="Helvetica">200</text>
<text xml:space="preserve" x="20.4879" y="38.1587" fill="black" font-size="7.29009" font-family="Helvetica">220</text>
<g transform="rotate(-90,14.1281,77.2259)">
<text xml:space="preserve" x="14.1281" y="77.2259" fill="black" font-size="7.29009" font-family="Helvetica"># of hits per event</text>
</g>
<g fill="#0000ff">
<circle cx="69.2714" cy="118.158" r="1.09025"/>
<circle cx="70.9197" cy="113.172" r="1.09025"/>
<circle cx="81.1983" cy="113.763" r="1.09025"/>
<circle cx="82.8466" cy="108.086" r="1.09025"/>
<circle cx="93.1252" cy="107.889" r="1.09025"/>
<circle cx="94.7735" cy="113.346" r="1.09025"/>
<circle cx="105.052" cy="111.737" r="1.09025"/>
<circle cx="106.7" cy="115.539" r="1.09025"/>
<circle cx="116.979" cy="114.424" r="1.09025"/>
<circle cx="118.627" cy="108.625" r="1.09025"/>
<circle cx="128.906" cy="117.444" r="1.09025"/>
<circle cx="130.554" cy="114.553" r="1.09025"/>
<circle cx="140.833" cy="124.875" r="1.09025"/>
<circle cx="142.481" cy="121.444" r="1.09025"/>
<circle cx="152.76" cy="131.72" r="1.09025"/>
<circle cx="154.408" cy="122.287" r="1.09025"/>
<circle cx="164.687" cy="131.546" r="1.09025"/>
<circle cx="166.335" cy="129.58" r="1.09025"/>
<circle cx="176.613" cy="134.764" r="1.09025"/>
<circle cx="178.262" cy="133.178" r="1.09025"/>
<circle cx="188.54" cy="134.847" r="1.09025"/>
<circle cx="190.189" cy="134.855" r="1.09025"/>
<circle cx="200.467" cy="133.633" r="1.09025"/>
<circle cx="202.116" cy="128.381" r="1.09025"/>
<circle cx="212.394" cy="133.565" r="1.09025"/>
<circle cx="214.042" cy="130.415" r="1.09025"/>
<circle cx="224.321" cy="137.731" r="1.09025"/>
<circle cx="225.969" cy="136.297" r="1.09025"/>
</g>
<path d="M69.2714,117.249v -24.9445" fill="none" stroke="black"/>
<path d="M69.2714,119.066v 24.9445" fill="none" stroke="black"/>
<path d="M68.3629,92.3049h 1.81708" fill="none" stroke="black"/>
<path d="M68.3629,144.011h 1.81708" fill="none" stroke="black"/>
<path d="M70.9197,112.263v -30.3468" fill="none" stroke="black"/>
<path d="M70.9197,114.08v 30.3468" fill="none" stroke="black"/>
<path d="M70.0112,81.9162h 1.81708" fill="none" stroke="black"/>
<path d="M70.0112,144.427h 1.81708" fill="none" stroke="black"/>
<path d="M81.1983,112.855v -32.9588" fill="none" stroke="black"/>
<path d="M81.1983,114.672v 32.9588" fill="none" stroke="black"/>
<path d="M80.2898,79.8962h 1.81708" fill="none" stroke="black"/>
<path d="M80.2898,147.631h 1.81708" fill="none" stroke="black"/>
<path d="M82.8466,107.178v -44.0165" fill="none" stroke="black"/>
<path d="M82.8466,108.995v 44.0165" fill="none" stroke="black"/>
<path d="M81.9381,63.1615h 1.81708" fill="none" stroke="black"/>
<path d="M81.9381,153.012h 1.81708" fill="none" stroke="black"/>
<path d="M93.1252,106.981v -69.579" fill="none" stroke="black"/>
<path d="M93.1252,108.798v 69.579" fill="none" stroke="black"/>
<path d="M92.2167,37.4016h 1.81708" fill="none" stroke="black"/>
<path d="M92.2167,178.377h 1.81708" fill="none" stroke="black"/>
<path d="M94.7735,112.438v -52.5182" fill="none" stroke="black"/>
<path d="M94.7735,114.255v 52.5182" fill="none" stroke="black"/>
<path d="M93.865,59.9193h 1.81708" fill="none" stroke="black"/>
<path d="M93.865,166.773h 1.81708" fill="none" stroke="black"/>
<path d="M105.052,110.829v -62.3055" fill="none" stroke="black"/>
<path d="M105.052,112.646v 62.3055" fill="none" stroke="black"/>
<path d="M104.144,48.523h 1.81708" fill="none" stroke="black"/>
<path d="M104.144,174.951h 1.81708" fill="none" stroke="black"/>
<path d="M106.7,114.631v -38.4337" fill="none" stroke="black"/>
<path d="M106.7,116.448v 38.4337" fill="none" stroke="black"/>
<path d="M105.792,76.1972h 1.81708" fill="none" stroke="black"/>
<path d="M105.792,154.882h 1.81708" fill="none" stroke="black"/>
<path d="M116.979,113.515v -48.2162" fill="none" stroke="black"/>
<path d="M116.979,115.332v 48.2162" fill="none" stroke="black"/>
<path d="M116.07,65.299h 1.81708" fill="none" stroke="black"/>
<path d="M116.07,163.549h 1.81708" fill="none" stroke="black"/>
<path d="M118.627,107.717v -64.681" fill="none" stroke="black"/>
<path d="M118.627,109.534v 64.681" fill="none" stroke="black"/>
<path d="M117.719,43.0358h 1.81708" fill="none" stroke="black"/>
<path d="M117.719,174.215h 1.81708" fill="none" stroke="black"/>
<path d="M128.906,116.536v -45.5335" fill="none" stroke="black"/>
<path d="M128.906,118.353v 45.5335" fill="none" stroke="black"/>
<path d="M127.997,71.0024h 1.81708" fill="none" stroke="black"/>
<path d="M127.997,163.887h 1.81708" fill="none" stroke="black"/>
<path d="M130.554,113.644v -47.3905" fill="none" stroke="black"/>
<path d="M130.554,115.461v 47.3905" fill="none" stroke="black"/>
<path d="M129.646,66.2538h 1.81708" fill="none" stroke="black"/>
<path d="M129.646,162.852h 1.81708" fill="none" stroke="black"/>
<path d="M140.833,123.966v -37.5843" fill="none" stroke="black"/>
<path d="M140.833,125.783v 37.5843" fill="none" stroke="black"/>
<path d="M139.924,86.3818h 1.81708" fill="none" stroke="black"/>
<path d="M139.924,163.367h 1.81708" fill="none" stroke="black"/>
<path d="M142.481,120.536v -45.689" fill="none" stroke="black"/>
<path d="M142.481,122.353v 45.689" fill="none" stroke="black"/>
<path d="M141.573,74.8466h 1.81708" fill="none" stroke="black"/>
<path d="M141.573,168.042h 1.81708" fill="none" stroke="black"/>
<path d="M152.76,130.812v -20.167" fill="none" stroke="black"/>
<path d="M152.76,132.629v 20.167" fill="none" stroke="black"/>
<path d="M151.851,110.645h 1.81708" fill="none" stroke="black"/>
<path d="M151.851,152.796h 1.81708" fill="none" stroke="black"/>
<path d="M154.408,121.378v -32.1872" fill="none" stroke="black"/>
<path d="M154.408,123.195v 32.1872" fill="none" stroke="black"/>
<path d="M153.499,89.1909h 1.81708" fill="none" stroke="black"/>
<path d="M153.499,155.382h 1.81708" fill="none" stroke="black"/>
<path d="M164.687,130.637v -25.3423" fill="none" stroke="black"/>
<path d="M164.687,132.454v 25.3423" fill="none" stroke="black"/>
<path d="M163.778,105.295h 1.81708" fill="none" stroke="black"/>
<path d="M163.778,157.797h 1.81708" fill="none" stroke="black"/>
<path d="M166.335,128.672v -31.8885" fill="none" stroke="black"/>
<path d="M166.335,130.489v 31.8885" fill="none" stroke="black"/>
<path d="M165.426,96.7831h 1.81708" fill="none" stroke="black"/>
<path d="M165.426,162.377h 1.81708" fill="none" stroke="black"/>
<path d="M176.613,133.855v -18.8791" fill="none" stroke="black"/>
<path d="M176.613,135.672v 18.8791" fill="none" stroke="black"/>
<path d="M175.705,114.976h 1.81708" fill="none" stroke="black"/>
<path d="M175.705,154.552h 1.81708" fill="none" stroke="black"/>
<path d="M178.262,132.269v -22.3157" fill="none" stroke="black"/>
<path d="M178.262,134.086v 22.3157" fill="none" stroke="black"/>
<path d="M177.353,109.953h 1.81708" fill="none" stroke="black"/>
<path d="M177.353,156.402h 1.81708" fill="none" stroke="black"/>
<path d="M188.54,133.939v -29.6343" fill="none" stroke="black"/>
<path d="M188.54,135.756v 29.6343" fill="none" stroke="black"/>
<path d="M187.632,104.305h 1.81708" fill="none" stroke="black"/>
<path d="M187.632,165.39h 1.81708" fill="none" stroke="black"/>
<path d="M190.189,133.946v -34.744" fill="none" stroke="black"/>
<path d="M190.189,135.764v 34.744" fill="none" stroke="black"/>
<path d="M189.28,99.2025h 1.81708" fill="none" stroke="black"/>
<path d="M189.28,170.507h 1.81708" fill="none" stroke="black"/>
<path d="M200.467,132.725v -34.1894" fill="none" stroke="black"/>
<path d="M200.467,134.542v 34.1894" fill="none" stroke="black"/>
<path d="M199.559,98.5351h 1.81708" fill="none" stroke="black"/>
<path d="M199.559,168.731h 1.81708" fill="none" stroke="black"/>
<path d="M202.116,127.473v -35.5997" fill="none" stroke="black"/>
<path d="M202.116,129.29v 35.5997" fill="none" stroke="black"/>
<path d="M201.207,91.8728h 1.81708" fill="none" stroke="black"/>
<path d="M201.207,164.889h 1.81708" fill="none" stroke="black"/>
<path d="M212.394,132.656v -42.8291" fill="none" stroke="black"/>
<path d="M212.394,134.473v 42.8291" fill="none" stroke="black"/>
<path d="M211.486,89.8271h 1.81708" fill="none" stroke="black"/>
<path d="M211.486,177.302h 1.81708" fill="none" stroke="black"/>
<path d="M214.042,129.507v -41.8782" fill="none" stroke="black"/>
<path d="M214.042,131.324v 41.8782" fill="none" stroke="black"/>
<path d="M213.134,87.6283h 1.81708" fill="none" stroke="black"/>
<path d="M213.134,173.202h 1.81708" fill="none" stroke="black"/>
<path d="M224.321,136.823v -30.5846" fill="none" stroke="black"/>
<path d="M224.321,138.64v 30.5846" fill="none" stroke="black"/>
<path d="M223.412,106.238h 1.81708" fill="none" stroke="black"/>
<path d="M223.412,169.225h 1.81708" fill="none" stroke="black"/>
<path d="M225.969,135.388v -38.5865" fill="none" stroke="black"/>
<path d="M225.969,137.206v 38.5865" fill="none" stroke="black"/>
<path d="M225.061,96.8019h 1.81708" fill="none" stroke="black"/>
<path d="M225.061,175.792h 1.81708" fill="none" stroke="black"/>
<text xml:space="preserve" x="52.2868" y="10.9025" fill="black" font-size="4.39305" font-family="Helvetica">No scint | avg # of hits in each layer 100 events (5GeV mu- gun) | total: 2917.659912+/-451.619995</text>
<rect x="289.634" y="2.15778" width="272.126" height="211.463" fill="white"/>
<rect x="316.846" y="23.3041" width="217.701" height="169.17" fill="white"/>
<rect x="316.846" y="23.3041" width="217.701" height="169.17" fill="none" stroke="black"/>
<rect x="316.846" y="23.3041" width="217.701" height="169.17" fill="white"/>
<rect x="316.846" y="23.3041" width="217.701" height="169.17" fill="none" stroke="black"/>
<path d="M316.846,192.474h 217.701" fill="none" stroke="black"/>
<path d="M316.846,187.399v 5.07511" fill="none" stroke="black"/>
<path d="M324.621,189.937v 2.53755" fill="none" stroke="black"/>
<path d="M332.397,189.937v 2.53755" fill="none" stroke="black"/>
<path d="M340.172,189.937v 2.53755" fill="none" stroke="black"/>
<path d="M347.947,187.399v 5.07511" fill="none" stroke="black"/>
<path d="M355.722,189.937v 2.53755" fill="none" stroke="black"/>
<path d="M363.497,189.937v 2.53755" fill="none" stroke="black"/>
<path d="M371.272,189.937v 2.53755" fill="none" stroke="black"/>
<path d="M379.047,187.399v 5.07511" fill="none" stroke="black"/>
<path d="M386.822,189.937v 2.53755" fill="none" stroke="black"/>
<path d="M394.597,189.937v 2.53755" fill="none" stroke="black"/>
<path d="M402.372,189.937v 2.53755" fill="none" stroke="black"/>
<path d="M410.147,187.399v 5.07511" fill="none" stroke="black"/>
<path d="M417.922,189.937v 2.53755" fill="none" stroke="black"/>
<path d="M425.697,189.937v 2.53755" fill="none" stroke="black"/>
<path d="M433.472,189.937v 2.53755" fill="none" stroke="black"/>
<path d="M441.247,187.399v 5.07511" fill="none" stroke="black"/>
<path d="M449.022,189.937v 2.53755" fill="none" stroke="black"/>
<path d="M456.797,189.937v 2.53755" fill="none" stroke="black"/>
<path d="M464.572,189.937v 2.53755" fill="none" stroke="black"/>
<path d="M472.347,187.399v 5.07511" fill="none" stroke="black"/>
<path d="M480.122,189.937v 2.53755" fill="none" stroke="black"/>
<path d="M487.897,189.937v 2.53755" fill="none" stroke="black"/>
<path d="M495.672,189.937v 2.53755" fill="none" stroke="black"/>
<path d="M503.447,187.399v 5.07511" fill="none" stroke="black"/>
<path d="M511.222,189.937v 2.53755" fill="none" stroke="black"/>
<path d="M518.997,189.937v 2.53755" fill="none" stroke="black"/>
<path d="M526.772,189.937v 2.53755" fill="none" stroke="black"/>
<path d="M534.547,187.399v 5.07511" fill="none" stroke="black"/>
<text xml:space="preserve" x="308.949" y="199.425" fill="black" font-size="7.29009" font-family="Helvetica">1600</text>
<text xml:space="preserve" x="339.84" y="199.425" fill="black" font-size="7.29009" font-family="Helvetica">1800</text>
<text xml:space="preserve" x="371.184" y="199.425" fill="black" font-size="7.29009" font-family="Helvetica">2000</text>
<text xml:space="preserve" x="402.075" y="199.425" fill="black" font-size="7.29009" font-family="Helvetica">2200</text>
<text xml:space="preserve" x="433.419" y="199.425" fill="black" font-size="7.29009" font-family="Helvetica">2400</text>
<text xml:space="preserve" x="464.31" y="199.425" fill="black" font-size="7.29009" font-family="Helvetica">2600</text>
<text xml:space="preserve" x="495.654" y="199.425" fill="black" font-size="7.29009" font-family="Helvetica">2800</text>
<text xml:space="preserve" x="526.545" y="199.425" fill="black" font-size="7.29009" font-family="Helvetica">3000</text>
<text xml:space="preserve" x="467.49" y="205.784" fill="black" font-size="7.29009" font-family="Helvetica">vertex x position (mm)</text>
<path d="M316.846,192.474v -169.17" fill="none" stroke="black"/>
<path d="M323.377,185.694h -6.53102" fill="none" stroke="black"/>
<path d="M320.112,181.121h -3.26551" fill="none" stroke="black"/>
<path d="M320.112,176.547h -3.26551" fill="none" stroke="black"/>
<path d="M320.112,171.974h -3.26551" fill="none" stroke="black"/>
<path d="M320.112,167.401h -3.26551" fill="none" stroke="black"/>
<path d="M323.377,162.827h -6.53102" fill="none" stroke="black"/>
<path d="M320.112,158.254h -3.26551" fill="none" stroke="black"/>
<path d="M320.112,153.68h -3.26551" fill="none" stroke="black"/>
<path d="M320.112,149.107h -3.26551" fill="none" stroke="black"/>
<path d="M320.112,144.534h -3.26551" fill="none" stroke="black"/>
<path d="M323.377,139.96h -6.53102" fill="none" stroke="black"/>
<path d="M320.112,135.387h -3.26551" fill="none" stroke="black"/>
<path d="M320.112,130.813h -3.26551" fill="none" stroke="black"/>
<path d="M320.112,126.24h -3.26551" fill="none" stroke="black"/>
<path d="M320.112,121.667h -3.26551" fill="none" stroke="black"/>
<path d="M323.377,117.093h -6.53102" fill="none" stroke="black"/>
<path d="M320.112,112.52h -3.26551" fill="none" stroke="black"/>
<path d="M320.112,107.946h -3.26551" fill="none" stroke="black"/>
<path d="M320.112,103.373h -3.26551" fill="none" stroke="black"/>
<path d="M320.112,98.7995h -3.26551" fill="none" stroke="black"/>
<path d="M323.377,94.2261h -6.53102" fill="none" stroke="black"/>
<path d="M320.112,89.6527h -3.26551" fill="none" stroke="black"/>
<path d="M320.112,85.0793h -3.26551" fill="none" stroke="black"/>
<path d="M320.112,80.5059h -3.26551" fill="none" stroke="black"/>
<path d="M320.112,75.9325h -3.26551" fill="none" stroke="black"/>
<path d="M323.377,71.3591h -6.53102" fill="none" stroke="black"/>
<path d="M320.112,66.7857h -3.26551" fill="none" stroke="black"/>
<path d="M320.112,62.2123h -3.26551" fill="none" stroke="black"/>
<path d="M320.112,57.6389h -3.26551" fill="none" stroke="black"/>
<path d="M320.112,53.0655h -3.26551" fill="none" stroke="black"/>
<path d="M323.377,48.4921h -6.53102" fill="none" stroke="black"/>
<path d="M320.112,43.9187h -3.26551" fill="none" stroke="black"/>
<path d="M320.112,39.3452h -3.26551" fill="none" stroke="black"/>
<path d="M320.112,34.7718h -3.26551" fill="none" stroke="black"/>
<path d="M320.112,30.1984h -3.26551" fill="none" stroke="black"/>
<path d="M323.377,25.625h -6.53102" fill="none" stroke="black"/>
<path d="M323.377,185.694h -6.53102" fill="none" stroke="black"/>
<path d="M320.112,190.268h -3.26551" fill="none" stroke="black"/>
<path d="M323.377,25.625h -6.53102" fill="none" stroke="black"/>
<text xml:space="preserve" x="303.952" y="188.068" fill="black" font-size="7.29009" font-family="Helvetica">600</text>
<text xml:space="preserve" x="303.952" y="165.354" fill="black" font-size="7.29009" font-family="Helvetica">700</text>
<text xml:space="preserve" x="303.952" y="142.641" fill="black" font-size="7.29009" font-family="Helvetica">800</text>
<text xml:space="preserve" x="303.952" y="119.473" fill="black" font-size="7.29009" font-family="Helvetica">900</text>
<text xml:space="preserve" x="300.318" y="96.7595" fill="black" font-size="7.29009" font-family="Helvetica">1000</text>
<text xml:space="preserve" x="300.318" y="74.046" fill="black" font-size="7.29009" font-family="Helvetica">1100</text>
<text xml:space="preserve" x="300.318" y="50.8783" fill="black" font-size="7.29009" font-family="Helvetica">1200</text>
<text xml:space="preserve" x="300.318" y="28.1647" fill="black" font-size="7.29009" font-family="Helvetica">1300</text>
<g transform="rotate(-90,294.413,158.54)">
<text xml:space="preserve" x="294.413" y="158.54" fill="black" font-size="7.29009" font-family="Helvetica"># of optical photons in MCParticles per event</text>
</g>
<g fill="#ff0000">
<circle cx="352.736" cy="144.072" r="1.09025"/>
<circle cx="354.384" cy="130.841" r="1.09025"/>
<circle cx="364.663" cy="120.027" r="1.09025"/>
<circle cx="366.311" cy="114.523" r="1.09025"/>
<circle cx="376.59" cy="103" r="1.09025"/>
<circle cx="378.238" cy="120.798" r="1.09025"/>
<circle cx="388.517" cy="117.653" r="1.09025"/>
<circle cx="390.165" cy="120.825" r="1.09025"/>
<circle cx="400.444" cy="104.23" r="1.09025"/>
<circle cx="402.092" cy="103.99" r="1.09025"/>
<circle cx="412.37" cy="112.588" r="1.09025"/>
<circle cx="414.019" cy="107.498" r="1.09025"/>
<circle cx="424.297" cy="131.353" r="1.09025"/>
<circle cx="425.946" cy="120.551" r="1.09025"/>
<circle cx="436.224" cy="137.898" r="1.09025"/>
<circle cx="437.873" cy="108.17" r="1.09025"/>
<circle cx="448.151" cy="125.787" r="1.09025"/>
<circle cx="449.799" cy="119.492" r="1.09025"/>
<circle cx="460.078" cy="129.606" r="1.09025"/>
<circle cx="461.726" cy="129.155" r="1.09025"/>
<circle cx="472.005" cy="129.064" r="1.09025"/>
<circle cx="473.653" cy="132.133" r="1.09025"/>
<circle cx="483.932" cy="125.837" r="1.09025"/>
<circle cx="485.58" cy="107.939" r="1.09025"/>
<circle cx="495.859" cy="121.982" r="1.09025"/>
<circle cx="497.507" cy="106.604" r="1.09025"/>
<circle cx="507.786" cy="119.876" r="1.09025"/>
<circle cx="509.434" cy="123.331" r="1.09025"/>
</g>
<path d="M352.736,143.163v -18.7617" fill="none" stroke="black"/>
<path d="M352.736,144.98v 18.7617" fill="none" stroke="black"/>
<path d="M351.827,124.401h 1.81708" fill="none" stroke="black"/>
<path d="M351.827,163.742h 1.81708" fill="none" stroke="black"/>
<path d="M354.384,129.932v -31.0778" fill="none" stroke="black"/>
<path d="M354.384,131.749v 31.0778" fill="none" stroke="black"/>
<path d="M353.476,98.8544h 1.81708" fill="none" stroke="black"/>
<path d="M353.476,162.827h 1.81708" fill="none" stroke="black"/>
<path d="M364.663,119.118v -37.3182" fill="none" stroke="black"/>
<path d="M364.663,120.935v 37.3182" fill="none" stroke="black"/>
<path d="M363.754,81.8002h 1.81708" fill="none" stroke="black"/>
<path d="M363.754,158.254h 1.81708" fill="none" stroke="black"/>
<path d="M366.311,113.614v -48.3104" fill="none" stroke="black"/>
<path d="M366.311,115.431v 48.3104" fill="none" stroke="black"/>
<path d="M365.403,65.3039h 1.81708" fill="none" stroke="black"/>
<path d="M365.403,163.742h 1.81708" fill="none" stroke="black"/>
<path d="M376.59,102.092v -45.6556" fill="none" stroke="black"/>
<path d="M376.59,103.909v 45.6556" fill="none" stroke="black"/>
<path d="M375.681,56.436h 1.81708" fill="none" stroke="black"/>
<path d="M375.681,149.564h 1.81708" fill="none" stroke="black"/>
<path d="M378.238,119.889v -41.8071" fill="none" stroke="black"/>
<path d="M378.238,121.706v 41.8071" fill="none" stroke="black"/>
<path d="M377.33,78.082h 1.81708" fill="none" stroke="black"/>
<path d="M377.33,163.513h 1.81708" fill="none" stroke="black"/>
<path d="M388.517,116.745v -41.0639" fill="none" stroke="black"/>
<path d="M388.517,118.562v 41.0639" fill="none" stroke="black"/>
<path d="M387.608,75.681h 1.81708" fill="none" stroke="black"/>
<path d="M387.608,159.626h 1.81708" fill="none" stroke="black"/>
<path d="M390.165,119.916v -56.6432" fill="none" stroke="black"/>
<path d="M390.165,121.734v 56.6432" fill="none" stroke="black"/>
<path d="M389.256,63.2733h 1.81708" fill="none" stroke="black"/>
<path d="M389.256,178.377h 1.81708" fill="none" stroke="black"/>
<path d="M400.444,103.322v -65.9203" fill="none" stroke="black"/>
<path d="M400.444,105.139v 65.9203" fill="none" stroke="black"/>
<path d="M399.535,37.4016h 1.81708" fill="none" stroke="black"/>
<path d="M399.535,171.059h 1.81708" fill="none" stroke="black"/>
<path d="M402.092,103.082v -55.4129" fill="none" stroke="black"/>
<path d="M402.092,104.899v 55.4129" fill="none" stroke="black"/>
<path d="M401.183,47.6689h 1.81708" fill="none" stroke="black"/>
<path d="M401.183,160.312h 1.81708" fill="none" stroke="black"/>
<path d="M412.37,111.68v -47.7296" fill="none" stroke="black"/>
<path d="M412.37,113.497v 47.7296" fill="none" stroke="black"/>
<path d="M411.462,63.9502h 1.81708" fill="none" stroke="black"/>
<path d="M411.462,161.226h 1.81708" fill="none" stroke="black"/>
<path d="M414.019,106.59v -17.3942" fill="none" stroke="black"/>
<path d="M414.019,108.407v 17.3942" fill="none" stroke="black"/>
<path d="M413.11,89.1954h 1.81708" fill="none" stroke="black"/>
<path d="M413.11,125.801h 1.81708" fill="none" stroke="black"/>
<path d="M424.297,130.444v -30.5656" fill="none" stroke="black"/>
<path d="M424.297,132.262v 30.5656" fill="none" stroke="black"/>
<path d="M423.389,99.8788h 1.81708" fill="none" stroke="black"/>
<path d="M423.389,162.827h 1.81708" fill="none" stroke="black"/>
<path d="M425.946,119.642v -50.5148" fill="none" stroke="black"/>
<path d="M425.946,121.459v 50.5148" fill="none" stroke="black"/>
<path d="M425.037,69.1273h 1.81708" fill="none" stroke="black"/>
<path d="M425.037,171.974h 1.81708" fill="none" stroke="black"/>
<path d="M436.224,136.989v -38.8847" fill="none" stroke="black"/>
<path d="M436.224,138.806v 38.8847" fill="none" stroke="black"/>
<path d="M435.316,98.1043h 1.81708" fill="none" stroke="black"/>
<path d="M435.316,177.691h 1.81708" fill="none" stroke="black"/>
<path d="M437.873,107.262v -51.6902" fill="none" stroke="black"/>
<path d="M437.873,109.079v 51.6902" fill="none" stroke="black"/>
<path d="M436.964,55.5717h 1.81708" fill="none" stroke="black"/>
<path d="M436.964,160.769h 1.81708" fill="none" stroke="black"/>
<path d="M448.151,124.879v -41.1622" fill="none" stroke="black"/>
<path d="M448.151,126.696v 41.1622" fill="none" stroke="black"/>
<path d="M447.243,83.7164h 1.81708" fill="none" stroke="black"/>
<path d="M447.243,167.858h 1.81708" fill="none" stroke="black"/>
<path d="M449.799,118.583v -41.5121" fill="none" stroke="black"/>
<path d="M449.799,120.4v 41.5121" fill="none" stroke="black"/>
<path d="M448.891,77.0712h 1.81708" fill="none" stroke="black"/>
<path d="M448.891,161.912h 1.81708" fill="none" stroke="black"/>
<path d="M460.078,128.697v -25.9099" fill="none" stroke="black"/>
<path d="M460.078,130.514v 25.9099" fill="none" stroke="black"/>
<path d="M459.169,102.787h 1.81708" fill="none" stroke="black"/>
<path d="M459.169,156.424h 1.81708" fill="none" stroke="black"/>
<path d="M461.726,128.247v -39.6232" fill="none" stroke="black"/>
<path d="M461.726,130.064v 39.6232" fill="none" stroke="black"/>
<path d="M460.818,88.6237h 1.81708" fill="none" stroke="black"/>
<path d="M460.818,169.687h 1.81708" fill="none" stroke="black"/>
<path d="M472.005,128.155v -45.8888" fill="none" stroke="black"/>
<path d="M472.005,129.973v 45.8888" fill="none" stroke="black"/>
<path d="M471.096,82.2666h 1.81708" fill="none" stroke="black"/>
<path d="M471.096,175.861h 1.81708" fill="none" stroke="black"/>
<path d="M473.653,131.224v -30.9292" fill="none" stroke="black"/>
<path d="M473.653,133.041v 30.9292" fill="none" stroke="black"/>
<path d="M472.745,100.295h 1.81708" fill="none" stroke="black"/>
<path d="M472.745,163.971h 1.81708" fill="none" stroke="black"/>
<path d="M483.932,124.929v -36.9958" fill="none" stroke="black"/>
<path d="M483.932,126.746v 36.9958" fill="none" stroke="black"/>
<path d="M483.023,87.9331h 1.81708" fill="none" stroke="black"/>
<path d="M483.023,163.742h 1.81708" fill="none" stroke="black"/>
<path d="M485.58,107.031v -47.3477" fill="none" stroke="black"/>
<path d="M485.58,108.848v 47.3477" fill="none" stroke="black"/>
<path d="M484.672,59.6832h 1.81708" fill="none" stroke="black"/>
<path d="M484.672,156.196h 1.81708" fill="none" stroke="black"/>
<path d="M495.859,121.074v -44.2813" fill="none" stroke="black"/>
<path d="M495.859,122.891v 44.2813" fill="none" stroke="black"/>
<path d="M494.95,76.7923h 1.81708" fill="none" stroke="black"/>
<path d="M494.95,167.172h 1.81708" fill="none" stroke="black"/>
<path d="M497.507,105.695v -47.9971" fill="none" stroke="black"/>
<path d="M497.507,107.513v 47.9971" fill="none" stroke="black"/>
<path d="M496.598,57.6983h 1.81708" fill="none" stroke="black"/>
<path d="M496.598,155.51h 1.81708" fill="none" stroke="black"/>
<path d="M507.786,118.967v -42.4999" fill="none" stroke="black"/>
<path d="M507.786,120.785v 42.4999" fill="none" stroke="black"/>
<path d="M506.877,76.4676h 1.81708" fill="none" stroke="black"/>
<path d="M506.877,163.284h 1.81708" fill="none" stroke="black"/>
<path d="M509.434,122.423v -33.328" fill="none" stroke="black"/>
<path d="M509.434,124.24v 33.328" fill="none" stroke="black"/>
<path d="M508.525,89.0947h 1.81708" fill="none" stroke="black"/>
<path d="M508.525,157.568h 1.81708" fill="none" stroke="black"/>
<text xml:space="preserve" x="339.386" y="10.9025" fill="black" font-size="4.11089" font-family="Helvetica">No scint | avg # of -22 PDG in each layer 100 events (5GeV mu- gun) | total: 24806.490234+/-5008.487793</text></svg>
