<?xml version="1.0" encoding="utf-8" standalone="no"?>
<!DOCTYPE svg PUBLIC "-//W3C//DTD SVG 1.1//EN"
  "http://www.w3.org/Graphics/SVG/1.1/DTD/svg11.dtd">
<svg xmlns:xlink="http://www.w3.org/1999/xlink" width="432pt" height="288pt" viewBox="0 0 432 288" xmlns="http://www.w3.org/2000/svg" version="1.1">
 <metadata>
  <rdf:RDF xmlns:dc="http://purl.org/dc/elements/1.1/" xmlns:cc="http://creativecommons.org/ns#" xmlns:rdf="http://www.w3.org/1999/02/22-rdf-syntax-ns#">
   <cc:Work>
    <dc:type rdf:resource="http://purl.org/dc/dcmitype/StillImage"/>
    <dc:date>2024-05-31T11:18:58.950506</dc:date>
    <dc:format>image/svg+xml</dc:format>
    <dc:creator>
     <cc:Agent>
      <dc:title>Matplotlib v3.7.4, https://matplotlib.org/</dc:title>
     </cc:Agent>
    </dc:creator>
   </cc:Work>
  </rdf:RDF>
 </metadata>
 <defs>
  <style type="text/css">*{stroke-linejoin: round; stroke-linecap: butt}</style>
 </defs>
 <g id="figure_1">
  <g id="patch_1">
   <path d="M 0 288 
L 432 288 
L 432 0 
L 0 0 
L 0 288 
z
" style="fill: none"/>
  </g>
  <g id="axes_1">
   <g id="patch_2">
    <path d="M 54 252 
L 388.8 252 
L 388.8 34.56 
L 54 34.56 
z
" style="fill: #ffffff"/>
   </g>
   <g id="patch_3">
    <path d="M 69.218182 252 
L 72.261804 252 
L 72.261804 251.795572 
L 69.218182 251.795572 
z
" clip-path="url(#p9e2756d419)" style="fill: #0000ff; opacity: 0.75"/>
   </g>
   <g id="patch_4">
    <path d="M 72.261804 252 
L 75.305455 252 
L 75.305455 252 
L 72.261804 252 
z
" clip-path="url(#p9e2756d419)" style="fill: #0000ff; opacity: 0.75"/>
   </g>
   <g id="patch_5">
    <path d="M 75.305455 252 
L 78.349077 252 
L 78.349077 252 
L 75.305455 252 
z
" clip-path="url(#p9e2756d419)" style="fill: #0000ff; opacity: 0.75"/>
   </g>
   <g id="patch_6">
    <path d="M 78.349077 252 
L 81.392728 252 
L 81.392728 252 
L 78.349077 252 
z
" clip-path="url(#p9e2756d419)" style="fill: #0000ff; opacity: 0.75"/>
   </g>
   <g id="patch_7">
    <path d="M 81.392728 252 
L 84.43635 252 
L 84.43635 252 
L 81.392728 252 
z
" clip-path="url(#p9e2756d419)" style="fill: #0000ff; opacity: 0.75"/>
   </g>
   <g id="patch_8">
    <path d="M 84.43635 252 
L 87.480002 252 
L 87.480002 252 
L 84.43635 252 
z
" clip-path="url(#p9e2756d419)" style="fill: #0000ff; opacity: 0.75"/>
   </g>
   <g id="patch_9">
    <path d="M 87.480002 252 
L 90.523624 252 
L 90.523624 252 
L 87.480002 252 
z
" clip-path="url(#p9e2756d419)" style="fill: #0000ff; opacity: 0.75"/>
   </g>
   <g id="patch_10">
    <path d="M 90.523624 252 
L 93.567275 252 
L 93.567275 252 
L 90.523624 252 
z
" clip-path="url(#p9e2756d419)" style="fill: #0000ff; opacity: 0.75"/>
   </g>
   <g id="patch_11">
    <path d="M 93.567275 252 
L 96.610897 252 
L 96.610897 252 
L 93.567275 252 
z
" clip-path="url(#p9e2756d419)" style="fill: #0000ff; opacity: 0.75"/>
   </g>
   <g id="patch_12">
    <path d="M 96.610897 252 
L 99.654548 252 
L 99.654548 252 
L 96.610897 252 
z
" clip-path="url(#p9e2756d419)" style="fill: #0000ff; opacity: 0.75"/>
   </g>
   <g id="patch_13">
    <path d="M 99.654548 252 
L 102.69817 252 
L 102.69817 252 
L 99.654548 252 
z
" clip-path="url(#p9e2756d419)" style="fill: #0000ff; opacity: 0.75"/>
   </g>
   <g id="patch_14">
    <path d="M 102.69817 252 
L 105.741822 252 
L 105.741822 252 
L 102.69817 252 
z
" clip-path="url(#p9e2756d419)" style="fill: #0000ff; opacity: 0.75"/>
   </g>
   <g id="patch_15">
    <path d="M 105.741822 252 
L 108.785444 252 
L 108.785444 252 
L 105.741822 252 
z
" clip-path="url(#p9e2756d419)" style="fill: #0000ff; opacity: 0.75"/>
   </g>
   <g id="patch_16">
    <path d="M 108.785444 252 
L 111.829095 252 
L 111.829095 252 
L 108.785444 252 
z
" clip-path="url(#p9e2756d419)" style="fill: #0000ff; opacity: 0.75"/>
   </g>
   <g id="patch_17">
    <path d="M 111.829095 252 
L 114.872717 252 
L 114.872717 252 
L 111.829095 252 
z
" clip-path="url(#p9e2756d419)" style="fill: #0000ff; opacity: 0.75"/>
   </g>
   <g id="patch_18">
    <path d="M 114.872717 252 
L 117.916368 252 
L 117.916368 252 
L 114.872717 252 
z
" clip-path="url(#p9e2756d419)" style="fill: #0000ff; opacity: 0.75"/>
   </g>
   <g id="patch_19">
    <path d="M 117.916368 252 
L 120.95999 252 
L 120.95999 252 
L 117.916368 252 
z
" clip-path="url(#p9e2756d419)" style="fill: #0000ff; opacity: 0.75"/>
   </g>
   <g id="patch_20">
    <path d="M 120.95999 252 
L 124.003642 252 
L 124.003642 252 
L 120.95999 252 
z
" clip-path="url(#p9e2756d419)" style="fill: #0000ff; opacity: 0.75"/>
   </g>
   <g id="patch_21">
    <path d="M 124.003642 252 
L 127.047264 252 
L 127.047264 252 
L 124.003642 252 
z
" clip-path="url(#p9e2756d419)" style="fill: #0000ff; opacity: 0.75"/>
   </g>
   <g id="patch_22">
    <path d="M 127.047264 252 
L 130.090915 252 
L 130.090915 252 
L 127.047264 252 
z
" clip-path="url(#p9e2756d419)" style="fill: #0000ff; opacity: 0.75"/>
   </g>
   <g id="patch_23">
    <path d="M 130.090915 252 
L 133.134537 252 
L 133.134537 252 
L 130.090915 252 
z
" clip-path="url(#p9e2756d419)" style="fill: #0000ff; opacity: 0.75"/>
   </g>
   <g id="patch_24">
    <path d="M 133.134537 252 
L 136.178188 252 
L 136.178188 252 
L 133.134537 252 
z
" clip-path="url(#p9e2756d419)" style="fill: #0000ff; opacity: 0.75"/>
   </g>
   <g id="patch_25">
    <path d="M 136.178188 252 
L 139.22181 252 
L 139.22181 252 
L 136.178188 252 
z
" clip-path="url(#p9e2756d419)" style="fill: #0000ff; opacity: 0.75"/>
   </g>
   <g id="patch_26">
    <path d="M 139.22181 252 
L 142.265462 252 
L 142.265462 252 
L 139.22181 252 
z
" clip-path="url(#p9e2756d419)" style="fill: #0000ff; opacity: 0.75"/>
   </g>
   <g id="patch_27">
    <path d="M 142.265462 252 
L 145.309084 252 
L 145.309084 252 
L 142.265462 252 
z
" clip-path="url(#p9e2756d419)" style="fill: #0000ff; opacity: 0.75"/>
   </g>
   <g id="patch_28">
    <path d="M 145.309084 252 
L 148.352735 252 
L 148.352735 251.182295 
L 145.309084 251.182295 
z
" clip-path="url(#p9e2756d419)" style="fill: #0000ff; opacity: 0.75"/>
   </g>
   <g id="patch_29">
    <path d="M 148.352735 252 
L 151.396357 252 
L 151.396357 251.591144 
L 148.352735 251.591144 
z
" clip-path="url(#p9e2756d419)" style="fill: #0000ff; opacity: 0.75"/>
   </g>
   <g id="patch_30">
    <path d="M 151.396357 252 
L 154.440008 252 
L 154.440008 250.569017 
L 151.396357 250.569017 
z
" clip-path="url(#p9e2756d419)" style="fill: #0000ff; opacity: 0.75"/>
   </g>
   <g id="patch_31">
    <path d="M 154.440008 252 
L 157.48363 252 
L 157.48363 248.320293 
L 154.440008 248.320293 
z
" clip-path="url(#p9e2756d419)" style="fill: #0000ff; opacity: 0.75"/>
   </g>
   <g id="patch_32">
    <path d="M 157.48363 252 
L 160.527282 252 
L 160.527282 236.054758 
L 157.48363 236.054758 
z
" clip-path="url(#p9e2756d419)" style="fill: #0000ff; opacity: 0.75"/>
   </g>
   <g id="patch_33">
    <path d="M 160.527282 252 
L 163.570904 252 
L 163.570904 174.930588 
L 160.527282 174.930588 
z
" clip-path="url(#p9e2756d419)" style="fill: #0000ff; opacity: 0.75"/>
   </g>
   <g id="patch_34">
    <path d="M 163.570904 252 
L 166.614555 252 
L 166.614555 85.188237 
L 163.570904 85.188237 
z
" clip-path="url(#p9e2756d419)" style="fill: #0000ff; opacity: 0.75"/>
   </g>
   <g id="patch_35">
    <path d="M 166.614555 252 
L 169.658177 252 
L 169.658177 44.914286 
L 166.614555 44.914286 
z
" clip-path="url(#p9e2756d419)" style="fill: #0000ff; opacity: 0.75"/>
   </g>
   <g id="patch_36">
    <path d="M 169.658177 252 
L 172.701828 252 
L 172.701828 49.209229 
L 169.658177 49.209229 
z
" clip-path="url(#p9e2756d419)" style="fill: #0000ff; opacity: 0.75"/>
   </g>
   <g id="patch_37">
    <path d="M 172.701828 252 
L 175.74545 252 
L 175.74545 56.56669 
L 172.701828 56.56669 
z
" clip-path="url(#p9e2756d419)" style="fill: #0000ff; opacity: 0.75"/>
   </g>
   <g id="patch_38">
    <path d="M 175.74545 252 
L 178.789101 252 
L 178.789101 75.580206 
L 175.74545 75.580206 
z
" clip-path="url(#p9e2756d419)" style="fill: #0000ff; opacity: 0.75"/>
   </g>
   <g id="patch_39">
    <path d="M 178.789101 252 
L 181.832723 252 
L 181.832723 99.496601 
L 178.789101 99.496601 
z
" clip-path="url(#p9e2756d419)" style="fill: #0000ff; opacity: 0.75"/>
   </g>
   <g id="patch_40">
    <path d="M 181.832723 252 
L 184.876375 252 
L 184.876375 125.460194 
L 181.832723 125.460194 
z
" clip-path="url(#p9e2756d419)" style="fill: #0000ff; opacity: 0.75"/>
   </g>
   <g id="patch_41">
    <path d="M 184.876375 252 
L 187.919997 252 
L 187.919997 143.448653 
L 184.876375 143.448653 
z
" clip-path="url(#p9e2756d419)" style="fill: #0000ff; opacity: 0.75"/>
   </g>
   <g id="patch_42">
    <path d="M 187.919997 252 
L 190.963648 252 
L 190.963648 163.074611 
L 187.919997 163.074611 
z
" clip-path="url(#p9e2756d419)" style="fill: #0000ff; opacity: 0.75"/>
   </g>
   <g id="patch_43">
    <path d="M 190.963648 252 
L 194.00727 252 
L 194.00727 171.046453 
L 190.963648 171.046453 
z
" clip-path="url(#p9e2756d419)" style="fill: #0000ff; opacity: 0.75"/>
   </g>
   <g id="patch_44">
    <path d="M 194.00727 252 
L 197.050921 252 
L 197.050921 180.041984 
L 194.00727 180.041984 
z
" clip-path="url(#p9e2756d419)" style="fill: #0000ff; opacity: 0.75"/>
   </g>
   <g id="patch_45">
    <path d="M 197.050921 252 
L 200.094543 252 
L 200.094543 189.03613 
L 197.050921 189.03613 
z
" clip-path="url(#p9e2756d419)" style="fill: #0000ff; opacity: 0.75"/>
   </g>
   <g id="patch_46">
    <path d="M 200.094543 252 
L 203.138195 252 
L 203.138195 193.12526 
L 200.094543 193.12526 
z
" clip-path="url(#p9e2756d419)" style="fill: #0000ff; opacity: 0.75"/>
   </g>
   <g id="patch_47">
    <path d="M 203.138195 252 
L 206.181817 252 
L 206.181817 203.754957 
L 203.138195 203.754957 
z
" clip-path="url(#p9e2756d419)" style="fill: #0000ff; opacity: 0.75"/>
   </g>
   <g id="patch_48">
    <path d="M 206.181817 252 
L 209.225468 252 
L 209.225468 216.225418 
L 206.181817 216.225418 
z
" clip-path="url(#p9e2756d419)" style="fill: #0000ff; opacity: 0.75"/>
   </g>
   <g id="patch_49">
    <path d="M 209.225468 252 
L 212.26909 252 
L 212.26909 222.971203 
L 209.225468 222.971203 
z
" clip-path="url(#p9e2756d419)" style="fill: #0000ff; opacity: 0.75"/>
   </g>
   <g id="patch_50">
    <path d="M 212.26909 252 
L 215.312741 252 
L 215.312741 231.966234 
L 212.26909 231.966234 
z
" clip-path="url(#p9e2756d419)" style="fill: #0000ff; opacity: 0.75"/>
   </g>
   <g id="patch_51">
    <path d="M 215.312741 252 
L 218.356363 252 
L 218.356363 234.828036 
L 215.312741 234.828036 
z
" clip-path="url(#p9e2756d419)" style="fill: #0000ff; opacity: 0.75"/>
   </g>
   <g id="patch_52">
    <path d="M 218.356363 252 
L 221.400015 252 
L 221.400015 238.712298 
L 218.356363 238.712298 
z
" clip-path="url(#p9e2756d419)" style="fill: #0000ff; opacity: 0.75"/>
   </g>
   <g id="patch_53">
    <path d="M 221.400015 252 
L 224.443637 252 
L 224.443637 238.507742 
L 221.400015 238.507742 
z
" clip-path="url(#p9e2756d419)" style="fill: #0000ff; opacity: 0.75"/>
   </g>
   <g id="patch_54">
    <path d="M 224.443637 252 
L 227.487259 252 
L 227.487259 243.005161 
L 224.443637 243.005161 
z
" clip-path="url(#p9e2756d419)" style="fill: #0000ff; opacity: 0.75"/>
   </g>
   <g id="patch_55">
    <path d="M 227.487259 252 
L 230.53091 252 
L 230.53091 245.662788 
L 227.487259 245.662788 
z
" clip-path="url(#p9e2756d419)" style="fill: #0000ff; opacity: 0.75"/>
   </g>
   <g id="patch_56">
    <path d="M 230.53091 252 
L 233.574532 252 
L 233.574532 244.23173 
L 230.53091 244.23173 
z
" clip-path="url(#p9e2756d419)" style="fill: #0000ff; opacity: 0.75"/>
   </g>
   <g id="patch_57">
    <path d="M 233.574532 252 
L 236.618183 252 
L 236.618183 245.04951 
L 233.574532 245.04951 
z
" clip-path="url(#p9e2756d419)" style="fill: #0000ff; opacity: 0.75"/>
   </g>
   <g id="patch_58">
    <path d="M 236.618183 252 
L 239.661805 252 
L 239.661805 247.911437 
L 236.618183 247.911437 
z
" clip-path="url(#p9e2756d419)" style="fill: #0000ff; opacity: 0.75"/>
   </g>
   <g id="patch_59">
    <path d="M 239.661805 252 
L 242.705457 252 
L 242.705457 247.911476 
L 239.661805 247.911476 
z
" clip-path="url(#p9e2756d419)" style="fill: #0000ff; opacity: 0.75"/>
   </g>
   <g id="patch_60">
    <path d="M 242.705457 252 
L 245.749079 252 
L 245.749079 248.72915 
L 242.705457 248.72915 
z
" clip-path="url(#p9e2756d419)" style="fill: #0000ff; opacity: 0.75"/>
   </g>
   <g id="patch_61">
    <path d="M 245.749079 252 
L 248.79273 252 
L 248.79273 249.751312 
L 245.749079 249.751312 
z
" clip-path="url(#p9e2756d419)" style="fill: #0000ff; opacity: 0.75"/>
   </g>
   <g id="patch_62">
    <path d="M 248.79273 252 
L 251.836352 252 
L 251.836352 249.75129 
L 248.79273 249.75129 
z
" clip-path="url(#p9e2756d419)" style="fill: #0000ff; opacity: 0.75"/>
   </g>
   <g id="patch_63">
    <path d="M 251.836352 252 
L 254.880003 252 
L 254.880003 248.729181 
L 251.836352 248.729181 
z
" clip-path="url(#p9e2756d419)" style="fill: #0000ff; opacity: 0.75"/>
   </g>
   <g id="patch_64">
    <path d="M 254.880003 252 
L 257.923625 252 
L 257.923625 250.569003 
L 254.880003 250.569003 
z
" clip-path="url(#p9e2756d419)" style="fill: #0000ff; opacity: 0.75"/>
   </g>
   <g id="patch_65">
    <path d="M 257.923625 252 
L 260.967277 252 
L 260.967277 249.546886 
L 257.923625 249.546886 
z
" clip-path="url(#p9e2756d419)" style="fill: #0000ff; opacity: 0.75"/>
   </g>
   <g id="patch_66">
    <path d="M 260.967277 252 
L 264.010899 252 
L 264.010899 249.955719 
L 260.967277 249.955719 
z
" clip-path="url(#p9e2756d419)" style="fill: #0000ff; opacity: 0.75"/>
   </g>
   <g id="patch_67">
    <path d="M 264.010899 252 
L 267.05455 252 
L 267.05455 250.773443 
L 264.010899 250.773443 
z
" clip-path="url(#p9e2756d419)" style="fill: #0000ff; opacity: 0.75"/>
   </g>
   <g id="patch_68">
    <path d="M 267.05455 252 
L 270.098172 252 
L 270.098172 250.569003 
L 267.05455 250.569003 
z
" clip-path="url(#p9e2756d419)" style="fill: #0000ff; opacity: 0.75"/>
   </g>
   <g id="patch_69">
    <path d="M 270.098172 252 
L 273.141823 252 
L 273.141823 250.364591 
L 270.098172 250.364591 
z
" clip-path="url(#p9e2756d419)" style="fill: #0000ff; opacity: 0.75"/>
   </g>
   <g id="patch_70">
    <path d="M 273.141823 252 
L 276.185445 252 
L 276.185445 251.591144 
L 273.141823 251.591144 
z
" clip-path="url(#p9e2756d419)" style="fill: #0000ff; opacity: 0.75"/>
   </g>
   <g id="patch_71">
    <path d="M 276.185445 252 
L 279.229096 252 
L 279.229096 250.773443 
L 276.185445 250.773443 
z
" clip-path="url(#p9e2756d419)" style="fill: #0000ff; opacity: 0.75"/>
   </g>
   <g id="patch_72">
    <path d="M 279.229096 252 
L 282.272718 252 
L 282.272718 251.386716 
L 279.229096 251.386716 
z
" clip-path="url(#p9e2756d419)" style="fill: #0000ff; opacity: 0.75"/>
   </g>
   <g id="patch_73">
    <path d="M 282.272718 252 
L 285.31637 252 
L 285.31637 251.591148 
L 282.272718 251.591148 
z
" clip-path="url(#p9e2756d419)" style="fill: #0000ff; opacity: 0.75"/>
   </g>
   <g id="patch_74">
    <path d="M 285.31637 252 
L 288.359992 252 
L 288.359992 252 
L 285.31637 252 
z
" clip-path="url(#p9e2756d419)" style="fill: #0000ff; opacity: 0.75"/>
   </g>
   <g id="patch_75">
    <path d="M 288.359992 252 
L 291.403643 252 
L 291.403643 251.795574 
L 288.359992 251.795574 
z
" clip-path="url(#p9e2756d419)" style="fill: #0000ff; opacity: 0.75"/>
   </g>
   <g id="patch_76">
    <path d="M 291.403643 252 
L 294.447294 252 
L 294.447294 251.795574 
L 291.403643 251.795574 
z
" clip-path="url(#p9e2756d419)" style="fill: #0000ff; opacity: 0.75"/>
   </g>
   <g id="patch_77">
    <path d="M 294.447294 252 
L 297.490916 252 
L 297.490916 251.591144 
L 294.447294 251.591144 
z
" clip-path="url(#p9e2756d419)" style="fill: #0000ff; opacity: 0.75"/>
   </g>
   <g id="patch_78">
    <path d="M 297.490916 252 
L 300.534538 252 
L 300.534538 252 
L 297.490916 252 
z
" clip-path="url(#p9e2756d419)" style="fill: #0000ff; opacity: 0.75"/>
   </g>
   <g id="patch_79">
    <path d="M 300.534538 252 
L 303.57816 252 
L 303.57816 251.795572 
L 300.534538 251.795572 
z
" clip-path="url(#p9e2756d419)" style="fill: #0000ff; opacity: 0.75"/>
   </g>
   <g id="patch_80">
    <path d="M 303.57816 252 
L 306.621841 252 
L 306.621841 252 
L 303.57816 252 
z
" clip-path="url(#p9e2756d419)" style="fill: #0000ff; opacity: 0.75"/>
   </g>
   <g id="patch_81">
    <path d="M 306.621841 252 
L 309.665463 252 
L 309.665463 252 
L 306.621841 252 
z
" clip-path="url(#p9e2756d419)" style="fill: #0000ff; opacity: 0.75"/>
   </g>
   <g id="patch_82">
    <path d="M 309.665463 252 
L 312.709085 252 
L 312.709085 252 
L 309.665463 252 
z
" clip-path="url(#p9e2756d419)" style="fill: #0000ff; opacity: 0.75"/>
   </g>
   <g id="patch_83">
    <path d="M 312.709085 252 
L 315.752707 252 
L 315.752707 252 
L 312.709085 252 
z
" clip-path="url(#p9e2756d419)" style="fill: #0000ff; opacity: 0.75"/>
   </g>
   <g id="patch_84">
    <path d="M 315.752707 252 
L 318.796388 252 
L 318.796388 252 
L 315.752707 252 
z
" clip-path="url(#p9e2756d419)" style="fill: #0000ff; opacity: 0.75"/>
   </g>
   <g id="patch_85">
    <path d="M 318.796388 252 
L 321.84001 252 
L 321.84001 252 
L 318.796388 252 
z
" clip-path="url(#p9e2756d419)" style="fill: #0000ff; opacity: 0.75"/>
   </g>
   <g id="patch_86">
    <path d="M 321.84001 252 
L 324.883632 252 
L 324.883632 252 
L 321.84001 252 
z
" clip-path="url(#p9e2756d419)" style="fill: #0000ff; opacity: 0.75"/>
   </g>
   <g id="patch_87">
    <path d="M 324.883632 252 
L 327.927254 252 
L 327.927254 251.795572 
L 324.883632 251.795572 
z
" clip-path="url(#p9e2756d419)" style="fill: #0000ff; opacity: 0.75"/>
   </g>
   <g id="patch_88">
    <path d="M 327.927254 252 
L 330.970934 252 
L 330.970934 252 
L 327.927254 252 
z
" clip-path="url(#p9e2756d419)" style="fill: #0000ff; opacity: 0.75"/>
   </g>
   <g id="patch_89">
    <path d="M 330.970934 252 
L 334.014556 252 
L 334.014556 252 
L 330.970934 252 
z
" clip-path="url(#p9e2756d419)" style="fill: #0000ff; opacity: 0.75"/>
   </g>
   <g id="patch_90">
    <path d="M 334.014556 252 
L 337.058178 252 
L 337.058178 252 
L 334.014556 252 
z
" clip-path="url(#p9e2756d419)" style="fill: #0000ff; opacity: 0.75"/>
   </g>
   <g id="patch_91">
    <path d="M 337.058178 252 
L 340.1018 252 
L 340.1018 252 
L 337.058178 252 
z
" clip-path="url(#p9e2756d419)" style="fill: #0000ff; opacity: 0.75"/>
   </g>
   <g id="patch_92">
    <path d="M 340.1018 252 
L 343.145481 252 
L 343.145481 252 
L 340.1018 252 
z
" clip-path="url(#p9e2756d419)" style="fill: #0000ff; opacity: 0.75"/>
   </g>
   <g id="patch_93">
    <path d="M 343.145481 252 
L 346.189103 252 
L 346.189103 252 
L 343.145481 252 
z
" clip-path="url(#p9e2756d419)" style="fill: #0000ff; opacity: 0.75"/>
   </g>
   <g id="patch_94">
    <path d="M 346.189103 252 
L 349.232725 252 
L 349.232725 252 
L 346.189103 252 
z
" clip-path="url(#p9e2756d419)" style="fill: #0000ff; opacity: 0.75"/>
   </g>
   <g id="patch_95">
    <path d="M 349.232725 252 
L 352.276347 252 
L 352.276347 252 
L 349.232725 252 
z
" clip-path="url(#p9e2756d419)" style="fill: #0000ff; opacity: 0.75"/>
   </g>
   <g id="patch_96">
    <path d="M 352.276347 252 
L 355.320028 252 
L 355.320028 251.795576 
L 352.276347 251.795576 
z
" clip-path="url(#p9e2756d419)" style="fill: #0000ff; opacity: 0.75"/>
   </g>
   <g id="patch_97">
    <path d="M 355.320028 252 
L 358.36365 252 
L 358.36365 252 
L 355.320028 252 
z
" clip-path="url(#p9e2756d419)" style="fill: #0000ff; opacity: 0.75"/>
   </g>
   <g id="patch_98">
    <path d="M 358.36365 252 
L 361.407272 252 
L 361.407272 251.795572 
L 358.36365 251.795572 
z
" clip-path="url(#p9e2756d419)" style="fill: #0000ff; opacity: 0.75"/>
   </g>
   <g id="patch_99">
    <path d="M 361.407272 252 
L 364.450894 252 
L 364.450894 252 
L 361.407272 252 
z
" clip-path="url(#p9e2756d419)" style="fill: #0000ff; opacity: 0.75"/>
   </g>
   <g id="patch_100">
    <path d="M 364.450894 252 
L 367.494574 252 
L 367.494574 252 
L 364.450894 252 
z
" clip-path="url(#p9e2756d419)" style="fill: #0000ff; opacity: 0.75"/>
   </g>
   <g id="patch_101">
    <path d="M 367.494574 252 
L 370.538196 252 
L 370.538196 252 
L 367.494574 252 
z
" clip-path="url(#p9e2756d419)" style="fill: #0000ff; opacity: 0.75"/>
   </g>
   <g id="patch_102">
    <path d="M 370.538196 252 
L 373.581818 252 
L 373.581818 251.795572 
L 370.538196 251.795572 
z
" clip-path="url(#p9e2756d419)" style="fill: #0000ff; opacity: 0.75"/>
   </g>
   <g id="matplotlib.axis_1">
    <g id="xtick_1">
     <g id="line2d_1">
      <path d="M 107.632923 252 
L 107.632923 34.56 
" clip-path="url(#p9e2756d419)" style="fill: none; stroke: #b0b0b0; stroke-width: 0.8; stroke-linecap: square"/>
     </g>
     <g id="line2d_2">
      <defs>
       <path id="mddfa1d7a53" d="M 0 0 
L 0 3.5 
" style="stroke: #000000; stroke-width: 0.8"/>
      </defs>
      <g>
       <use xlink:href="#mddfa1d7a53" x="107.632923" y="252" style="stroke: #000000; stroke-width: 0.8"/>
      </g>
     </g>
     <g id="text_1">
      <!-- 10 -->
      <g transform="translate(101.270423 266.598437) scale(0.1 -0.1)">
       <defs>
        <path id="DejaVuSans-31" d="M 794 531 
L 1825 531 
L 1825 4091 
L 703 3866 
L 703 4441 
L 1819 4666 
L 2450 4666 
L 2450 531 
L 3481 531 
L 3481 0 
L 794 0 
L 794 531 
z
" transform="scale(0.015625)"/>
        <path id="DejaVuSans-30" d="M 2034 4250 
Q 1547 4250 1301 3770 
Q 1056 3291 1056 2328 
Q 1056 1369 1301 889 
Q 1547 409 2034 409 
Q 2525 409 2770 889 
Q 3016 1369 3016 2328 
Q 3016 3291 2770 3770 
Q 2525 4250 2034 4250 
z
M 2034 4750 
Q 2819 4750 3233 4129 
Q 3647 3509 3647 2328 
Q 3647 1150 3233 529 
Q 2819 -91 2034 -91 
Q 1250 -91 836 529 
Q 422 1150 422 2328 
Q 422 3509 836 4129 
Q 1250 4750 2034 4750 
z
" transform="scale(0.015625)"/>
       </defs>
       <use xlink:href="#DejaVuSans-31"/>
       <use xlink:href="#DejaVuSans-30" x="63.623047"/>
      </g>
     </g>
    </g>
    <g id="xtick_2">
     <g id="line2d_3">
      <path d="M 169.073494 252 
L 169.073494 34.56 
" clip-path="url(#p9e2756d419)" style="fill: none; stroke: #b0b0b0; stroke-width: 0.8; stroke-linecap: square"/>
     </g>
     <g id="line2d_4">
      <g>
       <use xlink:href="#mddfa1d7a53" x="169.073494" y="252" style="stroke: #000000; stroke-width: 0.8"/>
      </g>
     </g>
     <g id="text_2">
      <!-- 12 -->
      <g transform="translate(162.710994 266.598437) scale(0.1 -0.1)">
       <defs>
        <path id="DejaVuSans-32" d="M 1228 531 
L 3431 531 
L 3431 0 
L 469 0 
L 469 531 
Q 828 903 1448 1529 
Q 2069 2156 2228 2338 
Q 2531 2678 2651 2914 
Q 2772 3150 2772 3378 
Q 2772 3750 2511 3984 
Q 2250 4219 1831 4219 
Q 1534 4219 1204 4116 
Q 875 4013 500 3803 
L 500 4441 
Q 881 4594 1212 4672 
Q 1544 4750 1819 4750 
Q 2544 4750 2975 4387 
Q 3406 4025 3406 3419 
Q 3406 3131 3298 2873 
Q 3191 2616 2906 2266 
Q 2828 2175 2409 1742 
Q 1991 1309 1228 531 
z
" transform="scale(0.015625)"/>
       </defs>
       <use xlink:href="#DejaVuSans-31"/>
       <use xlink:href="#DejaVuSans-32" x="63.623047"/>
      </g>
     </g>
    </g>
    <g id="xtick_3">
     <g id="line2d_5">
      <path d="M 230.514064 252 
L 230.514064 34.56 
" clip-path="url(#p9e2756d419)" style="fill: none; stroke: #b0b0b0; stroke-width: 0.8; stroke-linecap: square"/>
     </g>
     <g id="line2d_6">
      <g>
       <use xlink:href="#mddfa1d7a53" x="230.514064" y="252" style="stroke: #000000; stroke-width: 0.8"/>
      </g>
     </g>
     <g id="text_3">
      <!-- 14 -->
      <g transform="translate(224.151564 266.598437) scale(0.1 -0.1)">
       <defs>
        <path id="DejaVuSans-34" d="M 2419 4116 
L 825 1625 
L 2419 1625 
L 2419 4116 
z
M 2253 4666 
L 3047 4666 
L 3047 1625 
L 3713 1625 
L 3713 1100 
L 3047 1100 
L 3047 0 
L 2419 0 
L 2419 1100 
L 313 1100 
L 313 1709 
L 2253 4666 
z
" transform="scale(0.015625)"/>
       </defs>
       <use xlink:href="#DejaVuSans-31"/>
       <use xlink:href="#DejaVuSans-34" x="63.623047"/>
      </g>
     </g>
    </g>
    <g id="xtick_4">
     <g id="line2d_7">
      <path d="M 291.954635 252 
L 291.954635 34.56 
" clip-path="url(#p9e2756d419)" style="fill: none; stroke: #b0b0b0; stroke-width: 0.8; stroke-linecap: square"/>
     </g>
     <g id="line2d_8">
      <g>
       <use xlink:href="#mddfa1d7a53" x="291.954635" y="252" style="stroke: #000000; stroke-width: 0.8"/>
      </g>
     </g>
     <g id="text_4">
      <!-- 16 -->
      <g transform="translate(285.592135 266.598437) scale(0.1 -0.1)">
       <defs>
        <path id="DejaVuSans-36" d="M 2113 2584 
Q 1688 2584 1439 2293 
Q 1191 2003 1191 1497 
Q 1191 994 1439 701 
Q 1688 409 2113 409 
Q 2538 409 2786 701 
Q 3034 994 3034 1497 
Q 3034 2003 2786 2293 
Q 2538 2584 2113 2584 
z
M 3366 4563 
L 3366 3988 
Q 3128 4100 2886 4159 
Q 2644 4219 2406 4219 
Q 1781 4219 1451 3797 
Q 1122 3375 1075 2522 
Q 1259 2794 1537 2939 
Q 1816 3084 2150 3084 
Q 2853 3084 3261 2657 
Q 3669 2231 3669 1497 
Q 3669 778 3244 343 
Q 2819 -91 2113 -91 
Q 1303 -91 875 529 
Q 447 1150 447 2328 
Q 447 3434 972 4092 
Q 1497 4750 2381 4750 
Q 2619 4750 2861 4703 
Q 3103 4656 3366 4563 
z
" transform="scale(0.015625)"/>
       </defs>
       <use xlink:href="#DejaVuSans-31"/>
       <use xlink:href="#DejaVuSans-36" x="63.623047"/>
      </g>
     </g>
    </g>
    <g id="xtick_5">
     <g id="line2d_9">
      <path d="M 353.395205 252 
L 353.395205 34.56 
" clip-path="url(#p9e2756d419)" style="fill: none; stroke: #b0b0b0; stroke-width: 0.8; stroke-linecap: square"/>
     </g>
     <g id="line2d_10">
      <g>
       <use xlink:href="#mddfa1d7a53" x="353.395205" y="252" style="stroke: #000000; stroke-width: 0.8"/>
      </g>
     </g>
     <g id="text_5">
      <!-- 18 -->
      <g transform="translate(347.032705 266.598437) scale(0.1 -0.1)">
       <defs>
        <path id="DejaVuSans-38" d="M 2034 2216 
Q 1584 2216 1326 1975 
Q 1069 1734 1069 1313 
Q 1069 891 1326 650 
Q 1584 409 2034 409 
Q 2484 409 2743 651 
Q 3003 894 3003 1313 
Q 3003 1734 2745 1975 
Q 2488 2216 2034 2216 
z
M 1403 2484 
Q 997 2584 770 2862 
Q 544 3141 544 3541 
Q 544 4100 942 4425 
Q 1341 4750 2034 4750 
Q 2731 4750 3128 4425 
Q 3525 4100 3525 3541 
Q 3525 3141 3298 2862 
Q 3072 2584 2669 2484 
Q 3125 2378 3379 2068 
Q 3634 1759 3634 1313 
Q 3634 634 3220 271 
Q 2806 -91 2034 -91 
Q 1263 -91 848 271 
Q 434 634 434 1313 
Q 434 1759 690 2068 
Q 947 2378 1403 2484 
z
M 1172 3481 
Q 1172 3119 1398 2916 
Q 1625 2713 2034 2713 
Q 2441 2713 2670 2916 
Q 2900 3119 2900 3481 
Q 2900 3844 2670 4047 
Q 2441 4250 2034 4250 
Q 1625 4250 1398 4047 
Q 1172 3844 1172 3481 
z
" transform="scale(0.015625)"/>
       </defs>
       <use xlink:href="#DejaVuSans-31"/>
       <use xlink:href="#DejaVuSans-38" x="63.623047"/>
      </g>
     </g>
    </g>
    <g id="text_6">
     <!-- Time -->
     <g transform="translate(209.166406 280.276563) scale(0.1 -0.1)">
      <defs>
       <path id="DejaVuSans-54" d="M -19 4666 
L 3928 4666 
L 3928 4134 
L 2272 4134 
L 2272 0 
L 1638 0 
L 1638 4134 
L -19 4134 
L -19 4666 
z
" transform="scale(0.015625)"/>
       <path id="DejaVuSans-69" d="M 603 3500 
L 1178 3500 
L 1178 0 
L 603 0 
L 603 3500 
z
M 603 4863 
L 1178 4863 
L 1178 4134 
L 603 4134 
L 603 4863 
z
" transform="scale(0.015625)"/>
       <path id="DejaVuSans-6d" d="M 3328 2828 
Q 3544 3216 3844 3400 
Q 4144 3584 4550 3584 
Q 5097 3584 5394 3201 
Q 5691 2819 5691 2113 
L 5691 0 
L 5113 0 
L 5113 2094 
Q 5113 2597 4934 2840 
Q 4756 3084 4391 3084 
Q 3944 3084 3684 2787 
Q 3425 2491 3425 1978 
L 3425 0 
L 2847 0 
L 2847 2094 
Q 2847 2600 2669 2842 
Q 2491 3084 2119 3084 
Q 1678 3084 1418 2786 
Q 1159 2488 1159 1978 
L 1159 0 
L 581 0 
L 581 3500 
L 1159 3500 
L 1159 2956 
Q 1356 3278 1631 3431 
Q 1906 3584 2284 3584 
Q 2666 3584 2933 3390 
Q 3200 3197 3328 2828 
z
" transform="scale(0.015625)"/>
       <path id="DejaVuSans-65" d="M 3597 1894 
L 3597 1613 
L 953 1613 
Q 991 1019 1311 708 
Q 1631 397 2203 397 
Q 2534 397 2845 478 
Q 3156 559 3463 722 
L 3463 178 
Q 3153 47 2828 -22 
Q 2503 -91 2169 -91 
Q 1331 -91 842 396 
Q 353 884 353 1716 
Q 353 2575 817 3079 
Q 1281 3584 2069 3584 
Q 2775 3584 3186 3129 
Q 3597 2675 3597 1894 
z
M 3022 2063 
Q 3016 2534 2758 2815 
Q 2500 3097 2075 3097 
Q 1594 3097 1305 2825 
Q 1016 2553 972 2059 
L 3022 2063 
z
" transform="scale(0.015625)"/>
      </defs>
      <use xlink:href="#DejaVuSans-54"/>
      <use xlink:href="#DejaVuSans-69" x="57.958984"/>
      <use xlink:href="#DejaVuSans-6d" x="85.742188"/>
      <use xlink:href="#DejaVuSans-65" x="183.154297"/>
     </g>
    </g>
   </g>
   <g id="matplotlib.axis_2">
    <g id="ytick_1">
     <g id="line2d_11">
      <path d="M 54 252 
L 388.8 252 
" clip-path="url(#p9e2756d419)" style="fill: none; stroke: #b0b0b0; stroke-width: 0.8; stroke-linecap: square"/>
     </g>
     <g id="line2d_12">
      <defs>
       <path id="m2bf546eb0c" d="M 0 0 
L -3.5 0 
" style="stroke: #000000; stroke-width: 0.8"/>
      </defs>
      <g>
       <use xlink:href="#m2bf546eb0c" x="54" y="252" style="stroke: #000000; stroke-width: 0.8"/>
      </g>
     </g>
     <g id="text_7">
      <!-- 0.0 -->
      <g transform="translate(31.096875 255.799219) scale(0.1 -0.1)">
       <defs>
        <path id="DejaVuSans-2e" d="M 684 794 
L 1344 794 
L 1344 0 
L 684 0 
L 684 794 
z
" transform="scale(0.015625)"/>
       </defs>
       <use xlink:href="#DejaVuSans-30"/>
       <use xlink:href="#DejaVuSans-2e" x="63.623047"/>
       <use xlink:href="#DejaVuSans-30" x="95.410156"/>
      </g>
     </g>
    </g>
    <g id="ytick_2">
     <g id="line2d_13">
      <path d="M 54 211.569397 
L 388.8 211.569397 
" clip-path="url(#p9e2756d419)" style="fill: none; stroke: #b0b0b0; stroke-width: 0.8; stroke-linecap: square"/>
     </g>
     <g id="line2d_14">
      <g>
       <use xlink:href="#m2bf546eb0c" x="54" y="211.569397" style="stroke: #000000; stroke-width: 0.8"/>
      </g>
     </g>
     <g id="text_8">
      <!-- 0.2 -->
      <g transform="translate(31.096875 215.368616) scale(0.1 -0.1)">
       <use xlink:href="#DejaVuSans-30"/>
       <use xlink:href="#DejaVuSans-2e" x="63.623047"/>
       <use xlink:href="#DejaVuSans-32" x="95.410156"/>
      </g>
     </g>
    </g>
    <g id="ytick_3">
     <g id="line2d_15">
      <path d="M 54 171.138794 
L 388.8 171.138794 
" clip-path="url(#p9e2756d419)" style="fill: none; stroke: #b0b0b0; stroke-width: 0.8; stroke-linecap: square"/>
     </g>
     <g id="line2d_16">
      <g>
       <use xlink:href="#m2bf546eb0c" x="54" y="171.138794" style="stroke: #000000; stroke-width: 0.8"/>
      </g>
     </g>
     <g id="text_9">
      <!-- 0.4 -->
      <g transform="translate(31.096875 174.938013) scale(0.1 -0.1)">
       <use xlink:href="#DejaVuSans-30"/>
       <use xlink:href="#DejaVuSans-2e" x="63.623047"/>
       <use xlink:href="#DejaVuSans-34" x="95.410156"/>
      </g>
     </g>
    </g>
    <g id="ytick_4">
     <g id="line2d_17">
      <path d="M 54 130.708191 
L 388.8 130.708191 
" clip-path="url(#p9e2756d419)" style="fill: none; stroke: #b0b0b0; stroke-width: 0.8; stroke-linecap: square"/>
     </g>
     <g id="line2d_18">
      <g>
       <use xlink:href="#m2bf546eb0c" x="54" y="130.708191" style="stroke: #000000; stroke-width: 0.8"/>
      </g>
     </g>
     <g id="text_10">
      <!-- 0.6 -->
      <g transform="translate(31.096875 134.50741) scale(0.1 -0.1)">
       <use xlink:href="#DejaVuSans-30"/>
       <use xlink:href="#DejaVuSans-2e" x="63.623047"/>
       <use xlink:href="#DejaVuSans-36" x="95.410156"/>
      </g>
     </g>
    </g>
    <g id="ytick_5">
     <g id="line2d_19">
      <path d="M 54 90.277588 
L 388.8 90.277588 
" clip-path="url(#p9e2756d419)" style="fill: none; stroke: #b0b0b0; stroke-width: 0.8; stroke-linecap: square"/>
     </g>
     <g id="line2d_20">
      <g>
       <use xlink:href="#m2bf546eb0c" x="54" y="90.277588" style="stroke: #000000; stroke-width: 0.8"/>
      </g>
     </g>
     <g id="text_11">
      <!-- 0.8 -->
      <g transform="translate(31.096875 94.076807) scale(0.1 -0.1)">
       <use xlink:href="#DejaVuSans-30"/>
       <use xlink:href="#DejaVuSans-2e" x="63.623047"/>
       <use xlink:href="#DejaVuSans-38" x="95.410156"/>
      </g>
     </g>
    </g>
    <g id="ytick_6">
     <g id="line2d_21">
      <path d="M 54 49.846985 
L 388.8 49.846985 
" clip-path="url(#p9e2756d419)" style="fill: none; stroke: #b0b0b0; stroke-width: 0.8; stroke-linecap: square"/>
     </g>
     <g id="line2d_22">
      <g>
       <use xlink:href="#m2bf546eb0c" x="54" y="49.846985" style="stroke: #000000; stroke-width: 0.8"/>
      </g>
     </g>
     <g id="text_12">
      <!-- 1.0 -->
      <g transform="translate(31.096875 53.646204) scale(0.1 -0.1)">
       <use xlink:href="#DejaVuSans-31"/>
       <use xlink:href="#DejaVuSans-2e" x="63.623047"/>
       <use xlink:href="#DejaVuSans-30" x="95.410156"/>
      </g>
     </g>
    </g>
    <g id="text_13">
     <!-- Counts -->
     <g transform="translate(25.017187 160.733125) rotate(-90) scale(0.1 -0.1)">
      <defs>
       <path id="DejaVuSans-43" d="M 4122 4306 
L 4122 3641 
Q 3803 3938 3442 4084 
Q 3081 4231 2675 4231 
Q 1875 4231 1450 3742 
Q 1025 3253 1025 2328 
Q 1025 1406 1450 917 
Q 1875 428 2675 428 
Q 3081 428 3442 575 
Q 3803 722 4122 1019 
L 4122 359 
Q 3791 134 3420 21 
Q 3050 -91 2638 -91 
Q 1578 -91 968 557 
Q 359 1206 359 2328 
Q 359 3453 968 4101 
Q 1578 4750 2638 4750 
Q 3056 4750 3426 4639 
Q 3797 4528 4122 4306 
z
" transform="scale(0.015625)"/>
       <path id="DejaVuSans-6f" d="M 1959 3097 
Q 1497 3097 1228 2736 
Q 959 2375 959 1747 
Q 959 1119 1226 758 
Q 1494 397 1959 397 
Q 2419 397 2687 759 
Q 2956 1122 2956 1747 
Q 2956 2369 2687 2733 
Q 2419 3097 1959 3097 
z
M 1959 3584 
Q 2709 3584 3137 3096 
Q 3566 2609 3566 1747 
Q 3566 888 3137 398 
Q 2709 -91 1959 -91 
Q 1206 -91 779 398 
Q 353 888 353 1747 
Q 353 2609 779 3096 
Q 1206 3584 1959 3584 
z
" transform="scale(0.015625)"/>
       <path id="DejaVuSans-75" d="M 544 1381 
L 544 3500 
L 1119 3500 
L 1119 1403 
Q 1119 906 1312 657 
Q 1506 409 1894 409 
Q 2359 409 2629 706 
Q 2900 1003 2900 1516 
L 2900 3500 
L 3475 3500 
L 3475 0 
L 2900 0 
L 2900 538 
Q 2691 219 2414 64 
Q 2138 -91 1772 -91 
Q 1169 -91 856 284 
Q 544 659 544 1381 
z
M 1991 3584 
L 1991 3584 
z
" transform="scale(0.015625)"/>
       <path id="DejaVuSans-6e" d="M 3513 2113 
L 3513 0 
L 2938 0 
L 2938 2094 
Q 2938 2591 2744 2837 
Q 2550 3084 2163 3084 
Q 1697 3084 1428 2787 
Q 1159 2491 1159 1978 
L 1159 0 
L 581 0 
L 581 3500 
L 1159 3500 
L 1159 2956 
Q 1366 3272 1645 3428 
Q 1925 3584 2291 3584 
Q 2894 3584 3203 3211 
Q 3513 2838 3513 2113 
z
" transform="scale(0.015625)"/>
       <path id="DejaVuSans-74" d="M 1172 4494 
L 1172 3500 
L 2356 3500 
L 2356 3053 
L 1172 3053 
L 1172 1153 
Q 1172 725 1289 603 
Q 1406 481 1766 481 
L 2356 481 
L 2356 0 
L 1766 0 
Q 1100 0 847 248 
Q 594 497 594 1153 
L 594 3053 
L 172 3053 
L 172 3500 
L 594 3500 
L 594 4494 
L 1172 4494 
z
" transform="scale(0.015625)"/>
       <path id="DejaVuSans-73" d="M 2834 3397 
L 2834 2853 
Q 2591 2978 2328 3040 
Q 2066 3103 1784 3103 
Q 1356 3103 1142 2972 
Q 928 2841 928 2578 
Q 928 2378 1081 2264 
Q 1234 2150 1697 2047 
L 1894 2003 
Q 2506 1872 2764 1633 
Q 3022 1394 3022 966 
Q 3022 478 2636 193 
Q 2250 -91 1575 -91 
Q 1294 -91 989 -36 
Q 684 19 347 128 
L 347 722 
Q 666 556 975 473 
Q 1284 391 1588 391 
Q 1994 391 2212 530 
Q 2431 669 2431 922 
Q 2431 1156 2273 1281 
Q 2116 1406 1581 1522 
L 1381 1569 
Q 847 1681 609 1914 
Q 372 2147 372 2553 
Q 372 3047 722 3315 
Q 1072 3584 1716 3584 
Q 2034 3584 2315 3537 
Q 2597 3491 2834 3397 
z
" transform="scale(0.015625)"/>
      </defs>
      <use xlink:href="#DejaVuSans-43"/>
      <use xlink:href="#DejaVuSans-6f" x="69.824219"/>
      <use xlink:href="#DejaVuSans-75" x="131.005859"/>
      <use xlink:href="#DejaVuSans-6e" x="194.384766"/>
      <use xlink:href="#DejaVuSans-74" x="257.763672"/>
      <use xlink:href="#DejaVuSans-73" x="296.972656"/>
     </g>
    </g>
   </g>
   <g id="line2d_23">
    <path d="M 69.218182 252 
L 72.261804 251.999999 
L 75.305455 251.999997 
L 78.349077 251.999991 
L 81.392728 251.999978 
L 84.43635 251.999944 
L 87.480002 251.999863 
L 90.523624 251.999675 
L 93.567275 251.999247 
L 96.610897 251.998307 
L 99.654548 251.996295 
L 102.69817 251.992119 
L 105.741822 251.983701 
L 108.785444 251.967226 
L 111.829095 251.935924 
L 114.872717 251.878198 
L 117.916368 251.774882 
L 120.95999 251.595465 
L 124.003642 251.2932 
L 127.047264 250.799321 
L 130.090915 250.016867 
L 133.134537 248.81531 
L 136.178188 247.027478 
L 139.22181 244.451219 
L 142.265462 240.857797 
L 145.309084 236.00972 
L 148.352735 229.688184 
L 151.396357 221.730529 
L 154.440008 212.072847 
L 157.48363 200.793729 
L 160.527282 188.148468 
L 163.570904 174.587514 
L 166.614555 160.747695 
L 169.658177 147.415233 
L 172.701828 135.457074 
L 175.74545 125.73139 
L 178.789101 118.985942 
L 181.832723 115.76399 
L 184.876375 116.331596 
L 187.919997 120.64156 
L 190.963648 128.339943 
L 194.00727 138.813769 
L 197.050921 151.272115 
L 200.094543 164.843704 
L 203.138195 178.677116 
L 206.181817 192.024555 
L 209.225468 204.302138 
L 212.26909 215.117721 
L 215.312741 224.271407 
L 218.356363 231.731035 
L 221.400015 237.594567 
L 224.443637 242.045604 
L 227.487259 245.312003 
L 230.53091 247.631143 
L 233.574532 249.225186 
L 236.618183 250.286476 
L 239.661805 250.971176 
L 242.705457 251.399404 
L 245.749079 251.659107 
L 248.79273 251.811876 
L 251.836352 251.89906 
L 254.880003 251.947341 
L 257.923625 251.97329 
L 260.967277 251.986827 
L 264.010899 251.993684 
L 267.05455 251.997055 
L 270.098172 251.998665 
L 273.141823 251.999412 
L 276.185445 251.999748 
L 279.229096 251.999895 
L 282.272718 251.999957 
L 285.31637 251.999983 
L 288.359992 251.999994 
L 291.403643 251.999998 
L 294.447294 251.999999 
L 297.490916 252 
L 300.534538 252 
L 303.57816 252 
L 306.621841 252 
L 309.665463 252 
L 312.709085 252 
L 315.752707 252 
L 318.796388 252 
L 321.84001 252 
L 324.883632 252 
L 327.927254 252 
L 330.970934 252 
L 334.014556 252 
L 337.058178 252 
L 340.1018 252 
L 343.145481 252 
L 346.189103 252 
L 349.232725 252 
L 352.276347 252 
L 355.320028 252 
L 358.36365 252 
L 361.407272 252 
L 364.450894 252 
L 367.494574 252 
L 370.538196 252 
L 373.581818 252 
" clip-path="url(#p9e2756d419)" style="fill: none; stroke-dasharray: 7.4,3.2; stroke-dashoffset: 0; stroke: #ff0000; stroke-width: 2"/>
   </g>
   <g id="patch_103">
    <path d="M 54 252 
L 54 34.56 
" style="fill: none; stroke: #000000; stroke-width: 0.8; stroke-linejoin: miter; stroke-linecap: square"/>
   </g>
   <g id="patch_104">
    <path d="M 388.8 252 
L 388.8 34.56 
" style="fill: none; stroke: #000000; stroke-width: 0.8; stroke-linejoin: miter; stroke-linecap: square"/>
   </g>
   <g id="patch_105">
    <path d="M 54 252 
L 388.8 252 
" style="fill: none; stroke: #000000; stroke-width: 0.8; stroke-linejoin: miter; stroke-linecap: square"/>
   </g>
   <g id="patch_106">
    <path d="M 54 34.56 
L 388.8 34.56 
" style="fill: none; stroke: #000000; stroke-width: 0.8; stroke-linejoin: miter; stroke-linecap: square"/>
   </g>
  </g>
  <g id="text_14">
   <!-- Hist of times for 10k 1GeV mu- events; one segment -->
   <g transform="translate(57.563437 14.878125) scale(0.12 -0.12)">
    <defs>
     <path id="DejaVuSans-48" d="M 628 4666 
L 1259 4666 
L 1259 2753 
L 3553 2753 
L 3553 4666 
L 4184 4666 
L 4184 0 
L 3553 0 
L 3553 2222 
L 1259 2222 
L 1259 0 
L 628 0 
L 628 4666 
z
" transform="scale(0.015625)"/>
     <path id="DejaVuSans-20" transform="scale(0.015625)"/>
     <path id="DejaVuSans-66" d="M 2375 4863 
L 2375 4384 
L 1825 4384 
Q 1516 4384 1395 4259 
Q 1275 4134 1275 3809 
L 1275 3500 
L 2222 3500 
L 2222 3053 
L 1275 3053 
L 1275 0 
L 697 0 
L 697 3053 
L 147 3053 
L 147 3500 
L 697 3500 
L 697 3744 
Q 697 4328 969 4595 
Q 1241 4863 1831 4863 
L 2375 4863 
z
" transform="scale(0.015625)"/>
     <path id="DejaVuSans-72" d="M 2631 2963 
Q 2534 3019 2420 3045 
Q 2306 3072 2169 3072 
Q 1681 3072 1420 2755 
Q 1159 2438 1159 1844 
L 1159 0 
L 581 0 
L 581 3500 
L 1159 3500 
L 1159 2956 
Q 1341 3275 1631 3429 
Q 1922 3584 2338 3584 
Q 2397 3584 2469 3576 
Q 2541 3569 2628 3553 
L 2631 2963 
z
" transform="scale(0.015625)"/>
     <path id="DejaVuSans-6b" d="M 581 4863 
L 1159 4863 
L 1159 1991 
L 2875 3500 
L 3609 3500 
L 1753 1863 
L 3688 0 
L 2938 0 
L 1159 1709 
L 1159 0 
L 581 0 
L 581 4863 
z
" transform="scale(0.015625)"/>
     <path id="DejaVuSans-47" d="M 3809 666 
L 3809 1919 
L 2778 1919 
L 2778 2438 
L 4434 2438 
L 4434 434 
Q 4069 175 3628 42 
Q 3188 -91 2688 -91 
Q 1594 -91 976 548 
Q 359 1188 359 2328 
Q 359 3472 976 4111 
Q 1594 4750 2688 4750 
Q 3144 4750 3555 4637 
Q 3966 4525 4313 4306 
L 4313 3634 
Q 3963 3931 3569 4081 
Q 3175 4231 2741 4231 
Q 1884 4231 1454 3753 
Q 1025 3275 1025 2328 
Q 1025 1384 1454 906 
Q 1884 428 2741 428 
Q 3075 428 3337 486 
Q 3600 544 3809 666 
z
" transform="scale(0.015625)"/>
     <path id="DejaVuSans-56" d="M 1831 0 
L 50 4666 
L 709 4666 
L 2188 738 
L 3669 4666 
L 4325 4666 
L 2547 0 
L 1831 0 
z
" transform="scale(0.015625)"/>
     <path id="DejaVuSans-2d" d="M 313 2009 
L 1997 2009 
L 1997 1497 
L 313 1497 
L 313 2009 
z
" transform="scale(0.015625)"/>
     <path id="DejaVuSans-76" d="M 191 3500 
L 800 3500 
L 1894 563 
L 2988 3500 
L 3597 3500 
L 2284 0 
L 1503 0 
L 191 3500 
z
" transform="scale(0.015625)"/>
     <path id="DejaVuSans-3b" d="M 750 3309 
L 1409 3309 
L 1409 2516 
L 750 2516 
L 750 3309 
z
M 750 794 
L 1409 794 
L 1409 256 
L 897 -744 
L 494 -744 
L 750 256 
L 750 794 
z
" transform="scale(0.015625)"/>
     <path id="DejaVuSans-67" d="M 2906 1791 
Q 2906 2416 2648 2759 
Q 2391 3103 1925 3103 
Q 1463 3103 1205 2759 
Q 947 2416 947 1791 
Q 947 1169 1205 825 
Q 1463 481 1925 481 
Q 2391 481 2648 825 
Q 2906 1169 2906 1791 
z
M 3481 434 
Q 3481 -459 3084 -895 
Q 2688 -1331 1869 -1331 
Q 1566 -1331 1297 -1286 
Q 1028 -1241 775 -1147 
L 775 -588 
Q 1028 -725 1275 -790 
Q 1522 -856 1778 -856 
Q 2344 -856 2625 -561 
Q 2906 -266 2906 331 
L 2906 616 
Q 2728 306 2450 153 
Q 2172 0 1784 0 
Q 1141 0 747 490 
Q 353 981 353 1791 
Q 353 2603 747 3093 
Q 1141 3584 1784 3584 
Q 2172 3584 2450 3431 
Q 2728 3278 2906 2969 
L 2906 3500 
L 3481 3500 
L 3481 434 
z
" transform="scale(0.015625)"/>
    </defs>
    <use xlink:href="#DejaVuSans-48"/>
    <use xlink:href="#DejaVuSans-69" x="75.195312"/>
    <use xlink:href="#DejaVuSans-73" x="102.978516"/>
    <use xlink:href="#DejaVuSans-74" x="155.078125"/>
    <use xlink:href="#DejaVuSans-20" x="194.287109"/>
    <use xlink:href="#DejaVuSans-6f" x="226.074219"/>
    <use xlink:href="#DejaVuSans-66" x="287.255859"/>
    <use xlink:href="#DejaVuSans-20" x="322.460938"/>
    <use xlink:href="#DejaVuSans-74" x="354.248047"/>
    <use xlink:href="#DejaVuSans-69" x="393.457031"/>
    <use xlink:href="#DejaVuSans-6d" x="421.240234"/>
    <use xlink:href="#DejaVuSans-65" x="518.652344"/>
    <use xlink:href="#DejaVuSans-73" x="580.175781"/>
    <use xlink:href="#DejaVuSans-20" x="632.275391"/>
    <use xlink:href="#DejaVuSans-66" x="664.0625"/>
    <use xlink:href="#DejaVuSans-6f" x="699.267578"/>
    <use xlink:href="#DejaVuSans-72" x="760.449219"/>
    <use xlink:href="#DejaVuSans-20" x="801.5625"/>
    <use xlink:href="#DejaVuSans-31" x="833.349609"/>
    <use xlink:href="#DejaVuSans-30" x="896.972656"/>
    <use xlink:href="#DejaVuSans-6b" x="960.595703"/>
    <use xlink:href="#DejaVuSans-20" x="1018.505859"/>
    <use xlink:href="#DejaVuSans-31" x="1050.292969"/>
    <use xlink:href="#DejaVuSans-47" x="1113.916016"/>
    <use xlink:href="#DejaVuSans-65" x="1191.40625"/>
    <use xlink:href="#DejaVuSans-56" x="1252.929688"/>
    <use xlink:href="#DejaVuSans-20" x="1321.337891"/>
    <use xlink:href="#DejaVuSans-6d" x="1353.125"/>
    <use xlink:href="#DejaVuSans-75" x="1450.537109"/>
    <use xlink:href="#DejaVuSans-2d" x="1513.916016"/>
    <use xlink:href="#DejaVuSans-20" x="1550"/>
    <use xlink:href="#DejaVuSans-65" x="1581.787109"/>
    <use xlink:href="#DejaVuSans-76" x="1643.310547"/>
    <use xlink:href="#DejaVuSans-65" x="1702.490234"/>
    <use xlink:href="#DejaVuSans-6e" x="1764.013672"/>
    <use xlink:href="#DejaVuSans-74" x="1827.392578"/>
    <use xlink:href="#DejaVuSans-73" x="1866.601562"/>
    <use xlink:href="#DejaVuSans-3b" x="1918.701172"/>
    <use xlink:href="#DejaVuSans-20" x="1952.392578"/>
    <use xlink:href="#DejaVuSans-6f" x="1984.179688"/>
    <use xlink:href="#DejaVuSans-6e" x="2045.361328"/>
    <use xlink:href="#DejaVuSans-65" x="2108.740234"/>
    <use xlink:href="#DejaVuSans-20" x="2170.263672"/>
    <use xlink:href="#DejaVuSans-73" x="2202.050781"/>
    <use xlink:href="#DejaVuSans-65" x="2254.150391"/>
    <use xlink:href="#DejaVuSans-67" x="2315.673828"/>
    <use xlink:href="#DejaVuSans-6d" x="2379.150391"/>
    <use xlink:href="#DejaVuSans-65" x="2476.5625"/>
    <use xlink:href="#DejaVuSans-6e" x="2538.085938"/>
    <use xlink:href="#DejaVuSans-74" x="2601.464844"/>
   </g>
  </g>
 </g>
 <defs>
  <clipPath id="p9e2756d419">
   <rect x="54" y="34.56" width="334.8" height="217.44"/>
  </clipPath>
 </defs>
</svg>
