<?xml version="1.0" encoding="utf-8" standalone="no"?>
<!DOCTYPE svg PUBLIC "-//W3C//DTD SVG 1.1//EN"
  "http://www.w3.org/Graphics/SVG/1.1/DTD/svg11.dtd">
<svg xmlns:xlink="http://www.w3.org/1999/xlink" width="432pt" height="288pt" viewBox="0 0 432 288" xmlns="http://www.w3.org/2000/svg" version="1.1">
 <metadata>
  <rdf:RDF xmlns:dc="http://purl.org/dc/elements/1.1/" xmlns:cc="http://creativecommons.org/ns#" xmlns:rdf="http://www.w3.org/1999/02/22-rdf-syntax-ns#">
   <cc:Work>
    <dc:type rdf:resource="http://purl.org/dc/dcmitype/StillImage"/>
    <dc:date>2024-05-31T11:21:51.287732</dc:date>
    <dc:format>image/svg+xml</dc:format>
    <dc:creator>
     <cc:Agent>
      <dc:title>Matplotlib v3.7.4, https://matplotlib.org/</dc:title>
     </cc:Agent>
    </dc:creator>
   </cc:Work>
  </rdf:RDF>
 </metadata>
 <defs>
  <style type="text/css">*{stroke-linejoin: round; stroke-linecap: butt}</style>
 </defs>
 <g id="figure_1">
  <g id="patch_1">
   <path d="M 0 288 
L 432 288 
L 432 0 
L 0 0 
L 0 288 
z
" style="fill: none"/>
  </g>
  <g id="axes_1">
   <g id="patch_2">
    <path d="M 54 252 
L 388.8 252 
L 388.8 34.56 
L 54 34.56 
z
" style="fill: #ffffff"/>
   </g>
   <g id="patch_3">
    <path d="M 69.218182 252 
L 72.261824 252 
L 72.261824 251.214096 
L 69.218182 251.214096 
z
" clip-path="url(#pc486599c23)" style="fill: #008000; opacity: 0.75"/>
   </g>
   <g id="patch_4">
    <path d="M 72.261824 252 
L 75.305467 252 
L 75.305467 249.05286 
L 72.261824 249.05286 
z
" clip-path="url(#pc486599c23)" style="fill: #008000; opacity: 0.75"/>
   </g>
   <g id="patch_5">
    <path d="M 75.305467 252 
L 78.349082 252 
L 78.349082 248.266922 
L 75.305467 248.266922 
z
" clip-path="url(#pc486599c23)" style="fill: #008000; opacity: 0.75"/>
   </g>
   <g id="patch_6">
    <path d="M 78.349082 252 
L 81.392724 252 
L 81.392724 233.334779 
L 78.349082 233.334779 
z
" clip-path="url(#pc486599c23)" style="fill: #008000; opacity: 0.75"/>
   </g>
   <g id="patch_7">
    <path d="M 81.392724 252 
L 84.436366 252 
L 84.436366 156.709135 
L 81.392724 156.709135 
z
" clip-path="url(#pc486599c23)" style="fill: #008000; opacity: 0.75"/>
   </g>
   <g id="patch_8">
    <path d="M 84.436366 252 
L 87.480009 252 
L 87.480009 74.778639 
L 84.436366 74.778639 
z
" clip-path="url(#pc486599c23)" style="fill: #008000; opacity: 0.75"/>
   </g>
   <g id="patch_9">
    <path d="M 87.480009 252 
L 90.523624 252 
L 90.523624 45.894822 
L 87.480009 45.894822 
z
" clip-path="url(#pc486599c23)" style="fill: #008000; opacity: 0.75"/>
   </g>
   <g id="patch_10">
    <path d="M 90.523624 252 
L 93.567266 252 
L 93.567266 44.914286 
L 90.523624 44.914286 
z
" clip-path="url(#pc486599c23)" style="fill: #008000; opacity: 0.75"/>
   </g>
   <g id="patch_11">
    <path d="M 93.567266 252 
L 96.610909 252 
L 96.610909 67.901979 
L 93.567266 67.901979 
z
" clip-path="url(#pc486599c23)" style="fill: #008000; opacity: 0.75"/>
   </g>
   <g id="patch_12">
    <path d="M 96.610909 252 
L 99.654551 252 
L 99.654551 95.801572 
L 96.610909 95.801572 
z
" clip-path="url(#pc486599c23)" style="fill: #008000; opacity: 0.75"/>
   </g>
   <g id="patch_13">
    <path d="M 99.654551 252 
L 102.698193 252 
L 102.698193 114.663269 
L 99.654551 114.663269 
z
" clip-path="url(#pc486599c23)" style="fill: #008000; opacity: 0.75"/>
   </g>
   <g id="patch_14">
    <path d="M 102.698193 252 
L 105.741808 252 
L 105.741808 126.843662 
L 102.698193 126.843662 
z
" clip-path="url(#pc486599c23)" style="fill: #008000; opacity: 0.75"/>
   </g>
   <g id="patch_15">
    <path d="M 105.741808 252 
L 108.785451 252 
L 108.785451 148.850095 
L 105.741808 148.850095 
z
" clip-path="url(#pc486599c23)" style="fill: #008000; opacity: 0.75"/>
   </g>
   <g id="patch_16">
    <path d="M 108.785451 252 
L 111.829093 252 
L 111.829093 163.192844 
L 108.785451 163.192844 
z
" clip-path="url(#pc486599c23)" style="fill: #008000; opacity: 0.75"/>
   </g>
   <g id="patch_17">
    <path d="M 111.829093 252 
L 114.872735 252 
L 114.872735 176.553212 
L 111.829093 176.553212 
z
" clip-path="url(#pc486599c23)" style="fill: #008000; opacity: 0.75"/>
   </g>
   <g id="patch_18">
    <path d="M 114.872735 252 
L 117.916351 252 
L 117.916351 190.305981 
L 114.872735 190.305981 
z
" clip-path="url(#pc486599c23)" style="fill: #008000; opacity: 0.75"/>
   </g>
   <g id="patch_19">
    <path d="M 117.916351 252 
L 120.959993 252 
L 120.959993 191.681865 
L 117.916351 191.681865 
z
" clip-path="url(#pc486599c23)" style="fill: #008000; opacity: 0.75"/>
   </g>
   <g id="patch_20">
    <path d="M 120.959993 252 
L 124.003635 252 
L 124.003635 201.112713 
L 120.959993 201.112713 
z
" clip-path="url(#pc486599c23)" style="fill: #008000; opacity: 0.75"/>
   </g>
   <g id="patch_21">
    <path d="M 124.003635 252 
L 127.047278 252 
L 127.047278 219.581458 
L 124.003635 219.581458 
z
" clip-path="url(#pc486599c23)" style="fill: #008000; opacity: 0.75"/>
   </g>
   <g id="patch_22">
    <path d="M 127.047278 252 
L 130.09092 252 
L 130.09092 221.939171 
L 127.047278 221.939171 
z
" clip-path="url(#pc486599c23)" style="fill: #008000; opacity: 0.75"/>
   </g>
   <g id="patch_23">
    <path d="M 130.09092 252 
L 133.134535 252 
L 133.134535 233.138134 
L 130.09092 233.138134 
z
" clip-path="url(#pc486599c23)" style="fill: #008000; opacity: 0.75"/>
   </g>
   <g id="patch_24">
    <path d="M 133.134535 252 
L 136.178177 252 
L 136.178177 239.229059 
L 133.134535 239.229059 
z
" clip-path="url(#pc486599c23)" style="fill: #008000; opacity: 0.75"/>
   </g>
   <g id="patch_25">
    <path d="M 136.178177 252 
L 139.22182 252 
L 139.22182 241.979724 
L 136.178177 241.979724 
z
" clip-path="url(#pc486599c23)" style="fill: #008000; opacity: 0.75"/>
   </g>
   <g id="patch_26">
    <path d="M 139.22182 252 
L 142.265462 252 
L 142.265462 242.962104 
L 139.22182 242.962104 
z
" clip-path="url(#pc486599c23)" style="fill: #008000; opacity: 0.75"/>
   </g>
   <g id="patch_27">
    <path d="M 142.265462 252 
L 145.309077 252 
L 145.309077 244.140889 
L 142.265462 244.140889 
z
" clip-path="url(#pc486599c23)" style="fill: #008000; opacity: 0.75"/>
   </g>
   <g id="patch_28">
    <path d="M 145.309077 252 
L 148.35272 252 
L 148.35272 244.533912 
L 145.309077 244.533912 
z
" clip-path="url(#pc486599c23)" style="fill: #008000; opacity: 0.75"/>
   </g>
   <g id="patch_29">
    <path d="M 148.35272 252 
L 151.396362 252 
L 151.396362 244.730388 
L 148.35272 244.730388 
z
" clip-path="url(#pc486599c23)" style="fill: #008000; opacity: 0.75"/>
   </g>
   <g id="patch_30">
    <path d="M 151.396362 252 
L 154.440004 252 
L 154.440004 247.284576 
L 151.396362 247.284576 
z
" clip-path="url(#pc486599c23)" style="fill: #008000; opacity: 0.75"/>
   </g>
   <g id="patch_31">
    <path d="M 154.440004 252 
L 157.483647 252 
L 157.483647 247.677528 
L 154.440004 247.677528 
z
" clip-path="url(#pc486599c23)" style="fill: #008000; opacity: 0.75"/>
   </g>
   <g id="patch_32">
    <path d="M 157.483647 252 
L 160.527262 252 
L 160.527262 249.838745 
L 157.483647 249.838745 
z
" clip-path="url(#pc486599c23)" style="fill: #008000; opacity: 0.75"/>
   </g>
   <g id="patch_33">
    <path d="M 160.527262 252 
L 163.570904 252 
L 163.570904 249.05286 
L 160.527262 249.05286 
z
" clip-path="url(#pc486599c23)" style="fill: #008000; opacity: 0.75"/>
   </g>
   <g id="patch_34">
    <path d="M 163.570904 252 
L 166.614547 252 
L 166.614547 250.03524 
L 163.570904 250.03524 
z
" clip-path="url(#pc486599c23)" style="fill: #008000; opacity: 0.75"/>
   </g>
   <g id="patch_35">
    <path d="M 166.614547 252 
L 169.658189 252 
L 169.658189 250.03524 
L 166.614547 250.03524 
z
" clip-path="url(#pc486599c23)" style="fill: #008000; opacity: 0.75"/>
   </g>
   <g id="patch_36">
    <path d="M 169.658189 252 
L 172.701831 252 
L 172.701831 250.821144 
L 169.658189 250.821144 
z
" clip-path="url(#pc486599c23)" style="fill: #008000; opacity: 0.75"/>
   </g>
   <g id="patch_37">
    <path d="M 172.701831 252 
L 175.745446 252 
L 175.745446 250.624656 
L 172.701831 250.624656 
z
" clip-path="url(#pc486599c23)" style="fill: #008000; opacity: 0.75"/>
   </g>
   <g id="patch_38">
    <path d="M 175.745446 252 
L 178.789089 252 
L 178.789089 251.214096 
L 175.745446 251.214096 
z
" clip-path="url(#pc486599c23)" style="fill: #008000; opacity: 0.75"/>
   </g>
   <g id="patch_39">
    <path d="M 178.789089 252 
L 181.832731 252 
L 181.832731 250.624668 
L 178.789089 250.624668 
z
" clip-path="url(#pc486599c23)" style="fill: #008000; opacity: 0.75"/>
   </g>
   <g id="patch_40">
    <path d="M 181.832731 252 
L 184.876373 252 
L 184.876373 251.214096 
L 181.832731 251.214096 
z
" clip-path="url(#pc486599c23)" style="fill: #008000; opacity: 0.75"/>
   </g>
   <g id="patch_41">
    <path d="M 184.876373 252 
L 187.919989 252 
L 187.919989 251.410567 
L 184.876373 251.410567 
z
" clip-path="url(#pc486599c23)" style="fill: #008000; opacity: 0.75"/>
   </g>
   <g id="patch_42">
    <path d="M 187.919989 252 
L 190.963631 252 
L 190.963631 251.410572 
L 187.919989 251.410572 
z
" clip-path="url(#pc486599c23)" style="fill: #008000; opacity: 0.75"/>
   </g>
   <g id="patch_43">
    <path d="M 190.963631 252 
L 194.007273 252 
L 194.007273 251.607048 
L 190.963631 251.607048 
z
" clip-path="url(#pc486599c23)" style="fill: #008000; opacity: 0.75"/>
   </g>
   <g id="patch_44">
    <path d="M 194.007273 252 
L 197.050916 252 
L 197.050916 251.410572 
L 194.007273 251.410572 
z
" clip-path="url(#pc486599c23)" style="fill: #008000; opacity: 0.75"/>
   </g>
   <g id="patch_45">
    <path d="M 197.050916 252 
L 200.094558 252 
L 200.094558 251.607048 
L 197.050916 251.607048 
z
" clip-path="url(#pc486599c23)" style="fill: #008000; opacity: 0.75"/>
   </g>
   <g id="patch_46">
    <path d="M 200.094558 252 
L 203.138173 252 
L 203.138173 251.410567 
L 200.094558 251.410567 
z
" clip-path="url(#pc486599c23)" style="fill: #008000; opacity: 0.75"/>
   </g>
   <g id="patch_47">
    <path d="M 203.138173 252 
L 206.181815 252 
L 206.181815 251.803524 
L 203.138173 251.803524 
z
" clip-path="url(#pc486599c23)" style="fill: #008000; opacity: 0.75"/>
   </g>
   <g id="patch_48">
    <path d="M 206.181815 252 
L 209.225458 252 
L 209.225458 252 
L 206.181815 252 
z
" clip-path="url(#pc486599c23)" style="fill: #008000; opacity: 0.75"/>
   </g>
   <g id="patch_49">
    <path d="M 209.225458 252 
L 212.2691 252 
L 212.2691 251.01762 
L 209.225458 251.01762 
z
" clip-path="url(#pc486599c23)" style="fill: #008000; opacity: 0.75"/>
   </g>
   <g id="patch_50">
    <path d="M 212.2691 252 
L 215.312743 252 
L 215.312743 252 
L 212.2691 252 
z
" clip-path="url(#pc486599c23)" style="fill: #008000; opacity: 0.75"/>
   </g>
   <g id="patch_51">
    <path d="M 215.312743 252 
L 218.356385 252 
L 218.356385 251.803524 
L 215.312743 251.803524 
z
" clip-path="url(#pc486599c23)" style="fill: #008000; opacity: 0.75"/>
   </g>
   <g id="patch_52">
    <path d="M 218.356385 252 
L 221.399973 252 
L 221.399973 252 
L 218.356385 252 
z
" clip-path="url(#pc486599c23)" style="fill: #008000; opacity: 0.75"/>
   </g>
   <g id="patch_53">
    <path d="M 221.399973 252 
L 224.443615 252 
L 224.443615 252 
L 221.399973 252 
z
" clip-path="url(#pc486599c23)" style="fill: #008000; opacity: 0.75"/>
   </g>
   <g id="patch_54">
    <path d="M 224.443615 252 
L 227.487257 252 
L 227.487257 252 
L 224.443615 252 
z
" clip-path="url(#pc486599c23)" style="fill: #008000; opacity: 0.75"/>
   </g>
   <g id="patch_55">
    <path d="M 227.487257 252 
L 230.5309 252 
L 230.5309 252 
L 227.487257 252 
z
" clip-path="url(#pc486599c23)" style="fill: #008000; opacity: 0.75"/>
   </g>
   <g id="patch_56">
    <path d="M 230.5309 252 
L 233.574542 252 
L 233.574542 252 
L 230.5309 252 
z
" clip-path="url(#pc486599c23)" style="fill: #008000; opacity: 0.75"/>
   </g>
   <g id="patch_57">
    <path d="M 233.574542 252 
L 236.618185 252 
L 236.618185 251.803524 
L 233.574542 251.803524 
z
" clip-path="url(#pc486599c23)" style="fill: #008000; opacity: 0.75"/>
   </g>
   <g id="patch_58">
    <path d="M 236.618185 252 
L 239.661827 252 
L 239.661827 251.803524 
L 236.618185 251.803524 
z
" clip-path="url(#pc486599c23)" style="fill: #008000; opacity: 0.75"/>
   </g>
   <g id="patch_59">
    <path d="M 239.661827 252 
L 242.705469 252 
L 242.705469 252 
L 239.661827 252 
z
" clip-path="url(#pc486599c23)" style="fill: #008000; opacity: 0.75"/>
   </g>
   <g id="patch_60">
    <path d="M 242.705469 252 
L 245.749112 252 
L 245.749112 252 
L 242.705469 252 
z
" clip-path="url(#pc486599c23)" style="fill: #008000; opacity: 0.75"/>
   </g>
   <g id="patch_61">
    <path d="M 245.749112 252 
L 248.792754 252 
L 248.792754 252 
L 245.749112 252 
z
" clip-path="url(#pc486599c23)" style="fill: #008000; opacity: 0.75"/>
   </g>
   <g id="patch_62">
    <path d="M 248.792754 252 
L 251.836342 252 
L 251.836342 252 
L 248.792754 252 
z
" clip-path="url(#pc486599c23)" style="fill: #008000; opacity: 0.75"/>
   </g>
   <g id="patch_63">
    <path d="M 251.836342 252 
L 254.879984 252 
L 254.879984 251.607048 
L 251.836342 251.607048 
z
" clip-path="url(#pc486599c23)" style="fill: #008000; opacity: 0.75"/>
   </g>
   <g id="patch_64">
    <path d="M 254.879984 252 
L 257.923627 252 
L 257.923627 251.803524 
L 254.879984 251.803524 
z
" clip-path="url(#pc486599c23)" style="fill: #008000; opacity: 0.75"/>
   </g>
   <g id="patch_65">
    <path d="M 257.923627 252 
L 260.967269 252 
L 260.967269 252 
L 257.923627 252 
z
" clip-path="url(#pc486599c23)" style="fill: #008000; opacity: 0.75"/>
   </g>
   <g id="patch_66">
    <path d="M 260.967269 252 
L 264.010911 252 
L 264.010911 252 
L 260.967269 252 
z
" clip-path="url(#pc486599c23)" style="fill: #008000; opacity: 0.75"/>
   </g>
   <g id="patch_67">
    <path d="M 264.010911 252 
L 267.054554 252 
L 267.054554 252 
L 264.010911 252 
z
" clip-path="url(#pc486599c23)" style="fill: #008000; opacity: 0.75"/>
   </g>
   <g id="patch_68">
    <path d="M 267.054554 252 
L 270.098196 252 
L 270.098196 251.803524 
L 267.054554 251.803524 
z
" clip-path="url(#pc486599c23)" style="fill: #008000; opacity: 0.75"/>
   </g>
   <g id="patch_69">
    <path d="M 270.098196 252 
L 273.141838 252 
L 273.141838 252 
L 270.098196 252 
z
" clip-path="url(#pc486599c23)" style="fill: #008000; opacity: 0.75"/>
   </g>
   <g id="patch_70">
    <path d="M 273.141838 252 
L 276.185481 252 
L 276.185481 252 
L 273.141838 252 
z
" clip-path="url(#pc486599c23)" style="fill: #008000; opacity: 0.75"/>
   </g>
   <g id="patch_71">
    <path d="M 276.185481 252 
L 279.229069 252 
L 279.229069 251.80352 
L 276.185481 251.80352 
z
" clip-path="url(#pc486599c23)" style="fill: #008000; opacity: 0.75"/>
   </g>
   <g id="patch_72">
    <path d="M 279.229069 252 
L 282.272711 252 
L 282.272711 252 
L 279.229069 252 
z
" clip-path="url(#pc486599c23)" style="fill: #008000; opacity: 0.75"/>
   </g>
   <g id="patch_73">
    <path d="M 282.272711 252 
L 285.316353 252 
L 285.316353 251.803524 
L 282.272711 251.803524 
z
" clip-path="url(#pc486599c23)" style="fill: #008000; opacity: 0.75"/>
   </g>
   <g id="patch_74">
    <path d="M 285.316353 252 
L 288.359996 252 
L 288.359996 252 
L 285.316353 252 
z
" clip-path="url(#pc486599c23)" style="fill: #008000; opacity: 0.75"/>
   </g>
   <g id="patch_75">
    <path d="M 288.359996 252 
L 291.403638 252 
L 291.403638 252 
L 288.359996 252 
z
" clip-path="url(#pc486599c23)" style="fill: #008000; opacity: 0.75"/>
   </g>
   <g id="patch_76">
    <path d="M 291.403638 252 
L 294.44728 252 
L 294.44728 252 
L 291.403638 252 
z
" clip-path="url(#pc486599c23)" style="fill: #008000; opacity: 0.75"/>
   </g>
   <g id="patch_77">
    <path d="M 294.44728 252 
L 297.490923 252 
L 297.490923 252 
L 294.44728 252 
z
" clip-path="url(#pc486599c23)" style="fill: #008000; opacity: 0.75"/>
   </g>
   <g id="patch_78">
    <path d="M 297.490923 252 
L 300.534565 252 
L 300.534565 252 
L 297.490923 252 
z
" clip-path="url(#pc486599c23)" style="fill: #008000; opacity: 0.75"/>
   </g>
   <g id="patch_79">
    <path d="M 300.534565 252 
L 303.578207 252 
L 303.578207 252 
L 300.534565 252 
z
" clip-path="url(#pc486599c23)" style="fill: #008000; opacity: 0.75"/>
   </g>
   <g id="patch_80">
    <path d="M 303.578207 252 
L 306.621795 252 
L 306.621795 252 
L 303.578207 252 
z
" clip-path="url(#pc486599c23)" style="fill: #008000; opacity: 0.75"/>
   </g>
   <g id="patch_81">
    <path d="M 306.621795 252 
L 309.665438 252 
L 309.665438 252 
L 306.621795 252 
z
" clip-path="url(#pc486599c23)" style="fill: #008000; opacity: 0.75"/>
   </g>
   <g id="patch_82">
    <path d="M 309.665438 252 
L 312.70908 252 
L 312.70908 252 
L 309.665438 252 
z
" clip-path="url(#pc486599c23)" style="fill: #008000; opacity: 0.75"/>
   </g>
   <g id="patch_83">
    <path d="M 312.70908 252 
L 315.752722 252 
L 315.752722 252 
L 312.70908 252 
z
" clip-path="url(#pc486599c23)" style="fill: #008000; opacity: 0.75"/>
   </g>
   <g id="patch_84">
    <path d="M 315.752722 252 
L 318.796365 252 
L 318.796365 252 
L 315.752722 252 
z
" clip-path="url(#pc486599c23)" style="fill: #008000; opacity: 0.75"/>
   </g>
   <g id="patch_85">
    <path d="M 318.796365 252 
L 321.840007 252 
L 321.840007 252 
L 318.796365 252 
z
" clip-path="url(#pc486599c23)" style="fill: #008000; opacity: 0.75"/>
   </g>
   <g id="patch_86">
    <path d="M 321.840007 252 
L 324.883649 252 
L 324.883649 252 
L 321.840007 252 
z
" clip-path="url(#pc486599c23)" style="fill: #008000; opacity: 0.75"/>
   </g>
   <g id="patch_87">
    <path d="M 324.883649 252 
L 327.927292 252 
L 327.927292 251.803524 
L 324.883649 251.803524 
z
" clip-path="url(#pc486599c23)" style="fill: #008000; opacity: 0.75"/>
   </g>
   <g id="patch_88">
    <path d="M 327.927292 252 
L 330.970934 252 
L 330.970934 252 
L 327.927292 252 
z
" clip-path="url(#pc486599c23)" style="fill: #008000; opacity: 0.75"/>
   </g>
   <g id="patch_89">
    <path d="M 330.970934 252 
L 334.014522 252 
L 334.014522 252 
L 330.970934 252 
z
" clip-path="url(#pc486599c23)" style="fill: #008000; opacity: 0.75"/>
   </g>
   <g id="patch_90">
    <path d="M 334.014522 252 
L 337.058164 252 
L 337.058164 252 
L 334.014522 252 
z
" clip-path="url(#pc486599c23)" style="fill: #008000; opacity: 0.75"/>
   </g>
   <g id="patch_91">
    <path d="M 337.058164 252 
L 340.101807 252 
L 340.101807 252 
L 337.058164 252 
z
" clip-path="url(#pc486599c23)" style="fill: #008000; opacity: 0.75"/>
   </g>
   <g id="patch_92">
    <path d="M 340.101807 252 
L 343.145449 252 
L 343.145449 252 
L 340.101807 252 
z
" clip-path="url(#pc486599c23)" style="fill: #008000; opacity: 0.75"/>
   </g>
   <g id="patch_93">
    <path d="M 343.145449 252 
L 346.189091 252 
L 346.189091 252 
L 343.145449 252 
z
" clip-path="url(#pc486599c23)" style="fill: #008000; opacity: 0.75"/>
   </g>
   <g id="patch_94">
    <path d="M 346.189091 252 
L 349.232734 252 
L 349.232734 252 
L 346.189091 252 
z
" clip-path="url(#pc486599c23)" style="fill: #008000; opacity: 0.75"/>
   </g>
   <g id="patch_95">
    <path d="M 349.232734 252 
L 352.276376 252 
L 352.276376 252 
L 349.232734 252 
z
" clip-path="url(#pc486599c23)" style="fill: #008000; opacity: 0.75"/>
   </g>
   <g id="patch_96">
    <path d="M 352.276376 252 
L 355.320019 252 
L 355.320019 252 
L 352.276376 252 
z
" clip-path="url(#pc486599c23)" style="fill: #008000; opacity: 0.75"/>
   </g>
   <g id="patch_97">
    <path d="M 355.320019 252 
L 358.363661 252 
L 358.363661 252 
L 355.320019 252 
z
" clip-path="url(#pc486599c23)" style="fill: #008000; opacity: 0.75"/>
   </g>
   <g id="patch_98">
    <path d="M 358.363661 252 
L 361.407249 252 
L 361.407249 252 
L 358.363661 252 
z
" clip-path="url(#pc486599c23)" style="fill: #008000; opacity: 0.75"/>
   </g>
   <g id="patch_99">
    <path d="M 361.407249 252 
L 364.450891 252 
L 364.450891 252 
L 361.407249 252 
z
" clip-path="url(#pc486599c23)" style="fill: #008000; opacity: 0.75"/>
   </g>
   <g id="patch_100">
    <path d="M 364.450891 252 
L 367.494533 252 
L 367.494533 252 
L 364.450891 252 
z
" clip-path="url(#pc486599c23)" style="fill: #008000; opacity: 0.75"/>
   </g>
   <g id="patch_101">
    <path d="M 367.494533 252 
L 370.538176 252 
L 370.538176 252 
L 367.494533 252 
z
" clip-path="url(#pc486599c23)" style="fill: #008000; opacity: 0.75"/>
   </g>
   <g id="patch_102">
    <path d="M 370.538176 252 
L 373.581818 252 
L 373.581818 251.803524 
L 370.538176 251.803524 
z
" clip-path="url(#pc486599c23)" style="fill: #008000; opacity: 0.75"/>
   </g>
   <g id="matplotlib.axis_1">
    <g id="xtick_1">
     <g id="line2d_1">
      <path d="M 88.462766 252 
L 88.462766 34.56 
" clip-path="url(#pc486599c23)" style="fill: none; stroke: #b0b0b0; stroke-width: 0.8; stroke-linecap: square"/>
     </g>
     <g id="line2d_2">
      <defs>
       <path id="m751adaa02b" d="M 0 0 
L 0 3.5 
" style="stroke: #000000; stroke-width: 0.8"/>
      </defs>
      <g>
       <use xlink:href="#m751adaa02b" x="88.462766" y="252" style="stroke: #000000; stroke-width: 0.8"/>
      </g>
     </g>
     <g id="text_1">
      <!-- 12 -->
      <g transform="translate(82.100266 266.598437) scale(0.1 -0.1)">
       <defs>
        <path id="DejaVuSans-31" d="M 794 531 
L 1825 531 
L 1825 4091 
L 703 3866 
L 703 4441 
L 1819 4666 
L 2450 4666 
L 2450 531 
L 3481 531 
L 3481 0 
L 794 0 
L 794 531 
z
" transform="scale(0.015625)"/>
        <path id="DejaVuSans-32" d="M 1228 531 
L 3431 531 
L 3431 0 
L 469 0 
L 469 531 
Q 828 903 1448 1529 
Q 2069 2156 2228 2338 
Q 2531 2678 2651 2914 
Q 2772 3150 2772 3378 
Q 2772 3750 2511 3984 
Q 2250 4219 1831 4219 
Q 1534 4219 1204 4116 
Q 875 4013 500 3803 
L 500 4441 
Q 881 4594 1212 4672 
Q 1544 4750 1819 4750 
Q 2544 4750 2975 4387 
Q 3406 4025 3406 3419 
Q 3406 3131 3298 2873 
Q 3191 2616 2906 2266 
Q 2828 2175 2409 1742 
Q 1991 1309 1228 531 
z
" transform="scale(0.015625)"/>
       </defs>
       <use xlink:href="#DejaVuSans-31"/>
       <use xlink:href="#DejaVuSans-32" x="63.623047"/>
      </g>
     </g>
    </g>
    <g id="xtick_2">
     <g id="line2d_3">
      <path d="M 145.55868 252 
L 145.55868 34.56 
" clip-path="url(#pc486599c23)" style="fill: none; stroke: #b0b0b0; stroke-width: 0.8; stroke-linecap: square"/>
     </g>
     <g id="line2d_4">
      <g>
       <use xlink:href="#m751adaa02b" x="145.55868" y="252" style="stroke: #000000; stroke-width: 0.8"/>
      </g>
     </g>
     <g id="text_2">
      <!-- 14 -->
      <g transform="translate(139.19618 266.598437) scale(0.1 -0.1)">
       <defs>
        <path id="DejaVuSans-34" d="M 2419 4116 
L 825 1625 
L 2419 1625 
L 2419 4116 
z
M 2253 4666 
L 3047 4666 
L 3047 1625 
L 3713 1625 
L 3713 1100 
L 3047 1100 
L 3047 0 
L 2419 0 
L 2419 1100 
L 313 1100 
L 313 1709 
L 2253 4666 
z
" transform="scale(0.015625)"/>
       </defs>
       <use xlink:href="#DejaVuSans-31"/>
       <use xlink:href="#DejaVuSans-34" x="63.623047"/>
      </g>
     </g>
    </g>
    <g id="xtick_3">
     <g id="line2d_5">
      <path d="M 202.654595 252 
L 202.654595 34.56 
" clip-path="url(#pc486599c23)" style="fill: none; stroke: #b0b0b0; stroke-width: 0.8; stroke-linecap: square"/>
     </g>
     <g id="line2d_6">
      <g>
       <use xlink:href="#m751adaa02b" x="202.654595" y="252" style="stroke: #000000; stroke-width: 0.8"/>
      </g>
     </g>
     <g id="text_3">
      <!-- 16 -->
      <g transform="translate(196.292095 266.598437) scale(0.1 -0.1)">
       <defs>
        <path id="DejaVuSans-36" d="M 2113 2584 
Q 1688 2584 1439 2293 
Q 1191 2003 1191 1497 
Q 1191 994 1439 701 
Q 1688 409 2113 409 
Q 2538 409 2786 701 
Q 3034 994 3034 1497 
Q 3034 2003 2786 2293 
Q 2538 2584 2113 2584 
z
M 3366 4563 
L 3366 3988 
Q 3128 4100 2886 4159 
Q 2644 4219 2406 4219 
Q 1781 4219 1451 3797 
Q 1122 3375 1075 2522 
Q 1259 2794 1537 2939 
Q 1816 3084 2150 3084 
Q 2853 3084 3261 2657 
Q 3669 2231 3669 1497 
Q 3669 778 3244 343 
Q 2819 -91 2113 -91 
Q 1303 -91 875 529 
Q 447 1150 447 2328 
Q 447 3434 972 4092 
Q 1497 4750 2381 4750 
Q 2619 4750 2861 4703 
Q 3103 4656 3366 4563 
z
" transform="scale(0.015625)"/>
       </defs>
       <use xlink:href="#DejaVuSans-31"/>
       <use xlink:href="#DejaVuSans-36" x="63.623047"/>
      </g>
     </g>
    </g>
    <g id="xtick_4">
     <g id="line2d_7">
      <path d="M 259.750509 252 
L 259.750509 34.56 
" clip-path="url(#pc486599c23)" style="fill: none; stroke: #b0b0b0; stroke-width: 0.8; stroke-linecap: square"/>
     </g>
     <g id="line2d_8">
      <g>
       <use xlink:href="#m751adaa02b" x="259.750509" y="252" style="stroke: #000000; stroke-width: 0.8"/>
      </g>
     </g>
     <g id="text_4">
      <!-- 18 -->
      <g transform="translate(253.388009 266.598437) scale(0.1 -0.1)">
       <defs>
        <path id="DejaVuSans-38" d="M 2034 2216 
Q 1584 2216 1326 1975 
Q 1069 1734 1069 1313 
Q 1069 891 1326 650 
Q 1584 409 2034 409 
Q 2484 409 2743 651 
Q 3003 894 3003 1313 
Q 3003 1734 2745 1975 
Q 2488 2216 2034 2216 
z
M 1403 2484 
Q 997 2584 770 2862 
Q 544 3141 544 3541 
Q 544 4100 942 4425 
Q 1341 4750 2034 4750 
Q 2731 4750 3128 4425 
Q 3525 4100 3525 3541 
Q 3525 3141 3298 2862 
Q 3072 2584 2669 2484 
Q 3125 2378 3379 2068 
Q 3634 1759 3634 1313 
Q 3634 634 3220 271 
Q 2806 -91 2034 -91 
Q 1263 -91 848 271 
Q 434 634 434 1313 
Q 434 1759 690 2068 
Q 947 2378 1403 2484 
z
M 1172 3481 
Q 1172 3119 1398 2916 
Q 1625 2713 2034 2713 
Q 2441 2713 2670 2916 
Q 2900 3119 2900 3481 
Q 2900 3844 2670 4047 
Q 2441 4250 2034 4250 
Q 1625 4250 1398 4047 
Q 1172 3844 1172 3481 
z
" transform="scale(0.015625)"/>
       </defs>
       <use xlink:href="#DejaVuSans-31"/>
       <use xlink:href="#DejaVuSans-38" x="63.623047"/>
      </g>
     </g>
    </g>
    <g id="xtick_5">
     <g id="line2d_9">
      <path d="M 316.846423 252 
L 316.846423 34.56 
" clip-path="url(#pc486599c23)" style="fill: none; stroke: #b0b0b0; stroke-width: 0.8; stroke-linecap: square"/>
     </g>
     <g id="line2d_10">
      <g>
       <use xlink:href="#m751adaa02b" x="316.846423" y="252" style="stroke: #000000; stroke-width: 0.8"/>
      </g>
     </g>
     <g id="text_5">
      <!-- 20 -->
      <g transform="translate(310.483923 266.598437) scale(0.1 -0.1)">
       <defs>
        <path id="DejaVuSans-30" d="M 2034 4250 
Q 1547 4250 1301 3770 
Q 1056 3291 1056 2328 
Q 1056 1369 1301 889 
Q 1547 409 2034 409 
Q 2525 409 2770 889 
Q 3016 1369 3016 2328 
Q 3016 3291 2770 3770 
Q 2525 4250 2034 4250 
z
M 2034 4750 
Q 2819 4750 3233 4129 
Q 3647 3509 3647 2328 
Q 3647 1150 3233 529 
Q 2819 -91 2034 -91 
Q 1250 -91 836 529 
Q 422 1150 422 2328 
Q 422 3509 836 4129 
Q 1250 4750 2034 4750 
z
" transform="scale(0.015625)"/>
       </defs>
       <use xlink:href="#DejaVuSans-32"/>
       <use xlink:href="#DejaVuSans-30" x="63.623047"/>
      </g>
     </g>
    </g>
    <g id="xtick_6">
     <g id="line2d_11">
      <path d="M 373.942338 252 
L 373.942338 34.56 
" clip-path="url(#pc486599c23)" style="fill: none; stroke: #b0b0b0; stroke-width: 0.8; stroke-linecap: square"/>
     </g>
     <g id="line2d_12">
      <g>
       <use xlink:href="#m751adaa02b" x="373.942338" y="252" style="stroke: #000000; stroke-width: 0.8"/>
      </g>
     </g>
     <g id="text_6">
      <!-- 22 -->
      <g transform="translate(367.579838 266.598437) scale(0.1 -0.1)">
       <use xlink:href="#DejaVuSans-32"/>
       <use xlink:href="#DejaVuSans-32" x="63.623047"/>
      </g>
     </g>
    </g>
    <g id="text_7">
     <!-- Time -->
     <g transform="translate(209.166406 280.276563) scale(0.1 -0.1)">
      <defs>
       <path id="DejaVuSans-54" d="M -19 4666 
L 3928 4666 
L 3928 4134 
L 2272 4134 
L 2272 0 
L 1638 0 
L 1638 4134 
L -19 4134 
L -19 4666 
z
" transform="scale(0.015625)"/>
       <path id="DejaVuSans-69" d="M 603 3500 
L 1178 3500 
L 1178 0 
L 603 0 
L 603 3500 
z
M 603 4863 
L 1178 4863 
L 1178 4134 
L 603 4134 
L 603 4863 
z
" transform="scale(0.015625)"/>
       <path id="DejaVuSans-6d" d="M 3328 2828 
Q 3544 3216 3844 3400 
Q 4144 3584 4550 3584 
Q 5097 3584 5394 3201 
Q 5691 2819 5691 2113 
L 5691 0 
L 5113 0 
L 5113 2094 
Q 5113 2597 4934 2840 
Q 4756 3084 4391 3084 
Q 3944 3084 3684 2787 
Q 3425 2491 3425 1978 
L 3425 0 
L 2847 0 
L 2847 2094 
Q 2847 2600 2669 2842 
Q 2491 3084 2119 3084 
Q 1678 3084 1418 2786 
Q 1159 2488 1159 1978 
L 1159 0 
L 581 0 
L 581 3500 
L 1159 3500 
L 1159 2956 
Q 1356 3278 1631 3431 
Q 1906 3584 2284 3584 
Q 2666 3584 2933 3390 
Q 3200 3197 3328 2828 
z
" transform="scale(0.015625)"/>
       <path id="DejaVuSans-65" d="M 3597 1894 
L 3597 1613 
L 953 1613 
Q 991 1019 1311 708 
Q 1631 397 2203 397 
Q 2534 397 2845 478 
Q 3156 559 3463 722 
L 3463 178 
Q 3153 47 2828 -22 
Q 2503 -91 2169 -91 
Q 1331 -91 842 396 
Q 353 884 353 1716 
Q 353 2575 817 3079 
Q 1281 3584 2069 3584 
Q 2775 3584 3186 3129 
Q 3597 2675 3597 1894 
z
M 3022 2063 
Q 3016 2534 2758 2815 
Q 2500 3097 2075 3097 
Q 1594 3097 1305 2825 
Q 1016 2553 972 2059 
L 3022 2063 
z
" transform="scale(0.015625)"/>
      </defs>
      <use xlink:href="#DejaVuSans-54"/>
      <use xlink:href="#DejaVuSans-69" x="57.958984"/>
      <use xlink:href="#DejaVuSans-6d" x="85.742188"/>
      <use xlink:href="#DejaVuSans-65" x="183.154297"/>
     </g>
    </g>
   </g>
   <g id="matplotlib.axis_2">
    <g id="ytick_1">
     <g id="line2d_13">
      <path d="M 54 252 
L 388.8 252 
" clip-path="url(#pc486599c23)" style="fill: none; stroke: #b0b0b0; stroke-width: 0.8; stroke-linecap: square"/>
     </g>
     <g id="line2d_14">
      <defs>
       <path id="m76bb052fdc" d="M 0 0 
L -3.5 0 
" style="stroke: #000000; stroke-width: 0.8"/>
      </defs>
      <g>
       <use xlink:href="#m76bb052fdc" x="54" y="252" style="stroke: #000000; stroke-width: 0.8"/>
      </g>
     </g>
     <g id="text_8">
      <!-- 0.0 -->
      <g transform="translate(31.096875 255.799219) scale(0.1 -0.1)">
       <defs>
        <path id="DejaVuSans-2e" d="M 684 794 
L 1344 794 
L 1344 0 
L 684 0 
L 684 794 
z
" transform="scale(0.015625)"/>
       </defs>
       <use xlink:href="#DejaVuSans-30"/>
       <use xlink:href="#DejaVuSans-2e" x="63.623047"/>
       <use xlink:href="#DejaVuSans-30" x="95.410156"/>
      </g>
     </g>
    </g>
    <g id="ytick_2">
     <g id="line2d_15">
      <path d="M 54 211.043833 
L 388.8 211.043833 
" clip-path="url(#pc486599c23)" style="fill: none; stroke: #b0b0b0; stroke-width: 0.8; stroke-linecap: square"/>
     </g>
     <g id="line2d_16">
      <g>
       <use xlink:href="#m76bb052fdc" x="54" y="211.043833" style="stroke: #000000; stroke-width: 0.8"/>
      </g>
     </g>
     <g id="text_9">
      <!-- 0.2 -->
      <g transform="translate(31.096875 214.843052) scale(0.1 -0.1)">
       <use xlink:href="#DejaVuSans-30"/>
       <use xlink:href="#DejaVuSans-2e" x="63.623047"/>
       <use xlink:href="#DejaVuSans-32" x="95.410156"/>
      </g>
     </g>
    </g>
    <g id="ytick_3">
     <g id="line2d_17">
      <path d="M 54 170.087667 
L 388.8 170.087667 
" clip-path="url(#pc486599c23)" style="fill: none; stroke: #b0b0b0; stroke-width: 0.8; stroke-linecap: square"/>
     </g>
     <g id="line2d_18">
      <g>
       <use xlink:href="#m76bb052fdc" x="54" y="170.087667" style="stroke: #000000; stroke-width: 0.8"/>
      </g>
     </g>
     <g id="text_10">
      <!-- 0.4 -->
      <g transform="translate(31.096875 173.886886) scale(0.1 -0.1)">
       <use xlink:href="#DejaVuSans-30"/>
       <use xlink:href="#DejaVuSans-2e" x="63.623047"/>
       <use xlink:href="#DejaVuSans-34" x="95.410156"/>
      </g>
     </g>
    </g>
    <g id="ytick_4">
     <g id="line2d_19">
      <path d="M 54 129.1315 
L 388.8 129.1315 
" clip-path="url(#pc486599c23)" style="fill: none; stroke: #b0b0b0; stroke-width: 0.8; stroke-linecap: square"/>
     </g>
     <g id="line2d_20">
      <g>
       <use xlink:href="#m76bb052fdc" x="54" y="129.1315" style="stroke: #000000; stroke-width: 0.8"/>
      </g>
     </g>
     <g id="text_11">
      <!-- 0.6 -->
      <g transform="translate(31.096875 132.930719) scale(0.1 -0.1)">
       <use xlink:href="#DejaVuSans-30"/>
       <use xlink:href="#DejaVuSans-2e" x="63.623047"/>
       <use xlink:href="#DejaVuSans-36" x="95.410156"/>
      </g>
     </g>
    </g>
    <g id="ytick_5">
     <g id="line2d_21">
      <path d="M 54 88.175334 
L 388.8 88.175334 
" clip-path="url(#pc486599c23)" style="fill: none; stroke: #b0b0b0; stroke-width: 0.8; stroke-linecap: square"/>
     </g>
     <g id="line2d_22">
      <g>
       <use xlink:href="#m76bb052fdc" x="54" y="88.175334" style="stroke: #000000; stroke-width: 0.8"/>
      </g>
     </g>
     <g id="text_12">
      <!-- 0.8 -->
      <g transform="translate(31.096875 91.974553) scale(0.1 -0.1)">
       <use xlink:href="#DejaVuSans-30"/>
       <use xlink:href="#DejaVuSans-2e" x="63.623047"/>
       <use xlink:href="#DejaVuSans-38" x="95.410156"/>
      </g>
     </g>
    </g>
    <g id="ytick_6">
     <g id="line2d_23">
      <path d="M 54 47.219167 
L 388.8 47.219167 
" clip-path="url(#pc486599c23)" style="fill: none; stroke: #b0b0b0; stroke-width: 0.8; stroke-linecap: square"/>
     </g>
     <g id="line2d_24">
      <g>
       <use xlink:href="#m76bb052fdc" x="54" y="47.219167" style="stroke: #000000; stroke-width: 0.8"/>
      </g>
     </g>
     <g id="text_13">
      <!-- 1.0 -->
      <g transform="translate(31.096875 51.018386) scale(0.1 -0.1)">
       <use xlink:href="#DejaVuSans-31"/>
       <use xlink:href="#DejaVuSans-2e" x="63.623047"/>
       <use xlink:href="#DejaVuSans-30" x="95.410156"/>
      </g>
     </g>
    </g>
    <g id="text_14">
     <!-- Counts -->
     <g transform="translate(25.017187 160.733125) rotate(-90) scale(0.1 -0.1)">
      <defs>
       <path id="DejaVuSans-43" d="M 4122 4306 
L 4122 3641 
Q 3803 3938 3442 4084 
Q 3081 4231 2675 4231 
Q 1875 4231 1450 3742 
Q 1025 3253 1025 2328 
Q 1025 1406 1450 917 
Q 1875 428 2675 428 
Q 3081 428 3442 575 
Q 3803 722 4122 1019 
L 4122 359 
Q 3791 134 3420 21 
Q 3050 -91 2638 -91 
Q 1578 -91 968 557 
Q 359 1206 359 2328 
Q 359 3453 968 4101 
Q 1578 4750 2638 4750 
Q 3056 4750 3426 4639 
Q 3797 4528 4122 4306 
z
" transform="scale(0.015625)"/>
       <path id="DejaVuSans-6f" d="M 1959 3097 
Q 1497 3097 1228 2736 
Q 959 2375 959 1747 
Q 959 1119 1226 758 
Q 1494 397 1959 397 
Q 2419 397 2687 759 
Q 2956 1122 2956 1747 
Q 2956 2369 2687 2733 
Q 2419 3097 1959 3097 
z
M 1959 3584 
Q 2709 3584 3137 3096 
Q 3566 2609 3566 1747 
Q 3566 888 3137 398 
Q 2709 -91 1959 -91 
Q 1206 -91 779 398 
Q 353 888 353 1747 
Q 353 2609 779 3096 
Q 1206 3584 1959 3584 
z
" transform="scale(0.015625)"/>
       <path id="DejaVuSans-75" d="M 544 1381 
L 544 3500 
L 1119 3500 
L 1119 1403 
Q 1119 906 1312 657 
Q 1506 409 1894 409 
Q 2359 409 2629 706 
Q 2900 1003 2900 1516 
L 2900 3500 
L 3475 3500 
L 3475 0 
L 2900 0 
L 2900 538 
Q 2691 219 2414 64 
Q 2138 -91 1772 -91 
Q 1169 -91 856 284 
Q 544 659 544 1381 
z
M 1991 3584 
L 1991 3584 
z
" transform="scale(0.015625)"/>
       <path id="DejaVuSans-6e" d="M 3513 2113 
L 3513 0 
L 2938 0 
L 2938 2094 
Q 2938 2591 2744 2837 
Q 2550 3084 2163 3084 
Q 1697 3084 1428 2787 
Q 1159 2491 1159 1978 
L 1159 0 
L 581 0 
L 581 3500 
L 1159 3500 
L 1159 2956 
Q 1366 3272 1645 3428 
Q 1925 3584 2291 3584 
Q 2894 3584 3203 3211 
Q 3513 2838 3513 2113 
z
" transform="scale(0.015625)"/>
       <path id="DejaVuSans-74" d="M 1172 4494 
L 1172 3500 
L 2356 3500 
L 2356 3053 
L 1172 3053 
L 1172 1153 
Q 1172 725 1289 603 
Q 1406 481 1766 481 
L 2356 481 
L 2356 0 
L 1766 0 
Q 1100 0 847 248 
Q 594 497 594 1153 
L 594 3053 
L 172 3053 
L 172 3500 
L 594 3500 
L 594 4494 
L 1172 4494 
z
" transform="scale(0.015625)"/>
       <path id="DejaVuSans-73" d="M 2834 3397 
L 2834 2853 
Q 2591 2978 2328 3040 
Q 2066 3103 1784 3103 
Q 1356 3103 1142 2972 
Q 928 2841 928 2578 
Q 928 2378 1081 2264 
Q 1234 2150 1697 2047 
L 1894 2003 
Q 2506 1872 2764 1633 
Q 3022 1394 3022 966 
Q 3022 478 2636 193 
Q 2250 -91 1575 -91 
Q 1294 -91 989 -36 
Q 684 19 347 128 
L 347 722 
Q 666 556 975 473 
Q 1284 391 1588 391 
Q 1994 391 2212 530 
Q 2431 669 2431 922 
Q 2431 1156 2273 1281 
Q 2116 1406 1581 1522 
L 1381 1569 
Q 847 1681 609 1914 
Q 372 2147 372 2553 
Q 372 3047 722 3315 
Q 1072 3584 1716 3584 
Q 2034 3584 2315 3537 
Q 2597 3491 2834 3397 
z
" transform="scale(0.015625)"/>
      </defs>
      <use xlink:href="#DejaVuSans-43"/>
      <use xlink:href="#DejaVuSans-6f" x="69.824219"/>
      <use xlink:href="#DejaVuSans-75" x="131.005859"/>
      <use xlink:href="#DejaVuSans-6e" x="194.384766"/>
      <use xlink:href="#DejaVuSans-74" x="257.763672"/>
      <use xlink:href="#DejaVuSans-73" x="296.972656"/>
     </g>
    </g>
   </g>
   <g id="line2d_25">
    <path d="M 69.218182 229.801743 
L 72.261824 221.396392 
L 75.305467 211.109765 
L 78.349082 199.050866 
L 81.392724 185.550396 
L 84.436366 171.179943 
L 87.480009 156.733739 
L 90.523624 143.169192 
L 93.567266 131.507954 
L 96.610909 122.712029 
L 99.654551 117.553011 
L 102.698193 116.500635 
L 105.741808 119.652176 
L 108.785451 126.717752 
L 111.829093 137.064156 
L 114.872735 149.808527 
L 117.916351 163.94223 
L 120.959993 178.461731 
L 124.003635 192.48145 
L 127.047278 205.314232 
L 130.09092 216.509683 
L 133.134535 225.852527 
L 136.178177 233.330115 
L 139.22182 239.080468 
L 142.265462 243.335467 
L 145.309077 246.368313 
L 148.35272 248.452492 
L 151.396362 249.834284 
L 154.440004 250.718635 
L 157.483647 251.265254 
L 160.527262 251.591683 
L 163.570904 251.780088 
L 166.614547 251.885213 
L 169.658189 251.941933 
L 172.701831 251.971532 
L 175.745446 251.986473 
L 178.789089 251.993771 
L 181.832731 251.99722 
L 184.876373 251.998798 
L 187.919989 251.999496 
L 190.963631 251.999795 
L 194.007273 251.999919 
L 197.050916 251.999969 
L 200.094558 251.999989 
L 203.138173 251.999996 
L 206.181815 251.999999 
L 209.225458 252 
L 212.2691 252 
L 215.312743 252 
L 218.356385 252 
L 221.399973 252 
L 224.443615 252 
L 227.487257 252 
L 230.5309 252 
L 233.574542 252 
L 236.618185 252 
L 239.661827 252 
L 242.705469 252 
L 245.749112 252 
L 248.792754 252 
L 251.836342 252 
L 254.879984 252 
L 257.923627 252 
L 260.967269 252 
L 264.010911 252 
L 267.054554 252 
L 270.098196 252 
L 273.141838 252 
L 276.185481 252 
L 279.229069 252 
L 282.272711 252 
L 285.316353 252 
L 288.359996 252 
L 291.403638 252 
L 294.44728 252 
L 297.490923 252 
L 300.534565 252 
L 303.578207 252 
L 306.621795 252 
L 309.665438 252 
L 312.70908 252 
L 315.752722 252 
L 318.796365 252 
L 321.840007 252 
L 324.883649 252 
L 327.927292 252 
L 330.970934 252 
L 334.014522 252 
L 337.058164 252 
L 340.101807 252 
L 343.145449 252 
L 346.189091 252 
L 349.232734 252 
L 352.276376 252 
L 355.320019 252 
L 358.363661 252 
L 361.407249 252 
L 364.450891 252 
L 367.494533 252 
L 370.538176 252 
L 373.581818 252 
" clip-path="url(#pc486599c23)" style="fill: none; stroke-dasharray: 7.4,3.2; stroke-dashoffset: 0; stroke: #ff0000; stroke-width: 2"/>
   </g>
   <g id="patch_103">
    <path d="M 54 252 
L 54 34.56 
" style="fill: none; stroke: #000000; stroke-width: 0.8; stroke-linejoin: miter; stroke-linecap: square"/>
   </g>
   <g id="patch_104">
    <path d="M 388.8 252 
L 388.8 34.56 
" style="fill: none; stroke: #000000; stroke-width: 0.8; stroke-linejoin: miter; stroke-linecap: square"/>
   </g>
   <g id="patch_105">
    <path d="M 54 252 
L 388.8 252 
" style="fill: none; stroke: #000000; stroke-width: 0.8; stroke-linejoin: miter; stroke-linecap: square"/>
   </g>
   <g id="patch_106">
    <path d="M 54 34.56 
L 388.8 34.56 
" style="fill: none; stroke: #000000; stroke-width: 0.8; stroke-linejoin: miter; stroke-linecap: square"/>
   </g>
  </g>
  <g id="text_15">
   <!-- Hist of times for 10k 1GeV pi- events; one segment -->
   <g transform="translate(61.734375 14.878125) scale(0.12 -0.12)">
    <defs>
     <path id="DejaVuSans-48" d="M 628 4666 
L 1259 4666 
L 1259 2753 
L 3553 2753 
L 3553 4666 
L 4184 4666 
L 4184 0 
L 3553 0 
L 3553 2222 
L 1259 2222 
L 1259 0 
L 628 0 
L 628 4666 
z
" transform="scale(0.015625)"/>
     <path id="DejaVuSans-20" transform="scale(0.015625)"/>
     <path id="DejaVuSans-66" d="M 2375 4863 
L 2375 4384 
L 1825 4384 
Q 1516 4384 1395 4259 
Q 1275 4134 1275 3809 
L 1275 3500 
L 2222 3500 
L 2222 3053 
L 1275 3053 
L 1275 0 
L 697 0 
L 697 3053 
L 147 3053 
L 147 3500 
L 697 3500 
L 697 3744 
Q 697 4328 969 4595 
Q 1241 4863 1831 4863 
L 2375 4863 
z
" transform="scale(0.015625)"/>
     <path id="DejaVuSans-72" d="M 2631 2963 
Q 2534 3019 2420 3045 
Q 2306 3072 2169 3072 
Q 1681 3072 1420 2755 
Q 1159 2438 1159 1844 
L 1159 0 
L 581 0 
L 581 3500 
L 1159 3500 
L 1159 2956 
Q 1341 3275 1631 3429 
Q 1922 3584 2338 3584 
Q 2397 3584 2469 3576 
Q 2541 3569 2628 3553 
L 2631 2963 
z
" transform="scale(0.015625)"/>
     <path id="DejaVuSans-6b" d="M 581 4863 
L 1159 4863 
L 1159 1991 
L 2875 3500 
L 3609 3500 
L 1753 1863 
L 3688 0 
L 2938 0 
L 1159 1709 
L 1159 0 
L 581 0 
L 581 4863 
z
" transform="scale(0.015625)"/>
     <path id="DejaVuSans-47" d="M 3809 666 
L 3809 1919 
L 2778 1919 
L 2778 2438 
L 4434 2438 
L 4434 434 
Q 4069 175 3628 42 
Q 3188 -91 2688 -91 
Q 1594 -91 976 548 
Q 359 1188 359 2328 
Q 359 3472 976 4111 
Q 1594 4750 2688 4750 
Q 3144 4750 3555 4637 
Q 3966 4525 4313 4306 
L 4313 3634 
Q 3963 3931 3569 4081 
Q 3175 4231 2741 4231 
Q 1884 4231 1454 3753 
Q 1025 3275 1025 2328 
Q 1025 1384 1454 906 
Q 1884 428 2741 428 
Q 3075 428 3337 486 
Q 3600 544 3809 666 
z
" transform="scale(0.015625)"/>
     <path id="DejaVuSans-56" d="M 1831 0 
L 50 4666 
L 709 4666 
L 2188 738 
L 3669 4666 
L 4325 4666 
L 2547 0 
L 1831 0 
z
" transform="scale(0.015625)"/>
     <path id="DejaVuSans-70" d="M 1159 525 
L 1159 -1331 
L 581 -1331 
L 581 3500 
L 1159 3500 
L 1159 2969 
Q 1341 3281 1617 3432 
Q 1894 3584 2278 3584 
Q 2916 3584 3314 3078 
Q 3713 2572 3713 1747 
Q 3713 922 3314 415 
Q 2916 -91 2278 -91 
Q 1894 -91 1617 61 
Q 1341 213 1159 525 
z
M 3116 1747 
Q 3116 2381 2855 2742 
Q 2594 3103 2138 3103 
Q 1681 3103 1420 2742 
Q 1159 2381 1159 1747 
Q 1159 1113 1420 752 
Q 1681 391 2138 391 
Q 2594 391 2855 752 
Q 3116 1113 3116 1747 
z
" transform="scale(0.015625)"/>
     <path id="DejaVuSans-2d" d="M 313 2009 
L 1997 2009 
L 1997 1497 
L 313 1497 
L 313 2009 
z
" transform="scale(0.015625)"/>
     <path id="DejaVuSans-76" d="M 191 3500 
L 800 3500 
L 1894 563 
L 2988 3500 
L 3597 3500 
L 2284 0 
L 1503 0 
L 191 3500 
z
" transform="scale(0.015625)"/>
     <path id="DejaVuSans-3b" d="M 750 3309 
L 1409 3309 
L 1409 2516 
L 750 2516 
L 750 3309 
z
M 750 794 
L 1409 794 
L 1409 256 
L 897 -744 
L 494 -744 
L 750 256 
L 750 794 
z
" transform="scale(0.015625)"/>
     <path id="DejaVuSans-67" d="M 2906 1791 
Q 2906 2416 2648 2759 
Q 2391 3103 1925 3103 
Q 1463 3103 1205 2759 
Q 947 2416 947 1791 
Q 947 1169 1205 825 
Q 1463 481 1925 481 
Q 2391 481 2648 825 
Q 2906 1169 2906 1791 
z
M 3481 434 
Q 3481 -459 3084 -895 
Q 2688 -1331 1869 -1331 
Q 1566 -1331 1297 -1286 
Q 1028 -1241 775 -1147 
L 775 -588 
Q 1028 -725 1275 -790 
Q 1522 -856 1778 -856 
Q 2344 -856 2625 -561 
Q 2906 -266 2906 331 
L 2906 616 
Q 2728 306 2450 153 
Q 2172 0 1784 0 
Q 1141 0 747 490 
Q 353 981 353 1791 
Q 353 2603 747 3093 
Q 1141 3584 1784 3584 
Q 2172 3584 2450 3431 
Q 2728 3278 2906 2969 
L 2906 3500 
L 3481 3500 
L 3481 434 
z
" transform="scale(0.015625)"/>
    </defs>
    <use xlink:href="#DejaVuSans-48"/>
    <use xlink:href="#DejaVuSans-69" x="75.195312"/>
    <use xlink:href="#DejaVuSans-73" x="102.978516"/>
    <use xlink:href="#DejaVuSans-74" x="155.078125"/>
    <use xlink:href="#DejaVuSans-20" x="194.287109"/>
    <use xlink:href="#DejaVuSans-6f" x="226.074219"/>
    <use xlink:href="#DejaVuSans-66" x="287.255859"/>
    <use xlink:href="#DejaVuSans-20" x="322.460938"/>
    <use xlink:href="#DejaVuSans-74" x="354.248047"/>
    <use xlink:href="#DejaVuSans-69" x="393.457031"/>
    <use xlink:href="#DejaVuSans-6d" x="421.240234"/>
    <use xlink:href="#DejaVuSans-65" x="518.652344"/>
    <use xlink:href="#DejaVuSans-73" x="580.175781"/>
    <use xlink:href="#DejaVuSans-20" x="632.275391"/>
    <use xlink:href="#DejaVuSans-66" x="664.0625"/>
    <use xlink:href="#DejaVuSans-6f" x="699.267578"/>
    <use xlink:href="#DejaVuSans-72" x="760.449219"/>
    <use xlink:href="#DejaVuSans-20" x="801.5625"/>
    <use xlink:href="#DejaVuSans-31" x="833.349609"/>
    <use xlink:href="#DejaVuSans-30" x="896.972656"/>
    <use xlink:href="#DejaVuSans-6b" x="960.595703"/>
    <use xlink:href="#DejaVuSans-20" x="1018.505859"/>
    <use xlink:href="#DejaVuSans-31" x="1050.292969"/>
    <use xlink:href="#DejaVuSans-47" x="1113.916016"/>
    <use xlink:href="#DejaVuSans-65" x="1191.40625"/>
    <use xlink:href="#DejaVuSans-56" x="1252.929688"/>
    <use xlink:href="#DejaVuSans-20" x="1321.337891"/>
    <use xlink:href="#DejaVuSans-70" x="1353.125"/>
    <use xlink:href="#DejaVuSans-69" x="1416.601562"/>
    <use xlink:href="#DejaVuSans-2d" x="1444.384766"/>
    <use xlink:href="#DejaVuSans-20" x="1480.46875"/>
    <use xlink:href="#DejaVuSans-65" x="1512.255859"/>
    <use xlink:href="#DejaVuSans-76" x="1573.779297"/>
    <use xlink:href="#DejaVuSans-65" x="1632.958984"/>
    <use xlink:href="#DejaVuSans-6e" x="1694.482422"/>
    <use xlink:href="#DejaVuSans-74" x="1757.861328"/>
    <use xlink:href="#DejaVuSans-73" x="1797.070312"/>
    <use xlink:href="#DejaVuSans-3b" x="1849.169922"/>
    <use xlink:href="#DejaVuSans-20" x="1882.861328"/>
    <use xlink:href="#DejaVuSans-6f" x="1914.648438"/>
    <use xlink:href="#DejaVuSans-6e" x="1975.830078"/>
    <use xlink:href="#DejaVuSans-65" x="2039.208984"/>
    <use xlink:href="#DejaVuSans-20" x="2100.732422"/>
    <use xlink:href="#DejaVuSans-73" x="2132.519531"/>
    <use xlink:href="#DejaVuSans-65" x="2184.619141"/>
    <use xlink:href="#DejaVuSans-67" x="2246.142578"/>
    <use xlink:href="#DejaVuSans-6d" x="2309.619141"/>
    <use xlink:href="#DejaVuSans-65" x="2407.03125"/>
    <use xlink:href="#DejaVuSans-6e" x="2468.554688"/>
    <use xlink:href="#DejaVuSans-74" x="2531.933594"/>
   </g>
  </g>
 </g>
 <defs>
  <clipPath id="pc486599c23">
   <rect x="54" y="34.56" width="334.8" height="217.44"/>
  </clipPath>
 </defs>
</svg>
