<?xml version="1.0" standalone="no"?>
<svg width="567.429" height="343.156" viewBox="0 0 567.429 343.156" xmlns="http://www.w3.org/2000/svg" shape-rendering="crispEdges">
<title>
plots/april_4/mu_10000_limited_y_axis.svg
</title>
<desc>
Creator: ROOT Version 6.28/10
CreationDate: Fri Apr  5 15:13:44 2024</desc>
<defs>
</defs>
<rect x="0.5" y="0" width="566.929" height="342.656" fill="white"/>
<rect x="74.2008" y="34.2656" width="470.551" height="274.125" fill="white"/>
<rect x="74.2008" y="34.2656" width="470.551" height="274.125" fill="none" stroke="black"/>
<path d="M74.2008,308.39h 470.551" fill="none" stroke="black"/>
<path d="M74.2008,299.858v 8.53213" fill="none" stroke="black"/>
<path d="M91.0062,304.124v 4.26607" fill="none" stroke="black"/>
<path d="M107.812,304.124v 4.26607" fill="none" stroke="black"/>
<path d="M124.617,304.124v 4.26607" fill="none" stroke="black"/>
<path d="M141.422,299.858v 8.53213" fill="none" stroke="black"/>
<path d="M158.228,304.124v 4.26607" fill="none" stroke="black"/>
<path d="M175.033,304.124v 4.26607" fill="none" stroke="black"/>
<path d="M191.839,304.124v 4.26607" fill="none" stroke="black"/>
<path d="M208.644,299.858v 8.53213" fill="none" stroke="black"/>
<path d="M225.449,304.124v 4.26607" fill="none" stroke="black"/>
<path d="M242.255,304.124v 4.26607" fill="none" stroke="black"/>
<path d="M259.06,304.124v 4.26607" fill="none" stroke="black"/>
<path d="M275.866,299.858v 8.53213" fill="none" stroke="black"/>
<path d="M292.671,304.124v 4.26607" fill="none" stroke="black"/>
<path d="M309.476,304.124v 4.26607" fill="none" stroke="black"/>
<path d="M326.282,304.124v 4.26607" fill="none" stroke="black"/>
<path d="M343.087,299.858v 8.53213" fill="none" stroke="black"/>
<path d="M359.893,304.124v 4.26607" fill="none" stroke="black"/>
<path d="M376.698,304.124v 4.26607" fill="none" stroke="black"/>
<path d="M393.503,304.124v 4.26607" fill="none" stroke="black"/>
<path d="M410.309,299.858v 8.53213" fill="none" stroke="black"/>
<path d="M427.114,304.124v 4.26607" fill="none" stroke="black"/>
<path d="M443.92,304.124v 4.26607" fill="none" stroke="black"/>
<path d="M460.725,304.124v 4.26607" fill="none" stroke="black"/>
<path d="M477.53,299.858v 8.53213" fill="none" stroke="black"/>
<path d="M494.336,304.124v 4.26607" fill="none" stroke="black"/>
<path d="M511.141,304.124v 4.26607" fill="none" stroke="black"/>
<path d="M527.947,304.124v 4.26607" fill="none" stroke="black"/>
<path d="M544.752,299.858v 8.53213" fill="none" stroke="black"/>
<text xml:space="preserve" x="61.1787" y="319.455" fill="black" font-size="11.5027" font-family="Helvetica">1600</text>
<text xml:space="preserve" x="128.401" y="319.455" fill="black" font-size="11.5027" font-family="Helvetica">1800</text>
<text xml:space="preserve" x="195.624" y="319.455" fill="black" font-size="11.5027" font-family="Helvetica">2000</text>
<text xml:space="preserve" x="262.846" y="319.455" fill="black" font-size="11.5027" font-family="Helvetica">2200</text>
<text xml:space="preserve" x="330.068" y="319.455" fill="black" font-size="11.5027" font-family="Helvetica">2400</text>
<text xml:space="preserve" x="397.291" y="319.455" fill="black" font-size="11.5027" font-family="Helvetica">2600</text>
<text xml:space="preserve" x="464.513" y="319.455" fill="black" font-size="11.5027" font-family="Helvetica">2800</text>
<text xml:space="preserve" x="531.736" y="319.455" fill="black" font-size="11.5027" font-family="Helvetica">3000</text>
<text xml:space="preserve" x="419.302" y="330.163" fill="black" font-size="11.5027" font-family="Helvetica">Barrel hit x position (mm)</text>
<path d="M74.2008,308.39v -274.125" fill="none" stroke="black"/>
<path d="M87.8071,280.933h -13.6063" fill="none" stroke="black"/>
<path d="M81.0039,270.699h -6.80315" fill="none" stroke="black"/>
<path d="M81.0039,260.465h -6.80315" fill="none" stroke="black"/>
<path d="M81.0039,250.231h -6.80315" fill="none" stroke="black"/>
<path d="M87.8071,239.998h -13.6063" fill="none" stroke="black"/>
<path d="M81.0039,229.764h -6.80315" fill="none" stroke="black"/>
<path d="M81.0039,219.53h -6.80315" fill="none" stroke="black"/>
<path d="M81.0039,209.296h -6.80315" fill="none" stroke="black"/>
<path d="M87.8071,199.062h -13.6063" fill="none" stroke="black"/>
<path d="M81.0039,188.829h -6.80315" fill="none" stroke="black"/>
<path d="M81.0039,178.595h -6.80315" fill="none" stroke="black"/>
<path d="M81.0039,168.361h -6.80315" fill="none" stroke="black"/>
<path d="M87.8071,158.127h -13.6063" fill="none" stroke="black"/>
<path d="M81.0039,147.893h -6.80315" fill="none" stroke="black"/>
<path d="M81.0039,137.66h -6.80315" fill="none" stroke="black"/>
<path d="M81.0039,127.426h -6.80315" fill="none" stroke="black"/>
<path d="M87.8071,117.192h -13.6063" fill="none" stroke="black"/>
<path d="M81.0039,106.958h -6.80315" fill="none" stroke="black"/>
<path d="M81.0039,96.7244h -6.80315" fill="none" stroke="black"/>
<path d="M81.0039,86.4906h -6.80315" fill="none" stroke="black"/>
<path d="M87.8071,76.2568h -13.6063" fill="none" stroke="black"/>
<path d="M81.0039,66.023h -6.80315" fill="none" stroke="black"/>
<path d="M81.0039,55.7892h -6.80315" fill="none" stroke="black"/>
<path d="M81.0039,45.5554h -6.80315" fill="none" stroke="black"/>
<path d="M87.8071,35.3216h -13.6063" fill="none" stroke="black"/>
<path d="M87.8071,280.933h -13.6063" fill="none" stroke="black"/>
<path d="M81.0039,291.167h -6.80315" fill="none" stroke="black"/>
<path d="M81.0039,301.4h -6.80315" fill="none" stroke="black"/>
<path d="M87.8071,35.3216h -13.6063" fill="none" stroke="black"/>
<text xml:space="preserve" x="30.8393" y="284.952" fill="black" font-size="11.5027" font-family="Helvetica">0.00224</text>
<text xml:space="preserve" x="30.8393" y="243.904" fill="black" font-size="11.5027" font-family="Helvetica">0.00226</text>
<text xml:space="preserve" x="30.8393" y="202.857" fill="black" font-size="11.5027" font-family="Helvetica">0.00228</text>
<text xml:space="preserve" x="36.7882" y="161.81" fill="black" font-size="11.5027" font-family="Helvetica">0.0023</text>
<text xml:space="preserve" x="30.8393" y="120.762" fill="black" font-size="11.5027" font-family="Helvetica">0.00232</text>
<text xml:space="preserve" x="30.8393" y="80.31" fill="black" font-size="11.5027" font-family="Helvetica">0.00234</text>
<text xml:space="preserve" x="30.8393" y="39.2627" fill="black" font-size="11.5027" font-family="Helvetica">0.00236</text>
<g transform="rotate(-90,16.562,204.642)">
<text xml:space="preserve" x="16.562" y="204.642" fill="black" font-size="11.5027" font-family="Helvetica">Energy deposited per event (GeV)</text>
</g>
<text xml:space="preserve" x="99.2516" y="14.8722" fill="black" font-size="10.2137" font-family="Helvetica">avg energy deposition in each layer 10000 events (limited y axis shown) (mu- gun)</text>
<g fill="#0000ff">
<polygon points=" 151.775, 283.643 153.678, 287.45 149.871, 287.45"/>
<polygon points=" 155.337, 243.575 157.241, 247.382 153.434, 247.382"/>
<polygon points=" 177.554, 177.428 179.458, 181.236 175.65, 181.236"/>
<polygon points=" 181.117, 126.145 183.02, 129.952 179.213, 129.952"/>
<polygon points=" 203.333, 171.598 205.237, 175.406 201.43, 175.406"/>
<polygon points=" 206.896, 94.8364 208.8, 98.6437 204.993, 98.6437"/>
<polygon points=" 229.113, 191.731 231.017, 195.538 227.209, 195.538"/>
<polygon points=" 232.676, 134.768 234.579, 138.576 230.772, 138.576"/>
<polygon points=" 254.892, 162.275 256.796, 166.082 252.989, 166.082"/>
<polygon points=" 258.455, 57.4512 260.359, 61.2585 256.552, 61.2585"/>
<polygon points=" 280.672, 180.02 282.576, 183.828 278.768, 183.828"/>
<polygon points=" 284.235, 100.545 286.138, 104.353 282.331, 104.353"/>
<polygon points=" 306.451, 119.477 308.355, 123.285 304.548, 123.285"/>
<polygon points=" 310.014, 55.2057 311.918, 59.013 308.111, 59.013"/>
<polygon points=" 332.231, 182.04 334.135, 185.847 330.327, 185.847"/>
<polygon points=" 335.794, 158.07 337.697, 161.877 333.89, 161.877"/>
<polygon points=" 358.01, 239.32 359.914, 243.127 356.107, 243.127"/>
<polygon points=" 361.573, 155.813 363.477, 159.62 359.669, 159.62"/>
<polygon points=" 383.79, 254.752 385.694, 258.559 381.886, 258.559"/>
<polygon points=" 387.353, 183.88 389.256, 187.687 385.449, 187.687"/>
<polygon points=" 409.569, 251.018 411.473, 254.825 407.666, 254.825"/>
<polygon points=" 413.132, 179.116 415.036, 182.923 411.228, 182.923"/>
<polygon points=" 435.349, 228.255 437.252, 232.062 433.445, 232.062"/>
<polygon points=" 438.912, 166.278 440.815, 170.085 437.008, 170.085"/>
<polygon points=" 461.128, 206.055 463.032, 209.862 459.225, 209.862"/>
<polygon points=" 464.691, 127.02 466.595, 130.827 462.787, 130.827"/>
<polygon points=" 486.908, 232.489 488.811, 236.296 485.004, 236.296"/>
<polygon points=" 490.471, 215.271 492.374, 219.078 488.567, 219.078"/>
</g>
<text xml:space="preserve" x="99.2516" y="14.8722" fill="black" font-size="10.2137" font-family="Helvetica">avg energy deposition in each layer 10000 events (limited y axis shown) (mu- gun)</text></svg>
