<?xml version="1.0" standalone="no"?>
<svg width="567.429" height="343.156" viewBox="0 0 567.429 343.156" xmlns="http://www.w3.org/2000/svg" shape-rendering="crispEdges">
<title>
plots/april_4/mu_5GeV_energy_run1.svg
</title>
<desc>
Creator: ROOT Version 6.28/10
CreationDate: Fri Apr  5 15:15:18 2024</desc>
<defs>
</defs>
<rect x="0.5" y="0" width="566.929" height="342.656" fill="white"/>
<rect x="74.2008" y="34.2656" width="470.551" height="274.125" fill="white"/>
<rect x="74.2008" y="34.2656" width="470.551" height="274.125" fill="none" stroke="black"/>
<path d="M74.2008,308.39h 470.551" fill="none" stroke="black"/>
<path d="M74.2008,299.858v 8.53213" fill="none" stroke="black"/>
<path d="M91.0062,304.124v 4.26607" fill="none" stroke="black"/>
<path d="M107.812,304.124v 4.26607" fill="none" stroke="black"/>
<path d="M124.617,304.124v 4.26607" fill="none" stroke="black"/>
<path d="M141.422,299.858v 8.53213" fill="none" stroke="black"/>
<path d="M158.228,304.124v 4.26607" fill="none" stroke="black"/>
<path d="M175.033,304.124v 4.26607" fill="none" stroke="black"/>
<path d="M191.839,304.124v 4.26607" fill="none" stroke="black"/>
<path d="M208.644,299.858v 8.53213" fill="none" stroke="black"/>
<path d="M225.449,304.124v 4.26607" fill="none" stroke="black"/>
<path d="M242.255,304.124v 4.26607" fill="none" stroke="black"/>
<path d="M259.06,304.124v 4.26607" fill="none" stroke="black"/>
<path d="M275.866,299.858v 8.53213" fill="none" stroke="black"/>
<path d="M292.671,304.124v 4.26607" fill="none" stroke="black"/>
<path d="M309.476,304.124v 4.26607" fill="none" stroke="black"/>
<path d="M326.282,304.124v 4.26607" fill="none" stroke="black"/>
<path d="M343.087,299.858v 8.53213" fill="none" stroke="black"/>
<path d="M359.893,304.124v 4.26607" fill="none" stroke="black"/>
<path d="M376.698,304.124v 4.26607" fill="none" stroke="black"/>
<path d="M393.503,304.124v 4.26607" fill="none" stroke="black"/>
<path d="M410.309,299.858v 8.53213" fill="none" stroke="black"/>
<path d="M427.114,304.124v 4.26607" fill="none" stroke="black"/>
<path d="M443.92,304.124v 4.26607" fill="none" stroke="black"/>
<path d="M460.725,304.124v 4.26607" fill="none" stroke="black"/>
<path d="M477.53,299.858v 8.53213" fill="none" stroke="black"/>
<path d="M494.336,304.124v 4.26607" fill="none" stroke="black"/>
<path d="M511.141,304.124v 4.26607" fill="none" stroke="black"/>
<path d="M527.947,304.124v 4.26607" fill="none" stroke="black"/>
<path d="M544.752,299.858v 8.53213" fill="none" stroke="black"/>
<text xml:space="preserve" x="61.1787" y="319.455" fill="black" font-size="11.5027" font-family="Helvetica">1600</text>
<text xml:space="preserve" x="128.401" y="319.455" fill="black" font-size="11.5027" font-family="Helvetica">1800</text>
<text xml:space="preserve" x="195.624" y="319.455" fill="black" font-size="11.5027" font-family="Helvetica">2000</text>
<text xml:space="preserve" x="262.846" y="319.455" fill="black" font-size="11.5027" font-family="Helvetica">2200</text>
<text xml:space="preserve" x="330.068" y="319.455" fill="black" font-size="11.5027" font-family="Helvetica">2400</text>
<text xml:space="preserve" x="397.291" y="319.455" fill="black" font-size="11.5027" font-family="Helvetica">2600</text>
<text xml:space="preserve" x="464.513" y="319.455" fill="black" font-size="11.5027" font-family="Helvetica">2800</text>
<text xml:space="preserve" x="531.736" y="319.455" fill="black" font-size="11.5027" font-family="Helvetica">3000</text>
<text xml:space="preserve" x="419.302" y="330.163" fill="black" font-size="11.5027" font-family="Helvetica">Barrel hit x position (mm)</text>
<path d="M74.2008,308.39v -274.125" fill="none" stroke="black"/>
<path d="M87.8071,308.39h -13.6063" fill="none" stroke="black"/>
<path d="M81.0039,297.425h -6.80315" fill="none" stroke="black"/>
<path d="M81.0039,286.46h -6.80315" fill="none" stroke="black"/>
<path d="M81.0039,275.495h -6.80315" fill="none" stroke="black"/>
<path d="M81.0039,264.53h -6.80315" fill="none" stroke="black"/>
<path d="M87.8071,253.565h -13.6063" fill="none" stroke="black"/>
<path d="M81.0039,242.6h -6.80315" fill="none" stroke="black"/>
<path d="M81.0039,231.635h -6.80315" fill="none" stroke="black"/>
<path d="M81.0039,220.67h -6.80315" fill="none" stroke="black"/>
<path d="M81.0039,209.705h -6.80315" fill="none" stroke="black"/>
<path d="M87.8071,198.74h -13.6063" fill="none" stroke="black"/>
<path d="M81.0039,187.775h -6.80315" fill="none" stroke="black"/>
<path d="M81.0039,176.811h -6.80315" fill="none" stroke="black"/>
<path d="M81.0039,165.846h -6.80315" fill="none" stroke="black"/>
<path d="M81.0039,154.881h -6.80315" fill="none" stroke="black"/>
<path d="M87.8071,143.916h -13.6063" fill="none" stroke="black"/>
<path d="M81.0039,132.951h -6.80315" fill="none" stroke="black"/>
<path d="M81.0039,121.986h -6.80315" fill="none" stroke="black"/>
<path d="M81.0039,111.021h -6.80315" fill="none" stroke="black"/>
<path d="M81.0039,100.056h -6.80315" fill="none" stroke="black"/>
<path d="M87.8071,89.0906h -13.6063" fill="none" stroke="black"/>
<path d="M81.0039,78.1256h -6.80315" fill="none" stroke="black"/>
<path d="M81.0039,67.1606h -6.80315" fill="none" stroke="black"/>
<path d="M81.0039,56.1956h -6.80315" fill="none" stroke="black"/>
<path d="M81.0039,45.2306h -6.80315" fill="none" stroke="black"/>
<path d="M87.8071,34.2656h -13.6063" fill="none" stroke="black"/>
<text xml:space="preserve" x="65.3429" y="312.317" fill="black" font-size="11.5027" font-family="Helvetica">0</text>
<text xml:space="preserve" x="36.7882" y="257.587" fill="black" font-size="11.5027" font-family="Helvetica">0.0005</text>
<text xml:space="preserve" x="45.1167" y="202.857" fill="black" font-size="11.5027" font-family="Helvetica">0.001</text>
<text xml:space="preserve" x="36.7882" y="147.532" fill="black" font-size="11.5027" font-family="Helvetica">0.0015</text>
<text xml:space="preserve" x="43.332" y="92.8027" fill="black" font-size="11.5027" font-family="Helvetica">0.002</text>
<text xml:space="preserve" x="36.7882" y="38.0729" fill="black" font-size="11.5027" font-family="Helvetica">0.0025</text>
<g transform="rotate(-90,22.5109,204.642)">
<text xml:space="preserve" x="22.5109" y="204.642" fill="black" font-size="11.5027" font-family="Helvetica">Energy deposited per event (GeV)</text>
</g>
<text xml:space="preserve" x="99.8465" y="15.4671" fill="black" font-size="12.516" font-family="Helvetica">avg energy deposition in each layer 10000 events (5GeV mu- gun)</text>
<g fill="#0000ff">
<polygon points=" 151.775, 61.1181 153.678, 64.9254 149.871, 64.9254"/>
<polygon points=" 155.337, 58.9716 157.241, 62.7789 153.434, 62.7789"/>
<polygon points=" 177.554, 55.4279 179.458, 59.2352 175.65, 59.2352"/>
<polygon points=" 181.117, 52.6805 183.02, 56.4878 179.213, 56.4878"/>
<polygon points=" 203.333, 55.1156 205.237, 58.9229 201.43, 58.9229"/>
<polygon points=" 206.896, 51.0033 208.8, 54.8106 204.993, 54.8106"/>
<polygon points=" 229.113, 56.1942 231.017, 60.0015 227.209, 60.0015"/>
<polygon points=" 232.676, 53.1425 234.579, 56.9498 230.772, 56.9498"/>
<polygon points=" 254.892, 54.6161 256.796, 58.4234 252.989, 58.4234"/>
<polygon points=" 258.455, 49.0005 260.359, 52.8078 256.552, 52.8078"/>
<polygon points=" 280.672, 55.5668 282.576, 59.3741 278.768, 59.3741"/>
<polygon points=" 284.235, 51.3091 286.138, 55.1164 282.331, 55.1164"/>
<polygon points=" 306.451, 52.3234 308.355, 56.1306 304.548, 56.1306"/>
<polygon points=" 310.014, 48.8802 311.918, 52.6875 308.111, 52.6875"/>
<polygon points=" 332.231, 55.675 334.135, 59.4823 330.327, 59.4823"/>
<polygon points=" 335.794, 54.3909 337.697, 58.1982 333.89, 58.1982"/>
<polygon points=" 358.01, 58.7436 359.914, 62.5509 356.107, 62.5509"/>
<polygon points=" 361.573, 54.2699 363.477, 58.0772 359.669, 58.0772"/>
<polygon points=" 383.79, 59.5703 385.694, 63.3776 381.886, 63.3776"/>
<polygon points=" 387.353, 55.7736 389.256, 59.5809 385.449, 59.5809"/>
<polygon points=" 409.569, 59.3703 411.473, 63.1776 407.666, 63.1776"/>
<polygon points=" 413.132, 55.5183 415.036, 59.3256 411.228, 59.3256"/>
<polygon points=" 435.349, 58.1508 437.252, 61.9581 433.445, 61.9581"/>
<polygon points=" 438.912, 54.8306 440.815, 58.6379 437.008, 58.6379"/>
<polygon points=" 461.128, 56.9615 463.032, 60.7688 459.225, 60.7688"/>
<polygon points=" 464.691, 52.7274 466.595, 56.5347 462.787, 56.5347"/>
<polygon points=" 486.908, 58.3777 488.811, 62.1849 485.004, 62.1849"/>
<polygon points=" 490.471, 57.4553 492.374, 61.2626 488.567, 61.2626"/>
</g>
<text xml:space="preserve" x="99.8465" y="15.4671" fill="black" font-size="12.516" font-family="Helvetica">avg energy deposition in each layer 10000 events (5GeV mu- gun)</text></svg>
