<?xml version="1.0" standalone="no"?>
<svg width="567.429" height="343.156" viewBox="0 0 567.429 343.156" xmlns="http://www.w3.org/2000/svg" shape-rendering="crispEdges">
<title>
plots/april_4/pi_10000_1_GeV.svg
</title>
<desc>
Creator: ROOT Version 6.28/10
CreationDate: Fri Apr  5 15:18:37 2024</desc>
<defs>
</defs>
<rect x="0.5" y="0" width="566.929" height="342.656" fill="white"/>
<rect x="68.5315" y="34.2656" width="476.22" height="274.125" fill="white"/>
<rect x="68.5315" y="34.2656" width="476.22" height="274.125" fill="none" stroke="black"/>
<path d="M68.5315,308.39h 476.22" fill="none" stroke="black"/>
<path d="M68.5315,299.755v 8.63493" fill="none" stroke="black"/>
<path d="M85.5394,304.073v 4.31747" fill="none" stroke="black"/>
<path d="M102.547,304.073v 4.31747" fill="none" stroke="black"/>
<path d="M119.555,304.073v 4.31747" fill="none" stroke="black"/>
<path d="M136.563,299.755v 8.63493" fill="none" stroke="black"/>
<path d="M153.571,304.073v 4.31747" fill="none" stroke="black"/>
<path d="M170.579,304.073v 4.31747" fill="none" stroke="black"/>
<path d="M187.587,304.073v 4.31747" fill="none" stroke="black"/>
<path d="M204.594,299.755v 8.63493" fill="none" stroke="black"/>
<path d="M221.602,304.073v 4.31747" fill="none" stroke="black"/>
<path d="M238.61,304.073v 4.31747" fill="none" stroke="black"/>
<path d="M255.618,304.073v 4.31747" fill="none" stroke="black"/>
<path d="M272.626,299.755v 8.63493" fill="none" stroke="black"/>
<path d="M289.634,304.073v 4.31747" fill="none" stroke="black"/>
<path d="M306.642,304.073v 4.31747" fill="none" stroke="black"/>
<path d="M323.65,304.073v 4.31747" fill="none" stroke="black"/>
<path d="M340.657,299.755v 8.63493" fill="none" stroke="black"/>
<path d="M357.665,304.073v 4.31747" fill="none" stroke="black"/>
<path d="M374.673,304.073v 4.31747" fill="none" stroke="black"/>
<path d="M391.681,304.073v 4.31747" fill="none" stroke="black"/>
<path d="M408.689,299.755v 8.63493" fill="none" stroke="black"/>
<path d="M425.697,304.073v 4.31747" fill="none" stroke="black"/>
<path d="M442.705,304.073v 4.31747" fill="none" stroke="black"/>
<path d="M459.713,304.073v 4.31747" fill="none" stroke="black"/>
<path d="M476.72,299.755v 8.63493" fill="none" stroke="black"/>
<path d="M493.728,304.073v 4.31747" fill="none" stroke="black"/>
<path d="M510.736,304.073v 4.31747" fill="none" stroke="black"/>
<path d="M527.744,304.073v 4.31747" fill="none" stroke="black"/>
<path d="M544.752,299.755v 8.63493" fill="none" stroke="black"/>
<text xml:space="preserve" x="55.8247" y="319.455" fill="black" font-size="11.5027" font-family="Helvetica">1600</text>
<text xml:space="preserve" x="123.642" y="319.455" fill="black" font-size="11.5027" font-family="Helvetica">1800</text>
<text xml:space="preserve" x="192.054" y="319.455" fill="black" font-size="11.5027" font-family="Helvetica">2000</text>
<text xml:space="preserve" x="259.872" y="319.455" fill="black" font-size="11.5027" font-family="Helvetica">2200</text>
<text xml:space="preserve" x="327.689" y="319.455" fill="black" font-size="11.5027" font-family="Helvetica">2400</text>
<text xml:space="preserve" x="396.101" y="319.455" fill="black" font-size="11.5027" font-family="Helvetica">2600</text>
<text xml:space="preserve" x="463.918" y="319.455" fill="black" font-size="11.5027" font-family="Helvetica">2800</text>
<text xml:space="preserve" x="531.736" y="319.455" fill="black" font-size="11.5027" font-family="Helvetica">3000</text>
<text xml:space="preserve" x="419.302" y="330.163" fill="black" font-size="11.5027" font-family="Helvetica">Barrel hit x position (mm)</text>
<path d="M68.5315,308.39v -274.125" fill="none" stroke="black"/>
<path d="M82.1378,278.871h -13.6063" fill="none" stroke="black"/>
<path d="M75.3346,272.765h -6.80315" fill="none" stroke="black"/>
<path d="M75.3346,266.658h -6.80315" fill="none" stroke="black"/>
<path d="M75.3346,260.552h -6.80315" fill="none" stroke="black"/>
<path d="M75.3346,254.446h -6.80315" fill="none" stroke="black"/>
<path d="M82.1378,248.339h -13.6063" fill="none" stroke="black"/>
<path d="M75.3346,242.233h -6.80315" fill="none" stroke="black"/>
<path d="M75.3346,236.127h -6.80315" fill="none" stroke="black"/>
<path d="M75.3346,230.02h -6.80315" fill="none" stroke="black"/>
<path d="M75.3346,223.914h -6.80315" fill="none" stroke="black"/>
<path d="M82.1378,217.808h -13.6063" fill="none" stroke="black"/>
<path d="M75.3346,211.701h -6.80315" fill="none" stroke="black"/>
<path d="M75.3346,205.595h -6.80315" fill="none" stroke="black"/>
<path d="M75.3346,199.489h -6.80315" fill="none" stroke="black"/>
<path d="M75.3346,193.382h -6.80315" fill="none" stroke="black"/>
<path d="M82.1378,187.276h -13.6063" fill="none" stroke="black"/>
<path d="M75.3346,181.17h -6.80315" fill="none" stroke="black"/>
<path d="M75.3346,175.063h -6.80315" fill="none" stroke="black"/>
<path d="M75.3346,168.957h -6.80315" fill="none" stroke="black"/>
<path d="M75.3346,162.851h -6.80315" fill="none" stroke="black"/>
<path d="M82.1378,156.744h -13.6063" fill="none" stroke="black"/>
<path d="M75.3346,150.638h -6.80315" fill="none" stroke="black"/>
<path d="M75.3346,144.532h -6.80315" fill="none" stroke="black"/>
<path d="M75.3346,138.425h -6.80315" fill="none" stroke="black"/>
<path d="M75.3346,132.319h -6.80315" fill="none" stroke="black"/>
<path d="M82.1378,126.213h -13.6063" fill="none" stroke="black"/>
<path d="M75.3346,120.106h -6.80315" fill="none" stroke="black"/>
<path d="M75.3346,114h -6.80315" fill="none" stroke="black"/>
<path d="M75.3346,107.894h -6.80315" fill="none" stroke="black"/>
<path d="M75.3346,101.787h -6.80315" fill="none" stroke="black"/>
<path d="M82.1378,95.6811h -13.6063" fill="none" stroke="black"/>
<path d="M75.3346,89.5748h -6.80315" fill="none" stroke="black"/>
<path d="M75.3346,83.4685h -6.80315" fill="none" stroke="black"/>
<path d="M75.3346,77.3622h -6.80315" fill="none" stroke="black"/>
<path d="M75.3346,71.2558h -6.80315" fill="none" stroke="black"/>
<path d="M82.1378,65.1495h -13.6063" fill="none" stroke="black"/>
<path d="M75.3346,59.0432h -6.80315" fill="none" stroke="black"/>
<path d="M75.3346,52.9368h -6.80315" fill="none" stroke="black"/>
<path d="M75.3346,46.8305h -6.80315" fill="none" stroke="black"/>
<path d="M75.3346,40.7242h -6.80315" fill="none" stroke="black"/>
<path d="M82.1378,34.6179h -13.6063" fill="none" stroke="black"/>
<path d="M82.1378,278.871h -13.6063" fill="none" stroke="black"/>
<path d="M75.3346,284.977h -6.80315" fill="none" stroke="black"/>
<path d="M75.3346,291.084h -6.80315" fill="none" stroke="black"/>
<path d="M75.3346,297.19h -6.80315" fill="none" stroke="black"/>
<path d="M75.3346,303.296h -6.80315" fill="none" stroke="black"/>
<path d="M82.1378,34.6179h -13.6063" fill="none" stroke="black"/>
<text xml:space="preserve" x="30.8393" y="282.572" fill="black" font-size="11.5027" font-family="Helvetica">0.0005</text>
<text xml:space="preserve" x="39.1678" y="252.233" fill="black" font-size="11.5027" font-family="Helvetica">0.001</text>
<text xml:space="preserve" x="30.8393" y="221.894" fill="black" font-size="11.5027" font-family="Helvetica">0.0015</text>
<text xml:space="preserve" x="37.3831" y="190.959" fill="black" font-size="11.5027" font-family="Helvetica">0.002</text>
<text xml:space="preserve" x="30.8393" y="160.62" fill="black" font-size="11.5027" font-family="Helvetica">0.0025</text>
<text xml:space="preserve" x="37.3831" y="130.281" fill="black" font-size="11.5027" font-family="Helvetica">0.003</text>
<text xml:space="preserve" x="30.8393" y="99.3464" fill="black" font-size="11.5027" font-family="Helvetica">0.0035</text>
<text xml:space="preserve" x="37.3831" y="69.0071" fill="black" font-size="11.5027" font-family="Helvetica">0.004</text>
<text xml:space="preserve" x="30.8393" y="38.6678" fill="black" font-size="11.5027" font-family="Helvetica">0.0045</text>
<g transform="rotate(-90,17.1569,204.642)">
<text xml:space="preserve" x="17.1569" y="204.642" fill="black" font-size="11.5027" font-family="Helvetica">Energy deposited per event (GeV)</text>
</g>
<text xml:space="preserve" x="101.631" y="16.062" fill="black" font-size="13.8112" font-family="Helvetica">Avg energy dept in each layer 10000 events (1 GeV pi- gun)</text>
<g fill="#0000ff">
<polygon points=" 147.04, 57.3911 148.825, 60.9605 145.255, 60.9605"/>
<polygon points=" 150.646, 61.7299 152.43, 65.2992 148.861, 65.2992"/>
<polygon points=" 173.13, 86.8319 174.915, 90.4012 171.345, 90.4012"/>
<polygon points=" 176.736, 90.9077 178.52, 94.4771 174.951, 94.4771"/>
<polygon points=" 199.22, 134.676 201.005, 138.245 197.435, 138.245"/>
<polygon points=" 202.826, 133.122 204.61, 136.691 201.041, 136.691"/>
<polygon points=" 225.31, 181.468 227.095, 185.037 223.525, 185.037"/>
<polygon points=" 228.916, 182.125 230.7, 185.694 227.131, 185.694"/>
<polygon points=" 251.4, 216.592 253.185, 220.161 249.616, 220.161"/>
<polygon points=" 255.006, 216.124 256.79, 219.693 253.221, 219.693"/>
<polygon points=" 277.49, 238.882 279.275, 242.451 275.706, 242.451"/>
<polygon points=" 281.096, 237.129 282.881, 240.699 279.311, 240.699"/>
<polygon points=" 303.58, 256.688 305.365, 260.258 301.796, 260.258"/>
<polygon points=" 307.186, 255.997 308.971, 259.566 305.401, 259.566"/>
<polygon points=" 329.67, 273.985 331.455, 277.554 327.886, 277.554"/>
<polygon points=" 333.276, 271.423 335.061, 274.993 331.491, 274.993"/>
<polygon points=" 355.76, 282.17 357.545, 285.739 353.976, 285.739"/>
<polygon points=" 359.366, 281.997 361.151, 285.566 357.581, 285.566"/>
<polygon points=" 381.851, 290.959 383.635, 294.529 380.066, 294.529"/>
<polygon points=" 385.456, 290.734 387.241, 294.303 383.672, 294.303"/>
<polygon points=" 407.941, 296.179 409.725, 299.749 406.156, 299.749"/>
<polygon points=" 411.546, 296.935 413.331, 300.505 409.762, 300.505"/>
<polygon points=" 434.031, 301.818 435.815, 305.388 432.246, 305.388"/>
<polygon points=" 437.636, 301.618 439.421, 305.187 435.852, 305.187"/>
<polygon points=" 460.121, 304.8 461.905, 308.369 458.336, 308.369"/>
<polygon points=" 463.726, 305.069 465.511, 308.639 461.942, 308.639"/>
<polygon points=" 486.211, 306.395 487.996, 309.964 484.426, 309.964"/>
<polygon points=" 489.817, 306.493 491.601, 310.063 488.032, 310.063"/>
</g>
<text xml:space="preserve" x="101.631" y="16.062" fill="black" font-size="13.8112" font-family="Helvetica">Avg energy dept in each layer 10000 events (1 GeV pi- gun)</text></svg>
