<?xml version="1.0" standalone="no"?>
<svg width="567.429" height="343.156" viewBox="0 0 567.429 343.156" xmlns="http://www.w3.org/2000/svg" shape-rendering="crispEdges">
<title>
plots/april_4/pi_10000_1_GeV.svg
</title>
<desc>
Creator: ROOT Version 6.28/10
CreationDate: Fri Apr  5 11:55:54 2024</desc>
<defs>
</defs>
<rect x="0.5" y="0" width="566.929" height="342.656" fill="white"/>
<rect x="57.1929" y="34.2656" width="487.559" height="274.125" fill="white"/>
<rect x="57.1929" y="34.2656" width="487.559" height="274.125" fill="none" stroke="black"/>
<path d="M57.1929,308.39h 487.559" fill="none" stroke="black"/>
<path d="M57.1929,299.55v 8.84052" fill="none" stroke="black"/>
<path d="M74.6057,303.97v 4.42026" fill="none" stroke="black"/>
<path d="M92.0186,303.97v 4.42026" fill="none" stroke="black"/>
<path d="M109.431,303.97v 4.42026" fill="none" stroke="black"/>
<path d="M126.844,299.55v 8.84052" fill="none" stroke="black"/>
<path d="M144.257,303.97v 4.42026" fill="none" stroke="black"/>
<path d="M161.67,303.97v 4.42026" fill="none" stroke="black"/>
<path d="M179.083,303.97v 4.42026" fill="none" stroke="black"/>
<path d="M196.495,299.55v 8.84052" fill="none" stroke="black"/>
<path d="M213.908,303.97v 4.42026" fill="none" stroke="black"/>
<path d="M231.321,303.97v 4.42026" fill="none" stroke="black"/>
<path d="M248.734,303.97v 4.42026" fill="none" stroke="black"/>
<path d="M266.147,299.55v 8.84052" fill="none" stroke="black"/>
<path d="M283.56,303.97v 4.42026" fill="none" stroke="black"/>
<path d="M300.972,303.97v 4.42026" fill="none" stroke="black"/>
<path d="M318.385,303.97v 4.42026" fill="none" stroke="black"/>
<path d="M335.798,299.55v 8.84052" fill="none" stroke="black"/>
<path d="M353.211,303.97v 4.42026" fill="none" stroke="black"/>
<path d="M370.624,303.97v 4.42026" fill="none" stroke="black"/>
<path d="M388.037,303.97v 4.42026" fill="none" stroke="black"/>
<path d="M405.449,299.55v 8.84052" fill="none" stroke="black"/>
<path d="M422.862,303.97v 4.42026" fill="none" stroke="black"/>
<path d="M440.275,303.97v 4.42026" fill="none" stroke="black"/>
<path d="M457.688,303.97v 4.42026" fill="none" stroke="black"/>
<path d="M475.101,299.55v 8.84052" fill="none" stroke="black"/>
<path d="M492.513,303.97v 4.42026" fill="none" stroke="black"/>
<path d="M509.926,303.97v 4.42026" fill="none" stroke="black"/>
<path d="M527.339,303.97v 4.42026" fill="none" stroke="black"/>
<path d="M544.752,299.55v 8.84052" fill="none" stroke="black"/>
<text xml:space="preserve" x="44.5218" y="319.455" fill="black" font-size="11.5027" font-family="Helvetica">1600</text>
<text xml:space="preserve" x="114.124" y="319.455" fill="black" font-size="11.5027" font-family="Helvetica">1800</text>
<text xml:space="preserve" x="183.726" y="319.455" fill="black" font-size="11.5027" font-family="Helvetica">2000</text>
<text xml:space="preserve" x="253.328" y="319.455" fill="black" font-size="11.5027" font-family="Helvetica">2200</text>
<text xml:space="preserve" x="322.93" y="319.455" fill="black" font-size="11.5027" font-family="Helvetica">2400</text>
<text xml:space="preserve" x="392.532" y="319.455" fill="black" font-size="11.5027" font-family="Helvetica">2600</text>
<text xml:space="preserve" x="462.134" y="319.455" fill="black" font-size="11.5027" font-family="Helvetica">2800</text>
<text xml:space="preserve" x="531.736" y="319.455" fill="black" font-size="11.5027" font-family="Helvetica">3000</text>
<text xml:space="preserve" x="419.302" y="330.163" fill="black" font-size="11.5027" font-family="Helvetica">Barrel hit x position (mm)</text>
<path d="M57.1929,308.39v -274.125" fill="none" stroke="black"/>
<path d="M70.7992,285.659h -13.6063" fill="none" stroke="black"/>
<path d="M63.9961,275.874h -6.80315" fill="none" stroke="black"/>
<path d="M63.9961,266.089h -6.80315" fill="none" stroke="black"/>
<path d="M63.9961,256.305h -6.80315" fill="none" stroke="black"/>
<path d="M70.7992,246.52h -13.6063" fill="none" stroke="black"/>
<path d="M63.9961,236.735h -6.80315" fill="none" stroke="black"/>
<path d="M63.9961,226.95h -6.80315" fill="none" stroke="black"/>
<path d="M63.9961,217.165h -6.80315" fill="none" stroke="black"/>
<path d="M70.7992,207.381h -13.6063" fill="none" stroke="black"/>
<path d="M63.9961,197.596h -6.80315" fill="none" stroke="black"/>
<path d="M63.9961,187.811h -6.80315" fill="none" stroke="black"/>
<path d="M63.9961,178.026h -6.80315" fill="none" stroke="black"/>
<path d="M70.7992,168.242h -13.6063" fill="none" stroke="black"/>
<path d="M63.9961,158.457h -6.80315" fill="none" stroke="black"/>
<path d="M63.9961,148.672h -6.80315" fill="none" stroke="black"/>
<path d="M63.9961,138.887h -6.80315" fill="none" stroke="black"/>
<path d="M70.7992,129.102h -13.6063" fill="none" stroke="black"/>
<path d="M63.9961,119.318h -6.80315" fill="none" stroke="black"/>
<path d="M63.9961,109.533h -6.80315" fill="none" stroke="black"/>
<path d="M63.9961,99.7481h -6.80315" fill="none" stroke="black"/>
<path d="M70.7992,89.9633h -13.6063" fill="none" stroke="black"/>
<path d="M63.9961,80.1785h -6.80315" fill="none" stroke="black"/>
<path d="M63.9961,70.3937h -6.80315" fill="none" stroke="black"/>
<path d="M63.9961,60.609h -6.80315" fill="none" stroke="black"/>
<path d="M70.7992,50.8242h -13.6063" fill="none" stroke="black"/>
<path d="M70.7992,285.659h -13.6063" fill="none" stroke="black"/>
<path d="M63.9961,295.444h -6.80315" fill="none" stroke="black"/>
<path d="M63.9961,305.228h -6.80315" fill="none" stroke="black"/>
<path d="M70.7992,50.8242h -13.6063" fill="none" stroke="black"/>
<path d="M63.9961,41.0394h -6.80315" fill="none" stroke="black"/>
<text xml:space="preserve" x="26.0802" y="289.711" fill="black" font-size="11.5027" font-family="Helvetica">0.002</text>
<text xml:space="preserve" x="26.0802" y="250.448" fill="black" font-size="11.5027" font-family="Helvetica">0.004</text>
<text xml:space="preserve" x="26.0802" y="211.186" fill="black" font-size="11.5027" font-family="Helvetica">0.006</text>
<text xml:space="preserve" x="26.0802" y="171.923" fill="black" font-size="11.5027" font-family="Helvetica">0.008</text>
<text xml:space="preserve" x="34.4087" y="133.255" fill="black" font-size="11.5027" font-family="Helvetica">0.01</text>
<text xml:space="preserve" x="26.0802" y="93.9924" fill="black" font-size="11.5027" font-family="Helvetica">0.012</text>
<text xml:space="preserve" x="26.0802" y="54.7298" fill="black" font-size="11.5027" font-family="Helvetica">0.014</text>
<g transform="rotate(-90,11.8029,204.642)">
<text xml:space="preserve" x="11.8029" y="204.642" fill="black" font-size="11.5027" font-family="Helvetica">Energy deposited per event (GeV)</text>
</g>
<text xml:space="preserve" x="101.631" y="16.062" fill="black" font-size="13.8112" font-family="Helvetica">Avg energy dept in each layer 10000 events (1 GeV pi- gun)</text>
<g fill="#0000ff">
<polygon points=" 137.571, 120.867 139.355, 124.436 135.786, 124.436"/>
<polygon points=" 141.262, 120.146 143.047, 123.715 139.477, 123.715"/>
<polygon points=" 164.282, 57.2356 166.066, 60.805 162.497, 60.805"/>
<polygon points=" 167.973, 62.2468 169.758, 65.8162 166.189, 65.8162"/>
<polygon points=" 190.993, 60.492 192.778, 64.0614 189.208, 64.0614"/>
<polygon points=" 194.685, 64.1805 196.469, 67.7499 192.9, 67.7499"/>
<polygon points=" 217.704, 90.8121 219.489, 94.3814 215.92, 94.3814"/>
<polygon points=" 221.396, 96.2564 223.181, 99.8258 219.611, 99.8258"/>
<polygon points=" 244.416, 128.014 246.2, 131.583 242.631, 131.583"/>
<polygon points=" 248.107, 129.482 249.892, 133.051 246.322, 133.051"/>
<polygon points=" 271.127, 161.873 272.912, 165.442 269.342, 165.442"/>
<polygon points=" 274.818, 163.63 276.603, 167.199 273.034, 167.199"/>
<polygon points=" 297.838, 193.468 299.623, 197.038 296.053, 197.038"/>
<polygon points=" 301.53, 194.543 303.314, 198.112 299.745, 198.112"/>
<polygon points=" 324.549, 223.28 326.334, 226.85 322.765, 226.85"/>
<polygon points=" 328.241, 222.946 330.026, 226.515 326.456, 226.515"/>
<polygon points=" 351.261, 239.905 353.045, 243.474 349.476, 243.474"/>
<polygon points=" 354.952, 242.807 356.737, 246.376 353.168, 246.376"/>
<polygon points=" 377.972, 256.809 379.757, 260.378 376.187, 260.378"/>
<polygon points=" 381.663, 255.974 383.448, 259.543 379.879, 259.543"/>
<polygon points=" 404.683, 273.752 406.468, 277.321 402.899, 277.321"/>
<polygon points=" 408.375, 274.069 410.159, 277.638 406.59, 277.638"/>
<polygon points=" 431.395, 284.696 433.179, 288.265 429.61, 288.265"/>
<polygon points=" 435.086, 285.164 436.871, 288.733 433.301, 288.733"/>
<polygon points=" 458.106, 292.993 459.89, 296.562 456.321, 296.562"/>
<polygon points=" 461.797, 294.536 463.582, 298.105 460.013, 298.105"/>
<polygon points=" 484.817, 303.936 486.602, 307.505 483.032, 307.505"/>
<polygon points=" 488.509, 304.783 490.293, 308.352 486.724, 308.352"/>
</g>
<text xml:space="preserve" x="101.631" y="16.062" fill="black" font-size="13.8112" font-family="Helvetica">Avg energy dept in each layer 10000 events (1 GeV pi- gun)</text></svg>
