<?xml version="1.0" standalone="no"?>
<svg width="567.429" height="386.304" viewBox="0 0 567.429 386.304" xmlns="http://www.w3.org/2000/svg" shape-rendering="crispEdges">
<title>
plots/May_7/mu_1GeV_energy_1_run1.svg
</title>
<desc>
Creator: ROOT Version 6.30/02
CreationDate: Wed May  8 15:50:03 2024</desc>
<defs>
</defs>
<rect x="0.5" y="0" width="566.929" height="385.804" fill="white"/>
<rect x="6.16929" y="3.85804" width="555.591" height="185.186" fill="white"/>
<rect x="61.7283" y="22.3766" width="444.472" height="148.149" fill="white"/>
<rect x="61.7283" y="22.3766" width="444.472" height="148.149" fill="none" stroke="black"/>
<path d="M61.7283,170.525h 444.472" fill="none" stroke="black"/>
<path d="M61.7283,166.081v 4.44446" fill="none" stroke="black"/>
<path d="M77.6024,168.303v 2.22223" fill="none" stroke="black"/>
<path d="M93.4764,168.303v 2.22223" fill="none" stroke="black"/>
<path d="M109.35,168.303v 2.22223" fill="none" stroke="black"/>
<path d="M125.224,166.081v 4.44446" fill="none" stroke="black"/>
<path d="M141.098,168.303v 2.22223" fill="none" stroke="black"/>
<path d="M156.972,168.303v 2.22223" fill="none" stroke="black"/>
<path d="M172.846,168.303v 2.22223" fill="none" stroke="black"/>
<path d="M188.72,166.081v 4.44446" fill="none" stroke="black"/>
<path d="M204.594,168.303v 2.22223" fill="none" stroke="black"/>
<path d="M220.469,168.303v 2.22223" fill="none" stroke="black"/>
<path d="M236.343,168.303v 2.22223" fill="none" stroke="black"/>
<path d="M252.217,166.081v 4.44446" fill="none" stroke="black"/>
<path d="M268.091,168.303v 2.22223" fill="none" stroke="black"/>
<path d="M283.965,168.303v 2.22223" fill="none" stroke="black"/>
<path d="M299.839,168.303v 2.22223" fill="none" stroke="black"/>
<path d="M315.713,166.081v 4.44446" fill="none" stroke="black"/>
<path d="M331.587,168.303v 2.22223" fill="none" stroke="black"/>
<path d="M347.461,168.303v 2.22223" fill="none" stroke="black"/>
<path d="M363.335,168.303v 2.22223" fill="none" stroke="black"/>
<path d="M379.209,166.081v 4.44446" fill="none" stroke="black"/>
<path d="M395.083,168.303v 2.22223" fill="none" stroke="black"/>
<path d="M410.957,168.303v 2.22223" fill="none" stroke="black"/>
<path d="M426.831,168.303v 2.22223" fill="none" stroke="black"/>
<path d="M442.705,166.081v 4.44446" fill="none" stroke="black"/>
<path d="M458.579,168.303v 2.22223" fill="none" stroke="black"/>
<path d="M474.453,168.303v 2.22223" fill="none" stroke="black"/>
<path d="M490.327,168.303v 2.22223" fill="none" stroke="black"/>
<path d="M506.201,166.081v 4.44446" fill="none" stroke="black"/>
<text xml:space="preserve" x="54.9187" y="176.252" fill="black" font-size="6.44634" font-family="Helvetica">1600</text>
<text xml:space="preserve" x="118.272" y="176.252" fill="black" font-size="6.44634" font-family="Helvetica">1800</text>
<text xml:space="preserve" x="181.625" y="176.252" fill="black" font-size="6.44634" font-family="Helvetica">2000</text>
<text xml:space="preserve" x="244.978" y="176.252" fill="black" font-size="6.44634" font-family="Helvetica">2200</text>
<text xml:space="preserve" x="309.143" y="176.252" fill="black" font-size="6.44634" font-family="Helvetica">2400</text>
<text xml:space="preserve" x="372.496" y="176.252" fill="black" font-size="6.44634" font-family="Helvetica">2600</text>
<text xml:space="preserve" x="435.85" y="176.252" fill="black" font-size="6.44634" font-family="Helvetica">2800</text>
<text xml:space="preserve" x="499.203" y="176.252" fill="black" font-size="6.44634" font-family="Helvetica">3000</text>
<text xml:space="preserve" x="442.347" y="182.749" fill="black" font-size="6.44634" font-family="Helvetica">Barrel hit x position (mm)</text>
<path d="M61.7283,170.525v -148.149" fill="none" stroke="black"/>
<path d="M75.0625,170.525h -13.3342" fill="none" stroke="black"/>
<path d="M68.3954,165.424h -6.66709" fill="none" stroke="black"/>
<path d="M68.3954,160.322h -6.66709" fill="none" stroke="black"/>
<path d="M68.3954,155.221h -6.66709" fill="none" stroke="black"/>
<path d="M75.0625,150.119h -13.3342" fill="none" stroke="black"/>
<path d="M68.3954,145.018h -6.66709" fill="none" stroke="black"/>
<path d="M68.3954,139.916h -6.66709" fill="none" stroke="black"/>
<path d="M68.3954,134.815h -6.66709" fill="none" stroke="black"/>
<path d="M75.0625,129.713h -13.3342" fill="none" stroke="black"/>
<path d="M68.3954,124.612h -6.66709" fill="none" stroke="black"/>
<path d="M68.3954,119.51h -6.66709" fill="none" stroke="black"/>
<path d="M68.3954,114.408h -6.66709" fill="none" stroke="black"/>
<path d="M75.0625,109.307h -13.3342" fill="none" stroke="black"/>
<path d="M68.3954,104.205h -6.66709" fill="none" stroke="black"/>
<path d="M68.3954,99.1039h -6.66709" fill="none" stroke="black"/>
<path d="M68.3954,94.0023h -6.66709" fill="none" stroke="black"/>
<path d="M75.0625,88.9008h -13.3342" fill="none" stroke="black"/>
<path d="M68.3954,83.7992h -6.66709" fill="none" stroke="black"/>
<path d="M68.3954,78.6977h -6.66709" fill="none" stroke="black"/>
<path d="M68.3954,73.5961h -6.66709" fill="none" stroke="black"/>
<path d="M75.0625,68.4946h -13.3342" fill="none" stroke="black"/>
<path d="M68.3954,63.3931h -6.66709" fill="none" stroke="black"/>
<path d="M68.3954,58.2915h -6.66709" fill="none" stroke="black"/>
<path d="M68.3954,53.19h -6.66709" fill="none" stroke="black"/>
<path d="M75.0625,48.0884h -13.3342" fill="none" stroke="black"/>
<path d="M68.3954,42.9869h -6.66709" fill="none" stroke="black"/>
<path d="M68.3954,37.8853h -6.66709" fill="none" stroke="black"/>
<path d="M68.3954,32.7838h -6.66709" fill="none" stroke="black"/>
<path d="M75.0625,27.6823h -13.3342" fill="none" stroke="black"/>
<path d="M75.0625,27.6823h -13.3342" fill="none" stroke="black"/>
<path d="M68.3954,22.5807h -6.66709" fill="none" stroke="black"/>
<text xml:space="preserve" x="54.9187" y="172.191" fill="black" font-size="6.44634" font-family="Helvetica">0</text>
<text xml:space="preserve" x="51.6698" y="151.885" fill="black" font-size="6.44634" font-family="Helvetica">20</text>
<text xml:space="preserve" x="51.6698" y="131.58" fill="black" font-size="6.44634" font-family="Helvetica">40</text>
<text xml:space="preserve" x="51.6698" y="111.274" fill="black" font-size="6.44634" font-family="Helvetica">60</text>
<text xml:space="preserve" x="51.6698" y="90.9686" fill="black" font-size="6.44634" font-family="Helvetica">80</text>
<text xml:space="preserve" x="48.4209" y="70.6631" fill="black" font-size="6.44634" font-family="Helvetica">100</text>
<text xml:space="preserve" x="48.4209" y="50.3576" fill="black" font-size="6.44634" font-family="Helvetica">120</text>
<text xml:space="preserve" x="48.4209" y="30.0521" fill="black" font-size="6.44634" font-family="Helvetica">140</text>
<g transform="rotate(-90,34.6132,67.4142)">
<text xml:space="preserve" x="34.6132" y="67.4142" fill="black" font-size="6.44634" font-family="Helvetica"># of hits per event</text>
</g>
<text xml:space="preserve" x="184.062" y="13.8077" fill="black" font-size="9.6207" font-family="Helvetica">avg # of hits in each layer 1 event (1GeV mu- gun)</text>
<g fill="#ff0000">
<polygon points=" 131.033, 114.887 131.033, 113.804 132.115, 113.804 132.115, 114.887 133.198, 114.887 133.198, 115.97 132.115, 115.97 132.115, 117.053 131.033, 117.053 131.033, 115.97 129.95, 115.97 129.95, 114.887"/>
<polygon points=" 134.461, 39.3845 134.461, 38.3015 135.544, 38.3015 135.544, 39.3845 136.627, 39.3845 136.627, 40.4674 135.544, 40.4674 135.544, 41.5504 134.461, 41.5504 134.461, 40.4674 133.378, 40.4674 133.378, 39.3845"/>
<polygon points=" 137.827, 82.2374 137.827, 81.1545 138.91, 81.1545 138.91, 82.2374 139.993, 82.2374 139.993, 83.3204 138.91, 83.3204 138.91, 84.4034 137.827, 84.4034 137.827, 83.3204 136.744, 83.3204 136.744, 82.2374"/>
<polygon points=" 158.812, 62.8516 158.812, 61.7686 159.895, 61.7686 159.895, 62.8516 160.978, 62.8516 160.978, 63.9345 159.895, 63.9345 159.895, 65.0175 158.812, 65.0175 158.812, 63.9345 157.729, 63.9345 157.729, 62.8516"/>
<polygon points=" 162.177, 52.6485 162.177, 51.5655 163.26, 51.5655 163.26, 52.6485 164.343, 52.6485 164.343, 53.7314 163.26, 53.7314 163.26, 54.8144 162.177, 54.8144 162.177, 53.7314 161.094, 53.7314 161.094, 52.6485"/>
<polygon points=" 183.163, 35.3032 183.163, 34.2203 184.246, 34.2203 184.246, 35.3032 185.329, 35.3032 185.329, 36.3862 184.246, 36.3862 184.246, 37.4692 183.163, 37.4692 183.163, 36.3862 182.08, 36.3862 182.08, 35.3032"/>
<polygon points=" 186.528, 55.7094 186.528, 54.6265 187.611, 54.6265 187.611, 55.7094 188.694, 55.7094 188.694, 56.7924 187.611, 56.7924 187.611, 57.8753 186.528, 57.8753 186.528, 56.7924 185.445, 56.7924 185.445, 55.7094"/>
<polygon points=" 207.514, 68.9734 207.514, 67.8905 208.596, 67.8905 208.596, 68.9734 209.679, 68.9734 209.679, 70.0564 208.596, 70.0564 208.596, 71.1393 207.514, 71.1393 207.514, 70.0564 206.431, 70.0564 206.431, 68.9734"/>
<polygon points=" 210.879, 42.4454 210.879, 41.3624 211.962, 41.3624 211.962, 42.4454 213.045, 42.4454 213.045, 43.5284 211.962, 43.5284 211.962, 44.6113 210.879, 44.6113 210.879, 43.5284 209.796, 43.5284 209.796, 42.4454"/>
<polygon points=" 231.864, 82.2374 231.864, 81.1545 232.947, 81.1545 232.947, 82.2374 234.03, 82.2374 234.03, 83.3204 232.947, 83.3204 232.947, 84.4034 231.864, 84.4034 231.864, 83.3204 230.781, 83.3204 230.781, 82.2374"/>
<polygon points=" 235.23, 90.3999 235.23, 89.3169 236.313, 89.3169 236.313, 90.3999 237.395, 90.3999 237.395, 91.4829 236.313, 91.4829 236.313, 92.5658 235.23, 92.5658 235.23, 91.4829 234.147, 91.4829 234.147, 90.3999"/>
<polygon points=" 256.215, 92.4405 256.215, 91.3576 257.298, 91.3576 257.298, 92.4405 258.381, 92.4405 258.381, 93.5235 257.298, 93.5235 257.298, 94.6064 256.215, 94.6064 256.215, 93.5235 255.132, 93.5235 255.132, 92.4405"/>
<polygon points=" 259.58, 86.3187 259.58, 85.2357 260.663, 85.2357 260.663, 86.3187 261.746, 86.3187 261.746, 87.4016 260.663, 87.4016 260.663, 88.4846 259.58, 88.4846 259.58, 87.4016 258.497, 87.4016 258.497, 86.3187"/>
<polygon points=" 280.566, 95.5014 280.566, 94.4185 281.649, 94.4185 281.649, 95.5014 282.732, 95.5014 282.732, 96.5844 281.649, 96.5844 281.649, 97.6674 280.566, 97.6674 280.566, 96.5844 279.483, 96.5844 279.483, 95.5014"/>
<polygon points=" 283.931, 93.4608 283.931, 92.3779 285.014, 92.3779 285.014, 93.4608 286.097, 93.4608 286.097, 94.5438 285.014, 94.5438 285.014, 95.6268 283.931, 95.6268 283.931, 94.5438 282.848, 94.5438 282.848, 93.4608"/>
<polygon points=" 304.917, 68.9734 304.917, 67.8905 305.999, 67.8905 305.999, 68.9734 307.082, 68.9734 307.082, 70.0564 305.999, 70.0564 305.999, 71.1393 304.917, 71.1393 304.917, 70.0564 303.834, 70.0564 303.834, 68.9734"/>
<polygon points=" 308.282, 109.786 308.282, 108.703 309.365, 108.703 309.365, 109.786 310.448, 109.786 310.448, 110.869 309.365, 110.869 309.365, 111.952 308.282, 111.952 308.282, 110.869 307.199, 110.869 307.199, 109.786"/>
<polygon points=" 329.267, 105.705 329.267, 104.622 330.35, 104.622 330.35, 105.705 331.433, 105.705 331.433, 106.787 330.35, 106.787 330.35, 107.87 329.267, 107.87 329.267, 106.787 328.184, 106.787 328.184, 105.705"/>
<polygon points=" 332.633, 111.826 332.633, 110.743 333.715, 110.743 333.715, 111.826 334.798, 111.826 334.798, 112.909 333.715, 112.909 333.715, 113.992 332.633, 113.992 332.633, 112.909 331.55, 112.909 331.55, 111.826"/>
<polygon points=" 353.618, 152.639 353.618, 151.556 354.701, 151.556 354.701, 152.639 355.784, 152.639 355.784, 153.722 354.701, 153.722 354.701, 154.805 353.618, 154.805 353.618, 153.722 352.535, 153.722 352.535, 152.639"/>
<polygon points=" 356.983, 157.74 356.983, 156.657 358.066, 156.657 358.066, 157.74 359.149, 157.74 359.149, 158.823 358.066, 158.823 358.066, 159.906 356.983, 159.906 356.983, 158.823 355.9, 158.823 355.9, 157.74"/>
<polygon points=" 377.969, 167.943 377.969, 166.86 379.052, 166.86 379.052, 167.943 380.135, 167.943 380.135, 169.026 379.052, 169.026 379.052, 170.109 377.969, 170.109 377.969, 169.026 376.886, 169.026 376.886, 167.943"/>
<polygon points=" 381.334, 161.822 381.334, 160.739 382.417, 160.739 382.417, 161.822 383.5, 161.822 383.5, 162.904 382.417, 162.904 382.417, 163.987 381.334, 163.987 381.334, 162.904 380.251, 162.904 380.251, 161.822"/>
<polygon points=" 402.319, 160.801 402.319, 159.718 403.402, 159.718 403.402, 160.801 404.485, 160.801 404.485, 161.884 403.402, 161.884 403.402, 162.967 402.319, 162.967 402.319, 161.884 401.237, 161.884 401.237, 160.801"/>
<polygon points=" 405.685, 167.943 405.685, 166.86 406.768, 166.86 406.768, 167.943 407.851, 167.943 407.851, 169.026 406.768, 169.026 406.768, 170.109 405.685, 170.109 405.685, 169.026 404.602, 169.026 404.602, 167.943"/>
<polygon points=" 426.67, 169.984 426.67, 168.901 427.753, 168.901 427.753, 169.984 428.836, 169.984 428.836, 171.067 427.753, 171.067 427.753, 172.15 426.67, 172.15 426.67, 171.067 425.587, 171.067 425.587, 169.984"/>
<polygon points=" 430.036, 169.984 430.036, 168.901 431.118, 168.901 431.118, 169.984 432.201, 169.984 432.201, 171.067 431.118, 171.067 431.118, 172.15 430.036, 172.15 430.036, 171.067 428.953, 171.067 428.953, 169.984"/>
<polygon points=" 451.021, 169.984 451.021, 168.901 452.104, 168.901 452.104, 169.984 453.187, 169.984 453.187, 171.067 452.104, 171.067 452.104, 172.15 451.021, 172.15 451.021, 171.067 449.938, 171.067 449.938, 169.984"/>
</g>
<text xml:space="preserve" x="184.062" y="13.8077" fill="black" font-size="9.6207" font-family="Helvetica">avg # of hits in each layer 1 event (1GeV mu- gun)</text>
<rect x="6.16929" y="196.76" width="555.591" height="185.186" fill="white"/>
<rect x="61.7283" y="215.279" width="444.472" height="148.149" fill="white"/>
<rect x="61.7283" y="215.279" width="444.472" height="148.149" fill="none" stroke="black"/>
<path d="M61.7283,363.428h 444.472" fill="none" stroke="black"/>
<path d="M61.7283,358.983v 4.44446" fill="none" stroke="black"/>
<path d="M77.6024,361.205v 2.22223" fill="none" stroke="black"/>
<path d="M93.4764,361.205v 2.22223" fill="none" stroke="black"/>
<path d="M109.35,361.205v 2.22223" fill="none" stroke="black"/>
<path d="M125.224,358.983v 4.44446" fill="none" stroke="black"/>
<path d="M141.098,361.205v 2.22223" fill="none" stroke="black"/>
<path d="M156.972,361.205v 2.22223" fill="none" stroke="black"/>
<path d="M172.846,361.205v 2.22223" fill="none" stroke="black"/>
<path d="M188.72,358.983v 4.44446" fill="none" stroke="black"/>
<path d="M204.594,361.205v 2.22223" fill="none" stroke="black"/>
<path d="M220.469,361.205v 2.22223" fill="none" stroke="black"/>
<path d="M236.343,361.205v 2.22223" fill="none" stroke="black"/>
<path d="M252.217,358.983v 4.44446" fill="none" stroke="black"/>
<path d="M268.091,361.205v 2.22223" fill="none" stroke="black"/>
<path d="M283.965,361.205v 2.22223" fill="none" stroke="black"/>
<path d="M299.839,361.205v 2.22223" fill="none" stroke="black"/>
<path d="M315.713,358.983v 4.44446" fill="none" stroke="black"/>
<path d="M331.587,361.205v 2.22223" fill="none" stroke="black"/>
<path d="M347.461,361.205v 2.22223" fill="none" stroke="black"/>
<path d="M363.335,361.205v 2.22223" fill="none" stroke="black"/>
<path d="M379.209,358.983v 4.44446" fill="none" stroke="black"/>
<path d="M395.083,361.205v 2.22223" fill="none" stroke="black"/>
<path d="M410.957,361.205v 2.22223" fill="none" stroke="black"/>
<path d="M426.831,361.205v 2.22223" fill="none" stroke="black"/>
<path d="M442.705,358.983v 4.44446" fill="none" stroke="black"/>
<path d="M458.579,361.205v 2.22223" fill="none" stroke="black"/>
<path d="M474.453,361.205v 2.22223" fill="none" stroke="black"/>
<path d="M490.327,361.205v 2.22223" fill="none" stroke="black"/>
<path d="M506.201,358.983v 4.44446" fill="none" stroke="black"/>
<text xml:space="preserve" x="54.9187" y="368.748" fill="black" font-size="6.44634" font-family="Helvetica">1600</text>
<text xml:space="preserve" x="118.272" y="368.748" fill="black" font-size="6.44634" font-family="Helvetica">1800</text>
<text xml:space="preserve" x="181.625" y="368.748" fill="black" font-size="6.44634" font-family="Helvetica">2000</text>
<text xml:space="preserve" x="244.978" y="368.748" fill="black" font-size="6.44634" font-family="Helvetica">2200</text>
<text xml:space="preserve" x="309.143" y="368.748" fill="black" font-size="6.44634" font-family="Helvetica">2400</text>
<text xml:space="preserve" x="372.496" y="368.748" fill="black" font-size="6.44634" font-family="Helvetica">2600</text>
<text xml:space="preserve" x="435.85" y="368.748" fill="black" font-size="6.44634" font-family="Helvetica">2800</text>
<text xml:space="preserve" x="499.203" y="368.748" fill="black" font-size="6.44634" font-family="Helvetica">3000</text>
<text xml:space="preserve" x="449.657" y="376.058" fill="black" font-size="6.44634" font-family="Helvetica">vertex x position (mm)</text>
<path d="M61.7283,363.428v -148.149" fill="none" stroke="black"/>
<path d="M75.0625,363.428h -13.3342" fill="none" stroke="black"/>
<path d="M68.3954,356.514h -6.66709" fill="none" stroke="black"/>
<path d="M68.3954,349.6h -6.66709" fill="none" stroke="black"/>
<path d="M68.3954,342.686h -6.66709" fill="none" stroke="black"/>
<path d="M75.0625,335.772h -13.3342" fill="none" stroke="black"/>
<path d="M68.3954,328.859h -6.66709" fill="none" stroke="black"/>
<path d="M68.3954,321.945h -6.66709" fill="none" stroke="black"/>
<path d="M68.3954,315.031h -6.66709" fill="none" stroke="black"/>
<path d="M75.0625,308.117h -13.3342" fill="none" stroke="black"/>
<path d="M68.3954,301.203h -6.66709" fill="none" stroke="black"/>
<path d="M68.3954,294.29h -6.66709" fill="none" stroke="black"/>
<path d="M68.3954,287.376h -6.66709" fill="none" stroke="black"/>
<path d="M75.0625,280.462h -13.3342" fill="none" stroke="black"/>
<path d="M68.3954,273.548h -6.66709" fill="none" stroke="black"/>
<path d="M68.3954,266.634h -6.66709" fill="none" stroke="black"/>
<path d="M68.3954,259.721h -6.66709" fill="none" stroke="black"/>
<path d="M75.0625,252.807h -13.3342" fill="none" stroke="black"/>
<path d="M68.3954,245.893h -6.66709" fill="none" stroke="black"/>
<path d="M68.3954,238.979h -6.66709" fill="none" stroke="black"/>
<path d="M68.3954,232.065h -6.66709" fill="none" stroke="black"/>
<path d="M75.0625,225.152h -13.3342" fill="none" stroke="black"/>
<path d="M75.0625,225.152h -13.3342" fill="none" stroke="black"/>
<path d="M68.3954,218.238h -6.66709" fill="none" stroke="black"/>
<text xml:space="preserve" x="54.9187" y="365.499" fill="black" font-size="6.44634" font-family="Helvetica">0</text>
<text xml:space="preserve" x="48.4209" y="337.883" fill="black" font-size="6.44634" font-family="Helvetica">200</text>
<text xml:space="preserve" x="48.4209" y="310.268" fill="black" font-size="6.44634" font-family="Helvetica">400</text>
<text xml:space="preserve" x="48.4209" y="282.652" fill="black" font-size="6.44634" font-family="Helvetica">600</text>
<text xml:space="preserve" x="48.4209" y="255.037" fill="black" font-size="6.44634" font-family="Helvetica">800</text>
<text xml:space="preserve" x="45.1721" y="227.421" fill="black" font-size="6.44634" font-family="Helvetica">1000</text>
<g transform="rotate(-90,30.5521,328.137)">
<text xml:space="preserve" x="30.5521" y="328.137" fill="black" font-size="6.44634" font-family="Helvetica"># of optical photons in MCParticles per event</text>
</g>
<text xml:space="preserve" x="173.503" y="206.304" fill="black" font-size="9.6207" font-family="Helvetica">avg # of -22 PDG in each layer 1 event (1GeV mu- gun)</text>
<g fill="#ff0000">
<polygon points=" 131.033, 316.149 131.033, 315.066 132.115, 315.066 132.115, 316.149 133.198, 316.149 133.198, 317.232 132.115, 317.232 132.115, 318.315 131.033, 318.315 131.033, 317.232 129.95, 317.232 129.95, 316.149"/>
<polygon points=" 134.461, 269.688 134.461, 268.605 135.544, 268.605 135.544, 269.688 136.627, 269.688 136.627, 270.771 135.544, 270.771 135.544, 271.854 134.461, 271.854 134.461, 270.771 133.378, 270.771 133.378, 269.688"/>
<polygon points=" 137.827, 264.848 137.827, 263.766 138.91, 263.766 138.91, 264.848 139.993, 264.848 139.993, 265.931 138.91, 265.931 138.91, 267.014 137.827, 267.014 137.827, 265.931 136.744, 265.931 136.744, 264.848"/>
<polygon points=" 158.812, 268.167 158.812, 267.084 159.895, 267.084 159.895, 268.167 160.978, 268.167 160.978, 269.25 159.895, 269.25 159.895, 270.333 158.812, 270.333 158.812, 269.25 157.729, 269.25 157.729, 268.167"/>
<polygon points=" 162.177, 263.881 162.177, 262.798 163.26, 262.798 163.26, 263.881 164.343, 263.881 164.343, 264.964 163.26, 264.964 163.26, 266.046 162.177, 266.046 162.177, 264.964 161.094, 264.964 161.094, 263.881"/>
<polygon points=" 183.163, 263.604 183.163, 262.521 184.246, 262.521 184.246, 263.604 185.329, 263.604 185.329, 264.687 184.246, 264.687 184.246, 265.77 183.163, 265.77 183.163, 264.687 182.08, 264.687 182.08, 263.604"/>
<polygon points=" 186.528, 266.923 186.528, 265.84 187.611, 265.84 187.611, 266.923 188.694, 266.923 188.694, 268.006 187.611, 268.006 187.611, 269.089 186.528, 269.089 186.528, 268.006 185.445, 268.006 185.445, 266.923"/>
<polygon points=" 207.514, 264.987 207.514, 263.904 208.596, 263.904 208.596, 264.987 209.679, 264.987 209.679, 266.07 208.596, 266.07 208.596, 267.153 207.514, 267.153 207.514, 266.07 206.431, 266.07 206.431, 264.987"/>
<polygon points=" 210.879, 262.913 210.879, 261.83 211.962, 261.83 211.962, 262.913 213.045, 262.913 213.045, 263.996 211.962, 263.996 211.962, 265.079 210.879, 265.079 210.879, 263.996 209.796, 263.996 209.796, 262.913"/>
<polygon points=" 231.864, 260.838 231.864, 259.755 232.947, 259.755 232.947, 260.838 234.03, 260.838 234.03, 261.921 232.947, 261.921 232.947, 263.004 231.864, 263.004 231.864, 261.921 230.781, 261.921 230.781, 260.838"/>
<polygon points=" 235.23, 261.392 235.23, 260.309 236.313, 260.309 236.313, 261.392 237.395, 261.392 237.395, 262.475 236.313, 262.475 236.313, 263.557 235.23, 263.557 235.23, 262.475 234.147, 262.475 234.147, 261.392"/>
<polygon points=" 256.215, 268.305 256.215, 267.222 257.298, 267.222 257.298, 268.305 258.381, 268.305 258.381, 269.388 257.298, 269.388 257.298, 270.471 256.215, 270.471 256.215, 269.388 255.132, 269.388 255.132, 268.305"/>
<polygon points=" 259.58, 272.73 259.58, 271.647 260.663, 271.647 260.663, 272.73 261.746, 272.73 261.746, 273.813 260.663, 273.813 260.663, 274.896 259.58, 274.896 259.58, 273.813 258.497, 273.813 258.497, 272.73"/>
<polygon points=" 280.566, 267.199 280.566, 266.116 281.649, 266.116 281.649, 267.199 282.732, 267.199 282.732, 268.282 281.649, 268.282 281.649, 269.365 280.566, 269.365 280.566, 268.282 279.483, 268.282 279.483, 267.199"/>
<polygon points=" 283.931, 269.965 283.931, 268.882 285.014, 268.882 285.014, 269.965 286.097, 269.965 286.097, 271.048 285.014, 271.048 285.014, 272.131 283.931, 272.131 283.931, 271.048 282.848, 271.048 282.848, 269.965"/>
<polygon points=" 304.917, 249.085 304.917, 248.002 305.999, 248.002 305.999, 249.085 307.082, 249.085 307.082, 250.168 305.999, 250.168 305.999, 251.251 304.917, 251.251 304.917, 250.168 303.834, 250.168 303.834, 249.085"/>
<polygon points=" 308.282, 271.347 308.282, 270.264 309.365, 270.264 309.365, 271.347 310.448, 271.347 310.448, 272.43 309.365, 272.43 309.365, 273.513 308.282, 273.513 308.282, 272.43 307.199, 272.43 307.199, 271.347"/>
<polygon points=" 329.267, 270.103 329.267, 269.02 330.35, 269.02 330.35, 270.103 331.433, 270.103 331.433, 271.186 330.35, 271.186 330.35, 272.269 329.267, 272.269 329.267, 271.186 328.184, 271.186 328.184, 270.103"/>
<polygon points=" 332.633, 228.205 332.633, 227.122 333.715, 227.122 333.715, 228.205 334.798, 228.205 334.798, 229.288 333.715, 229.288 333.715, 230.371 332.633, 230.371 332.633, 229.288 331.55, 229.288 331.55, 228.205"/>
<polygon points=" 353.618, 263.742 353.618, 262.659 354.701, 262.659 354.701, 263.742 355.784, 263.742 355.784, 264.825 354.701, 264.825 354.701, 265.908 353.618, 265.908 353.618, 264.825 352.535, 264.825 352.535, 263.742"/>
<polygon points=" 356.983, 239.682 356.983, 238.599 358.066, 238.599 358.066, 239.682 359.149, 239.682 359.149, 240.765 358.066, 240.765 358.066, 241.848 356.983, 241.848 356.983, 240.765 355.9, 240.765 355.9, 239.682"/>
<polygon points=" 377.969, 279.229 377.969, 278.146 379.052, 278.146 379.052, 279.229 380.135, 279.229 380.135, 280.312 379.052, 280.312 379.052, 281.395 377.969, 281.395 377.969, 280.312 376.886, 280.312 376.886, 279.229"/>
<polygon points=" 381.334, 297.758 381.334, 296.675 382.417, 296.675 382.417, 297.758 383.5, 297.758 383.5, 298.841 382.417, 298.841 382.417, 299.924 381.334, 299.924 381.334, 298.841 380.251, 298.841 380.251, 297.758"/>
<polygon points=" 402.319, 305.087 402.319, 304.004 403.402, 304.004 403.402, 305.087 404.485, 305.087 404.485, 306.17 403.402, 306.17 403.402, 307.253 402.319, 307.253 402.319, 306.17 401.237, 306.17 401.237, 305.087"/>
<polygon points=" 405.685, 345.187 405.685, 344.104 406.768, 344.104 406.768, 345.187 407.851, 345.187 407.851, 346.27 406.768, 346.27 406.768, 347.353 405.685, 347.353 405.685, 346.27 404.602, 346.27 404.602, 345.187"/>
<polygon points=" 426.67, 362.886 426.67, 361.803 427.753, 361.803 427.753, 362.886 428.836, 362.886 428.836, 363.969 427.753, 363.969 427.753, 365.052 426.67, 365.052 426.67, 363.969 425.587, 363.969 425.587, 362.886"/>
<polygon points=" 430.036, 362.886 430.036, 361.803 431.118, 361.803 431.118, 362.886 432.201, 362.886 432.201, 363.969 431.118, 363.969 431.118, 365.052 430.036, 365.052 430.036, 363.969 428.953, 363.969 428.953, 362.886"/>
<polygon points=" 451.021, 362.886 451.021, 361.803 452.104, 361.803 452.104, 362.886 453.187, 362.886 453.187, 363.969 452.104, 363.969 452.104, 365.052 451.021, 365.052 451.021, 363.969 449.938, 363.969 449.938, 362.886"/>
</g>
<text xml:space="preserve" x="173.503" y="206.304" fill="black" font-size="9.6207" font-family="Helvetica">avg # of -22 PDG in each layer 1 event (1GeV mu- gun)</text></svg>
