<?xml version="1.0" standalone="no"?>
<svg width="567.429" height="216.278" viewBox="0 0 567.429 216.278" xmlns="http://www.w3.org/2000/svg" shape-rendering="crispEdges">
<title>
plots/May_7/mu_5GeV_energy_100_run1.svg
</title>
<desc>
Creator: ROOT Version 6.30/02
CreationDate: Thu May  9 15:40:41 2024</desc>
<defs>
</defs>
<rect x="0.5" y="0" width="566.929" height="215.778" fill="white"/>
<rect x="6.16929" y="2.15778" width="272.126" height="211.463" fill="white"/>
<rect x="33.3819" y="23.3041" width="217.701" height="169.17" fill="white"/>
<rect x="33.3819" y="23.3041" width="217.701" height="169.17" fill="none" stroke="black"/>
<rect x="33.3819" y="23.3041" width="217.701" height="169.17" fill="white"/>
<rect x="33.3819" y="23.3041" width="217.701" height="169.17" fill="none" stroke="black"/>
<path d="M33.3819,192.474h 217.701" fill="none" stroke="black"/>
<path d="M33.3819,187.399v 5.07511" fill="none" stroke="black"/>
<path d="M41.1569,189.937v 2.53755" fill="none" stroke="black"/>
<path d="M48.9319,189.937v 2.53755" fill="none" stroke="black"/>
<path d="M56.707,189.937v 2.53755" fill="none" stroke="black"/>
<path d="M64.482,187.399v 5.07511" fill="none" stroke="black"/>
<path d="M72.257,189.937v 2.53755" fill="none" stroke="black"/>
<path d="M80.0321,189.937v 2.53755" fill="none" stroke="black"/>
<path d="M87.8071,189.937v 2.53755" fill="none" stroke="black"/>
<path d="M95.5821,187.399v 5.07511" fill="none" stroke="black"/>
<path d="M103.357,189.937v 2.53755" fill="none" stroke="black"/>
<path d="M111.132,189.937v 2.53755" fill="none" stroke="black"/>
<path d="M118.907,189.937v 2.53755" fill="none" stroke="black"/>
<path d="M126.682,187.399v 5.07511" fill="none" stroke="black"/>
<path d="M134.457,189.937v 2.53755" fill="none" stroke="black"/>
<path d="M142.232,189.937v 2.53755" fill="none" stroke="black"/>
<path d="M150.007,189.937v 2.53755" fill="none" stroke="black"/>
<path d="M157.782,187.399v 5.07511" fill="none" stroke="black"/>
<path d="M165.557,189.937v 2.53755" fill="none" stroke="black"/>
<path d="M173.332,189.937v 2.53755" fill="none" stroke="black"/>
<path d="M181.107,189.937v 2.53755" fill="none" stroke="black"/>
<path d="M188.882,187.399v 5.07511" fill="none" stroke="black"/>
<path d="M196.657,189.937v 2.53755" fill="none" stroke="black"/>
<path d="M204.433,189.937v 2.53755" fill="none" stroke="black"/>
<path d="M212.208,189.937v 2.53755" fill="none" stroke="black"/>
<path d="M219.983,187.399v 5.07511" fill="none" stroke="black"/>
<path d="M227.758,189.937v 2.53755" fill="none" stroke="black"/>
<path d="M235.533,189.937v 2.53755" fill="none" stroke="black"/>
<path d="M243.308,189.937v 2.53755" fill="none" stroke="black"/>
<path d="M251.083,187.399v 5.07511" fill="none" stroke="black"/>
<text xml:space="preserve" x="25.4849" y="199.425" fill="black" font-size="7.29009" font-family="Helvetica">1600</text>
<text xml:space="preserve" x="56.3752" y="199.425" fill="black" font-size="7.29009" font-family="Helvetica">1800</text>
<text xml:space="preserve" x="87.7199" y="199.425" fill="black" font-size="7.29009" font-family="Helvetica">2000</text>
<text xml:space="preserve" x="118.61" y="199.425" fill="black" font-size="7.29009" font-family="Helvetica">2200</text>
<text xml:space="preserve" x="149.955" y="199.425" fill="black" font-size="7.29009" font-family="Helvetica">2400</text>
<text xml:space="preserve" x="180.845" y="199.425" fill="black" font-size="7.29009" font-family="Helvetica">2600</text>
<text xml:space="preserve" x="212.19" y="199.425" fill="black" font-size="7.29009" font-family="Helvetica">2800</text>
<text xml:space="preserve" x="243.08" y="199.425" fill="black" font-size="7.29009" font-family="Helvetica">3000</text>
<text xml:space="preserve" x="175.394" y="205.784" fill="black" font-size="7.29009" font-family="Helvetica">Barrel hit x position (mm)</text>
<path d="M33.3819,192.474v -169.17" fill="none" stroke="black"/>
<path d="M39.9129,174.736h -6.53102" fill="none" stroke="black"/>
<path d="M36.6474,169.923h -3.26551" fill="none" stroke="black"/>
<path d="M36.6474,165.11h -3.26551" fill="none" stroke="black"/>
<path d="M36.6474,160.297h -3.26551" fill="none" stroke="black"/>
<path d="M39.9129,155.484h -6.53102" fill="none" stroke="black"/>
<path d="M36.6474,150.671h -3.26551" fill="none" stroke="black"/>
<path d="M36.6474,145.858h -3.26551" fill="none" stroke="black"/>
<path d="M36.6474,141.045h -3.26551" fill="none" stroke="black"/>
<path d="M39.9129,136.232h -6.53102" fill="none" stroke="black"/>
<path d="M36.6474,131.42h -3.26551" fill="none" stroke="black"/>
<path d="M36.6474,126.607h -3.26551" fill="none" stroke="black"/>
<path d="M36.6474,121.794h -3.26551" fill="none" stroke="black"/>
<path d="M39.9129,116.981h -6.53102" fill="none" stroke="black"/>
<path d="M36.6474,112.168h -3.26551" fill="none" stroke="black"/>
<path d="M36.6474,107.355h -3.26551" fill="none" stroke="black"/>
<path d="M36.6474,102.542h -3.26551" fill="none" stroke="black"/>
<path d="M39.9129,97.729h -6.53102" fill="none" stroke="black"/>
<path d="M36.6474,92.9161h -3.26551" fill="none" stroke="black"/>
<path d="M36.6474,88.1032h -3.26551" fill="none" stroke="black"/>
<path d="M36.6474,83.2902h -3.26551" fill="none" stroke="black"/>
<path d="M39.9129,78.4773h -6.53102" fill="none" stroke="black"/>
<path d="M36.6474,73.6644h -3.26551" fill="none" stroke="black"/>
<path d="M36.6474,68.8515h -3.26551" fill="none" stroke="black"/>
<path d="M36.6474,64.0385h -3.26551" fill="none" stroke="black"/>
<path d="M39.9129,59.2256h -6.53102" fill="none" stroke="black"/>
<path d="M36.6474,54.4127h -3.26551" fill="none" stroke="black"/>
<path d="M36.6474,49.5997h -3.26551" fill="none" stroke="black"/>
<path d="M36.6474,44.7868h -3.26551" fill="none" stroke="black"/>
<path d="M39.9129,39.9739h -6.53102" fill="none" stroke="black"/>
<path d="M39.9129,174.736h -6.53102" fill="none" stroke="black"/>
<path d="M36.6474,179.549h -3.26551" fill="none" stroke="black"/>
<path d="M36.6474,184.362h -3.26551" fill="none" stroke="black"/>
<path d="M36.6474,189.175h -3.26551" fill="none" stroke="black"/>
<path d="M39.9129,39.9739h -6.53102" fill="none" stroke="black"/>
<path d="M36.6474,35.161h -3.26551" fill="none" stroke="black"/>
<path d="M36.6474,30.348h -3.26551" fill="none" stroke="black"/>
<path d="M36.6474,25.5351h -3.26551" fill="none" stroke="black"/>
<text xml:space="preserve" x="24.5763" y="177.165" fill="black" font-size="7.29009" font-family="Helvetica">40</text>
<text xml:space="preserve" x="24.5763" y="158.086" fill="black" font-size="7.29009" font-family="Helvetica">60</text>
<text xml:space="preserve" x="24.5763" y="138.552" fill="black" font-size="7.29009" font-family="Helvetica">80</text>
<text xml:space="preserve" x="20.4879" y="119.473" fill="black" font-size="7.29009" font-family="Helvetica">100</text>
<text xml:space="preserve" x="20.4879" y="100.394" fill="black" font-size="7.29009" font-family="Helvetica">120</text>
<text xml:space="preserve" x="20.4879" y="80.8601" fill="black" font-size="7.29009" font-family="Helvetica">140</text>
<text xml:space="preserve" x="20.4879" y="61.7807" fill="black" font-size="7.29009" font-family="Helvetica">160</text>
<text xml:space="preserve" x="20.4879" y="42.2471" fill="black" font-size="7.29009" font-family="Helvetica">180</text>
<g transform="rotate(-90,14.1281,77.2259)">
<text xml:space="preserve" x="14.1281" y="77.2259" fill="black" font-size="7.29009" font-family="Helvetica"># of hits per event</text>
</g>
<g fill="#0000ff">
<circle cx="69.2714" cy="149.43" r="1.09025"/>
<circle cx="70.9197" cy="89.2775" r="1.09025"/>
<circle cx="81.1983" cy="97.806" r="1.09025"/>
<circle cx="82.8466" cy="101.599" r="1.09025"/>
<circle cx="93.1252" cy="97.4114" r="1.09025"/>
<circle cx="94.7735" cy="95.1397" r="1.09025"/>
<circle cx="105.052" cy="99.3462" r="1.09025"/>
<circle cx="106.7" cy="99.7023" r="1.09025"/>
<circle cx="116.979" cy="99.5868" r="1.09025"/>
<circle cx="118.627" cy="103.014" r="1.09025"/>
<circle cx="128.906" cy="105.218" r="1.09025"/>
<circle cx="130.554" cy="108.356" r="1.09025"/>
<circle cx="140.833" cy="105.603" r="1.09025"/>
<circle cx="142.481" cy="103.63" r="1.09025"/>
<circle cx="152.76" cy="108.337" r="1.09025"/>
<circle cx="154.408" cy="112.919" r="1.09025"/>
<circle cx="164.687" cy="114.391" r="1.09025"/>
<circle cx="166.335" cy="116.73" r="1.09025"/>
<circle cx="176.613" cy="117.462" r="1.09025"/>
<circle cx="178.262" cy="118.848" r="1.09025"/>
<circle cx="188.54" cy="122.824" r="1.09025"/>
<circle cx="190.189" cy="126.26" r="1.09025"/>
<circle cx="200.467" cy="123.805" r="1.09025"/>
<circle cx="202.116" cy="124.816" r="1.09025"/>
<circle cx="212.394" cy="122.419" r="1.09025"/>
<circle cx="214.042" cy="123.045" r="1.09025"/>
<circle cx="224.321" cy="131.131" r="1.09025"/>
<circle cx="225.969" cy="133.768" r="1.09025"/>
</g>
<path d="M69.2714,148.521v -28.0387" fill="none" stroke="black"/>
<path d="M69.2714,150.338v 28.0387" fill="none" stroke="black"/>
<path d="M68.3629,120.482h 1.81708" fill="none" stroke="black"/>
<path d="M68.3629,178.377h 1.81708" fill="none" stroke="black"/>
<path d="M70.9197,88.369v -49.6622" fill="none" stroke="black"/>
<path d="M70.9197,90.1861v 49.6622" fill="none" stroke="black"/>
<path d="M70.0112,38.7067h 1.81708" fill="none" stroke="black"/>
<path d="M70.0112,139.848h 1.81708" fill="none" stroke="black"/>
<path d="M81.1983,96.8975v -35.6717" fill="none" stroke="black"/>
<path d="M81.1983,98.7146v 35.6717" fill="none" stroke="black"/>
<path d="M80.2898,61.2258h 1.81708" fill="none" stroke="black"/>
<path d="M80.2898,134.386h 1.81708" fill="none" stroke="black"/>
<path d="M82.8466,100.69v -30.5805" fill="none" stroke="black"/>
<path d="M82.8466,102.507v 30.5805" fill="none" stroke="black"/>
<path d="M81.9381,70.1096h 1.81708" fill="none" stroke="black"/>
<path d="M81.9381,133.088h 1.81708" fill="none" stroke="black"/>
<path d="M93.1252,96.5028v -34.9426" fill="none" stroke="black"/>
<path d="M93.1252,98.3199v 34.9426" fill="none" stroke="black"/>
<path d="M92.2167,61.5602h 1.81708" fill="none" stroke="black"/>
<path d="M92.2167,133.263h 1.81708" fill="none" stroke="black"/>
<path d="M94.7735,94.2311v -56.8296" fill="none" stroke="black"/>
<path d="M94.7735,96.0482v 56.8296" fill="none" stroke="black"/>
<path d="M93.865,37.4016h 1.81708" fill="none" stroke="black"/>
<path d="M93.865,152.878h 1.81708" fill="none" stroke="black"/>
<path d="M105.052,98.4376v -34.5405" fill="none" stroke="black"/>
<path d="M105.052,100.255v 34.5405" fill="none" stroke="black"/>
<path d="M104.144,63.8972h 1.81708" fill="none" stroke="black"/>
<path d="M104.144,134.795h 1.81708" fill="none" stroke="black"/>
<path d="M106.7,98.7938v -46.1603" fill="none" stroke="black"/>
<path d="M106.7,100.611v 46.1603" fill="none" stroke="black"/>
<path d="M105.792,52.6335h 1.81708" fill="none" stroke="black"/>
<path d="M105.792,146.771h 1.81708" fill="none" stroke="black"/>
<path d="M116.979,98.6783v -42.8743" fill="none" stroke="black"/>
<path d="M116.979,100.495v 42.8743" fill="none" stroke="black"/>
<path d="M116.07,55.804h 1.81708" fill="none" stroke="black"/>
<path d="M116.07,143.37h 1.81708" fill="none" stroke="black"/>
<path d="M118.627,102.105v -39.9436" fill="none" stroke="black"/>
<path d="M118.627,103.922v 39.9436" fill="none" stroke="black"/>
<path d="M117.719,62.1615h 1.81708" fill="none" stroke="black"/>
<path d="M117.719,143.866h 1.81708" fill="none" stroke="black"/>
<path d="M128.906,104.309v -32.5763" fill="none" stroke="black"/>
<path d="M128.906,106.126v 32.5763" fill="none" stroke="black"/>
<path d="M127.997,71.7331h 1.81708" fill="none" stroke="black"/>
<path d="M127.997,138.703h 1.81708" fill="none" stroke="black"/>
<path d="M130.554,107.447v -37.643" fill="none" stroke="black"/>
<path d="M130.554,109.265v 37.643" fill="none" stroke="black"/>
<path d="M129.646,69.8045h 1.81708" fill="none" stroke="black"/>
<path d="M129.646,146.908h 1.81708" fill="none" stroke="black"/>
<path d="M140.833,104.694v -34.2785" fill="none" stroke="black"/>
<path d="M140.833,106.512v 34.2785" fill="none" stroke="black"/>
<path d="M139.924,70.4159h 1.81708" fill="none" stroke="black"/>
<path d="M139.924,140.79h 1.81708" fill="none" stroke="black"/>
<path d="M142.481,102.721v -49.9165" fill="none" stroke="black"/>
<path d="M142.481,104.538v 49.9165" fill="none" stroke="black"/>
<path d="M141.573,52.8047h 1.81708" fill="none" stroke="black"/>
<path d="M141.573,154.455h 1.81708" fill="none" stroke="black"/>
<path d="M152.76,107.428v -35.1557" fill="none" stroke="black"/>
<path d="M152.76,109.245v 35.1557" fill="none" stroke="black"/>
<path d="M151.851,72.2725h 1.81708" fill="none" stroke="black"/>
<path d="M151.851,144.401h 1.81708" fill="none" stroke="black"/>
<path d="M154.408,112.01v -39.9717" fill="none" stroke="black"/>
<path d="M154.408,113.827v 39.9717" fill="none" stroke="black"/>
<path d="M153.499,72.0384h 1.81708" fill="none" stroke="black"/>
<path d="M153.499,153.799h 1.81708" fill="none" stroke="black"/>
<path d="M164.687,113.483v -28.321" fill="none" stroke="black"/>
<path d="M164.687,115.3v 28.321" fill="none" stroke="black"/>
<path d="M163.778,85.1618h 1.81708" fill="none" stroke="black"/>
<path d="M163.778,143.621h 1.81708" fill="none" stroke="black"/>
<path d="M166.335,115.822v -34.2406" fill="none" stroke="black"/>
<path d="M166.335,117.639v 34.2406" fill="none" stroke="black"/>
<path d="M165.426,81.5813h 1.81708" fill="none" stroke="black"/>
<path d="M165.426,151.88h 1.81708" fill="none" stroke="black"/>
<path d="M176.613,116.554v -28.9839" fill="none" stroke="black"/>
<path d="M176.613,118.371v 28.9839" fill="none" stroke="black"/>
<path d="M175.705,87.5696h 1.81708" fill="none" stroke="black"/>
<path d="M175.705,147.354h 1.81708" fill="none" stroke="black"/>
<path d="M178.262,117.94v -32.5174" fill="none" stroke="black"/>
<path d="M178.262,119.757v 32.5174" fill="none" stroke="black"/>
<path d="M177.353,85.4222h 1.81708" fill="none" stroke="black"/>
<path d="M177.353,152.274h 1.81708" fill="none" stroke="black"/>
<path d="M188.54,121.915v -21.9667" fill="none" stroke="black"/>
<path d="M188.54,123.732v 21.9667" fill="none" stroke="black"/>
<path d="M187.632,99.9484h 1.81708" fill="none" stroke="black"/>
<path d="M187.632,145.699h 1.81708" fill="none" stroke="black"/>
<path d="M190.189,125.352v -25.3796" fill="none" stroke="black"/>
<path d="M190.189,127.169v 25.3796" fill="none" stroke="black"/>
<path d="M189.28,99.972h 1.81708" fill="none" stroke="black"/>
<path d="M189.28,152.548h 1.81708" fill="none" stroke="black"/>
<path d="M200.467,122.897v -26.7484" fill="none" stroke="black"/>
<path d="M200.467,124.714v 26.7484" fill="none" stroke="black"/>
<path d="M199.559,96.1486h 1.81708" fill="none" stroke="black"/>
<path d="M199.559,151.462h 1.81708" fill="none" stroke="black"/>
<path d="M202.116,123.908v -34.932" fill="none" stroke="black"/>
<path d="M202.116,125.725v 34.932" fill="none" stroke="black"/>
<path d="M201.207,88.9757h 1.81708" fill="none" stroke="black"/>
<path d="M201.207,160.657h 1.81708" fill="none" stroke="black"/>
<path d="M212.394,121.511v -30.5338" fill="none" stroke="black"/>
<path d="M212.394,123.328v 30.5338" fill="none" stroke="black"/>
<path d="M211.486,90.977h 1.81708" fill="none" stroke="black"/>
<path d="M211.486,153.862h 1.81708" fill="none" stroke="black"/>
<path d="M214.042,122.137v -33.4312" fill="none" stroke="black"/>
<path d="M214.042,123.954v 33.4312" fill="none" stroke="black"/>
<path d="M213.134,88.7053h 1.81708" fill="none" stroke="black"/>
<path d="M213.134,157.385h 1.81708" fill="none" stroke="black"/>
<path d="M224.321,130.222v -23.907" fill="none" stroke="black"/>
<path d="M224.321,132.039v 23.907" fill="none" stroke="black"/>
<path d="M223.412,106.315h 1.81708" fill="none" stroke="black"/>
<path d="M223.412,155.946h 1.81708" fill="none" stroke="black"/>
<path d="M225.969,132.86v -19.7901" fill="none" stroke="black"/>
<path d="M225.969,134.677v 19.7901" fill="none" stroke="black"/>
<path d="M225.061,113.07h 1.81708" fill="none" stroke="black"/>
<path d="M225.061,154.467h 1.81708" fill="none" stroke="black"/>
<text xml:space="preserve" x="52.2868" y="10.9025" fill="black" font-size="4.82989" font-family="Helvetica">avg # of hits in each layer 100 events (5GeV mu- gun) | total: 2928.389893+/-336.220184</text>
<rect x="289.634" y="2.15778" width="272.126" height="211.463" fill="white"/>
<rect x="316.846" y="23.3041" width="217.701" height="169.17" fill="white"/>
<rect x="316.846" y="23.3041" width="217.701" height="169.17" fill="none" stroke="black"/>
<rect x="316.846" y="23.3041" width="217.701" height="169.17" fill="white"/>
<rect x="316.846" y="23.3041" width="217.701" height="169.17" fill="none" stroke="black"/>
<path d="M316.846,192.474h 217.701" fill="none" stroke="black"/>
<path d="M316.846,187.399v 5.07511" fill="none" stroke="black"/>
<path d="M324.621,189.937v 2.53755" fill="none" stroke="black"/>
<path d="M332.397,189.937v 2.53755" fill="none" stroke="black"/>
<path d="M340.172,189.937v 2.53755" fill="none" stroke="black"/>
<path d="M347.947,187.399v 5.07511" fill="none" stroke="black"/>
<path d="M355.722,189.937v 2.53755" fill="none" stroke="black"/>
<path d="M363.497,189.937v 2.53755" fill="none" stroke="black"/>
<path d="M371.272,189.937v 2.53755" fill="none" stroke="black"/>
<path d="M379.047,187.399v 5.07511" fill="none" stroke="black"/>
<path d="M386.822,189.937v 2.53755" fill="none" stroke="black"/>
<path d="M394.597,189.937v 2.53755" fill="none" stroke="black"/>
<path d="M402.372,189.937v 2.53755" fill="none" stroke="black"/>
<path d="M410.147,187.399v 5.07511" fill="none" stroke="black"/>
<path d="M417.922,189.937v 2.53755" fill="none" stroke="black"/>
<path d="M425.697,189.937v 2.53755" fill="none" stroke="black"/>
<path d="M433.472,189.937v 2.53755" fill="none" stroke="black"/>
<path d="M441.247,187.399v 5.07511" fill="none" stroke="black"/>
<path d="M449.022,189.937v 2.53755" fill="none" stroke="black"/>
<path d="M456.797,189.937v 2.53755" fill="none" stroke="black"/>
<path d="M464.572,189.937v 2.53755" fill="none" stroke="black"/>
<path d="M472.347,187.399v 5.07511" fill="none" stroke="black"/>
<path d="M480.122,189.937v 2.53755" fill="none" stroke="black"/>
<path d="M487.897,189.937v 2.53755" fill="none" stroke="black"/>
<path d="M495.672,189.937v 2.53755" fill="none" stroke="black"/>
<path d="M503.447,187.399v 5.07511" fill="none" stroke="black"/>
<path d="M511.222,189.937v 2.53755" fill="none" stroke="black"/>
<path d="M518.997,189.937v 2.53755" fill="none" stroke="black"/>
<path d="M526.772,189.937v 2.53755" fill="none" stroke="black"/>
<path d="M534.547,187.399v 5.07511" fill="none" stroke="black"/>
<text xml:space="preserve" x="308.949" y="199.425" fill="black" font-size="7.29009" font-family="Helvetica">1600</text>
<text xml:space="preserve" x="339.84" y="199.425" fill="black" font-size="7.29009" font-family="Helvetica">1800</text>
<text xml:space="preserve" x="371.184" y="199.425" fill="black" font-size="7.29009" font-family="Helvetica">2000</text>
<text xml:space="preserve" x="402.075" y="199.425" fill="black" font-size="7.29009" font-family="Helvetica">2200</text>
<text xml:space="preserve" x="433.419" y="199.425" fill="black" font-size="7.29009" font-family="Helvetica">2400</text>
<text xml:space="preserve" x="464.31" y="199.425" fill="black" font-size="7.29009" font-family="Helvetica">2600</text>
<text xml:space="preserve" x="495.654" y="199.425" fill="black" font-size="7.29009" font-family="Helvetica">2800</text>
<text xml:space="preserve" x="526.545" y="199.425" fill="black" font-size="7.29009" font-family="Helvetica">3000</text>
<text xml:space="preserve" x="467.49" y="205.784" fill="black" font-size="7.29009" font-family="Helvetica">vertex x position (mm)</text>
<path d="M316.846,192.474v -169.17" fill="none" stroke="black"/>
<path d="M323.377,191.538h -6.53102" fill="none" stroke="black"/>
<path d="M320.112,187.14h -3.26551" fill="none" stroke="black"/>
<path d="M320.112,182.743h -3.26551" fill="none" stroke="black"/>
<path d="M320.112,178.345h -3.26551" fill="none" stroke="black"/>
<path d="M320.112,173.947h -3.26551" fill="none" stroke="black"/>
<path d="M323.377,169.55h -6.53102" fill="none" stroke="black"/>
<path d="M320.112,165.152h -3.26551" fill="none" stroke="black"/>
<path d="M320.112,160.755h -3.26551" fill="none" stroke="black"/>
<path d="M320.112,156.357h -3.26551" fill="none" stroke="black"/>
<path d="M320.112,151.959h -3.26551" fill="none" stroke="black"/>
<path d="M323.377,147.562h -6.53102" fill="none" stroke="black"/>
<path d="M320.112,143.164h -3.26551" fill="none" stroke="black"/>
<path d="M320.112,138.767h -3.26551" fill="none" stroke="black"/>
<path d="M320.112,134.369h -3.26551" fill="none" stroke="black"/>
<path d="M320.112,129.971h -3.26551" fill="none" stroke="black"/>
<path d="M323.377,125.574h -6.53102" fill="none" stroke="black"/>
<path d="M320.112,121.176h -3.26551" fill="none" stroke="black"/>
<path d="M320.112,116.778h -3.26551" fill="none" stroke="black"/>
<path d="M320.112,112.381h -3.26551" fill="none" stroke="black"/>
<path d="M320.112,107.983h -3.26551" fill="none" stroke="black"/>
<path d="M323.377,103.586h -6.53102" fill="none" stroke="black"/>
<path d="M320.112,99.188h -3.26551" fill="none" stroke="black"/>
<path d="M320.112,94.7904h -3.26551" fill="none" stroke="black"/>
<path d="M320.112,90.3928h -3.26551" fill="none" stroke="black"/>
<path d="M320.112,85.9952h -3.26551" fill="none" stroke="black"/>
<path d="M323.377,81.5976h -6.53102" fill="none" stroke="black"/>
<path d="M320.112,77.2h -3.26551" fill="none" stroke="black"/>
<path d="M320.112,72.8024h -3.26551" fill="none" stroke="black"/>
<path d="M320.112,68.4048h -3.26551" fill="none" stroke="black"/>
<path d="M320.112,64.0072h -3.26551" fill="none" stroke="black"/>
<path d="M323.377,59.6096h -6.53102" fill="none" stroke="black"/>
<path d="M320.112,55.2119h -3.26551" fill="none" stroke="black"/>
<path d="M320.112,50.8143h -3.26551" fill="none" stroke="black"/>
<path d="M320.112,46.4167h -3.26551" fill="none" stroke="black"/>
<path d="M320.112,42.0191h -3.26551" fill="none" stroke="black"/>
<path d="M323.377,37.6215h -6.53102" fill="none" stroke="black"/>
<path d="M323.377,191.538h -6.53102" fill="none" stroke="black"/>
<path d="M323.377,37.6215h -6.53102" fill="none" stroke="black"/>
<path d="M320.112,33.2239h -3.26551" fill="none" stroke="black"/>
<path d="M320.112,28.8263h -3.26551" fill="none" stroke="black"/>
<path d="M320.112,24.4287h -3.26551" fill="none" stroke="black"/>
<text xml:space="preserve" x="300.318" y="193.973" fill="black" font-size="7.29009" font-family="Helvetica">1000</text>
<text xml:space="preserve" x="296.23" y="193.973" fill="black" font-size="7.29009" font-family="Times">&#8722;</text>
<text xml:space="preserve" x="303.952" y="172.168" fill="black" font-size="7.29009" font-family="Helvetica">500</text>
<text xml:space="preserve" x="299.864" y="172.168" fill="black" font-size="7.29009" font-family="Times">&#8722;</text>
<text xml:space="preserve" x="311.675" y="149.909" fill="black" font-size="7.29009" font-family="Helvetica">0</text>
<text xml:space="preserve" x="303.952" y="128.104" fill="black" font-size="7.29009" font-family="Helvetica">500</text>
<text xml:space="preserve" x="300.318" y="106.299" fill="black" font-size="7.29009" font-family="Helvetica">1000</text>
<text xml:space="preserve" x="300.318" y="84.04" fill="black" font-size="7.29009" font-family="Helvetica">1500</text>
<text xml:space="preserve" x="300.318" y="62.235" fill="black" font-size="7.29009" font-family="Helvetica">2000</text>
<text xml:space="preserve" x="300.318" y="39.9758" fill="black" font-size="7.29009" font-family="Helvetica">2500</text>
<g transform="rotate(-90,290.779,158.54)">
<text xml:space="preserve" x="290.779" y="158.54" fill="black" font-size="7.29009" font-family="Helvetica"># of optical photons in MCParticles per event</text>
</g>
<g fill="#ff0000">
<circle cx="352.736" cy="127.736" r="1.09025"/>
<circle cx="354.384" cy="107.889" r="1.09025"/>
<circle cx="364.663" cy="110.182" r="1.09025"/>
<circle cx="366.311" cy="109.363" r="1.09025"/>
<circle cx="376.59" cy="107.523" r="1.09025"/>
<circle cx="378.238" cy="108.54" r="1.09025"/>
<circle cx="388.517" cy="108.19" r="1.09025"/>
<circle cx="390.165" cy="107.537" r="1.09025"/>
<circle cx="400.444" cy="106.674" r="1.09025"/>
<circle cx="402.092" cy="107.262" r="1.09025"/>
<circle cx="412.37" cy="107.065" r="1.09025"/>
<circle cx="414.019" cy="106.569" r="1.09025"/>
<circle cx="424.297" cy="106.543" r="1.09025"/>
<circle cx="425.946" cy="105.952" r="1.09025"/>
<circle cx="436.224" cy="108.627" r="1.09025"/>
<circle cx="437.873" cy="108.574" r="1.09025"/>
<circle cx="448.151" cy="109.039" r="1.09025"/>
<circle cx="449.799" cy="110.635" r="1.09025"/>
<circle cx="460.078" cy="109.261" r="1.09025"/>
<circle cx="461.726" cy="109.141" r="1.09025"/>
<circle cx="472.005" cy="110.705" r="1.09025"/>
<circle cx="473.653" cy="111.529" r="1.09025"/>
<circle cx="483.932" cy="111.483" r="1.09025"/>
<circle cx="485.58" cy="109.287" r="1.09025"/>
<circle cx="495.859" cy="109.011" r="1.09025"/>
<circle cx="497.507" cy="109.115" r="1.09025"/>
<circle cx="507.786" cy="110.497" r="1.09025"/>
<circle cx="509.434" cy="111.244" r="1.09025"/>
</g>
<path d="M352.736,126.828v -36.8309" fill="none" stroke="black"/>
<path d="M352.736,128.645v 36.8309" fill="none" stroke="black"/>
<path d="M351.827,89.9971h 1.81708" fill="none" stroke="black"/>
<path d="M351.827,165.476h 1.81708" fill="none" stroke="black"/>
<path d="M354.384,106.981v -69.579" fill="none" stroke="black"/>
<path d="M354.384,108.798v 69.579" fill="none" stroke="black"/>
<path d="M353.476,37.4016h 1.81708" fill="none" stroke="black"/>
<path d="M353.476,178.377h 1.81708" fill="none" stroke="black"/>
<path d="M364.663,109.273v -5.60036" fill="none" stroke="black"/>
<path d="M364.663,111.09v 5.60036" fill="none" stroke="black"/>
<path d="M363.754,103.673h 1.81708" fill="none" stroke="black"/>
<path d="M363.754,116.691h 1.81708" fill="none" stroke="black"/>
<path d="M366.311,108.454v -5.80353" fill="none" stroke="black"/>
<path d="M366.311,110.271v 5.80353" fill="none" stroke="black"/>
<path d="M365.403,102.651h 1.81708" fill="none" stroke="black"/>
<path d="M365.403,116.075h 1.81708" fill="none" stroke="black"/>
<path d="M376.59,106.614v -8.3471" fill="none" stroke="black"/>
<path d="M376.59,108.431v 8.3471" fill="none" stroke="black"/>
<path d="M375.681,98.2672h 1.81708" fill="none" stroke="black"/>
<path d="M375.681,116.778h 1.81708" fill="none" stroke="black"/>
<path d="M378.238,107.632v -5.48251" fill="none" stroke="black"/>
<path d="M378.238,109.449v 5.48251" fill="none" stroke="black"/>
<path d="M377.33,102.149h 1.81708" fill="none" stroke="black"/>
<path d="M377.33,114.931h 1.81708" fill="none" stroke="black"/>
<path d="M388.517,107.281v -6.84489" fill="none" stroke="black"/>
<path d="M388.517,109.098v 6.84489" fill="none" stroke="black"/>
<path d="M387.608,100.436h 1.81708" fill="none" stroke="black"/>
<path d="M387.608,115.943h 1.81708" fill="none" stroke="black"/>
<path d="M390.165,106.629v -7.49705" fill="none" stroke="black"/>
<path d="M390.165,108.446v 7.49705" fill="none" stroke="black"/>
<path d="M389.256,99.1318h 1.81708" fill="none" stroke="black"/>
<path d="M389.256,115.943h 1.81708" fill="none" stroke="black"/>
<path d="M400.444,105.766v -8.18439" fill="none" stroke="black"/>
<path d="M400.444,107.583v 8.18439" fill="none" stroke="black"/>
<path d="M399.535,97.5812h 1.81708" fill="none" stroke="black"/>
<path d="M399.535,115.767h 1.81708" fill="none" stroke="black"/>
<path d="M402.092,106.354v -8.65187" fill="none" stroke="black"/>
<path d="M402.092,108.171v 8.65187" fill="none" stroke="black"/>
<path d="M401.183,97.7017h 1.81708" fill="none" stroke="black"/>
<path d="M401.183,116.822h 1.81708" fill="none" stroke="black"/>
<path d="M412.37,106.156v -9.81679" fill="none" stroke="black"/>
<path d="M412.37,107.973v 9.81679" fill="none" stroke="black"/>
<path d="M411.462,96.3393h 1.81708" fill="none" stroke="black"/>
<path d="M411.462,117.79h 1.81708" fill="none" stroke="black"/>
<path d="M414.019,105.66v -6.79431" fill="none" stroke="black"/>
<path d="M414.019,107.478v 6.79431" fill="none" stroke="black"/>
<path d="M413.11,98.8661h 1.81708" fill="none" stroke="black"/>
<path d="M413.11,114.272h 1.81708" fill="none" stroke="black"/>
<path d="M424.297,105.635v -5.74284" fill="none" stroke="black"/>
<path d="M424.297,107.452v 5.74284" fill="none" stroke="black"/>
<path d="M423.389,99.8917h 1.81708" fill="none" stroke="black"/>
<path d="M423.389,113.194h 1.81708" fill="none" stroke="black"/>
<path d="M425.946,105.043v -25.9521" fill="none" stroke="black"/>
<path d="M425.946,106.86v 25.9521" fill="none" stroke="black"/>
<path d="M425.037,79.091h 1.81708" fill="none" stroke="black"/>
<path d="M425.037,132.812h 1.81708" fill="none" stroke="black"/>
<path d="M436.224,107.719v -40.633" fill="none" stroke="black"/>
<path d="M436.224,109.536v 40.633" fill="none" stroke="black"/>
<path d="M435.316,67.0855h 1.81708" fill="none" stroke="black"/>
<path d="M435.316,150.169h 1.81708" fill="none" stroke="black"/>
<path d="M437.873,107.665v -47.1322" fill="none" stroke="black"/>
<path d="M437.873,109.482v 47.1322" fill="none" stroke="black"/>
<path d="M436.964,60.5331h 1.81708" fill="none" stroke="black"/>
<path d="M436.964,156.615h 1.81708" fill="none" stroke="black"/>
<path d="M448.151,108.131v -7.88712" fill="none" stroke="black"/>
<path d="M448.151,109.948v 7.88712" fill="none" stroke="black"/>
<path d="M447.243,100.243h 1.81708" fill="none" stroke="black"/>
<path d="M447.243,117.835h 1.81708" fill="none" stroke="black"/>
<path d="M449.799,109.726v -5.10343" fill="none" stroke="black"/>
<path d="M449.799,111.543v 5.10343" fill="none" stroke="black"/>
<path d="M448.891,104.623h 1.81708" fill="none" stroke="black"/>
<path d="M448.891,116.647h 1.81708" fill="none" stroke="black"/>
<path d="M460.078,108.352v -7.53267" fill="none" stroke="black"/>
<path d="M460.078,110.169v 7.53267" fill="none" stroke="black"/>
<path d="M459.169,100.82h 1.81708" fill="none" stroke="black"/>
<path d="M459.169,117.702h 1.81708" fill="none" stroke="black"/>
<path d="M461.726,108.232v -7.74068" fill="none" stroke="black"/>
<path d="M461.726,110.049v 7.74068" fill="none" stroke="black"/>
<path d="M460.818,100.492h 1.81708" fill="none" stroke="black"/>
<path d="M460.818,117.79h 1.81708" fill="none" stroke="black"/>
<path d="M472.005,109.797v -3.71335" fill="none" stroke="black"/>
<path d="M472.005,111.614v 3.71335" fill="none" stroke="black"/>
<path d="M471.096,106.084h 1.81708" fill="none" stroke="black"/>
<path d="M471.096,115.327h 1.81708" fill="none" stroke="black"/>
<path d="M473.653,110.62v -5.01152" fill="none" stroke="black"/>
<path d="M473.653,112.437v 5.01152" fill="none" stroke="black"/>
<path d="M472.745,105.609h 1.81708" fill="none" stroke="black"/>
<path d="M472.745,117.449h 1.81708" fill="none" stroke="black"/>
<path d="M483.932,110.574v -2.8479" fill="none" stroke="black"/>
<path d="M483.932,112.391v 2.8479" fill="none" stroke="black"/>
<path d="M483.023,107.726h 1.81708" fill="none" stroke="black"/>
<path d="M483.023,115.239h 1.81708" fill="none" stroke="black"/>
<path d="M485.58,108.379v -5.43941" fill="none" stroke="black"/>
<path d="M485.58,110.196v 5.43941" fill="none" stroke="black"/>
<path d="M484.672,102.939h 1.81708" fill="none" stroke="black"/>
<path d="M484.672,115.635h 1.81708" fill="none" stroke="black"/>
<path d="M495.859,108.103v -4.132" fill="none" stroke="black"/>
<path d="M495.859,109.92v 4.132" fill="none" stroke="black"/>
<path d="M494.95,103.971h 1.81708" fill="none" stroke="black"/>
<path d="M494.95,114.052h 1.81708" fill="none" stroke="black"/>
<path d="M497.507,108.207v -15.8349" fill="none" stroke="black"/>
<path d="M497.507,110.024v 15.8349" fill="none" stroke="black"/>
<path d="M496.598,92.3717h 1.81708" fill="none" stroke="black"/>
<path d="M496.598,125.859h 1.81708" fill="none" stroke="black"/>
<path d="M507.786,109.588v -7.57181" fill="none" stroke="black"/>
<path d="M507.786,111.405v 7.57181" fill="none" stroke="black"/>
<path d="M506.877,102.017h 1.81708" fill="none" stroke="black"/>
<path d="M506.877,118.977h 1.81708" fill="none" stroke="black"/>
<path d="M509.434,110.335v -5.37389" fill="none" stroke="black"/>
<path d="M509.434,112.152v 5.37389" fill="none" stroke="black"/>
<path d="M508.525,104.961h 1.81708" fill="none" stroke="black"/>
<path d="M508.525,117.526h 1.81708" fill="none" stroke="black"/>
<text xml:space="preserve" x="337.568" y="10.9025" fill="black" font-size="4.48367" font-family="Helvetica">avg # of -22 PDG in each layer 100 events (5GeV mu- gun) | total: 24663.460938+/-2739.540527</text></svg>
