<?xml version="1.0" standalone="no"?>
<svg width="567.429" height="216.278" viewBox="0 0 567.429 216.278" xmlns="http://www.w3.org/2000/svg" shape-rendering="crispEdges">
<title>
plots/May_7/pi_5GeV_energy_100_run1.svg
</title>
<desc>
Creator: ROOT Version 6.30/02
CreationDate: Wed May  8 17:29:04 2024</desc>
<defs>
</defs>
<rect x="0.5" y="0" width="566.929" height="215.778" fill="white"/>
<rect x="6.16929" y="2.15778" width="272.126" height="211.463" fill="white"/>
<rect x="33.3819" y="23.3041" width="217.701" height="169.17" fill="white"/>
<rect x="33.3819" y="23.3041" width="217.701" height="169.17" fill="none" stroke="black"/>
<rect x="33.3819" y="23.3041" width="217.701" height="169.17" fill="white"/>
<rect x="33.3819" y="23.3041" width="217.701" height="169.17" fill="none" stroke="black"/>
<path d="M33.3819,192.474h 217.701" fill="none" stroke="black"/>
<path d="M33.3819,187.399v 5.07511" fill="none" stroke="black"/>
<path d="M41.1569,189.937v 2.53755" fill="none" stroke="black"/>
<path d="M48.9319,189.937v 2.53755" fill="none" stroke="black"/>
<path d="M56.707,189.937v 2.53755" fill="none" stroke="black"/>
<path d="M64.482,187.399v 5.07511" fill="none" stroke="black"/>
<path d="M72.257,189.937v 2.53755" fill="none" stroke="black"/>
<path d="M80.0321,189.937v 2.53755" fill="none" stroke="black"/>
<path d="M87.8071,189.937v 2.53755" fill="none" stroke="black"/>
<path d="M95.5821,187.399v 5.07511" fill="none" stroke="black"/>
<path d="M103.357,189.937v 2.53755" fill="none" stroke="black"/>
<path d="M111.132,189.937v 2.53755" fill="none" stroke="black"/>
<path d="M118.907,189.937v 2.53755" fill="none" stroke="black"/>
<path d="M126.682,187.399v 5.07511" fill="none" stroke="black"/>
<path d="M134.457,189.937v 2.53755" fill="none" stroke="black"/>
<path d="M142.232,189.937v 2.53755" fill="none" stroke="black"/>
<path d="M150.007,189.937v 2.53755" fill="none" stroke="black"/>
<path d="M157.782,187.399v 5.07511" fill="none" stroke="black"/>
<path d="M165.557,189.937v 2.53755" fill="none" stroke="black"/>
<path d="M173.332,189.937v 2.53755" fill="none" stroke="black"/>
<path d="M181.107,189.937v 2.53755" fill="none" stroke="black"/>
<path d="M188.882,187.399v 5.07511" fill="none" stroke="black"/>
<path d="M196.657,189.937v 2.53755" fill="none" stroke="black"/>
<path d="M204.433,189.937v 2.53755" fill="none" stroke="black"/>
<path d="M212.208,189.937v 2.53755" fill="none" stroke="black"/>
<path d="M219.983,187.399v 5.07511" fill="none" stroke="black"/>
<path d="M227.758,189.937v 2.53755" fill="none" stroke="black"/>
<path d="M235.533,189.937v 2.53755" fill="none" stroke="black"/>
<path d="M243.308,189.937v 2.53755" fill="none" stroke="black"/>
<path d="M251.083,187.399v 5.07511" fill="none" stroke="black"/>
<text xml:space="preserve" x="25.4849" y="199.425" fill="black" font-size="7.29009" font-family="Helvetica">1600</text>
<text xml:space="preserve" x="56.3752" y="199.425" fill="black" font-size="7.29009" font-family="Helvetica">1800</text>
<text xml:space="preserve" x="87.7199" y="199.425" fill="black" font-size="7.29009" font-family="Helvetica">2000</text>
<text xml:space="preserve" x="118.61" y="199.425" fill="black" font-size="7.29009" font-family="Helvetica">2200</text>
<text xml:space="preserve" x="149.955" y="199.425" fill="black" font-size="7.29009" font-family="Helvetica">2400</text>
<text xml:space="preserve" x="180.845" y="199.425" fill="black" font-size="7.29009" font-family="Helvetica">2600</text>
<text xml:space="preserve" x="212.19" y="199.425" fill="black" font-size="7.29009" font-family="Helvetica">2800</text>
<text xml:space="preserve" x="243.08" y="199.425" fill="black" font-size="7.29009" font-family="Helvetica">3000</text>
<text xml:space="preserve" x="175.394" y="205.784" fill="black" font-size="7.29009" font-family="Helvetica">Barrel hit x position (mm)</text>
<path d="M33.3819,192.474v -169.17" fill="none" stroke="black"/>
<path d="M39.9129,178.262h -6.53102" fill="none" stroke="black"/>
<path d="M36.6474,174.722h -3.26551" fill="none" stroke="black"/>
<path d="M36.6474,171.183h -3.26551" fill="none" stroke="black"/>
<path d="M36.6474,167.644h -3.26551" fill="none" stroke="black"/>
<path d="M36.6474,164.104h -3.26551" fill="none" stroke="black"/>
<path d="M39.9129,160.565h -6.53102" fill="none" stroke="black"/>
<path d="M36.6474,157.025h -3.26551" fill="none" stroke="black"/>
<path d="M36.6474,153.486h -3.26551" fill="none" stroke="black"/>
<path d="M36.6474,149.946h -3.26551" fill="none" stroke="black"/>
<path d="M36.6474,146.407h -3.26551" fill="none" stroke="black"/>
<path d="M39.9129,142.867h -6.53102" fill="none" stroke="black"/>
<path d="M36.6474,139.328h -3.26551" fill="none" stroke="black"/>
<path d="M36.6474,135.788h -3.26551" fill="none" stroke="black"/>
<path d="M36.6474,132.249h -3.26551" fill="none" stroke="black"/>
<path d="M36.6474,128.709h -3.26551" fill="none" stroke="black"/>
<path d="M39.9129,125.17h -6.53102" fill="none" stroke="black"/>
<path d="M36.6474,121.631h -3.26551" fill="none" stroke="black"/>
<path d="M36.6474,118.091h -3.26551" fill="none" stroke="black"/>
<path d="M36.6474,114.552h -3.26551" fill="none" stroke="black"/>
<path d="M36.6474,111.012h -3.26551" fill="none" stroke="black"/>
<path d="M39.9129,107.473h -6.53102" fill="none" stroke="black"/>
<path d="M36.6474,103.933h -3.26551" fill="none" stroke="black"/>
<path d="M36.6474,100.394h -3.26551" fill="none" stroke="black"/>
<path d="M36.6474,96.8544h -3.26551" fill="none" stroke="black"/>
<path d="M36.6474,93.3149h -3.26551" fill="none" stroke="black"/>
<path d="M39.9129,89.7754h -6.53102" fill="none" stroke="black"/>
<path d="M36.6474,86.236h -3.26551" fill="none" stroke="black"/>
<path d="M36.6474,82.6965h -3.26551" fill="none" stroke="black"/>
<path d="M36.6474,79.1571h -3.26551" fill="none" stroke="black"/>
<path d="M36.6474,75.6176h -3.26551" fill="none" stroke="black"/>
<path d="M39.9129,72.0782h -6.53102" fill="none" stroke="black"/>
<path d="M36.6474,68.5387h -3.26551" fill="none" stroke="black"/>
<path d="M36.6474,64.9992h -3.26551" fill="none" stroke="black"/>
<path d="M36.6474,61.4598h -3.26551" fill="none" stroke="black"/>
<path d="M36.6474,57.9203h -3.26551" fill="none" stroke="black"/>
<path d="M39.9129,54.3809h -6.53102" fill="none" stroke="black"/>
<path d="M36.6474,50.8414h -3.26551" fill="none" stroke="black"/>
<path d="M36.6474,47.3019h -3.26551" fill="none" stroke="black"/>
<path d="M36.6474,43.7625h -3.26551" fill="none" stroke="black"/>
<path d="M36.6474,40.223h -3.26551" fill="none" stroke="black"/>
<path d="M39.9129,36.6836h -6.53102" fill="none" stroke="black"/>
<path d="M39.9129,178.262h -6.53102" fill="none" stroke="black"/>
<path d="M36.6474,181.801h -3.26551" fill="none" stroke="black"/>
<path d="M36.6474,185.341h -3.26551" fill="none" stroke="black"/>
<path d="M36.6474,188.88h -3.26551" fill="none" stroke="black"/>
<path d="M36.6474,192.42h -3.26551" fill="none" stroke="black"/>
<path d="M39.9129,36.6836h -6.53102" fill="none" stroke="black"/>
<path d="M36.6474,33.1441h -3.26551" fill="none" stroke="black"/>
<path d="M36.6474,29.6047h -3.26551" fill="none" stroke="black"/>
<path d="M36.6474,26.0652h -3.26551" fill="none" stroke="black"/>
<text xml:space="preserve" x="24.5763" y="180.8" fill="black" font-size="7.29009" font-family="Helvetica">50</text>
<text xml:space="preserve" x="20.4879" y="163.083" fill="black" font-size="7.29009" font-family="Helvetica">100</text>
<text xml:space="preserve" x="20.4879" y="145.366" fill="black" font-size="7.29009" font-family="Helvetica">150</text>
<text xml:space="preserve" x="20.4879" y="127.65" fill="black" font-size="7.29009" font-family="Helvetica">200</text>
<text xml:space="preserve" x="20.4879" y="109.933" fill="black" font-size="7.29009" font-family="Helvetica">250</text>
<text xml:space="preserve" x="20.4879" y="92.2168" fill="black" font-size="7.29009" font-family="Helvetica">300</text>
<text xml:space="preserve" x="20.4879" y="74.5003" fill="black" font-size="7.29009" font-family="Helvetica">350</text>
<text xml:space="preserve" x="20.4879" y="56.7838" fill="black" font-size="7.29009" font-family="Helvetica">400</text>
<text xml:space="preserve" x="20.4879" y="39.0672" fill="black" font-size="7.29009" font-family="Helvetica">450</text>
<g transform="rotate(-90,14.1281,77.2259)">
<text xml:space="preserve" x="14.1281" y="77.2259" fill="black" font-size="7.29009" font-family="Helvetica"># of hits per event</text>
</g>
<g fill="#0000ff">
<circle cx="67.592" cy="147.012" r="1.09025"/>
<circle cx="69.2714" cy="96.012" r="1.09025"/>
<circle cx="70.9197" cy="63.0171" r="1.09025"/>
<circle cx="81.1983" cy="38.648" r="1.09025"/>
<circle cx="82.8466" cy="60.2245" r="1.09025"/>
<circle cx="93.1252" cy="81.2489" r="1.09025"/>
<circle cx="94.7735" cy="89.3542" r="1.09025"/>
<circle cx="105.052" cy="92.1964" r="1.09025"/>
<circle cx="106.7" cy="100.928" r="1.09025"/>
<circle cx="116.979" cy="108.312" r="1.09025"/>
<circle cx="118.627" cy="112.35" r="1.09025"/>
<circle cx="128.906" cy="119.11" r="1.09025"/>
<circle cx="130.554" cy="132.15" r="1.09025"/>
<circle cx="140.833" cy="145.543" r="1.09025"/>
<circle cx="142.481" cy="150.297" r="1.09025"/>
<circle cx="152.76" cy="156.278" r="1.09025"/>
<circle cx="154.408" cy="152.364" r="1.09025"/>
<circle cx="164.687" cy="150.916" r="1.09025"/>
<circle cx="166.335" cy="164.649" r="1.09025"/>
<circle cx="176.613" cy="174.273" r="1.09025"/>
<circle cx="178.262" cy="179.536" r="1.09025"/>
<circle cx="188.54" cy="183.78" r="1.09025"/>
<circle cx="190.189" cy="185.84" r="1.09025"/>
<circle cx="200.467" cy="189.606" r="1.09025"/>
<circle cx="202.116" cy="191.064" r="1.09025"/>
<circle cx="212.394" cy="192.087" r="1.09025"/>
<circle cx="214.042" cy="192.002" r="1.09025"/>
<circle cx="224.321" cy="192.055" r="1.09025"/>
</g>
<text xml:space="preserve" x="54.1039" y="11.3568" fill="black" font-size="5.80441" font-family="Helvetica">avg # of hits in each layer 100 events (5GeV pi- gun) | total: 4650.439941</text>
<rect x="289.634" y="2.15778" width="272.126" height="211.463" fill="white"/>
<rect x="316.846" y="23.3041" width="217.701" height="169.17" fill="white"/>
<rect x="316.846" y="23.3041" width="217.701" height="169.17" fill="none" stroke="black"/>
<rect x="316.846" y="23.3041" width="217.701" height="169.17" fill="white"/>
<rect x="316.846" y="23.3041" width="217.701" height="169.17" fill="none" stroke="black"/>
<path d="M316.846,192.474h 217.701" fill="none" stroke="black"/>
<path d="M316.846,187.399v 5.07511" fill="none" stroke="black"/>
<path d="M324.621,189.937v 2.53755" fill="none" stroke="black"/>
<path d="M332.397,189.937v 2.53755" fill="none" stroke="black"/>
<path d="M340.172,189.937v 2.53755" fill="none" stroke="black"/>
<path d="M347.947,187.399v 5.07511" fill="none" stroke="black"/>
<path d="M355.722,189.937v 2.53755" fill="none" stroke="black"/>
<path d="M363.497,189.937v 2.53755" fill="none" stroke="black"/>
<path d="M371.272,189.937v 2.53755" fill="none" stroke="black"/>
<path d="M379.047,187.399v 5.07511" fill="none" stroke="black"/>
<path d="M386.822,189.937v 2.53755" fill="none" stroke="black"/>
<path d="M394.597,189.937v 2.53755" fill="none" stroke="black"/>
<path d="M402.372,189.937v 2.53755" fill="none" stroke="black"/>
<path d="M410.147,187.399v 5.07511" fill="none" stroke="black"/>
<path d="M417.922,189.937v 2.53755" fill="none" stroke="black"/>
<path d="M425.697,189.937v 2.53755" fill="none" stroke="black"/>
<path d="M433.472,189.937v 2.53755" fill="none" stroke="black"/>
<path d="M441.247,187.399v 5.07511" fill="none" stroke="black"/>
<path d="M449.022,189.937v 2.53755" fill="none" stroke="black"/>
<path d="M456.797,189.937v 2.53755" fill="none" stroke="black"/>
<path d="M464.572,189.937v 2.53755" fill="none" stroke="black"/>
<path d="M472.347,187.399v 5.07511" fill="none" stroke="black"/>
<path d="M480.122,189.937v 2.53755" fill="none" stroke="black"/>
<path d="M487.897,189.937v 2.53755" fill="none" stroke="black"/>
<path d="M495.672,189.937v 2.53755" fill="none" stroke="black"/>
<path d="M503.447,187.399v 5.07511" fill="none" stroke="black"/>
<path d="M511.222,189.937v 2.53755" fill="none" stroke="black"/>
<path d="M518.997,189.937v 2.53755" fill="none" stroke="black"/>
<path d="M526.772,189.937v 2.53755" fill="none" stroke="black"/>
<path d="M534.547,187.399v 5.07511" fill="none" stroke="black"/>
<text xml:space="preserve" x="308.949" y="199.425" fill="black" font-size="7.29009" font-family="Helvetica">1600</text>
<text xml:space="preserve" x="339.84" y="199.425" fill="black" font-size="7.29009" font-family="Helvetica">1800</text>
<text xml:space="preserve" x="371.184" y="199.425" fill="black" font-size="7.29009" font-family="Helvetica">2000</text>
<text xml:space="preserve" x="402.075" y="199.425" fill="black" font-size="7.29009" font-family="Helvetica">2200</text>
<text xml:space="preserve" x="433.419" y="199.425" fill="black" font-size="7.29009" font-family="Helvetica">2400</text>
<text xml:space="preserve" x="464.31" y="199.425" fill="black" font-size="7.29009" font-family="Helvetica">2600</text>
<text xml:space="preserve" x="495.654" y="199.425" fill="black" font-size="7.29009" font-family="Helvetica">2800</text>
<text xml:space="preserve" x="526.545" y="199.425" fill="black" font-size="7.29009" font-family="Helvetica">3000</text>
<text xml:space="preserve" x="467.49" y="205.784" fill="black" font-size="7.29009" font-family="Helvetica">vertex x position (mm)</text>
<path d="M316.846,192.474v -169.17" fill="none" stroke="black"/>
<path d="M323.377,172.443h -6.53102" fill="none" stroke="black"/>
<path d="M320.112,167.398h -3.26551" fill="none" stroke="black"/>
<path d="M320.112,162.352h -3.26551" fill="none" stroke="black"/>
<path d="M320.112,157.307h -3.26551" fill="none" stroke="black"/>
<path d="M320.112,152.262h -3.26551" fill="none" stroke="black"/>
<path d="M323.377,147.216h -6.53102" fill="none" stroke="black"/>
<path d="M320.112,142.171h -3.26551" fill="none" stroke="black"/>
<path d="M320.112,137.126h -3.26551" fill="none" stroke="black"/>
<path d="M320.112,132.081h -3.26551" fill="none" stroke="black"/>
<path d="M320.112,127.035h -3.26551" fill="none" stroke="black"/>
<path d="M323.377,121.99h -6.53102" fill="none" stroke="black"/>
<path d="M320.112,116.945h -3.26551" fill="none" stroke="black"/>
<path d="M320.112,111.899h -3.26551" fill="none" stroke="black"/>
<path d="M320.112,106.854h -3.26551" fill="none" stroke="black"/>
<path d="M320.112,101.809h -3.26551" fill="none" stroke="black"/>
<path d="M323.377,96.7635h -6.53102" fill="none" stroke="black"/>
<path d="M320.112,91.7182h -3.26551" fill="none" stroke="black"/>
<path d="M320.112,86.673h -3.26551" fill="none" stroke="black"/>
<path d="M320.112,81.6277h -3.26551" fill="none" stroke="black"/>
<path d="M320.112,76.5824h -3.26551" fill="none" stroke="black"/>
<path d="M323.377,71.5371h -6.53102" fill="none" stroke="black"/>
<path d="M320.112,66.4918h -3.26551" fill="none" stroke="black"/>
<path d="M320.112,61.4465h -3.26551" fill="none" stroke="black"/>
<path d="M320.112,56.4012h -3.26551" fill="none" stroke="black"/>
<path d="M320.112,51.3559h -3.26551" fill="none" stroke="black"/>
<path d="M323.377,46.3106h -6.53102" fill="none" stroke="black"/>
<path d="M323.377,172.443h -6.53102" fill="none" stroke="black"/>
<path d="M320.112,177.488h -3.26551" fill="none" stroke="black"/>
<path d="M320.112,182.533h -3.26551" fill="none" stroke="black"/>
<path d="M320.112,187.579h -3.26551" fill="none" stroke="black"/>
<path d="M323.377,46.3106h -6.53102" fill="none" stroke="black"/>
<path d="M320.112,41.2653h -3.26551" fill="none" stroke="black"/>
<path d="M320.112,36.2201h -3.26551" fill="none" stroke="black"/>
<path d="M320.112,31.1748h -3.26551" fill="none" stroke="black"/>
<path d="M320.112,26.1295h -3.26551" fill="none" stroke="black"/>
<text xml:space="preserve" x="303.952" y="174.894" fill="black" font-size="7.29009" font-family="Helvetica">500</text>
<text xml:space="preserve" x="300.318" y="149.909" fill="black" font-size="7.29009" font-family="Helvetica">1000</text>
<text xml:space="preserve" x="300.318" y="124.47" fill="black" font-size="7.29009" font-family="Helvetica">1500</text>
<text xml:space="preserve" x="300.318" y="99.4852" fill="black" font-size="7.29009" font-family="Helvetica">2000</text>
<text xml:space="preserve" x="300.318" y="74.046" fill="black" font-size="7.29009" font-family="Helvetica">2500</text>
<text xml:space="preserve" x="300.318" y="48.6069" fill="black" font-size="7.29009" font-family="Helvetica">3000</text>
<g transform="rotate(-90,294.413,158.54)">
<text xml:space="preserve" x="294.413" y="158.54" fill="black" font-size="7.29009" font-family="Helvetica"># of optical photons in MCParticles per event</text>
</g>
<g fill="#ff0000">
<circle cx="351.057" cy="141.064" r="1.09025"/>
<circle cx="352.736" cy="90.7627" r="1.09025"/>
<circle cx="354.384" cy="59.8406" r="1.09025"/>
<circle cx="364.663" cy="43.4762" r="1.09025"/>
<circle cx="366.311" cy="38.6307" r="1.09025"/>
<circle cx="376.59" cy="58.6559" r="1.09025"/>
<circle cx="378.238" cy="70.4367" r="1.09025"/>
<circle cx="388.517" cy="86.4429" r="1.09025"/>
<circle cx="390.165" cy="77.988" r="1.09025"/>
<circle cx="400.444" cy="91.9019" r="1.09025"/>
<circle cx="402.092" cy="97.6591" r="1.09025"/>
<circle cx="412.37" cy="106.189" r="1.09025"/>
<circle cx="414.019" cy="117.024" r="1.09025"/>
<circle cx="424.297" cy="132.676" r="1.09025"/>
<circle cx="425.946" cy="130.306" r="1.09025"/>
<circle cx="436.224" cy="145.059" r="1.09025"/>
<circle cx="437.873" cy="142.53" r="1.09025"/>
<circle cx="448.151" cy="138.069" r="1.09025"/>
<circle cx="449.799" cy="156.112" r="1.09025"/>
<circle cx="460.078" cy="169.969" r="1.09025"/>
<circle cx="461.726" cy="175.986" r="1.09025"/>
<circle cx="472.005" cy="179.446" r="1.09025"/>
<circle cx="473.653" cy="182.163" r="1.09025"/>
<circle cx="483.932" cy="190.179" r="1.09025"/>
<circle cx="485.58" cy="189.322" r="1.09025"/>
<circle cx="495.859" cy="191.215" r="1.09025"/>
<circle cx="497.507" cy="191.897" r="1.09025"/>
<circle cx="507.786" cy="191.593" r="1.09025"/>
</g>
<text xml:space="preserve" x="337.568" y="11.3568" fill="black" font-size="5.36511" font-family="Helvetica">avg # of -22 PDG in each layer 100 events (5GeV pi- gun) | total: 38782.238281</text></svg>
