<?xml version="1.0" encoding="utf-8" standalone="no"?>
<!DOCTYPE svg PUBLIC "-//W3C//DTD SVG 1.1//EN"
  "http://www.w3.org/Graphics/SVG/1.1/DTD/svg11.dtd">
<svg xmlns:xlink="http://www.w3.org/1999/xlink" width="432pt" height="288pt" viewBox="0 0 432 288" xmlns="http://www.w3.org/2000/svg" version="1.1">
 <metadata>
  <rdf:RDF xmlns:dc="http://purl.org/dc/elements/1.1/" xmlns:cc="http://creativecommons.org/ns#" xmlns:rdf="http://www.w3.org/1999/02/22-rdf-syntax-ns#">
   <cc:Work>
    <dc:type rdf:resource="http://purl.org/dc/dcmitype/StillImage"/>
    <dc:date>2024-05-31T13:05:55.336920</dc:date>
    <dc:format>image/svg+xml</dc:format>
    <dc:creator>
     <cc:Agent>
      <dc:title>Matplotlib v3.7.4, https://matplotlib.org/</dc:title>
     </cc:Agent>
    </dc:creator>
   </cc:Work>
  </rdf:RDF>
 </metadata>
 <defs>
  <style type="text/css">*{stroke-linejoin: round; stroke-linecap: butt}</style>
 </defs>
 <g id="figure_1">
  <g id="patch_1">
   <path d="M 0 288 
L 432 288 
L 432 0 
L 0 0 
L 0 288 
z
" style="fill: none"/>
  </g>
  <g id="axes_1">
   <g id="patch_2">
    <path d="M 54 252 
L 388.8 252 
L 388.8 34.56 
L 54 34.56 
z
" style="fill: #ffffff"/>
   </g>
   <g id="patch_3">
    <path d="M 69.218182 252 
L 72.261811 252 
L 72.261811 251.761694 
L 69.218182 251.761694 
z
" clip-path="url(#p47e1b864ba)" style="fill: #0000ff; opacity: 0.75"/>
   </g>
   <g id="patch_4">
    <path d="M 72.261811 252 
L 75.30544 252 
L 75.30544 252 
L 72.261811 252 
z
" clip-path="url(#p47e1b864ba)" style="fill: #0000ff; opacity: 0.75"/>
   </g>
   <g id="patch_5">
    <path d="M 75.30544 252 
L 78.349107 252 
L 78.349107 252 
L 75.30544 252 
z
" clip-path="url(#p47e1b864ba)" style="fill: #0000ff; opacity: 0.75"/>
   </g>
   <g id="patch_6">
    <path d="M 78.349107 252 
L 81.392736 252 
L 81.392736 252 
L 78.349107 252 
z
" clip-path="url(#p47e1b864ba)" style="fill: #0000ff; opacity: 0.75"/>
   </g>
   <g id="patch_7">
    <path d="M 81.392736 252 
L 84.436365 252 
L 84.436365 252 
L 81.392736 252 
z
" clip-path="url(#p47e1b864ba)" style="fill: #0000ff; opacity: 0.75"/>
   </g>
   <g id="patch_8">
    <path d="M 84.436365 252 
L 87.479995 252 
L 87.479995 252 
L 84.436365 252 
z
" clip-path="url(#p47e1b864ba)" style="fill: #0000ff; opacity: 0.75"/>
   </g>
   <g id="patch_9">
    <path d="M 87.479995 252 
L 90.523624 252 
L 90.523624 252 
L 87.479995 252 
z
" clip-path="url(#p47e1b864ba)" style="fill: #0000ff; opacity: 0.75"/>
   </g>
   <g id="patch_10">
    <path d="M 90.523624 252 
L 93.56729 252 
L 93.56729 252 
L 90.523624 252 
z
" clip-path="url(#p47e1b864ba)" style="fill: #0000ff; opacity: 0.75"/>
   </g>
   <g id="patch_11">
    <path d="M 93.56729 252 
L 96.61092 252 
L 96.61092 252 
L 93.56729 252 
z
" clip-path="url(#p47e1b864ba)" style="fill: #0000ff; opacity: 0.75"/>
   </g>
   <g id="patch_12">
    <path d="M 96.61092 252 
L 99.654549 252 
L 99.654549 252 
L 96.61092 252 
z
" clip-path="url(#p47e1b864ba)" style="fill: #0000ff; opacity: 0.75"/>
   </g>
   <g id="patch_13">
    <path d="M 99.654549 252 
L 102.698178 252 
L 102.698178 252 
L 99.654549 252 
z
" clip-path="url(#p47e1b864ba)" style="fill: #0000ff; opacity: 0.75"/>
   </g>
   <g id="patch_14">
    <path d="M 102.698178 252 
L 105.741808 252 
L 105.741808 252 
L 102.698178 252 
z
" clip-path="url(#p47e1b864ba)" style="fill: #0000ff; opacity: 0.75"/>
   </g>
   <g id="patch_15">
    <path d="M 105.741808 252 
L 108.785437 252 
L 108.785437 252 
L 105.741808 252 
z
" clip-path="url(#p47e1b864ba)" style="fill: #0000ff; opacity: 0.75"/>
   </g>
   <g id="patch_16">
    <path d="M 108.785437 252 
L 111.829103 252 
L 111.829103 252 
L 108.785437 252 
z
" clip-path="url(#p47e1b864ba)" style="fill: #0000ff; opacity: 0.75"/>
   </g>
   <g id="patch_17">
    <path d="M 111.829103 252 
L 114.872733 252 
L 114.872733 252 
L 111.829103 252 
z
" clip-path="url(#p47e1b864ba)" style="fill: #0000ff; opacity: 0.75"/>
   </g>
   <g id="patch_18">
    <path d="M 114.872733 252 
L 117.916362 252 
L 117.916362 252 
L 114.872733 252 
z
" clip-path="url(#p47e1b864ba)" style="fill: #0000ff; opacity: 0.75"/>
   </g>
   <g id="patch_19">
    <path d="M 117.916362 252 
L 120.959991 252 
L 120.959991 252 
L 117.916362 252 
z
" clip-path="url(#p47e1b864ba)" style="fill: #0000ff; opacity: 0.75"/>
   </g>
   <g id="patch_20">
    <path d="M 120.959991 252 
L 124.003621 252 
L 124.003621 252 
L 120.959991 252 
z
" clip-path="url(#p47e1b864ba)" style="fill: #0000ff; opacity: 0.75"/>
   </g>
   <g id="patch_21">
    <path d="M 124.003621 252 
L 127.047287 252 
L 127.047287 252 
L 124.003621 252 
z
" clip-path="url(#p47e1b864ba)" style="fill: #0000ff; opacity: 0.75"/>
   </g>
   <g id="patch_22">
    <path d="M 127.047287 252 
L 130.090916 252 
L 130.090916 252 
L 127.047287 252 
z
" clip-path="url(#p47e1b864ba)" style="fill: #0000ff; opacity: 0.75"/>
   </g>
   <g id="patch_23">
    <path d="M 130.090916 252 
L 133.134546 252 
L 133.134546 252 
L 130.090916 252 
z
" clip-path="url(#p47e1b864ba)" style="fill: #0000ff; opacity: 0.75"/>
   </g>
   <g id="patch_24">
    <path d="M 133.134546 252 
L 136.178175 252 
L 136.178175 252 
L 133.134546 252 
z
" clip-path="url(#p47e1b864ba)" style="fill: #0000ff; opacity: 0.75"/>
   </g>
   <g id="patch_25">
    <path d="M 136.178175 252 
L 139.221804 252 
L 139.221804 252 
L 136.178175 252 
z
" clip-path="url(#p47e1b864ba)" style="fill: #0000ff; opacity: 0.75"/>
   </g>
   <g id="patch_26">
    <path d="M 139.221804 252 
L 142.265471 252 
L 142.265471 252 
L 139.221804 252 
z
" clip-path="url(#p47e1b864ba)" style="fill: #0000ff; opacity: 0.75"/>
   </g>
   <g id="patch_27">
    <path d="M 142.265471 252 
L 145.3091 252 
L 145.3091 252 
L 142.265471 252 
z
" clip-path="url(#p47e1b864ba)" style="fill: #0000ff; opacity: 0.75"/>
   </g>
   <g id="patch_28">
    <path d="M 145.3091 252 
L 148.352729 252 
L 148.352729 252 
L 145.3091 252 
z
" clip-path="url(#p47e1b864ba)" style="fill: #0000ff; opacity: 0.75"/>
   </g>
   <g id="patch_29">
    <path d="M 148.352729 252 
L 151.396359 252 
L 151.396359 251.523387 
L 148.352729 251.523387 
z
" clip-path="url(#p47e1b864ba)" style="fill: #0000ff; opacity: 0.75"/>
   </g>
   <g id="patch_30">
    <path d="M 151.396359 252 
L 154.439988 252 
L 154.439988 250.331855 
L 151.396359 250.331855 
z
" clip-path="url(#p47e1b864ba)" style="fill: #0000ff; opacity: 0.75"/>
   </g>
   <g id="patch_31">
    <path d="M 154.439988 252 
L 157.483654 252 
L 157.483654 251.046786 
L 154.439988 251.046786 
z
" clip-path="url(#p47e1b864ba)" style="fill: #0000ff; opacity: 0.75"/>
   </g>
   <g id="patch_32">
    <path d="M 157.483654 252 
L 160.527284 252 
L 160.527284 247.948792 
L 157.483654 247.948792 
z
" clip-path="url(#p47e1b864ba)" style="fill: #0000ff; opacity: 0.75"/>
   </g>
   <g id="patch_33">
    <path d="M 160.527284 252 
L 163.570913 252 
L 163.570913 235.556861 
L 160.527284 235.556861 
z
" clip-path="url(#p47e1b864ba)" style="fill: #0000ff; opacity: 0.75"/>
   </g>
   <g id="patch_34">
    <path d="M 163.570913 252 
L 166.614542 252 
L 166.614542 187.418975 
L 163.570913 187.418975 
z
" clip-path="url(#p47e1b864ba)" style="fill: #0000ff; opacity: 0.75"/>
   </g>
   <g id="patch_35">
    <path d="M 166.614542 252 
L 169.658172 252 
L 169.658172 118.548435 
L 166.614542 118.548435 
z
" clip-path="url(#p47e1b864ba)" style="fill: #0000ff; opacity: 0.75"/>
   </g>
   <g id="patch_36">
    <path d="M 169.658172 252 
L 172.701801 252 
L 172.701801 79.704498 
L 169.658172 79.704498 
z
" clip-path="url(#p47e1b864ba)" style="fill: #0000ff; opacity: 0.75"/>
   </g>
   <g id="patch_37">
    <path d="M 172.701801 252 
L 175.745467 252 
L 175.745467 44.914286 
L 172.701801 44.914286 
z
" clip-path="url(#p47e1b864ba)" style="fill: #0000ff; opacity: 0.75"/>
   </g>
   <g id="patch_38">
    <path d="M 175.745467 252 
L 178.789097 252 
L 178.789097 75.414983 
L 175.745467 75.414983 
z
" clip-path="url(#p47e1b864ba)" style="fill: #0000ff; opacity: 0.75"/>
   </g>
   <g id="patch_39">
    <path d="M 178.789097 252 
L 181.832726 252 
L 181.832726 78.036353 
L 178.789097 78.036353 
z
" clip-path="url(#p47e1b864ba)" style="fill: #0000ff; opacity: 0.75"/>
   </g>
   <g id="patch_40">
    <path d="M 181.832726 252 
L 184.876355 252 
L 184.876355 81.849255 
L 181.832726 81.849255 
z
" clip-path="url(#p47e1b864ba)" style="fill: #0000ff; opacity: 0.75"/>
   </g>
   <g id="patch_41">
    <path d="M 184.876355 252 
L 187.919985 252 
L 187.919985 88.521833 
L 184.876355 88.521833 
z
" clip-path="url(#p47e1b864ba)" style="fill: #0000ff; opacity: 0.75"/>
   </g>
   <g id="patch_42">
    <path d="M 187.919985 252 
L 190.963651 252 
L 190.963651 114.737202 
L 187.919985 114.737202 
z
" clip-path="url(#p47e1b864ba)" style="fill: #0000ff; opacity: 0.75"/>
   </g>
   <g id="patch_43">
    <path d="M 190.963651 252 
L 194.00728 252 
L 194.00728 128.795609 
L 190.963651 128.795609 
z
" clip-path="url(#p47e1b864ba)" style="fill: #0000ff; opacity: 0.75"/>
   </g>
   <g id="patch_44">
    <path d="M 194.00728 252 
L 197.05091 252 
L 197.05091 134.753268 
L 194.00728 134.753268 
z
" clip-path="url(#p47e1b864ba)" style="fill: #0000ff; opacity: 0.75"/>
   </g>
   <g id="patch_45">
    <path d="M 197.05091 252 
L 200.094539 252 
L 200.094539 157.154067 
L 197.05091 157.154067 
z
" clip-path="url(#p47e1b864ba)" style="fill: #0000ff; opacity: 0.75"/>
   </g>
   <g id="patch_46">
    <path d="M 200.094539 252 
L 203.138168 252 
L 203.138168 175.027044 
L 200.094539 175.027044 
z
" clip-path="url(#p47e1b864ba)" style="fill: #0000ff; opacity: 0.75"/>
   </g>
   <g id="patch_47">
    <path d="M 203.138168 252 
L 206.181835 252 
L 206.181835 176.219497 
L 203.138168 176.219497 
z
" clip-path="url(#p47e1b864ba)" style="fill: #0000ff; opacity: 0.75"/>
   </g>
   <g id="patch_48">
    <path d="M 206.181835 252 
L 209.225464 252 
L 209.225464 187.657281 
L 206.181835 187.657281 
z
" clip-path="url(#p47e1b864ba)" style="fill: #0000ff; opacity: 0.75"/>
   </g>
   <g id="patch_49">
    <path d="M 209.225464 252 
L 212.269093 252 
L 212.269093 187.418975 
L 209.225464 187.418975 
z
" clip-path="url(#p47e1b864ba)" style="fill: #0000ff; opacity: 0.75"/>
   </g>
   <g id="patch_50">
    <path d="M 212.269093 252 
L 215.312723 252 
L 215.312723 193.376634 
L 212.269093 193.376634 
z
" clip-path="url(#p47e1b864ba)" style="fill: #0000ff; opacity: 0.75"/>
   </g>
   <g id="patch_51">
    <path d="M 215.312723 252 
L 218.356352 252 
L 218.356352 207.913322 
L 215.312723 207.913322 
z
" clip-path="url(#p47e1b864ba)" style="fill: #0000ff; opacity: 0.75"/>
   </g>
   <g id="patch_52">
    <path d="M 218.356352 252 
L 221.399982 252 
L 221.399982 215.062513 
L 218.356352 215.062513 
z
" clip-path="url(#p47e1b864ba)" style="fill: #0000ff; opacity: 0.75"/>
   </g>
   <g id="patch_53">
    <path d="M 221.399982 252 
L 224.443648 252 
L 224.443648 221.973763 
L 221.399982 221.973763 
z
" clip-path="url(#p47e1b864ba)" style="fill: #0000ff; opacity: 0.75"/>
   </g>
   <g id="patch_54">
    <path d="M 224.443648 252 
L 227.487277 252 
L 227.487277 226.977832 
L 224.443648 226.977832 
z
" clip-path="url(#p47e1b864ba)" style="fill: #0000ff; opacity: 0.75"/>
   </g>
   <g id="patch_55">
    <path d="M 227.487277 252 
L 230.530907 252 
L 230.530907 232.697184 
L 227.487277 232.697184 
z
" clip-path="url(#p47e1b864ba)" style="fill: #0000ff; opacity: 0.75"/>
   </g>
   <g id="patch_56">
    <path d="M 230.530907 252 
L 233.574536 252 
L 233.574536 232.935491 
L 230.530907 232.935491 
z
" clip-path="url(#p47e1b864ba)" style="fill: #0000ff; opacity: 0.75"/>
   </g>
   <g id="patch_57">
    <path d="M 233.574536 252 
L 236.618165 252 
L 236.618165 239.846375 
L 233.574536 239.846375 
z
" clip-path="url(#p47e1b864ba)" style="fill: #0000ff; opacity: 0.75"/>
   </g>
   <g id="patch_58">
    <path d="M 236.618165 252 
L 239.661832 252 
L 239.661832 242.229558 
L 236.618165 242.229558 
z
" clip-path="url(#p47e1b864ba)" style="fill: #0000ff; opacity: 0.75"/>
   </g>
   <g id="patch_59">
    <path d="M 239.661832 252 
L 242.705461 252 
L 242.705461 241.276214 
L 239.661832 241.276214 
z
" clip-path="url(#p47e1b864ba)" style="fill: #0000ff; opacity: 0.75"/>
   </g>
   <g id="patch_60">
    <path d="M 242.705461 252 
L 245.74909 252 
L 245.74909 244.13589 
L 242.705461 244.13589 
z
" clip-path="url(#p47e1b864ba)" style="fill: #0000ff; opacity: 0.75"/>
   </g>
   <g id="patch_61">
    <path d="M 245.74909 252 
L 248.79272 252 
L 248.79272 242.706052 
L 245.74909 242.706052 
z
" clip-path="url(#p47e1b864ba)" style="fill: #0000ff; opacity: 0.75"/>
   </g>
   <g id="patch_62">
    <path d="M 248.79272 252 
L 251.836349 252 
L 251.836349 247.710485 
L 248.79272 247.710485 
z
" clip-path="url(#p47e1b864ba)" style="fill: #0000ff; opacity: 0.75"/>
   </g>
   <g id="patch_63">
    <path d="M 251.836349 252 
L 254.880015 252 
L 254.880015 241.752951 
L 251.836349 241.752951 
z
" clip-path="url(#p47e1b864ba)" style="fill: #0000ff; opacity: 0.75"/>
   </g>
   <g id="patch_64">
    <path d="M 254.880015 252 
L 257.923645 252 
L 257.923645 245.089115 
L 254.880015 245.089115 
z
" clip-path="url(#p47e1b864ba)" style="fill: #0000ff; opacity: 0.75"/>
   </g>
   <g id="patch_65">
    <path d="M 257.923645 252 
L 260.967274 252 
L 260.967274 247.233873 
L 257.923645 247.233873 
z
" clip-path="url(#p47e1b864ba)" style="fill: #0000ff; opacity: 0.75"/>
   </g>
   <g id="patch_66">
    <path d="M 260.967274 252 
L 264.010903 252 
L 264.010903 248.902017 
L 260.967274 248.902017 
z
" clip-path="url(#p47e1b864ba)" style="fill: #0000ff; opacity: 0.75"/>
   </g>
   <g id="patch_67">
    <path d="M 264.010903 252 
L 267.054533 252 
L 267.054533 249.140324 
L 264.010903 249.140324 
z
" clip-path="url(#p47e1b864ba)" style="fill: #0000ff; opacity: 0.75"/>
   </g>
   <g id="patch_68">
    <path d="M 267.054533 252 
L 270.098199 252 
L 270.098199 248.187145 
L 267.054533 248.187145 
z
" clip-path="url(#p47e1b864ba)" style="fill: #0000ff; opacity: 0.75"/>
   </g>
   <g id="patch_69">
    <path d="M 270.098199 252 
L 273.141828 252 
L 273.141828 248.663711 
L 270.098199 248.663711 
z
" clip-path="url(#p47e1b864ba)" style="fill: #0000ff; opacity: 0.75"/>
   </g>
   <g id="patch_70">
    <path d="M 273.141828 252 
L 276.185458 252 
L 276.185458 250.331855 
L 273.141828 250.331855 
z
" clip-path="url(#p47e1b864ba)" style="fill: #0000ff; opacity: 0.75"/>
   </g>
   <g id="patch_71">
    <path d="M 276.185458 252 
L 279.229087 252 
L 279.229087 250.331855 
L 276.185458 250.331855 
z
" clip-path="url(#p47e1b864ba)" style="fill: #0000ff; opacity: 0.75"/>
   </g>
   <g id="patch_72">
    <path d="M 279.229087 252 
L 282.272716 252 
L 282.272716 250.331855 
L 279.229087 250.331855 
z
" clip-path="url(#p47e1b864ba)" style="fill: #0000ff; opacity: 0.75"/>
   </g>
   <g id="patch_73">
    <path d="M 282.272716 252 
L 285.316346 252 
L 285.316346 251.046775 
L 282.272716 251.046775 
z
" clip-path="url(#p47e1b864ba)" style="fill: #0000ff; opacity: 0.75"/>
   </g>
   <g id="patch_74">
    <path d="M 285.316346 252 
L 288.360012 252 
L 288.360012 250.093572 
L 285.316346 250.093572 
z
" clip-path="url(#p47e1b864ba)" style="fill: #0000ff; opacity: 0.75"/>
   </g>
   <g id="patch_75">
    <path d="M 288.360012 252 
L 291.403641 252 
L 291.403641 251.523387 
L 288.360012 251.523387 
z
" clip-path="url(#p47e1b864ba)" style="fill: #0000ff; opacity: 0.75"/>
   </g>
   <g id="patch_76">
    <path d="M 291.403641 252 
L 294.447271 252 
L 294.447271 250.808468 
L 291.403641 250.808468 
z
" clip-path="url(#p47e1b864ba)" style="fill: #0000ff; opacity: 0.75"/>
   </g>
   <g id="patch_77">
    <path d="M 294.447271 252 
L 297.4909 252 
L 297.4909 251.761694 
L 294.447271 251.761694 
z
" clip-path="url(#p47e1b864ba)" style="fill: #0000ff; opacity: 0.75"/>
   </g>
   <g id="patch_78">
    <path d="M 297.4909 252 
L 300.534529 252 
L 300.534529 250.808468 
L 297.4909 250.808468 
z
" clip-path="url(#p47e1b864ba)" style="fill: #0000ff; opacity: 0.75"/>
   </g>
   <g id="patch_79">
    <path d="M 300.534529 252 
L 303.578196 252 
L 303.578196 250.093572 
L 300.534529 250.093572 
z
" clip-path="url(#p47e1b864ba)" style="fill: #0000ff; opacity: 0.75"/>
   </g>
   <g id="patch_80">
    <path d="M 303.578196 252 
L 306.621825 252 
L 306.621825 251.523387 
L 303.578196 251.523387 
z
" clip-path="url(#p47e1b864ba)" style="fill: #0000ff; opacity: 0.75"/>
   </g>
   <g id="patch_81">
    <path d="M 306.621825 252 
L 309.665454 252 
L 309.665454 251.046775 
L 306.621825 251.046775 
z
" clip-path="url(#p47e1b864ba)" style="fill: #0000ff; opacity: 0.75"/>
   </g>
   <g id="patch_82">
    <path d="M 309.665454 252 
L 312.709084 252 
L 312.709084 251.761694 
L 309.665454 251.761694 
z
" clip-path="url(#p47e1b864ba)" style="fill: #0000ff; opacity: 0.75"/>
   </g>
   <g id="patch_83">
    <path d="M 312.709084 252 
L 315.752713 252 
L 315.752713 250.808468 
L 312.709084 250.808468 
z
" clip-path="url(#p47e1b864ba)" style="fill: #0000ff; opacity: 0.75"/>
   </g>
   <g id="patch_84">
    <path d="M 315.752713 252 
L 318.796379 252 
L 318.796379 251.046786 
L 315.752713 251.046786 
z
" clip-path="url(#p47e1b864ba)" style="fill: #0000ff; opacity: 0.75"/>
   </g>
   <g id="patch_85">
    <path d="M 318.796379 252 
L 321.840009 252 
L 321.840009 251.761694 
L 318.796379 251.761694 
z
" clip-path="url(#p47e1b864ba)" style="fill: #0000ff; opacity: 0.75"/>
   </g>
   <g id="patch_86">
    <path d="M 321.840009 252 
L 324.883638 252 
L 324.883638 252 
L 321.840009 252 
z
" clip-path="url(#p47e1b864ba)" style="fill: #0000ff; opacity: 0.75"/>
   </g>
   <g id="patch_87">
    <path d="M 324.883638 252 
L 327.927267 252 
L 327.927267 251.761694 
L 324.883638 251.761694 
z
" clip-path="url(#p47e1b864ba)" style="fill: #0000ff; opacity: 0.75"/>
   </g>
   <g id="patch_88">
    <path d="M 327.927267 252 
L 330.970934 252 
L 330.970934 252 
L 327.927267 252 
z
" clip-path="url(#p47e1b864ba)" style="fill: #0000ff; opacity: 0.75"/>
   </g>
   <g id="patch_89">
    <path d="M 330.970934 252 
L 334.014563 252 
L 334.014563 251.761694 
L 330.970934 251.761694 
z
" clip-path="url(#p47e1b864ba)" style="fill: #0000ff; opacity: 0.75"/>
   </g>
   <g id="patch_90">
    <path d="M 334.014563 252 
L 337.058192 252 
L 337.058192 251.761694 
L 334.014563 251.761694 
z
" clip-path="url(#p47e1b864ba)" style="fill: #0000ff; opacity: 0.75"/>
   </g>
   <g id="patch_91">
    <path d="M 337.058192 252 
L 340.101822 252 
L 340.101822 252 
L 337.058192 252 
z
" clip-path="url(#p47e1b864ba)" style="fill: #0000ff; opacity: 0.75"/>
   </g>
   <g id="patch_92">
    <path d="M 340.101822 252 
L 343.145451 252 
L 343.145451 252 
L 340.101822 252 
z
" clip-path="url(#p47e1b864ba)" style="fill: #0000ff; opacity: 0.75"/>
   </g>
   <g id="patch_93">
    <path d="M 343.145451 252 
L 346.18908 252 
L 346.18908 252 
L 343.145451 252 
z
" clip-path="url(#p47e1b864ba)" style="fill: #0000ff; opacity: 0.75"/>
   </g>
   <g id="patch_94">
    <path d="M 346.18908 252 
L 349.23271 252 
L 349.23271 251.761694 
L 346.18908 251.761694 
z
" clip-path="url(#p47e1b864ba)" style="fill: #0000ff; opacity: 0.75"/>
   </g>
   <g id="patch_95">
    <path d="M 349.23271 252 
L 352.276339 252 
L 352.276339 251.761694 
L 349.23271 251.761694 
z
" clip-path="url(#p47e1b864ba)" style="fill: #0000ff; opacity: 0.75"/>
   </g>
   <g id="patch_96">
    <path d="M 352.276339 252 
L 355.319968 252 
L 355.319968 252 
L 352.276339 252 
z
" clip-path="url(#p47e1b864ba)" style="fill: #0000ff; opacity: 0.75"/>
   </g>
   <g id="patch_97">
    <path d="M 355.319968 252 
L 358.363672 252 
L 358.363672 252 
L 355.319968 252 
z
" clip-path="url(#p47e1b864ba)" style="fill: #0000ff; opacity: 0.75"/>
   </g>
   <g id="patch_98">
    <path d="M 358.363672 252 
L 361.407301 252 
L 361.407301 251.761694 
L 358.363672 251.761694 
z
" clip-path="url(#p47e1b864ba)" style="fill: #0000ff; opacity: 0.75"/>
   </g>
   <g id="patch_99">
    <path d="M 361.407301 252 
L 364.45093 252 
L 364.45093 251.761694 
L 361.407301 251.761694 
z
" clip-path="url(#p47e1b864ba)" style="fill: #0000ff; opacity: 0.75"/>
   </g>
   <g id="patch_100">
    <path d="M 364.45093 252 
L 367.49456 252 
L 367.49456 252 
L 364.45093 252 
z
" clip-path="url(#p47e1b864ba)" style="fill: #0000ff; opacity: 0.75"/>
   </g>
   <g id="patch_101">
    <path d="M 367.49456 252 
L 370.538189 252 
L 370.538189 252 
L 367.49456 252 
z
" clip-path="url(#p47e1b864ba)" style="fill: #0000ff; opacity: 0.75"/>
   </g>
   <g id="patch_102">
    <path d="M 370.538189 252 
L 373.581818 252 
L 373.581818 251.285081 
L 370.538189 251.285081 
z
" clip-path="url(#p47e1b864ba)" style="fill: #0000ff; opacity: 0.75"/>
   </g>
   <g id="matplotlib.axis_1">
    <g id="xtick_1">
     <g id="line2d_1">
      <path d="M 59.270152 252 
L 59.270152 34.56 
" clip-path="url(#p47e1b864ba)" style="fill: none; stroke: #b0b0b0; stroke-width: 0.8; stroke-linecap: square"/>
     </g>
     <g id="line2d_2">
      <defs>
       <path id="me4c9d6090e" d="M 0 0 
L 0 3.5 
" style="stroke: #000000; stroke-width: 0.8"/>
      </defs>
      <g>
       <use xlink:href="#me4c9d6090e" x="59.270152" y="252" style="stroke: #000000; stroke-width: 0.8"/>
      </g>
     </g>
     <g id="text_1">
      <!-- 9 -->
      <g transform="translate(56.088902 266.598437) scale(0.1 -0.1)">
       <defs>
        <path id="DejaVuSans-39" d="M 703 97 
L 703 672 
Q 941 559 1184 500 
Q 1428 441 1663 441 
Q 2288 441 2617 861 
Q 2947 1281 2994 2138 
Q 2813 1869 2534 1725 
Q 2256 1581 1919 1581 
Q 1219 1581 811 2004 
Q 403 2428 403 3163 
Q 403 3881 828 4315 
Q 1253 4750 1959 4750 
Q 2769 4750 3195 4129 
Q 3622 3509 3622 2328 
Q 3622 1225 3098 567 
Q 2575 -91 1691 -91 
Q 1453 -91 1209 -44 
Q 966 3 703 97 
z
M 1959 2075 
Q 2384 2075 2632 2365 
Q 2881 2656 2881 3163 
Q 2881 3666 2632 3958 
Q 2384 4250 1959 4250 
Q 1534 4250 1286 3958 
Q 1038 3666 1038 3163 
Q 1038 2656 1286 2365 
Q 1534 2075 1959 2075 
z
" transform="scale(0.015625)"/>
       </defs>
       <use xlink:href="#DejaVuSans-39"/>
      </g>
     </g>
    </g>
    <g id="xtick_2">
     <g id="line2d_3">
      <path d="M 98.06381 252 
L 98.06381 34.56 
" clip-path="url(#p47e1b864ba)" style="fill: none; stroke: #b0b0b0; stroke-width: 0.8; stroke-linecap: square"/>
     </g>
     <g id="line2d_4">
      <g>
       <use xlink:href="#me4c9d6090e" x="98.06381" y="252" style="stroke: #000000; stroke-width: 0.8"/>
      </g>
     </g>
     <g id="text_2">
      <!-- 10 -->
      <g transform="translate(91.70131 266.598437) scale(0.1 -0.1)">
       <defs>
        <path id="DejaVuSans-31" d="M 794 531 
L 1825 531 
L 1825 4091 
L 703 3866 
L 703 4441 
L 1819 4666 
L 2450 4666 
L 2450 531 
L 3481 531 
L 3481 0 
L 794 0 
L 794 531 
z
" transform="scale(0.015625)"/>
        <path id="DejaVuSans-30" d="M 2034 4250 
Q 1547 4250 1301 3770 
Q 1056 3291 1056 2328 
Q 1056 1369 1301 889 
Q 1547 409 2034 409 
Q 2525 409 2770 889 
Q 3016 1369 3016 2328 
Q 3016 3291 2770 3770 
Q 2525 4250 2034 4250 
z
M 2034 4750 
Q 2819 4750 3233 4129 
Q 3647 3509 3647 2328 
Q 3647 1150 3233 529 
Q 2819 -91 2034 -91 
Q 1250 -91 836 529 
Q 422 1150 422 2328 
Q 422 3509 836 4129 
Q 1250 4750 2034 4750 
z
" transform="scale(0.015625)"/>
       </defs>
       <use xlink:href="#DejaVuSans-31"/>
       <use xlink:href="#DejaVuSans-30" x="63.623047"/>
      </g>
     </g>
    </g>
    <g id="xtick_3">
     <g id="line2d_5">
      <path d="M 136.857468 252 
L 136.857468 34.56 
" clip-path="url(#p47e1b864ba)" style="fill: none; stroke: #b0b0b0; stroke-width: 0.8; stroke-linecap: square"/>
     </g>
     <g id="line2d_6">
      <g>
       <use xlink:href="#me4c9d6090e" x="136.857468" y="252" style="stroke: #000000; stroke-width: 0.8"/>
      </g>
     </g>
     <g id="text_3">
      <!-- 11 -->
      <g transform="translate(130.494968 266.598437) scale(0.1 -0.1)">
       <use xlink:href="#DejaVuSans-31"/>
       <use xlink:href="#DejaVuSans-31" x="63.623047"/>
      </g>
     </g>
    </g>
    <g id="xtick_4">
     <g id="line2d_7">
      <path d="M 175.651126 252 
L 175.651126 34.56 
" clip-path="url(#p47e1b864ba)" style="fill: none; stroke: #b0b0b0; stroke-width: 0.8; stroke-linecap: square"/>
     </g>
     <g id="line2d_8">
      <g>
       <use xlink:href="#me4c9d6090e" x="175.651126" y="252" style="stroke: #000000; stroke-width: 0.8"/>
      </g>
     </g>
     <g id="text_4">
      <!-- 12 -->
      <g transform="translate(169.288626 266.598437) scale(0.1 -0.1)">
       <defs>
        <path id="DejaVuSans-32" d="M 1228 531 
L 3431 531 
L 3431 0 
L 469 0 
L 469 531 
Q 828 903 1448 1529 
Q 2069 2156 2228 2338 
Q 2531 2678 2651 2914 
Q 2772 3150 2772 3378 
Q 2772 3750 2511 3984 
Q 2250 4219 1831 4219 
Q 1534 4219 1204 4116 
Q 875 4013 500 3803 
L 500 4441 
Q 881 4594 1212 4672 
Q 1544 4750 1819 4750 
Q 2544 4750 2975 4387 
Q 3406 4025 3406 3419 
Q 3406 3131 3298 2873 
Q 3191 2616 2906 2266 
Q 2828 2175 2409 1742 
Q 1991 1309 1228 531 
z
" transform="scale(0.015625)"/>
       </defs>
       <use xlink:href="#DejaVuSans-31"/>
       <use xlink:href="#DejaVuSans-32" x="63.623047"/>
      </g>
     </g>
    </g>
    <g id="xtick_5">
     <g id="line2d_9">
      <path d="M 214.444785 252 
L 214.444785 34.56 
" clip-path="url(#p47e1b864ba)" style="fill: none; stroke: #b0b0b0; stroke-width: 0.8; stroke-linecap: square"/>
     </g>
     <g id="line2d_10">
      <g>
       <use xlink:href="#me4c9d6090e" x="214.444785" y="252" style="stroke: #000000; stroke-width: 0.8"/>
      </g>
     </g>
     <g id="text_5">
      <!-- 13 -->
      <g transform="translate(208.082285 266.598437) scale(0.1 -0.1)">
       <defs>
        <path id="DejaVuSans-33" d="M 2597 2516 
Q 3050 2419 3304 2112 
Q 3559 1806 3559 1356 
Q 3559 666 3084 287 
Q 2609 -91 1734 -91 
Q 1441 -91 1130 -33 
Q 819 25 488 141 
L 488 750 
Q 750 597 1062 519 
Q 1375 441 1716 441 
Q 2309 441 2620 675 
Q 2931 909 2931 1356 
Q 2931 1769 2642 2001 
Q 2353 2234 1838 2234 
L 1294 2234 
L 1294 2753 
L 1863 2753 
Q 2328 2753 2575 2939 
Q 2822 3125 2822 3475 
Q 2822 3834 2567 4026 
Q 2313 4219 1838 4219 
Q 1578 4219 1281 4162 
Q 984 4106 628 3988 
L 628 4550 
Q 988 4650 1302 4700 
Q 1616 4750 1894 4750 
Q 2613 4750 3031 4423 
Q 3450 4097 3450 3541 
Q 3450 3153 3228 2886 
Q 3006 2619 2597 2516 
z
" transform="scale(0.015625)"/>
       </defs>
       <use xlink:href="#DejaVuSans-31"/>
       <use xlink:href="#DejaVuSans-33" x="63.623047"/>
      </g>
     </g>
    </g>
    <g id="xtick_6">
     <g id="line2d_11">
      <path d="M 253.238443 252 
L 253.238443 34.56 
" clip-path="url(#p47e1b864ba)" style="fill: none; stroke: #b0b0b0; stroke-width: 0.8; stroke-linecap: square"/>
     </g>
     <g id="line2d_12">
      <g>
       <use xlink:href="#me4c9d6090e" x="253.238443" y="252" style="stroke: #000000; stroke-width: 0.8"/>
      </g>
     </g>
     <g id="text_6">
      <!-- 14 -->
      <g transform="translate(246.875943 266.598437) scale(0.1 -0.1)">
       <defs>
        <path id="DejaVuSans-34" d="M 2419 4116 
L 825 1625 
L 2419 1625 
L 2419 4116 
z
M 2253 4666 
L 3047 4666 
L 3047 1625 
L 3713 1625 
L 3713 1100 
L 3047 1100 
L 3047 0 
L 2419 0 
L 2419 1100 
L 313 1100 
L 313 1709 
L 2253 4666 
z
" transform="scale(0.015625)"/>
       </defs>
       <use xlink:href="#DejaVuSans-31"/>
       <use xlink:href="#DejaVuSans-34" x="63.623047"/>
      </g>
     </g>
    </g>
    <g id="xtick_7">
     <g id="line2d_13">
      <path d="M 292.032101 252 
L 292.032101 34.56 
" clip-path="url(#p47e1b864ba)" style="fill: none; stroke: #b0b0b0; stroke-width: 0.8; stroke-linecap: square"/>
     </g>
     <g id="line2d_14">
      <g>
       <use xlink:href="#me4c9d6090e" x="292.032101" y="252" style="stroke: #000000; stroke-width: 0.8"/>
      </g>
     </g>
     <g id="text_7">
      <!-- 15 -->
      <g transform="translate(285.669601 266.598437) scale(0.1 -0.1)">
       <defs>
        <path id="DejaVuSans-35" d="M 691 4666 
L 3169 4666 
L 3169 4134 
L 1269 4134 
L 1269 2991 
Q 1406 3038 1543 3061 
Q 1681 3084 1819 3084 
Q 2600 3084 3056 2656 
Q 3513 2228 3513 1497 
Q 3513 744 3044 326 
Q 2575 -91 1722 -91 
Q 1428 -91 1123 -41 
Q 819 9 494 109 
L 494 744 
Q 775 591 1075 516 
Q 1375 441 1709 441 
Q 2250 441 2565 725 
Q 2881 1009 2881 1497 
Q 2881 1984 2565 2268 
Q 2250 2553 1709 2553 
Q 1456 2553 1204 2497 
Q 953 2441 691 2322 
L 691 4666 
z
" transform="scale(0.015625)"/>
       </defs>
       <use xlink:href="#DejaVuSans-31"/>
       <use xlink:href="#DejaVuSans-35" x="63.623047"/>
      </g>
     </g>
    </g>
    <g id="xtick_8">
     <g id="line2d_15">
      <path d="M 330.825759 252 
L 330.825759 34.56 
" clip-path="url(#p47e1b864ba)" style="fill: none; stroke: #b0b0b0; stroke-width: 0.8; stroke-linecap: square"/>
     </g>
     <g id="line2d_16">
      <g>
       <use xlink:href="#me4c9d6090e" x="330.825759" y="252" style="stroke: #000000; stroke-width: 0.8"/>
      </g>
     </g>
     <g id="text_8">
      <!-- 16 -->
      <g transform="translate(324.463259 266.598437) scale(0.1 -0.1)">
       <defs>
        <path id="DejaVuSans-36" d="M 2113 2584 
Q 1688 2584 1439 2293 
Q 1191 2003 1191 1497 
Q 1191 994 1439 701 
Q 1688 409 2113 409 
Q 2538 409 2786 701 
Q 3034 994 3034 1497 
Q 3034 2003 2786 2293 
Q 2538 2584 2113 2584 
z
M 3366 4563 
L 3366 3988 
Q 3128 4100 2886 4159 
Q 2644 4219 2406 4219 
Q 1781 4219 1451 3797 
Q 1122 3375 1075 2522 
Q 1259 2794 1537 2939 
Q 1816 3084 2150 3084 
Q 2853 3084 3261 2657 
Q 3669 2231 3669 1497 
Q 3669 778 3244 343 
Q 2819 -91 2113 -91 
Q 1303 -91 875 529 
Q 447 1150 447 2328 
Q 447 3434 972 4092 
Q 1497 4750 2381 4750 
Q 2619 4750 2861 4703 
Q 3103 4656 3366 4563 
z
" transform="scale(0.015625)"/>
       </defs>
       <use xlink:href="#DejaVuSans-31"/>
       <use xlink:href="#DejaVuSans-36" x="63.623047"/>
      </g>
     </g>
    </g>
    <g id="xtick_9">
     <g id="line2d_17">
      <path d="M 369.619417 252 
L 369.619417 34.56 
" clip-path="url(#p47e1b864ba)" style="fill: none; stroke: #b0b0b0; stroke-width: 0.8; stroke-linecap: square"/>
     </g>
     <g id="line2d_18">
      <g>
       <use xlink:href="#me4c9d6090e" x="369.619417" y="252" style="stroke: #000000; stroke-width: 0.8"/>
      </g>
     </g>
     <g id="text_9">
      <!-- 17 -->
      <g transform="translate(363.256917 266.598437) scale(0.1 -0.1)">
       <defs>
        <path id="DejaVuSans-37" d="M 525 4666 
L 3525 4666 
L 3525 4397 
L 1831 0 
L 1172 0 
L 2766 4134 
L 525 4134 
L 525 4666 
z
" transform="scale(0.015625)"/>
       </defs>
       <use xlink:href="#DejaVuSans-31"/>
       <use xlink:href="#DejaVuSans-37" x="63.623047"/>
      </g>
     </g>
    </g>
    <g id="text_10">
     <!-- Time -->
     <g transform="translate(209.166406 280.276563) scale(0.1 -0.1)">
      <defs>
       <path id="DejaVuSans-54" d="M -19 4666 
L 3928 4666 
L 3928 4134 
L 2272 4134 
L 2272 0 
L 1638 0 
L 1638 4134 
L -19 4134 
L -19 4666 
z
" transform="scale(0.015625)"/>
       <path id="DejaVuSans-69" d="M 603 3500 
L 1178 3500 
L 1178 0 
L 603 0 
L 603 3500 
z
M 603 4863 
L 1178 4863 
L 1178 4134 
L 603 4134 
L 603 4863 
z
" transform="scale(0.015625)"/>
       <path id="DejaVuSans-6d" d="M 3328 2828 
Q 3544 3216 3844 3400 
Q 4144 3584 4550 3584 
Q 5097 3584 5394 3201 
Q 5691 2819 5691 2113 
L 5691 0 
L 5113 0 
L 5113 2094 
Q 5113 2597 4934 2840 
Q 4756 3084 4391 3084 
Q 3944 3084 3684 2787 
Q 3425 2491 3425 1978 
L 3425 0 
L 2847 0 
L 2847 2094 
Q 2847 2600 2669 2842 
Q 2491 3084 2119 3084 
Q 1678 3084 1418 2786 
Q 1159 2488 1159 1978 
L 1159 0 
L 581 0 
L 581 3500 
L 1159 3500 
L 1159 2956 
Q 1356 3278 1631 3431 
Q 1906 3584 2284 3584 
Q 2666 3584 2933 3390 
Q 3200 3197 3328 2828 
z
" transform="scale(0.015625)"/>
       <path id="DejaVuSans-65" d="M 3597 1894 
L 3597 1613 
L 953 1613 
Q 991 1019 1311 708 
Q 1631 397 2203 397 
Q 2534 397 2845 478 
Q 3156 559 3463 722 
L 3463 178 
Q 3153 47 2828 -22 
Q 2503 -91 2169 -91 
Q 1331 -91 842 396 
Q 353 884 353 1716 
Q 353 2575 817 3079 
Q 1281 3584 2069 3584 
Q 2775 3584 3186 3129 
Q 3597 2675 3597 1894 
z
M 3022 2063 
Q 3016 2534 2758 2815 
Q 2500 3097 2075 3097 
Q 1594 3097 1305 2825 
Q 1016 2553 972 2059 
L 3022 2063 
z
" transform="scale(0.015625)"/>
      </defs>
      <use xlink:href="#DejaVuSans-54"/>
      <use xlink:href="#DejaVuSans-69" x="57.958984"/>
      <use xlink:href="#DejaVuSans-6d" x="85.742188"/>
      <use xlink:href="#DejaVuSans-65" x="183.154297"/>
     </g>
    </g>
   </g>
   <g id="matplotlib.axis_2">
    <g id="ytick_1">
     <g id="line2d_19">
      <path d="M 54 252 
L 388.8 252 
" clip-path="url(#p47e1b864ba)" style="fill: none; stroke: #b0b0b0; stroke-width: 0.8; stroke-linecap: square"/>
     </g>
     <g id="line2d_20">
      <defs>
       <path id="mccb29fdd62" d="M 0 0 
L -3.5 0 
" style="stroke: #000000; stroke-width: 0.8"/>
      </defs>
      <g>
       <use xlink:href="#mccb29fdd62" x="54" y="252" style="stroke: #000000; stroke-width: 0.8"/>
      </g>
     </g>
     <g id="text_11">
      <!-- 0.0 -->
      <g transform="translate(31.096875 255.799219) scale(0.1 -0.1)">
       <defs>
        <path id="DejaVuSans-2e" d="M 684 794 
L 1344 794 
L 1344 0 
L 684 0 
L 684 794 
z
" transform="scale(0.015625)"/>
       </defs>
       <use xlink:href="#DejaVuSans-30"/>
       <use xlink:href="#DejaVuSans-2e" x="63.623047"/>
       <use xlink:href="#DejaVuSans-30" x="95.410156"/>
      </g>
     </g>
    </g>
    <g id="ytick_2">
     <g id="line2d_21">
      <path d="M 54 214.636368 
L 388.8 214.636368 
" clip-path="url(#p47e1b864ba)" style="fill: none; stroke: #b0b0b0; stroke-width: 0.8; stroke-linecap: square"/>
     </g>
     <g id="line2d_22">
      <g>
       <use xlink:href="#mccb29fdd62" x="54" y="214.636368" style="stroke: #000000; stroke-width: 0.8"/>
      </g>
     </g>
     <g id="text_12">
      <!-- 0.2 -->
      <g transform="translate(31.096875 218.435586) scale(0.1 -0.1)">
       <use xlink:href="#DejaVuSans-30"/>
       <use xlink:href="#DejaVuSans-2e" x="63.623047"/>
       <use xlink:href="#DejaVuSans-32" x="95.410156"/>
      </g>
     </g>
    </g>
    <g id="ytick_3">
     <g id="line2d_23">
      <path d="M 54 177.272735 
L 388.8 177.272735 
" clip-path="url(#p47e1b864ba)" style="fill: none; stroke: #b0b0b0; stroke-width: 0.8; stroke-linecap: square"/>
     </g>
     <g id="line2d_24">
      <g>
       <use xlink:href="#mccb29fdd62" x="54" y="177.272735" style="stroke: #000000; stroke-width: 0.8"/>
      </g>
     </g>
     <g id="text_13">
      <!-- 0.4 -->
      <g transform="translate(31.096875 181.071954) scale(0.1 -0.1)">
       <use xlink:href="#DejaVuSans-30"/>
       <use xlink:href="#DejaVuSans-2e" x="63.623047"/>
       <use xlink:href="#DejaVuSans-34" x="95.410156"/>
      </g>
     </g>
    </g>
    <g id="ytick_4">
     <g id="line2d_25">
      <path d="M 54 139.909103 
L 388.8 139.909103 
" clip-path="url(#p47e1b864ba)" style="fill: none; stroke: #b0b0b0; stroke-width: 0.8; stroke-linecap: square"/>
     </g>
     <g id="line2d_26">
      <g>
       <use xlink:href="#mccb29fdd62" x="54" y="139.909103" style="stroke: #000000; stroke-width: 0.8"/>
      </g>
     </g>
     <g id="text_14">
      <!-- 0.6 -->
      <g transform="translate(31.096875 143.708322) scale(0.1 -0.1)">
       <use xlink:href="#DejaVuSans-30"/>
       <use xlink:href="#DejaVuSans-2e" x="63.623047"/>
       <use xlink:href="#DejaVuSans-36" x="95.410156"/>
      </g>
     </g>
    </g>
    <g id="ytick_5">
     <g id="line2d_27">
      <path d="M 54 102.545471 
L 388.8 102.545471 
" clip-path="url(#p47e1b864ba)" style="fill: none; stroke: #b0b0b0; stroke-width: 0.8; stroke-linecap: square"/>
     </g>
     <g id="line2d_28">
      <g>
       <use xlink:href="#mccb29fdd62" x="54" y="102.545471" style="stroke: #000000; stroke-width: 0.8"/>
      </g>
     </g>
     <g id="text_15">
      <!-- 0.8 -->
      <g transform="translate(31.096875 106.344689) scale(0.1 -0.1)">
       <defs>
        <path id="DejaVuSans-38" d="M 2034 2216 
Q 1584 2216 1326 1975 
Q 1069 1734 1069 1313 
Q 1069 891 1326 650 
Q 1584 409 2034 409 
Q 2484 409 2743 651 
Q 3003 894 3003 1313 
Q 3003 1734 2745 1975 
Q 2488 2216 2034 2216 
z
M 1403 2484 
Q 997 2584 770 2862 
Q 544 3141 544 3541 
Q 544 4100 942 4425 
Q 1341 4750 2034 4750 
Q 2731 4750 3128 4425 
Q 3525 4100 3525 3541 
Q 3525 3141 3298 2862 
Q 3072 2584 2669 2484 
Q 3125 2378 3379 2068 
Q 3634 1759 3634 1313 
Q 3634 634 3220 271 
Q 2806 -91 2034 -91 
Q 1263 -91 848 271 
Q 434 634 434 1313 
Q 434 1759 690 2068 
Q 947 2378 1403 2484 
z
M 1172 3481 
Q 1172 3119 1398 2916 
Q 1625 2713 2034 2713 
Q 2441 2713 2670 2916 
Q 2900 3119 2900 3481 
Q 2900 3844 2670 4047 
Q 2441 4250 2034 4250 
Q 1625 4250 1398 4047 
Q 1172 3844 1172 3481 
z
" transform="scale(0.015625)"/>
       </defs>
       <use xlink:href="#DejaVuSans-30"/>
       <use xlink:href="#DejaVuSans-2e" x="63.623047"/>
       <use xlink:href="#DejaVuSans-38" x="95.410156"/>
      </g>
     </g>
    </g>
    <g id="ytick_6">
     <g id="line2d_29">
      <path d="M 54 65.181838 
L 388.8 65.181838 
" clip-path="url(#p47e1b864ba)" style="fill: none; stroke: #b0b0b0; stroke-width: 0.8; stroke-linecap: square"/>
     </g>
     <g id="line2d_30">
      <g>
       <use xlink:href="#mccb29fdd62" x="54" y="65.181838" style="stroke: #000000; stroke-width: 0.8"/>
      </g>
     </g>
     <g id="text_16">
      <!-- 1.0 -->
      <g transform="translate(31.096875 68.981057) scale(0.1 -0.1)">
       <use xlink:href="#DejaVuSans-31"/>
       <use xlink:href="#DejaVuSans-2e" x="63.623047"/>
       <use xlink:href="#DejaVuSans-30" x="95.410156"/>
      </g>
     </g>
    </g>
    <g id="text_17">
     <!-- Counts -->
     <g transform="translate(25.017187 160.733125) rotate(-90) scale(0.1 -0.1)">
      <defs>
       <path id="DejaVuSans-43" d="M 4122 4306 
L 4122 3641 
Q 3803 3938 3442 4084 
Q 3081 4231 2675 4231 
Q 1875 4231 1450 3742 
Q 1025 3253 1025 2328 
Q 1025 1406 1450 917 
Q 1875 428 2675 428 
Q 3081 428 3442 575 
Q 3803 722 4122 1019 
L 4122 359 
Q 3791 134 3420 21 
Q 3050 -91 2638 -91 
Q 1578 -91 968 557 
Q 359 1206 359 2328 
Q 359 3453 968 4101 
Q 1578 4750 2638 4750 
Q 3056 4750 3426 4639 
Q 3797 4528 4122 4306 
z
" transform="scale(0.015625)"/>
       <path id="DejaVuSans-6f" d="M 1959 3097 
Q 1497 3097 1228 2736 
Q 959 2375 959 1747 
Q 959 1119 1226 758 
Q 1494 397 1959 397 
Q 2419 397 2687 759 
Q 2956 1122 2956 1747 
Q 2956 2369 2687 2733 
Q 2419 3097 1959 3097 
z
M 1959 3584 
Q 2709 3584 3137 3096 
Q 3566 2609 3566 1747 
Q 3566 888 3137 398 
Q 2709 -91 1959 -91 
Q 1206 -91 779 398 
Q 353 888 353 1747 
Q 353 2609 779 3096 
Q 1206 3584 1959 3584 
z
" transform="scale(0.015625)"/>
       <path id="DejaVuSans-75" d="M 544 1381 
L 544 3500 
L 1119 3500 
L 1119 1403 
Q 1119 906 1312 657 
Q 1506 409 1894 409 
Q 2359 409 2629 706 
Q 2900 1003 2900 1516 
L 2900 3500 
L 3475 3500 
L 3475 0 
L 2900 0 
L 2900 538 
Q 2691 219 2414 64 
Q 2138 -91 1772 -91 
Q 1169 -91 856 284 
Q 544 659 544 1381 
z
M 1991 3584 
L 1991 3584 
z
" transform="scale(0.015625)"/>
       <path id="DejaVuSans-6e" d="M 3513 2113 
L 3513 0 
L 2938 0 
L 2938 2094 
Q 2938 2591 2744 2837 
Q 2550 3084 2163 3084 
Q 1697 3084 1428 2787 
Q 1159 2491 1159 1978 
L 1159 0 
L 581 0 
L 581 3500 
L 1159 3500 
L 1159 2956 
Q 1366 3272 1645 3428 
Q 1925 3584 2291 3584 
Q 2894 3584 3203 3211 
Q 3513 2838 3513 2113 
z
" transform="scale(0.015625)"/>
       <path id="DejaVuSans-74" d="M 1172 4494 
L 1172 3500 
L 2356 3500 
L 2356 3053 
L 1172 3053 
L 1172 1153 
Q 1172 725 1289 603 
Q 1406 481 1766 481 
L 2356 481 
L 2356 0 
L 1766 0 
Q 1100 0 847 248 
Q 594 497 594 1153 
L 594 3053 
L 172 3053 
L 172 3500 
L 594 3500 
L 594 4494 
L 1172 4494 
z
" transform="scale(0.015625)"/>
       <path id="DejaVuSans-73" d="M 2834 3397 
L 2834 2853 
Q 2591 2978 2328 3040 
Q 2066 3103 1784 3103 
Q 1356 3103 1142 2972 
Q 928 2841 928 2578 
Q 928 2378 1081 2264 
Q 1234 2150 1697 2047 
L 1894 2003 
Q 2506 1872 2764 1633 
Q 3022 1394 3022 966 
Q 3022 478 2636 193 
Q 2250 -91 1575 -91 
Q 1294 -91 989 -36 
Q 684 19 347 128 
L 347 722 
Q 666 556 975 473 
Q 1284 391 1588 391 
Q 1994 391 2212 530 
Q 2431 669 2431 922 
Q 2431 1156 2273 1281 
Q 2116 1406 1581 1522 
L 1381 1569 
Q 847 1681 609 1914 
Q 372 2147 372 2553 
Q 372 3047 722 3315 
Q 1072 3584 1716 3584 
Q 2034 3584 2315 3537 
Q 2597 3491 2834 3397 
z
" transform="scale(0.015625)"/>
      </defs>
      <use xlink:href="#DejaVuSans-43"/>
      <use xlink:href="#DejaVuSans-6f" x="69.824219"/>
      <use xlink:href="#DejaVuSans-75" x="131.005859"/>
      <use xlink:href="#DejaVuSans-6e" x="194.384766"/>
      <use xlink:href="#DejaVuSans-74" x="257.763672"/>
      <use xlink:href="#DejaVuSans-73" x="296.972656"/>
     </g>
    </g>
   </g>
   <g id="line2d_31">
    <path d="M 69.218182 251.999968 
L 72.261811 251.999933 
L 75.30544 251.999861 
L 78.349107 251.999717 
L 81.392736 251.999434 
L 84.436365 251.99889 
L 87.479995 251.997862 
L 90.523624 251.995961 
L 93.56729 251.992511 
L 96.61092 251.986376 
L 99.654549 251.975678 
L 102.698178 251.957394 
L 105.741808 251.926764 
L 108.785437 251.876473 
L 111.829103 251.795552 
L 114.872733 251.667963 
L 117.916362 251.470855 
L 120.959991 251.172542 
L 124.003621 250.730298 
L 127.047287 250.088196 
L 130.090916 249.175335 
L 133.134546 247.904808 
L 136.178175 246.174065 
L 139.221804 243.867185 
L 142.265471 240.859576 
L 145.3091 237.025759 
L 148.352729 232.249785 
L 151.396359 226.438708 
L 154.439988 219.537817 
L 157.483654 211.546351 
L 160.527284 202.532448 
L 163.570913 192.643664 
L 166.614542 182.112791 
L 169.658172 171.255629 
L 172.701801 160.46003 
L 175.745467 150.165782 
L 178.789097 140.837057 
L 181.832726 132.927825 
L 184.876355 126.846072 
L 187.919985 122.918907 
L 190.963651 121.363438 
L 194.00728 122.266933 
L 197.05091 125.578606 
L 200.094539 131.114444 
L 203.138168 138.574109 
L 206.181835 147.568036 
L 209.225464 157.650625 
L 212.269093 168.357201 
L 215.312723 179.238434 
L 218.356352 189.890295 
L 221.399982 199.976348 
L 224.443648 209.241243 
L 227.487277 217.514681 
L 230.530907 224.708503 
L 233.574536 230.806415 
L 236.618165 235.850264 
L 239.661832 239.924397 
L 242.705461 243.13992 
L 245.74909 245.621033 
L 248.79272 247.49342 
L 251.836349 248.87588 
L 254.880015 249.874847 
L 257.923645 250.581469 
L 260.967274 251.070882 
L 264.010903 251.402844 
L 267.054533 251.623394 
L 270.098199 251.766939 
L 273.141828 251.858474 
L 276.185458 251.915669 
L 279.229087 251.950691 
L 282.272716 251.971709 
L 285.316346 251.984072 
L 288.360012 251.991201 
L 291.403641 251.99523 
L 294.447271 251.997463 
L 297.4909 251.998676 
L 300.534529 251.999322 
L 303.578196 251.999659 
L 306.621825 251.999832 
L 309.665454 251.999919 
L 312.709084 251.999961 
L 315.752713 251.999982 
L 318.796379 251.999992 
L 321.840009 251.999996 
L 324.883638 251.999998 
L 327.927267 251.999999 
L 330.970934 252 
L 334.014563 252 
L 337.058192 252 
L 340.101822 252 
L 343.145451 252 
L 346.18908 252 
L 349.23271 252 
L 352.276339 252 
L 355.319968 252 
L 358.363672 252 
L 361.407301 252 
L 364.45093 252 
L 367.49456 252 
L 370.538189 252 
L 373.581818 252 
" clip-path="url(#p47e1b864ba)" style="fill: none; stroke-dasharray: 7.4,3.2; stroke-dashoffset: 0; stroke: #ff0000; stroke-width: 2"/>
   </g>
   <g id="patch_103">
    <path d="M 54 252 
L 54 34.56 
" style="fill: none; stroke: #000000; stroke-width: 0.8; stroke-linejoin: miter; stroke-linecap: square"/>
   </g>
   <g id="patch_104">
    <path d="M 388.8 252 
L 388.8 34.56 
" style="fill: none; stroke: #000000; stroke-width: 0.8; stroke-linejoin: miter; stroke-linecap: square"/>
   </g>
   <g id="patch_105">
    <path d="M 54 252 
L 388.8 252 
" style="fill: none; stroke: #000000; stroke-width: 0.8; stroke-linejoin: miter; stroke-linecap: square"/>
   </g>
   <g id="patch_106">
    <path d="M 54 34.56 
L 388.8 34.56 
" style="fill: none; stroke: #000000; stroke-width: 0.8; stroke-linejoin: miter; stroke-linecap: square"/>
   </g>
  </g>
  <g id="text_18">
   <!-- Hist of times for 10k 5GeV mu- events; one segment -->
   <g transform="translate(57.563437 14.878125) scale(0.12 -0.12)">
    <defs>
     <path id="DejaVuSans-48" d="M 628 4666 
L 1259 4666 
L 1259 2753 
L 3553 2753 
L 3553 4666 
L 4184 4666 
L 4184 0 
L 3553 0 
L 3553 2222 
L 1259 2222 
L 1259 0 
L 628 0 
L 628 4666 
z
" transform="scale(0.015625)"/>
     <path id="DejaVuSans-20" transform="scale(0.015625)"/>
     <path id="DejaVuSans-66" d="M 2375 4863 
L 2375 4384 
L 1825 4384 
Q 1516 4384 1395 4259 
Q 1275 4134 1275 3809 
L 1275 3500 
L 2222 3500 
L 2222 3053 
L 1275 3053 
L 1275 0 
L 697 0 
L 697 3053 
L 147 3053 
L 147 3500 
L 697 3500 
L 697 3744 
Q 697 4328 969 4595 
Q 1241 4863 1831 4863 
L 2375 4863 
z
" transform="scale(0.015625)"/>
     <path id="DejaVuSans-72" d="M 2631 2963 
Q 2534 3019 2420 3045 
Q 2306 3072 2169 3072 
Q 1681 3072 1420 2755 
Q 1159 2438 1159 1844 
L 1159 0 
L 581 0 
L 581 3500 
L 1159 3500 
L 1159 2956 
Q 1341 3275 1631 3429 
Q 1922 3584 2338 3584 
Q 2397 3584 2469 3576 
Q 2541 3569 2628 3553 
L 2631 2963 
z
" transform="scale(0.015625)"/>
     <path id="DejaVuSans-6b" d="M 581 4863 
L 1159 4863 
L 1159 1991 
L 2875 3500 
L 3609 3500 
L 1753 1863 
L 3688 0 
L 2938 0 
L 1159 1709 
L 1159 0 
L 581 0 
L 581 4863 
z
" transform="scale(0.015625)"/>
     <path id="DejaVuSans-47" d="M 3809 666 
L 3809 1919 
L 2778 1919 
L 2778 2438 
L 4434 2438 
L 4434 434 
Q 4069 175 3628 42 
Q 3188 -91 2688 -91 
Q 1594 -91 976 548 
Q 359 1188 359 2328 
Q 359 3472 976 4111 
Q 1594 4750 2688 4750 
Q 3144 4750 3555 4637 
Q 3966 4525 4313 4306 
L 4313 3634 
Q 3963 3931 3569 4081 
Q 3175 4231 2741 4231 
Q 1884 4231 1454 3753 
Q 1025 3275 1025 2328 
Q 1025 1384 1454 906 
Q 1884 428 2741 428 
Q 3075 428 3337 486 
Q 3600 544 3809 666 
z
" transform="scale(0.015625)"/>
     <path id="DejaVuSans-56" d="M 1831 0 
L 50 4666 
L 709 4666 
L 2188 738 
L 3669 4666 
L 4325 4666 
L 2547 0 
L 1831 0 
z
" transform="scale(0.015625)"/>
     <path id="DejaVuSans-2d" d="M 313 2009 
L 1997 2009 
L 1997 1497 
L 313 1497 
L 313 2009 
z
" transform="scale(0.015625)"/>
     <path id="DejaVuSans-76" d="M 191 3500 
L 800 3500 
L 1894 563 
L 2988 3500 
L 3597 3500 
L 2284 0 
L 1503 0 
L 191 3500 
z
" transform="scale(0.015625)"/>
     <path id="DejaVuSans-3b" d="M 750 3309 
L 1409 3309 
L 1409 2516 
L 750 2516 
L 750 3309 
z
M 750 794 
L 1409 794 
L 1409 256 
L 897 -744 
L 494 -744 
L 750 256 
L 750 794 
z
" transform="scale(0.015625)"/>
     <path id="DejaVuSans-67" d="M 2906 1791 
Q 2906 2416 2648 2759 
Q 2391 3103 1925 3103 
Q 1463 3103 1205 2759 
Q 947 2416 947 1791 
Q 947 1169 1205 825 
Q 1463 481 1925 481 
Q 2391 481 2648 825 
Q 2906 1169 2906 1791 
z
M 3481 434 
Q 3481 -459 3084 -895 
Q 2688 -1331 1869 -1331 
Q 1566 -1331 1297 -1286 
Q 1028 -1241 775 -1147 
L 775 -588 
Q 1028 -725 1275 -790 
Q 1522 -856 1778 -856 
Q 2344 -856 2625 -561 
Q 2906 -266 2906 331 
L 2906 616 
Q 2728 306 2450 153 
Q 2172 0 1784 0 
Q 1141 0 747 490 
Q 353 981 353 1791 
Q 353 2603 747 3093 
Q 1141 3584 1784 3584 
Q 2172 3584 2450 3431 
Q 2728 3278 2906 2969 
L 2906 3500 
L 3481 3500 
L 3481 434 
z
" transform="scale(0.015625)"/>
    </defs>
    <use xlink:href="#DejaVuSans-48"/>
    <use xlink:href="#DejaVuSans-69" x="75.195312"/>
    <use xlink:href="#DejaVuSans-73" x="102.978516"/>
    <use xlink:href="#DejaVuSans-74" x="155.078125"/>
    <use xlink:href="#DejaVuSans-20" x="194.287109"/>
    <use xlink:href="#DejaVuSans-6f" x="226.074219"/>
    <use xlink:href="#DejaVuSans-66" x="287.255859"/>
    <use xlink:href="#DejaVuSans-20" x="322.460938"/>
    <use xlink:href="#DejaVuSans-74" x="354.248047"/>
    <use xlink:href="#DejaVuSans-69" x="393.457031"/>
    <use xlink:href="#DejaVuSans-6d" x="421.240234"/>
    <use xlink:href="#DejaVuSans-65" x="518.652344"/>
    <use xlink:href="#DejaVuSans-73" x="580.175781"/>
    <use xlink:href="#DejaVuSans-20" x="632.275391"/>
    <use xlink:href="#DejaVuSans-66" x="664.0625"/>
    <use xlink:href="#DejaVuSans-6f" x="699.267578"/>
    <use xlink:href="#DejaVuSans-72" x="760.449219"/>
    <use xlink:href="#DejaVuSans-20" x="801.5625"/>
    <use xlink:href="#DejaVuSans-31" x="833.349609"/>
    <use xlink:href="#DejaVuSans-30" x="896.972656"/>
    <use xlink:href="#DejaVuSans-6b" x="960.595703"/>
    <use xlink:href="#DejaVuSans-20" x="1018.505859"/>
    <use xlink:href="#DejaVuSans-35" x="1050.292969"/>
    <use xlink:href="#DejaVuSans-47" x="1113.916016"/>
    <use xlink:href="#DejaVuSans-65" x="1191.40625"/>
    <use xlink:href="#DejaVuSans-56" x="1252.929688"/>
    <use xlink:href="#DejaVuSans-20" x="1321.337891"/>
    <use xlink:href="#DejaVuSans-6d" x="1353.125"/>
    <use xlink:href="#DejaVuSans-75" x="1450.537109"/>
    <use xlink:href="#DejaVuSans-2d" x="1513.916016"/>
    <use xlink:href="#DejaVuSans-20" x="1550"/>
    <use xlink:href="#DejaVuSans-65" x="1581.787109"/>
    <use xlink:href="#DejaVuSans-76" x="1643.310547"/>
    <use xlink:href="#DejaVuSans-65" x="1702.490234"/>
    <use xlink:href="#DejaVuSans-6e" x="1764.013672"/>
    <use xlink:href="#DejaVuSans-74" x="1827.392578"/>
    <use xlink:href="#DejaVuSans-73" x="1866.601562"/>
    <use xlink:href="#DejaVuSans-3b" x="1918.701172"/>
    <use xlink:href="#DejaVuSans-20" x="1952.392578"/>
    <use xlink:href="#DejaVuSans-6f" x="1984.179688"/>
    <use xlink:href="#DejaVuSans-6e" x="2045.361328"/>
    <use xlink:href="#DejaVuSans-65" x="2108.740234"/>
    <use xlink:href="#DejaVuSans-20" x="2170.263672"/>
    <use xlink:href="#DejaVuSans-73" x="2202.050781"/>
    <use xlink:href="#DejaVuSans-65" x="2254.150391"/>
    <use xlink:href="#DejaVuSans-67" x="2315.673828"/>
    <use xlink:href="#DejaVuSans-6d" x="2379.150391"/>
    <use xlink:href="#DejaVuSans-65" x="2476.5625"/>
    <use xlink:href="#DejaVuSans-6e" x="2538.085938"/>
    <use xlink:href="#DejaVuSans-74" x="2601.464844"/>
   </g>
  </g>
 </g>
 <defs>
  <clipPath id="p47e1b864ba">
   <rect x="54" y="34.56" width="334.8" height="217.44"/>
  </clipPath>
 </defs>
</svg>
