<?xml version="1.0" encoding="utf-8" standalone="no"?>
<!DOCTYPE svg PUBLIC "-//W3C//DTD SVG 1.1//EN"
  "http://www.w3.org/Graphics/SVG/1.1/DTD/svg11.dtd">
<svg xmlns:xlink="http://www.w3.org/1999/xlink" width="432pt" height="288pt" viewBox="0 0 432 288" xmlns="http://www.w3.org/2000/svg" version="1.1">
 <metadata>
  <rdf:RDF xmlns:dc="http://purl.org/dc/elements/1.1/" xmlns:cc="http://creativecommons.org/ns#" xmlns:rdf="http://www.w3.org/1999/02/22-rdf-syntax-ns#">
   <cc:Work>
    <dc:type rdf:resource="http://purl.org/dc/dcmitype/StillImage"/>
    <dc:date>2024-06-05T11:09:11.093965</dc:date>
    <dc:format>image/svg+xml</dc:format>
    <dc:creator>
     <cc:Agent>
      <dc:title>Matplotlib v3.7.4, https://matplotlib.org/</dc:title>
     </cc:Agent>
    </dc:creator>
   </cc:Work>
  </rdf:RDF>
 </metadata>
 <defs>
  <style type="text/css">*{stroke-linejoin: round; stroke-linecap: butt}</style>
 </defs>
 <g id="figure_1">
  <g id="patch_1">
   <path d="M 0 288 
L 432 288 
L 432 0 
L 0 0 
L 0 288 
z
" style="fill: none"/>
  </g>
  <g id="axes_1">
   <g id="patch_2">
    <path d="M 54 252 
L 388.8 252 
L 388.8 34.56 
L 54 34.56 
z
" style="fill: #ffffff"/>
   </g>
   <g id="patch_3">
    <path d="M 69.218182 252 
L 72.261801 252 
L 72.261801 250.816637 
L 69.218182 250.816637 
z
" clip-path="url(#p0048c24e4c)" style="fill: #0000ff; opacity: 0.75"/>
   </g>
   <g id="patch_4">
    <path d="M 72.261801 252 
L 75.305461 252 
L 75.305461 252 
L 72.261801 252 
z
" clip-path="url(#p0048c24e4c)" style="fill: #0000ff; opacity: 0.75"/>
   </g>
   <g id="patch_5">
    <path d="M 75.305461 252 
L 78.34908 252 
L 78.34908 252 
L 75.305461 252 
z
" clip-path="url(#p0048c24e4c)" style="fill: #0000ff; opacity: 0.75"/>
   </g>
   <g id="patch_6">
    <path d="M 78.34908 252 
L 81.39274 252 
L 81.39274 252 
L 78.34908 252 
z
" clip-path="url(#p0048c24e4c)" style="fill: #0000ff; opacity: 0.75"/>
   </g>
   <g id="patch_7">
    <path d="M 81.39274 252 
L 84.43636 252 
L 84.43636 252 
L 81.39274 252 
z
" clip-path="url(#p0048c24e4c)" style="fill: #0000ff; opacity: 0.75"/>
   </g>
   <g id="patch_8">
    <path d="M 84.43636 252 
L 87.480019 252 
L 87.480019 252 
L 84.43636 252 
z
" clip-path="url(#p0048c24e4c)" style="fill: #0000ff; opacity: 0.75"/>
   </g>
   <g id="patch_9">
    <path d="M 87.480019 252 
L 90.523639 252 
L 90.523639 252 
L 87.480019 252 
z
" clip-path="url(#p0048c24e4c)" style="fill: #0000ff; opacity: 0.75"/>
   </g>
   <g id="patch_10">
    <path d="M 90.523639 252 
L 93.567299 252 
L 93.567299 252 
L 90.523639 252 
z
" clip-path="url(#p0048c24e4c)" style="fill: #0000ff; opacity: 0.75"/>
   </g>
   <g id="patch_11">
    <path d="M 93.567299 252 
L 96.610877 252 
L 96.610877 252 
L 93.567299 252 
z
" clip-path="url(#p0048c24e4c)" style="fill: #0000ff; opacity: 0.75"/>
   </g>
   <g id="patch_12">
    <path d="M 96.610877 252 
L 99.654537 252 
L 99.654537 252 
L 96.610877 252 
z
" clip-path="url(#p0048c24e4c)" style="fill: #0000ff; opacity: 0.75"/>
   </g>
   <g id="patch_13">
    <path d="M 99.654537 252 
L 102.698197 252 
L 102.698197 252 
L 99.654537 252 
z
" clip-path="url(#p0048c24e4c)" style="fill: #0000ff; opacity: 0.75"/>
   </g>
   <g id="patch_14">
    <path d="M 102.698197 252 
L 105.741857 252 
L 105.741857 252 
L 102.698197 252 
z
" clip-path="url(#p0048c24e4c)" style="fill: #0000ff; opacity: 0.75"/>
   </g>
   <g id="patch_15">
    <path d="M 105.741857 252 
L 108.785436 252 
L 108.785436 252 
L 105.741857 252 
z
" clip-path="url(#p0048c24e4c)" style="fill: #0000ff; opacity: 0.75"/>
   </g>
   <g id="patch_16">
    <path d="M 108.785436 252 
L 111.829096 252 
L 111.829096 252 
L 108.785436 252 
z
" clip-path="url(#p0048c24e4c)" style="fill: #0000ff; opacity: 0.75"/>
   </g>
   <g id="patch_17">
    <path d="M 111.829096 252 
L 114.872756 252 
L 114.872756 252 
L 111.829096 252 
z
" clip-path="url(#p0048c24e4c)" style="fill: #0000ff; opacity: 0.75"/>
   </g>
   <g id="patch_18">
    <path d="M 114.872756 252 
L 117.916334 252 
L 117.916334 252 
L 114.872756 252 
z
" clip-path="url(#p0048c24e4c)" style="fill: #0000ff; opacity: 0.75"/>
   </g>
   <g id="patch_19">
    <path d="M 117.916334 252 
L 120.959994 252 
L 120.959994 252 
L 117.916334 252 
z
" clip-path="url(#p0048c24e4c)" style="fill: #0000ff; opacity: 0.75"/>
   </g>
   <g id="patch_20">
    <path d="M 120.959994 252 
L 124.003654 252 
L 124.003654 252 
L 120.959994 252 
z
" clip-path="url(#p0048c24e4c)" style="fill: #0000ff; opacity: 0.75"/>
   </g>
   <g id="patch_21">
    <path d="M 124.003654 252 
L 127.047233 252 
L 127.047233 252 
L 124.003654 252 
z
" clip-path="url(#p0048c24e4c)" style="fill: #0000ff; opacity: 0.75"/>
   </g>
   <g id="patch_22">
    <path d="M 127.047233 252 
L 130.090893 252 
L 130.090893 252 
L 127.047233 252 
z
" clip-path="url(#p0048c24e4c)" style="fill: #0000ff; opacity: 0.75"/>
   </g>
   <g id="patch_23">
    <path d="M 130.090893 252 
L 133.134553 252 
L 133.134553 252 
L 130.090893 252 
z
" clip-path="url(#p0048c24e4c)" style="fill: #0000ff; opacity: 0.75"/>
   </g>
   <g id="patch_24">
    <path d="M 133.134553 252 
L 136.178213 252 
L 136.178213 252 
L 133.134553 252 
z
" clip-path="url(#p0048c24e4c)" style="fill: #0000ff; opacity: 0.75"/>
   </g>
   <g id="patch_25">
    <path d="M 136.178213 252 
L 139.221791 252 
L 139.221791 252 
L 136.178213 252 
z
" clip-path="url(#p0048c24e4c)" style="fill: #0000ff; opacity: 0.75"/>
   </g>
   <g id="patch_26">
    <path d="M 139.221791 252 
L 142.265451 252 
L 142.265451 252 
L 139.221791 252 
z
" clip-path="url(#p0048c24e4c)" style="fill: #0000ff; opacity: 0.75"/>
   </g>
   <g id="patch_27">
    <path d="M 142.265451 252 
L 145.309111 252 
L 145.309111 252 
L 142.265451 252 
z
" clip-path="url(#p0048c24e4c)" style="fill: #0000ff; opacity: 0.75"/>
   </g>
   <g id="patch_28">
    <path d="M 145.309111 252 
L 148.35269 252 
L 148.35269 252 
L 145.309111 252 
z
" clip-path="url(#p0048c24e4c)" style="fill: #0000ff; opacity: 0.75"/>
   </g>
   <g id="patch_29">
    <path d="M 148.35269 252 
L 151.39635 252 
L 151.39635 252 
L 148.35269 252 
z
" clip-path="url(#p0048c24e4c)" style="fill: #0000ff; opacity: 0.75"/>
   </g>
   <g id="patch_30">
    <path d="M 151.39635 252 
L 154.44001 252 
L 154.44001 252 
L 151.39635 252 
z
" clip-path="url(#p0048c24e4c)" style="fill: #0000ff; opacity: 0.75"/>
   </g>
   <g id="patch_31">
    <path d="M 154.44001 252 
L 157.48367 252 
L 157.48367 252 
L 154.44001 252 
z
" clip-path="url(#p0048c24e4c)" style="fill: #0000ff; opacity: 0.75"/>
   </g>
   <g id="patch_32">
    <path d="M 157.48367 252 
L 160.527248 252 
L 160.527248 250.816622 
L 157.48367 250.816622 
z
" clip-path="url(#p0048c24e4c)" style="fill: #0000ff; opacity: 0.75"/>
   </g>
   <g id="patch_33">
    <path d="M 160.527248 252 
L 163.570908 252 
L 163.570908 252 
L 160.527248 252 
z
" clip-path="url(#p0048c24e4c)" style="fill: #0000ff; opacity: 0.75"/>
   </g>
   <g id="patch_34">
    <path d="M 163.570908 252 
L 166.614568 252 
L 166.614568 252 
L 163.570908 252 
z
" clip-path="url(#p0048c24e4c)" style="fill: #0000ff; opacity: 0.75"/>
   </g>
   <g id="patch_35">
    <path d="M 166.614568 252 
L 169.658147 252 
L 169.658147 252 
L 166.614568 252 
z
" clip-path="url(#p0048c24e4c)" style="fill: #0000ff; opacity: 0.75"/>
   </g>
   <g id="patch_36">
    <path d="M 169.658147 252 
L 172.701807 252 
L 172.701807 252 
L 169.658147 252 
z
" clip-path="url(#p0048c24e4c)" style="fill: #0000ff; opacity: 0.75"/>
   </g>
   <g id="patch_37">
    <path d="M 172.701807 252 
L 175.745467 252 
L 175.745467 252 
L 172.701807 252 
z
" clip-path="url(#p0048c24e4c)" style="fill: #0000ff; opacity: 0.75"/>
   </g>
   <g id="patch_38">
    <path d="M 175.745467 252 
L 178.789127 252 
L 178.789127 252 
L 175.745467 252 
z
" clip-path="url(#p0048c24e4c)" style="fill: #0000ff; opacity: 0.75"/>
   </g>
   <g id="patch_39">
    <path d="M 178.789127 252 
L 181.832705 252 
L 181.832705 252 
L 178.789127 252 
z
" clip-path="url(#p0048c24e4c)" style="fill: #0000ff; opacity: 0.75"/>
   </g>
   <g id="patch_40">
    <path d="M 181.832705 252 
L 184.876365 252 
L 184.876365 252 
L 181.832705 252 
z
" clip-path="url(#p0048c24e4c)" style="fill: #0000ff; opacity: 0.75"/>
   </g>
   <g id="patch_41">
    <path d="M 184.876365 252 
L 187.920025 252 
L 187.920025 252 
L 184.876365 252 
z
" clip-path="url(#p0048c24e4c)" style="fill: #0000ff; opacity: 0.75"/>
   </g>
   <g id="patch_42">
    <path d="M 187.920025 252 
L 190.963604 252 
L 190.963604 252 
L 187.920025 252 
z
" clip-path="url(#p0048c24e4c)" style="fill: #0000ff; opacity: 0.75"/>
   </g>
   <g id="patch_43">
    <path d="M 190.963604 252 
L 194.007264 252 
L 194.007264 252 
L 190.963604 252 
z
" clip-path="url(#p0048c24e4c)" style="fill: #0000ff; opacity: 0.75"/>
   </g>
   <g id="patch_44">
    <path d="M 194.007264 252 
L 197.050924 252 
L 197.050924 252 
L 194.007264 252 
z
" clip-path="url(#p0048c24e4c)" style="fill: #0000ff; opacity: 0.75"/>
   </g>
   <g id="patch_45">
    <path d="M 197.050924 252 
L 200.094584 252 
L 200.094584 252 
L 197.050924 252 
z
" clip-path="url(#p0048c24e4c)" style="fill: #0000ff; opacity: 0.75"/>
   </g>
   <g id="patch_46">
    <path d="M 200.094584 252 
L 203.138162 252 
L 203.138162 252 
L 200.094584 252 
z
" clip-path="url(#p0048c24e4c)" style="fill: #0000ff; opacity: 0.75"/>
   </g>
   <g id="patch_47">
    <path d="M 203.138162 252 
L 206.181822 252 
L 206.181822 252 
L 203.138162 252 
z
" clip-path="url(#p0048c24e4c)" style="fill: #0000ff; opacity: 0.75"/>
   </g>
   <g id="patch_48">
    <path d="M 206.181822 252 
L 209.225482 252 
L 209.225482 252 
L 206.181822 252 
z
" clip-path="url(#p0048c24e4c)" style="fill: #0000ff; opacity: 0.75"/>
   </g>
   <g id="patch_49">
    <path d="M 209.225482 252 
L 212.269061 252 
L 212.269061 252 
L 209.225482 252 
z
" clip-path="url(#p0048c24e4c)" style="fill: #0000ff; opacity: 0.75"/>
   </g>
   <g id="patch_50">
    <path d="M 212.269061 252 
L 215.312721 252 
L 215.312721 252 
L 212.269061 252 
z
" clip-path="url(#p0048c24e4c)" style="fill: #0000ff; opacity: 0.75"/>
   </g>
   <g id="patch_51">
    <path d="M 215.312721 252 
L 218.356381 252 
L 218.356381 252 
L 215.312721 252 
z
" clip-path="url(#p0048c24e4c)" style="fill: #0000ff; opacity: 0.75"/>
   </g>
   <g id="patch_52">
    <path d="M 218.356381 252 
L 221.399959 252 
L 221.399959 252 
L 218.356381 252 
z
" clip-path="url(#p0048c24e4c)" style="fill: #0000ff; opacity: 0.75"/>
   </g>
   <g id="patch_53">
    <path d="M 221.399959 252 
L 224.443619 252 
L 224.443619 252 
L 221.399959 252 
z
" clip-path="url(#p0048c24e4c)" style="fill: #0000ff; opacity: 0.75"/>
   </g>
   <g id="patch_54">
    <path d="M 224.443619 252 
L 227.487279 252 
L 227.487279 252 
L 224.443619 252 
z
" clip-path="url(#p0048c24e4c)" style="fill: #0000ff; opacity: 0.75"/>
   </g>
   <g id="patch_55">
    <path d="M 227.487279 252 
L 230.530939 252 
L 230.530939 252 
L 227.487279 252 
z
" clip-path="url(#p0048c24e4c)" style="fill: #0000ff; opacity: 0.75"/>
   </g>
   <g id="patch_56">
    <path d="M 230.530939 252 
L 233.574518 252 
L 233.574518 252 
L 230.530939 252 
z
" clip-path="url(#p0048c24e4c)" style="fill: #0000ff; opacity: 0.75"/>
   </g>
   <g id="patch_57">
    <path d="M 233.574518 252 
L 236.618178 252 
L 236.618178 252 
L 233.574518 252 
z
" clip-path="url(#p0048c24e4c)" style="fill: #0000ff; opacity: 0.75"/>
   </g>
   <g id="patch_58">
    <path d="M 236.618178 252 
L 239.661838 252 
L 239.661838 252 
L 236.618178 252 
z
" clip-path="url(#p0048c24e4c)" style="fill: #0000ff; opacity: 0.75"/>
   </g>
   <g id="patch_59">
    <path d="M 239.661838 252 
L 242.705416 252 
L 242.705416 252 
L 239.661838 252 
z
" clip-path="url(#p0048c24e4c)" style="fill: #0000ff; opacity: 0.75"/>
   </g>
   <g id="patch_60">
    <path d="M 242.705416 252 
L 245.749076 252 
L 245.749076 252 
L 242.705416 252 
z
" clip-path="url(#p0048c24e4c)" style="fill: #0000ff; opacity: 0.75"/>
   </g>
   <g id="patch_61">
    <path d="M 245.749076 252 
L 248.792736 252 
L 248.792736 252 
L 245.749076 252 
z
" clip-path="url(#p0048c24e4c)" style="fill: #0000ff; opacity: 0.75"/>
   </g>
   <g id="patch_62">
    <path d="M 248.792736 252 
L 251.836396 252 
L 251.836396 252 
L 248.792736 252 
z
" clip-path="url(#p0048c24e4c)" style="fill: #0000ff; opacity: 0.75"/>
   </g>
   <g id="patch_63">
    <path d="M 251.836396 252 
L 254.879975 252 
L 254.879975 252 
L 251.836396 252 
z
" clip-path="url(#p0048c24e4c)" style="fill: #0000ff; opacity: 0.75"/>
   </g>
   <g id="patch_64">
    <path d="M 254.879975 252 
L 257.923635 252 
L 257.923635 236.61649 
L 254.879975 236.61649 
z
" clip-path="url(#p0048c24e4c)" style="fill: #0000ff; opacity: 0.75"/>
   </g>
   <g id="patch_65">
    <path d="M 257.923635 252 
L 260.967295 252 
L 260.967295 241.349878 
L 257.923635 241.349878 
z
" clip-path="url(#p0048c24e4c)" style="fill: #0000ff; opacity: 0.75"/>
   </g>
   <g id="patch_66">
    <path d="M 260.967295 252 
L 264.010873 252 
L 264.010873 244.899729 
L 260.967295 244.899729 
z
" clip-path="url(#p0048c24e4c)" style="fill: #0000ff; opacity: 0.75"/>
   </g>
   <g id="patch_67">
    <path d="M 264.010873 252 
L 267.054533 252 
L 267.054533 246.083265 
L 264.010873 246.083265 
z
" clip-path="url(#p0048c24e4c)" style="fill: #0000ff; opacity: 0.75"/>
   </g>
   <g id="patch_68">
    <path d="M 267.054533 252 
L 270.098193 252 
L 270.098193 244.899918 
L 267.054533 244.899918 
z
" clip-path="url(#p0048c24e4c)" style="fill: #0000ff; opacity: 0.75"/>
   </g>
   <g id="patch_69">
    <path d="M 270.098193 252 
L 273.141853 252 
L 273.141853 244.899918 
L 270.098193 244.899918 
z
" clip-path="url(#p0048c24e4c)" style="fill: #0000ff; opacity: 0.75"/>
   </g>
   <g id="patch_70">
    <path d="M 273.141853 252 
L 276.185432 252 
L 276.185432 246.083108 
L 273.141853 246.083108 
z
" clip-path="url(#p0048c24e4c)" style="fill: #0000ff; opacity: 0.75"/>
   </g>
   <g id="patch_71">
    <path d="M 276.185432 252 
L 279.229092 252 
L 279.229092 240.166531 
L 276.185432 240.166531 
z
" clip-path="url(#p0048c24e4c)" style="fill: #0000ff; opacity: 0.75"/>
   </g>
   <g id="patch_72">
    <path d="M 279.229092 252 
L 282.272752 252 
L 282.272752 210.582857 
L 279.229092 210.582857 
z
" clip-path="url(#p0048c24e4c)" style="fill: #0000ff; opacity: 0.75"/>
   </g>
   <g id="patch_73">
    <path d="M 282.272752 252 
L 285.31633 252 
L 285.31633 178.630534 
L 282.272752 178.630534 
z
" clip-path="url(#p0048c24e4c)" style="fill: #0000ff; opacity: 0.75"/>
   </g>
   <g id="patch_74">
    <path d="M 285.31633 252 
L 288.35999 252 
L 288.35999 136.032 
L 285.31633 136.032 
z
" clip-path="url(#p0048c24e4c)" style="fill: #0000ff; opacity: 0.75"/>
   </g>
   <g id="patch_75">
    <path d="M 288.35999 252 
L 291.40365 252 
L 291.40365 83.964735 
L 288.35999 83.964735 
z
" clip-path="url(#p0048c24e4c)" style="fill: #0000ff; opacity: 0.75"/>
   </g>
   <g id="patch_76">
    <path d="M 291.40365 252 
L 294.44731 252 
L 294.44731 44.914286 
L 291.40365 44.914286 
z
" clip-path="url(#p0048c24e4c)" style="fill: #0000ff; opacity: 0.75"/>
   </g>
   <g id="patch_77">
    <path d="M 294.44731 252 
L 297.490889 252 
L 297.490889 57.925928 
L 294.44731 57.925928 
z
" clip-path="url(#p0048c24e4c)" style="fill: #0000ff; opacity: 0.75"/>
   </g>
   <g id="patch_78">
    <path d="M 297.490889 252 
L 300.534549 252 
L 300.534549 107.631673 
L 297.490889 107.631673 
z
" clip-path="url(#p0048c24e4c)" style="fill: #0000ff; opacity: 0.75"/>
   </g>
   <g id="patch_79">
    <path d="M 300.534549 252 
L 303.578209 252 
L 303.578209 131.298612 
L 300.534549 131.298612 
z
" clip-path="url(#p0048c24e4c)" style="fill: #0000ff; opacity: 0.75"/>
   </g>
   <g id="patch_80">
    <path d="M 303.578209 252 
L 306.621787 252 
L 306.621787 141.945801 
L 303.578209 141.945801 
z
" clip-path="url(#p0048c24e4c)" style="fill: #0000ff; opacity: 0.75"/>
   </g>
   <g id="patch_81">
    <path d="M 306.621787 252 
L 309.665447 252 
L 309.665447 171.532408 
L 306.621787 171.532408 
z
" clip-path="url(#p0048c24e4c)" style="fill: #0000ff; opacity: 0.75"/>
   </g>
   <g id="patch_82">
    <path d="M 309.665447 252 
L 312.709107 252 
L 312.709107 184.549224 
L 309.665447 184.549224 
z
" clip-path="url(#p0048c24e4c)" style="fill: #0000ff; opacity: 0.75"/>
   </g>
   <g id="patch_83">
    <path d="M 312.709107 252 
L 315.752767 252 
L 315.752767 205.849469 
L 312.709107 205.849469 
z
" clip-path="url(#p0048c24e4c)" style="fill: #0000ff; opacity: 0.75"/>
   </g>
   <g id="patch_84">
    <path d="M 315.752767 252 
L 318.796346 252 
L 318.796346 225.965673 
L 315.752767 225.965673 
z
" clip-path="url(#p0048c24e4c)" style="fill: #0000ff; opacity: 0.75"/>
   </g>
   <g id="patch_85">
    <path d="M 318.796346 252 
L 321.840006 252 
L 321.840006 235.433143 
L 318.796346 235.433143 
z
" clip-path="url(#p0048c24e4c)" style="fill: #0000ff; opacity: 0.75"/>
   </g>
   <g id="patch_86">
    <path d="M 321.840006 252 
L 324.883666 252 
L 324.883666 240.166531 
L 321.840006 240.166531 
z
" clip-path="url(#p0048c24e4c)" style="fill: #0000ff; opacity: 0.75"/>
   </g>
   <g id="patch_87">
    <path d="M 324.883666 252 
L 327.927244 252 
L 327.927244 241.349594 
L 324.883666 241.349594 
z
" clip-path="url(#p0048c24e4c)" style="fill: #0000ff; opacity: 0.75"/>
   </g>
   <g id="patch_88">
    <path d="M 327.927244 252 
L 330.970904 252 
L 330.970904 247.266612 
L 327.927244 247.266612 
z
" clip-path="url(#p0048c24e4c)" style="fill: #0000ff; opacity: 0.75"/>
   </g>
   <g id="patch_89">
    <path d="M 330.970904 252 
L 334.014564 252 
L 334.014564 248.449959 
L 330.970904 248.449959 
z
" clip-path="url(#p0048c24e4c)" style="fill: #0000ff; opacity: 0.75"/>
   </g>
   <g id="patch_90">
    <path d="M 334.014564 252 
L 337.058143 252 
L 337.058143 248.449865 
L 334.014564 248.449865 
z
" clip-path="url(#p0048c24e4c)" style="fill: #0000ff; opacity: 0.75"/>
   </g>
   <g id="patch_91">
    <path d="M 337.058143 252 
L 340.101803 252 
L 340.101803 249.633306 
L 337.058143 249.633306 
z
" clip-path="url(#p0048c24e4c)" style="fill: #0000ff; opacity: 0.75"/>
   </g>
   <g id="patch_92">
    <path d="M 340.101803 252 
L 343.145463 252 
L 343.145463 248.449959 
L 340.101803 248.449959 
z
" clip-path="url(#p0048c24e4c)" style="fill: #0000ff; opacity: 0.75"/>
   </g>
   <g id="patch_93">
    <path d="M 343.145463 252 
L 346.189123 252 
L 346.189123 250.816653 
L 343.145463 250.816653 
z
" clip-path="url(#p0048c24e4c)" style="fill: #0000ff; opacity: 0.75"/>
   </g>
   <g id="patch_94">
    <path d="M 346.189123 252 
L 349.232701 252 
L 349.232701 252 
L 346.189123 252 
z
" clip-path="url(#p0048c24e4c)" style="fill: #0000ff; opacity: 0.75"/>
   </g>
   <g id="patch_95">
    <path d="M 349.232701 252 
L 352.276361 252 
L 352.276361 252 
L 349.232701 252 
z
" clip-path="url(#p0048c24e4c)" style="fill: #0000ff; opacity: 0.75"/>
   </g>
   <g id="patch_96">
    <path d="M 352.276361 252 
L 355.320021 252 
L 355.320021 252 
L 352.276361 252 
z
" clip-path="url(#p0048c24e4c)" style="fill: #0000ff; opacity: 0.75"/>
   </g>
   <g id="patch_97">
    <path d="M 355.320021 252 
L 358.3636 252 
L 358.3636 252 
L 355.320021 252 
z
" clip-path="url(#p0048c24e4c)" style="fill: #0000ff; opacity: 0.75"/>
   </g>
   <g id="patch_98">
    <path d="M 358.3636 252 
L 361.40726 252 
L 361.40726 250.816653 
L 358.3636 250.816653 
z
" clip-path="url(#p0048c24e4c)" style="fill: #0000ff; opacity: 0.75"/>
   </g>
   <g id="patch_99">
    <path d="M 361.40726 252 
L 364.45092 252 
L 364.45092 252 
L 361.40726 252 
z
" clip-path="url(#p0048c24e4c)" style="fill: #0000ff; opacity: 0.75"/>
   </g>
   <g id="patch_100">
    <path d="M 364.45092 252 
L 367.49458 252 
L 367.49458 252 
L 364.45092 252 
z
" clip-path="url(#p0048c24e4c)" style="fill: #0000ff; opacity: 0.75"/>
   </g>
   <g id="patch_101">
    <path d="M 367.49458 252 
L 370.538158 252 
L 370.538158 252 
L 367.49458 252 
z
" clip-path="url(#p0048c24e4c)" style="fill: #0000ff; opacity: 0.75"/>
   </g>
   <g id="patch_102">
    <path d="M 370.538158 252 
L 373.581818 252 
L 373.581818 249.633306 
L 370.538158 249.633306 
z
" clip-path="url(#p0048c24e4c)" style="fill: #0000ff; opacity: 0.75"/>
   </g>
   <g id="matplotlib.axis_1">
    <g id="xtick_1">
     <g id="line2d_1">
      <path d="M 89.482605 252 
L 89.482605 34.56 
" clip-path="url(#p0048c24e4c)" style="fill: none; stroke: #b0b0b0; stroke-width: 0.8; stroke-linecap: square"/>
     </g>
     <g id="line2d_2">
      <defs>
       <path id="m70ece6a878" d="M 0 0 
L 0 3.5 
" style="stroke: #000000; stroke-width: 0.8"/>
      </defs>
      <g>
       <use xlink:href="#m70ece6a878" x="89.482605" y="252" style="stroke: #000000; stroke-width: 0.8"/>
      </g>
     </g>
     <g id="text_1">
      <!-- 8.0 -->
      <g transform="translate(81.531042 266.598437) scale(0.1 -0.1)">
       <defs>
        <path id="DejaVuSans-38" d="M 2034 2216 
Q 1584 2216 1326 1975 
Q 1069 1734 1069 1313 
Q 1069 891 1326 650 
Q 1584 409 2034 409 
Q 2484 409 2743 651 
Q 3003 894 3003 1313 
Q 3003 1734 2745 1975 
Q 2488 2216 2034 2216 
z
M 1403 2484 
Q 997 2584 770 2862 
Q 544 3141 544 3541 
Q 544 4100 942 4425 
Q 1341 4750 2034 4750 
Q 2731 4750 3128 4425 
Q 3525 4100 3525 3541 
Q 3525 3141 3298 2862 
Q 3072 2584 2669 2484 
Q 3125 2378 3379 2068 
Q 3634 1759 3634 1313 
Q 3634 634 3220 271 
Q 2806 -91 2034 -91 
Q 1263 -91 848 271 
Q 434 634 434 1313 
Q 434 1759 690 2068 
Q 947 2378 1403 2484 
z
M 1172 3481 
Q 1172 3119 1398 2916 
Q 1625 2713 2034 2713 
Q 2441 2713 2670 2916 
Q 2900 3119 2900 3481 
Q 2900 3844 2670 4047 
Q 2441 4250 2034 4250 
Q 1625 4250 1398 4047 
Q 1172 3844 1172 3481 
z
" transform="scale(0.015625)"/>
        <path id="DejaVuSans-2e" d="M 684 794 
L 1344 794 
L 1344 0 
L 684 0 
L 684 794 
z
" transform="scale(0.015625)"/>
        <path id="DejaVuSans-30" d="M 2034 4250 
Q 1547 4250 1301 3770 
Q 1056 3291 1056 2328 
Q 1056 1369 1301 889 
Q 1547 409 2034 409 
Q 2525 409 2770 889 
Q 3016 1369 3016 2328 
Q 3016 3291 2770 3770 
Q 2525 4250 2034 4250 
z
M 2034 4750 
Q 2819 4750 3233 4129 
Q 3647 3509 3647 2328 
Q 3647 1150 3233 529 
Q 2819 -91 2034 -91 
Q 1250 -91 836 529 
Q 422 1150 422 2328 
Q 422 3509 836 4129 
Q 1250 4750 2034 4750 
z
" transform="scale(0.015625)"/>
       </defs>
       <use xlink:href="#DejaVuSans-38"/>
       <use xlink:href="#DejaVuSans-2e" x="63.623047"/>
       <use xlink:href="#DejaVuSans-30" x="95.410156"/>
      </g>
     </g>
    </g>
    <g id="xtick_2">
     <g id="line2d_3">
      <path d="M 132.026978 252 
L 132.026978 34.56 
" clip-path="url(#p0048c24e4c)" style="fill: none; stroke: #b0b0b0; stroke-width: 0.8; stroke-linecap: square"/>
     </g>
     <g id="line2d_4">
      <g>
       <use xlink:href="#m70ece6a878" x="132.026978" y="252" style="stroke: #000000; stroke-width: 0.8"/>
      </g>
     </g>
     <g id="text_2">
      <!-- 8.5 -->
      <g transform="translate(124.075416 266.598437) scale(0.1 -0.1)">
       <defs>
        <path id="DejaVuSans-35" d="M 691 4666 
L 3169 4666 
L 3169 4134 
L 1269 4134 
L 1269 2991 
Q 1406 3038 1543 3061 
Q 1681 3084 1819 3084 
Q 2600 3084 3056 2656 
Q 3513 2228 3513 1497 
Q 3513 744 3044 326 
Q 2575 -91 1722 -91 
Q 1428 -91 1123 -41 
Q 819 9 494 109 
L 494 744 
Q 775 591 1075 516 
Q 1375 441 1709 441 
Q 2250 441 2565 725 
Q 2881 1009 2881 1497 
Q 2881 1984 2565 2268 
Q 2250 2553 1709 2553 
Q 1456 2553 1204 2497 
Q 953 2441 691 2322 
L 691 4666 
z
" transform="scale(0.015625)"/>
       </defs>
       <use xlink:href="#DejaVuSans-38"/>
       <use xlink:href="#DejaVuSans-2e" x="63.623047"/>
       <use xlink:href="#DejaVuSans-35" x="95.410156"/>
      </g>
     </g>
    </g>
    <g id="xtick_3">
     <g id="line2d_5">
      <path d="M 174.571351 252 
L 174.571351 34.56 
" clip-path="url(#p0048c24e4c)" style="fill: none; stroke: #b0b0b0; stroke-width: 0.8; stroke-linecap: square"/>
     </g>
     <g id="line2d_6">
      <g>
       <use xlink:href="#m70ece6a878" x="174.571351" y="252" style="stroke: #000000; stroke-width: 0.8"/>
      </g>
     </g>
     <g id="text_3">
      <!-- 9.0 -->
      <g transform="translate(166.619789 266.598437) scale(0.1 -0.1)">
       <defs>
        <path id="DejaVuSans-39" d="M 703 97 
L 703 672 
Q 941 559 1184 500 
Q 1428 441 1663 441 
Q 2288 441 2617 861 
Q 2947 1281 2994 2138 
Q 2813 1869 2534 1725 
Q 2256 1581 1919 1581 
Q 1219 1581 811 2004 
Q 403 2428 403 3163 
Q 403 3881 828 4315 
Q 1253 4750 1959 4750 
Q 2769 4750 3195 4129 
Q 3622 3509 3622 2328 
Q 3622 1225 3098 567 
Q 2575 -91 1691 -91 
Q 1453 -91 1209 -44 
Q 966 3 703 97 
z
M 1959 2075 
Q 2384 2075 2632 2365 
Q 2881 2656 2881 3163 
Q 2881 3666 2632 3958 
Q 2384 4250 1959 4250 
Q 1534 4250 1286 3958 
Q 1038 3666 1038 3163 
Q 1038 2656 1286 2365 
Q 1534 2075 1959 2075 
z
" transform="scale(0.015625)"/>
       </defs>
       <use xlink:href="#DejaVuSans-39"/>
       <use xlink:href="#DejaVuSans-2e" x="63.623047"/>
       <use xlink:href="#DejaVuSans-30" x="95.410156"/>
      </g>
     </g>
    </g>
    <g id="xtick_4">
     <g id="line2d_7">
      <path d="M 217.115725 252 
L 217.115725 34.56 
" clip-path="url(#p0048c24e4c)" style="fill: none; stroke: #b0b0b0; stroke-width: 0.8; stroke-linecap: square"/>
     </g>
     <g id="line2d_8">
      <g>
       <use xlink:href="#m70ece6a878" x="217.115725" y="252" style="stroke: #000000; stroke-width: 0.8"/>
      </g>
     </g>
     <g id="text_4">
      <!-- 9.5 -->
      <g transform="translate(209.164162 266.598437) scale(0.1 -0.1)">
       <use xlink:href="#DejaVuSans-39"/>
       <use xlink:href="#DejaVuSans-2e" x="63.623047"/>
       <use xlink:href="#DejaVuSans-35" x="95.410156"/>
      </g>
     </g>
    </g>
    <g id="xtick_5">
     <g id="line2d_9">
      <path d="M 259.660098 252 
L 259.660098 34.56 
" clip-path="url(#p0048c24e4c)" style="fill: none; stroke: #b0b0b0; stroke-width: 0.8; stroke-linecap: square"/>
     </g>
     <g id="line2d_10">
      <g>
       <use xlink:href="#m70ece6a878" x="259.660098" y="252" style="stroke: #000000; stroke-width: 0.8"/>
      </g>
     </g>
     <g id="text_5">
      <!-- 10.0 -->
      <g transform="translate(248.527286 266.598437) scale(0.1 -0.1)">
       <defs>
        <path id="DejaVuSans-31" d="M 794 531 
L 1825 531 
L 1825 4091 
L 703 3866 
L 703 4441 
L 1819 4666 
L 2450 4666 
L 2450 531 
L 3481 531 
L 3481 0 
L 794 0 
L 794 531 
z
" transform="scale(0.015625)"/>
       </defs>
       <use xlink:href="#DejaVuSans-31"/>
       <use xlink:href="#DejaVuSans-30" x="63.623047"/>
       <use xlink:href="#DejaVuSans-2e" x="127.246094"/>
       <use xlink:href="#DejaVuSans-30" x="159.033203"/>
      </g>
     </g>
    </g>
    <g id="xtick_6">
     <g id="line2d_11">
      <path d="M 302.204472 252 
L 302.204472 34.56 
" clip-path="url(#p0048c24e4c)" style="fill: none; stroke: #b0b0b0; stroke-width: 0.8; stroke-linecap: square"/>
     </g>
     <g id="line2d_12">
      <g>
       <use xlink:href="#m70ece6a878" x="302.204472" y="252" style="stroke: #000000; stroke-width: 0.8"/>
      </g>
     </g>
     <g id="text_6">
      <!-- 10.5 -->
      <g transform="translate(291.071659 266.598437) scale(0.1 -0.1)">
       <use xlink:href="#DejaVuSans-31"/>
       <use xlink:href="#DejaVuSans-30" x="63.623047"/>
       <use xlink:href="#DejaVuSans-2e" x="127.246094"/>
       <use xlink:href="#DejaVuSans-35" x="159.033203"/>
      </g>
     </g>
    </g>
    <g id="xtick_7">
     <g id="line2d_13">
      <path d="M 344.748845 252 
L 344.748845 34.56 
" clip-path="url(#p0048c24e4c)" style="fill: none; stroke: #b0b0b0; stroke-width: 0.8; stroke-linecap: square"/>
     </g>
     <g id="line2d_14">
      <g>
       <use xlink:href="#m70ece6a878" x="344.748845" y="252" style="stroke: #000000; stroke-width: 0.8"/>
      </g>
     </g>
     <g id="text_7">
      <!-- 11.0 -->
      <g transform="translate(333.616033 266.598437) scale(0.1 -0.1)">
       <use xlink:href="#DejaVuSans-31"/>
       <use xlink:href="#DejaVuSans-31" x="63.623047"/>
       <use xlink:href="#DejaVuSans-2e" x="127.246094"/>
       <use xlink:href="#DejaVuSans-30" x="159.033203"/>
      </g>
     </g>
    </g>
    <g id="xtick_8">
     <g id="line2d_15">
      <path d="M 387.293219 252 
L 387.293219 34.56 
" clip-path="url(#p0048c24e4c)" style="fill: none; stroke: #b0b0b0; stroke-width: 0.8; stroke-linecap: square"/>
     </g>
     <g id="line2d_16">
      <g>
       <use xlink:href="#m70ece6a878" x="387.293219" y="252" style="stroke: #000000; stroke-width: 0.8"/>
      </g>
     </g>
     <g id="text_8">
      <!-- 11.5 -->
      <g transform="translate(376.160406 266.598437) scale(0.1 -0.1)">
       <use xlink:href="#DejaVuSans-31"/>
       <use xlink:href="#DejaVuSans-31" x="63.623047"/>
       <use xlink:href="#DejaVuSans-2e" x="127.246094"/>
       <use xlink:href="#DejaVuSans-35" x="159.033203"/>
      </g>
     </g>
    </g>
    <g id="text_9">
     <!-- Time (ns) -->
     <g transform="translate(197.902344 280.276563) scale(0.1 -0.1)">
      <defs>
       <path id="DejaVuSans-54" d="M -19 4666 
L 3928 4666 
L 3928 4134 
L 2272 4134 
L 2272 0 
L 1638 0 
L 1638 4134 
L -19 4134 
L -19 4666 
z
" transform="scale(0.015625)"/>
       <path id="DejaVuSans-69" d="M 603 3500 
L 1178 3500 
L 1178 0 
L 603 0 
L 603 3500 
z
M 603 4863 
L 1178 4863 
L 1178 4134 
L 603 4134 
L 603 4863 
z
" transform="scale(0.015625)"/>
       <path id="DejaVuSans-6d" d="M 3328 2828 
Q 3544 3216 3844 3400 
Q 4144 3584 4550 3584 
Q 5097 3584 5394 3201 
Q 5691 2819 5691 2113 
L 5691 0 
L 5113 0 
L 5113 2094 
Q 5113 2597 4934 2840 
Q 4756 3084 4391 3084 
Q 3944 3084 3684 2787 
Q 3425 2491 3425 1978 
L 3425 0 
L 2847 0 
L 2847 2094 
Q 2847 2600 2669 2842 
Q 2491 3084 2119 3084 
Q 1678 3084 1418 2786 
Q 1159 2488 1159 1978 
L 1159 0 
L 581 0 
L 581 3500 
L 1159 3500 
L 1159 2956 
Q 1356 3278 1631 3431 
Q 1906 3584 2284 3584 
Q 2666 3584 2933 3390 
Q 3200 3197 3328 2828 
z
" transform="scale(0.015625)"/>
       <path id="DejaVuSans-65" d="M 3597 1894 
L 3597 1613 
L 953 1613 
Q 991 1019 1311 708 
Q 1631 397 2203 397 
Q 2534 397 2845 478 
Q 3156 559 3463 722 
L 3463 178 
Q 3153 47 2828 -22 
Q 2503 -91 2169 -91 
Q 1331 -91 842 396 
Q 353 884 353 1716 
Q 353 2575 817 3079 
Q 1281 3584 2069 3584 
Q 2775 3584 3186 3129 
Q 3597 2675 3597 1894 
z
M 3022 2063 
Q 3016 2534 2758 2815 
Q 2500 3097 2075 3097 
Q 1594 3097 1305 2825 
Q 1016 2553 972 2059 
L 3022 2063 
z
" transform="scale(0.015625)"/>
       <path id="DejaVuSans-20" transform="scale(0.015625)"/>
       <path id="DejaVuSans-28" d="M 1984 4856 
Q 1566 4138 1362 3434 
Q 1159 2731 1159 2009 
Q 1159 1288 1364 580 
Q 1569 -128 1984 -844 
L 1484 -844 
Q 1016 -109 783 600 
Q 550 1309 550 2009 
Q 550 2706 781 3412 
Q 1013 4119 1484 4856 
L 1984 4856 
z
" transform="scale(0.015625)"/>
       <path id="DejaVuSans-6e" d="M 3513 2113 
L 3513 0 
L 2938 0 
L 2938 2094 
Q 2938 2591 2744 2837 
Q 2550 3084 2163 3084 
Q 1697 3084 1428 2787 
Q 1159 2491 1159 1978 
L 1159 0 
L 581 0 
L 581 3500 
L 1159 3500 
L 1159 2956 
Q 1366 3272 1645 3428 
Q 1925 3584 2291 3584 
Q 2894 3584 3203 3211 
Q 3513 2838 3513 2113 
z
" transform="scale(0.015625)"/>
       <path id="DejaVuSans-73" d="M 2834 3397 
L 2834 2853 
Q 2591 2978 2328 3040 
Q 2066 3103 1784 3103 
Q 1356 3103 1142 2972 
Q 928 2841 928 2578 
Q 928 2378 1081 2264 
Q 1234 2150 1697 2047 
L 1894 2003 
Q 2506 1872 2764 1633 
Q 3022 1394 3022 966 
Q 3022 478 2636 193 
Q 2250 -91 1575 -91 
Q 1294 -91 989 -36 
Q 684 19 347 128 
L 347 722 
Q 666 556 975 473 
Q 1284 391 1588 391 
Q 1994 391 2212 530 
Q 2431 669 2431 922 
Q 2431 1156 2273 1281 
Q 2116 1406 1581 1522 
L 1381 1569 
Q 847 1681 609 1914 
Q 372 2147 372 2553 
Q 372 3047 722 3315 
Q 1072 3584 1716 3584 
Q 2034 3584 2315 3537 
Q 2597 3491 2834 3397 
z
" transform="scale(0.015625)"/>
       <path id="DejaVuSans-29" d="M 513 4856 
L 1013 4856 
Q 1481 4119 1714 3412 
Q 1947 2706 1947 2009 
Q 1947 1309 1714 600 
Q 1481 -109 1013 -844 
L 513 -844 
Q 928 -128 1133 580 
Q 1338 1288 1338 2009 
Q 1338 2731 1133 3434 
Q 928 4138 513 4856 
z
" transform="scale(0.015625)"/>
      </defs>
      <use xlink:href="#DejaVuSans-54"/>
      <use xlink:href="#DejaVuSans-69" x="57.958984"/>
      <use xlink:href="#DejaVuSans-6d" x="85.742188"/>
      <use xlink:href="#DejaVuSans-65" x="183.154297"/>
      <use xlink:href="#DejaVuSans-20" x="244.677734"/>
      <use xlink:href="#DejaVuSans-28" x="276.464844"/>
      <use xlink:href="#DejaVuSans-6e" x="315.478516"/>
      <use xlink:href="#DejaVuSans-73" x="378.857422"/>
      <use xlink:href="#DejaVuSans-29" x="430.957031"/>
     </g>
    </g>
   </g>
   <g id="matplotlib.axis_2">
    <g id="ytick_1">
     <g id="line2d_17">
      <path d="M 54 252 
L 388.8 252 
" clip-path="url(#p0048c24e4c)" style="fill: none; stroke: #b0b0b0; stroke-width: 0.8; stroke-linecap: square"/>
     </g>
     <g id="line2d_18">
      <defs>
       <path id="m3c466dc5dc" d="M 0 0 
L -3.5 0 
" style="stroke: #000000; stroke-width: 0.8"/>
      </defs>
      <g>
       <use xlink:href="#m3c466dc5dc" x="54" y="252" style="stroke: #000000; stroke-width: 0.8"/>
      </g>
     </g>
     <g id="text_10">
      <!-- 0.0 -->
      <g transform="translate(31.096875 255.799219) scale(0.1 -0.1)">
       <use xlink:href="#DejaVuSans-30"/>
       <use xlink:href="#DejaVuSans-2e" x="63.623047"/>
       <use xlink:href="#DejaVuSans-30" x="95.410156"/>
      </g>
     </g>
    </g>
    <g id="ytick_2">
     <g id="line2d_19">
      <path d="M 54 224.634423 
L 388.8 224.634423 
" clip-path="url(#p0048c24e4c)" style="fill: none; stroke: #b0b0b0; stroke-width: 0.8; stroke-linecap: square"/>
     </g>
     <g id="line2d_20">
      <g>
       <use xlink:href="#m3c466dc5dc" x="54" y="224.634423" style="stroke: #000000; stroke-width: 0.8"/>
      </g>
     </g>
     <g id="text_11">
      <!-- 0.5 -->
      <g transform="translate(31.096875 228.433641) scale(0.1 -0.1)">
       <use xlink:href="#DejaVuSans-30"/>
       <use xlink:href="#DejaVuSans-2e" x="63.623047"/>
       <use xlink:href="#DejaVuSans-35" x="95.410156"/>
      </g>
     </g>
    </g>
    <g id="ytick_3">
     <g id="line2d_21">
      <path d="M 54 197.268845 
L 388.8 197.268845 
" clip-path="url(#p0048c24e4c)" style="fill: none; stroke: #b0b0b0; stroke-width: 0.8; stroke-linecap: square"/>
     </g>
     <g id="line2d_22">
      <g>
       <use xlink:href="#m3c466dc5dc" x="54" y="197.268845" style="stroke: #000000; stroke-width: 0.8"/>
      </g>
     </g>
     <g id="text_12">
      <!-- 1.0 -->
      <g transform="translate(31.096875 201.068064) scale(0.1 -0.1)">
       <use xlink:href="#DejaVuSans-31"/>
       <use xlink:href="#DejaVuSans-2e" x="63.623047"/>
       <use xlink:href="#DejaVuSans-30" x="95.410156"/>
      </g>
     </g>
    </g>
    <g id="ytick_4">
     <g id="line2d_23">
      <path d="M 54 169.903268 
L 388.8 169.903268 
" clip-path="url(#p0048c24e4c)" style="fill: none; stroke: #b0b0b0; stroke-width: 0.8; stroke-linecap: square"/>
     </g>
     <g id="line2d_24">
      <g>
       <use xlink:href="#m3c466dc5dc" x="54" y="169.903268" style="stroke: #000000; stroke-width: 0.8"/>
      </g>
     </g>
     <g id="text_13">
      <!-- 1.5 -->
      <g transform="translate(31.096875 173.702487) scale(0.1 -0.1)">
       <use xlink:href="#DejaVuSans-31"/>
       <use xlink:href="#DejaVuSans-2e" x="63.623047"/>
       <use xlink:href="#DejaVuSans-35" x="95.410156"/>
      </g>
     </g>
    </g>
    <g id="ytick_5">
     <g id="line2d_25">
      <path d="M 54 142.537691 
L 388.8 142.537691 
" clip-path="url(#p0048c24e4c)" style="fill: none; stroke: #b0b0b0; stroke-width: 0.8; stroke-linecap: square"/>
     </g>
     <g id="line2d_26">
      <g>
       <use xlink:href="#m3c466dc5dc" x="54" y="142.537691" style="stroke: #000000; stroke-width: 0.8"/>
      </g>
     </g>
     <g id="text_14">
      <!-- 2.0 -->
      <g transform="translate(31.096875 146.336909) scale(0.1 -0.1)">
       <defs>
        <path id="DejaVuSans-32" d="M 1228 531 
L 3431 531 
L 3431 0 
L 469 0 
L 469 531 
Q 828 903 1448 1529 
Q 2069 2156 2228 2338 
Q 2531 2678 2651 2914 
Q 2772 3150 2772 3378 
Q 2772 3750 2511 3984 
Q 2250 4219 1831 4219 
Q 1534 4219 1204 4116 
Q 875 4013 500 3803 
L 500 4441 
Q 881 4594 1212 4672 
Q 1544 4750 1819 4750 
Q 2544 4750 2975 4387 
Q 3406 4025 3406 3419 
Q 3406 3131 3298 2873 
Q 3191 2616 2906 2266 
Q 2828 2175 2409 1742 
Q 1991 1309 1228 531 
z
" transform="scale(0.015625)"/>
       </defs>
       <use xlink:href="#DejaVuSans-32"/>
       <use xlink:href="#DejaVuSans-2e" x="63.623047"/>
       <use xlink:href="#DejaVuSans-30" x="95.410156"/>
      </g>
     </g>
    </g>
    <g id="ytick_6">
     <g id="line2d_27">
      <path d="M 54 115.172113 
L 388.8 115.172113 
" clip-path="url(#p0048c24e4c)" style="fill: none; stroke: #b0b0b0; stroke-width: 0.8; stroke-linecap: square"/>
     </g>
     <g id="line2d_28">
      <g>
       <use xlink:href="#m3c466dc5dc" x="54" y="115.172113" style="stroke: #000000; stroke-width: 0.8"/>
      </g>
     </g>
     <g id="text_15">
      <!-- 2.5 -->
      <g transform="translate(31.096875 118.971332) scale(0.1 -0.1)">
       <use xlink:href="#DejaVuSans-32"/>
       <use xlink:href="#DejaVuSans-2e" x="63.623047"/>
       <use xlink:href="#DejaVuSans-35" x="95.410156"/>
      </g>
     </g>
    </g>
    <g id="ytick_7">
     <g id="line2d_29">
      <path d="M 54 87.806536 
L 388.8 87.806536 
" clip-path="url(#p0048c24e4c)" style="fill: none; stroke: #b0b0b0; stroke-width: 0.8; stroke-linecap: square"/>
     </g>
     <g id="line2d_30">
      <g>
       <use xlink:href="#m3c466dc5dc" x="54" y="87.806536" style="stroke: #000000; stroke-width: 0.8"/>
      </g>
     </g>
     <g id="text_16">
      <!-- 3.0 -->
      <g transform="translate(31.096875 91.605755) scale(0.1 -0.1)">
       <defs>
        <path id="DejaVuSans-33" d="M 2597 2516 
Q 3050 2419 3304 2112 
Q 3559 1806 3559 1356 
Q 3559 666 3084 287 
Q 2609 -91 1734 -91 
Q 1441 -91 1130 -33 
Q 819 25 488 141 
L 488 750 
Q 750 597 1062 519 
Q 1375 441 1716 441 
Q 2309 441 2620 675 
Q 2931 909 2931 1356 
Q 2931 1769 2642 2001 
Q 2353 2234 1838 2234 
L 1294 2234 
L 1294 2753 
L 1863 2753 
Q 2328 2753 2575 2939 
Q 2822 3125 2822 3475 
Q 2822 3834 2567 4026 
Q 2313 4219 1838 4219 
Q 1578 4219 1281 4162 
Q 984 4106 628 3988 
L 628 4550 
Q 988 4650 1302 4700 
Q 1616 4750 1894 4750 
Q 2613 4750 3031 4423 
Q 3450 4097 3450 3541 
Q 3450 3153 3228 2886 
Q 3006 2619 2597 2516 
z
" transform="scale(0.015625)"/>
       </defs>
       <use xlink:href="#DejaVuSans-33"/>
       <use xlink:href="#DejaVuSans-2e" x="63.623047"/>
       <use xlink:href="#DejaVuSans-30" x="95.410156"/>
      </g>
     </g>
    </g>
    <g id="ytick_8">
     <g id="line2d_31">
      <path d="M 54 60.440959 
L 388.8 60.440959 
" clip-path="url(#p0048c24e4c)" style="fill: none; stroke: #b0b0b0; stroke-width: 0.8; stroke-linecap: square"/>
     </g>
     <g id="line2d_32">
      <g>
       <use xlink:href="#m3c466dc5dc" x="54" y="60.440959" style="stroke: #000000; stroke-width: 0.8"/>
      </g>
     </g>
     <g id="text_17">
      <!-- 3.5 -->
      <g transform="translate(31.096875 64.240177) scale(0.1 -0.1)">
       <use xlink:href="#DejaVuSans-33"/>
       <use xlink:href="#DejaVuSans-2e" x="63.623047"/>
       <use xlink:href="#DejaVuSans-35" x="95.410156"/>
      </g>
     </g>
    </g>
    <g id="text_18">
     <!-- Counts (normalized) -->
     <g transform="translate(25.017187 194.007344) rotate(-90) scale(0.1 -0.1)">
      <defs>
       <path id="DejaVuSans-43" d="M 4122 4306 
L 4122 3641 
Q 3803 3938 3442 4084 
Q 3081 4231 2675 4231 
Q 1875 4231 1450 3742 
Q 1025 3253 1025 2328 
Q 1025 1406 1450 917 
Q 1875 428 2675 428 
Q 3081 428 3442 575 
Q 3803 722 4122 1019 
L 4122 359 
Q 3791 134 3420 21 
Q 3050 -91 2638 -91 
Q 1578 -91 968 557 
Q 359 1206 359 2328 
Q 359 3453 968 4101 
Q 1578 4750 2638 4750 
Q 3056 4750 3426 4639 
Q 3797 4528 4122 4306 
z
" transform="scale(0.015625)"/>
       <path id="DejaVuSans-6f" d="M 1959 3097 
Q 1497 3097 1228 2736 
Q 959 2375 959 1747 
Q 959 1119 1226 758 
Q 1494 397 1959 397 
Q 2419 397 2687 759 
Q 2956 1122 2956 1747 
Q 2956 2369 2687 2733 
Q 2419 3097 1959 3097 
z
M 1959 3584 
Q 2709 3584 3137 3096 
Q 3566 2609 3566 1747 
Q 3566 888 3137 398 
Q 2709 -91 1959 -91 
Q 1206 -91 779 398 
Q 353 888 353 1747 
Q 353 2609 779 3096 
Q 1206 3584 1959 3584 
z
" transform="scale(0.015625)"/>
       <path id="DejaVuSans-75" d="M 544 1381 
L 544 3500 
L 1119 3500 
L 1119 1403 
Q 1119 906 1312 657 
Q 1506 409 1894 409 
Q 2359 409 2629 706 
Q 2900 1003 2900 1516 
L 2900 3500 
L 3475 3500 
L 3475 0 
L 2900 0 
L 2900 538 
Q 2691 219 2414 64 
Q 2138 -91 1772 -91 
Q 1169 -91 856 284 
Q 544 659 544 1381 
z
M 1991 3584 
L 1991 3584 
z
" transform="scale(0.015625)"/>
       <path id="DejaVuSans-74" d="M 1172 4494 
L 1172 3500 
L 2356 3500 
L 2356 3053 
L 1172 3053 
L 1172 1153 
Q 1172 725 1289 603 
Q 1406 481 1766 481 
L 2356 481 
L 2356 0 
L 1766 0 
Q 1100 0 847 248 
Q 594 497 594 1153 
L 594 3053 
L 172 3053 
L 172 3500 
L 594 3500 
L 594 4494 
L 1172 4494 
z
" transform="scale(0.015625)"/>
       <path id="DejaVuSans-72" d="M 2631 2963 
Q 2534 3019 2420 3045 
Q 2306 3072 2169 3072 
Q 1681 3072 1420 2755 
Q 1159 2438 1159 1844 
L 1159 0 
L 581 0 
L 581 3500 
L 1159 3500 
L 1159 2956 
Q 1341 3275 1631 3429 
Q 1922 3584 2338 3584 
Q 2397 3584 2469 3576 
Q 2541 3569 2628 3553 
L 2631 2963 
z
" transform="scale(0.015625)"/>
       <path id="DejaVuSans-61" d="M 2194 1759 
Q 1497 1759 1228 1600 
Q 959 1441 959 1056 
Q 959 750 1161 570 
Q 1363 391 1709 391 
Q 2188 391 2477 730 
Q 2766 1069 2766 1631 
L 2766 1759 
L 2194 1759 
z
M 3341 1997 
L 3341 0 
L 2766 0 
L 2766 531 
Q 2569 213 2275 61 
Q 1981 -91 1556 -91 
Q 1019 -91 701 211 
Q 384 513 384 1019 
Q 384 1609 779 1909 
Q 1175 2209 1959 2209 
L 2766 2209 
L 2766 2266 
Q 2766 2663 2505 2880 
Q 2244 3097 1772 3097 
Q 1472 3097 1187 3025 
Q 903 2953 641 2809 
L 641 3341 
Q 956 3463 1253 3523 
Q 1550 3584 1831 3584 
Q 2591 3584 2966 3190 
Q 3341 2797 3341 1997 
z
" transform="scale(0.015625)"/>
       <path id="DejaVuSans-6c" d="M 603 4863 
L 1178 4863 
L 1178 0 
L 603 0 
L 603 4863 
z
" transform="scale(0.015625)"/>
       <path id="DejaVuSans-7a" d="M 353 3500 
L 3084 3500 
L 3084 2975 
L 922 459 
L 3084 459 
L 3084 0 
L 275 0 
L 275 525 
L 2438 3041 
L 353 3041 
L 353 3500 
z
" transform="scale(0.015625)"/>
       <path id="DejaVuSans-64" d="M 2906 2969 
L 2906 4863 
L 3481 4863 
L 3481 0 
L 2906 0 
L 2906 525 
Q 2725 213 2448 61 
Q 2172 -91 1784 -91 
Q 1150 -91 751 415 
Q 353 922 353 1747 
Q 353 2572 751 3078 
Q 1150 3584 1784 3584 
Q 2172 3584 2448 3432 
Q 2725 3281 2906 2969 
z
M 947 1747 
Q 947 1113 1208 752 
Q 1469 391 1925 391 
Q 2381 391 2643 752 
Q 2906 1113 2906 1747 
Q 2906 2381 2643 2742 
Q 2381 3103 1925 3103 
Q 1469 3103 1208 2742 
Q 947 2381 947 1747 
z
" transform="scale(0.015625)"/>
      </defs>
      <use xlink:href="#DejaVuSans-43"/>
      <use xlink:href="#DejaVuSans-6f" x="69.824219"/>
      <use xlink:href="#DejaVuSans-75" x="131.005859"/>
      <use xlink:href="#DejaVuSans-6e" x="194.384766"/>
      <use xlink:href="#DejaVuSans-74" x="257.763672"/>
      <use xlink:href="#DejaVuSans-73" x="296.972656"/>
      <use xlink:href="#DejaVuSans-20" x="349.072266"/>
      <use xlink:href="#DejaVuSans-28" x="380.859375"/>
      <use xlink:href="#DejaVuSans-6e" x="419.873047"/>
      <use xlink:href="#DejaVuSans-6f" x="483.251953"/>
      <use xlink:href="#DejaVuSans-72" x="544.433594"/>
      <use xlink:href="#DejaVuSans-6d" x="583.796875"/>
      <use xlink:href="#DejaVuSans-61" x="681.208984"/>
      <use xlink:href="#DejaVuSans-6c" x="742.488281"/>
      <use xlink:href="#DejaVuSans-69" x="770.271484"/>
      <use xlink:href="#DejaVuSans-7a" x="798.054688"/>
      <use xlink:href="#DejaVuSans-65" x="850.544922"/>
      <use xlink:href="#DejaVuSans-64" x="912.068359"/>
      <use xlink:href="#DejaVuSans-29" x="975.544922"/>
     </g>
    </g>
   </g>
   <g id="line2d_33">
    <path d="M 69.218182 252 
L 72.261801 252 
L 75.305461 252 
L 78.34908 252 
L 81.39274 252 
L 84.43636 252 
L 87.480019 252 
L 90.523639 252 
L 93.567299 252 
L 96.610877 252 
L 99.654537 252 
L 102.698197 252 
L 105.741857 252 
L 108.785436 252 
L 111.829096 252 
L 114.872756 252 
L 117.916334 252 
L 120.959994 252 
L 124.003654 252 
L 127.047233 252 
L 130.090893 252 
L 133.134553 252 
L 136.178213 252 
L 139.221791 252 
L 142.265451 252 
L 145.309111 252 
L 148.35269 252 
L 151.39635 252 
L 154.44001 252 
L 157.48367 252 
L 160.527248 252 
L 163.570908 252 
L 166.614568 252 
L 169.658147 252 
L 172.701807 252 
L 175.745467 252 
L 178.789127 252 
L 181.832705 252 
L 184.876365 252 
L 187.920025 252 
L 190.963604 252 
L 194.007264 252 
L 197.050924 252 
L 200.094584 252 
L 203.138162 252 
L 206.181822 251.999999 
L 209.225482 251.999997 
L 212.269061 251.999989 
L 215.312721 251.999967 
L 218.356381 251.999898 
L 221.399959 251.999703 
L 224.443619 251.99917 
L 227.487279 251.997774 
L 230.530939 251.994283 
L 233.574518 251.985927 
L 236.618178 251.966798 
L 239.661838 251.924931 
L 242.705416 251.837338 
L 245.749076 251.662202 
L 248.792736 251.327698 
L 251.836396 250.717646 
L 254.879975 249.655873 
L 257.923635 247.893257 
L 260.967295 245.10475 
L 264.010873 240.904845 
L 267.054533 234.889662 
L 270.098193 226.711685 
L 273.141853 216.180684 
L 276.185432 203.376356 
L 279.229092 188.741687 
L 282.272752 173.127826 
L 285.31633 157.753701 
L 288.35999 144.069744 
L 291.40365 133.543687 
L 294.44731 127.402503 
L 297.490889 126.397964 
L 300.534549 130.655392 
L 303.578209 139.648108 
L 306.621787 152.303932 
L 309.665447 167.216638 
L 312.709107 182.899794 
L 315.752767 198.026057 
L 318.796346 211.5956 
L 321.840006 223.012807 
L 324.883666 232.069427 
L 327.927244 238.866679 
L 330.970904 243.70606 
L 334.014564 246.980236 
L 337.058143 249.088289 
L 340.101803 250.381385 
L 343.145463 251.137668 
L 346.189123 251.559707 
L 349.232701 251.784546 
L 352.276361 251.89896 
L 355.320021 251.954588 
L 358.3636 251.980439 
L 361.40726 251.991925 
L 364.45092 251.996805 
L 367.49458 251.998789 
L 370.538158 251.99956 
L 373.581818 251.999847 
" clip-path="url(#p0048c24e4c)" style="fill: none; stroke-dasharray: 7.4,3.2; stroke-dashoffset: 0; stroke: #ff0000; stroke-width: 2"/>
   </g>
   <g id="patch_103">
    <path d="M 54 252 
L 54 34.56 
" style="fill: none; stroke: #000000; stroke-width: 0.8; stroke-linejoin: miter; stroke-linecap: square"/>
   </g>
   <g id="patch_104">
    <path d="M 388.8 252 
L 388.8 34.56 
" style="fill: none; stroke: #000000; stroke-width: 0.8; stroke-linejoin: miter; stroke-linecap: square"/>
   </g>
   <g id="patch_105">
    <path d="M 54 252 
L 388.8 252 
" style="fill: none; stroke: #000000; stroke-width: 0.8; stroke-linejoin: miter; stroke-linecap: square"/>
   </g>
   <g id="patch_106">
    <path d="M 54 34.56 
L 388.8 34.56 
" style="fill: none; stroke: #000000; stroke-width: 0.8; stroke-linejoin: miter; stroke-linecap: square"/>
   </g>
   <g id="text_19">
    <!-- $\mu=10.43,\ \sigma=0.173$ -->
    <g transform="translate(89.482605 191.79573) scale(0.14 -0.14)">
     <defs>
      <path id="DejaVuSans-Oblique-3bc" d="M -84 -1331 
L 856 3500 
L 1434 3500 
L 1009 1322 
Q 997 1256 987 1175 
Q 978 1094 978 1013 
Q 978 722 1161 565 
Q 1344 409 1684 409 
Q 2147 409 2431 671 
Q 2716 934 2816 1459 
L 3213 3500 
L 3788 3500 
L 3266 809 
Q 3253 750 3248 706 
Q 3244 663 3244 628 
Q 3244 531 3283 486 
Q 3322 441 3406 441 
Q 3438 441 3492 456 
Q 3547 472 3647 513 
L 3559 50 
Q 3422 -19 3297 -55 
Q 3172 -91 3053 -91 
Q 2847 -91 2730 40 
Q 2613 172 2613 403 
Q 2438 153 2195 31 
Q 1953 -91 1625 -91 
Q 1334 -91 1117 43 
Q 900 178 831 397 
L 494 -1331 
L -84 -1331 
z
" transform="scale(0.015625)"/>
      <path id="DejaVuSans-3d" d="M 678 2906 
L 4684 2906 
L 4684 2381 
L 678 2381 
L 678 2906 
z
M 678 1631 
L 4684 1631 
L 4684 1100 
L 678 1100 
L 678 1631 
z
" transform="scale(0.015625)"/>
      <path id="DejaVuSans-34" d="M 2419 4116 
L 825 1625 
L 2419 1625 
L 2419 4116 
z
M 2253 4666 
L 3047 4666 
L 3047 1625 
L 3713 1625 
L 3713 1100 
L 3047 1100 
L 3047 0 
L 2419 0 
L 2419 1100 
L 313 1100 
L 313 1709 
L 2253 4666 
z
" transform="scale(0.015625)"/>
      <path id="DejaVuSans-2c" d="M 750 794 
L 1409 794 
L 1409 256 
L 897 -744 
L 494 -744 
L 750 256 
L 750 794 
z
" transform="scale(0.015625)"/>
      <path id="DejaVuSans-Oblique-3c3" d="M 2219 3044 
Q 1744 3044 1422 2700 
Q 1081 2341 969 1747 
Q 844 1119 1044 756 
Q 1241 397 1706 397 
Q 2166 397 2503 759 
Q 2844 1122 2966 1747 
Q 3075 2319 2881 2700 
Q 2700 3044 2219 3044 
z
M 2309 3503 
L 4219 3500 
L 4106 2925 
L 3463 2925 
Q 3706 2438 3575 1747 
Q 3406 888 2884 400 
Q 2359 -91 1609 -91 
Q 856 -91 525 400 
Q 194 888 363 1747 
Q 528 2609 1050 3097 
Q 1484 3503 2309 3503 
z
" transform="scale(0.015625)"/>
      <path id="DejaVuSans-37" d="M 525 4666 
L 3525 4666 
L 3525 4397 
L 1831 0 
L 1172 0 
L 2766 4134 
L 525 4134 
L 525 4666 
z
" transform="scale(0.015625)"/>
     </defs>
     <use xlink:href="#DejaVuSans-Oblique-3bc" transform="translate(0 0.78125)"/>
     <use xlink:href="#DejaVuSans-3d" transform="translate(83.105469 0.78125)"/>
     <use xlink:href="#DejaVuSans-31" transform="translate(186.376953 0.78125)"/>
     <use xlink:href="#DejaVuSans-30" transform="translate(250 0.78125)"/>
     <use xlink:href="#DejaVuSans-2e" transform="translate(313.623047 0.78125)"/>
     <use xlink:href="#DejaVuSans-34" transform="translate(345.410156 0.78125)"/>
     <use xlink:href="#DejaVuSans-33" transform="translate(409.033203 0.78125)"/>
     <use xlink:href="#DejaVuSans-2c" transform="translate(472.65625 0.78125)"/>
     <use xlink:href="#DejaVuSans-Oblique-3c3" transform="translate(556.39616 0.78125)"/>
     <use xlink:href="#DejaVuSans-3d" transform="translate(639.257488 0.78125)"/>
     <use xlink:href="#DejaVuSans-30" transform="translate(742.528972 0.78125)"/>
     <use xlink:href="#DejaVuSans-2e" transform="translate(806.152019 0.78125)"/>
     <use xlink:href="#DejaVuSans-31" transform="translate(837.939128 0.78125)"/>
     <use xlink:href="#DejaVuSans-37" transform="translate(901.562175 0.78125)"/>
     <use xlink:href="#DejaVuSans-33" transform="translate(965.185222 0.78125)"/>
    </g>
   </g>
  </g>
  <g id="text_20">
   <!-- 5GeV mu-, 1.5m length, thresh=50 -->
   <g transform="translate(110.204063 14.878125) scale(0.12 -0.12)">
    <defs>
     <path id="DejaVuSans-47" d="M 3809 666 
L 3809 1919 
L 2778 1919 
L 2778 2438 
L 4434 2438 
L 4434 434 
Q 4069 175 3628 42 
Q 3188 -91 2688 -91 
Q 1594 -91 976 548 
Q 359 1188 359 2328 
Q 359 3472 976 4111 
Q 1594 4750 2688 4750 
Q 3144 4750 3555 4637 
Q 3966 4525 4313 4306 
L 4313 3634 
Q 3963 3931 3569 4081 
Q 3175 4231 2741 4231 
Q 1884 4231 1454 3753 
Q 1025 3275 1025 2328 
Q 1025 1384 1454 906 
Q 1884 428 2741 428 
Q 3075 428 3337 486 
Q 3600 544 3809 666 
z
" transform="scale(0.015625)"/>
     <path id="DejaVuSans-56" d="M 1831 0 
L 50 4666 
L 709 4666 
L 2188 738 
L 3669 4666 
L 4325 4666 
L 2547 0 
L 1831 0 
z
" transform="scale(0.015625)"/>
     <path id="DejaVuSans-2d" d="M 313 2009 
L 1997 2009 
L 1997 1497 
L 313 1497 
L 313 2009 
z
" transform="scale(0.015625)"/>
     <path id="DejaVuSans-67" d="M 2906 1791 
Q 2906 2416 2648 2759 
Q 2391 3103 1925 3103 
Q 1463 3103 1205 2759 
Q 947 2416 947 1791 
Q 947 1169 1205 825 
Q 1463 481 1925 481 
Q 2391 481 2648 825 
Q 2906 1169 2906 1791 
z
M 3481 434 
Q 3481 -459 3084 -895 
Q 2688 -1331 1869 -1331 
Q 1566 -1331 1297 -1286 
Q 1028 -1241 775 -1147 
L 775 -588 
Q 1028 -725 1275 -790 
Q 1522 -856 1778 -856 
Q 2344 -856 2625 -561 
Q 2906 -266 2906 331 
L 2906 616 
Q 2728 306 2450 153 
Q 2172 0 1784 0 
Q 1141 0 747 490 
Q 353 981 353 1791 
Q 353 2603 747 3093 
Q 1141 3584 1784 3584 
Q 2172 3584 2450 3431 
Q 2728 3278 2906 2969 
L 2906 3500 
L 3481 3500 
L 3481 434 
z
" transform="scale(0.015625)"/>
     <path id="DejaVuSans-68" d="M 3513 2113 
L 3513 0 
L 2938 0 
L 2938 2094 
Q 2938 2591 2744 2837 
Q 2550 3084 2163 3084 
Q 1697 3084 1428 2787 
Q 1159 2491 1159 1978 
L 1159 0 
L 581 0 
L 581 4863 
L 1159 4863 
L 1159 2956 
Q 1366 3272 1645 3428 
Q 1925 3584 2291 3584 
Q 2894 3584 3203 3211 
Q 3513 2838 3513 2113 
z
" transform="scale(0.015625)"/>
    </defs>
    <use xlink:href="#DejaVuSans-35"/>
    <use xlink:href="#DejaVuSans-47" x="63.623047"/>
    <use xlink:href="#DejaVuSans-65" x="141.113281"/>
    <use xlink:href="#DejaVuSans-56" x="202.636719"/>
    <use xlink:href="#DejaVuSans-20" x="271.044922"/>
    <use xlink:href="#DejaVuSans-6d" x="302.832031"/>
    <use xlink:href="#DejaVuSans-75" x="400.244141"/>
    <use xlink:href="#DejaVuSans-2d" x="463.623047"/>
    <use xlink:href="#DejaVuSans-2c" x="499.707031"/>
    <use xlink:href="#DejaVuSans-20" x="531.494141"/>
    <use xlink:href="#DejaVuSans-31" x="563.28125"/>
    <use xlink:href="#DejaVuSans-2e" x="626.904297"/>
    <use xlink:href="#DejaVuSans-35" x="658.691406"/>
    <use xlink:href="#DejaVuSans-6d" x="722.314453"/>
    <use xlink:href="#DejaVuSans-20" x="819.726562"/>
    <use xlink:href="#DejaVuSans-6c" x="851.513672"/>
    <use xlink:href="#DejaVuSans-65" x="879.296875"/>
    <use xlink:href="#DejaVuSans-6e" x="940.820312"/>
    <use xlink:href="#DejaVuSans-67" x="1004.199219"/>
    <use xlink:href="#DejaVuSans-74" x="1067.675781"/>
    <use xlink:href="#DejaVuSans-68" x="1106.884766"/>
    <use xlink:href="#DejaVuSans-2c" x="1170.263672"/>
    <use xlink:href="#DejaVuSans-20" x="1202.050781"/>
    <use xlink:href="#DejaVuSans-74" x="1233.837891"/>
    <use xlink:href="#DejaVuSans-68" x="1273.046875"/>
    <use xlink:href="#DejaVuSans-72" x="1336.425781"/>
    <use xlink:href="#DejaVuSans-65" x="1375.289062"/>
    <use xlink:href="#DejaVuSans-73" x="1436.8125"/>
    <use xlink:href="#DejaVuSans-68" x="1488.912109"/>
    <use xlink:href="#DejaVuSans-3d" x="1552.291016"/>
    <use xlink:href="#DejaVuSans-35" x="1636.080078"/>
    <use xlink:href="#DejaVuSans-30" x="1699.703125"/>
   </g>
  </g>
 </g>
 <defs>
  <clipPath id="p0048c24e4c">
   <rect x="54" y="34.56" width="334.8" height="217.44"/>
  </clipPath>
 </defs>
</svg>
