<?xml version="1.0" encoding="utf-8" standalone="no"?>
<!DOCTYPE svg PUBLIC "-//W3C//DTD SVG 1.1//EN"
  "http://www.w3.org/Graphics/SVG/1.1/DTD/svg11.dtd">
<svg xmlns:xlink="http://www.w3.org/1999/xlink" width="432pt" height="288pt" viewBox="0 0 432 288" xmlns="http://www.w3.org/2000/svg" version="1.1">
 <metadata>
  <rdf:RDF xmlns:dc="http://purl.org/dc/elements/1.1/" xmlns:cc="http://creativecommons.org/ns#" xmlns:rdf="http://www.w3.org/1999/02/22-rdf-syntax-ns#">
   <cc:Work>
    <dc:type rdf:resource="http://purl.org/dc/dcmitype/StillImage"/>
    <dc:date>2024-06-06T16:15:09.698541</dc:date>
    <dc:format>image/svg+xml</dc:format>
    <dc:creator>
     <cc:Agent>
      <dc:title>Matplotlib v3.7.4, https://matplotlib.org/</dc:title>
     </cc:Agent>
    </dc:creator>
   </cc:Work>
  </rdf:RDF>
 </metadata>
 <defs>
  <style type="text/css">*{stroke-linejoin: round; stroke-linecap: butt}</style>
 </defs>
 <g id="figure_1">
  <g id="patch_1">
   <path d="M 0 288 
L 432 288 
L 432 0 
L 0 0 
L 0 288 
z
" style="fill: none"/>
  </g>
  <g id="axes_1">
   <g id="patch_2">
    <path d="M 54 252 
L 388.8 252 
L 388.8 34.56 
L 54 34.56 
z
" style="fill: #ffffff"/>
   </g>
   <g id="patch_3">
    <path d="M 69.218182 252 
L 71.523967 252 
L 71.523967 251.579948 
L 69.218182 251.579948 
z
" clip-path="url(#p1ca9fa229e)" style="fill: #0000ff"/>
   </g>
   <g id="patch_4">
    <path d="M 71.523967 252 
L 73.829752 252 
L 73.829752 251.579948 
L 71.523967 251.579948 
z
" clip-path="url(#p1ca9fa229e)" style="fill: #0000ff"/>
   </g>
   <g id="patch_5">
    <path d="M 73.829752 252 
L 76.135537 252 
L 76.135537 251.579948 
L 73.829752 251.579948 
z
" clip-path="url(#p1ca9fa229e)" style="fill: #0000ff"/>
   </g>
   <g id="patch_6">
    <path d="M 76.135537 252 
L 78.441322 252 
L 78.441322 251.579948 
L 76.135537 251.579948 
z
" clip-path="url(#p1ca9fa229e)" style="fill: #0000ff"/>
   </g>
   <g id="patch_7">
    <path d="M 78.441322 252 
L 80.747107 252 
L 80.747107 248.219531 
L 78.441322 248.219531 
z
" clip-path="url(#p1ca9fa229e)" style="fill: #0000ff"/>
   </g>
   <g id="patch_8">
    <path d="M 80.747107 252 
L 83.052893 252 
L 83.052893 247.379426 
L 80.747107 247.379426 
z
" clip-path="url(#p1ca9fa229e)" style="fill: #0000ff"/>
   </g>
   <g id="patch_9">
    <path d="M 83.052893 252 
L 85.358678 252 
L 85.358678 246.959374 
L 83.052893 246.959374 
z
" clip-path="url(#p1ca9fa229e)" style="fill: #0000ff"/>
   </g>
   <g id="patch_10">
    <path d="M 85.358678 252 
L 87.664463 252 
L 87.664463 243.178905 
L 85.358678 243.178905 
z
" clip-path="url(#p1ca9fa229e)" style="fill: #0000ff"/>
   </g>
   <g id="patch_11">
    <path d="M 87.664463 252 
L 89.970248 252 
L 89.970248 237.298174 
L 87.664463 237.298174 
z
" clip-path="url(#p1ca9fa229e)" style="fill: #0000ff"/>
   </g>
   <g id="patch_12">
    <path d="M 89.970248 252 
L 92.276033 252 
L 92.276033 228.057027 
L 89.970248 228.057027 
z
" clip-path="url(#p1ca9fa229e)" style="fill: #0000ff"/>
   </g>
   <g id="patch_13">
    <path d="M 92.276033 252 
L 94.581818 252 
L 94.581818 220.91614 
L 92.276033 220.91614 
z
" clip-path="url(#p1ca9fa229e)" style="fill: #0000ff"/>
   </g>
   <g id="patch_14">
    <path d="M 94.581818 252 
L 96.887603 252 
L 96.887603 201.173689 
L 94.581818 201.173689 
z
" clip-path="url(#p1ca9fa229e)" style="fill: #0000ff"/>
   </g>
   <g id="patch_15">
    <path d="M 96.887603 252 
L 99.193388 252 
L 99.193388 199.073428 
L 96.887603 199.073428 
z
" clip-path="url(#p1ca9fa229e)" style="fill: #0000ff"/>
   </g>
   <g id="patch_16">
    <path d="M 99.193388 252 
L 101.499174 252 
L 101.499174 178.910924 
L 99.193388 178.910924 
z
" clip-path="url(#p1ca9fa229e)" style="fill: #0000ff"/>
   </g>
   <g id="patch_17">
    <path d="M 101.499174 252 
L 103.804959 252 
L 103.804959 152.867691 
L 101.499174 152.867691 
z
" clip-path="url(#p1ca9fa229e)" style="fill: #0000ff"/>
   </g>
   <g id="patch_18">
    <path d="M 103.804959 252 
L 106.110744 252 
L 106.110744 144.466647 
L 103.804959 144.466647 
z
" clip-path="url(#p1ca9fa229e)" style="fill: #0000ff"/>
   </g>
   <g id="patch_19">
    <path d="M 106.110744 252 
L 108.416529 252 
L 108.416529 103.301536 
L 106.110744 103.301536 
z
" clip-path="url(#p1ca9fa229e)" style="fill: #0000ff"/>
   </g>
   <g id="patch_20">
    <path d="M 108.416529 252 
L 110.722314 252 
L 110.722314 96.160649 
L 108.416529 96.160649 
z
" clip-path="url(#p1ca9fa229e)" style="fill: #0000ff"/>
   </g>
   <g id="patch_21">
    <path d="M 110.722314 252 
L 113.028099 252 
L 113.028099 86.919502 
L 110.722314 86.919502 
z
" clip-path="url(#p1ca9fa229e)" style="fill: #0000ff"/>
   </g>
   <g id="patch_22">
    <path d="M 113.028099 252 
L 115.333884 252 
L 115.333884 75.158041 
L 113.028099 75.158041 
z
" clip-path="url(#p1ca9fa229e)" style="fill: #0000ff"/>
   </g>
   <g id="patch_23">
    <path d="M 115.333884 252 
L 117.639669 252 
L 117.639669 56.255694 
L 115.333884 56.255694 
z
" clip-path="url(#p1ca9fa229e)" style="fill: #0000ff"/>
   </g>
   <g id="patch_24">
    <path d="M 117.639669 252 
L 119.945455 252 
L 119.945455 44.914286 
L 117.639669 44.914286 
z
" clip-path="url(#p1ca9fa229e)" style="fill: #0000ff"/>
   </g>
   <g id="patch_25">
    <path d="M 119.945455 252 
L 122.25124 252 
L 122.25124 48.694755 
L 119.945455 48.694755 
z
" clip-path="url(#p1ca9fa229e)" style="fill: #0000ff"/>
   </g>
   <g id="patch_26">
    <path d="M 122.25124 252 
L 124.557025 252 
L 124.557025 47.854651 
L 122.25124 47.854651 
z
" clip-path="url(#p1ca9fa229e)" style="fill: #0000ff"/>
   </g>
   <g id="patch_27">
    <path d="M 124.557025 252 
L 126.86281 252 
L 126.86281 66.336946 
L 124.557025 66.336946 
z
" clip-path="url(#p1ca9fa229e)" style="fill: #0000ff"/>
   </g>
   <g id="patch_28">
    <path d="M 126.86281 252 
L 129.168595 252 
L 129.168595 53.735381 
L 126.86281 53.735381 
z
" clip-path="url(#p1ca9fa229e)" style="fill: #0000ff"/>
   </g>
   <g id="patch_29">
    <path d="M 129.168595 252 
L 131.47438 252 
L 131.47438 73.477833 
L 129.168595 73.477833 
z
" clip-path="url(#p1ca9fa229e)" style="fill: #0000ff"/>
   </g>
   <g id="patch_30">
    <path d="M 131.47438 252 
L 133.780165 252 
L 133.780165 94.900493 
L 131.47438 94.900493 
z
" clip-path="url(#p1ca9fa229e)" style="fill: #0000ff"/>
   </g>
   <g id="patch_31">
    <path d="M 133.780165 252 
L 136.08595 252 
L 136.08595 100.361171 
L 133.780165 100.361171 
z
" clip-path="url(#p1ca9fa229e)" style="fill: #0000ff"/>
   </g>
   <g id="patch_32">
    <path d="M 136.08595 252 
L 138.391736 252 
L 138.391736 112.122631 
L 136.08595 112.122631 
z
" clip-path="url(#p1ca9fa229e)" style="fill: #0000ff"/>
   </g>
   <g id="patch_33">
    <path d="M 138.391736 252 
L 140.697521 252 
L 140.697521 118.003361 
L 138.391736 118.003361 
z
" clip-path="url(#p1ca9fa229e)" style="fill: #0000ff"/>
   </g>
   <g id="patch_34">
    <path d="M 140.697521 252 
L 143.003306 252 
L 143.003306 143.626543 
L 140.697521 143.626543 
z
" clip-path="url(#p1ca9fa229e)" style="fill: #0000ff"/>
   </g>
   <g id="patch_35">
    <path d="M 143.003306 252 
L 145.309091 252 
L 145.309091 149.507273 
L 143.003306 149.507273 
z
" clip-path="url(#p1ca9fa229e)" style="fill: #0000ff"/>
   </g>
   <g id="patch_36">
    <path d="M 145.309091 252 
L 147.614876 252 
L 147.614876 165.469255 
L 145.309091 165.469255 
z
" clip-path="url(#p1ca9fa229e)" style="fill: #0000ff"/>
   </g>
   <g id="patch_37">
    <path d="M 147.614876 252 
L 149.920661 252 
L 149.920661 170.509881 
L 147.614876 170.509881 
z
" clip-path="url(#p1ca9fa229e)" style="fill: #0000ff"/>
   </g>
   <g id="patch_38">
    <path d="M 149.920661 252 
L 152.226446 252 
L 152.226446 173.870298 
L 149.920661 173.870298 
z
" clip-path="url(#p1ca9fa229e)" style="fill: #0000ff"/>
   </g>
   <g id="patch_39">
    <path d="M 152.226446 252 
L 154.532231 252 
L 154.532231 195.292959 
L 152.226446 195.292959 
z
" clip-path="url(#p1ca9fa229e)" style="fill: #0000ff"/>
   </g>
   <g id="patch_40">
    <path d="M 154.532231 252 
L 156.838017 252 
L 156.838017 187.73202 
L 154.532231 187.73202 
z
" clip-path="url(#p1ca9fa229e)" style="fill: #0000ff"/>
   </g>
   <g id="patch_41">
    <path d="M 156.838017 252 
L 159.143802 252 
L 159.143802 206.634367 
L 156.838017 206.634367 
z
" clip-path="url(#p1ca9fa229e)" style="fill: #0000ff"/>
   </g>
   <g id="patch_42">
    <path d="M 159.143802 252 
L 161.449587 252 
L 161.449587 208.734628 
L 159.143802 208.734628 
z
" clip-path="url(#p1ca9fa229e)" style="fill: #0000ff"/>
   </g>
   <g id="patch_43">
    <path d="M 161.449587 252 
L 163.755372 252 
L 163.755372 209.574732 
L 161.449587 209.574732 
z
" clip-path="url(#p1ca9fa229e)" style="fill: #0000ff"/>
   </g>
   <g id="patch_44">
    <path d="M 163.755372 252 
L 166.061157 252 
L 166.061157 215.455462 
L 163.755372 215.455462 
z
" clip-path="url(#p1ca9fa229e)" style="fill: #0000ff"/>
   </g>
   <g id="patch_45">
    <path d="M 166.061157 252 
L 168.366942 252 
L 168.366942 222.176297 
L 166.061157 222.176297 
z
" clip-path="url(#p1ca9fa229e)" style="fill: #0000ff"/>
   </g>
   <g id="patch_46">
    <path d="M 168.366942 252 
L 170.672727 252 
L 170.672727 227.636975 
L 168.366942 227.636975 
z
" clip-path="url(#p1ca9fa229e)" style="fill: #0000ff"/>
   </g>
   <g id="patch_47">
    <path d="M 170.672727 252 
L 172.978512 252 
L 172.978512 223.856505 
L 170.672727 223.856505 
z
" clip-path="url(#p1ca9fa229e)" style="fill: #0000ff"/>
   </g>
   <g id="patch_48">
    <path d="M 172.978512 252 
L 175.284298 252 
L 175.284298 230.57734 
L 172.978512 230.57734 
z
" clip-path="url(#p1ca9fa229e)" style="fill: #0000ff"/>
   </g>
   <g id="patch_49">
    <path d="M 175.284298 252 
L 177.590083 252 
L 177.590083 229.737236 
L 175.284298 229.737236 
z
" clip-path="url(#p1ca9fa229e)" style="fill: #0000ff"/>
   </g>
   <g id="patch_50">
    <path d="M 177.590083 252 
L 179.895868 252 
L 179.895868 233.517705 
L 177.590083 233.517705 
z
" clip-path="url(#p1ca9fa229e)" style="fill: #0000ff"/>
   </g>
   <g id="patch_51">
    <path d="M 179.895868 252 
L 182.201653 252 
L 182.201653 238.138279 
L 179.895868 238.138279 
z
" clip-path="url(#p1ca9fa229e)" style="fill: #0000ff"/>
   </g>
   <g id="patch_52">
    <path d="M 182.201653 252 
L 184.507438 252 
L 184.507438 234.777861 
L 182.201653 234.777861 
z
" clip-path="url(#p1ca9fa229e)" style="fill: #0000ff"/>
   </g>
   <g id="patch_53">
    <path d="M 184.507438 252 
L 186.813223 252 
L 186.813223 238.978383 
L 184.507438 238.978383 
z
" clip-path="url(#p1ca9fa229e)" style="fill: #0000ff"/>
   </g>
   <g id="patch_54">
    <path d="M 186.813223 252 
L 189.119008 252 
L 189.119008 235.617966 
L 186.813223 235.617966 
z
" clip-path="url(#p1ca9fa229e)" style="fill: #0000ff"/>
   </g>
   <g id="patch_55">
    <path d="M 189.119008 252 
L 191.424793 252 
L 191.424793 237.718227 
L 189.119008 237.718227 
z
" clip-path="url(#p1ca9fa229e)" style="fill: #0000ff"/>
   </g>
   <g id="patch_56">
    <path d="M 191.424793 252 
L 193.730579 252 
L 193.730579 238.978383 
L 191.424793 238.978383 
z
" clip-path="url(#p1ca9fa229e)" style="fill: #0000ff"/>
   </g>
   <g id="patch_57">
    <path d="M 193.730579 252 
L 196.036364 252 
L 196.036364 242.758853 
L 193.730579 242.758853 
z
" clip-path="url(#p1ca9fa229e)" style="fill: #0000ff"/>
   </g>
   <g id="patch_58">
    <path d="M 196.036364 252 
L 198.342149 252 
L 198.342149 244.859113 
L 196.036364 244.859113 
z
" clip-path="url(#p1ca9fa229e)" style="fill: #0000ff"/>
   </g>
   <g id="patch_59">
    <path d="M 198.342149 252 
L 200.647934 252 
L 200.647934 243.598957 
L 198.342149 243.598957 
z
" clip-path="url(#p1ca9fa229e)" style="fill: #0000ff"/>
   </g>
   <g id="patch_60">
    <path d="M 200.647934 252 
L 202.953719 252 
L 202.953719 244.439061 
L 200.647934 244.439061 
z
" clip-path="url(#p1ca9fa229e)" style="fill: #0000ff"/>
   </g>
   <g id="patch_61">
    <path d="M 202.953719 252 
L 205.259504 252 
L 205.259504 245.279165 
L 202.953719 245.279165 
z
" clip-path="url(#p1ca9fa229e)" style="fill: #0000ff"/>
   </g>
   <g id="patch_62">
    <path d="M 205.259504 252 
L 207.565289 252 
L 207.565289 247.799478 
L 205.259504 247.799478 
z
" clip-path="url(#p1ca9fa229e)" style="fill: #0000ff"/>
   </g>
   <g id="patch_63">
    <path d="M 207.565289 252 
L 209.871074 252 
L 209.871074 244.019009 
L 207.565289 244.019009 
z
" clip-path="url(#p1ca9fa229e)" style="fill: #0000ff"/>
   </g>
   <g id="patch_64">
    <path d="M 209.871074 252 
L 212.17686 252 
L 212.17686 246.11927 
L 209.871074 246.11927 
z
" clip-path="url(#p1ca9fa229e)" style="fill: #0000ff"/>
   </g>
   <g id="patch_65">
    <path d="M 212.17686 252 
L 214.482645 252 
L 214.482645 247.799478 
L 212.17686 247.799478 
z
" clip-path="url(#p1ca9fa229e)" style="fill: #0000ff"/>
   </g>
   <g id="patch_66">
    <path d="M 214.482645 252 
L 216.78843 252 
L 216.78843 247.379426 
L 214.482645 247.379426 
z
" clip-path="url(#p1ca9fa229e)" style="fill: #0000ff"/>
   </g>
   <g id="patch_67">
    <path d="M 216.78843 252 
L 219.094215 252 
L 219.094215 249.479687 
L 216.78843 249.479687 
z
" clip-path="url(#p1ca9fa229e)" style="fill: #0000ff"/>
   </g>
   <g id="patch_68">
    <path d="M 219.094215 252 
L 221.4 252 
L 221.4 246.539322 
L 219.094215 246.539322 
z
" clip-path="url(#p1ca9fa229e)" style="fill: #0000ff"/>
   </g>
   <g id="patch_69">
    <path d="M 221.4 252 
L 223.705785 252 
L 223.705785 245.699218 
L 221.4 245.699218 
z
" clip-path="url(#p1ca9fa229e)" style="fill: #0000ff"/>
   </g>
   <g id="patch_70">
    <path d="M 223.705785 252 
L 226.01157 252 
L 226.01157 249.899739 
L 223.705785 249.899739 
z
" clip-path="url(#p1ca9fa229e)" style="fill: #0000ff"/>
   </g>
   <g id="patch_71">
    <path d="M 226.01157 252 
L 228.317355 252 
L 228.317355 247.799478 
L 226.01157 247.799478 
z
" clip-path="url(#p1ca9fa229e)" style="fill: #0000ff"/>
   </g>
   <g id="patch_72">
    <path d="M 228.317355 252 
L 230.62314 252 
L 230.62314 248.639583 
L 228.317355 248.639583 
z
" clip-path="url(#p1ca9fa229e)" style="fill: #0000ff"/>
   </g>
   <g id="patch_73">
    <path d="M 230.62314 252 
L 232.928926 252 
L 232.928926 248.639583 
L 230.62314 248.639583 
z
" clip-path="url(#p1ca9fa229e)" style="fill: #0000ff"/>
   </g>
   <g id="patch_74">
    <path d="M 232.928926 252 
L 235.234711 252 
L 235.234711 249.059635 
L 232.928926 249.059635 
z
" clip-path="url(#p1ca9fa229e)" style="fill: #0000ff"/>
   </g>
   <g id="patch_75">
    <path d="M 235.234711 252 
L 237.540496 252 
L 237.540496 249.479687 
L 235.234711 249.479687 
z
" clip-path="url(#p1ca9fa229e)" style="fill: #0000ff"/>
   </g>
   <g id="patch_76">
    <path d="M 237.540496 252 
L 239.846281 252 
L 239.846281 248.639583 
L 237.540496 248.639583 
z
" clip-path="url(#p1ca9fa229e)" style="fill: #0000ff"/>
   </g>
   <g id="patch_77">
    <path d="M 239.846281 252 
L 242.152066 252 
L 242.152066 249.059635 
L 239.846281 249.059635 
z
" clip-path="url(#p1ca9fa229e)" style="fill: #0000ff"/>
   </g>
   <g id="patch_78">
    <path d="M 242.152066 252 
L 244.457851 252 
L 244.457851 248.639583 
L 242.152066 248.639583 
z
" clip-path="url(#p1ca9fa229e)" style="fill: #0000ff"/>
   </g>
   <g id="patch_79">
    <path d="M 244.457851 252 
L 246.763636 252 
L 246.763636 249.479687 
L 244.457851 249.479687 
z
" clip-path="url(#p1ca9fa229e)" style="fill: #0000ff"/>
   </g>
   <g id="patch_80">
    <path d="M 246.763636 252 
L 249.069421 252 
L 249.069421 251.579948 
L 246.763636 251.579948 
z
" clip-path="url(#p1ca9fa229e)" style="fill: #0000ff"/>
   </g>
   <g id="patch_81">
    <path d="M 249.069421 252 
L 251.375207 252 
L 251.375207 248.219531 
L 249.069421 248.219531 
z
" clip-path="url(#p1ca9fa229e)" style="fill: #0000ff"/>
   </g>
   <g id="patch_82">
    <path d="M 251.375207 252 
L 253.680992 252 
L 253.680992 251.159896 
L 251.375207 251.159896 
z
" clip-path="url(#p1ca9fa229e)" style="fill: #0000ff"/>
   </g>
   <g id="patch_83">
    <path d="M 253.680992 252 
L 255.986777 252 
L 255.986777 250.739844 
L 253.680992 250.739844 
z
" clip-path="url(#p1ca9fa229e)" style="fill: #0000ff"/>
   </g>
   <g id="patch_84">
    <path d="M 255.986777 252 
L 258.292562 252 
L 258.292562 250.739844 
L 255.986777 250.739844 
z
" clip-path="url(#p1ca9fa229e)" style="fill: #0000ff"/>
   </g>
   <g id="patch_85">
    <path d="M 258.292562 252 
L 260.598347 252 
L 260.598347 250.739844 
L 258.292562 250.739844 
z
" clip-path="url(#p1ca9fa229e)" style="fill: #0000ff"/>
   </g>
   <g id="patch_86">
    <path d="M 260.598347 252 
L 262.904132 252 
L 262.904132 250.319791 
L 260.598347 250.319791 
z
" clip-path="url(#p1ca9fa229e)" style="fill: #0000ff"/>
   </g>
   <g id="patch_87">
    <path d="M 262.904132 252 
L 265.209917 252 
L 265.209917 251.159896 
L 262.904132 251.159896 
z
" clip-path="url(#p1ca9fa229e)" style="fill: #0000ff"/>
   </g>
   <g id="patch_88">
    <path d="M 265.209917 252 
L 267.515702 252 
L 267.515702 250.319791 
L 265.209917 250.319791 
z
" clip-path="url(#p1ca9fa229e)" style="fill: #0000ff"/>
   </g>
   <g id="patch_89">
    <path d="M 267.515702 252 
L 269.821488 252 
L 269.821488 251.159896 
L 267.515702 251.159896 
z
" clip-path="url(#p1ca9fa229e)" style="fill: #0000ff"/>
   </g>
   <g id="patch_90">
    <path d="M 269.821488 252 
L 272.127273 252 
L 272.127273 250.739844 
L 269.821488 250.739844 
z
" clip-path="url(#p1ca9fa229e)" style="fill: #0000ff"/>
   </g>
   <g id="patch_91">
    <path d="M 272.127273 252 
L 274.433058 252 
L 274.433058 251.159896 
L 272.127273 251.159896 
z
" clip-path="url(#p1ca9fa229e)" style="fill: #0000ff"/>
   </g>
   <g id="patch_92">
    <path d="M 274.433058 252 
L 276.738843 252 
L 276.738843 250.739844 
L 274.433058 250.739844 
z
" clip-path="url(#p1ca9fa229e)" style="fill: #0000ff"/>
   </g>
   <g id="patch_93">
    <path d="M 276.738843 252 
L 279.044628 252 
L 279.044628 250.739844 
L 276.738843 250.739844 
z
" clip-path="url(#p1ca9fa229e)" style="fill: #0000ff"/>
   </g>
   <g id="patch_94">
    <path d="M 279.044628 252 
L 281.350413 252 
L 281.350413 251.579948 
L 279.044628 251.579948 
z
" clip-path="url(#p1ca9fa229e)" style="fill: #0000ff"/>
   </g>
   <g id="patch_95">
    <path d="M 281.350413 252 
L 283.656198 252 
L 283.656198 249.899739 
L 281.350413 249.899739 
z
" clip-path="url(#p1ca9fa229e)" style="fill: #0000ff"/>
   </g>
   <g id="patch_96">
    <path d="M 283.656198 252 
L 285.961983 252 
L 285.961983 250.319791 
L 283.656198 250.319791 
z
" clip-path="url(#p1ca9fa229e)" style="fill: #0000ff"/>
   </g>
   <g id="patch_97">
    <path d="M 285.961983 252 
L 288.267769 252 
L 288.267769 251.579948 
L 285.961983 251.579948 
z
" clip-path="url(#p1ca9fa229e)" style="fill: #0000ff"/>
   </g>
   <g id="patch_98">
    <path d="M 288.267769 252 
L 290.573554 252 
L 290.573554 251.159896 
L 288.267769 251.159896 
z
" clip-path="url(#p1ca9fa229e)" style="fill: #0000ff"/>
   </g>
   <g id="patch_99">
    <path d="M 290.573554 252 
L 292.879339 252 
L 292.879339 251.579948 
L 290.573554 251.579948 
z
" clip-path="url(#p1ca9fa229e)" style="fill: #0000ff"/>
   </g>
   <g id="patch_100">
    <path d="M 292.879339 252 
L 295.185124 252 
L 295.185124 250.739844 
L 292.879339 250.739844 
z
" clip-path="url(#p1ca9fa229e)" style="fill: #0000ff"/>
   </g>
   <g id="patch_101">
    <path d="M 295.185124 252 
L 297.490909 252 
L 297.490909 251.159896 
L 295.185124 251.159896 
z
" clip-path="url(#p1ca9fa229e)" style="fill: #0000ff"/>
   </g>
   <g id="patch_102">
    <path d="M 297.490909 252 
L 299.796694 252 
L 299.796694 251.579948 
L 297.490909 251.579948 
z
" clip-path="url(#p1ca9fa229e)" style="fill: #0000ff"/>
   </g>
   <g id="patch_103">
    <path d="M 299.796694 252 
L 302.102479 252 
L 302.102479 252 
L 299.796694 252 
z
" clip-path="url(#p1ca9fa229e)" style="fill: #0000ff"/>
   </g>
   <g id="patch_104">
    <path d="M 302.102479 252 
L 304.408264 252 
L 304.408264 251.159896 
L 302.102479 251.159896 
z
" clip-path="url(#p1ca9fa229e)" style="fill: #0000ff"/>
   </g>
   <g id="patch_105">
    <path d="M 304.408264 252 
L 306.71405 252 
L 306.71405 251.159896 
L 304.408264 251.159896 
z
" clip-path="url(#p1ca9fa229e)" style="fill: #0000ff"/>
   </g>
   <g id="patch_106">
    <path d="M 306.71405 252 
L 309.019835 252 
L 309.019835 252 
L 306.71405 252 
z
" clip-path="url(#p1ca9fa229e)" style="fill: #0000ff"/>
   </g>
   <g id="patch_107">
    <path d="M 309.019835 252 
L 311.32562 252 
L 311.32562 251.579948 
L 309.019835 251.579948 
z
" clip-path="url(#p1ca9fa229e)" style="fill: #0000ff"/>
   </g>
   <g id="patch_108">
    <path d="M 311.32562 252 
L 313.631405 252 
L 313.631405 251.159896 
L 311.32562 251.159896 
z
" clip-path="url(#p1ca9fa229e)" style="fill: #0000ff"/>
   </g>
   <g id="patch_109">
    <path d="M 313.631405 252 
L 315.93719 252 
L 315.93719 252 
L 313.631405 252 
z
" clip-path="url(#p1ca9fa229e)" style="fill: #0000ff"/>
   </g>
   <g id="patch_110">
    <path d="M 315.93719 252 
L 318.242975 252 
L 318.242975 251.579948 
L 315.93719 251.579948 
z
" clip-path="url(#p1ca9fa229e)" style="fill: #0000ff"/>
   </g>
   <g id="patch_111">
    <path d="M 318.242975 252 
L 320.54876 252 
L 320.54876 251.159896 
L 318.242975 251.159896 
z
" clip-path="url(#p1ca9fa229e)" style="fill: #0000ff"/>
   </g>
   <g id="patch_112">
    <path d="M 320.54876 252 
L 322.854545 252 
L 322.854545 252 
L 320.54876 252 
z
" clip-path="url(#p1ca9fa229e)" style="fill: #0000ff"/>
   </g>
   <g id="patch_113">
    <path d="M 322.854545 252 
L 325.160331 252 
L 325.160331 251.579948 
L 322.854545 251.579948 
z
" clip-path="url(#p1ca9fa229e)" style="fill: #0000ff"/>
   </g>
   <g id="patch_114">
    <path d="M 325.160331 252 
L 327.466116 252 
L 327.466116 252 
L 325.160331 252 
z
" clip-path="url(#p1ca9fa229e)" style="fill: #0000ff"/>
   </g>
   <g id="patch_115">
    <path d="M 327.466116 252 
L 329.771901 252 
L 329.771901 252 
L 327.466116 252 
z
" clip-path="url(#p1ca9fa229e)" style="fill: #0000ff"/>
   </g>
   <g id="patch_116">
    <path d="M 329.771901 252 
L 332.077686 252 
L 332.077686 252 
L 329.771901 252 
z
" clip-path="url(#p1ca9fa229e)" style="fill: #0000ff"/>
   </g>
   <g id="patch_117">
    <path d="M 332.077686 252 
L 334.383471 252 
L 334.383471 252 
L 332.077686 252 
z
" clip-path="url(#p1ca9fa229e)" style="fill: #0000ff"/>
   </g>
   <g id="patch_118">
    <path d="M 334.383471 252 
L 336.689256 252 
L 336.689256 252 
L 334.383471 252 
z
" clip-path="url(#p1ca9fa229e)" style="fill: #0000ff"/>
   </g>
   <g id="patch_119">
    <path d="M 336.689256 252 
L 338.995041 252 
L 338.995041 252 
L 336.689256 252 
z
" clip-path="url(#p1ca9fa229e)" style="fill: #0000ff"/>
   </g>
   <g id="patch_120">
    <path d="M 338.995041 252 
L 341.300826 252 
L 341.300826 252 
L 338.995041 252 
z
" clip-path="url(#p1ca9fa229e)" style="fill: #0000ff"/>
   </g>
   <g id="patch_121">
    <path d="M 341.300826 252 
L 343.606612 252 
L 343.606612 252 
L 341.300826 252 
z
" clip-path="url(#p1ca9fa229e)" style="fill: #0000ff"/>
   </g>
   <g id="patch_122">
    <path d="M 343.606612 252 
L 345.912397 252 
L 345.912397 252 
L 343.606612 252 
z
" clip-path="url(#p1ca9fa229e)" style="fill: #0000ff"/>
   </g>
   <g id="patch_123">
    <path d="M 345.912397 252 
L 348.218182 252 
L 348.218182 252 
L 345.912397 252 
z
" clip-path="url(#p1ca9fa229e)" style="fill: #0000ff"/>
   </g>
   <g id="patch_124">
    <path d="M 348.218182 252 
L 350.523967 252 
L 350.523967 252 
L 348.218182 252 
z
" clip-path="url(#p1ca9fa229e)" style="fill: #0000ff"/>
   </g>
   <g id="patch_125">
    <path d="M 350.523967 252 
L 352.829752 252 
L 352.829752 252 
L 350.523967 252 
z
" clip-path="url(#p1ca9fa229e)" style="fill: #0000ff"/>
   </g>
   <g id="patch_126">
    <path d="M 352.829752 252 
L 355.135537 252 
L 355.135537 251.159896 
L 352.829752 251.159896 
z
" clip-path="url(#p1ca9fa229e)" style="fill: #0000ff"/>
   </g>
   <g id="patch_127">
    <path d="M 355.135537 252 
L 357.441322 252 
L 357.441322 252 
L 355.135537 252 
z
" clip-path="url(#p1ca9fa229e)" style="fill: #0000ff"/>
   </g>
   <g id="patch_128">
    <path d="M 357.441322 252 
L 359.747107 252 
L 359.747107 252 
L 357.441322 252 
z
" clip-path="url(#p1ca9fa229e)" style="fill: #0000ff"/>
   </g>
   <g id="patch_129">
    <path d="M 359.747107 252 
L 362.052893 252 
L 362.052893 252 
L 359.747107 252 
z
" clip-path="url(#p1ca9fa229e)" style="fill: #0000ff"/>
   </g>
   <g id="patch_130">
    <path d="M 362.052893 252 
L 364.358678 252 
L 364.358678 252 
L 362.052893 252 
z
" clip-path="url(#p1ca9fa229e)" style="fill: #0000ff"/>
   </g>
   <g id="patch_131">
    <path d="M 364.358678 252 
L 366.664463 252 
L 366.664463 252 
L 364.358678 252 
z
" clip-path="url(#p1ca9fa229e)" style="fill: #0000ff"/>
   </g>
   <g id="patch_132">
    <path d="M 366.664463 252 
L 368.970248 252 
L 368.970248 252 
L 366.664463 252 
z
" clip-path="url(#p1ca9fa229e)" style="fill: #0000ff"/>
   </g>
   <g id="patch_133">
    <path d="M 368.970248 252 
L 371.276033 252 
L 371.276033 252 
L 368.970248 252 
z
" clip-path="url(#p1ca9fa229e)" style="fill: #0000ff"/>
   </g>
   <g id="patch_134">
    <path d="M 371.276033 252 
L 373.581818 252 
L 373.581818 251.579948 
L 371.276033 251.579948 
z
" clip-path="url(#p1ca9fa229e)" style="fill: #0000ff"/>
   </g>
   <g id="matplotlib.axis_1">
    <g id="xtick_1">
     <g id="line2d_1">
      <path d="M 83.052893 252 
L 83.052893 34.56 
" clip-path="url(#p1ca9fa229e)" style="fill: none; stroke: #b0b0b0; stroke-width: 0.8; stroke-linecap: square"/>
     </g>
     <g id="line2d_2">
      <defs>
       <path id="mec4f5f890a" d="M 0 0 
L 0 3.5 
" style="stroke: #000000; stroke-width: 0.8"/>
      </defs>
      <g>
       <use xlink:href="#mec4f5f890a" x="83.052893" y="252" style="stroke: #000000; stroke-width: 0.8"/>
      </g>
     </g>
     <g id="text_1">
      <!-- 20 -->
      <g transform="translate(76.690393 266.598437) scale(0.1 -0.1)">
       <defs>
        <path id="DejaVuSans-32" d="M 1228 531 
L 3431 531 
L 3431 0 
L 469 0 
L 469 531 
Q 828 903 1448 1529 
Q 2069 2156 2228 2338 
Q 2531 2678 2651 2914 
Q 2772 3150 2772 3378 
Q 2772 3750 2511 3984 
Q 2250 4219 1831 4219 
Q 1534 4219 1204 4116 
Q 875 4013 500 3803 
L 500 4441 
Q 881 4594 1212 4672 
Q 1544 4750 1819 4750 
Q 2544 4750 2975 4387 
Q 3406 4025 3406 3419 
Q 3406 3131 3298 2873 
Q 3191 2616 2906 2266 
Q 2828 2175 2409 1742 
Q 1991 1309 1228 531 
z
" transform="scale(0.015625)"/>
        <path id="DejaVuSans-30" d="M 2034 4250 
Q 1547 4250 1301 3770 
Q 1056 3291 1056 2328 
Q 1056 1369 1301 889 
Q 1547 409 2034 409 
Q 2525 409 2770 889 
Q 3016 1369 3016 2328 
Q 3016 3291 2770 3770 
Q 2525 4250 2034 4250 
z
M 2034 4750 
Q 2819 4750 3233 4129 
Q 3647 3509 3647 2328 
Q 3647 1150 3233 529 
Q 2819 -91 2034 -91 
Q 1250 -91 836 529 
Q 422 1150 422 2328 
Q 422 3509 836 4129 
Q 1250 4750 2034 4750 
z
" transform="scale(0.015625)"/>
       </defs>
       <use xlink:href="#DejaVuSans-32"/>
       <use xlink:href="#DejaVuSans-30" x="63.623047"/>
      </g>
     </g>
    </g>
    <g id="xtick_2">
     <g id="line2d_3">
      <path d="M 129.168595 252 
L 129.168595 34.56 
" clip-path="url(#p1ca9fa229e)" style="fill: none; stroke: #b0b0b0; stroke-width: 0.8; stroke-linecap: square"/>
     </g>
     <g id="line2d_4">
      <g>
       <use xlink:href="#mec4f5f890a" x="129.168595" y="252" style="stroke: #000000; stroke-width: 0.8"/>
      </g>
     </g>
     <g id="text_2">
      <!-- 40 -->
      <g transform="translate(122.806095 266.598437) scale(0.1 -0.1)">
       <defs>
        <path id="DejaVuSans-34" d="M 2419 4116 
L 825 1625 
L 2419 1625 
L 2419 4116 
z
M 2253 4666 
L 3047 4666 
L 3047 1625 
L 3713 1625 
L 3713 1100 
L 3047 1100 
L 3047 0 
L 2419 0 
L 2419 1100 
L 313 1100 
L 313 1709 
L 2253 4666 
z
" transform="scale(0.015625)"/>
       </defs>
       <use xlink:href="#DejaVuSans-34"/>
       <use xlink:href="#DejaVuSans-30" x="63.623047"/>
      </g>
     </g>
    </g>
    <g id="xtick_3">
     <g id="line2d_5">
      <path d="M 175.284298 252 
L 175.284298 34.56 
" clip-path="url(#p1ca9fa229e)" style="fill: none; stroke: #b0b0b0; stroke-width: 0.8; stroke-linecap: square"/>
     </g>
     <g id="line2d_6">
      <g>
       <use xlink:href="#mec4f5f890a" x="175.284298" y="252" style="stroke: #000000; stroke-width: 0.8"/>
      </g>
     </g>
     <g id="text_3">
      <!-- 60 -->
      <g transform="translate(168.921798 266.598437) scale(0.1 -0.1)">
       <defs>
        <path id="DejaVuSans-36" d="M 2113 2584 
Q 1688 2584 1439 2293 
Q 1191 2003 1191 1497 
Q 1191 994 1439 701 
Q 1688 409 2113 409 
Q 2538 409 2786 701 
Q 3034 994 3034 1497 
Q 3034 2003 2786 2293 
Q 2538 2584 2113 2584 
z
M 3366 4563 
L 3366 3988 
Q 3128 4100 2886 4159 
Q 2644 4219 2406 4219 
Q 1781 4219 1451 3797 
Q 1122 3375 1075 2522 
Q 1259 2794 1537 2939 
Q 1816 3084 2150 3084 
Q 2853 3084 3261 2657 
Q 3669 2231 3669 1497 
Q 3669 778 3244 343 
Q 2819 -91 2113 -91 
Q 1303 -91 875 529 
Q 447 1150 447 2328 
Q 447 3434 972 4092 
Q 1497 4750 2381 4750 
Q 2619 4750 2861 4703 
Q 3103 4656 3366 4563 
z
" transform="scale(0.015625)"/>
       </defs>
       <use xlink:href="#DejaVuSans-36"/>
       <use xlink:href="#DejaVuSans-30" x="63.623047"/>
      </g>
     </g>
    </g>
    <g id="xtick_4">
     <g id="line2d_7">
      <path d="M 221.4 252 
L 221.4 34.56 
" clip-path="url(#p1ca9fa229e)" style="fill: none; stroke: #b0b0b0; stroke-width: 0.8; stroke-linecap: square"/>
     </g>
     <g id="line2d_8">
      <g>
       <use xlink:href="#mec4f5f890a" x="221.4" y="252" style="stroke: #000000; stroke-width: 0.8"/>
      </g>
     </g>
     <g id="text_4">
      <!-- 80 -->
      <g transform="translate(215.0375 266.598437) scale(0.1 -0.1)">
       <defs>
        <path id="DejaVuSans-38" d="M 2034 2216 
Q 1584 2216 1326 1975 
Q 1069 1734 1069 1313 
Q 1069 891 1326 650 
Q 1584 409 2034 409 
Q 2484 409 2743 651 
Q 3003 894 3003 1313 
Q 3003 1734 2745 1975 
Q 2488 2216 2034 2216 
z
M 1403 2484 
Q 997 2584 770 2862 
Q 544 3141 544 3541 
Q 544 4100 942 4425 
Q 1341 4750 2034 4750 
Q 2731 4750 3128 4425 
Q 3525 4100 3525 3541 
Q 3525 3141 3298 2862 
Q 3072 2584 2669 2484 
Q 3125 2378 3379 2068 
Q 3634 1759 3634 1313 
Q 3634 634 3220 271 
Q 2806 -91 2034 -91 
Q 1263 -91 848 271 
Q 434 634 434 1313 
Q 434 1759 690 2068 
Q 947 2378 1403 2484 
z
M 1172 3481 
Q 1172 3119 1398 2916 
Q 1625 2713 2034 2713 
Q 2441 2713 2670 2916 
Q 2900 3119 2900 3481 
Q 2900 3844 2670 4047 
Q 2441 4250 2034 4250 
Q 1625 4250 1398 4047 
Q 1172 3844 1172 3481 
z
" transform="scale(0.015625)"/>
       </defs>
       <use xlink:href="#DejaVuSans-38"/>
       <use xlink:href="#DejaVuSans-30" x="63.623047"/>
      </g>
     </g>
    </g>
    <g id="xtick_5">
     <g id="line2d_9">
      <path d="M 267.515702 252 
L 267.515702 34.56 
" clip-path="url(#p1ca9fa229e)" style="fill: none; stroke: #b0b0b0; stroke-width: 0.8; stroke-linecap: square"/>
     </g>
     <g id="line2d_10">
      <g>
       <use xlink:href="#mec4f5f890a" x="267.515702" y="252" style="stroke: #000000; stroke-width: 0.8"/>
      </g>
     </g>
     <g id="text_5">
      <!-- 100 -->
      <g transform="translate(257.971952 266.598437) scale(0.1 -0.1)">
       <defs>
        <path id="DejaVuSans-31" d="M 794 531 
L 1825 531 
L 1825 4091 
L 703 3866 
L 703 4441 
L 1819 4666 
L 2450 4666 
L 2450 531 
L 3481 531 
L 3481 0 
L 794 0 
L 794 531 
z
" transform="scale(0.015625)"/>
       </defs>
       <use xlink:href="#DejaVuSans-31"/>
       <use xlink:href="#DejaVuSans-30" x="63.623047"/>
       <use xlink:href="#DejaVuSans-30" x="127.246094"/>
      </g>
     </g>
    </g>
    <g id="xtick_6">
     <g id="line2d_11">
      <path d="M 313.631405 252 
L 313.631405 34.56 
" clip-path="url(#p1ca9fa229e)" style="fill: none; stroke: #b0b0b0; stroke-width: 0.8; stroke-linecap: square"/>
     </g>
     <g id="line2d_12">
      <g>
       <use xlink:href="#mec4f5f890a" x="313.631405" y="252" style="stroke: #000000; stroke-width: 0.8"/>
      </g>
     </g>
     <g id="text_6">
      <!-- 120 -->
      <g transform="translate(304.087655 266.598437) scale(0.1 -0.1)">
       <use xlink:href="#DejaVuSans-31"/>
       <use xlink:href="#DejaVuSans-32" x="63.623047"/>
       <use xlink:href="#DejaVuSans-30" x="127.246094"/>
      </g>
     </g>
    </g>
    <g id="xtick_7">
     <g id="line2d_13">
      <path d="M 359.747107 252 
L 359.747107 34.56 
" clip-path="url(#p1ca9fa229e)" style="fill: none; stroke: #b0b0b0; stroke-width: 0.8; stroke-linecap: square"/>
     </g>
     <g id="line2d_14">
      <g>
       <use xlink:href="#mec4f5f890a" x="359.747107" y="252" style="stroke: #000000; stroke-width: 0.8"/>
      </g>
     </g>
     <g id="text_7">
      <!-- 140 -->
      <g transform="translate(350.203357 266.598437) scale(0.1 -0.1)">
       <use xlink:href="#DejaVuSans-31"/>
       <use xlink:href="#DejaVuSans-34" x="63.623047"/>
       <use xlink:href="#DejaVuSans-30" x="127.246094"/>
      </g>
     </g>
    </g>
    <g id="text_8">
     <!-- # of photons -->
     <g transform="translate(189.017188 280.276563) scale(0.1 -0.1)">
      <defs>
       <path id="DejaVuSans-23" d="M 3272 2816 
L 2363 2816 
L 2100 1772 
L 3016 1772 
L 3272 2816 
z
M 2803 4594 
L 2478 3297 
L 3391 3297 
L 3719 4594 
L 4219 4594 
L 3897 3297 
L 4872 3297 
L 4872 2816 
L 3775 2816 
L 3519 1772 
L 4513 1772 
L 4513 1294 
L 3397 1294 
L 3072 0 
L 2572 0 
L 2894 1294 
L 1978 1294 
L 1656 0 
L 1153 0 
L 1478 1294 
L 494 1294 
L 494 1772 
L 1594 1772 
L 1856 2816 
L 850 2816 
L 850 3297 
L 1978 3297 
L 2297 4594 
L 2803 4594 
z
" transform="scale(0.015625)"/>
       <path id="DejaVuSans-20" transform="scale(0.015625)"/>
       <path id="DejaVuSans-6f" d="M 1959 3097 
Q 1497 3097 1228 2736 
Q 959 2375 959 1747 
Q 959 1119 1226 758 
Q 1494 397 1959 397 
Q 2419 397 2687 759 
Q 2956 1122 2956 1747 
Q 2956 2369 2687 2733 
Q 2419 3097 1959 3097 
z
M 1959 3584 
Q 2709 3584 3137 3096 
Q 3566 2609 3566 1747 
Q 3566 888 3137 398 
Q 2709 -91 1959 -91 
Q 1206 -91 779 398 
Q 353 888 353 1747 
Q 353 2609 779 3096 
Q 1206 3584 1959 3584 
z
" transform="scale(0.015625)"/>
       <path id="DejaVuSans-66" d="M 2375 4863 
L 2375 4384 
L 1825 4384 
Q 1516 4384 1395 4259 
Q 1275 4134 1275 3809 
L 1275 3500 
L 2222 3500 
L 2222 3053 
L 1275 3053 
L 1275 0 
L 697 0 
L 697 3053 
L 147 3053 
L 147 3500 
L 697 3500 
L 697 3744 
Q 697 4328 969 4595 
Q 1241 4863 1831 4863 
L 2375 4863 
z
" transform="scale(0.015625)"/>
       <path id="DejaVuSans-70" d="M 1159 525 
L 1159 -1331 
L 581 -1331 
L 581 3500 
L 1159 3500 
L 1159 2969 
Q 1341 3281 1617 3432 
Q 1894 3584 2278 3584 
Q 2916 3584 3314 3078 
Q 3713 2572 3713 1747 
Q 3713 922 3314 415 
Q 2916 -91 2278 -91 
Q 1894 -91 1617 61 
Q 1341 213 1159 525 
z
M 3116 1747 
Q 3116 2381 2855 2742 
Q 2594 3103 2138 3103 
Q 1681 3103 1420 2742 
Q 1159 2381 1159 1747 
Q 1159 1113 1420 752 
Q 1681 391 2138 391 
Q 2594 391 2855 752 
Q 3116 1113 3116 1747 
z
" transform="scale(0.015625)"/>
       <path id="DejaVuSans-68" d="M 3513 2113 
L 3513 0 
L 2938 0 
L 2938 2094 
Q 2938 2591 2744 2837 
Q 2550 3084 2163 3084 
Q 1697 3084 1428 2787 
Q 1159 2491 1159 1978 
L 1159 0 
L 581 0 
L 581 4863 
L 1159 4863 
L 1159 2956 
Q 1366 3272 1645 3428 
Q 1925 3584 2291 3584 
Q 2894 3584 3203 3211 
Q 3513 2838 3513 2113 
z
" transform="scale(0.015625)"/>
       <path id="DejaVuSans-74" d="M 1172 4494 
L 1172 3500 
L 2356 3500 
L 2356 3053 
L 1172 3053 
L 1172 1153 
Q 1172 725 1289 603 
Q 1406 481 1766 481 
L 2356 481 
L 2356 0 
L 1766 0 
Q 1100 0 847 248 
Q 594 497 594 1153 
L 594 3053 
L 172 3053 
L 172 3500 
L 594 3500 
L 594 4494 
L 1172 4494 
z
" transform="scale(0.015625)"/>
       <path id="DejaVuSans-6e" d="M 3513 2113 
L 3513 0 
L 2938 0 
L 2938 2094 
Q 2938 2591 2744 2837 
Q 2550 3084 2163 3084 
Q 1697 3084 1428 2787 
Q 1159 2491 1159 1978 
L 1159 0 
L 581 0 
L 581 3500 
L 1159 3500 
L 1159 2956 
Q 1366 3272 1645 3428 
Q 1925 3584 2291 3584 
Q 2894 3584 3203 3211 
Q 3513 2838 3513 2113 
z
" transform="scale(0.015625)"/>
       <path id="DejaVuSans-73" d="M 2834 3397 
L 2834 2853 
Q 2591 2978 2328 3040 
Q 2066 3103 1784 3103 
Q 1356 3103 1142 2972 
Q 928 2841 928 2578 
Q 928 2378 1081 2264 
Q 1234 2150 1697 2047 
L 1894 2003 
Q 2506 1872 2764 1633 
Q 3022 1394 3022 966 
Q 3022 478 2636 193 
Q 2250 -91 1575 -91 
Q 1294 -91 989 -36 
Q 684 19 347 128 
L 347 722 
Q 666 556 975 473 
Q 1284 391 1588 391 
Q 1994 391 2212 530 
Q 2431 669 2431 922 
Q 2431 1156 2273 1281 
Q 2116 1406 1581 1522 
L 1381 1569 
Q 847 1681 609 1914 
Q 372 2147 372 2553 
Q 372 3047 722 3315 
Q 1072 3584 1716 3584 
Q 2034 3584 2315 3537 
Q 2597 3491 2834 3397 
z
" transform="scale(0.015625)"/>
      </defs>
      <use xlink:href="#DejaVuSans-23"/>
      <use xlink:href="#DejaVuSans-20" x="83.789062"/>
      <use xlink:href="#DejaVuSans-6f" x="115.576172"/>
      <use xlink:href="#DejaVuSans-66" x="176.757812"/>
      <use xlink:href="#DejaVuSans-20" x="211.962891"/>
      <use xlink:href="#DejaVuSans-70" x="243.75"/>
      <use xlink:href="#DejaVuSans-68" x="307.226562"/>
      <use xlink:href="#DejaVuSans-6f" x="370.605469"/>
      <use xlink:href="#DejaVuSans-74" x="431.787109"/>
      <use xlink:href="#DejaVuSans-6f" x="470.996094"/>
      <use xlink:href="#DejaVuSans-6e" x="532.177734"/>
      <use xlink:href="#DejaVuSans-73" x="595.556641"/>
     </g>
    </g>
   </g>
   <g id="matplotlib.axis_2">
    <g id="ytick_1">
     <g id="line2d_15">
      <path d="M 54 252 
L 388.8 252 
" clip-path="url(#p1ca9fa229e)" style="fill: none; stroke: #b0b0b0; stroke-width: 0.8; stroke-linecap: square"/>
     </g>
     <g id="line2d_16">
      <defs>
       <path id="m9594d7e770" d="M 0 0 
L -3.5 0 
" style="stroke: #000000; stroke-width: 0.8"/>
      </defs>
      <g>
       <use xlink:href="#m9594d7e770" x="54" y="252" style="stroke: #000000; stroke-width: 0.8"/>
      </g>
     </g>
     <g id="text_9">
      <!-- 0 -->
      <g transform="translate(40.6375 255.799219) scale(0.1 -0.1)">
       <use xlink:href="#DejaVuSans-30"/>
      </g>
     </g>
    </g>
    <g id="ytick_2">
     <g id="line2d_17">
      <path d="M 54 209.994784 
L 388.8 209.994784 
" clip-path="url(#p1ca9fa229e)" style="fill: none; stroke: #b0b0b0; stroke-width: 0.8; stroke-linecap: square"/>
     </g>
     <g id="line2d_18">
      <g>
       <use xlink:href="#m9594d7e770" x="54" y="209.994784" style="stroke: #000000; stroke-width: 0.8"/>
      </g>
     </g>
     <g id="text_10">
      <!-- 100 -->
      <g transform="translate(27.9125 213.794003) scale(0.1 -0.1)">
       <use xlink:href="#DejaVuSans-31"/>
       <use xlink:href="#DejaVuSans-30" x="63.623047"/>
       <use xlink:href="#DejaVuSans-30" x="127.246094"/>
      </g>
     </g>
    </g>
    <g id="ytick_3">
     <g id="line2d_19">
      <path d="M 54 167.989568 
L 388.8 167.989568 
" clip-path="url(#p1ca9fa229e)" style="fill: none; stroke: #b0b0b0; stroke-width: 0.8; stroke-linecap: square"/>
     </g>
     <g id="line2d_20">
      <g>
       <use xlink:href="#m9594d7e770" x="54" y="167.989568" style="stroke: #000000; stroke-width: 0.8"/>
      </g>
     </g>
     <g id="text_11">
      <!-- 200 -->
      <g transform="translate(27.9125 171.788787) scale(0.1 -0.1)">
       <use xlink:href="#DejaVuSans-32"/>
       <use xlink:href="#DejaVuSans-30" x="63.623047"/>
       <use xlink:href="#DejaVuSans-30" x="127.246094"/>
      </g>
     </g>
    </g>
    <g id="ytick_4">
     <g id="line2d_21">
      <path d="M 54 125.984352 
L 388.8 125.984352 
" clip-path="url(#p1ca9fa229e)" style="fill: none; stroke: #b0b0b0; stroke-width: 0.8; stroke-linecap: square"/>
     </g>
     <g id="line2d_22">
      <g>
       <use xlink:href="#m9594d7e770" x="54" y="125.984352" style="stroke: #000000; stroke-width: 0.8"/>
      </g>
     </g>
     <g id="text_12">
      <!-- 300 -->
      <g transform="translate(27.9125 129.783571) scale(0.1 -0.1)">
       <defs>
        <path id="DejaVuSans-33" d="M 2597 2516 
Q 3050 2419 3304 2112 
Q 3559 1806 3559 1356 
Q 3559 666 3084 287 
Q 2609 -91 1734 -91 
Q 1441 -91 1130 -33 
Q 819 25 488 141 
L 488 750 
Q 750 597 1062 519 
Q 1375 441 1716 441 
Q 2309 441 2620 675 
Q 2931 909 2931 1356 
Q 2931 1769 2642 2001 
Q 2353 2234 1838 2234 
L 1294 2234 
L 1294 2753 
L 1863 2753 
Q 2328 2753 2575 2939 
Q 2822 3125 2822 3475 
Q 2822 3834 2567 4026 
Q 2313 4219 1838 4219 
Q 1578 4219 1281 4162 
Q 984 4106 628 3988 
L 628 4550 
Q 988 4650 1302 4700 
Q 1616 4750 1894 4750 
Q 2613 4750 3031 4423 
Q 3450 4097 3450 3541 
Q 3450 3153 3228 2886 
Q 3006 2619 2597 2516 
z
" transform="scale(0.015625)"/>
       </defs>
       <use xlink:href="#DejaVuSans-33"/>
       <use xlink:href="#DejaVuSans-30" x="63.623047"/>
       <use xlink:href="#DejaVuSans-30" x="127.246094"/>
      </g>
     </g>
    </g>
    <g id="ytick_5">
     <g id="line2d_23">
      <path d="M 54 83.979136 
L 388.8 83.979136 
" clip-path="url(#p1ca9fa229e)" style="fill: none; stroke: #b0b0b0; stroke-width: 0.8; stroke-linecap: square"/>
     </g>
     <g id="line2d_24">
      <g>
       <use xlink:href="#m9594d7e770" x="54" y="83.979136" style="stroke: #000000; stroke-width: 0.8"/>
      </g>
     </g>
     <g id="text_13">
      <!-- 400 -->
      <g transform="translate(27.9125 87.778355) scale(0.1 -0.1)">
       <use xlink:href="#DejaVuSans-34"/>
       <use xlink:href="#DejaVuSans-30" x="63.623047"/>
       <use xlink:href="#DejaVuSans-30" x="127.246094"/>
      </g>
     </g>
    </g>
    <g id="ytick_6">
     <g id="line2d_25">
      <path d="M 54 41.973921 
L 388.8 41.973921 
" clip-path="url(#p1ca9fa229e)" style="fill: none; stroke: #b0b0b0; stroke-width: 0.8; stroke-linecap: square"/>
     </g>
     <g id="line2d_26">
      <g>
       <use xlink:href="#m9594d7e770" x="54" y="41.973921" style="stroke: #000000; stroke-width: 0.8"/>
      </g>
     </g>
     <g id="text_14">
      <!-- 500 -->
      <g transform="translate(27.9125 45.773139) scale(0.1 -0.1)">
       <defs>
        <path id="DejaVuSans-35" d="M 691 4666 
L 3169 4666 
L 3169 4134 
L 1269 4134 
L 1269 2991 
Q 1406 3038 1543 3061 
Q 1681 3084 1819 3084 
Q 2600 3084 3056 2656 
Q 3513 2228 3513 1497 
Q 3513 744 3044 326 
Q 2575 -91 1722 -91 
Q 1428 -91 1123 -41 
Q 819 9 494 109 
L 494 744 
Q 775 591 1075 516 
Q 1375 441 1709 441 
Q 2250 441 2565 725 
Q 2881 1009 2881 1497 
Q 2881 1984 2565 2268 
Q 2250 2553 1709 2553 
Q 1456 2553 1204 2497 
Q 953 2441 691 2322 
L 691 4666 
z
" transform="scale(0.015625)"/>
       </defs>
       <use xlink:href="#DejaVuSans-35"/>
       <use xlink:href="#DejaVuSans-30" x="63.623047"/>
       <use xlink:href="#DejaVuSans-30" x="127.246094"/>
      </g>
     </g>
    </g>
    <g id="text_15">
     <!-- # of events -->
     <g transform="translate(21.832812 172.313594) rotate(-90) scale(0.1 -0.1)">
      <defs>
       <path id="DejaVuSans-65" d="M 3597 1894 
L 3597 1613 
L 953 1613 
Q 991 1019 1311 708 
Q 1631 397 2203 397 
Q 2534 397 2845 478 
Q 3156 559 3463 722 
L 3463 178 
Q 3153 47 2828 -22 
Q 2503 -91 2169 -91 
Q 1331 -91 842 396 
Q 353 884 353 1716 
Q 353 2575 817 3079 
Q 1281 3584 2069 3584 
Q 2775 3584 3186 3129 
Q 3597 2675 3597 1894 
z
M 3022 2063 
Q 3016 2534 2758 2815 
Q 2500 3097 2075 3097 
Q 1594 3097 1305 2825 
Q 1016 2553 972 2059 
L 3022 2063 
z
" transform="scale(0.015625)"/>
       <path id="DejaVuSans-76" d="M 191 3500 
L 800 3500 
L 1894 563 
L 2988 3500 
L 3597 3500 
L 2284 0 
L 1503 0 
L 191 3500 
z
" transform="scale(0.015625)"/>
      </defs>
      <use xlink:href="#DejaVuSans-23"/>
      <use xlink:href="#DejaVuSans-20" x="83.789062"/>
      <use xlink:href="#DejaVuSans-6f" x="115.576172"/>
      <use xlink:href="#DejaVuSans-66" x="176.757812"/>
      <use xlink:href="#DejaVuSans-20" x="211.962891"/>
      <use xlink:href="#DejaVuSans-65" x="243.75"/>
      <use xlink:href="#DejaVuSans-76" x="305.273438"/>
      <use xlink:href="#DejaVuSans-65" x="364.453125"/>
      <use xlink:href="#DejaVuSans-6e" x="425.976562"/>
      <use xlink:href="#DejaVuSans-74" x="489.355469"/>
      <use xlink:href="#DejaVuSans-73" x="528.564453"/>
     </g>
    </g>
   </g>
   <g id="patch_135">
    <path d="M 54 252 
L 54 34.56 
" style="fill: none; stroke: #000000; stroke-width: 0.8; stroke-linejoin: miter; stroke-linecap: square"/>
   </g>
   <g id="patch_136">
    <path d="M 388.8 252 
L 388.8 34.56 
" style="fill: none; stroke: #000000; stroke-width: 0.8; stroke-linejoin: miter; stroke-linecap: square"/>
   </g>
   <g id="patch_137">
    <path d="M 54 252 
L 388.8 252 
" style="fill: none; stroke: #000000; stroke-width: 0.8; stroke-linejoin: miter; stroke-linecap: square"/>
   </g>
   <g id="patch_138">
    <path d="M 54 34.56 
L 388.8 34.56 
" style="fill: none; stroke: #000000; stroke-width: 0.8; stroke-linejoin: miter; stroke-linecap: square"/>
   </g>
   <g id="text_16">
    <!-- $\mu=40.69,\ \sigma=12.150$ -->
    <g transform="translate(209.871074 161.688786) scale(0.14 -0.14)">
     <defs>
      <path id="DejaVuSans-Oblique-3bc" d="M -84 -1331 
L 856 3500 
L 1434 3500 
L 1009 1322 
Q 997 1256 987 1175 
Q 978 1094 978 1013 
Q 978 722 1161 565 
Q 1344 409 1684 409 
Q 2147 409 2431 671 
Q 2716 934 2816 1459 
L 3213 3500 
L 3788 3500 
L 3266 809 
Q 3253 750 3248 706 
Q 3244 663 3244 628 
Q 3244 531 3283 486 
Q 3322 441 3406 441 
Q 3438 441 3492 456 
Q 3547 472 3647 513 
L 3559 50 
Q 3422 -19 3297 -55 
Q 3172 -91 3053 -91 
Q 2847 -91 2730 40 
Q 2613 172 2613 403 
Q 2438 153 2195 31 
Q 1953 -91 1625 -91 
Q 1334 -91 1117 43 
Q 900 178 831 397 
L 494 -1331 
L -84 -1331 
z
" transform="scale(0.015625)"/>
      <path id="DejaVuSans-3d" d="M 678 2906 
L 4684 2906 
L 4684 2381 
L 678 2381 
L 678 2906 
z
M 678 1631 
L 4684 1631 
L 4684 1100 
L 678 1100 
L 678 1631 
z
" transform="scale(0.015625)"/>
      <path id="DejaVuSans-2e" d="M 684 794 
L 1344 794 
L 1344 0 
L 684 0 
L 684 794 
z
" transform="scale(0.015625)"/>
      <path id="DejaVuSans-39" d="M 703 97 
L 703 672 
Q 941 559 1184 500 
Q 1428 441 1663 441 
Q 2288 441 2617 861 
Q 2947 1281 2994 2138 
Q 2813 1869 2534 1725 
Q 2256 1581 1919 1581 
Q 1219 1581 811 2004 
Q 403 2428 403 3163 
Q 403 3881 828 4315 
Q 1253 4750 1959 4750 
Q 2769 4750 3195 4129 
Q 3622 3509 3622 2328 
Q 3622 1225 3098 567 
Q 2575 -91 1691 -91 
Q 1453 -91 1209 -44 
Q 966 3 703 97 
z
M 1959 2075 
Q 2384 2075 2632 2365 
Q 2881 2656 2881 3163 
Q 2881 3666 2632 3958 
Q 2384 4250 1959 4250 
Q 1534 4250 1286 3958 
Q 1038 3666 1038 3163 
Q 1038 2656 1286 2365 
Q 1534 2075 1959 2075 
z
" transform="scale(0.015625)"/>
      <path id="DejaVuSans-2c" d="M 750 794 
L 1409 794 
L 1409 256 
L 897 -744 
L 494 -744 
L 750 256 
L 750 794 
z
" transform="scale(0.015625)"/>
      <path id="DejaVuSans-Oblique-3c3" d="M 2219 3044 
Q 1744 3044 1422 2700 
Q 1081 2341 969 1747 
Q 844 1119 1044 756 
Q 1241 397 1706 397 
Q 2166 397 2503 759 
Q 2844 1122 2966 1747 
Q 3075 2319 2881 2700 
Q 2700 3044 2219 3044 
z
M 2309 3503 
L 4219 3500 
L 4106 2925 
L 3463 2925 
Q 3706 2438 3575 1747 
Q 3406 888 2884 400 
Q 2359 -91 1609 -91 
Q 856 -91 525 400 
Q 194 888 363 1747 
Q 528 2609 1050 3097 
Q 1484 3503 2309 3503 
z
" transform="scale(0.015625)"/>
     </defs>
     <use xlink:href="#DejaVuSans-Oblique-3bc" transform="translate(0 0.78125)"/>
     <use xlink:href="#DejaVuSans-3d" transform="translate(83.105469 0.78125)"/>
     <use xlink:href="#DejaVuSans-34" transform="translate(186.376953 0.78125)"/>
     <use xlink:href="#DejaVuSans-30" transform="translate(250 0.78125)"/>
     <use xlink:href="#DejaVuSans-2e" transform="translate(313.623047 0.78125)"/>
     <use xlink:href="#DejaVuSans-36" transform="translate(345.410156 0.78125)"/>
     <use xlink:href="#DejaVuSans-39" transform="translate(409.033203 0.78125)"/>
     <use xlink:href="#DejaVuSans-2c" transform="translate(472.65625 0.78125)"/>
     <use xlink:href="#DejaVuSans-Oblique-3c3" transform="translate(556.39616 0.78125)"/>
     <use xlink:href="#DejaVuSans-3d" transform="translate(639.257488 0.78125)"/>
     <use xlink:href="#DejaVuSans-31" transform="translate(742.528972 0.78125)"/>
     <use xlink:href="#DejaVuSans-32" transform="translate(806.152019 0.78125)"/>
     <use xlink:href="#DejaVuSans-2e" transform="translate(869.775066 0.78125)"/>
     <use xlink:href="#DejaVuSans-31" transform="translate(901.562175 0.78125)"/>
     <use xlink:href="#DejaVuSans-35" transform="translate(965.185222 0.78125)"/>
     <use xlink:href="#DejaVuSans-30" transform="translate(1028.808269 0.78125)"/>
    </g>
   </g>
   <g id="text_17">
    <!-- # of photons, 5GeV mu-, 1.5m length segment -->
    <g transform="translate(80.289375 28.56) scale(0.12 -0.12)">
     <defs>
      <path id="DejaVuSans-47" d="M 3809 666 
L 3809 1919 
L 2778 1919 
L 2778 2438 
L 4434 2438 
L 4434 434 
Q 4069 175 3628 42 
Q 3188 -91 2688 -91 
Q 1594 -91 976 548 
Q 359 1188 359 2328 
Q 359 3472 976 4111 
Q 1594 4750 2688 4750 
Q 3144 4750 3555 4637 
Q 3966 4525 4313 4306 
L 4313 3634 
Q 3963 3931 3569 4081 
Q 3175 4231 2741 4231 
Q 1884 4231 1454 3753 
Q 1025 3275 1025 2328 
Q 1025 1384 1454 906 
Q 1884 428 2741 428 
Q 3075 428 3337 486 
Q 3600 544 3809 666 
z
" transform="scale(0.015625)"/>
      <path id="DejaVuSans-56" d="M 1831 0 
L 50 4666 
L 709 4666 
L 2188 738 
L 3669 4666 
L 4325 4666 
L 2547 0 
L 1831 0 
z
" transform="scale(0.015625)"/>
      <path id="DejaVuSans-6d" d="M 3328 2828 
Q 3544 3216 3844 3400 
Q 4144 3584 4550 3584 
Q 5097 3584 5394 3201 
Q 5691 2819 5691 2113 
L 5691 0 
L 5113 0 
L 5113 2094 
Q 5113 2597 4934 2840 
Q 4756 3084 4391 3084 
Q 3944 3084 3684 2787 
Q 3425 2491 3425 1978 
L 3425 0 
L 2847 0 
L 2847 2094 
Q 2847 2600 2669 2842 
Q 2491 3084 2119 3084 
Q 1678 3084 1418 2786 
Q 1159 2488 1159 1978 
L 1159 0 
L 581 0 
L 581 3500 
L 1159 3500 
L 1159 2956 
Q 1356 3278 1631 3431 
Q 1906 3584 2284 3584 
Q 2666 3584 2933 3390 
Q 3200 3197 3328 2828 
z
" transform="scale(0.015625)"/>
      <path id="DejaVuSans-75" d="M 544 1381 
L 544 3500 
L 1119 3500 
L 1119 1403 
Q 1119 906 1312 657 
Q 1506 409 1894 409 
Q 2359 409 2629 706 
Q 2900 1003 2900 1516 
L 2900 3500 
L 3475 3500 
L 3475 0 
L 2900 0 
L 2900 538 
Q 2691 219 2414 64 
Q 2138 -91 1772 -91 
Q 1169 -91 856 284 
Q 544 659 544 1381 
z
M 1991 3584 
L 1991 3584 
z
" transform="scale(0.015625)"/>
      <path id="DejaVuSans-2d" d="M 313 2009 
L 1997 2009 
L 1997 1497 
L 313 1497 
L 313 2009 
z
" transform="scale(0.015625)"/>
      <path id="DejaVuSans-6c" d="M 603 4863 
L 1178 4863 
L 1178 0 
L 603 0 
L 603 4863 
z
" transform="scale(0.015625)"/>
      <path id="DejaVuSans-67" d="M 2906 1791 
Q 2906 2416 2648 2759 
Q 2391 3103 1925 3103 
Q 1463 3103 1205 2759 
Q 947 2416 947 1791 
Q 947 1169 1205 825 
Q 1463 481 1925 481 
Q 2391 481 2648 825 
Q 2906 1169 2906 1791 
z
M 3481 434 
Q 3481 -459 3084 -895 
Q 2688 -1331 1869 -1331 
Q 1566 -1331 1297 -1286 
Q 1028 -1241 775 -1147 
L 775 -588 
Q 1028 -725 1275 -790 
Q 1522 -856 1778 -856 
Q 2344 -856 2625 -561 
Q 2906 -266 2906 331 
L 2906 616 
Q 2728 306 2450 153 
Q 2172 0 1784 0 
Q 1141 0 747 490 
Q 353 981 353 1791 
Q 353 2603 747 3093 
Q 1141 3584 1784 3584 
Q 2172 3584 2450 3431 
Q 2728 3278 2906 2969 
L 2906 3500 
L 3481 3500 
L 3481 434 
z
" transform="scale(0.015625)"/>
     </defs>
     <use xlink:href="#DejaVuSans-23"/>
     <use xlink:href="#DejaVuSans-20" x="83.789062"/>
     <use xlink:href="#DejaVuSans-6f" x="115.576172"/>
     <use xlink:href="#DejaVuSans-66" x="176.757812"/>
     <use xlink:href="#DejaVuSans-20" x="211.962891"/>
     <use xlink:href="#DejaVuSans-70" x="243.75"/>
     <use xlink:href="#DejaVuSans-68" x="307.226562"/>
     <use xlink:href="#DejaVuSans-6f" x="370.605469"/>
     <use xlink:href="#DejaVuSans-74" x="431.787109"/>
     <use xlink:href="#DejaVuSans-6f" x="470.996094"/>
     <use xlink:href="#DejaVuSans-6e" x="532.177734"/>
     <use xlink:href="#DejaVuSans-73" x="595.556641"/>
     <use xlink:href="#DejaVuSans-2c" x="647.65625"/>
     <use xlink:href="#DejaVuSans-20" x="679.443359"/>
     <use xlink:href="#DejaVuSans-35" x="711.230469"/>
     <use xlink:href="#DejaVuSans-47" x="774.853516"/>
     <use xlink:href="#DejaVuSans-65" x="852.34375"/>
     <use xlink:href="#DejaVuSans-56" x="913.867188"/>
     <use xlink:href="#DejaVuSans-20" x="982.275391"/>
     <use xlink:href="#DejaVuSans-6d" x="1014.0625"/>
     <use xlink:href="#DejaVuSans-75" x="1111.474609"/>
     <use xlink:href="#DejaVuSans-2d" x="1174.853516"/>
     <use xlink:href="#DejaVuSans-2c" x="1210.9375"/>
     <use xlink:href="#DejaVuSans-20" x="1242.724609"/>
     <use xlink:href="#DejaVuSans-31" x="1274.511719"/>
     <use xlink:href="#DejaVuSans-2e" x="1338.134766"/>
     <use xlink:href="#DejaVuSans-35" x="1369.921875"/>
     <use xlink:href="#DejaVuSans-6d" x="1433.544922"/>
     <use xlink:href="#DejaVuSans-20" x="1530.957031"/>
     <use xlink:href="#DejaVuSans-6c" x="1562.744141"/>
     <use xlink:href="#DejaVuSans-65" x="1590.527344"/>
     <use xlink:href="#DejaVuSans-6e" x="1652.050781"/>
     <use xlink:href="#DejaVuSans-67" x="1715.429688"/>
     <use xlink:href="#DejaVuSans-74" x="1778.90625"/>
     <use xlink:href="#DejaVuSans-68" x="1818.115234"/>
     <use xlink:href="#DejaVuSans-20" x="1881.494141"/>
     <use xlink:href="#DejaVuSans-73" x="1913.28125"/>
     <use xlink:href="#DejaVuSans-65" x="1965.380859"/>
     <use xlink:href="#DejaVuSans-67" x="2026.904297"/>
     <use xlink:href="#DejaVuSans-6d" x="2090.380859"/>
     <use xlink:href="#DejaVuSans-65" x="2187.792969"/>
     <use xlink:href="#DejaVuSans-6e" x="2249.316406"/>
     <use xlink:href="#DejaVuSans-74" x="2312.695312"/>
    </g>
   </g>
  </g>
 </g>
 <defs>
  <clipPath id="p1ca9fa229e">
   <rect x="54" y="34.56" width="334.8" height="217.44"/>
  </clipPath>
 </defs>
</svg>
