<?xml version="1.0" encoding="utf-8" standalone="no"?>
<!DOCTYPE svg PUBLIC "-//W3C//DTD SVG 1.1//EN"
  "http://www.w3.org/Graphics/SVG/1.1/DTD/svg11.dtd">
<svg xmlns:xlink="http://www.w3.org/1999/xlink" width="432pt" height="288pt" viewBox="0 0 432 288" xmlns="http://www.w3.org/2000/svg" version="1.1">
 <metadata>
  <rdf:RDF xmlns:dc="http://purl.org/dc/elements/1.1/" xmlns:cc="http://creativecommons.org/ns#" xmlns:rdf="http://www.w3.org/1999/02/22-rdf-syntax-ns#">
   <cc:Work>
    <dc:type rdf:resource="http://purl.org/dc/dcmitype/StillImage"/>
    <dc:date>2024-06-06T16:14:35.051667</dc:date>
    <dc:format>image/svg+xml</dc:format>
    <dc:creator>
     <cc:Agent>
      <dc:title>Matplotlib v3.7.4, https://matplotlib.org/</dc:title>
     </cc:Agent>
    </dc:creator>
   </cc:Work>
  </rdf:RDF>
 </metadata>
 <defs>
  <style type="text/css">*{stroke-linejoin: round; stroke-linecap: butt}</style>
 </defs>
 <g id="figure_1">
  <g id="patch_1">
   <path d="M 0 288 
L 432 288 
L 432 0 
L 0 0 
L 0 288 
z
" style="fill: none"/>
  </g>
  <g id="axes_1">
   <g id="patch_2">
    <path d="M 54 252 
L 388.8 252 
L 388.8 34.56 
L 54 34.56 
z
" style="fill: #ffffff"/>
   </g>
   <g id="patch_3">
    <path d="M 69.218182 252 
L 70.518881 252 
L 70.518881 251.561259 
L 69.218182 251.561259 
z
" clip-path="url(#p27e642a749)" style="fill: #008000"/>
   </g>
   <g id="patch_4">
    <path d="M 70.518881 252 
L 71.81958 252 
L 71.81958 252 
L 70.518881 252 
z
" clip-path="url(#p27e642a749)" style="fill: #008000"/>
   </g>
   <g id="patch_5">
    <path d="M 71.81958 252 
L 73.12028 252 
L 73.12028 251.122518 
L 71.81958 251.122518 
z
" clip-path="url(#p27e642a749)" style="fill: #008000"/>
   </g>
   <g id="patch_6">
    <path d="M 73.12028 252 
L 74.420979 252 
L 74.420979 251.561259 
L 73.12028 251.561259 
z
" clip-path="url(#p27e642a749)" style="fill: #008000"/>
   </g>
   <g id="patch_7">
    <path d="M 74.420979 252 
L 75.721678 252 
L 75.721678 251.122518 
L 74.420979 251.122518 
z
" clip-path="url(#p27e642a749)" style="fill: #008000"/>
   </g>
   <g id="patch_8">
    <path d="M 75.721678 252 
L 77.022378 252 
L 77.022378 248.928814 
L 75.721678 248.928814 
z
" clip-path="url(#p27e642a749)" style="fill: #008000"/>
   </g>
   <g id="patch_9">
    <path d="M 77.022378 252 
L 78.323077 252 
L 78.323077 245.418886 
L 77.022378 245.418886 
z
" clip-path="url(#p27e642a749)" style="fill: #008000"/>
   </g>
   <g id="patch_10">
    <path d="M 78.323077 252 
L 79.623776 252 
L 79.623776 242.786441 
L 78.323077 242.786441 
z
" clip-path="url(#p27e642a749)" style="fill: #008000"/>
   </g>
   <g id="patch_11">
    <path d="M 79.623776 252 
L 80.924476 252 
L 80.924476 237.082809 
L 79.623776 237.082809 
z
" clip-path="url(#p27e642a749)" style="fill: #008000"/>
   </g>
   <g id="patch_12">
    <path d="M 80.924476 252 
L 82.225175 252 
L 82.225175 228.30799 
L 80.924476 228.30799 
z
" clip-path="url(#p27e642a749)" style="fill: #008000"/>
   </g>
   <g id="patch_13">
    <path d="M 82.225175 252 
L 83.525874 252 
L 83.525874 220.849395 
L 82.225175 220.849395 
z
" clip-path="url(#p27e642a749)" style="fill: #008000"/>
   </g>
   <g id="patch_14">
    <path d="M 83.525874 252 
L 84.826573 252 
L 84.826573 204.17724 
L 83.525874 204.17724 
z
" clip-path="url(#p27e642a749)" style="fill: #008000"/>
   </g>
   <g id="patch_15">
    <path d="M 84.826573 252 
L 86.127273 252 
L 86.127273 177.852785 
L 84.826573 177.852785 
z
" clip-path="url(#p27e642a749)" style="fill: #008000"/>
   </g>
   <g id="patch_16">
    <path d="M 86.127273 252 
L 87.427972 252 
L 87.427972 179.169007 
L 86.127273 179.169007 
z
" clip-path="url(#p27e642a749)" style="fill: #008000"/>
   </g>
   <g id="patch_17">
    <path d="M 87.427972 252 
L 88.728671 252 
L 88.728671 139.243584 
L 87.427972 139.243584 
z
" clip-path="url(#p27e642a749)" style="fill: #008000"/>
   </g>
   <g id="patch_18">
    <path d="M 88.728671 252 
L 90.029371 252 
L 90.029371 127.83632 
L 88.728671 127.83632 
z
" clip-path="url(#p27e642a749)" style="fill: #008000"/>
   </g>
   <g id="patch_19">
    <path d="M 90.029371 252 
L 91.33007 252 
L 91.33007 105.021792 
L 90.029371 105.021792 
z
" clip-path="url(#p27e642a749)" style="fill: #008000"/>
   </g>
   <g id="patch_20">
    <path d="M 91.33007 252 
L 92.630769 252 
L 92.630769 82.207264 
L 91.33007 82.207264 
z
" clip-path="url(#p27e642a749)" style="fill: #008000"/>
   </g>
   <g id="patch_21">
    <path d="M 92.630769 252 
L 93.931469 252 
L 93.931469 71.238741 
L 92.630769 71.238741 
z
" clip-path="url(#p27e642a749)" style="fill: #008000"/>
   </g>
   <g id="patch_22">
    <path d="M 93.931469 252 
L 95.232168 252 
L 95.232168 58.515254 
L 93.931469 58.515254 
z
" clip-path="url(#p27e642a749)" style="fill: #008000"/>
   </g>
   <g id="patch_23">
    <path d="M 95.232168 252 
L 96.532867 252 
L 96.532867 46.230508 
L 95.232168 46.230508 
z
" clip-path="url(#p27e642a749)" style="fill: #008000"/>
   </g>
   <g id="patch_24">
    <path d="M 96.532867 252 
L 97.833566 252 
L 97.833566 50.179177 
L 96.532867 50.179177 
z
" clip-path="url(#p27e642a749)" style="fill: #008000"/>
   </g>
   <g id="patch_25">
    <path d="M 97.833566 252 
L 99.134266 252 
L 99.134266 51.4954 
L 97.833566 51.4954 
z
" clip-path="url(#p27e642a749)" style="fill: #008000"/>
   </g>
   <g id="patch_26">
    <path d="M 99.134266 252 
L 100.434965 252 
L 100.434965 58.515254 
L 99.134266 58.515254 
z
" clip-path="url(#p27e642a749)" style="fill: #008000"/>
   </g>
   <g id="patch_27">
    <path d="M 100.434965 252 
L 101.735664 252 
L 101.735664 68.167554 
L 100.434965 68.167554 
z
" clip-path="url(#p27e642a749)" style="fill: #008000"/>
   </g>
   <g id="patch_28">
    <path d="M 101.735664 252 
L 103.036364 252 
L 103.036364 44.914286 
L 101.735664 44.914286 
z
" clip-path="url(#p27e642a749)" style="fill: #008000"/>
   </g>
   <g id="patch_29">
    <path d="M 103.036364 252 
L 104.337063 252 
L 104.337063 54.566586 
L 103.036364 54.566586 
z
" clip-path="url(#p27e642a749)" style="fill: #008000"/>
   </g>
   <g id="patch_30">
    <path d="M 104.337063 252 
L 105.637762 252 
L 105.637762 76.503632 
L 104.337063 76.503632 
z
" clip-path="url(#p27e642a749)" style="fill: #008000"/>
   </g>
   <g id="patch_31">
    <path d="M 105.637762 252 
L 106.938462 252 
L 106.938462 100.634383 
L 105.637762 100.634383 
z
" clip-path="url(#p27e642a749)" style="fill: #008000"/>
   </g>
   <g id="patch_32">
    <path d="M 106.938462 252 
L 108.239161 252 
L 108.239161 112.041646 
L 106.938462 112.041646 
z
" clip-path="url(#p27e642a749)" style="fill: #008000"/>
   </g>
   <g id="patch_33">
    <path d="M 108.239161 252 
L 109.53986 252 
L 109.53986 112.919128 
L 108.239161 112.919128 
z
" clip-path="url(#p27e642a749)" style="fill: #008000"/>
   </g>
   <g id="patch_34">
    <path d="M 109.53986 252 
L 110.840559 252 
L 110.840559 134.856174 
L 109.53986 134.856174 
z
" clip-path="url(#p27e642a749)" style="fill: #008000"/>
   </g>
   <g id="patch_35">
    <path d="M 110.840559 252 
L 112.141259 252 
L 112.141259 155.038257 
L 110.840559 155.038257 
z
" clip-path="url(#p27e642a749)" style="fill: #008000"/>
   </g>
   <g id="patch_36">
    <path d="M 112.141259 252 
L 113.441958 252 
L 113.441958 155.915738 
L 112.141259 155.915738 
z
" clip-path="url(#p27e642a749)" style="fill: #008000"/>
   </g>
   <g id="patch_37">
    <path d="M 113.441958 252 
L 114.742657 252 
L 114.742657 169.516707 
L 113.441958 169.516707 
z
" clip-path="url(#p27e642a749)" style="fill: #008000"/>
   </g>
   <g id="patch_38">
    <path d="M 114.742657 252 
L 116.043357 252 
L 116.043357 187.943826 
L 114.742657 187.943826 
z
" clip-path="url(#p27e642a749)" style="fill: #008000"/>
   </g>
   <g id="patch_39">
    <path d="M 116.043357 252 
L 117.344056 252 
L 117.344056 191.453753 
L 116.043357 191.453753 
z
" clip-path="url(#p27e642a749)" style="fill: #008000"/>
   </g>
   <g id="patch_40">
    <path d="M 117.344056 252 
L 118.644755 252 
L 118.644755 192.331235 
L 117.344056 192.331235 
z
" clip-path="url(#p27e642a749)" style="fill: #008000"/>
   </g>
   <g id="patch_41">
    <path d="M 118.644755 252 
L 119.945455 252 
L 119.945455 208.125908 
L 118.644755 208.125908 
z
" clip-path="url(#p27e642a749)" style="fill: #008000"/>
   </g>
   <g id="patch_42">
    <path d="M 119.945455 252 
L 121.246154 252 
L 121.246154 205.932203 
L 119.945455 205.932203 
z
" clip-path="url(#p27e642a749)" style="fill: #008000"/>
   </g>
   <g id="patch_43">
    <path d="M 121.246154 252 
L 122.546853 252 
L 122.546853 206.370944 
L 121.246154 206.370944 
z
" clip-path="url(#p27e642a749)" style="fill: #008000"/>
   </g>
   <g id="patch_44">
    <path d="M 122.546853 252 
L 123.847552 252 
L 123.847552 219.533172 
L 122.546853 219.533172 
z
" clip-path="url(#p27e642a749)" style="fill: #008000"/>
   </g>
   <g id="patch_45">
    <path d="M 123.847552 252 
L 125.148252 252 
L 125.148252 223.920581 
L 123.847552 223.920581 
z
" clip-path="url(#p27e642a749)" style="fill: #008000"/>
   </g>
   <g id="patch_46">
    <path d="M 125.148252 252 
L 126.448951 252 
L 126.448951 220.849395 
L 125.148252 220.849395 
z
" clip-path="url(#p27e642a749)" style="fill: #008000"/>
   </g>
   <g id="patch_47">
    <path d="M 126.448951 252 
L 127.74965 252 
L 127.74965 220.849395 
L 126.448951 220.849395 
z
" clip-path="url(#p27e642a749)" style="fill: #008000"/>
   </g>
   <g id="patch_48">
    <path d="M 127.74965 252 
L 129.05035 252 
L 129.05035 234.889104 
L 127.74965 234.889104 
z
" clip-path="url(#p27e642a749)" style="fill: #008000"/>
   </g>
   <g id="patch_49">
    <path d="M 129.05035 252 
L 130.351049 252 
L 130.351049 229.624213 
L 129.05035 229.624213 
z
" clip-path="url(#p27e642a749)" style="fill: #008000"/>
   </g>
   <g id="patch_50">
    <path d="M 130.351049 252 
L 131.651748 252 
L 131.651748 232.6954 
L 130.351049 232.6954 
z
" clip-path="url(#p27e642a749)" style="fill: #008000"/>
   </g>
   <g id="patch_51">
    <path d="M 131.651748 252 
L 132.952448 252 
L 132.952448 239.715254 
L 131.651748 239.715254 
z
" clip-path="url(#p27e642a749)" style="fill: #008000"/>
   </g>
   <g id="patch_52">
    <path d="M 132.952448 252 
L 134.253147 252 
L 134.253147 231.379177 
L 132.952448 231.379177 
z
" clip-path="url(#p27e642a749)" style="fill: #008000"/>
   </g>
   <g id="patch_53">
    <path d="M 134.253147 252 
L 135.553846 252 
L 135.553846 242.3477 
L 134.253147 242.3477 
z
" clip-path="url(#p27e642a749)" style="fill: #008000"/>
   </g>
   <g id="patch_54">
    <path d="M 135.553846 252 
L 136.854545 252 
L 136.854545 241.470218 
L 135.553846 241.470218 
z
" clip-path="url(#p27e642a749)" style="fill: #008000"/>
   </g>
   <g id="patch_55">
    <path d="M 136.854545 252 
L 138.155245 252 
L 138.155245 242.3477 
L 136.854545 242.3477 
z
" clip-path="url(#p27e642a749)" style="fill: #008000"/>
   </g>
   <g id="patch_56">
    <path d="M 138.155245 252 
L 139.455944 252 
L 139.455944 244.541404 
L 138.155245 244.541404 
z
" clip-path="url(#p27e642a749)" style="fill: #008000"/>
   </g>
   <g id="patch_57">
    <path d="M 139.455944 252 
L 140.756643 252 
L 140.756643 239.276513 
L 139.455944 239.276513 
z
" clip-path="url(#p27e642a749)" style="fill: #008000"/>
   </g>
   <g id="patch_58">
    <path d="M 140.756643 252 
L 142.057343 252 
L 142.057343 241.031477 
L 140.756643 241.031477 
z
" clip-path="url(#p27e642a749)" style="fill: #008000"/>
   </g>
   <g id="patch_59">
    <path d="M 142.057343 252 
L 143.358042 252 
L 143.358042 242.3477 
L 142.057343 242.3477 
z
" clip-path="url(#p27e642a749)" style="fill: #008000"/>
   </g>
   <g id="patch_60">
    <path d="M 143.358042 252 
L 144.658741 252 
L 144.658741 245.857627 
L 143.358042 245.857627 
z
" clip-path="url(#p27e642a749)" style="fill: #008000"/>
   </g>
   <g id="patch_61">
    <path d="M 144.658741 252 
L 145.959441 252 
L 145.959441 246.296368 
L 144.658741 246.296368 
z
" clip-path="url(#p27e642a749)" style="fill: #008000"/>
   </g>
   <g id="patch_62">
    <path d="M 145.959441 252 
L 147.26014 252 
L 147.26014 243.663923 
L 145.959441 243.663923 
z
" clip-path="url(#p27e642a749)" style="fill: #008000"/>
   </g>
   <g id="patch_63">
    <path d="M 147.26014 252 
L 148.560839 252 
L 148.560839 242.786441 
L 147.26014 242.786441 
z
" clip-path="url(#p27e642a749)" style="fill: #008000"/>
   </g>
   <g id="patch_64">
    <path d="M 148.560839 252 
L 149.861538 252 
L 149.861538 245.857627 
L 148.560839 245.857627 
z
" clip-path="url(#p27e642a749)" style="fill: #008000"/>
   </g>
   <g id="patch_65">
    <path d="M 149.861538 252 
L 151.162238 252 
L 151.162238 245.418886 
L 149.861538 245.418886 
z
" clip-path="url(#p27e642a749)" style="fill: #008000"/>
   </g>
   <g id="patch_66">
    <path d="M 151.162238 252 
L 152.462937 252 
L 152.462937 243.225182 
L 151.162238 243.225182 
z
" clip-path="url(#p27e642a749)" style="fill: #008000"/>
   </g>
   <g id="patch_67">
    <path d="M 152.462937 252 
L 153.763636 252 
L 153.763636 244.102663 
L 152.462937 244.102663 
z
" clip-path="url(#p27e642a749)" style="fill: #008000"/>
   </g>
   <g id="patch_68">
    <path d="M 153.763636 252 
L 155.064336 252 
L 155.064336 248.051332 
L 153.763636 248.051332 
z
" clip-path="url(#p27e642a749)" style="fill: #008000"/>
   </g>
   <g id="patch_69">
    <path d="M 155.064336 252 
L 156.365035 252 
L 156.365035 246.296368 
L 155.064336 246.296368 
z
" clip-path="url(#p27e642a749)" style="fill: #008000"/>
   </g>
   <g id="patch_70">
    <path d="M 156.365035 252 
L 157.665734 252 
L 157.665734 247.17385 
L 156.365035 247.17385 
z
" clip-path="url(#p27e642a749)" style="fill: #008000"/>
   </g>
   <g id="patch_71">
    <path d="M 157.665734 252 
L 158.966434 252 
L 158.966434 247.17385 
L 157.665734 247.17385 
z
" clip-path="url(#p27e642a749)" style="fill: #008000"/>
   </g>
   <g id="patch_72">
    <path d="M 158.966434 252 
L 160.267133 252 
L 160.267133 249.806295 
L 158.966434 249.806295 
z
" clip-path="url(#p27e642a749)" style="fill: #008000"/>
   </g>
   <g id="patch_73">
    <path d="M 160.267133 252 
L 161.567832 252 
L 161.567832 249.806295 
L 160.267133 249.806295 
z
" clip-path="url(#p27e642a749)" style="fill: #008000"/>
   </g>
   <g id="patch_74">
    <path d="M 161.567832 252 
L 162.868531 252 
L 162.868531 249.806295 
L 161.567832 249.806295 
z
" clip-path="url(#p27e642a749)" style="fill: #008000"/>
   </g>
   <g id="patch_75">
    <path d="M 162.868531 252 
L 164.169231 252 
L 164.169231 248.490073 
L 162.868531 248.490073 
z
" clip-path="url(#p27e642a749)" style="fill: #008000"/>
   </g>
   <g id="patch_76">
    <path d="M 164.169231 252 
L 165.46993 252 
L 165.46993 249.367554 
L 164.169231 249.367554 
z
" clip-path="url(#p27e642a749)" style="fill: #008000"/>
   </g>
   <g id="patch_77">
    <path d="M 165.46993 252 
L 166.770629 252 
L 166.770629 247.612591 
L 165.46993 247.612591 
z
" clip-path="url(#p27e642a749)" style="fill: #008000"/>
   </g>
   <g id="patch_78">
    <path d="M 166.770629 252 
L 168.071329 252 
L 168.071329 249.367554 
L 166.770629 249.367554 
z
" clip-path="url(#p27e642a749)" style="fill: #008000"/>
   </g>
   <g id="patch_79">
    <path d="M 168.071329 252 
L 169.372028 252 
L 169.372028 249.367554 
L 168.071329 249.367554 
z
" clip-path="url(#p27e642a749)" style="fill: #008000"/>
   </g>
   <g id="patch_80">
    <path d="M 169.372028 252 
L 170.672727 252 
L 170.672727 249.367554 
L 169.372028 249.367554 
z
" clip-path="url(#p27e642a749)" style="fill: #008000"/>
   </g>
   <g id="patch_81">
    <path d="M 170.672727 252 
L 171.973427 252 
L 171.973427 248.928814 
L 170.672727 248.928814 
z
" clip-path="url(#p27e642a749)" style="fill: #008000"/>
   </g>
   <g id="patch_82">
    <path d="M 171.973427 252 
L 173.274126 252 
L 173.274126 248.490073 
L 171.973427 248.490073 
z
" clip-path="url(#p27e642a749)" style="fill: #008000"/>
   </g>
   <g id="patch_83">
    <path d="M 173.274126 252 
L 174.574825 252 
L 174.574825 251.122518 
L 173.274126 251.122518 
z
" clip-path="url(#p27e642a749)" style="fill: #008000"/>
   </g>
   <g id="patch_84">
    <path d="M 174.574825 252 
L 175.875524 252 
L 175.875524 249.806295 
L 174.574825 249.806295 
z
" clip-path="url(#p27e642a749)" style="fill: #008000"/>
   </g>
   <g id="patch_85">
    <path d="M 175.875524 252 
L 177.176224 252 
L 177.176224 252 
L 175.875524 252 
z
" clip-path="url(#p27e642a749)" style="fill: #008000"/>
   </g>
   <g id="patch_86">
    <path d="M 177.176224 252 
L 178.476923 252 
L 178.476923 249.806295 
L 177.176224 249.806295 
z
" clip-path="url(#p27e642a749)" style="fill: #008000"/>
   </g>
   <g id="patch_87">
    <path d="M 178.476923 252 
L 179.777622 252 
L 179.777622 251.561259 
L 178.476923 251.561259 
z
" clip-path="url(#p27e642a749)" style="fill: #008000"/>
   </g>
   <g id="patch_88">
    <path d="M 179.777622 252 
L 181.078322 252 
L 181.078322 251.122518 
L 179.777622 251.122518 
z
" clip-path="url(#p27e642a749)" style="fill: #008000"/>
   </g>
   <g id="patch_89">
    <path d="M 181.078322 252 
L 182.379021 252 
L 182.379021 249.367554 
L 181.078322 249.367554 
z
" clip-path="url(#p27e642a749)" style="fill: #008000"/>
   </g>
   <g id="patch_90">
    <path d="M 182.379021 252 
L 183.67972 252 
L 183.67972 250.683777 
L 182.379021 250.683777 
z
" clip-path="url(#p27e642a749)" style="fill: #008000"/>
   </g>
   <g id="patch_91">
    <path d="M 183.67972 252 
L 184.98042 252 
L 184.98042 251.122518 
L 183.67972 251.122518 
z
" clip-path="url(#p27e642a749)" style="fill: #008000"/>
   </g>
   <g id="patch_92">
    <path d="M 184.98042 252 
L 186.281119 252 
L 186.281119 251.122518 
L 184.98042 251.122518 
z
" clip-path="url(#p27e642a749)" style="fill: #008000"/>
   </g>
   <g id="patch_93">
    <path d="M 186.281119 252 
L 187.581818 252 
L 187.581818 251.561259 
L 186.281119 251.561259 
z
" clip-path="url(#p27e642a749)" style="fill: #008000"/>
   </g>
   <g id="patch_94">
    <path d="M 187.581818 252 
L 188.882517 252 
L 188.882517 252 
L 187.581818 252 
z
" clip-path="url(#p27e642a749)" style="fill: #008000"/>
   </g>
   <g id="patch_95">
    <path d="M 188.882517 252 
L 190.183217 252 
L 190.183217 250.245036 
L 188.882517 250.245036 
z
" clip-path="url(#p27e642a749)" style="fill: #008000"/>
   </g>
   <g id="patch_96">
    <path d="M 190.183217 252 
L 191.483916 252 
L 191.483916 250.683777 
L 190.183217 250.683777 
z
" clip-path="url(#p27e642a749)" style="fill: #008000"/>
   </g>
   <g id="patch_97">
    <path d="M 191.483916 252 
L 192.784615 252 
L 192.784615 252 
L 191.483916 252 
z
" clip-path="url(#p27e642a749)" style="fill: #008000"/>
   </g>
   <g id="patch_98">
    <path d="M 192.784615 252 
L 194.085315 252 
L 194.085315 251.561259 
L 192.784615 251.561259 
z
" clip-path="url(#p27e642a749)" style="fill: #008000"/>
   </g>
   <g id="patch_99">
    <path d="M 194.085315 252 
L 195.386014 252 
L 195.386014 252 
L 194.085315 252 
z
" clip-path="url(#p27e642a749)" style="fill: #008000"/>
   </g>
   <g id="patch_100">
    <path d="M 195.386014 252 
L 196.686713 252 
L 196.686713 251.561259 
L 195.386014 251.561259 
z
" clip-path="url(#p27e642a749)" style="fill: #008000"/>
   </g>
   <g id="patch_101">
    <path d="M 196.686713 252 
L 197.987413 252 
L 197.987413 251.561259 
L 196.686713 251.561259 
z
" clip-path="url(#p27e642a749)" style="fill: #008000"/>
   </g>
   <g id="patch_102">
    <path d="M 197.987413 252 
L 199.288112 252 
L 199.288112 251.561259 
L 197.987413 251.561259 
z
" clip-path="url(#p27e642a749)" style="fill: #008000"/>
   </g>
   <g id="patch_103">
    <path d="M 199.288112 252 
L 200.588811 252 
L 200.588811 251.122518 
L 199.288112 251.122518 
z
" clip-path="url(#p27e642a749)" style="fill: #008000"/>
   </g>
   <g id="patch_104">
    <path d="M 200.588811 252 
L 201.88951 252 
L 201.88951 251.122518 
L 200.588811 251.122518 
z
" clip-path="url(#p27e642a749)" style="fill: #008000"/>
   </g>
   <g id="patch_105">
    <path d="M 201.88951 252 
L 203.19021 252 
L 203.19021 252 
L 201.88951 252 
z
" clip-path="url(#p27e642a749)" style="fill: #008000"/>
   </g>
   <g id="patch_106">
    <path d="M 203.19021 252 
L 204.490909 252 
L 204.490909 250.683777 
L 203.19021 250.683777 
z
" clip-path="url(#p27e642a749)" style="fill: #008000"/>
   </g>
   <g id="patch_107">
    <path d="M 204.490909 252 
L 205.791608 252 
L 205.791608 252 
L 204.490909 252 
z
" clip-path="url(#p27e642a749)" style="fill: #008000"/>
   </g>
   <g id="patch_108">
    <path d="M 205.791608 252 
L 207.092308 252 
L 207.092308 251.561259 
L 205.791608 251.561259 
z
" clip-path="url(#p27e642a749)" style="fill: #008000"/>
   </g>
   <g id="patch_109">
    <path d="M 207.092308 252 
L 208.393007 252 
L 208.393007 252 
L 207.092308 252 
z
" clip-path="url(#p27e642a749)" style="fill: #008000"/>
   </g>
   <g id="patch_110">
    <path d="M 208.393007 252 
L 209.693706 252 
L 209.693706 252 
L 208.393007 252 
z
" clip-path="url(#p27e642a749)" style="fill: #008000"/>
   </g>
   <g id="patch_111">
    <path d="M 209.693706 252 
L 210.994406 252 
L 210.994406 252 
L 209.693706 252 
z
" clip-path="url(#p27e642a749)" style="fill: #008000"/>
   </g>
   <g id="patch_112">
    <path d="M 210.994406 252 
L 212.295105 252 
L 212.295105 252 
L 210.994406 252 
z
" clip-path="url(#p27e642a749)" style="fill: #008000"/>
   </g>
   <g id="patch_113">
    <path d="M 212.295105 252 
L 213.595804 252 
L 213.595804 252 
L 212.295105 252 
z
" clip-path="url(#p27e642a749)" style="fill: #008000"/>
   </g>
   <g id="patch_114">
    <path d="M 213.595804 252 
L 214.896503 252 
L 214.896503 252 
L 213.595804 252 
z
" clip-path="url(#p27e642a749)" style="fill: #008000"/>
   </g>
   <g id="patch_115">
    <path d="M 214.896503 252 
L 216.197203 252 
L 216.197203 252 
L 214.896503 252 
z
" clip-path="url(#p27e642a749)" style="fill: #008000"/>
   </g>
   <g id="patch_116">
    <path d="M 216.197203 252 
L 217.497902 252 
L 217.497902 251.561259 
L 216.197203 251.561259 
z
" clip-path="url(#p27e642a749)" style="fill: #008000"/>
   </g>
   <g id="patch_117">
    <path d="M 217.497902 252 
L 218.798601 252 
L 218.798601 252 
L 217.497902 252 
z
" clip-path="url(#p27e642a749)" style="fill: #008000"/>
   </g>
   <g id="patch_118">
    <path d="M 218.798601 252 
L 220.099301 252 
L 220.099301 252 
L 218.798601 252 
z
" clip-path="url(#p27e642a749)" style="fill: #008000"/>
   </g>
   <g id="patch_119">
    <path d="M 220.099301 252 
L 221.4 252 
L 221.4 251.561259 
L 220.099301 251.561259 
z
" clip-path="url(#p27e642a749)" style="fill: #008000"/>
   </g>
   <g id="patch_120">
    <path d="M 221.4 252 
L 222.700699 252 
L 222.700699 252 
L 221.4 252 
z
" clip-path="url(#p27e642a749)" style="fill: #008000"/>
   </g>
   <g id="patch_121">
    <path d="M 222.700699 252 
L 224.001399 252 
L 224.001399 252 
L 222.700699 252 
z
" clip-path="url(#p27e642a749)" style="fill: #008000"/>
   </g>
   <g id="patch_122">
    <path d="M 224.001399 252 
L 225.302098 252 
L 225.302098 252 
L 224.001399 252 
z
" clip-path="url(#p27e642a749)" style="fill: #008000"/>
   </g>
   <g id="patch_123">
    <path d="M 225.302098 252 
L 226.602797 252 
L 226.602797 252 
L 225.302098 252 
z
" clip-path="url(#p27e642a749)" style="fill: #008000"/>
   </g>
   <g id="patch_124">
    <path d="M 226.602797 252 
L 227.903497 252 
L 227.903497 251.561259 
L 226.602797 251.561259 
z
" clip-path="url(#p27e642a749)" style="fill: #008000"/>
   </g>
   <g id="patch_125">
    <path d="M 227.903497 252 
L 229.204196 252 
L 229.204196 251.122518 
L 227.903497 251.122518 
z
" clip-path="url(#p27e642a749)" style="fill: #008000"/>
   </g>
   <g id="patch_126">
    <path d="M 229.204196 252 
L 230.504895 252 
L 230.504895 252 
L 229.204196 252 
z
" clip-path="url(#p27e642a749)" style="fill: #008000"/>
   </g>
   <g id="patch_127">
    <path d="M 230.504895 252 
L 231.805594 252 
L 231.805594 252 
L 230.504895 252 
z
" clip-path="url(#p27e642a749)" style="fill: #008000"/>
   </g>
   <g id="patch_128">
    <path d="M 231.805594 252 
L 233.106294 252 
L 233.106294 252 
L 231.805594 252 
z
" clip-path="url(#p27e642a749)" style="fill: #008000"/>
   </g>
   <g id="patch_129">
    <path d="M 233.106294 252 
L 234.406993 252 
L 234.406993 252 
L 233.106294 252 
z
" clip-path="url(#p27e642a749)" style="fill: #008000"/>
   </g>
   <g id="patch_130">
    <path d="M 234.406993 252 
L 235.707692 252 
L 235.707692 252 
L 234.406993 252 
z
" clip-path="url(#p27e642a749)" style="fill: #008000"/>
   </g>
   <g id="patch_131">
    <path d="M 235.707692 252 
L 237.008392 252 
L 237.008392 252 
L 235.707692 252 
z
" clip-path="url(#p27e642a749)" style="fill: #008000"/>
   </g>
   <g id="patch_132">
    <path d="M 237.008392 252 
L 238.309091 252 
L 238.309091 252 
L 237.008392 252 
z
" clip-path="url(#p27e642a749)" style="fill: #008000"/>
   </g>
   <g id="patch_133">
    <path d="M 238.309091 252 
L 239.60979 252 
L 239.60979 252 
L 238.309091 252 
z
" clip-path="url(#p27e642a749)" style="fill: #008000"/>
   </g>
   <g id="patch_134">
    <path d="M 239.60979 252 
L 240.91049 252 
L 240.91049 252 
L 239.60979 252 
z
" clip-path="url(#p27e642a749)" style="fill: #008000"/>
   </g>
   <g id="patch_135">
    <path d="M 240.91049 252 
L 242.211189 252 
L 242.211189 252 
L 240.91049 252 
z
" clip-path="url(#p27e642a749)" style="fill: #008000"/>
   </g>
   <g id="patch_136">
    <path d="M 242.211189 252 
L 243.511888 252 
L 243.511888 252 
L 242.211189 252 
z
" clip-path="url(#p27e642a749)" style="fill: #008000"/>
   </g>
   <g id="patch_137">
    <path d="M 243.511888 252 
L 244.812587 252 
L 244.812587 252 
L 243.511888 252 
z
" clip-path="url(#p27e642a749)" style="fill: #008000"/>
   </g>
   <g id="patch_138">
    <path d="M 244.812587 252 
L 246.113287 252 
L 246.113287 252 
L 244.812587 252 
z
" clip-path="url(#p27e642a749)" style="fill: #008000"/>
   </g>
   <g id="patch_139">
    <path d="M 246.113287 252 
L 247.413986 252 
L 247.413986 252 
L 246.113287 252 
z
" clip-path="url(#p27e642a749)" style="fill: #008000"/>
   </g>
   <g id="patch_140">
    <path d="M 247.413986 252 
L 248.714685 252 
L 248.714685 252 
L 247.413986 252 
z
" clip-path="url(#p27e642a749)" style="fill: #008000"/>
   </g>
   <g id="patch_141">
    <path d="M 248.714685 252 
L 250.015385 252 
L 250.015385 252 
L 248.714685 252 
z
" clip-path="url(#p27e642a749)" style="fill: #008000"/>
   </g>
   <g id="patch_142">
    <path d="M 250.015385 252 
L 251.316084 252 
L 251.316084 252 
L 250.015385 252 
z
" clip-path="url(#p27e642a749)" style="fill: #008000"/>
   </g>
   <g id="patch_143">
    <path d="M 251.316084 252 
L 252.616783 252 
L 252.616783 251.561259 
L 251.316084 251.561259 
z
" clip-path="url(#p27e642a749)" style="fill: #008000"/>
   </g>
   <g id="patch_144">
    <path d="M 252.616783 252 
L 253.917483 252 
L 253.917483 252 
L 252.616783 252 
z
" clip-path="url(#p27e642a749)" style="fill: #008000"/>
   </g>
   <g id="patch_145">
    <path d="M 253.917483 252 
L 255.218182 252 
L 255.218182 252 
L 253.917483 252 
z
" clip-path="url(#p27e642a749)" style="fill: #008000"/>
   </g>
   <g id="patch_146">
    <path d="M 255.218182 252 
L 256.518881 252 
L 256.518881 252 
L 255.218182 252 
z
" clip-path="url(#p27e642a749)" style="fill: #008000"/>
   </g>
   <g id="patch_147">
    <path d="M 256.518881 252 
L 257.81958 252 
L 257.81958 252 
L 256.518881 252 
z
" clip-path="url(#p27e642a749)" style="fill: #008000"/>
   </g>
   <g id="patch_148">
    <path d="M 257.81958 252 
L 259.12028 252 
L 259.12028 252 
L 257.81958 252 
z
" clip-path="url(#p27e642a749)" style="fill: #008000"/>
   </g>
   <g id="patch_149">
    <path d="M 259.12028 252 
L 260.420979 252 
L 260.420979 252 
L 259.12028 252 
z
" clip-path="url(#p27e642a749)" style="fill: #008000"/>
   </g>
   <g id="patch_150">
    <path d="M 260.420979 252 
L 261.721678 252 
L 261.721678 252 
L 260.420979 252 
z
" clip-path="url(#p27e642a749)" style="fill: #008000"/>
   </g>
   <g id="patch_151">
    <path d="M 261.721678 252 
L 263.022378 252 
L 263.022378 252 
L 261.721678 252 
z
" clip-path="url(#p27e642a749)" style="fill: #008000"/>
   </g>
   <g id="patch_152">
    <path d="M 263.022378 252 
L 264.323077 252 
L 264.323077 252 
L 263.022378 252 
z
" clip-path="url(#p27e642a749)" style="fill: #008000"/>
   </g>
   <g id="patch_153">
    <path d="M 264.323077 252 
L 265.623776 252 
L 265.623776 252 
L 264.323077 252 
z
" clip-path="url(#p27e642a749)" style="fill: #008000"/>
   </g>
   <g id="patch_154">
    <path d="M 265.623776 252 
L 266.924476 252 
L 266.924476 252 
L 265.623776 252 
z
" clip-path="url(#p27e642a749)" style="fill: #008000"/>
   </g>
   <g id="patch_155">
    <path d="M 266.924476 252 
L 268.225175 252 
L 268.225175 252 
L 266.924476 252 
z
" clip-path="url(#p27e642a749)" style="fill: #008000"/>
   </g>
   <g id="patch_156">
    <path d="M 268.225175 252 
L 269.525874 252 
L 269.525874 252 
L 268.225175 252 
z
" clip-path="url(#p27e642a749)" style="fill: #008000"/>
   </g>
   <g id="patch_157">
    <path d="M 269.525874 252 
L 270.826573 252 
L 270.826573 252 
L 269.525874 252 
z
" clip-path="url(#p27e642a749)" style="fill: #008000"/>
   </g>
   <g id="patch_158">
    <path d="M 270.826573 252 
L 272.127273 252 
L 272.127273 252 
L 270.826573 252 
z
" clip-path="url(#p27e642a749)" style="fill: #008000"/>
   </g>
   <g id="patch_159">
    <path d="M 272.127273 252 
L 273.427972 252 
L 273.427972 252 
L 272.127273 252 
z
" clip-path="url(#p27e642a749)" style="fill: #008000"/>
   </g>
   <g id="patch_160">
    <path d="M 273.427972 252 
L 274.728671 252 
L 274.728671 252 
L 273.427972 252 
z
" clip-path="url(#p27e642a749)" style="fill: #008000"/>
   </g>
   <g id="patch_161">
    <path d="M 274.728671 252 
L 276.029371 252 
L 276.029371 252 
L 274.728671 252 
z
" clip-path="url(#p27e642a749)" style="fill: #008000"/>
   </g>
   <g id="patch_162">
    <path d="M 276.029371 252 
L 277.33007 252 
L 277.33007 252 
L 276.029371 252 
z
" clip-path="url(#p27e642a749)" style="fill: #008000"/>
   </g>
   <g id="patch_163">
    <path d="M 277.33007 252 
L 278.630769 252 
L 278.630769 252 
L 277.33007 252 
z
" clip-path="url(#p27e642a749)" style="fill: #008000"/>
   </g>
   <g id="patch_164">
    <path d="M 278.630769 252 
L 279.931469 252 
L 279.931469 252 
L 278.630769 252 
z
" clip-path="url(#p27e642a749)" style="fill: #008000"/>
   </g>
   <g id="patch_165">
    <path d="M 279.931469 252 
L 281.232168 252 
L 281.232168 252 
L 279.931469 252 
z
" clip-path="url(#p27e642a749)" style="fill: #008000"/>
   </g>
   <g id="patch_166">
    <path d="M 281.232168 252 
L 282.532867 252 
L 282.532867 252 
L 281.232168 252 
z
" clip-path="url(#p27e642a749)" style="fill: #008000"/>
   </g>
   <g id="patch_167">
    <path d="M 282.532867 252 
L 283.833566 252 
L 283.833566 252 
L 282.532867 252 
z
" clip-path="url(#p27e642a749)" style="fill: #008000"/>
   </g>
   <g id="patch_168">
    <path d="M 283.833566 252 
L 285.134266 252 
L 285.134266 252 
L 283.833566 252 
z
" clip-path="url(#p27e642a749)" style="fill: #008000"/>
   </g>
   <g id="patch_169">
    <path d="M 285.134266 252 
L 286.434965 252 
L 286.434965 251.561259 
L 285.134266 251.561259 
z
" clip-path="url(#p27e642a749)" style="fill: #008000"/>
   </g>
   <g id="patch_170">
    <path d="M 286.434965 252 
L 287.735664 252 
L 287.735664 252 
L 286.434965 252 
z
" clip-path="url(#p27e642a749)" style="fill: #008000"/>
   </g>
   <g id="patch_171">
    <path d="M 287.735664 252 
L 289.036364 252 
L 289.036364 251.561259 
L 287.735664 251.561259 
z
" clip-path="url(#p27e642a749)" style="fill: #008000"/>
   </g>
   <g id="patch_172">
    <path d="M 289.036364 252 
L 290.337063 252 
L 290.337063 252 
L 289.036364 252 
z
" clip-path="url(#p27e642a749)" style="fill: #008000"/>
   </g>
   <g id="patch_173">
    <path d="M 290.337063 252 
L 291.637762 252 
L 291.637762 251.561259 
L 290.337063 251.561259 
z
" clip-path="url(#p27e642a749)" style="fill: #008000"/>
   </g>
   <g id="patch_174">
    <path d="M 291.637762 252 
L 292.938462 252 
L 292.938462 251.561259 
L 291.637762 251.561259 
z
" clip-path="url(#p27e642a749)" style="fill: #008000"/>
   </g>
   <g id="patch_175">
    <path d="M 292.938462 252 
L 294.239161 252 
L 294.239161 252 
L 292.938462 252 
z
" clip-path="url(#p27e642a749)" style="fill: #008000"/>
   </g>
   <g id="patch_176">
    <path d="M 294.239161 252 
L 295.53986 252 
L 295.53986 252 
L 294.239161 252 
z
" clip-path="url(#p27e642a749)" style="fill: #008000"/>
   </g>
   <g id="patch_177">
    <path d="M 295.53986 252 
L 296.840559 252 
L 296.840559 252 
L 295.53986 252 
z
" clip-path="url(#p27e642a749)" style="fill: #008000"/>
   </g>
   <g id="patch_178">
    <path d="M 296.840559 252 
L 298.141259 252 
L 298.141259 252 
L 296.840559 252 
z
" clip-path="url(#p27e642a749)" style="fill: #008000"/>
   </g>
   <g id="patch_179">
    <path d="M 298.141259 252 
L 299.441958 252 
L 299.441958 252 
L 298.141259 252 
z
" clip-path="url(#p27e642a749)" style="fill: #008000"/>
   </g>
   <g id="patch_180">
    <path d="M 299.441958 252 
L 300.742657 252 
L 300.742657 252 
L 299.441958 252 
z
" clip-path="url(#p27e642a749)" style="fill: #008000"/>
   </g>
   <g id="patch_181">
    <path d="M 300.742657 252 
L 302.043357 252 
L 302.043357 252 
L 300.742657 252 
z
" clip-path="url(#p27e642a749)" style="fill: #008000"/>
   </g>
   <g id="patch_182">
    <path d="M 302.043357 252 
L 303.344056 252 
L 303.344056 252 
L 302.043357 252 
z
" clip-path="url(#p27e642a749)" style="fill: #008000"/>
   </g>
   <g id="patch_183">
    <path d="M 303.344056 252 
L 304.644755 252 
L 304.644755 252 
L 303.344056 252 
z
" clip-path="url(#p27e642a749)" style="fill: #008000"/>
   </g>
   <g id="patch_184">
    <path d="M 304.644755 252 
L 305.945455 252 
L 305.945455 252 
L 304.644755 252 
z
" clip-path="url(#p27e642a749)" style="fill: #008000"/>
   </g>
   <g id="patch_185">
    <path d="M 305.945455 252 
L 307.246154 252 
L 307.246154 252 
L 305.945455 252 
z
" clip-path="url(#p27e642a749)" style="fill: #008000"/>
   </g>
   <g id="patch_186">
    <path d="M 307.246154 252 
L 308.546853 252 
L 308.546853 252 
L 307.246154 252 
z
" clip-path="url(#p27e642a749)" style="fill: #008000"/>
   </g>
   <g id="patch_187">
    <path d="M 308.546853 252 
L 309.847552 252 
L 309.847552 252 
L 308.546853 252 
z
" clip-path="url(#p27e642a749)" style="fill: #008000"/>
   </g>
   <g id="patch_188">
    <path d="M 309.847552 252 
L 311.148252 252 
L 311.148252 252 
L 309.847552 252 
z
" clip-path="url(#p27e642a749)" style="fill: #008000"/>
   </g>
   <g id="patch_189">
    <path d="M 311.148252 252 
L 312.448951 252 
L 312.448951 252 
L 311.148252 252 
z
" clip-path="url(#p27e642a749)" style="fill: #008000"/>
   </g>
   <g id="patch_190">
    <path d="M 312.448951 252 
L 313.74965 252 
L 313.74965 252 
L 312.448951 252 
z
" clip-path="url(#p27e642a749)" style="fill: #008000"/>
   </g>
   <g id="patch_191">
    <path d="M 313.74965 252 
L 315.05035 252 
L 315.05035 251.561259 
L 313.74965 251.561259 
z
" clip-path="url(#p27e642a749)" style="fill: #008000"/>
   </g>
   <g id="patch_192">
    <path d="M 315.05035 252 
L 316.351049 252 
L 316.351049 250.683777 
L 315.05035 250.683777 
z
" clip-path="url(#p27e642a749)" style="fill: #008000"/>
   </g>
   <g id="patch_193">
    <path d="M 316.351049 252 
L 317.651748 252 
L 317.651748 252 
L 316.351049 252 
z
" clip-path="url(#p27e642a749)" style="fill: #008000"/>
   </g>
   <g id="patch_194">
    <path d="M 317.651748 252 
L 318.952448 252 
L 318.952448 252 
L 317.651748 252 
z
" clip-path="url(#p27e642a749)" style="fill: #008000"/>
   </g>
   <g id="patch_195">
    <path d="M 318.952448 252 
L 320.253147 252 
L 320.253147 252 
L 318.952448 252 
z
" clip-path="url(#p27e642a749)" style="fill: #008000"/>
   </g>
   <g id="patch_196">
    <path d="M 320.253147 252 
L 321.553846 252 
L 321.553846 252 
L 320.253147 252 
z
" clip-path="url(#p27e642a749)" style="fill: #008000"/>
   </g>
   <g id="patch_197">
    <path d="M 321.553846 252 
L 322.854545 252 
L 322.854545 252 
L 321.553846 252 
z
" clip-path="url(#p27e642a749)" style="fill: #008000"/>
   </g>
   <g id="patch_198">
    <path d="M 322.854545 252 
L 324.155245 252 
L 324.155245 252 
L 322.854545 252 
z
" clip-path="url(#p27e642a749)" style="fill: #008000"/>
   </g>
   <g id="patch_199">
    <path d="M 324.155245 252 
L 325.455944 252 
L 325.455944 251.561259 
L 324.155245 251.561259 
z
" clip-path="url(#p27e642a749)" style="fill: #008000"/>
   </g>
   <g id="patch_200">
    <path d="M 325.455944 252 
L 326.756643 252 
L 326.756643 252 
L 325.455944 252 
z
" clip-path="url(#p27e642a749)" style="fill: #008000"/>
   </g>
   <g id="patch_201">
    <path d="M 326.756643 252 
L 328.057343 252 
L 328.057343 252 
L 326.756643 252 
z
" clip-path="url(#p27e642a749)" style="fill: #008000"/>
   </g>
   <g id="patch_202">
    <path d="M 328.057343 252 
L 329.358042 252 
L 329.358042 252 
L 328.057343 252 
z
" clip-path="url(#p27e642a749)" style="fill: #008000"/>
   </g>
   <g id="patch_203">
    <path d="M 329.358042 252 
L 330.658741 252 
L 330.658741 252 
L 329.358042 252 
z
" clip-path="url(#p27e642a749)" style="fill: #008000"/>
   </g>
   <g id="patch_204">
    <path d="M 330.658741 252 
L 331.959441 252 
L 331.959441 252 
L 330.658741 252 
z
" clip-path="url(#p27e642a749)" style="fill: #008000"/>
   </g>
   <g id="patch_205">
    <path d="M 331.959441 252 
L 333.26014 252 
L 333.26014 251.561259 
L 331.959441 251.561259 
z
" clip-path="url(#p27e642a749)" style="fill: #008000"/>
   </g>
   <g id="patch_206">
    <path d="M 333.26014 252 
L 334.560839 252 
L 334.560839 252 
L 333.26014 252 
z
" clip-path="url(#p27e642a749)" style="fill: #008000"/>
   </g>
   <g id="patch_207">
    <path d="M 334.560839 252 
L 335.861538 252 
L 335.861538 252 
L 334.560839 252 
z
" clip-path="url(#p27e642a749)" style="fill: #008000"/>
   </g>
   <g id="patch_208">
    <path d="M 335.861538 252 
L 337.162238 252 
L 337.162238 252 
L 335.861538 252 
z
" clip-path="url(#p27e642a749)" style="fill: #008000"/>
   </g>
   <g id="patch_209">
    <path d="M 337.162238 252 
L 338.462937 252 
L 338.462937 251.561259 
L 337.162238 251.561259 
z
" clip-path="url(#p27e642a749)" style="fill: #008000"/>
   </g>
   <g id="patch_210">
    <path d="M 338.462937 252 
L 339.763636 252 
L 339.763636 252 
L 338.462937 252 
z
" clip-path="url(#p27e642a749)" style="fill: #008000"/>
   </g>
   <g id="patch_211">
    <path d="M 339.763636 252 
L 341.064336 252 
L 341.064336 252 
L 339.763636 252 
z
" clip-path="url(#p27e642a749)" style="fill: #008000"/>
   </g>
   <g id="patch_212">
    <path d="M 341.064336 252 
L 342.365035 252 
L 342.365035 252 
L 341.064336 252 
z
" clip-path="url(#p27e642a749)" style="fill: #008000"/>
   </g>
   <g id="patch_213">
    <path d="M 342.365035 252 
L 343.665734 252 
L 343.665734 252 
L 342.365035 252 
z
" clip-path="url(#p27e642a749)" style="fill: #008000"/>
   </g>
   <g id="patch_214">
    <path d="M 343.665734 252 
L 344.966434 252 
L 344.966434 252 
L 343.665734 252 
z
" clip-path="url(#p27e642a749)" style="fill: #008000"/>
   </g>
   <g id="patch_215">
    <path d="M 344.966434 252 
L 346.267133 252 
L 346.267133 252 
L 344.966434 252 
z
" clip-path="url(#p27e642a749)" style="fill: #008000"/>
   </g>
   <g id="patch_216">
    <path d="M 346.267133 252 
L 347.567832 252 
L 347.567832 252 
L 346.267133 252 
z
" clip-path="url(#p27e642a749)" style="fill: #008000"/>
   </g>
   <g id="patch_217">
    <path d="M 347.567832 252 
L 348.868531 252 
L 348.868531 252 
L 347.567832 252 
z
" clip-path="url(#p27e642a749)" style="fill: #008000"/>
   </g>
   <g id="patch_218">
    <path d="M 348.868531 252 
L 350.169231 252 
L 350.169231 252 
L 348.868531 252 
z
" clip-path="url(#p27e642a749)" style="fill: #008000"/>
   </g>
   <g id="patch_219">
    <path d="M 350.169231 252 
L 351.46993 252 
L 351.46993 252 
L 350.169231 252 
z
" clip-path="url(#p27e642a749)" style="fill: #008000"/>
   </g>
   <g id="patch_220">
    <path d="M 351.46993 252 
L 352.770629 252 
L 352.770629 252 
L 351.46993 252 
z
" clip-path="url(#p27e642a749)" style="fill: #008000"/>
   </g>
   <g id="patch_221">
    <path d="M 352.770629 252 
L 354.071329 252 
L 354.071329 252 
L 352.770629 252 
z
" clip-path="url(#p27e642a749)" style="fill: #008000"/>
   </g>
   <g id="patch_222">
    <path d="M 354.071329 252 
L 355.372028 252 
L 355.372028 252 
L 354.071329 252 
z
" clip-path="url(#p27e642a749)" style="fill: #008000"/>
   </g>
   <g id="patch_223">
    <path d="M 355.372028 252 
L 356.672727 252 
L 356.672727 252 
L 355.372028 252 
z
" clip-path="url(#p27e642a749)" style="fill: #008000"/>
   </g>
   <g id="patch_224">
    <path d="M 356.672727 252 
L 357.973427 252 
L 357.973427 252 
L 356.672727 252 
z
" clip-path="url(#p27e642a749)" style="fill: #008000"/>
   </g>
   <g id="patch_225">
    <path d="M 357.973427 252 
L 359.274126 252 
L 359.274126 252 
L 357.973427 252 
z
" clip-path="url(#p27e642a749)" style="fill: #008000"/>
   </g>
   <g id="patch_226">
    <path d="M 359.274126 252 
L 360.574825 252 
L 360.574825 252 
L 359.274126 252 
z
" clip-path="url(#p27e642a749)" style="fill: #008000"/>
   </g>
   <g id="patch_227">
    <path d="M 360.574825 252 
L 361.875524 252 
L 361.875524 252 
L 360.574825 252 
z
" clip-path="url(#p27e642a749)" style="fill: #008000"/>
   </g>
   <g id="patch_228">
    <path d="M 361.875524 252 
L 363.176224 252 
L 363.176224 252 
L 361.875524 252 
z
" clip-path="url(#p27e642a749)" style="fill: #008000"/>
   </g>
   <g id="patch_229">
    <path d="M 363.176224 252 
L 364.476923 252 
L 364.476923 252 
L 363.176224 252 
z
" clip-path="url(#p27e642a749)" style="fill: #008000"/>
   </g>
   <g id="patch_230">
    <path d="M 364.476923 252 
L 365.777622 252 
L 365.777622 252 
L 364.476923 252 
z
" clip-path="url(#p27e642a749)" style="fill: #008000"/>
   </g>
   <g id="patch_231">
    <path d="M 365.777622 252 
L 367.078322 252 
L 367.078322 252 
L 365.777622 252 
z
" clip-path="url(#p27e642a749)" style="fill: #008000"/>
   </g>
   <g id="patch_232">
    <path d="M 367.078322 252 
L 368.379021 252 
L 368.379021 251.561259 
L 367.078322 251.561259 
z
" clip-path="url(#p27e642a749)" style="fill: #008000"/>
   </g>
   <g id="patch_233">
    <path d="M 368.379021 252 
L 369.67972 252 
L 369.67972 252 
L 368.379021 252 
z
" clip-path="url(#p27e642a749)" style="fill: #008000"/>
   </g>
   <g id="patch_234">
    <path d="M 369.67972 252 
L 370.98042 252 
L 370.98042 252 
L 369.67972 252 
z
" clip-path="url(#p27e642a749)" style="fill: #008000"/>
   </g>
   <g id="patch_235">
    <path d="M 370.98042 252 
L 372.281119 252 
L 372.281119 252 
L 370.98042 252 
z
" clip-path="url(#p27e642a749)" style="fill: #008000"/>
   </g>
   <g id="patch_236">
    <path d="M 372.281119 252 
L 373.581818 252 
L 373.581818 251.561259 
L 372.281119 251.561259 
z
" clip-path="url(#p27e642a749)" style="fill: #008000"/>
   </g>
   <g id="matplotlib.axis_1">
    <g id="xtick_1">
     <g id="line2d_1">
      <path d="M 116.043357 252 
L 116.043357 34.56 
" clip-path="url(#p27e642a749)" style="fill: none; stroke: #b0b0b0; stroke-width: 0.8; stroke-linecap: square"/>
     </g>
     <g id="line2d_2">
      <defs>
       <path id="m56eb3303d5" d="M 0 0 
L 0 3.5 
" style="stroke: #000000; stroke-width: 0.8"/>
      </defs>
      <g>
       <use xlink:href="#m56eb3303d5" x="116.043357" y="252" style="stroke: #000000; stroke-width: 0.8"/>
      </g>
     </g>
     <g id="text_1">
      <!-- 50 -->
      <g transform="translate(109.680857 266.598437) scale(0.1 -0.1)">
       <defs>
        <path id="DejaVuSans-35" d="M 691 4666 
L 3169 4666 
L 3169 4134 
L 1269 4134 
L 1269 2991 
Q 1406 3038 1543 3061 
Q 1681 3084 1819 3084 
Q 2600 3084 3056 2656 
Q 3513 2228 3513 1497 
Q 3513 744 3044 326 
Q 2575 -91 1722 -91 
Q 1428 -91 1123 -41 
Q 819 9 494 109 
L 494 744 
Q 775 591 1075 516 
Q 1375 441 1709 441 
Q 2250 441 2565 725 
Q 2881 1009 2881 1497 
Q 2881 1984 2565 2268 
Q 2250 2553 1709 2553 
Q 1456 2553 1204 2497 
Q 953 2441 691 2322 
L 691 4666 
z
" transform="scale(0.015625)"/>
        <path id="DejaVuSans-30" d="M 2034 4250 
Q 1547 4250 1301 3770 
Q 1056 3291 1056 2328 
Q 1056 1369 1301 889 
Q 1547 409 2034 409 
Q 2525 409 2770 889 
Q 3016 1369 3016 2328 
Q 3016 3291 2770 3770 
Q 2525 4250 2034 4250 
z
M 2034 4750 
Q 2819 4750 3233 4129 
Q 3647 3509 3647 2328 
Q 3647 1150 3233 529 
Q 2819 -91 2034 -91 
Q 1250 -91 836 529 
Q 422 1150 422 2328 
Q 422 3509 836 4129 
Q 1250 4750 2034 4750 
z
" transform="scale(0.015625)"/>
       </defs>
       <use xlink:href="#DejaVuSans-35"/>
       <use xlink:href="#DejaVuSans-30" x="63.623047"/>
      </g>
     </g>
    </g>
    <g id="xtick_2">
     <g id="line2d_3">
      <path d="M 181.078322 252 
L 181.078322 34.56 
" clip-path="url(#p27e642a749)" style="fill: none; stroke: #b0b0b0; stroke-width: 0.8; stroke-linecap: square"/>
     </g>
     <g id="line2d_4">
      <g>
       <use xlink:href="#m56eb3303d5" x="181.078322" y="252" style="stroke: #000000; stroke-width: 0.8"/>
      </g>
     </g>
     <g id="text_2">
      <!-- 100 -->
      <g transform="translate(171.534572 266.598437) scale(0.1 -0.1)">
       <defs>
        <path id="DejaVuSans-31" d="M 794 531 
L 1825 531 
L 1825 4091 
L 703 3866 
L 703 4441 
L 1819 4666 
L 2450 4666 
L 2450 531 
L 3481 531 
L 3481 0 
L 794 0 
L 794 531 
z
" transform="scale(0.015625)"/>
       </defs>
       <use xlink:href="#DejaVuSans-31"/>
       <use xlink:href="#DejaVuSans-30" x="63.623047"/>
       <use xlink:href="#DejaVuSans-30" x="127.246094"/>
      </g>
     </g>
    </g>
    <g id="xtick_3">
     <g id="line2d_5">
      <path d="M 246.113287 252 
L 246.113287 34.56 
" clip-path="url(#p27e642a749)" style="fill: none; stroke: #b0b0b0; stroke-width: 0.8; stroke-linecap: square"/>
     </g>
     <g id="line2d_6">
      <g>
       <use xlink:href="#m56eb3303d5" x="246.113287" y="252" style="stroke: #000000; stroke-width: 0.8"/>
      </g>
     </g>
     <g id="text_3">
      <!-- 150 -->
      <g transform="translate(236.569537 266.598437) scale(0.1 -0.1)">
       <use xlink:href="#DejaVuSans-31"/>
       <use xlink:href="#DejaVuSans-35" x="63.623047"/>
       <use xlink:href="#DejaVuSans-30" x="127.246094"/>
      </g>
     </g>
    </g>
    <g id="xtick_4">
     <g id="line2d_7">
      <path d="M 311.148252 252 
L 311.148252 34.56 
" clip-path="url(#p27e642a749)" style="fill: none; stroke: #b0b0b0; stroke-width: 0.8; stroke-linecap: square"/>
     </g>
     <g id="line2d_8">
      <g>
       <use xlink:href="#m56eb3303d5" x="311.148252" y="252" style="stroke: #000000; stroke-width: 0.8"/>
      </g>
     </g>
     <g id="text_4">
      <!-- 200 -->
      <g transform="translate(301.604502 266.598437) scale(0.1 -0.1)">
       <defs>
        <path id="DejaVuSans-32" d="M 1228 531 
L 3431 531 
L 3431 0 
L 469 0 
L 469 531 
Q 828 903 1448 1529 
Q 2069 2156 2228 2338 
Q 2531 2678 2651 2914 
Q 2772 3150 2772 3378 
Q 2772 3750 2511 3984 
Q 2250 4219 1831 4219 
Q 1534 4219 1204 4116 
Q 875 4013 500 3803 
L 500 4441 
Q 881 4594 1212 4672 
Q 1544 4750 1819 4750 
Q 2544 4750 2975 4387 
Q 3406 4025 3406 3419 
Q 3406 3131 3298 2873 
Q 3191 2616 2906 2266 
Q 2828 2175 2409 1742 
Q 1991 1309 1228 531 
z
" transform="scale(0.015625)"/>
       </defs>
       <use xlink:href="#DejaVuSans-32"/>
       <use xlink:href="#DejaVuSans-30" x="63.623047"/>
       <use xlink:href="#DejaVuSans-30" x="127.246094"/>
      </g>
     </g>
    </g>
    <g id="xtick_5">
     <g id="line2d_9">
      <path d="M 376.183217 252 
L 376.183217 34.56 
" clip-path="url(#p27e642a749)" style="fill: none; stroke: #b0b0b0; stroke-width: 0.8; stroke-linecap: square"/>
     </g>
     <g id="line2d_10">
      <g>
       <use xlink:href="#m56eb3303d5" x="376.183217" y="252" style="stroke: #000000; stroke-width: 0.8"/>
      </g>
     </g>
     <g id="text_5">
      <!-- 250 -->
      <g transform="translate(366.639467 266.598437) scale(0.1 -0.1)">
       <use xlink:href="#DejaVuSans-32"/>
       <use xlink:href="#DejaVuSans-35" x="63.623047"/>
       <use xlink:href="#DejaVuSans-30" x="127.246094"/>
      </g>
     </g>
    </g>
    <g id="text_6">
     <!-- # of photons -->
     <g transform="translate(189.017188 280.276563) scale(0.1 -0.1)">
      <defs>
       <path id="DejaVuSans-23" d="M 3272 2816 
L 2363 2816 
L 2100 1772 
L 3016 1772 
L 3272 2816 
z
M 2803 4594 
L 2478 3297 
L 3391 3297 
L 3719 4594 
L 4219 4594 
L 3897 3297 
L 4872 3297 
L 4872 2816 
L 3775 2816 
L 3519 1772 
L 4513 1772 
L 4513 1294 
L 3397 1294 
L 3072 0 
L 2572 0 
L 2894 1294 
L 1978 1294 
L 1656 0 
L 1153 0 
L 1478 1294 
L 494 1294 
L 494 1772 
L 1594 1772 
L 1856 2816 
L 850 2816 
L 850 3297 
L 1978 3297 
L 2297 4594 
L 2803 4594 
z
" transform="scale(0.015625)"/>
       <path id="DejaVuSans-20" transform="scale(0.015625)"/>
       <path id="DejaVuSans-6f" d="M 1959 3097 
Q 1497 3097 1228 2736 
Q 959 2375 959 1747 
Q 959 1119 1226 758 
Q 1494 397 1959 397 
Q 2419 397 2687 759 
Q 2956 1122 2956 1747 
Q 2956 2369 2687 2733 
Q 2419 3097 1959 3097 
z
M 1959 3584 
Q 2709 3584 3137 3096 
Q 3566 2609 3566 1747 
Q 3566 888 3137 398 
Q 2709 -91 1959 -91 
Q 1206 -91 779 398 
Q 353 888 353 1747 
Q 353 2609 779 3096 
Q 1206 3584 1959 3584 
z
" transform="scale(0.015625)"/>
       <path id="DejaVuSans-66" d="M 2375 4863 
L 2375 4384 
L 1825 4384 
Q 1516 4384 1395 4259 
Q 1275 4134 1275 3809 
L 1275 3500 
L 2222 3500 
L 2222 3053 
L 1275 3053 
L 1275 0 
L 697 0 
L 697 3053 
L 147 3053 
L 147 3500 
L 697 3500 
L 697 3744 
Q 697 4328 969 4595 
Q 1241 4863 1831 4863 
L 2375 4863 
z
" transform="scale(0.015625)"/>
       <path id="DejaVuSans-70" d="M 1159 525 
L 1159 -1331 
L 581 -1331 
L 581 3500 
L 1159 3500 
L 1159 2969 
Q 1341 3281 1617 3432 
Q 1894 3584 2278 3584 
Q 2916 3584 3314 3078 
Q 3713 2572 3713 1747 
Q 3713 922 3314 415 
Q 2916 -91 2278 -91 
Q 1894 -91 1617 61 
Q 1341 213 1159 525 
z
M 3116 1747 
Q 3116 2381 2855 2742 
Q 2594 3103 2138 3103 
Q 1681 3103 1420 2742 
Q 1159 2381 1159 1747 
Q 1159 1113 1420 752 
Q 1681 391 2138 391 
Q 2594 391 2855 752 
Q 3116 1113 3116 1747 
z
" transform="scale(0.015625)"/>
       <path id="DejaVuSans-68" d="M 3513 2113 
L 3513 0 
L 2938 0 
L 2938 2094 
Q 2938 2591 2744 2837 
Q 2550 3084 2163 3084 
Q 1697 3084 1428 2787 
Q 1159 2491 1159 1978 
L 1159 0 
L 581 0 
L 581 4863 
L 1159 4863 
L 1159 2956 
Q 1366 3272 1645 3428 
Q 1925 3584 2291 3584 
Q 2894 3584 3203 3211 
Q 3513 2838 3513 2113 
z
" transform="scale(0.015625)"/>
       <path id="DejaVuSans-74" d="M 1172 4494 
L 1172 3500 
L 2356 3500 
L 2356 3053 
L 1172 3053 
L 1172 1153 
Q 1172 725 1289 603 
Q 1406 481 1766 481 
L 2356 481 
L 2356 0 
L 1766 0 
Q 1100 0 847 248 
Q 594 497 594 1153 
L 594 3053 
L 172 3053 
L 172 3500 
L 594 3500 
L 594 4494 
L 1172 4494 
z
" transform="scale(0.015625)"/>
       <path id="DejaVuSans-6e" d="M 3513 2113 
L 3513 0 
L 2938 0 
L 2938 2094 
Q 2938 2591 2744 2837 
Q 2550 3084 2163 3084 
Q 1697 3084 1428 2787 
Q 1159 2491 1159 1978 
L 1159 0 
L 581 0 
L 581 3500 
L 1159 3500 
L 1159 2956 
Q 1366 3272 1645 3428 
Q 1925 3584 2291 3584 
Q 2894 3584 3203 3211 
Q 3513 2838 3513 2113 
z
" transform="scale(0.015625)"/>
       <path id="DejaVuSans-73" d="M 2834 3397 
L 2834 2853 
Q 2591 2978 2328 3040 
Q 2066 3103 1784 3103 
Q 1356 3103 1142 2972 
Q 928 2841 928 2578 
Q 928 2378 1081 2264 
Q 1234 2150 1697 2047 
L 1894 2003 
Q 2506 1872 2764 1633 
Q 3022 1394 3022 966 
Q 3022 478 2636 193 
Q 2250 -91 1575 -91 
Q 1294 -91 989 -36 
Q 684 19 347 128 
L 347 722 
Q 666 556 975 473 
Q 1284 391 1588 391 
Q 1994 391 2212 530 
Q 2431 669 2431 922 
Q 2431 1156 2273 1281 
Q 2116 1406 1581 1522 
L 1381 1569 
Q 847 1681 609 1914 
Q 372 2147 372 2553 
Q 372 3047 722 3315 
Q 1072 3584 1716 3584 
Q 2034 3584 2315 3537 
Q 2597 3491 2834 3397 
z
" transform="scale(0.015625)"/>
      </defs>
      <use xlink:href="#DejaVuSans-23"/>
      <use xlink:href="#DejaVuSans-20" x="83.789062"/>
      <use xlink:href="#DejaVuSans-6f" x="115.576172"/>
      <use xlink:href="#DejaVuSans-66" x="176.757812"/>
      <use xlink:href="#DejaVuSans-20" x="211.962891"/>
      <use xlink:href="#DejaVuSans-70" x="243.75"/>
      <use xlink:href="#DejaVuSans-68" x="307.226562"/>
      <use xlink:href="#DejaVuSans-6f" x="370.605469"/>
      <use xlink:href="#DejaVuSans-74" x="431.787109"/>
      <use xlink:href="#DejaVuSans-6f" x="470.996094"/>
      <use xlink:href="#DejaVuSans-6e" x="532.177734"/>
      <use xlink:href="#DejaVuSans-73" x="595.556641"/>
     </g>
    </g>
   </g>
   <g id="matplotlib.axis_2">
    <g id="ytick_1">
     <g id="line2d_11">
      <path d="M 54 252 
L 388.8 252 
" clip-path="url(#p27e642a749)" style="fill: none; stroke: #b0b0b0; stroke-width: 0.8; stroke-linecap: square"/>
     </g>
     <g id="line2d_12">
      <defs>
       <path id="m33bd59239d" d="M 0 0 
L -3.5 0 
" style="stroke: #000000; stroke-width: 0.8"/>
      </defs>
      <g>
       <use xlink:href="#m33bd59239d" x="54" y="252" style="stroke: #000000; stroke-width: 0.8"/>
      </g>
     </g>
     <g id="text_7">
      <!-- 0 -->
      <g transform="translate(40.6375 255.799219) scale(0.1 -0.1)">
       <use xlink:href="#DejaVuSans-30"/>
      </g>
     </g>
    </g>
    <g id="ytick_2">
     <g id="line2d_13">
      <path d="M 54 208.125908 
L 388.8 208.125908 
" clip-path="url(#p27e642a749)" style="fill: none; stroke: #b0b0b0; stroke-width: 0.8; stroke-linecap: square"/>
     </g>
     <g id="line2d_14">
      <g>
       <use xlink:href="#m33bd59239d" x="54" y="208.125908" style="stroke: #000000; stroke-width: 0.8"/>
      </g>
     </g>
     <g id="text_8">
      <!-- 100 -->
      <g transform="translate(27.9125 211.925127) scale(0.1 -0.1)">
       <use xlink:href="#DejaVuSans-31"/>
       <use xlink:href="#DejaVuSans-30" x="63.623047"/>
       <use xlink:href="#DejaVuSans-30" x="127.246094"/>
      </g>
     </g>
    </g>
    <g id="ytick_3">
     <g id="line2d_15">
      <path d="M 54 164.251816 
L 388.8 164.251816 
" clip-path="url(#p27e642a749)" style="fill: none; stroke: #b0b0b0; stroke-width: 0.8; stroke-linecap: square"/>
     </g>
     <g id="line2d_16">
      <g>
       <use xlink:href="#m33bd59239d" x="54" y="164.251816" style="stroke: #000000; stroke-width: 0.8"/>
      </g>
     </g>
     <g id="text_9">
      <!-- 200 -->
      <g transform="translate(27.9125 168.051035) scale(0.1 -0.1)">
       <use xlink:href="#DejaVuSans-32"/>
       <use xlink:href="#DejaVuSans-30" x="63.623047"/>
       <use xlink:href="#DejaVuSans-30" x="127.246094"/>
      </g>
     </g>
    </g>
    <g id="ytick_4">
     <g id="line2d_17">
      <path d="M 54 120.377724 
L 388.8 120.377724 
" clip-path="url(#p27e642a749)" style="fill: none; stroke: #b0b0b0; stroke-width: 0.8; stroke-linecap: square"/>
     </g>
     <g id="line2d_18">
      <g>
       <use xlink:href="#m33bd59239d" x="54" y="120.377724" style="stroke: #000000; stroke-width: 0.8"/>
      </g>
     </g>
     <g id="text_10">
      <!-- 300 -->
      <g transform="translate(27.9125 124.176943) scale(0.1 -0.1)">
       <defs>
        <path id="DejaVuSans-33" d="M 2597 2516 
Q 3050 2419 3304 2112 
Q 3559 1806 3559 1356 
Q 3559 666 3084 287 
Q 2609 -91 1734 -91 
Q 1441 -91 1130 -33 
Q 819 25 488 141 
L 488 750 
Q 750 597 1062 519 
Q 1375 441 1716 441 
Q 2309 441 2620 675 
Q 2931 909 2931 1356 
Q 2931 1769 2642 2001 
Q 2353 2234 1838 2234 
L 1294 2234 
L 1294 2753 
L 1863 2753 
Q 2328 2753 2575 2939 
Q 2822 3125 2822 3475 
Q 2822 3834 2567 4026 
Q 2313 4219 1838 4219 
Q 1578 4219 1281 4162 
Q 984 4106 628 3988 
L 628 4550 
Q 988 4650 1302 4700 
Q 1616 4750 1894 4750 
Q 2613 4750 3031 4423 
Q 3450 4097 3450 3541 
Q 3450 3153 3228 2886 
Q 3006 2619 2597 2516 
z
" transform="scale(0.015625)"/>
       </defs>
       <use xlink:href="#DejaVuSans-33"/>
       <use xlink:href="#DejaVuSans-30" x="63.623047"/>
       <use xlink:href="#DejaVuSans-30" x="127.246094"/>
      </g>
     </g>
    </g>
    <g id="ytick_5">
     <g id="line2d_19">
      <path d="M 54 76.503632 
L 388.8 76.503632 
" clip-path="url(#p27e642a749)" style="fill: none; stroke: #b0b0b0; stroke-width: 0.8; stroke-linecap: square"/>
     </g>
     <g id="line2d_20">
      <g>
       <use xlink:href="#m33bd59239d" x="54" y="76.503632" style="stroke: #000000; stroke-width: 0.8"/>
      </g>
     </g>
     <g id="text_11">
      <!-- 400 -->
      <g transform="translate(27.9125 80.302851) scale(0.1 -0.1)">
       <defs>
        <path id="DejaVuSans-34" d="M 2419 4116 
L 825 1625 
L 2419 1625 
L 2419 4116 
z
M 2253 4666 
L 3047 4666 
L 3047 1625 
L 3713 1625 
L 3713 1100 
L 3047 1100 
L 3047 0 
L 2419 0 
L 2419 1100 
L 313 1100 
L 313 1709 
L 2253 4666 
z
" transform="scale(0.015625)"/>
       </defs>
       <use xlink:href="#DejaVuSans-34"/>
       <use xlink:href="#DejaVuSans-30" x="63.623047"/>
       <use xlink:href="#DejaVuSans-30" x="127.246094"/>
      </g>
     </g>
    </g>
    <g id="text_12">
     <!-- # of events -->
     <g transform="translate(21.832812 172.313594) rotate(-90) scale(0.1 -0.1)">
      <defs>
       <path id="DejaVuSans-65" d="M 3597 1894 
L 3597 1613 
L 953 1613 
Q 991 1019 1311 708 
Q 1631 397 2203 397 
Q 2534 397 2845 478 
Q 3156 559 3463 722 
L 3463 178 
Q 3153 47 2828 -22 
Q 2503 -91 2169 -91 
Q 1331 -91 842 396 
Q 353 884 353 1716 
Q 353 2575 817 3079 
Q 1281 3584 2069 3584 
Q 2775 3584 3186 3129 
Q 3597 2675 3597 1894 
z
M 3022 2063 
Q 3016 2534 2758 2815 
Q 2500 3097 2075 3097 
Q 1594 3097 1305 2825 
Q 1016 2553 972 2059 
L 3022 2063 
z
" transform="scale(0.015625)"/>
       <path id="DejaVuSans-76" d="M 191 3500 
L 800 3500 
L 1894 563 
L 2988 3500 
L 3597 3500 
L 2284 0 
L 1503 0 
L 191 3500 
z
" transform="scale(0.015625)"/>
      </defs>
      <use xlink:href="#DejaVuSans-23"/>
      <use xlink:href="#DejaVuSans-20" x="83.789062"/>
      <use xlink:href="#DejaVuSans-6f" x="115.576172"/>
      <use xlink:href="#DejaVuSans-66" x="176.757812"/>
      <use xlink:href="#DejaVuSans-20" x="211.962891"/>
      <use xlink:href="#DejaVuSans-65" x="243.75"/>
      <use xlink:href="#DejaVuSans-76" x="305.273438"/>
      <use xlink:href="#DejaVuSans-65" x="364.453125"/>
      <use xlink:href="#DejaVuSans-6e" x="425.976562"/>
      <use xlink:href="#DejaVuSans-74" x="489.355469"/>
      <use xlink:href="#DejaVuSans-73" x="528.564453"/>
     </g>
    </g>
   </g>
   <g id="patch_237">
    <path d="M 54 252 
L 54 34.56 
" style="fill: none; stroke: #000000; stroke-width: 0.8; stroke-linejoin: miter; stroke-linecap: square"/>
   </g>
   <g id="patch_238">
    <path d="M 388.8 252 
L 388.8 34.56 
" style="fill: none; stroke: #000000; stroke-width: 0.8; stroke-linejoin: miter; stroke-linecap: square"/>
   </g>
   <g id="patch_239">
    <path d="M 54 252 
L 388.8 252 
" style="fill: none; stroke: #000000; stroke-width: 0.8; stroke-linejoin: miter; stroke-linecap: square"/>
   </g>
   <g id="patch_240">
    <path d="M 54 34.56 
L 388.8 34.56 
" style="fill: none; stroke: #000000; stroke-width: 0.8; stroke-linejoin: miter; stroke-linecap: square"/>
   </g>
   <g id="text_13">
    <!-- $\mu=40.76,\ \sigma=13.555$ -->
    <g transform="translate(187.581818 157.670702) scale(0.14 -0.14)">
     <defs>
      <path id="DejaVuSans-Oblique-3bc" d="M -84 -1331 
L 856 3500 
L 1434 3500 
L 1009 1322 
Q 997 1256 987 1175 
Q 978 1094 978 1013 
Q 978 722 1161 565 
Q 1344 409 1684 409 
Q 2147 409 2431 671 
Q 2716 934 2816 1459 
L 3213 3500 
L 3788 3500 
L 3266 809 
Q 3253 750 3248 706 
Q 3244 663 3244 628 
Q 3244 531 3283 486 
Q 3322 441 3406 441 
Q 3438 441 3492 456 
Q 3547 472 3647 513 
L 3559 50 
Q 3422 -19 3297 -55 
Q 3172 -91 3053 -91 
Q 2847 -91 2730 40 
Q 2613 172 2613 403 
Q 2438 153 2195 31 
Q 1953 -91 1625 -91 
Q 1334 -91 1117 43 
Q 900 178 831 397 
L 494 -1331 
L -84 -1331 
z
" transform="scale(0.015625)"/>
      <path id="DejaVuSans-3d" d="M 678 2906 
L 4684 2906 
L 4684 2381 
L 678 2381 
L 678 2906 
z
M 678 1631 
L 4684 1631 
L 4684 1100 
L 678 1100 
L 678 1631 
z
" transform="scale(0.015625)"/>
      <path id="DejaVuSans-2e" d="M 684 794 
L 1344 794 
L 1344 0 
L 684 0 
L 684 794 
z
" transform="scale(0.015625)"/>
      <path id="DejaVuSans-37" d="M 525 4666 
L 3525 4666 
L 3525 4397 
L 1831 0 
L 1172 0 
L 2766 4134 
L 525 4134 
L 525 4666 
z
" transform="scale(0.015625)"/>
      <path id="DejaVuSans-36" d="M 2113 2584 
Q 1688 2584 1439 2293 
Q 1191 2003 1191 1497 
Q 1191 994 1439 701 
Q 1688 409 2113 409 
Q 2538 409 2786 701 
Q 3034 994 3034 1497 
Q 3034 2003 2786 2293 
Q 2538 2584 2113 2584 
z
M 3366 4563 
L 3366 3988 
Q 3128 4100 2886 4159 
Q 2644 4219 2406 4219 
Q 1781 4219 1451 3797 
Q 1122 3375 1075 2522 
Q 1259 2794 1537 2939 
Q 1816 3084 2150 3084 
Q 2853 3084 3261 2657 
Q 3669 2231 3669 1497 
Q 3669 778 3244 343 
Q 2819 -91 2113 -91 
Q 1303 -91 875 529 
Q 447 1150 447 2328 
Q 447 3434 972 4092 
Q 1497 4750 2381 4750 
Q 2619 4750 2861 4703 
Q 3103 4656 3366 4563 
z
" transform="scale(0.015625)"/>
      <path id="DejaVuSans-2c" d="M 750 794 
L 1409 794 
L 1409 256 
L 897 -744 
L 494 -744 
L 750 256 
L 750 794 
z
" transform="scale(0.015625)"/>
      <path id="DejaVuSans-Oblique-3c3" d="M 2219 3044 
Q 1744 3044 1422 2700 
Q 1081 2341 969 1747 
Q 844 1119 1044 756 
Q 1241 397 1706 397 
Q 2166 397 2503 759 
Q 2844 1122 2966 1747 
Q 3075 2319 2881 2700 
Q 2700 3044 2219 3044 
z
M 2309 3503 
L 4219 3500 
L 4106 2925 
L 3463 2925 
Q 3706 2438 3575 1747 
Q 3406 888 2884 400 
Q 2359 -91 1609 -91 
Q 856 -91 525 400 
Q 194 888 363 1747 
Q 528 2609 1050 3097 
Q 1484 3503 2309 3503 
z
" transform="scale(0.015625)"/>
     </defs>
     <use xlink:href="#DejaVuSans-Oblique-3bc" transform="translate(0 0.78125)"/>
     <use xlink:href="#DejaVuSans-3d" transform="translate(83.105469 0.78125)"/>
     <use xlink:href="#DejaVuSans-34" transform="translate(186.376953 0.78125)"/>
     <use xlink:href="#DejaVuSans-30" transform="translate(250 0.78125)"/>
     <use xlink:href="#DejaVuSans-2e" transform="translate(313.623047 0.78125)"/>
     <use xlink:href="#DejaVuSans-37" transform="translate(337.660156 0.78125)"/>
     <use xlink:href="#DejaVuSans-36" transform="translate(401.283203 0.78125)"/>
     <use xlink:href="#DejaVuSans-2c" transform="translate(464.90625 0.78125)"/>
     <use xlink:href="#DejaVuSans-Oblique-3c3" transform="translate(548.64616 0.78125)"/>
     <use xlink:href="#DejaVuSans-3d" transform="translate(631.507488 0.78125)"/>
     <use xlink:href="#DejaVuSans-31" transform="translate(734.778972 0.78125)"/>
     <use xlink:href="#DejaVuSans-33" transform="translate(798.402019 0.78125)"/>
     <use xlink:href="#DejaVuSans-2e" transform="translate(862.025066 0.78125)"/>
     <use xlink:href="#DejaVuSans-35" transform="translate(893.812175 0.78125)"/>
     <use xlink:href="#DejaVuSans-35" transform="translate(957.435222 0.78125)"/>
     <use xlink:href="#DejaVuSans-35" transform="translate(1021.058269 0.78125)"/>
    </g>
   </g>
   <g id="text_14">
    <!-- # of photons, 5GeV pi-, 1.5m length segment -->
    <g transform="translate(84.460313 28.56) scale(0.12 -0.12)">
     <defs>
      <path id="DejaVuSans-47" d="M 3809 666 
L 3809 1919 
L 2778 1919 
L 2778 2438 
L 4434 2438 
L 4434 434 
Q 4069 175 3628 42 
Q 3188 -91 2688 -91 
Q 1594 -91 976 548 
Q 359 1188 359 2328 
Q 359 3472 976 4111 
Q 1594 4750 2688 4750 
Q 3144 4750 3555 4637 
Q 3966 4525 4313 4306 
L 4313 3634 
Q 3963 3931 3569 4081 
Q 3175 4231 2741 4231 
Q 1884 4231 1454 3753 
Q 1025 3275 1025 2328 
Q 1025 1384 1454 906 
Q 1884 428 2741 428 
Q 3075 428 3337 486 
Q 3600 544 3809 666 
z
" transform="scale(0.015625)"/>
      <path id="DejaVuSans-56" d="M 1831 0 
L 50 4666 
L 709 4666 
L 2188 738 
L 3669 4666 
L 4325 4666 
L 2547 0 
L 1831 0 
z
" transform="scale(0.015625)"/>
      <path id="DejaVuSans-69" d="M 603 3500 
L 1178 3500 
L 1178 0 
L 603 0 
L 603 3500 
z
M 603 4863 
L 1178 4863 
L 1178 4134 
L 603 4134 
L 603 4863 
z
" transform="scale(0.015625)"/>
      <path id="DejaVuSans-2d" d="M 313 2009 
L 1997 2009 
L 1997 1497 
L 313 1497 
L 313 2009 
z
" transform="scale(0.015625)"/>
      <path id="DejaVuSans-6d" d="M 3328 2828 
Q 3544 3216 3844 3400 
Q 4144 3584 4550 3584 
Q 5097 3584 5394 3201 
Q 5691 2819 5691 2113 
L 5691 0 
L 5113 0 
L 5113 2094 
Q 5113 2597 4934 2840 
Q 4756 3084 4391 3084 
Q 3944 3084 3684 2787 
Q 3425 2491 3425 1978 
L 3425 0 
L 2847 0 
L 2847 2094 
Q 2847 2600 2669 2842 
Q 2491 3084 2119 3084 
Q 1678 3084 1418 2786 
Q 1159 2488 1159 1978 
L 1159 0 
L 581 0 
L 581 3500 
L 1159 3500 
L 1159 2956 
Q 1356 3278 1631 3431 
Q 1906 3584 2284 3584 
Q 2666 3584 2933 3390 
Q 3200 3197 3328 2828 
z
" transform="scale(0.015625)"/>
      <path id="DejaVuSans-6c" d="M 603 4863 
L 1178 4863 
L 1178 0 
L 603 0 
L 603 4863 
z
" transform="scale(0.015625)"/>
      <path id="DejaVuSans-67" d="M 2906 1791 
Q 2906 2416 2648 2759 
Q 2391 3103 1925 3103 
Q 1463 3103 1205 2759 
Q 947 2416 947 1791 
Q 947 1169 1205 825 
Q 1463 481 1925 481 
Q 2391 481 2648 825 
Q 2906 1169 2906 1791 
z
M 3481 434 
Q 3481 -459 3084 -895 
Q 2688 -1331 1869 -1331 
Q 1566 -1331 1297 -1286 
Q 1028 -1241 775 -1147 
L 775 -588 
Q 1028 -725 1275 -790 
Q 1522 -856 1778 -856 
Q 2344 -856 2625 -561 
Q 2906 -266 2906 331 
L 2906 616 
Q 2728 306 2450 153 
Q 2172 0 1784 0 
Q 1141 0 747 490 
Q 353 981 353 1791 
Q 353 2603 747 3093 
Q 1141 3584 1784 3584 
Q 2172 3584 2450 3431 
Q 2728 3278 2906 2969 
L 2906 3500 
L 3481 3500 
L 3481 434 
z
" transform="scale(0.015625)"/>
     </defs>
     <use xlink:href="#DejaVuSans-23"/>
     <use xlink:href="#DejaVuSans-20" x="83.789062"/>
     <use xlink:href="#DejaVuSans-6f" x="115.576172"/>
     <use xlink:href="#DejaVuSans-66" x="176.757812"/>
     <use xlink:href="#DejaVuSans-20" x="211.962891"/>
     <use xlink:href="#DejaVuSans-70" x="243.75"/>
     <use xlink:href="#DejaVuSans-68" x="307.226562"/>
     <use xlink:href="#DejaVuSans-6f" x="370.605469"/>
     <use xlink:href="#DejaVuSans-74" x="431.787109"/>
     <use xlink:href="#DejaVuSans-6f" x="470.996094"/>
     <use xlink:href="#DejaVuSans-6e" x="532.177734"/>
     <use xlink:href="#DejaVuSans-73" x="595.556641"/>
     <use xlink:href="#DejaVuSans-2c" x="647.65625"/>
     <use xlink:href="#DejaVuSans-20" x="679.443359"/>
     <use xlink:href="#DejaVuSans-35" x="711.230469"/>
     <use xlink:href="#DejaVuSans-47" x="774.853516"/>
     <use xlink:href="#DejaVuSans-65" x="852.34375"/>
     <use xlink:href="#DejaVuSans-56" x="913.867188"/>
     <use xlink:href="#DejaVuSans-20" x="982.275391"/>
     <use xlink:href="#DejaVuSans-70" x="1014.0625"/>
     <use xlink:href="#DejaVuSans-69" x="1077.539062"/>
     <use xlink:href="#DejaVuSans-2d" x="1105.322266"/>
     <use xlink:href="#DejaVuSans-2c" x="1141.40625"/>
     <use xlink:href="#DejaVuSans-20" x="1173.193359"/>
     <use xlink:href="#DejaVuSans-31" x="1204.980469"/>
     <use xlink:href="#DejaVuSans-2e" x="1268.603516"/>
     <use xlink:href="#DejaVuSans-35" x="1300.390625"/>
     <use xlink:href="#DejaVuSans-6d" x="1364.013672"/>
     <use xlink:href="#DejaVuSans-20" x="1461.425781"/>
     <use xlink:href="#DejaVuSans-6c" x="1493.212891"/>
     <use xlink:href="#DejaVuSans-65" x="1520.996094"/>
     <use xlink:href="#DejaVuSans-6e" x="1582.519531"/>
     <use xlink:href="#DejaVuSans-67" x="1645.898438"/>
     <use xlink:href="#DejaVuSans-74" x="1709.375"/>
     <use xlink:href="#DejaVuSans-68" x="1748.583984"/>
     <use xlink:href="#DejaVuSans-20" x="1811.962891"/>
     <use xlink:href="#DejaVuSans-73" x="1843.75"/>
     <use xlink:href="#DejaVuSans-65" x="1895.849609"/>
     <use xlink:href="#DejaVuSans-67" x="1957.373047"/>
     <use xlink:href="#DejaVuSans-6d" x="2020.849609"/>
     <use xlink:href="#DejaVuSans-65" x="2118.261719"/>
     <use xlink:href="#DejaVuSans-6e" x="2179.785156"/>
     <use xlink:href="#DejaVuSans-74" x="2243.164062"/>
    </g>
   </g>
  </g>
 </g>
 <defs>
  <clipPath id="p27e642a749">
   <rect x="54" y="34.56" width="334.8" height="217.44"/>
  </clipPath>
 </defs>
</svg>
