<?xml version="1.0" encoding="utf-8" standalone="no"?>
<!DOCTYPE svg PUBLIC "-//W3C//DTD SVG 1.1//EN"
  "http://www.w3.org/Graphics/SVG/1.1/DTD/svg11.dtd">
<svg xmlns:xlink="http://www.w3.org/1999/xlink" width="432pt" height="288pt" viewBox="0 0 432 288" xmlns="http://www.w3.org/2000/svg" version="1.1">
 <metadata>
  <rdf:RDF xmlns:dc="http://purl.org/dc/elements/1.1/" xmlns:cc="http://creativecommons.org/ns#" xmlns:rdf="http://www.w3.org/1999/02/22-rdf-syntax-ns#">
   <cc:Work>
    <dc:type rdf:resource="http://purl.org/dc/dcmitype/StillImage"/>
    <dc:date>2024-06-03T14:05:04.241010</dc:date>
    <dc:format>image/svg+xml</dc:format>
    <dc:creator>
     <cc:Agent>
      <dc:title>Matplotlib v3.7.4, https://matplotlib.org/</dc:title>
     </cc:Agent>
    </dc:creator>
   </cc:Work>
  </rdf:RDF>
 </metadata>
 <defs>
  <style type="text/css">*{stroke-linejoin: round; stroke-linecap: butt}</style>
 </defs>
 <g id="figure_1">
  <g id="patch_1">
   <path d="M 0 288 
L 432 288 
L 432 0 
L 0 0 
L 0 288 
z
" style="fill: none"/>
  </g>
  <g id="axes_1">
   <g id="patch_2">
    <path d="M 54 252 
L 388.8 252 
L 388.8 34.56 
L 54 34.56 
z
" style="fill: #ffffff"/>
   </g>
   <g id="patch_3">
    <path d="M 69.218182 252 
L 70.337166 252 
L 70.337166 251.307406 
L 69.218182 251.307406 
z
" clip-path="url(#p407856b543)" style="fill: #0000ff"/>
   </g>
   <g id="patch_4">
    <path d="M 70.337166 252 
L 71.45615 252 
L 71.45615 252 
L 70.337166 252 
z
" clip-path="url(#p407856b543)" style="fill: #0000ff"/>
   </g>
   <g id="patch_5">
    <path d="M 71.45615 252 
L 72.575134 252 
L 72.575134 252 
L 71.45615 252 
z
" clip-path="url(#p407856b543)" style="fill: #0000ff"/>
   </g>
   <g id="patch_6">
    <path d="M 72.575134 252 
L 73.694118 252 
L 73.694118 252 
L 72.575134 252 
z
" clip-path="url(#p407856b543)" style="fill: #0000ff"/>
   </g>
   <g id="patch_7">
    <path d="M 73.694118 252 
L 74.813102 252 
L 74.813102 252 
L 73.694118 252 
z
" clip-path="url(#p407856b543)" style="fill: #0000ff"/>
   </g>
   <g id="patch_8">
    <path d="M 74.813102 252 
L 75.932086 252 
L 75.932086 252 
L 74.813102 252 
z
" clip-path="url(#p407856b543)" style="fill: #0000ff"/>
   </g>
   <g id="patch_9">
    <path d="M 75.932086 252 
L 77.05107 252 
L 77.05107 251.307406 
L 75.932086 251.307406 
z
" clip-path="url(#p407856b543)" style="fill: #0000ff"/>
   </g>
   <g id="patch_10">
    <path d="M 77.05107 252 
L 78.170053 252 
L 78.170053 250.614811 
L 77.05107 250.614811 
z
" clip-path="url(#p407856b543)" style="fill: #0000ff"/>
   </g>
   <g id="patch_11">
    <path d="M 78.170053 252 
L 79.289037 252 
L 79.289037 249.229623 
L 78.170053 249.229623 
z
" clip-path="url(#p407856b543)" style="fill: #0000ff"/>
   </g>
   <g id="patch_12">
    <path d="M 79.289037 252 
L 80.408021 252 
L 80.408021 251.307406 
L 79.289037 251.307406 
z
" clip-path="url(#p407856b543)" style="fill: #0000ff"/>
   </g>
   <g id="patch_13">
    <path d="M 80.408021 252 
L 81.527005 252 
L 81.527005 250.614811 
L 80.408021 250.614811 
z
" clip-path="url(#p407856b543)" style="fill: #0000ff"/>
   </g>
   <g id="patch_14">
    <path d="M 81.527005 252 
L 82.645989 252 
L 82.645989 249.922217 
L 81.527005 249.922217 
z
" clip-path="url(#p407856b543)" style="fill: #0000ff"/>
   </g>
   <g id="patch_15">
    <path d="M 82.645989 252 
L 83.764973 252 
L 83.764973 247.151839 
L 82.645989 247.151839 
z
" clip-path="url(#p407856b543)" style="fill: #0000ff"/>
   </g>
   <g id="patch_16">
    <path d="M 83.764973 252 
L 84.883957 252 
L 84.883957 247.151839 
L 83.764973 247.151839 
z
" clip-path="url(#p407856b543)" style="fill: #0000ff"/>
   </g>
   <g id="patch_17">
    <path d="M 84.883957 252 
L 86.002941 252 
L 86.002941 244.381462 
L 84.883957 244.381462 
z
" clip-path="url(#p407856b543)" style="fill: #0000ff"/>
   </g>
   <g id="patch_18">
    <path d="M 86.002941 252 
L 87.121925 252 
L 87.121925 236.07033 
L 86.002941 236.07033 
z
" clip-path="url(#p407856b543)" style="fill: #0000ff"/>
   </g>
   <g id="patch_19">
    <path d="M 87.121925 252 
L 88.240909 252 
L 88.240909 233.992547 
L 87.121925 233.992547 
z
" clip-path="url(#p407856b543)" style="fill: #0000ff"/>
   </g>
   <g id="patch_20">
    <path d="M 88.240909 252 
L 89.359893 252 
L 89.359893 232.607358 
L 88.240909 232.607358 
z
" clip-path="url(#p407856b543)" style="fill: #0000ff"/>
   </g>
   <g id="patch_21">
    <path d="M 89.359893 252 
L 90.478877 252 
L 90.478877 223.603631 
L 89.359893 223.603631 
z
" clip-path="url(#p407856b543)" style="fill: #0000ff"/>
   </g>
   <g id="patch_22">
    <path d="M 90.478877 252 
L 91.597861 252 
L 91.597861 221.525848 
L 90.478877 221.525848 
z
" clip-path="url(#p407856b543)" style="fill: #0000ff"/>
   </g>
   <g id="patch_23">
    <path d="M 91.597861 252 
L 92.716845 252 
L 92.716845 217.370282 
L 91.597861 217.370282 
z
" clip-path="url(#p407856b543)" style="fill: #0000ff"/>
   </g>
   <g id="patch_24">
    <path d="M 92.716845 252 
L 93.835829 252 
L 93.835829 210.444338 
L 92.716845 210.444338 
z
" clip-path="url(#p407856b543)" style="fill: #0000ff"/>
   </g>
   <g id="patch_25">
    <path d="M 93.835829 252 
L 94.954813 252 
L 94.954813 191.051696 
L 93.835829 191.051696 
z
" clip-path="url(#p407856b543)" style="fill: #0000ff"/>
   </g>
   <g id="patch_26">
    <path d="M 94.954813 252 
L 96.073797 252 
L 96.073797 184.818347 
L 94.954813 184.818347 
z
" clip-path="url(#p407856b543)" style="fill: #0000ff"/>
   </g>
   <g id="patch_27">
    <path d="M 96.073797 252 
L 97.192781 252 
L 97.192781 179.970186 
L 96.073797 179.970186 
z
" clip-path="url(#p407856b543)" style="fill: #0000ff"/>
   </g>
   <g id="patch_28">
    <path d="M 97.192781 252 
L 98.311765 252 
L 98.311765 161.270139 
L 97.192781 161.270139 
z
" clip-path="url(#p407856b543)" style="fill: #0000ff"/>
   </g>
   <g id="patch_29">
    <path d="M 98.311765 252 
L 99.430749 252 
L 99.430749 155.729384 
L 98.311765 155.729384 
z
" clip-path="url(#p407856b543)" style="fill: #0000ff"/>
   </g>
   <g id="patch_30">
    <path d="M 99.430749 252 
L 100.549733 252 
L 100.549733 141.184902 
L 99.430749 141.184902 
z
" clip-path="url(#p407856b543)" style="fill: #0000ff"/>
   </g>
   <g id="patch_31">
    <path d="M 100.549733 252 
L 101.668717 252 
L 101.668717 123.177449 
L 100.549733 123.177449 
z
" clip-path="url(#p407856b543)" style="fill: #0000ff"/>
   </g>
   <g id="patch_32">
    <path d="M 101.668717 252 
L 102.787701 252 
L 102.787701 105.86259 
L 101.668717 105.86259 
z
" clip-path="url(#p407856b543)" style="fill: #0000ff"/>
   </g>
   <g id="patch_33">
    <path d="M 102.787701 252 
L 103.906684 252 
L 103.906684 96.166269 
L 102.787701 96.166269 
z
" clip-path="url(#p407856b543)" style="fill: #0000ff"/>
   </g>
   <g id="patch_34">
    <path d="M 103.906684 252 
L 105.025668 252 
L 105.025668 92.703297 
L 103.906684 92.703297 
z
" clip-path="url(#p407856b543)" style="fill: #0000ff"/>
   </g>
   <g id="patch_35">
    <path d="M 105.025668 252 
L 106.144652 252 
L 106.144652 76.773626 
L 105.025668 76.773626 
z
" clip-path="url(#p407856b543)" style="fill: #0000ff"/>
   </g>
   <g id="patch_36">
    <path d="M 106.144652 252 
L 107.263636 252 
L 107.263636 71.925466 
L 106.144652 71.925466 
z
" clip-path="url(#p407856b543)" style="fill: #0000ff"/>
   </g>
   <g id="patch_37">
    <path d="M 107.263636 252 
L 108.38262 252 
L 108.38262 64.999522 
L 107.263636 64.999522 
z
" clip-path="url(#p407856b543)" style="fill: #0000ff"/>
   </g>
   <g id="patch_38">
    <path d="M 108.38262 252 
L 109.501604 252 
L 109.501604 60.843956 
L 108.38262 60.843956 
z
" clip-path="url(#p407856b543)" style="fill: #0000ff"/>
   </g>
   <g id="patch_39">
    <path d="M 109.501604 252 
L 110.620588 252 
L 110.620588 49.762446 
L 109.501604 49.762446 
z
" clip-path="url(#p407856b543)" style="fill: #0000ff"/>
   </g>
   <g id="patch_40">
    <path d="M 110.620588 252 
L 111.739572 252 
L 111.739572 47.684663 
L 110.620588 47.684663 
z
" clip-path="url(#p407856b543)" style="fill: #0000ff"/>
   </g>
   <g id="patch_41">
    <path d="M 111.739572 252 
L 112.858556 252 
L 112.858556 44.914286 
L 111.739572 44.914286 
z
" clip-path="url(#p407856b543)" style="fill: #0000ff"/>
   </g>
   <g id="patch_42">
    <path d="M 112.858556 252 
L 113.97754 252 
L 113.97754 52.532824 
L 112.858556 52.532824 
z
" clip-path="url(#p407856b543)" style="fill: #0000ff"/>
   </g>
   <g id="patch_43">
    <path d="M 113.97754 252 
L 115.096524 252 
L 115.096524 50.455041 
L 113.97754 50.455041 
z
" clip-path="url(#p407856b543)" style="fill: #0000ff"/>
   </g>
   <g id="patch_44">
    <path d="M 115.096524 252 
L 116.215508 252 
L 116.215508 51.147635 
L 115.096524 51.147635 
z
" clip-path="url(#p407856b543)" style="fill: #0000ff"/>
   </g>
   <g id="patch_45">
    <path d="M 116.215508 252 
L 117.334492 252 
L 117.334492 71.925466 
L 116.215508 71.925466 
z
" clip-path="url(#p407856b543)" style="fill: #0000ff"/>
   </g>
   <g id="patch_46">
    <path d="M 117.334492 252 
L 118.453476 252 
L 118.453476 71.232871 
L 117.334492 71.232871 
z
" clip-path="url(#p407856b543)" style="fill: #0000ff"/>
   </g>
   <g id="patch_47">
    <path d="M 118.453476 252 
L 119.57246 252 
L 119.57246 80.236598 
L 118.453476 80.236598 
z
" clip-path="url(#p407856b543)" style="fill: #0000ff"/>
   </g>
   <g id="patch_48">
    <path d="M 119.57246 252 
L 120.691444 252 
L 120.691444 68.462494 
L 119.57246 68.462494 
z
" clip-path="url(#p407856b543)" style="fill: #0000ff"/>
   </g>
   <g id="patch_49">
    <path d="M 120.691444 252 
L 121.810428 252 
L 121.810428 97.551457 
L 120.691444 97.551457 
z
" clip-path="url(#p407856b543)" style="fill: #0000ff"/>
   </g>
   <g id="patch_50">
    <path d="M 121.810428 252 
L 122.929412 252 
L 122.929412 96.858863 
L 121.810428 96.858863 
z
" clip-path="url(#p407856b543)" style="fill: #0000ff"/>
   </g>
   <g id="patch_51">
    <path d="M 122.929412 252 
L 124.048396 252 
L 124.048396 101.707023 
L 122.929412 101.707023 
z
" clip-path="url(#p407856b543)" style="fill: #0000ff"/>
   </g>
   <g id="patch_52">
    <path d="M 124.048396 252 
L 125.16738 252 
L 125.16738 114.173722 
L 124.048396 114.173722 
z
" clip-path="url(#p407856b543)" style="fill: #0000ff"/>
   </g>
   <g id="patch_53">
    <path d="M 125.16738 252 
L 126.286364 252 
L 126.286364 127.333015 
L 125.16738 127.333015 
z
" clip-path="url(#p407856b543)" style="fill: #0000ff"/>
   </g>
   <g id="patch_54">
    <path d="M 126.286364 252 
L 127.405348 252 
L 127.405348 126.64042 
L 126.286364 126.64042 
z
" clip-path="url(#p407856b543)" style="fill: #0000ff"/>
   </g>
   <g id="patch_55">
    <path d="M 127.405348 252 
L 128.524332 252 
L 128.524332 134.258958 
L 127.405348 134.258958 
z
" clip-path="url(#p407856b543)" style="fill: #0000ff"/>
   </g>
   <g id="patch_56">
    <path d="M 128.524332 252 
L 129.643316 252 
L 129.643316 142.570091 
L 128.524332 142.570091 
z
" clip-path="url(#p407856b543)" style="fill: #0000ff"/>
   </g>
   <g id="patch_57">
    <path d="M 129.643316 252 
L 130.762299 252 
L 130.762299 146.725657 
L 129.643316 146.725657 
z
" clip-path="url(#p407856b543)" style="fill: #0000ff"/>
   </g>
   <g id="patch_58">
    <path d="M 130.762299 252 
L 131.881283 252 
L 131.881283 143.262685 
L 130.762299 143.262685 
z
" clip-path="url(#p407856b543)" style="fill: #0000ff"/>
   </g>
   <g id="patch_59">
    <path d="M 131.881283 252 
L 133.000267 252 
L 133.000267 168.888677 
L 131.881283 168.888677 
z
" clip-path="url(#p407856b543)" style="fill: #0000ff"/>
   </g>
   <g id="patch_60">
    <path d="M 133.000267 252 
L 134.119251 252 
L 134.119251 156.421978 
L 133.000267 156.421978 
z
" clip-path="url(#p407856b543)" style="fill: #0000ff"/>
   </g>
   <g id="patch_61">
    <path d="M 134.119251 252 
L 135.238235 252 
L 135.238235 178.584998 
L 134.119251 178.584998 
z
" clip-path="url(#p407856b543)" style="fill: #0000ff"/>
   </g>
   <g id="patch_62">
    <path d="M 135.238235 252 
L 136.357219 252 
L 136.357219 171.659054 
L 135.238235 171.659054 
z
" clip-path="url(#p407856b543)" style="fill: #0000ff"/>
   </g>
   <g id="patch_63">
    <path d="M 136.357219 252 
L 137.476203 252 
L 137.476203 180.662781 
L 136.357219 180.662781 
z
" clip-path="url(#p407856b543)" style="fill: #0000ff"/>
   </g>
   <g id="patch_64">
    <path d="M 137.476203 252 
L 138.595187 252 
L 138.595187 183.433158 
L 137.476203 183.433158 
z
" clip-path="url(#p407856b543)" style="fill: #0000ff"/>
   </g>
   <g id="patch_65">
    <path d="M 138.595187 252 
L 139.714171 252 
L 139.714171 186.89613 
L 138.595187 186.89613 
z
" clip-path="url(#p407856b543)" style="fill: #0000ff"/>
   </g>
   <g id="patch_66">
    <path d="M 139.714171 252 
L 140.833155 252 
L 140.833155 182.047969 
L 139.714171 182.047969 
z
" clip-path="url(#p407856b543)" style="fill: #0000ff"/>
   </g>
   <g id="patch_67">
    <path d="M 140.833155 252 
L 141.952139 252 
L 141.952139 204.210989 
L 140.833155 204.210989 
z
" clip-path="url(#p407856b543)" style="fill: #0000ff"/>
   </g>
   <g id="patch_68">
    <path d="M 141.952139 252 
L 143.071123 252 
L 143.071123 206.981366 
L 141.952139 206.981366 
z
" clip-path="url(#p407856b543)" style="fill: #0000ff"/>
   </g>
   <g id="patch_69">
    <path d="M 143.071123 252 
L 144.190107 252 
L 144.190107 203.518395 
L 143.071123 203.518395 
z
" clip-path="url(#p407856b543)" style="fill: #0000ff"/>
   </g>
   <g id="patch_70">
    <path d="M 144.190107 252 
L 145.309091 252 
L 145.309091 211.829527 
L 144.190107 211.829527 
z
" clip-path="url(#p407856b543)" style="fill: #0000ff"/>
   </g>
   <g id="patch_71">
    <path d="M 145.309091 252 
L 146.428075 252 
L 146.428075 211.829527 
L 145.309091 211.829527 
z
" clip-path="url(#p407856b543)" style="fill: #0000ff"/>
   </g>
   <g id="patch_72">
    <path d="M 146.428075 252 
L 147.547059 252 
L 147.547059 218.062876 
L 146.428075 218.062876 
z
" clip-path="url(#p407856b543)" style="fill: #0000ff"/>
   </g>
   <g id="patch_73">
    <path d="M 147.547059 252 
L 148.666043 252 
L 148.666043 223.603631 
L 147.547059 223.603631 
z
" clip-path="url(#p407856b543)" style="fill: #0000ff"/>
   </g>
   <g id="patch_74">
    <path d="M 148.666043 252 
L 149.785027 252 
L 149.785027 224.98882 
L 148.666043 224.98882 
z
" clip-path="url(#p407856b543)" style="fill: #0000ff"/>
   </g>
   <g id="patch_75">
    <path d="M 149.785027 252 
L 150.904011 252 
L 150.904011 217.370282 
L 149.785027 217.370282 
z
" clip-path="url(#p407856b543)" style="fill: #0000ff"/>
   </g>
   <g id="patch_76">
    <path d="M 150.904011 252 
L 152.022995 252 
L 152.022995 214.599904 
L 150.904011 214.599904 
z
" clip-path="url(#p407856b543)" style="fill: #0000ff"/>
   </g>
   <g id="patch_77">
    <path d="M 152.022995 252 
L 153.141979 252 
L 153.141979 229.144386 
L 152.022995 229.144386 
z
" clip-path="url(#p407856b543)" style="fill: #0000ff"/>
   </g>
   <g id="patch_78">
    <path d="M 153.141979 252 
L 154.260963 252 
L 154.260963 223.603631 
L 153.141979 223.603631 
z
" clip-path="url(#p407856b543)" style="fill: #0000ff"/>
   </g>
   <g id="patch_79">
    <path d="M 154.260963 252 
L 155.379947 252 
L 155.379947 229.83698 
L 154.260963 229.83698 
z
" clip-path="url(#p407856b543)" style="fill: #0000ff"/>
   </g>
   <g id="patch_80">
    <path d="M 155.379947 252 
L 156.49893 252 
L 156.49893 227.759197 
L 155.379947 227.759197 
z
" clip-path="url(#p407856b543)" style="fill: #0000ff"/>
   </g>
   <g id="patch_81">
    <path d="M 156.49893 252 
L 157.617914 252 
L 157.617914 227.759197 
L 156.49893 227.759197 
z
" clip-path="url(#p407856b543)" style="fill: #0000ff"/>
   </g>
   <g id="patch_82">
    <path d="M 157.617914 252 
L 158.736898 252 
L 158.736898 225.681414 
L 157.617914 225.681414 
z
" clip-path="url(#p407856b543)" style="fill: #0000ff"/>
   </g>
   <g id="patch_83">
    <path d="M 158.736898 252 
L 159.855882 252 
L 159.855882 240.91849 
L 158.736898 240.91849 
z
" clip-path="url(#p407856b543)" style="fill: #0000ff"/>
   </g>
   <g id="patch_84">
    <path d="M 159.855882 252 
L 160.974866 252 
L 160.974866 227.066603 
L 159.855882 227.066603 
z
" clip-path="url(#p407856b543)" style="fill: #0000ff"/>
   </g>
   <g id="patch_85">
    <path d="M 160.974866 252 
L 162.09385 252 
L 162.09385 236.762924 
L 160.974866 236.762924 
z
" clip-path="url(#p407856b543)" style="fill: #0000ff"/>
   </g>
   <g id="patch_86">
    <path d="M 162.09385 252 
L 163.212834 252 
L 163.212834 236.762924 
L 162.09385 236.762924 
z
" clip-path="url(#p407856b543)" style="fill: #0000ff"/>
   </g>
   <g id="patch_87">
    <path d="M 163.212834 252 
L 164.331818 252 
L 164.331818 224.98882 
L 163.212834 224.98882 
z
" clip-path="url(#p407856b543)" style="fill: #0000ff"/>
   </g>
   <g id="patch_88">
    <path d="M 164.331818 252 
L 165.450802 252 
L 165.450802 233.299952 
L 164.331818 233.299952 
z
" clip-path="url(#p407856b543)" style="fill: #0000ff"/>
   </g>
   <g id="patch_89">
    <path d="M 165.450802 252 
L 166.569786 252 
L 166.569786 234.685141 
L 165.450802 234.685141 
z
" clip-path="url(#p407856b543)" style="fill: #0000ff"/>
   </g>
   <g id="patch_90">
    <path d="M 166.569786 252 
L 167.68877 252 
L 167.68877 233.299952 
L 166.569786 233.299952 
z
" clip-path="url(#p407856b543)" style="fill: #0000ff"/>
   </g>
   <g id="patch_91">
    <path d="M 167.68877 252 
L 168.807754 252 
L 168.807754 231.222169 
L 167.68877 231.222169 
z
" clip-path="url(#p407856b543)" style="fill: #0000ff"/>
   </g>
   <g id="patch_92">
    <path d="M 168.807754 252 
L 169.926738 252 
L 169.926738 245.074056 
L 168.807754 245.074056 
z
" clip-path="url(#p407856b543)" style="fill: #0000ff"/>
   </g>
   <g id="patch_93">
    <path d="M 169.926738 252 
L 171.045722 252 
L 171.045722 237.455518 
L 169.926738 237.455518 
z
" clip-path="url(#p407856b543)" style="fill: #0000ff"/>
   </g>
   <g id="patch_94">
    <path d="M 171.045722 252 
L 172.164706 252 
L 172.164706 240.225896 
L 171.045722 240.225896 
z
" clip-path="url(#p407856b543)" style="fill: #0000ff"/>
   </g>
   <g id="patch_95">
    <path d="M 172.164706 252 
L 173.28369 252 
L 173.28369 240.225896 
L 172.164706 240.225896 
z
" clip-path="url(#p407856b543)" style="fill: #0000ff"/>
   </g>
   <g id="patch_96">
    <path d="M 173.28369 252 
L 174.402674 252 
L 174.402674 244.381462 
L 173.28369 244.381462 
z
" clip-path="url(#p407856b543)" style="fill: #0000ff"/>
   </g>
   <g id="patch_97">
    <path d="M 174.402674 252 
L 175.521658 252 
L 175.521658 239.533301 
L 174.402674 239.533301 
z
" clip-path="url(#p407856b543)" style="fill: #0000ff"/>
   </g>
   <g id="patch_98">
    <path d="M 175.521658 252 
L 176.640642 252 
L 176.640642 238.148113 
L 175.521658 238.148113 
z
" clip-path="url(#p407856b543)" style="fill: #0000ff"/>
   </g>
   <g id="patch_99">
    <path d="M 176.640642 252 
L 177.759626 252 
L 177.759626 242.996273 
L 176.640642 242.996273 
z
" clip-path="url(#p407856b543)" style="fill: #0000ff"/>
   </g>
   <g id="patch_100">
    <path d="M 177.759626 252 
L 178.87861 252 
L 178.87861 240.91849 
L 177.759626 240.91849 
z
" clip-path="url(#p407856b543)" style="fill: #0000ff"/>
   </g>
   <g id="patch_101">
    <path d="M 178.87861 252 
L 179.997594 252 
L 179.997594 241.611085 
L 178.87861 241.611085 
z
" clip-path="url(#p407856b543)" style="fill: #0000ff"/>
   </g>
   <g id="patch_102">
    <path d="M 179.997594 252 
L 181.116578 252 
L 181.116578 244.381462 
L 179.997594 244.381462 
z
" clip-path="url(#p407856b543)" style="fill: #0000ff"/>
   </g>
   <g id="patch_103">
    <path d="M 181.116578 252 
L 182.235561 252 
L 182.235561 243.688868 
L 181.116578 243.688868 
z
" clip-path="url(#p407856b543)" style="fill: #0000ff"/>
   </g>
   <g id="patch_104">
    <path d="M 182.235561 252 
L 183.354545 252 
L 183.354545 244.381462 
L 182.235561 244.381462 
z
" clip-path="url(#p407856b543)" style="fill: #0000ff"/>
   </g>
   <g id="patch_105">
    <path d="M 183.354545 252 
L 184.473529 252 
L 184.473529 242.996273 
L 183.354545 242.996273 
z
" clip-path="url(#p407856b543)" style="fill: #0000ff"/>
   </g>
   <g id="patch_106">
    <path d="M 184.473529 252 
L 185.592513 252 
L 185.592513 245.074056 
L 184.473529 245.074056 
z
" clip-path="url(#p407856b543)" style="fill: #0000ff"/>
   </g>
   <g id="patch_107">
    <path d="M 185.592513 252 
L 186.711497 252 
L 186.711497 245.074056 
L 185.592513 245.074056 
z
" clip-path="url(#p407856b543)" style="fill: #0000ff"/>
   </g>
   <g id="patch_108">
    <path d="M 186.711497 252 
L 187.830481 252 
L 187.830481 249.229623 
L 186.711497 249.229623 
z
" clip-path="url(#p407856b543)" style="fill: #0000ff"/>
   </g>
   <g id="patch_109">
    <path d="M 187.830481 252 
L 188.949465 252 
L 188.949465 245.074056 
L 187.830481 245.074056 
z
" clip-path="url(#p407856b543)" style="fill: #0000ff"/>
   </g>
   <g id="patch_110">
    <path d="M 188.949465 252 
L 190.068449 252 
L 190.068449 244.381462 
L 188.949465 244.381462 
z
" clip-path="url(#p407856b543)" style="fill: #0000ff"/>
   </g>
   <g id="patch_111">
    <path d="M 190.068449 252 
L 191.187433 252 
L 191.187433 246.459245 
L 190.068449 246.459245 
z
" clip-path="url(#p407856b543)" style="fill: #0000ff"/>
   </g>
   <g id="patch_112">
    <path d="M 191.187433 252 
L 192.306417 252 
L 192.306417 242.996273 
L 191.187433 242.996273 
z
" clip-path="url(#p407856b543)" style="fill: #0000ff"/>
   </g>
   <g id="patch_113">
    <path d="M 192.306417 252 
L 193.425401 252 
L 193.425401 243.688868 
L 192.306417 243.688868 
z
" clip-path="url(#p407856b543)" style="fill: #0000ff"/>
   </g>
   <g id="patch_114">
    <path d="M 193.425401 252 
L 194.544385 252 
L 194.544385 245.074056 
L 193.425401 245.074056 
z
" clip-path="url(#p407856b543)" style="fill: #0000ff"/>
   </g>
   <g id="patch_115">
    <path d="M 194.544385 252 
L 195.663369 252 
L 195.663369 246.459245 
L 194.544385 246.459245 
z
" clip-path="url(#p407856b543)" style="fill: #0000ff"/>
   </g>
   <g id="patch_116">
    <path d="M 195.663369 252 
L 196.782353 252 
L 196.782353 247.151839 
L 195.663369 247.151839 
z
" clip-path="url(#p407856b543)" style="fill: #0000ff"/>
   </g>
   <g id="patch_117">
    <path d="M 196.782353 252 
L 197.901337 252 
L 197.901337 247.151839 
L 196.782353 247.151839 
z
" clip-path="url(#p407856b543)" style="fill: #0000ff"/>
   </g>
   <g id="patch_118">
    <path d="M 197.901337 252 
L 199.020321 252 
L 199.020321 245.074056 
L 197.901337 245.074056 
z
" clip-path="url(#p407856b543)" style="fill: #0000ff"/>
   </g>
   <g id="patch_119">
    <path d="M 199.020321 252 
L 200.139305 252 
L 200.139305 245.766651 
L 199.020321 245.766651 
z
" clip-path="url(#p407856b543)" style="fill: #0000ff"/>
   </g>
   <g id="patch_120">
    <path d="M 200.139305 252 
L 201.258289 252 
L 201.258289 249.922217 
L 200.139305 249.922217 
z
" clip-path="url(#p407856b543)" style="fill: #0000ff"/>
   </g>
   <g id="patch_121">
    <path d="M 201.258289 252 
L 202.377273 252 
L 202.377273 245.074056 
L 201.258289 245.074056 
z
" clip-path="url(#p407856b543)" style="fill: #0000ff"/>
   </g>
   <g id="patch_122">
    <path d="M 202.377273 252 
L 203.496257 252 
L 203.496257 247.844434 
L 202.377273 247.844434 
z
" clip-path="url(#p407856b543)" style="fill: #0000ff"/>
   </g>
   <g id="patch_123">
    <path d="M 203.496257 252 
L 204.615241 252 
L 204.615241 247.844434 
L 203.496257 247.844434 
z
" clip-path="url(#p407856b543)" style="fill: #0000ff"/>
   </g>
   <g id="patch_124">
    <path d="M 204.615241 252 
L 205.734225 252 
L 205.734225 249.229623 
L 204.615241 249.229623 
z
" clip-path="url(#p407856b543)" style="fill: #0000ff"/>
   </g>
   <g id="patch_125">
    <path d="M 205.734225 252 
L 206.853209 252 
L 206.853209 247.844434 
L 205.734225 247.844434 
z
" clip-path="url(#p407856b543)" style="fill: #0000ff"/>
   </g>
   <g id="patch_126">
    <path d="M 206.853209 252 
L 207.972193 252 
L 207.972193 249.229623 
L 206.853209 249.229623 
z
" clip-path="url(#p407856b543)" style="fill: #0000ff"/>
   </g>
   <g id="patch_127">
    <path d="M 207.972193 252 
L 209.091176 252 
L 209.091176 247.151839 
L 207.972193 247.151839 
z
" clip-path="url(#p407856b543)" style="fill: #0000ff"/>
   </g>
   <g id="patch_128">
    <path d="M 209.091176 252 
L 210.21016 252 
L 210.21016 247.844434 
L 209.091176 247.844434 
z
" clip-path="url(#p407856b543)" style="fill: #0000ff"/>
   </g>
   <g id="patch_129">
    <path d="M 210.21016 252 
L 211.329144 252 
L 211.329144 248.537028 
L 210.21016 248.537028 
z
" clip-path="url(#p407856b543)" style="fill: #0000ff"/>
   </g>
   <g id="patch_130">
    <path d="M 211.329144 252 
L 212.448128 252 
L 212.448128 247.844434 
L 211.329144 247.844434 
z
" clip-path="url(#p407856b543)" style="fill: #0000ff"/>
   </g>
   <g id="patch_131">
    <path d="M 212.448128 252 
L 213.567112 252 
L 213.567112 249.229623 
L 212.448128 249.229623 
z
" clip-path="url(#p407856b543)" style="fill: #0000ff"/>
   </g>
   <g id="patch_132">
    <path d="M 213.567112 252 
L 214.686096 252 
L 214.686096 248.537028 
L 213.567112 248.537028 
z
" clip-path="url(#p407856b543)" style="fill: #0000ff"/>
   </g>
   <g id="patch_133">
    <path d="M 214.686096 252 
L 215.80508 252 
L 215.80508 246.459245 
L 214.686096 246.459245 
z
" clip-path="url(#p407856b543)" style="fill: #0000ff"/>
   </g>
   <g id="patch_134">
    <path d="M 215.80508 252 
L 216.924064 252 
L 216.924064 249.922217 
L 215.80508 249.922217 
z
" clip-path="url(#p407856b543)" style="fill: #0000ff"/>
   </g>
   <g id="patch_135">
    <path d="M 216.924064 252 
L 218.043048 252 
L 218.043048 248.537028 
L 216.924064 248.537028 
z
" clip-path="url(#p407856b543)" style="fill: #0000ff"/>
   </g>
   <g id="patch_136">
    <path d="M 218.043048 252 
L 219.162032 252 
L 219.162032 250.614811 
L 218.043048 250.614811 
z
" clip-path="url(#p407856b543)" style="fill: #0000ff"/>
   </g>
   <g id="patch_137">
    <path d="M 219.162032 252 
L 220.281016 252 
L 220.281016 245.766651 
L 219.162032 245.766651 
z
" clip-path="url(#p407856b543)" style="fill: #0000ff"/>
   </g>
   <g id="patch_138">
    <path d="M 220.281016 252 
L 221.4 252 
L 221.4 251.307406 
L 220.281016 251.307406 
z
" clip-path="url(#p407856b543)" style="fill: #0000ff"/>
   </g>
   <g id="patch_139">
    <path d="M 221.4 252 
L 222.518984 252 
L 222.518984 251.307406 
L 221.4 251.307406 
z
" clip-path="url(#p407856b543)" style="fill: #0000ff"/>
   </g>
   <g id="patch_140">
    <path d="M 222.518984 252 
L 223.637968 252 
L 223.637968 249.922217 
L 222.518984 249.922217 
z
" clip-path="url(#p407856b543)" style="fill: #0000ff"/>
   </g>
   <g id="patch_141">
    <path d="M 223.637968 252 
L 224.756952 252 
L 224.756952 248.537028 
L 223.637968 248.537028 
z
" clip-path="url(#p407856b543)" style="fill: #0000ff"/>
   </g>
   <g id="patch_142">
    <path d="M 224.756952 252 
L 225.875936 252 
L 225.875936 250.614811 
L 224.756952 250.614811 
z
" clip-path="url(#p407856b543)" style="fill: #0000ff"/>
   </g>
   <g id="patch_143">
    <path d="M 225.875936 252 
L 226.99492 252 
L 226.99492 250.614811 
L 225.875936 250.614811 
z
" clip-path="url(#p407856b543)" style="fill: #0000ff"/>
   </g>
   <g id="patch_144">
    <path d="M 226.99492 252 
L 228.113904 252 
L 228.113904 250.614811 
L 226.99492 250.614811 
z
" clip-path="url(#p407856b543)" style="fill: #0000ff"/>
   </g>
   <g id="patch_145">
    <path d="M 228.113904 252 
L 229.232888 252 
L 229.232888 252 
L 228.113904 252 
z
" clip-path="url(#p407856b543)" style="fill: #0000ff"/>
   </g>
   <g id="patch_146">
    <path d="M 229.232888 252 
L 230.351872 252 
L 230.351872 252 
L 229.232888 252 
z
" clip-path="url(#p407856b543)" style="fill: #0000ff"/>
   </g>
   <g id="patch_147">
    <path d="M 230.351872 252 
L 231.470856 252 
L 231.470856 249.922217 
L 230.351872 249.922217 
z
" clip-path="url(#p407856b543)" style="fill: #0000ff"/>
   </g>
   <g id="patch_148">
    <path d="M 231.470856 252 
L 232.58984 252 
L 232.58984 249.229623 
L 231.470856 249.229623 
z
" clip-path="url(#p407856b543)" style="fill: #0000ff"/>
   </g>
   <g id="patch_149">
    <path d="M 232.58984 252 
L 233.708824 252 
L 233.708824 250.614811 
L 232.58984 250.614811 
z
" clip-path="url(#p407856b543)" style="fill: #0000ff"/>
   </g>
   <g id="patch_150">
    <path d="M 233.708824 252 
L 234.827807 252 
L 234.827807 250.614811 
L 233.708824 250.614811 
z
" clip-path="url(#p407856b543)" style="fill: #0000ff"/>
   </g>
   <g id="patch_151">
    <path d="M 234.827807 252 
L 235.946791 252 
L 235.946791 251.307406 
L 234.827807 251.307406 
z
" clip-path="url(#p407856b543)" style="fill: #0000ff"/>
   </g>
   <g id="patch_152">
    <path d="M 235.946791 252 
L 237.065775 252 
L 237.065775 250.614811 
L 235.946791 250.614811 
z
" clip-path="url(#p407856b543)" style="fill: #0000ff"/>
   </g>
   <g id="patch_153">
    <path d="M 237.065775 252 
L 238.184759 252 
L 238.184759 248.537028 
L 237.065775 248.537028 
z
" clip-path="url(#p407856b543)" style="fill: #0000ff"/>
   </g>
   <g id="patch_154">
    <path d="M 238.184759 252 
L 239.303743 252 
L 239.303743 249.922217 
L 238.184759 249.922217 
z
" clip-path="url(#p407856b543)" style="fill: #0000ff"/>
   </g>
   <g id="patch_155">
    <path d="M 239.303743 252 
L 240.422727 252 
L 240.422727 252 
L 239.303743 252 
z
" clip-path="url(#p407856b543)" style="fill: #0000ff"/>
   </g>
   <g id="patch_156">
    <path d="M 240.422727 252 
L 241.541711 252 
L 241.541711 250.614811 
L 240.422727 250.614811 
z
" clip-path="url(#p407856b543)" style="fill: #0000ff"/>
   </g>
   <g id="patch_157">
    <path d="M 241.541711 252 
L 242.660695 252 
L 242.660695 250.614811 
L 241.541711 250.614811 
z
" clip-path="url(#p407856b543)" style="fill: #0000ff"/>
   </g>
   <g id="patch_158">
    <path d="M 242.660695 252 
L 243.779679 252 
L 243.779679 251.307406 
L 242.660695 251.307406 
z
" clip-path="url(#p407856b543)" style="fill: #0000ff"/>
   </g>
   <g id="patch_159">
    <path d="M 243.779679 252 
L 244.898663 252 
L 244.898663 252 
L 243.779679 252 
z
" clip-path="url(#p407856b543)" style="fill: #0000ff"/>
   </g>
   <g id="patch_160">
    <path d="M 244.898663 252 
L 246.017647 252 
L 246.017647 249.922217 
L 244.898663 249.922217 
z
" clip-path="url(#p407856b543)" style="fill: #0000ff"/>
   </g>
   <g id="patch_161">
    <path d="M 246.017647 252 
L 247.136631 252 
L 247.136631 251.307406 
L 246.017647 251.307406 
z
" clip-path="url(#p407856b543)" style="fill: #0000ff"/>
   </g>
   <g id="patch_162">
    <path d="M 247.136631 252 
L 248.255615 252 
L 248.255615 252 
L 247.136631 252 
z
" clip-path="url(#p407856b543)" style="fill: #0000ff"/>
   </g>
   <g id="patch_163">
    <path d="M 248.255615 252 
L 249.374599 252 
L 249.374599 251.307406 
L 248.255615 251.307406 
z
" clip-path="url(#p407856b543)" style="fill: #0000ff"/>
   </g>
   <g id="patch_164">
    <path d="M 249.374599 252 
L 250.493583 252 
L 250.493583 251.307406 
L 249.374599 251.307406 
z
" clip-path="url(#p407856b543)" style="fill: #0000ff"/>
   </g>
   <g id="patch_165">
    <path d="M 250.493583 252 
L 251.612567 252 
L 251.612567 250.614811 
L 250.493583 250.614811 
z
" clip-path="url(#p407856b543)" style="fill: #0000ff"/>
   </g>
   <g id="patch_166">
    <path d="M 251.612567 252 
L 252.731551 252 
L 252.731551 251.307406 
L 251.612567 251.307406 
z
" clip-path="url(#p407856b543)" style="fill: #0000ff"/>
   </g>
   <g id="patch_167">
    <path d="M 252.731551 252 
L 253.850535 252 
L 253.850535 250.614811 
L 252.731551 250.614811 
z
" clip-path="url(#p407856b543)" style="fill: #0000ff"/>
   </g>
   <g id="patch_168">
    <path d="M 253.850535 252 
L 254.969519 252 
L 254.969519 252 
L 253.850535 252 
z
" clip-path="url(#p407856b543)" style="fill: #0000ff"/>
   </g>
   <g id="patch_169">
    <path d="M 254.969519 252 
L 256.088503 252 
L 256.088503 252 
L 254.969519 252 
z
" clip-path="url(#p407856b543)" style="fill: #0000ff"/>
   </g>
   <g id="patch_170">
    <path d="M 256.088503 252 
L 257.207487 252 
L 257.207487 251.307406 
L 256.088503 251.307406 
z
" clip-path="url(#p407856b543)" style="fill: #0000ff"/>
   </g>
   <g id="patch_171">
    <path d="M 257.207487 252 
L 258.326471 252 
L 258.326471 251.307406 
L 257.207487 251.307406 
z
" clip-path="url(#p407856b543)" style="fill: #0000ff"/>
   </g>
   <g id="patch_172">
    <path d="M 258.326471 252 
L 259.445455 252 
L 259.445455 250.614811 
L 258.326471 250.614811 
z
" clip-path="url(#p407856b543)" style="fill: #0000ff"/>
   </g>
   <g id="patch_173">
    <path d="M 259.445455 252 
L 260.564439 252 
L 260.564439 250.614811 
L 259.445455 250.614811 
z
" clip-path="url(#p407856b543)" style="fill: #0000ff"/>
   </g>
   <g id="patch_174">
    <path d="M 260.564439 252 
L 261.683422 252 
L 261.683422 252 
L 260.564439 252 
z
" clip-path="url(#p407856b543)" style="fill: #0000ff"/>
   </g>
   <g id="patch_175">
    <path d="M 261.683422 252 
L 262.802406 252 
L 262.802406 251.307406 
L 261.683422 251.307406 
z
" clip-path="url(#p407856b543)" style="fill: #0000ff"/>
   </g>
   <g id="patch_176">
    <path d="M 262.802406 252 
L 263.92139 252 
L 263.92139 250.614811 
L 262.802406 250.614811 
z
" clip-path="url(#p407856b543)" style="fill: #0000ff"/>
   </g>
   <g id="patch_177">
    <path d="M 263.92139 252 
L 265.040374 252 
L 265.040374 250.614811 
L 263.92139 250.614811 
z
" clip-path="url(#p407856b543)" style="fill: #0000ff"/>
   </g>
   <g id="patch_178">
    <path d="M 265.040374 252 
L 266.159358 252 
L 266.159358 252 
L 265.040374 252 
z
" clip-path="url(#p407856b543)" style="fill: #0000ff"/>
   </g>
   <g id="patch_179">
    <path d="M 266.159358 252 
L 267.278342 252 
L 267.278342 252 
L 266.159358 252 
z
" clip-path="url(#p407856b543)" style="fill: #0000ff"/>
   </g>
   <g id="patch_180">
    <path d="M 267.278342 252 
L 268.397326 252 
L 268.397326 250.614811 
L 267.278342 250.614811 
z
" clip-path="url(#p407856b543)" style="fill: #0000ff"/>
   </g>
   <g id="patch_181">
    <path d="M 268.397326 252 
L 269.51631 252 
L 269.51631 251.307406 
L 268.397326 251.307406 
z
" clip-path="url(#p407856b543)" style="fill: #0000ff"/>
   </g>
   <g id="patch_182">
    <path d="M 269.51631 252 
L 270.635294 252 
L 270.635294 250.614811 
L 269.51631 250.614811 
z
" clip-path="url(#p407856b543)" style="fill: #0000ff"/>
   </g>
   <g id="patch_183">
    <path d="M 270.635294 252 
L 271.754278 252 
L 271.754278 250.614811 
L 270.635294 250.614811 
z
" clip-path="url(#p407856b543)" style="fill: #0000ff"/>
   </g>
   <g id="patch_184">
    <path d="M 271.754278 252 
L 272.873262 252 
L 272.873262 251.307406 
L 271.754278 251.307406 
z
" clip-path="url(#p407856b543)" style="fill: #0000ff"/>
   </g>
   <g id="patch_185">
    <path d="M 272.873262 252 
L 273.992246 252 
L 273.992246 252 
L 272.873262 252 
z
" clip-path="url(#p407856b543)" style="fill: #0000ff"/>
   </g>
   <g id="patch_186">
    <path d="M 273.992246 252 
L 275.11123 252 
L 275.11123 252 
L 273.992246 252 
z
" clip-path="url(#p407856b543)" style="fill: #0000ff"/>
   </g>
   <g id="patch_187">
    <path d="M 275.11123 252 
L 276.230214 252 
L 276.230214 252 
L 275.11123 252 
z
" clip-path="url(#p407856b543)" style="fill: #0000ff"/>
   </g>
   <g id="patch_188">
    <path d="M 276.230214 252 
L 277.349198 252 
L 277.349198 250.614811 
L 276.230214 250.614811 
z
" clip-path="url(#p407856b543)" style="fill: #0000ff"/>
   </g>
   <g id="patch_189">
    <path d="M 277.349198 252 
L 278.468182 252 
L 278.468182 252 
L 277.349198 252 
z
" clip-path="url(#p407856b543)" style="fill: #0000ff"/>
   </g>
   <g id="patch_190">
    <path d="M 278.468182 252 
L 279.587166 252 
L 279.587166 252 
L 278.468182 252 
z
" clip-path="url(#p407856b543)" style="fill: #0000ff"/>
   </g>
   <g id="patch_191">
    <path d="M 279.587166 252 
L 280.70615 252 
L 280.70615 252 
L 279.587166 252 
z
" clip-path="url(#p407856b543)" style="fill: #0000ff"/>
   </g>
   <g id="patch_192">
    <path d="M 280.70615 252 
L 281.825134 252 
L 281.825134 252 
L 280.70615 252 
z
" clip-path="url(#p407856b543)" style="fill: #0000ff"/>
   </g>
   <g id="patch_193">
    <path d="M 281.825134 252 
L 282.944118 252 
L 282.944118 250.614811 
L 281.825134 250.614811 
z
" clip-path="url(#p407856b543)" style="fill: #0000ff"/>
   </g>
   <g id="patch_194">
    <path d="M 282.944118 252 
L 284.063102 252 
L 284.063102 252 
L 282.944118 252 
z
" clip-path="url(#p407856b543)" style="fill: #0000ff"/>
   </g>
   <g id="patch_195">
    <path d="M 284.063102 252 
L 285.182086 252 
L 285.182086 252 
L 284.063102 252 
z
" clip-path="url(#p407856b543)" style="fill: #0000ff"/>
   </g>
   <g id="patch_196">
    <path d="M 285.182086 252 
L 286.30107 252 
L 286.30107 251.307406 
L 285.182086 251.307406 
z
" clip-path="url(#p407856b543)" style="fill: #0000ff"/>
   </g>
   <g id="patch_197">
    <path d="M 286.30107 252 
L 287.420053 252 
L 287.420053 252 
L 286.30107 252 
z
" clip-path="url(#p407856b543)" style="fill: #0000ff"/>
   </g>
   <g id="patch_198">
    <path d="M 287.420053 252 
L 288.539037 252 
L 288.539037 252 
L 287.420053 252 
z
" clip-path="url(#p407856b543)" style="fill: #0000ff"/>
   </g>
   <g id="patch_199">
    <path d="M 288.539037 252 
L 289.658021 252 
L 289.658021 252 
L 288.539037 252 
z
" clip-path="url(#p407856b543)" style="fill: #0000ff"/>
   </g>
   <g id="patch_200">
    <path d="M 289.658021 252 
L 290.777005 252 
L 290.777005 252 
L 289.658021 252 
z
" clip-path="url(#p407856b543)" style="fill: #0000ff"/>
   </g>
   <g id="patch_201">
    <path d="M 290.777005 252 
L 291.895989 252 
L 291.895989 252 
L 290.777005 252 
z
" clip-path="url(#p407856b543)" style="fill: #0000ff"/>
   </g>
   <g id="patch_202">
    <path d="M 291.895989 252 
L 293.014973 252 
L 293.014973 252 
L 291.895989 252 
z
" clip-path="url(#p407856b543)" style="fill: #0000ff"/>
   </g>
   <g id="patch_203">
    <path d="M 293.014973 252 
L 294.133957 252 
L 294.133957 251.307406 
L 293.014973 251.307406 
z
" clip-path="url(#p407856b543)" style="fill: #0000ff"/>
   </g>
   <g id="patch_204">
    <path d="M 294.133957 252 
L 295.252941 252 
L 295.252941 252 
L 294.133957 252 
z
" clip-path="url(#p407856b543)" style="fill: #0000ff"/>
   </g>
   <g id="patch_205">
    <path d="M 295.252941 252 
L 296.371925 252 
L 296.371925 252 
L 295.252941 252 
z
" clip-path="url(#p407856b543)" style="fill: #0000ff"/>
   </g>
   <g id="patch_206">
    <path d="M 296.371925 252 
L 297.490909 252 
L 297.490909 252 
L 296.371925 252 
z
" clip-path="url(#p407856b543)" style="fill: #0000ff"/>
   </g>
   <g id="patch_207">
    <path d="M 297.490909 252 
L 298.609893 252 
L 298.609893 252 
L 297.490909 252 
z
" clip-path="url(#p407856b543)" style="fill: #0000ff"/>
   </g>
   <g id="patch_208">
    <path d="M 298.609893 252 
L 299.728877 252 
L 299.728877 251.307406 
L 298.609893 251.307406 
z
" clip-path="url(#p407856b543)" style="fill: #0000ff"/>
   </g>
   <g id="patch_209">
    <path d="M 299.728877 252 
L 300.847861 252 
L 300.847861 252 
L 299.728877 252 
z
" clip-path="url(#p407856b543)" style="fill: #0000ff"/>
   </g>
   <g id="patch_210">
    <path d="M 300.847861 252 
L 301.966845 252 
L 301.966845 252 
L 300.847861 252 
z
" clip-path="url(#p407856b543)" style="fill: #0000ff"/>
   </g>
   <g id="patch_211">
    <path d="M 301.966845 252 
L 303.085829 252 
L 303.085829 252 
L 301.966845 252 
z
" clip-path="url(#p407856b543)" style="fill: #0000ff"/>
   </g>
   <g id="patch_212">
    <path d="M 303.085829 252 
L 304.204813 252 
L 304.204813 252 
L 303.085829 252 
z
" clip-path="url(#p407856b543)" style="fill: #0000ff"/>
   </g>
   <g id="patch_213">
    <path d="M 304.204813 252 
L 305.323797 252 
L 305.323797 252 
L 304.204813 252 
z
" clip-path="url(#p407856b543)" style="fill: #0000ff"/>
   </g>
   <g id="patch_214">
    <path d="M 305.323797 252 
L 306.442781 252 
L 306.442781 252 
L 305.323797 252 
z
" clip-path="url(#p407856b543)" style="fill: #0000ff"/>
   </g>
   <g id="patch_215">
    <path d="M 306.442781 252 
L 307.561765 252 
L 307.561765 252 
L 306.442781 252 
z
" clip-path="url(#p407856b543)" style="fill: #0000ff"/>
   </g>
   <g id="patch_216">
    <path d="M 307.561765 252 
L 308.680749 252 
L 308.680749 252 
L 307.561765 252 
z
" clip-path="url(#p407856b543)" style="fill: #0000ff"/>
   </g>
   <g id="patch_217">
    <path d="M 308.680749 252 
L 309.799733 252 
L 309.799733 252 
L 308.680749 252 
z
" clip-path="url(#p407856b543)" style="fill: #0000ff"/>
   </g>
   <g id="patch_218">
    <path d="M 309.799733 252 
L 310.918717 252 
L 310.918717 251.307406 
L 309.799733 251.307406 
z
" clip-path="url(#p407856b543)" style="fill: #0000ff"/>
   </g>
   <g id="patch_219">
    <path d="M 310.918717 252 
L 312.037701 252 
L 312.037701 251.307406 
L 310.918717 251.307406 
z
" clip-path="url(#p407856b543)" style="fill: #0000ff"/>
   </g>
   <g id="patch_220">
    <path d="M 312.037701 252 
L 313.156684 252 
L 313.156684 252 
L 312.037701 252 
z
" clip-path="url(#p407856b543)" style="fill: #0000ff"/>
   </g>
   <g id="patch_221">
    <path d="M 313.156684 252 
L 314.275668 252 
L 314.275668 252 
L 313.156684 252 
z
" clip-path="url(#p407856b543)" style="fill: #0000ff"/>
   </g>
   <g id="patch_222">
    <path d="M 314.275668 252 
L 315.394652 252 
L 315.394652 252 
L 314.275668 252 
z
" clip-path="url(#p407856b543)" style="fill: #0000ff"/>
   </g>
   <g id="patch_223">
    <path d="M 315.394652 252 
L 316.513636 252 
L 316.513636 252 
L 315.394652 252 
z
" clip-path="url(#p407856b543)" style="fill: #0000ff"/>
   </g>
   <g id="patch_224">
    <path d="M 316.513636 252 
L 317.63262 252 
L 317.63262 252 
L 316.513636 252 
z
" clip-path="url(#p407856b543)" style="fill: #0000ff"/>
   </g>
   <g id="patch_225">
    <path d="M 317.63262 252 
L 318.751604 252 
L 318.751604 252 
L 317.63262 252 
z
" clip-path="url(#p407856b543)" style="fill: #0000ff"/>
   </g>
   <g id="patch_226">
    <path d="M 318.751604 252 
L 319.870588 252 
L 319.870588 251.307406 
L 318.751604 251.307406 
z
" clip-path="url(#p407856b543)" style="fill: #0000ff"/>
   </g>
   <g id="patch_227">
    <path d="M 319.870588 252 
L 320.989572 252 
L 320.989572 252 
L 319.870588 252 
z
" clip-path="url(#p407856b543)" style="fill: #0000ff"/>
   </g>
   <g id="patch_228">
    <path d="M 320.989572 252 
L 322.108556 252 
L 322.108556 252 
L 320.989572 252 
z
" clip-path="url(#p407856b543)" style="fill: #0000ff"/>
   </g>
   <g id="patch_229">
    <path d="M 322.108556 252 
L 323.22754 252 
L 323.22754 252 
L 322.108556 252 
z
" clip-path="url(#p407856b543)" style="fill: #0000ff"/>
   </g>
   <g id="patch_230">
    <path d="M 323.22754 252 
L 324.346524 252 
L 324.346524 252 
L 323.22754 252 
z
" clip-path="url(#p407856b543)" style="fill: #0000ff"/>
   </g>
   <g id="patch_231">
    <path d="M 324.346524 252 
L 325.465508 252 
L 325.465508 252 
L 324.346524 252 
z
" clip-path="url(#p407856b543)" style="fill: #0000ff"/>
   </g>
   <g id="patch_232">
    <path d="M 325.465508 252 
L 326.584492 252 
L 326.584492 252 
L 325.465508 252 
z
" clip-path="url(#p407856b543)" style="fill: #0000ff"/>
   </g>
   <g id="patch_233">
    <path d="M 326.584492 252 
L 327.703476 252 
L 327.703476 252 
L 326.584492 252 
z
" clip-path="url(#p407856b543)" style="fill: #0000ff"/>
   </g>
   <g id="patch_234">
    <path d="M 327.703476 252 
L 328.82246 252 
L 328.82246 252 
L 327.703476 252 
z
" clip-path="url(#p407856b543)" style="fill: #0000ff"/>
   </g>
   <g id="patch_235">
    <path d="M 328.82246 252 
L 329.941444 252 
L 329.941444 251.307406 
L 328.82246 251.307406 
z
" clip-path="url(#p407856b543)" style="fill: #0000ff"/>
   </g>
   <g id="patch_236">
    <path d="M 329.941444 252 
L 331.060428 252 
L 331.060428 252 
L 329.941444 252 
z
" clip-path="url(#p407856b543)" style="fill: #0000ff"/>
   </g>
   <g id="patch_237">
    <path d="M 331.060428 252 
L 332.179412 252 
L 332.179412 252 
L 331.060428 252 
z
" clip-path="url(#p407856b543)" style="fill: #0000ff"/>
   </g>
   <g id="patch_238">
    <path d="M 332.179412 252 
L 333.298396 252 
L 333.298396 252 
L 332.179412 252 
z
" clip-path="url(#p407856b543)" style="fill: #0000ff"/>
   </g>
   <g id="patch_239">
    <path d="M 333.298396 252 
L 334.41738 252 
L 334.41738 252 
L 333.298396 252 
z
" clip-path="url(#p407856b543)" style="fill: #0000ff"/>
   </g>
   <g id="patch_240">
    <path d="M 334.41738 252 
L 335.536364 252 
L 335.536364 252 
L 334.41738 252 
z
" clip-path="url(#p407856b543)" style="fill: #0000ff"/>
   </g>
   <g id="patch_241">
    <path d="M 335.536364 252 
L 336.655348 252 
L 336.655348 252 
L 335.536364 252 
z
" clip-path="url(#p407856b543)" style="fill: #0000ff"/>
   </g>
   <g id="patch_242">
    <path d="M 336.655348 252 
L 337.774332 252 
L 337.774332 252 
L 336.655348 252 
z
" clip-path="url(#p407856b543)" style="fill: #0000ff"/>
   </g>
   <g id="patch_243">
    <path d="M 337.774332 252 
L 338.893316 252 
L 338.893316 252 
L 337.774332 252 
z
" clip-path="url(#p407856b543)" style="fill: #0000ff"/>
   </g>
   <g id="patch_244">
    <path d="M 338.893316 252 
L 340.012299 252 
L 340.012299 252 
L 338.893316 252 
z
" clip-path="url(#p407856b543)" style="fill: #0000ff"/>
   </g>
   <g id="patch_245">
    <path d="M 340.012299 252 
L 341.131283 252 
L 341.131283 252 
L 340.012299 252 
z
" clip-path="url(#p407856b543)" style="fill: #0000ff"/>
   </g>
   <g id="patch_246">
    <path d="M 341.131283 252 
L 342.250267 252 
L 342.250267 252 
L 341.131283 252 
z
" clip-path="url(#p407856b543)" style="fill: #0000ff"/>
   </g>
   <g id="patch_247">
    <path d="M 342.250267 252 
L 343.369251 252 
L 343.369251 252 
L 342.250267 252 
z
" clip-path="url(#p407856b543)" style="fill: #0000ff"/>
   </g>
   <g id="patch_248">
    <path d="M 343.369251 252 
L 344.488235 252 
L 344.488235 252 
L 343.369251 252 
z
" clip-path="url(#p407856b543)" style="fill: #0000ff"/>
   </g>
   <g id="patch_249">
    <path d="M 344.488235 252 
L 345.607219 252 
L 345.607219 252 
L 344.488235 252 
z
" clip-path="url(#p407856b543)" style="fill: #0000ff"/>
   </g>
   <g id="patch_250">
    <path d="M 345.607219 252 
L 346.726203 252 
L 346.726203 252 
L 345.607219 252 
z
" clip-path="url(#p407856b543)" style="fill: #0000ff"/>
   </g>
   <g id="patch_251">
    <path d="M 346.726203 252 
L 347.845187 252 
L 347.845187 252 
L 346.726203 252 
z
" clip-path="url(#p407856b543)" style="fill: #0000ff"/>
   </g>
   <g id="patch_252">
    <path d="M 347.845187 252 
L 348.964171 252 
L 348.964171 252 
L 347.845187 252 
z
" clip-path="url(#p407856b543)" style="fill: #0000ff"/>
   </g>
   <g id="patch_253">
    <path d="M 348.964171 252 
L 350.083155 252 
L 350.083155 252 
L 348.964171 252 
z
" clip-path="url(#p407856b543)" style="fill: #0000ff"/>
   </g>
   <g id="patch_254">
    <path d="M 350.083155 252 
L 351.202139 252 
L 351.202139 251.307406 
L 350.083155 251.307406 
z
" clip-path="url(#p407856b543)" style="fill: #0000ff"/>
   </g>
   <g id="patch_255">
    <path d="M 351.202139 252 
L 352.321123 252 
L 352.321123 250.614811 
L 351.202139 250.614811 
z
" clip-path="url(#p407856b543)" style="fill: #0000ff"/>
   </g>
   <g id="patch_256">
    <path d="M 352.321123 252 
L 353.440107 252 
L 353.440107 252 
L 352.321123 252 
z
" clip-path="url(#p407856b543)" style="fill: #0000ff"/>
   </g>
   <g id="patch_257">
    <path d="M 353.440107 252 
L 354.559091 252 
L 354.559091 252 
L 353.440107 252 
z
" clip-path="url(#p407856b543)" style="fill: #0000ff"/>
   </g>
   <g id="patch_258">
    <path d="M 354.559091 252 
L 355.678075 252 
L 355.678075 252 
L 354.559091 252 
z
" clip-path="url(#p407856b543)" style="fill: #0000ff"/>
   </g>
   <g id="patch_259">
    <path d="M 355.678075 252 
L 356.797059 252 
L 356.797059 252 
L 355.678075 252 
z
" clip-path="url(#p407856b543)" style="fill: #0000ff"/>
   </g>
   <g id="patch_260">
    <path d="M 356.797059 252 
L 357.916043 252 
L 357.916043 252 
L 356.797059 252 
z
" clip-path="url(#p407856b543)" style="fill: #0000ff"/>
   </g>
   <g id="patch_261">
    <path d="M 357.916043 252 
L 359.035027 252 
L 359.035027 252 
L 357.916043 252 
z
" clip-path="url(#p407856b543)" style="fill: #0000ff"/>
   </g>
   <g id="patch_262">
    <path d="M 359.035027 252 
L 360.154011 252 
L 360.154011 252 
L 359.035027 252 
z
" clip-path="url(#p407856b543)" style="fill: #0000ff"/>
   </g>
   <g id="patch_263">
    <path d="M 360.154011 252 
L 361.272995 252 
L 361.272995 252 
L 360.154011 252 
z
" clip-path="url(#p407856b543)" style="fill: #0000ff"/>
   </g>
   <g id="patch_264">
    <path d="M 361.272995 252 
L 362.391979 252 
L 362.391979 252 
L 361.272995 252 
z
" clip-path="url(#p407856b543)" style="fill: #0000ff"/>
   </g>
   <g id="patch_265">
    <path d="M 362.391979 252 
L 363.510963 252 
L 363.510963 252 
L 362.391979 252 
z
" clip-path="url(#p407856b543)" style="fill: #0000ff"/>
   </g>
   <g id="patch_266">
    <path d="M 363.510963 252 
L 364.629947 252 
L 364.629947 252 
L 363.510963 252 
z
" clip-path="url(#p407856b543)" style="fill: #0000ff"/>
   </g>
   <g id="patch_267">
    <path d="M 364.629947 252 
L 365.74893 252 
L 365.74893 252 
L 364.629947 252 
z
" clip-path="url(#p407856b543)" style="fill: #0000ff"/>
   </g>
   <g id="patch_268">
    <path d="M 365.74893 252 
L 366.867914 252 
L 366.867914 252 
L 365.74893 252 
z
" clip-path="url(#p407856b543)" style="fill: #0000ff"/>
   </g>
   <g id="patch_269">
    <path d="M 366.867914 252 
L 367.986898 252 
L 367.986898 252 
L 366.867914 252 
z
" clip-path="url(#p407856b543)" style="fill: #0000ff"/>
   </g>
   <g id="patch_270">
    <path d="M 367.986898 252 
L 369.105882 252 
L 369.105882 252 
L 367.986898 252 
z
" clip-path="url(#p407856b543)" style="fill: #0000ff"/>
   </g>
   <g id="patch_271">
    <path d="M 369.105882 252 
L 370.224866 252 
L 370.224866 252 
L 369.105882 252 
z
" clip-path="url(#p407856b543)" style="fill: #0000ff"/>
   </g>
   <g id="patch_272">
    <path d="M 370.224866 252 
L 371.34385 252 
L 371.34385 252 
L 370.224866 252 
z
" clip-path="url(#p407856b543)" style="fill: #0000ff"/>
   </g>
   <g id="patch_273">
    <path d="M 371.34385 252 
L 372.462834 252 
L 372.462834 252 
L 371.34385 252 
z
" clip-path="url(#p407856b543)" style="fill: #0000ff"/>
   </g>
   <g id="patch_274">
    <path d="M 372.462834 252 
L 373.581818 252 
L 373.581818 251.307406 
L 372.462834 251.307406 
z
" clip-path="url(#p407856b543)" style="fill: #0000ff"/>
   </g>
   <g id="matplotlib.axis_1">
    <g id="xtick_1">
     <g id="line2d_1">
      <defs>
       <path id="m6a90352bd3" d="M 0 0 
L 0 3.5 
" style="stroke: #000000; stroke-width: 0.8"/>
      </defs>
      <g>
       <use xlink:href="#m6a90352bd3" x="84.883957" y="252" style="stroke: #000000; stroke-width: 0.8"/>
      </g>
     </g>
     <g id="text_1">
      <!-- 50 -->
      <g transform="translate(78.521457 266.598437) scale(0.1 -0.1)">
       <defs>
        <path id="DejaVuSans-35" d="M 691 4666 
L 3169 4666 
L 3169 4134 
L 1269 4134 
L 1269 2991 
Q 1406 3038 1543 3061 
Q 1681 3084 1819 3084 
Q 2600 3084 3056 2656 
Q 3513 2228 3513 1497 
Q 3513 744 3044 326 
Q 2575 -91 1722 -91 
Q 1428 -91 1123 -41 
Q 819 9 494 109 
L 494 744 
Q 775 591 1075 516 
Q 1375 441 1709 441 
Q 2250 441 2565 725 
Q 2881 1009 2881 1497 
Q 2881 1984 2565 2268 
Q 2250 2553 1709 2553 
Q 1456 2553 1204 2497 
Q 953 2441 691 2322 
L 691 4666 
z
" transform="scale(0.015625)"/>
        <path id="DejaVuSans-30" d="M 2034 4250 
Q 1547 4250 1301 3770 
Q 1056 3291 1056 2328 
Q 1056 1369 1301 889 
Q 1547 409 2034 409 
Q 2525 409 2770 889 
Q 3016 1369 3016 2328 
Q 3016 3291 2770 3770 
Q 2525 4250 2034 4250 
z
M 2034 4750 
Q 2819 4750 3233 4129 
Q 3647 3509 3647 2328 
Q 3647 1150 3233 529 
Q 2819 -91 2034 -91 
Q 1250 -91 836 529 
Q 422 1150 422 2328 
Q 422 3509 836 4129 
Q 1250 4750 2034 4750 
z
" transform="scale(0.015625)"/>
       </defs>
       <use xlink:href="#DejaVuSans-35"/>
       <use xlink:href="#DejaVuSans-30" x="63.623047"/>
      </g>
     </g>
    </g>
    <g id="xtick_2">
     <g id="line2d_2">
      <g>
       <use xlink:href="#m6a90352bd3" x="140.833155" y="252" style="stroke: #000000; stroke-width: 0.8"/>
      </g>
     </g>
     <g id="text_2">
      <!-- 100 -->
      <g transform="translate(131.289405 266.598437) scale(0.1 -0.1)">
       <defs>
        <path id="DejaVuSans-31" d="M 794 531 
L 1825 531 
L 1825 4091 
L 703 3866 
L 703 4441 
L 1819 4666 
L 2450 4666 
L 2450 531 
L 3481 531 
L 3481 0 
L 794 0 
L 794 531 
z
" transform="scale(0.015625)"/>
       </defs>
       <use xlink:href="#DejaVuSans-31"/>
       <use xlink:href="#DejaVuSans-30" x="63.623047"/>
       <use xlink:href="#DejaVuSans-30" x="127.246094"/>
      </g>
     </g>
    </g>
    <g id="xtick_3">
     <g id="line2d_3">
      <g>
       <use xlink:href="#m6a90352bd3" x="196.782353" y="252" style="stroke: #000000; stroke-width: 0.8"/>
      </g>
     </g>
     <g id="text_3">
      <!-- 150 -->
      <g transform="translate(187.238603 266.598437) scale(0.1 -0.1)">
       <use xlink:href="#DejaVuSans-31"/>
       <use xlink:href="#DejaVuSans-35" x="63.623047"/>
       <use xlink:href="#DejaVuSans-30" x="127.246094"/>
      </g>
     </g>
    </g>
    <g id="xtick_4">
     <g id="line2d_4">
      <g>
       <use xlink:href="#m6a90352bd3" x="252.731551" y="252" style="stroke: #000000; stroke-width: 0.8"/>
      </g>
     </g>
     <g id="text_4">
      <!-- 200 -->
      <g transform="translate(243.187801 266.598437) scale(0.1 -0.1)">
       <defs>
        <path id="DejaVuSans-32" d="M 1228 531 
L 3431 531 
L 3431 0 
L 469 0 
L 469 531 
Q 828 903 1448 1529 
Q 2069 2156 2228 2338 
Q 2531 2678 2651 2914 
Q 2772 3150 2772 3378 
Q 2772 3750 2511 3984 
Q 2250 4219 1831 4219 
Q 1534 4219 1204 4116 
Q 875 4013 500 3803 
L 500 4441 
Q 881 4594 1212 4672 
Q 1544 4750 1819 4750 
Q 2544 4750 2975 4387 
Q 3406 4025 3406 3419 
Q 3406 3131 3298 2873 
Q 3191 2616 2906 2266 
Q 2828 2175 2409 1742 
Q 1991 1309 1228 531 
z
" transform="scale(0.015625)"/>
       </defs>
       <use xlink:href="#DejaVuSans-32"/>
       <use xlink:href="#DejaVuSans-30" x="63.623047"/>
       <use xlink:href="#DejaVuSans-30" x="127.246094"/>
      </g>
     </g>
    </g>
    <g id="xtick_5">
     <g id="line2d_5">
      <g>
       <use xlink:href="#m6a90352bd3" x="308.680749" y="252" style="stroke: #000000; stroke-width: 0.8"/>
      </g>
     </g>
     <g id="text_5">
      <!-- 250 -->
      <g transform="translate(299.136999 266.598437) scale(0.1 -0.1)">
       <use xlink:href="#DejaVuSans-32"/>
       <use xlink:href="#DejaVuSans-35" x="63.623047"/>
       <use xlink:href="#DejaVuSans-30" x="127.246094"/>
      </g>
     </g>
    </g>
    <g id="xtick_6">
     <g id="line2d_6">
      <g>
       <use xlink:href="#m6a90352bd3" x="364.629947" y="252" style="stroke: #000000; stroke-width: 0.8"/>
      </g>
     </g>
     <g id="text_6">
      <!-- 300 -->
      <g transform="translate(355.086197 266.598437) scale(0.1 -0.1)">
       <defs>
        <path id="DejaVuSans-33" d="M 2597 2516 
Q 3050 2419 3304 2112 
Q 3559 1806 3559 1356 
Q 3559 666 3084 287 
Q 2609 -91 1734 -91 
Q 1441 -91 1130 -33 
Q 819 25 488 141 
L 488 750 
Q 750 597 1062 519 
Q 1375 441 1716 441 
Q 2309 441 2620 675 
Q 2931 909 2931 1356 
Q 2931 1769 2642 2001 
Q 2353 2234 1838 2234 
L 1294 2234 
L 1294 2753 
L 1863 2753 
Q 2328 2753 2575 2939 
Q 2822 3125 2822 3475 
Q 2822 3834 2567 4026 
Q 2313 4219 1838 4219 
Q 1578 4219 1281 4162 
Q 984 4106 628 3988 
L 628 4550 
Q 988 4650 1302 4700 
Q 1616 4750 1894 4750 
Q 2613 4750 3031 4423 
Q 3450 4097 3450 3541 
Q 3450 3153 3228 2886 
Q 3006 2619 2597 2516 
z
" transform="scale(0.015625)"/>
       </defs>
       <use xlink:href="#DejaVuSans-33"/>
       <use xlink:href="#DejaVuSans-30" x="63.623047"/>
       <use xlink:href="#DejaVuSans-30" x="127.246094"/>
      </g>
     </g>
    </g>
    <g id="text_7">
     <!-- # of photons -->
     <g transform="translate(189.017188 280.276563) scale(0.1 -0.1)">
      <defs>
       <path id="DejaVuSans-23" d="M 3272 2816 
L 2363 2816 
L 2100 1772 
L 3016 1772 
L 3272 2816 
z
M 2803 4594 
L 2478 3297 
L 3391 3297 
L 3719 4594 
L 4219 4594 
L 3897 3297 
L 4872 3297 
L 4872 2816 
L 3775 2816 
L 3519 1772 
L 4513 1772 
L 4513 1294 
L 3397 1294 
L 3072 0 
L 2572 0 
L 2894 1294 
L 1978 1294 
L 1656 0 
L 1153 0 
L 1478 1294 
L 494 1294 
L 494 1772 
L 1594 1772 
L 1856 2816 
L 850 2816 
L 850 3297 
L 1978 3297 
L 2297 4594 
L 2803 4594 
z
" transform="scale(0.015625)"/>
       <path id="DejaVuSans-20" transform="scale(0.015625)"/>
       <path id="DejaVuSans-6f" d="M 1959 3097 
Q 1497 3097 1228 2736 
Q 959 2375 959 1747 
Q 959 1119 1226 758 
Q 1494 397 1959 397 
Q 2419 397 2687 759 
Q 2956 1122 2956 1747 
Q 2956 2369 2687 2733 
Q 2419 3097 1959 3097 
z
M 1959 3584 
Q 2709 3584 3137 3096 
Q 3566 2609 3566 1747 
Q 3566 888 3137 398 
Q 2709 -91 1959 -91 
Q 1206 -91 779 398 
Q 353 888 353 1747 
Q 353 2609 779 3096 
Q 1206 3584 1959 3584 
z
" transform="scale(0.015625)"/>
       <path id="DejaVuSans-66" d="M 2375 4863 
L 2375 4384 
L 1825 4384 
Q 1516 4384 1395 4259 
Q 1275 4134 1275 3809 
L 1275 3500 
L 2222 3500 
L 2222 3053 
L 1275 3053 
L 1275 0 
L 697 0 
L 697 3053 
L 147 3053 
L 147 3500 
L 697 3500 
L 697 3744 
Q 697 4328 969 4595 
Q 1241 4863 1831 4863 
L 2375 4863 
z
" transform="scale(0.015625)"/>
       <path id="DejaVuSans-70" d="M 1159 525 
L 1159 -1331 
L 581 -1331 
L 581 3500 
L 1159 3500 
L 1159 2969 
Q 1341 3281 1617 3432 
Q 1894 3584 2278 3584 
Q 2916 3584 3314 3078 
Q 3713 2572 3713 1747 
Q 3713 922 3314 415 
Q 2916 -91 2278 -91 
Q 1894 -91 1617 61 
Q 1341 213 1159 525 
z
M 3116 1747 
Q 3116 2381 2855 2742 
Q 2594 3103 2138 3103 
Q 1681 3103 1420 2742 
Q 1159 2381 1159 1747 
Q 1159 1113 1420 752 
Q 1681 391 2138 391 
Q 2594 391 2855 752 
Q 3116 1113 3116 1747 
z
" transform="scale(0.015625)"/>
       <path id="DejaVuSans-68" d="M 3513 2113 
L 3513 0 
L 2938 0 
L 2938 2094 
Q 2938 2591 2744 2837 
Q 2550 3084 2163 3084 
Q 1697 3084 1428 2787 
Q 1159 2491 1159 1978 
L 1159 0 
L 581 0 
L 581 4863 
L 1159 4863 
L 1159 2956 
Q 1366 3272 1645 3428 
Q 1925 3584 2291 3584 
Q 2894 3584 3203 3211 
Q 3513 2838 3513 2113 
z
" transform="scale(0.015625)"/>
       <path id="DejaVuSans-74" d="M 1172 4494 
L 1172 3500 
L 2356 3500 
L 2356 3053 
L 1172 3053 
L 1172 1153 
Q 1172 725 1289 603 
Q 1406 481 1766 481 
L 2356 481 
L 2356 0 
L 1766 0 
Q 1100 0 847 248 
Q 594 497 594 1153 
L 594 3053 
L 172 3053 
L 172 3500 
L 594 3500 
L 594 4494 
L 1172 4494 
z
" transform="scale(0.015625)"/>
       <path id="DejaVuSans-6e" d="M 3513 2113 
L 3513 0 
L 2938 0 
L 2938 2094 
Q 2938 2591 2744 2837 
Q 2550 3084 2163 3084 
Q 1697 3084 1428 2787 
Q 1159 2491 1159 1978 
L 1159 0 
L 581 0 
L 581 3500 
L 1159 3500 
L 1159 2956 
Q 1366 3272 1645 3428 
Q 1925 3584 2291 3584 
Q 2894 3584 3203 3211 
Q 3513 2838 3513 2113 
z
" transform="scale(0.015625)"/>
       <path id="DejaVuSans-73" d="M 2834 3397 
L 2834 2853 
Q 2591 2978 2328 3040 
Q 2066 3103 1784 3103 
Q 1356 3103 1142 2972 
Q 928 2841 928 2578 
Q 928 2378 1081 2264 
Q 1234 2150 1697 2047 
L 1894 2003 
Q 2506 1872 2764 1633 
Q 3022 1394 3022 966 
Q 3022 478 2636 193 
Q 2250 -91 1575 -91 
Q 1294 -91 989 -36 
Q 684 19 347 128 
L 347 722 
Q 666 556 975 473 
Q 1284 391 1588 391 
Q 1994 391 2212 530 
Q 2431 669 2431 922 
Q 2431 1156 2273 1281 
Q 2116 1406 1581 1522 
L 1381 1569 
Q 847 1681 609 1914 
Q 372 2147 372 2553 
Q 372 3047 722 3315 
Q 1072 3584 1716 3584 
Q 2034 3584 2315 3537 
Q 2597 3491 2834 3397 
z
" transform="scale(0.015625)"/>
      </defs>
      <use xlink:href="#DejaVuSans-23"/>
      <use xlink:href="#DejaVuSans-20" x="83.789062"/>
      <use xlink:href="#DejaVuSans-6f" x="115.576172"/>
      <use xlink:href="#DejaVuSans-66" x="176.757812"/>
      <use xlink:href="#DejaVuSans-20" x="211.962891"/>
      <use xlink:href="#DejaVuSans-70" x="243.75"/>
      <use xlink:href="#DejaVuSans-68" x="307.226562"/>
      <use xlink:href="#DejaVuSans-6f" x="370.605469"/>
      <use xlink:href="#DejaVuSans-74" x="431.787109"/>
      <use xlink:href="#DejaVuSans-6f" x="470.996094"/>
      <use xlink:href="#DejaVuSans-6e" x="532.177734"/>
      <use xlink:href="#DejaVuSans-73" x="595.556641"/>
     </g>
    </g>
   </g>
   <g id="matplotlib.axis_2">
    <g id="ytick_1">
     <g id="line2d_7">
      <defs>
       <path id="m5b9d4361bc" d="M 0 0 
L -3.5 0 
" style="stroke: #000000; stroke-width: 0.8"/>
      </defs>
      <g>
       <use xlink:href="#m5b9d4361bc" x="54" y="252" style="stroke: #000000; stroke-width: 0.8"/>
      </g>
     </g>
     <g id="text_8">
      <!-- 0 -->
      <g transform="translate(40.6375 255.799219) scale(0.1 -0.1)">
       <use xlink:href="#DejaVuSans-30"/>
      </g>
     </g>
    </g>
    <g id="ytick_2">
     <g id="line2d_8">
      <g>
       <use xlink:href="#m5b9d4361bc" x="54" y="217.370282" style="stroke: #000000; stroke-width: 0.8"/>
      </g>
     </g>
     <g id="text_9">
      <!-- 50 -->
      <g transform="translate(34.275 221.169501) scale(0.1 -0.1)">
       <use xlink:href="#DejaVuSans-35"/>
       <use xlink:href="#DejaVuSans-30" x="63.623047"/>
      </g>
     </g>
    </g>
    <g id="ytick_3">
     <g id="line2d_9">
      <g>
       <use xlink:href="#m5b9d4361bc" x="54" y="182.740564" style="stroke: #000000; stroke-width: 0.8"/>
      </g>
     </g>
     <g id="text_10">
      <!-- 100 -->
      <g transform="translate(27.9125 186.539783) scale(0.1 -0.1)">
       <use xlink:href="#DejaVuSans-31"/>
       <use xlink:href="#DejaVuSans-30" x="63.623047"/>
       <use xlink:href="#DejaVuSans-30" x="127.246094"/>
      </g>
     </g>
    </g>
    <g id="ytick_4">
     <g id="line2d_10">
      <g>
       <use xlink:href="#m5b9d4361bc" x="54" y="148.110846" style="stroke: #000000; stroke-width: 0.8"/>
      </g>
     </g>
     <g id="text_11">
      <!-- 150 -->
      <g transform="translate(27.9125 151.910064) scale(0.1 -0.1)">
       <use xlink:href="#DejaVuSans-31"/>
       <use xlink:href="#DejaVuSans-35" x="63.623047"/>
       <use xlink:href="#DejaVuSans-30" x="127.246094"/>
      </g>
     </g>
    </g>
    <g id="ytick_5">
     <g id="line2d_11">
      <g>
       <use xlink:href="#m5b9d4361bc" x="54" y="113.481128" style="stroke: #000000; stroke-width: 0.8"/>
      </g>
     </g>
     <g id="text_12">
      <!-- 200 -->
      <g transform="translate(27.9125 117.280346) scale(0.1 -0.1)">
       <use xlink:href="#DejaVuSans-32"/>
       <use xlink:href="#DejaVuSans-30" x="63.623047"/>
       <use xlink:href="#DejaVuSans-30" x="127.246094"/>
      </g>
     </g>
    </g>
    <g id="ytick_6">
     <g id="line2d_12">
      <g>
       <use xlink:href="#m5b9d4361bc" x="54" y="78.851409" style="stroke: #000000; stroke-width: 0.8"/>
      </g>
     </g>
     <g id="text_13">
      <!-- 250 -->
      <g transform="translate(27.9125 82.650628) scale(0.1 -0.1)">
       <use xlink:href="#DejaVuSans-32"/>
       <use xlink:href="#DejaVuSans-35" x="63.623047"/>
       <use xlink:href="#DejaVuSans-30" x="127.246094"/>
      </g>
     </g>
    </g>
    <g id="ytick_7">
     <g id="line2d_13">
      <g>
       <use xlink:href="#m5b9d4361bc" x="54" y="44.221691" style="stroke: #000000; stroke-width: 0.8"/>
      </g>
     </g>
     <g id="text_14">
      <!-- 300 -->
      <g transform="translate(27.9125 48.02091) scale(0.1 -0.1)">
       <use xlink:href="#DejaVuSans-33"/>
       <use xlink:href="#DejaVuSans-30" x="63.623047"/>
       <use xlink:href="#DejaVuSans-30" x="127.246094"/>
      </g>
     </g>
    </g>
    <g id="text_15">
     <!-- # of events -->
     <g transform="translate(21.832812 172.313594) rotate(-90) scale(0.1 -0.1)">
      <defs>
       <path id="DejaVuSans-65" d="M 3597 1894 
L 3597 1613 
L 953 1613 
Q 991 1019 1311 708 
Q 1631 397 2203 397 
Q 2534 397 2845 478 
Q 3156 559 3463 722 
L 3463 178 
Q 3153 47 2828 -22 
Q 2503 -91 2169 -91 
Q 1331 -91 842 396 
Q 353 884 353 1716 
Q 353 2575 817 3079 
Q 1281 3584 2069 3584 
Q 2775 3584 3186 3129 
Q 3597 2675 3597 1894 
z
M 3022 2063 
Q 3016 2534 2758 2815 
Q 2500 3097 2075 3097 
Q 1594 3097 1305 2825 
Q 1016 2553 972 2059 
L 3022 2063 
z
" transform="scale(0.015625)"/>
       <path id="DejaVuSans-76" d="M 191 3500 
L 800 3500 
L 1894 563 
L 2988 3500 
L 3597 3500 
L 2284 0 
L 1503 0 
L 191 3500 
z
" transform="scale(0.015625)"/>
      </defs>
      <use xlink:href="#DejaVuSans-23"/>
      <use xlink:href="#DejaVuSans-20" x="83.789062"/>
      <use xlink:href="#DejaVuSans-6f" x="115.576172"/>
      <use xlink:href="#DejaVuSans-66" x="176.757812"/>
      <use xlink:href="#DejaVuSans-20" x="211.962891"/>
      <use xlink:href="#DejaVuSans-65" x="243.75"/>
      <use xlink:href="#DejaVuSans-76" x="305.273438"/>
      <use xlink:href="#DejaVuSans-65" x="364.453125"/>
      <use xlink:href="#DejaVuSans-6e" x="425.976562"/>
      <use xlink:href="#DejaVuSans-74" x="489.355469"/>
      <use xlink:href="#DejaVuSans-73" x="528.564453"/>
     </g>
    </g>
   </g>
   <g id="patch_275">
    <path d="M 54 252 
L 54 34.56 
" style="fill: none; stroke: #000000; stroke-width: 0.8; stroke-linejoin: miter; stroke-linecap: square"/>
   </g>
   <g id="patch_276">
    <path d="M 388.8 252 
L 388.8 34.56 
" style="fill: none; stroke: #000000; stroke-width: 0.8; stroke-linejoin: miter; stroke-linecap: square"/>
   </g>
   <g id="patch_277">
    <path d="M 54 252 
L 388.8 252 
" style="fill: none; stroke: #000000; stroke-width: 0.8; stroke-linejoin: miter; stroke-linecap: square"/>
   </g>
   <g id="patch_278">
    <path d="M 54 34.56 
L 388.8 34.56 
" style="fill: none; stroke: #000000; stroke-width: 0.8; stroke-linejoin: miter; stroke-linecap: square"/>
   </g>
   <g id="text_16">
    <!-- $\mu=83.70,\ \sigma=22.509$ -->
    <g transform="translate(196.782353 113.481128) scale(0.14 -0.14)">
     <defs>
      <path id="DejaVuSans-Oblique-3bc" d="M -84 -1331 
L 856 3500 
L 1434 3500 
L 1009 1322 
Q 997 1256 987 1175 
Q 978 1094 978 1013 
Q 978 722 1161 565 
Q 1344 409 1684 409 
Q 2147 409 2431 671 
Q 2716 934 2816 1459 
L 3213 3500 
L 3788 3500 
L 3266 809 
Q 3253 750 3248 706 
Q 3244 663 3244 628 
Q 3244 531 3283 486 
Q 3322 441 3406 441 
Q 3438 441 3492 456 
Q 3547 472 3647 513 
L 3559 50 
Q 3422 -19 3297 -55 
Q 3172 -91 3053 -91 
Q 2847 -91 2730 40 
Q 2613 172 2613 403 
Q 2438 153 2195 31 
Q 1953 -91 1625 -91 
Q 1334 -91 1117 43 
Q 900 178 831 397 
L 494 -1331 
L -84 -1331 
z
" transform="scale(0.015625)"/>
      <path id="DejaVuSans-3d" d="M 678 2906 
L 4684 2906 
L 4684 2381 
L 678 2381 
L 678 2906 
z
M 678 1631 
L 4684 1631 
L 4684 1100 
L 678 1100 
L 678 1631 
z
" transform="scale(0.015625)"/>
      <path id="DejaVuSans-38" d="M 2034 2216 
Q 1584 2216 1326 1975 
Q 1069 1734 1069 1313 
Q 1069 891 1326 650 
Q 1584 409 2034 409 
Q 2484 409 2743 651 
Q 3003 894 3003 1313 
Q 3003 1734 2745 1975 
Q 2488 2216 2034 2216 
z
M 1403 2484 
Q 997 2584 770 2862 
Q 544 3141 544 3541 
Q 544 4100 942 4425 
Q 1341 4750 2034 4750 
Q 2731 4750 3128 4425 
Q 3525 4100 3525 3541 
Q 3525 3141 3298 2862 
Q 3072 2584 2669 2484 
Q 3125 2378 3379 2068 
Q 3634 1759 3634 1313 
Q 3634 634 3220 271 
Q 2806 -91 2034 -91 
Q 1263 -91 848 271 
Q 434 634 434 1313 
Q 434 1759 690 2068 
Q 947 2378 1403 2484 
z
M 1172 3481 
Q 1172 3119 1398 2916 
Q 1625 2713 2034 2713 
Q 2441 2713 2670 2916 
Q 2900 3119 2900 3481 
Q 2900 3844 2670 4047 
Q 2441 4250 2034 4250 
Q 1625 4250 1398 4047 
Q 1172 3844 1172 3481 
z
" transform="scale(0.015625)"/>
      <path id="DejaVuSans-2e" d="M 684 794 
L 1344 794 
L 1344 0 
L 684 0 
L 684 794 
z
" transform="scale(0.015625)"/>
      <path id="DejaVuSans-37" d="M 525 4666 
L 3525 4666 
L 3525 4397 
L 1831 0 
L 1172 0 
L 2766 4134 
L 525 4134 
L 525 4666 
z
" transform="scale(0.015625)"/>
      <path id="DejaVuSans-2c" d="M 750 794 
L 1409 794 
L 1409 256 
L 897 -744 
L 494 -744 
L 750 256 
L 750 794 
z
" transform="scale(0.015625)"/>
      <path id="DejaVuSans-Oblique-3c3" d="M 2219 3044 
Q 1744 3044 1422 2700 
Q 1081 2341 969 1747 
Q 844 1119 1044 756 
Q 1241 397 1706 397 
Q 2166 397 2503 759 
Q 2844 1122 2966 1747 
Q 3075 2319 2881 2700 
Q 2700 3044 2219 3044 
z
M 2309 3503 
L 4219 3500 
L 4106 2925 
L 3463 2925 
Q 3706 2438 3575 1747 
Q 3406 888 2884 400 
Q 2359 -91 1609 -91 
Q 856 -91 525 400 
Q 194 888 363 1747 
Q 528 2609 1050 3097 
Q 1484 3503 2309 3503 
z
" transform="scale(0.015625)"/>
      <path id="DejaVuSans-39" d="M 703 97 
L 703 672 
Q 941 559 1184 500 
Q 1428 441 1663 441 
Q 2288 441 2617 861 
Q 2947 1281 2994 2138 
Q 2813 1869 2534 1725 
Q 2256 1581 1919 1581 
Q 1219 1581 811 2004 
Q 403 2428 403 3163 
Q 403 3881 828 4315 
Q 1253 4750 1959 4750 
Q 2769 4750 3195 4129 
Q 3622 3509 3622 2328 
Q 3622 1225 3098 567 
Q 2575 -91 1691 -91 
Q 1453 -91 1209 -44 
Q 966 3 703 97 
z
M 1959 2075 
Q 2384 2075 2632 2365 
Q 2881 2656 2881 3163 
Q 2881 3666 2632 3958 
Q 2384 4250 1959 4250 
Q 1534 4250 1286 3958 
Q 1038 3666 1038 3163 
Q 1038 2656 1286 2365 
Q 1534 2075 1959 2075 
z
" transform="scale(0.015625)"/>
     </defs>
     <use xlink:href="#DejaVuSans-Oblique-3bc" transform="translate(0 0.78125)"/>
     <use xlink:href="#DejaVuSans-3d" transform="translate(83.105469 0.78125)"/>
     <use xlink:href="#DejaVuSans-38" transform="translate(186.376953 0.78125)"/>
     <use xlink:href="#DejaVuSans-33" transform="translate(250 0.78125)"/>
     <use xlink:href="#DejaVuSans-2e" transform="translate(313.623047 0.78125)"/>
     <use xlink:href="#DejaVuSans-37" transform="translate(337.660156 0.78125)"/>
     <use xlink:href="#DejaVuSans-30" transform="translate(401.283203 0.78125)"/>
     <use xlink:href="#DejaVuSans-2c" transform="translate(464.90625 0.78125)"/>
     <use xlink:href="#DejaVuSans-Oblique-3c3" transform="translate(548.64616 0.78125)"/>
     <use xlink:href="#DejaVuSans-3d" transform="translate(631.507488 0.78125)"/>
     <use xlink:href="#DejaVuSans-32" transform="translate(734.778972 0.78125)"/>
     <use xlink:href="#DejaVuSans-32" transform="translate(798.402019 0.78125)"/>
     <use xlink:href="#DejaVuSans-2e" transform="translate(862.025066 0.78125)"/>
     <use xlink:href="#DejaVuSans-35" transform="translate(893.812175 0.78125)"/>
     <use xlink:href="#DejaVuSans-30" transform="translate(957.435222 0.78125)"/>
     <use xlink:href="#DejaVuSans-39" transform="translate(1021.058269 0.78125)"/>
    </g>
   </g>
   <g id="text_17">
    <!-- # of photons, 5GeV mu-, 1.5m length segment -->
    <g transform="translate(80.289375 28.56) scale(0.12 -0.12)">
     <defs>
      <path id="DejaVuSans-47" d="M 3809 666 
L 3809 1919 
L 2778 1919 
L 2778 2438 
L 4434 2438 
L 4434 434 
Q 4069 175 3628 42 
Q 3188 -91 2688 -91 
Q 1594 -91 976 548 
Q 359 1188 359 2328 
Q 359 3472 976 4111 
Q 1594 4750 2688 4750 
Q 3144 4750 3555 4637 
Q 3966 4525 4313 4306 
L 4313 3634 
Q 3963 3931 3569 4081 
Q 3175 4231 2741 4231 
Q 1884 4231 1454 3753 
Q 1025 3275 1025 2328 
Q 1025 1384 1454 906 
Q 1884 428 2741 428 
Q 3075 428 3337 486 
Q 3600 544 3809 666 
z
" transform="scale(0.015625)"/>
      <path id="DejaVuSans-56" d="M 1831 0 
L 50 4666 
L 709 4666 
L 2188 738 
L 3669 4666 
L 4325 4666 
L 2547 0 
L 1831 0 
z
" transform="scale(0.015625)"/>
      <path id="DejaVuSans-6d" d="M 3328 2828 
Q 3544 3216 3844 3400 
Q 4144 3584 4550 3584 
Q 5097 3584 5394 3201 
Q 5691 2819 5691 2113 
L 5691 0 
L 5113 0 
L 5113 2094 
Q 5113 2597 4934 2840 
Q 4756 3084 4391 3084 
Q 3944 3084 3684 2787 
Q 3425 2491 3425 1978 
L 3425 0 
L 2847 0 
L 2847 2094 
Q 2847 2600 2669 2842 
Q 2491 3084 2119 3084 
Q 1678 3084 1418 2786 
Q 1159 2488 1159 1978 
L 1159 0 
L 581 0 
L 581 3500 
L 1159 3500 
L 1159 2956 
Q 1356 3278 1631 3431 
Q 1906 3584 2284 3584 
Q 2666 3584 2933 3390 
Q 3200 3197 3328 2828 
z
" transform="scale(0.015625)"/>
      <path id="DejaVuSans-75" d="M 544 1381 
L 544 3500 
L 1119 3500 
L 1119 1403 
Q 1119 906 1312 657 
Q 1506 409 1894 409 
Q 2359 409 2629 706 
Q 2900 1003 2900 1516 
L 2900 3500 
L 3475 3500 
L 3475 0 
L 2900 0 
L 2900 538 
Q 2691 219 2414 64 
Q 2138 -91 1772 -91 
Q 1169 -91 856 284 
Q 544 659 544 1381 
z
M 1991 3584 
L 1991 3584 
z
" transform="scale(0.015625)"/>
      <path id="DejaVuSans-2d" d="M 313 2009 
L 1997 2009 
L 1997 1497 
L 313 1497 
L 313 2009 
z
" transform="scale(0.015625)"/>
      <path id="DejaVuSans-6c" d="M 603 4863 
L 1178 4863 
L 1178 0 
L 603 0 
L 603 4863 
z
" transform="scale(0.015625)"/>
      <path id="DejaVuSans-67" d="M 2906 1791 
Q 2906 2416 2648 2759 
Q 2391 3103 1925 3103 
Q 1463 3103 1205 2759 
Q 947 2416 947 1791 
Q 947 1169 1205 825 
Q 1463 481 1925 481 
Q 2391 481 2648 825 
Q 2906 1169 2906 1791 
z
M 3481 434 
Q 3481 -459 3084 -895 
Q 2688 -1331 1869 -1331 
Q 1566 -1331 1297 -1286 
Q 1028 -1241 775 -1147 
L 775 -588 
Q 1028 -725 1275 -790 
Q 1522 -856 1778 -856 
Q 2344 -856 2625 -561 
Q 2906 -266 2906 331 
L 2906 616 
Q 2728 306 2450 153 
Q 2172 0 1784 0 
Q 1141 0 747 490 
Q 353 981 353 1791 
Q 353 2603 747 3093 
Q 1141 3584 1784 3584 
Q 2172 3584 2450 3431 
Q 2728 3278 2906 2969 
L 2906 3500 
L 3481 3500 
L 3481 434 
z
" transform="scale(0.015625)"/>
     </defs>
     <use xlink:href="#DejaVuSans-23"/>
     <use xlink:href="#DejaVuSans-20" x="83.789062"/>
     <use xlink:href="#DejaVuSans-6f" x="115.576172"/>
     <use xlink:href="#DejaVuSans-66" x="176.757812"/>
     <use xlink:href="#DejaVuSans-20" x="211.962891"/>
     <use xlink:href="#DejaVuSans-70" x="243.75"/>
     <use xlink:href="#DejaVuSans-68" x="307.226562"/>
     <use xlink:href="#DejaVuSans-6f" x="370.605469"/>
     <use xlink:href="#DejaVuSans-74" x="431.787109"/>
     <use xlink:href="#DejaVuSans-6f" x="470.996094"/>
     <use xlink:href="#DejaVuSans-6e" x="532.177734"/>
     <use xlink:href="#DejaVuSans-73" x="595.556641"/>
     <use xlink:href="#DejaVuSans-2c" x="647.65625"/>
     <use xlink:href="#DejaVuSans-20" x="679.443359"/>
     <use xlink:href="#DejaVuSans-35" x="711.230469"/>
     <use xlink:href="#DejaVuSans-47" x="774.853516"/>
     <use xlink:href="#DejaVuSans-65" x="852.34375"/>
     <use xlink:href="#DejaVuSans-56" x="913.867188"/>
     <use xlink:href="#DejaVuSans-20" x="982.275391"/>
     <use xlink:href="#DejaVuSans-6d" x="1014.0625"/>
     <use xlink:href="#DejaVuSans-75" x="1111.474609"/>
     <use xlink:href="#DejaVuSans-2d" x="1174.853516"/>
     <use xlink:href="#DejaVuSans-2c" x="1210.9375"/>
     <use xlink:href="#DejaVuSans-20" x="1242.724609"/>
     <use xlink:href="#DejaVuSans-31" x="1274.511719"/>
     <use xlink:href="#DejaVuSans-2e" x="1338.134766"/>
     <use xlink:href="#DejaVuSans-35" x="1369.921875"/>
     <use xlink:href="#DejaVuSans-6d" x="1433.544922"/>
     <use xlink:href="#DejaVuSans-20" x="1530.957031"/>
     <use xlink:href="#DejaVuSans-6c" x="1562.744141"/>
     <use xlink:href="#DejaVuSans-65" x="1590.527344"/>
     <use xlink:href="#DejaVuSans-6e" x="1652.050781"/>
     <use xlink:href="#DejaVuSans-67" x="1715.429688"/>
     <use xlink:href="#DejaVuSans-74" x="1778.90625"/>
     <use xlink:href="#DejaVuSans-68" x="1818.115234"/>
     <use xlink:href="#DejaVuSans-20" x="1881.494141"/>
     <use xlink:href="#DejaVuSans-73" x="1913.28125"/>
     <use xlink:href="#DejaVuSans-65" x="1965.380859"/>
     <use xlink:href="#DejaVuSans-67" x="2026.904297"/>
     <use xlink:href="#DejaVuSans-6d" x="2090.380859"/>
     <use xlink:href="#DejaVuSans-65" x="2187.792969"/>
     <use xlink:href="#DejaVuSans-6e" x="2249.316406"/>
     <use xlink:href="#DejaVuSans-74" x="2312.695312"/>
    </g>
   </g>
  </g>
 </g>
 <defs>
  <clipPath id="p407856b543">
   <rect x="54" y="34.56" width="334.8" height="217.44"/>
  </clipPath>
 </defs>
</svg>
