<?xml version="1.0" encoding="utf-8" standalone="no"?>
<!DOCTYPE svg PUBLIC "-//W3C//DTD SVG 1.1//EN"
  "http://www.w3.org/Graphics/SVG/1.1/DTD/svg11.dtd">
<svg xmlns:xlink="http://www.w3.org/1999/xlink" width="432pt" height="288pt" viewBox="0 0 432 288" xmlns="http://www.w3.org/2000/svg" version="1.1">
 <metadata>
  <rdf:RDF xmlns:dc="http://purl.org/dc/elements/1.1/" xmlns:cc="http://creativecommons.org/ns#" xmlns:rdf="http://www.w3.org/1999/02/22-rdf-syntax-ns#">
   <cc:Work>
    <dc:type rdf:resource="http://purl.org/dc/dcmitype/StillImage"/>
    <dc:date>2024-06-03T11:49:25.627743</dc:date>
    <dc:format>image/svg+xml</dc:format>
    <dc:creator>
     <cc:Agent>
      <dc:title>Matplotlib v3.7.4, https://matplotlib.org/</dc:title>
     </cc:Agent>
    </dc:creator>
   </cc:Work>
  </rdf:RDF>
 </metadata>
 <defs>
  <style type="text/css">*{stroke-linejoin: round; stroke-linecap: butt}</style>
 </defs>
 <g id="figure_1">
  <g id="patch_1">
   <path d="M 0 288 
L 432 288 
L 432 0 
L 0 0 
L 0 288 
z
" style="fill: none"/>
  </g>
  <g id="axes_1">
   <g id="patch_2">
    <path d="M 54 252 
L 388.8 252 
L 388.8 34.56 
L 54 34.56 
z
" style="fill: #ffffff"/>
   </g>
   <g id="patch_3">
    <path d="M 69.218182 252 
L 70.530094 252 
L 70.530094 251.489937 
L 69.218182 251.489937 
z
" clip-path="url(#pcecfd5cb2f)" style="fill: #0000ff"/>
   </g>
   <g id="patch_4">
    <path d="M 70.530094 252 
L 71.842006 252 
L 71.842006 252 
L 70.530094 252 
z
" clip-path="url(#pcecfd5cb2f)" style="fill: #0000ff"/>
   </g>
   <g id="patch_5">
    <path d="M 71.842006 252 
L 73.153918 252 
L 73.153918 251.489937 
L 71.842006 251.489937 
z
" clip-path="url(#pcecfd5cb2f)" style="fill: #0000ff"/>
   </g>
   <g id="patch_6">
    <path d="M 73.153918 252 
L 74.465831 252 
L 74.465831 251.489937 
L 73.153918 251.489937 
z
" clip-path="url(#pcecfd5cb2f)" style="fill: #0000ff"/>
   </g>
   <g id="patch_7">
    <path d="M 74.465831 252 
L 75.777743 252 
L 75.777743 249.449683 
L 74.465831 249.449683 
z
" clip-path="url(#pcecfd5cb2f)" style="fill: #0000ff"/>
   </g>
   <g id="patch_8">
    <path d="M 75.777743 252 
L 77.089655 252 
L 77.089655 249.959747 
L 75.777743 249.959747 
z
" clip-path="url(#pcecfd5cb2f)" style="fill: #0000ff"/>
   </g>
   <g id="patch_9">
    <path d="M 77.089655 252 
L 78.401567 252 
L 78.401567 248.429557 
L 77.089655 248.429557 
z
" clip-path="url(#pcecfd5cb2f)" style="fill: #0000ff"/>
   </g>
   <g id="patch_10">
    <path d="M 78.401567 252 
L 79.71348 252 
L 79.71348 247.40943 
L 78.401567 247.40943 
z
" clip-path="url(#pcecfd5cb2f)" style="fill: #0000ff"/>
   </g>
   <g id="patch_11">
    <path d="M 79.71348 252 
L 81.025392 252 
L 81.025392 244.34905 
L 79.71348 244.34905 
z
" clip-path="url(#pcecfd5cb2f)" style="fill: #0000ff"/>
   </g>
   <g id="patch_12">
    <path d="M 81.025392 252 
L 82.337304 252 
L 82.337304 236.188037 
L 81.025392 236.188037 
z
" clip-path="url(#pcecfd5cb2f)" style="fill: #0000ff"/>
   </g>
   <g id="patch_13">
    <path d="M 82.337304 252 
L 83.649216 252 
L 83.649216 235.16791 
L 82.337304 235.16791 
z
" clip-path="url(#pcecfd5cb2f)" style="fill: #0000ff"/>
   </g>
   <g id="patch_14">
    <path d="M 83.649216 252 
L 84.961129 252 
L 84.961129 231.597467 
L 83.649216 231.597467 
z
" clip-path="url(#pcecfd5cb2f)" style="fill: #0000ff"/>
   </g>
   <g id="patch_15">
    <path d="M 84.961129 252 
L 86.273041 252 
L 86.273041 222.416327 
L 84.961129 222.416327 
z
" clip-path="url(#pcecfd5cb2f)" style="fill: #0000ff"/>
   </g>
   <g id="patch_16">
    <path d="M 86.273041 252 
L 87.584953 252 
L 87.584953 213.74525 
L 86.273041 213.74525 
z
" clip-path="url(#pcecfd5cb2f)" style="fill: #0000ff"/>
   </g>
   <g id="patch_17">
    <path d="M 87.584953 252 
L 88.896865 252 
L 88.896865 207.62449 
L 87.584953 207.62449 
z
" clip-path="url(#pcecfd5cb2f)" style="fill: #0000ff"/>
   </g>
   <g id="patch_18">
    <path d="M 88.896865 252 
L 90.208777 252 
L 90.208777 192.32259 
L 88.896865 192.32259 
z
" clip-path="url(#pcecfd5cb2f)" style="fill: #0000ff"/>
   </g>
   <g id="patch_19">
    <path d="M 90.208777 252 
L 91.52069 252 
L 91.52069 192.832653 
L 90.208777 192.832653 
z
" clip-path="url(#pcecfd5cb2f)" style="fill: #0000ff"/>
   </g>
   <g id="patch_20">
    <path d="M 91.52069 252 
L 92.832602 252 
L 92.832602 158.65841 
L 91.52069 158.65841 
z
" clip-path="url(#pcecfd5cb2f)" style="fill: #0000ff"/>
   </g>
   <g id="patch_21">
    <path d="M 92.832602 252 
L 94.144514 252 
L 94.144514 156.618156 
L 92.832602 156.618156 
z
" clip-path="url(#pcecfd5cb2f)" style="fill: #0000ff"/>
   </g>
   <g id="patch_22">
    <path d="M 94.144514 252 
L 95.456426 252 
L 95.456426 154.06784 
L 94.144514 154.06784 
z
" clip-path="url(#pcecfd5cb2f)" style="fill: #0000ff"/>
   </g>
   <g id="patch_23">
    <path d="M 95.456426 252 
L 96.768339 252 
L 96.768339 126.014356 
L 95.456426 126.014356 
z
" clip-path="url(#pcecfd5cb2f)" style="fill: #0000ff"/>
   </g>
   <g id="patch_24">
    <path d="M 96.768339 252 
L 98.080251 252 
L 98.080251 128.564673 
L 96.768339 128.564673 
z
" clip-path="url(#pcecfd5cb2f)" style="fill: #0000ff"/>
   </g>
   <g id="patch_25">
    <path d="M 98.080251 252 
L 99.392163 252 
L 99.392163 94.900493 
L 98.080251 94.900493 
z
" clip-path="url(#pcecfd5cb2f)" style="fill: #0000ff"/>
   </g>
   <g id="patch_26">
    <path d="M 99.392163 252 
L 100.704075 252 
L 100.704075 91.840113 
L 99.392163 91.840113 
z
" clip-path="url(#pcecfd5cb2f)" style="fill: #0000ff"/>
   </g>
   <g id="patch_27">
    <path d="M 100.704075 252 
L 102.015987 252 
L 102.015987 75.518086 
L 100.704075 75.518086 
z
" clip-path="url(#pcecfd5cb2f)" style="fill: #0000ff"/>
   </g>
   <g id="patch_28">
    <path d="M 102.015987 252 
L 103.3279 252 
L 103.3279 72.457706 
L 102.015987 72.457706 
z
" clip-path="url(#pcecfd5cb2f)" style="fill: #0000ff"/>
   </g>
   <g id="patch_29">
    <path d="M 103.3279 252 
L 104.639812 252 
L 104.639812 59.706122 
L 103.3279 59.706122 
z
" clip-path="url(#pcecfd5cb2f)" style="fill: #0000ff"/>
   </g>
   <g id="patch_30">
    <path d="M 104.639812 252 
L 105.951724 252 
L 105.951724 44.914286 
L 104.639812 44.914286 
z
" clip-path="url(#pcecfd5cb2f)" style="fill: #0000ff"/>
   </g>
   <g id="patch_31">
    <path d="M 105.951724 252 
L 107.263636 252 
L 107.263636 56.645742 
L 105.951724 56.645742 
z
" clip-path="url(#pcecfd5cb2f)" style="fill: #0000ff"/>
   </g>
   <g id="patch_32">
    <path d="M 107.263636 252 
L 108.575549 252 
L 108.575549 70.927516 
L 107.263636 70.927516 
z
" clip-path="url(#pcecfd5cb2f)" style="fill: #0000ff"/>
   </g>
   <g id="patch_33">
    <path d="M 108.575549 252 
L 109.887461 252 
L 109.887461 62.256439 
L 108.575549 62.256439 
z
" clip-path="url(#pcecfd5cb2f)" style="fill: #0000ff"/>
   </g>
   <g id="patch_34">
    <path d="M 109.887461 252 
L 111.199373 252 
L 111.199373 75.518086 
L 109.887461 75.518086 
z
" clip-path="url(#pcecfd5cb2f)" style="fill: #0000ff"/>
   </g>
   <g id="patch_35">
    <path d="M 111.199373 252 
L 112.511285 252 
L 112.511285 91.840113 
L 111.199373 91.840113 
z
" clip-path="url(#pcecfd5cb2f)" style="fill: #0000ff"/>
   </g>
   <g id="patch_36">
    <path d="M 112.511285 252 
L 113.823197 252 
L 113.823197 84.189163 
L 112.511285 84.189163 
z
" clip-path="url(#pcecfd5cb2f)" style="fill: #0000ff"/>
   </g>
   <g id="patch_37">
    <path d="M 113.823197 252 
L 115.13511 252 
L 115.13511 105.101759 
L 113.823197 105.101759 
z
" clip-path="url(#pcecfd5cb2f)" style="fill: #0000ff"/>
   </g>
   <g id="patch_38">
    <path d="M 115.13511 252 
L 116.447022 252 
L 116.447022 111.222519 
L 115.13511 111.222519 
z
" clip-path="url(#pcecfd5cb2f)" style="fill: #0000ff"/>
   </g>
   <g id="patch_39">
    <path d="M 116.447022 252 
L 117.758934 252 
L 117.758934 121.423786 
L 116.447022 121.423786 
z
" clip-path="url(#pcecfd5cb2f)" style="fill: #0000ff"/>
   </g>
   <g id="patch_40">
    <path d="M 117.758934 252 
L 119.070846 252 
L 119.070846 122.953976 
L 117.758934 122.953976 
z
" clip-path="url(#pcecfd5cb2f)" style="fill: #0000ff"/>
   </g>
   <g id="patch_41">
    <path d="M 119.070846 252 
L 120.382759 252 
L 120.382759 128.564673 
L 119.070846 128.564673 
z
" clip-path="url(#pcecfd5cb2f)" style="fill: #0000ff"/>
   </g>
   <g id="patch_42">
    <path d="M 120.382759 252 
L 121.694671 252 
L 121.694671 143.35651 
L 120.382759 143.35651 
z
" clip-path="url(#pcecfd5cb2f)" style="fill: #0000ff"/>
   </g>
   <g id="patch_43">
    <path d="M 121.694671 252 
L 123.006583 252 
L 123.006583 149.47727 
L 121.694671 149.47727 
z
" clip-path="url(#pcecfd5cb2f)" style="fill: #0000ff"/>
   </g>
   <g id="patch_44">
    <path d="M 123.006583 252 
L 124.318495 252 
L 124.318495 161.208726 
L 123.006583 161.208726 
z
" clip-path="url(#pcecfd5cb2f)" style="fill: #0000ff"/>
   </g>
   <g id="patch_45">
    <path d="M 124.318495 252 
L 125.630408 252 
L 125.630408 168.859676 
L 124.318495 168.859676 
z
" clip-path="url(#pcecfd5cb2f)" style="fill: #0000ff"/>
   </g>
   <g id="patch_46">
    <path d="M 125.630408 252 
L 126.94232 252 
L 126.94232 177.530753 
L 125.630408 177.530753 
z
" clip-path="url(#pcecfd5cb2f)" style="fill: #0000ff"/>
   </g>
   <g id="patch_47">
    <path d="M 126.94232 252 
L 128.254232 252 
L 128.254232 191.302463 
L 126.94232 191.302463 
z
" clip-path="url(#pcecfd5cb2f)" style="fill: #0000ff"/>
   </g>
   <g id="patch_48">
    <path d="M 128.254232 252 
L 129.566144 252 
L 129.566144 194.362843 
L 128.254232 194.362843 
z
" clip-path="url(#pcecfd5cb2f)" style="fill: #0000ff"/>
   </g>
   <g id="patch_49">
    <path d="M 129.566144 252 
L 130.878056 252 
L 130.878056 194.872906 
L 129.566144 194.872906 
z
" clip-path="url(#pcecfd5cb2f)" style="fill: #0000ff"/>
   </g>
   <g id="patch_50">
    <path d="M 130.878056 252 
L 132.189969 252 
L 132.189969 199.463476 
L 130.878056 199.463476 
z
" clip-path="url(#pcecfd5cb2f)" style="fill: #0000ff"/>
   </g>
   <g id="patch_51">
    <path d="M 132.189969 252 
L 133.501881 252 
L 133.501881 212.725123 
L 132.189969 212.725123 
z
" clip-path="url(#pcecfd5cb2f)" style="fill: #0000ff"/>
   </g>
   <g id="patch_52">
    <path d="M 133.501881 252 
L 134.813793 252 
L 134.813793 205.074173 
L 133.501881 205.074173 
z
" clip-path="url(#pcecfd5cb2f)" style="fill: #0000ff"/>
   </g>
   <g id="patch_53">
    <path d="M 134.813793 252 
L 136.125705 252 
L 136.125705 206.604363 
L 134.813793 206.604363 
z
" clip-path="url(#pcecfd5cb2f)" style="fill: #0000ff"/>
   </g>
   <g id="patch_54">
    <path d="M 136.125705 252 
L 137.437618 252 
L 137.437618 219.355947 
L 136.125705 219.355947 
z
" clip-path="url(#pcecfd5cb2f)" style="fill: #0000ff"/>
   </g>
   <g id="patch_55">
    <path d="M 137.437618 252 
L 138.74953 252 
L 138.74953 223.436453 
L 137.437618 223.436453 
z
" clip-path="url(#pcecfd5cb2f)" style="fill: #0000ff"/>
   </g>
   <g id="patch_56">
    <path d="M 138.74953 252 
L 140.061442 252 
L 140.061442 217.825757 
L 138.74953 217.825757 
z
" clip-path="url(#pcecfd5cb2f)" style="fill: #0000ff"/>
   </g>
   <g id="patch_57">
    <path d="M 140.061442 252 
L 141.373354 252 
L 141.373354 219.86601 
L 140.061442 219.86601 
z
" clip-path="url(#pcecfd5cb2f)" style="fill: #0000ff"/>
   </g>
   <g id="patch_58">
    <path d="M 141.373354 252 
L 142.685266 252 
L 142.685266 225.476707 
L 141.373354 225.476707 
z
" clip-path="url(#pcecfd5cb2f)" style="fill: #0000ff"/>
   </g>
   <g id="patch_59">
    <path d="M 142.685266 252 
L 143.997179 252 
L 143.997179 230.067277 
L 142.685266 230.067277 
z
" clip-path="url(#pcecfd5cb2f)" style="fill: #0000ff"/>
   </g>
   <g id="patch_60">
    <path d="M 143.997179 252 
L 145.309091 252 
L 145.309091 225.98677 
L 143.997179 225.98677 
z
" clip-path="url(#pcecfd5cb2f)" style="fill: #0000ff"/>
   </g>
   <g id="patch_61">
    <path d="M 145.309091 252 
L 146.621003 252 
L 146.621003 225.476707 
L 145.309091 225.476707 
z
" clip-path="url(#pcecfd5cb2f)" style="fill: #0000ff"/>
   </g>
   <g id="patch_62">
    <path d="M 146.621003 252 
L 147.932915 252 
L 147.932915 235.677973 
L 146.621003 235.677973 
z
" clip-path="url(#pcecfd5cb2f)" style="fill: #0000ff"/>
   </g>
   <g id="patch_63">
    <path d="M 147.932915 252 
L 149.244828 252 
L 149.244828 231.087403 
L 147.932915 231.087403 
z
" clip-path="url(#pcecfd5cb2f)" style="fill: #0000ff"/>
   </g>
   <g id="patch_64">
    <path d="M 149.244828 252 
L 150.55674 252 
L 150.55674 234.657847 
L 149.244828 234.657847 
z
" clip-path="url(#pcecfd5cb2f)" style="fill: #0000ff"/>
   </g>
   <g id="patch_65">
    <path d="M 150.55674 252 
L 151.868652 252 
L 151.868652 235.16791 
L 150.55674 235.16791 
z
" clip-path="url(#pcecfd5cb2f)" style="fill: #0000ff"/>
   </g>
   <g id="patch_66">
    <path d="M 151.868652 252 
L 153.180564 252 
L 153.180564 235.677973 
L 151.868652 235.677973 
z
" clip-path="url(#pcecfd5cb2f)" style="fill: #0000ff"/>
   </g>
   <g id="patch_67">
    <path d="M 153.180564 252 
L 154.492476 252 
L 154.492476 238.22829 
L 153.180564 238.22829 
z
" clip-path="url(#pcecfd5cb2f)" style="fill: #0000ff"/>
   </g>
   <g id="patch_68">
    <path d="M 154.492476 252 
L 155.804389 252 
L 155.804389 236.188037 
L 154.492476 236.188037 
z
" clip-path="url(#pcecfd5cb2f)" style="fill: #0000ff"/>
   </g>
   <g id="patch_69">
    <path d="M 155.804389 252 
L 157.116301 252 
L 157.116301 243.838987 
L 155.804389 243.838987 
z
" clip-path="url(#pcecfd5cb2f)" style="fill: #0000ff"/>
   </g>
   <g id="patch_70">
    <path d="M 157.116301 252 
L 158.428213 252 
L 158.428213 237.208163 
L 157.116301 237.208163 
z
" clip-path="url(#pcecfd5cb2f)" style="fill: #0000ff"/>
   </g>
   <g id="patch_71">
    <path d="M 158.428213 252 
L 159.740125 252 
L 159.740125 241.28867 
L 158.428213 241.28867 
z
" clip-path="url(#pcecfd5cb2f)" style="fill: #0000ff"/>
   </g>
   <g id="patch_72">
    <path d="M 159.740125 252 
L 161.052038 252 
L 161.052038 240.778607 
L 159.740125 240.778607 
z
" clip-path="url(#pcecfd5cb2f)" style="fill: #0000ff"/>
   </g>
   <g id="patch_73">
    <path d="M 161.052038 252 
L 162.36395 252 
L 162.36395 240.778607 
L 161.052038 240.778607 
z
" clip-path="url(#pcecfd5cb2f)" style="fill: #0000ff"/>
   </g>
   <g id="patch_74">
    <path d="M 162.36395 252 
L 163.675862 252 
L 163.675862 239.248417 
L 162.36395 239.248417 
z
" clip-path="url(#pcecfd5cb2f)" style="fill: #0000ff"/>
   </g>
   <g id="patch_75">
    <path d="M 163.675862 252 
L 164.987774 252 
L 164.987774 241.798733 
L 163.675862 241.798733 
z
" clip-path="url(#pcecfd5cb2f)" style="fill: #0000ff"/>
   </g>
   <g id="patch_76">
    <path d="M 164.987774 252 
L 166.299687 252 
L 166.299687 238.738353 
L 164.987774 238.738353 
z
" clip-path="url(#pcecfd5cb2f)" style="fill: #0000ff"/>
   </g>
   <g id="patch_77">
    <path d="M 166.299687 252 
L 167.611599 252 
L 167.611599 242.308797 
L 166.299687 242.308797 
z
" clip-path="url(#pcecfd5cb2f)" style="fill: #0000ff"/>
   </g>
   <g id="patch_78">
    <path d="M 167.611599 252 
L 168.923511 252 
L 168.923511 239.248417 
L 167.611599 239.248417 
z
" clip-path="url(#pcecfd5cb2f)" style="fill: #0000ff"/>
   </g>
   <g id="patch_79">
    <path d="M 168.923511 252 
L 170.235423 252 
L 170.235423 244.34905 
L 168.923511 244.34905 
z
" clip-path="url(#pcecfd5cb2f)" style="fill: #0000ff"/>
   </g>
   <g id="patch_80">
    <path d="M 170.235423 252 
L 171.547335 252 
L 171.547335 246.899367 
L 170.235423 246.899367 
z
" clip-path="url(#pcecfd5cb2f)" style="fill: #0000ff"/>
   </g>
   <g id="patch_81">
    <path d="M 171.547335 252 
L 172.859248 252 
L 172.859248 240.778607 
L 171.547335 240.778607 
z
" clip-path="url(#pcecfd5cb2f)" style="fill: #0000ff"/>
   </g>
   <g id="patch_82">
    <path d="M 172.859248 252 
L 174.17116 252 
L 174.17116 242.81886 
L 172.859248 242.81886 
z
" clip-path="url(#pcecfd5cb2f)" style="fill: #0000ff"/>
   </g>
   <g id="patch_83">
    <path d="M 174.17116 252 
L 175.483072 252 
L 175.483072 244.34905 
L 174.17116 244.34905 
z
" clip-path="url(#pcecfd5cb2f)" style="fill: #0000ff"/>
   </g>
   <g id="patch_84">
    <path d="M 175.483072 252 
L 176.794984 252 
L 176.794984 243.328923 
L 175.483072 243.328923 
z
" clip-path="url(#pcecfd5cb2f)" style="fill: #0000ff"/>
   </g>
   <g id="patch_85">
    <path d="M 176.794984 252 
L 178.106897 252 
L 178.106897 247.40943 
L 176.794984 247.40943 
z
" clip-path="url(#pcecfd5cb2f)" style="fill: #0000ff"/>
   </g>
   <g id="patch_86">
    <path d="M 178.106897 252 
L 179.418809 252 
L 179.418809 250.46981 
L 178.106897 250.46981 
z
" clip-path="url(#pcecfd5cb2f)" style="fill: #0000ff"/>
   </g>
   <g id="patch_87">
    <path d="M 179.418809 252 
L 180.730721 252 
L 180.730721 246.899367 
L 179.418809 246.899367 
z
" clip-path="url(#pcecfd5cb2f)" style="fill: #0000ff"/>
   </g>
   <g id="patch_88">
    <path d="M 180.730721 252 
L 182.042633 252 
L 182.042633 245.87924 
L 180.730721 245.87924 
z
" clip-path="url(#pcecfd5cb2f)" style="fill: #0000ff"/>
   </g>
   <g id="patch_89">
    <path d="M 182.042633 252 
L 183.354545 252 
L 183.354545 247.40943 
L 182.042633 247.40943 
z
" clip-path="url(#pcecfd5cb2f)" style="fill: #0000ff"/>
   </g>
   <g id="patch_90">
    <path d="M 183.354545 252 
L 184.666458 252 
L 184.666458 249.449683 
L 183.354545 249.449683 
z
" clip-path="url(#pcecfd5cb2f)" style="fill: #0000ff"/>
   </g>
   <g id="patch_91">
    <path d="M 184.666458 252 
L 185.97837 252 
L 185.97837 246.899367 
L 184.666458 246.899367 
z
" clip-path="url(#pcecfd5cb2f)" style="fill: #0000ff"/>
   </g>
   <g id="patch_92">
    <path d="M 185.97837 252 
L 187.290282 252 
L 187.290282 248.93962 
L 185.97837 248.93962 
z
" clip-path="url(#pcecfd5cb2f)" style="fill: #0000ff"/>
   </g>
   <g id="patch_93">
    <path d="M 187.290282 252 
L 188.602194 252 
L 188.602194 248.93962 
L 187.290282 248.93962 
z
" clip-path="url(#pcecfd5cb2f)" style="fill: #0000ff"/>
   </g>
   <g id="patch_94">
    <path d="M 188.602194 252 
L 189.914107 252 
L 189.914107 246.389303 
L 188.602194 246.389303 
z
" clip-path="url(#pcecfd5cb2f)" style="fill: #0000ff"/>
   </g>
   <g id="patch_95">
    <path d="M 189.914107 252 
L 191.226019 252 
L 191.226019 249.959747 
L 189.914107 249.959747 
z
" clip-path="url(#pcecfd5cb2f)" style="fill: #0000ff"/>
   </g>
   <g id="patch_96">
    <path d="M 191.226019 252 
L 192.537931 252 
L 192.537931 248.93962 
L 191.226019 248.93962 
z
" clip-path="url(#pcecfd5cb2f)" style="fill: #0000ff"/>
   </g>
   <g id="patch_97">
    <path d="M 192.537931 252 
L 193.849843 252 
L 193.849843 249.449683 
L 192.537931 249.449683 
z
" clip-path="url(#pcecfd5cb2f)" style="fill: #0000ff"/>
   </g>
   <g id="patch_98">
    <path d="M 193.849843 252 
L 195.161755 252 
L 195.161755 247.919493 
L 193.849843 247.919493 
z
" clip-path="url(#pcecfd5cb2f)" style="fill: #0000ff"/>
   </g>
   <g id="patch_99">
    <path d="M 195.161755 252 
L 196.473668 252 
L 196.473668 248.429557 
L 195.161755 248.429557 
z
" clip-path="url(#pcecfd5cb2f)" style="fill: #0000ff"/>
   </g>
   <g id="patch_100">
    <path d="M 196.473668 252 
L 197.78558 252 
L 197.78558 248.93962 
L 196.473668 248.93962 
z
" clip-path="url(#pcecfd5cb2f)" style="fill: #0000ff"/>
   </g>
   <g id="patch_101">
    <path d="M 197.78558 252 
L 199.097492 252 
L 199.097492 248.429557 
L 197.78558 248.429557 
z
" clip-path="url(#pcecfd5cb2f)" style="fill: #0000ff"/>
   </g>
   <g id="patch_102">
    <path d="M 199.097492 252 
L 200.409404 252 
L 200.409404 249.959747 
L 199.097492 249.959747 
z
" clip-path="url(#pcecfd5cb2f)" style="fill: #0000ff"/>
   </g>
   <g id="patch_103">
    <path d="M 200.409404 252 
L 201.721317 252 
L 201.721317 250.979873 
L 200.409404 250.979873 
z
" clip-path="url(#pcecfd5cb2f)" style="fill: #0000ff"/>
   </g>
   <g id="patch_104">
    <path d="M 201.721317 252 
L 203.033229 252 
L 203.033229 247.919493 
L 201.721317 247.919493 
z
" clip-path="url(#pcecfd5cb2f)" style="fill: #0000ff"/>
   </g>
   <g id="patch_105">
    <path d="M 203.033229 252 
L 204.345141 252 
L 204.345141 248.93962 
L 203.033229 248.93962 
z
" clip-path="url(#pcecfd5cb2f)" style="fill: #0000ff"/>
   </g>
   <g id="patch_106">
    <path d="M 204.345141 252 
L 205.657053 252 
L 205.657053 251.489937 
L 204.345141 251.489937 
z
" clip-path="url(#pcecfd5cb2f)" style="fill: #0000ff"/>
   </g>
   <g id="patch_107">
    <path d="M 205.657053 252 
L 206.968966 252 
L 206.968966 249.449683 
L 205.657053 249.449683 
z
" clip-path="url(#pcecfd5cb2f)" style="fill: #0000ff"/>
   </g>
   <g id="patch_108">
    <path d="M 206.968966 252 
L 208.280878 252 
L 208.280878 248.93962 
L 206.968966 248.93962 
z
" clip-path="url(#pcecfd5cb2f)" style="fill: #0000ff"/>
   </g>
   <g id="patch_109">
    <path d="M 208.280878 252 
L 209.59279 252 
L 209.59279 250.979873 
L 208.280878 250.979873 
z
" clip-path="url(#pcecfd5cb2f)" style="fill: #0000ff"/>
   </g>
   <g id="patch_110">
    <path d="M 209.59279 252 
L 210.904702 252 
L 210.904702 251.489937 
L 209.59279 251.489937 
z
" clip-path="url(#pcecfd5cb2f)" style="fill: #0000ff"/>
   </g>
   <g id="patch_111">
    <path d="M 210.904702 252 
L 212.216614 252 
L 212.216614 247.40943 
L 210.904702 247.40943 
z
" clip-path="url(#pcecfd5cb2f)" style="fill: #0000ff"/>
   </g>
   <g id="patch_112">
    <path d="M 212.216614 252 
L 213.528527 252 
L 213.528527 249.959747 
L 212.216614 249.959747 
z
" clip-path="url(#pcecfd5cb2f)" style="fill: #0000ff"/>
   </g>
   <g id="patch_113">
    <path d="M 213.528527 252 
L 214.840439 252 
L 214.840439 252 
L 213.528527 252 
z
" clip-path="url(#pcecfd5cb2f)" style="fill: #0000ff"/>
   </g>
   <g id="patch_114">
    <path d="M 214.840439 252 
L 216.152351 252 
L 216.152351 249.959747 
L 214.840439 249.959747 
z
" clip-path="url(#pcecfd5cb2f)" style="fill: #0000ff"/>
   </g>
   <g id="patch_115">
    <path d="M 216.152351 252 
L 217.464263 252 
L 217.464263 251.489937 
L 216.152351 251.489937 
z
" clip-path="url(#pcecfd5cb2f)" style="fill: #0000ff"/>
   </g>
   <g id="patch_116">
    <path d="M 217.464263 252 
L 218.776176 252 
L 218.776176 249.959747 
L 217.464263 249.959747 
z
" clip-path="url(#pcecfd5cb2f)" style="fill: #0000ff"/>
   </g>
   <g id="patch_117">
    <path d="M 218.776176 252 
L 220.088088 252 
L 220.088088 249.959747 
L 218.776176 249.959747 
z
" clip-path="url(#pcecfd5cb2f)" style="fill: #0000ff"/>
   </g>
   <g id="patch_118">
    <path d="M 220.088088 252 
L 221.4 252 
L 221.4 251.489937 
L 220.088088 251.489937 
z
" clip-path="url(#pcecfd5cb2f)" style="fill: #0000ff"/>
   </g>
   <g id="patch_119">
    <path d="M 221.4 252 
L 222.711912 252 
L 222.711912 250.979873 
L 221.4 250.979873 
z
" clip-path="url(#pcecfd5cb2f)" style="fill: #0000ff"/>
   </g>
   <g id="patch_120">
    <path d="M 222.711912 252 
L 224.023824 252 
L 224.023824 250.979873 
L 222.711912 250.979873 
z
" clip-path="url(#pcecfd5cb2f)" style="fill: #0000ff"/>
   </g>
   <g id="patch_121">
    <path d="M 224.023824 252 
L 225.335737 252 
L 225.335737 252 
L 224.023824 252 
z
" clip-path="url(#pcecfd5cb2f)" style="fill: #0000ff"/>
   </g>
   <g id="patch_122">
    <path d="M 225.335737 252 
L 226.647649 252 
L 226.647649 251.489937 
L 225.335737 251.489937 
z
" clip-path="url(#pcecfd5cb2f)" style="fill: #0000ff"/>
   </g>
   <g id="patch_123">
    <path d="M 226.647649 252 
L 227.959561 252 
L 227.959561 252 
L 226.647649 252 
z
" clip-path="url(#pcecfd5cb2f)" style="fill: #0000ff"/>
   </g>
   <g id="patch_124">
    <path d="M 227.959561 252 
L 229.271473 252 
L 229.271473 252 
L 227.959561 252 
z
" clip-path="url(#pcecfd5cb2f)" style="fill: #0000ff"/>
   </g>
   <g id="patch_125">
    <path d="M 229.271473 252 
L 230.583386 252 
L 230.583386 250.979873 
L 229.271473 250.979873 
z
" clip-path="url(#pcecfd5cb2f)" style="fill: #0000ff"/>
   </g>
   <g id="patch_126">
    <path d="M 230.583386 252 
L 231.895298 252 
L 231.895298 250.46981 
L 230.583386 250.46981 
z
" clip-path="url(#pcecfd5cb2f)" style="fill: #0000ff"/>
   </g>
   <g id="patch_127">
    <path d="M 231.895298 252 
L 233.20721 252 
L 233.20721 252 
L 231.895298 252 
z
" clip-path="url(#pcecfd5cb2f)" style="fill: #0000ff"/>
   </g>
   <g id="patch_128">
    <path d="M 233.20721 252 
L 234.519122 252 
L 234.519122 250.979873 
L 233.20721 250.979873 
z
" clip-path="url(#pcecfd5cb2f)" style="fill: #0000ff"/>
   </g>
   <g id="patch_129">
    <path d="M 234.519122 252 
L 235.831034 252 
L 235.831034 251.489937 
L 234.519122 251.489937 
z
" clip-path="url(#pcecfd5cb2f)" style="fill: #0000ff"/>
   </g>
   <g id="patch_130">
    <path d="M 235.831034 252 
L 237.142947 252 
L 237.142947 251.489937 
L 235.831034 251.489937 
z
" clip-path="url(#pcecfd5cb2f)" style="fill: #0000ff"/>
   </g>
   <g id="patch_131">
    <path d="M 237.142947 252 
L 238.454859 252 
L 238.454859 251.489937 
L 237.142947 251.489937 
z
" clip-path="url(#pcecfd5cb2f)" style="fill: #0000ff"/>
   </g>
   <g id="patch_132">
    <path d="M 238.454859 252 
L 239.766771 252 
L 239.766771 251.489937 
L 238.454859 251.489937 
z
" clip-path="url(#pcecfd5cb2f)" style="fill: #0000ff"/>
   </g>
   <g id="patch_133">
    <path d="M 239.766771 252 
L 241.078683 252 
L 241.078683 251.489937 
L 239.766771 251.489937 
z
" clip-path="url(#pcecfd5cb2f)" style="fill: #0000ff"/>
   </g>
   <g id="patch_134">
    <path d="M 241.078683 252 
L 242.390596 252 
L 242.390596 251.489937 
L 241.078683 251.489937 
z
" clip-path="url(#pcecfd5cb2f)" style="fill: #0000ff"/>
   </g>
   <g id="patch_135">
    <path d="M 242.390596 252 
L 243.702508 252 
L 243.702508 250.979873 
L 242.390596 250.979873 
z
" clip-path="url(#pcecfd5cb2f)" style="fill: #0000ff"/>
   </g>
   <g id="patch_136">
    <path d="M 243.702508 252 
L 245.01442 252 
L 245.01442 251.489937 
L 243.702508 251.489937 
z
" clip-path="url(#pcecfd5cb2f)" style="fill: #0000ff"/>
   </g>
   <g id="patch_137">
    <path d="M 245.01442 252 
L 246.326332 252 
L 246.326332 252 
L 245.01442 252 
z
" clip-path="url(#pcecfd5cb2f)" style="fill: #0000ff"/>
   </g>
   <g id="patch_138">
    <path d="M 246.326332 252 
L 247.638245 252 
L 247.638245 252 
L 246.326332 252 
z
" clip-path="url(#pcecfd5cb2f)" style="fill: #0000ff"/>
   </g>
   <g id="patch_139">
    <path d="M 247.638245 252 
L 248.950157 252 
L 248.950157 250.979873 
L 247.638245 250.979873 
z
" clip-path="url(#pcecfd5cb2f)" style="fill: #0000ff"/>
   </g>
   <g id="patch_140">
    <path d="M 248.950157 252 
L 250.262069 252 
L 250.262069 251.489937 
L 248.950157 251.489937 
z
" clip-path="url(#pcecfd5cb2f)" style="fill: #0000ff"/>
   </g>
   <g id="patch_141">
    <path d="M 250.262069 252 
L 251.573981 252 
L 251.573981 249.959747 
L 250.262069 249.959747 
z
" clip-path="url(#pcecfd5cb2f)" style="fill: #0000ff"/>
   </g>
   <g id="patch_142">
    <path d="M 251.573981 252 
L 252.885893 252 
L 252.885893 252 
L 251.573981 252 
z
" clip-path="url(#pcecfd5cb2f)" style="fill: #0000ff"/>
   </g>
   <g id="patch_143">
    <path d="M 252.885893 252 
L 254.197806 252 
L 254.197806 251.489937 
L 252.885893 251.489937 
z
" clip-path="url(#pcecfd5cb2f)" style="fill: #0000ff"/>
   </g>
   <g id="patch_144">
    <path d="M 254.197806 252 
L 255.509718 252 
L 255.509718 252 
L 254.197806 252 
z
" clip-path="url(#pcecfd5cb2f)" style="fill: #0000ff"/>
   </g>
   <g id="patch_145">
    <path d="M 255.509718 252 
L 256.82163 252 
L 256.82163 252 
L 255.509718 252 
z
" clip-path="url(#pcecfd5cb2f)" style="fill: #0000ff"/>
   </g>
   <g id="patch_146">
    <path d="M 256.82163 252 
L 258.133542 252 
L 258.133542 252 
L 256.82163 252 
z
" clip-path="url(#pcecfd5cb2f)" style="fill: #0000ff"/>
   </g>
   <g id="patch_147">
    <path d="M 258.133542 252 
L 259.445455 252 
L 259.445455 251.489937 
L 258.133542 251.489937 
z
" clip-path="url(#pcecfd5cb2f)" style="fill: #0000ff"/>
   </g>
   <g id="patch_148">
    <path d="M 259.445455 252 
L 260.757367 252 
L 260.757367 252 
L 259.445455 252 
z
" clip-path="url(#pcecfd5cb2f)" style="fill: #0000ff"/>
   </g>
   <g id="patch_149">
    <path d="M 260.757367 252 
L 262.069279 252 
L 262.069279 252 
L 260.757367 252 
z
" clip-path="url(#pcecfd5cb2f)" style="fill: #0000ff"/>
   </g>
   <g id="patch_150">
    <path d="M 262.069279 252 
L 263.381191 252 
L 263.381191 252 
L 262.069279 252 
z
" clip-path="url(#pcecfd5cb2f)" style="fill: #0000ff"/>
   </g>
   <g id="patch_151">
    <path d="M 263.381191 252 
L 264.693103 252 
L 264.693103 251.489937 
L 263.381191 251.489937 
z
" clip-path="url(#pcecfd5cb2f)" style="fill: #0000ff"/>
   </g>
   <g id="patch_152">
    <path d="M 264.693103 252 
L 266.005016 252 
L 266.005016 252 
L 264.693103 252 
z
" clip-path="url(#pcecfd5cb2f)" style="fill: #0000ff"/>
   </g>
   <g id="patch_153">
    <path d="M 266.005016 252 
L 267.316928 252 
L 267.316928 252 
L 266.005016 252 
z
" clip-path="url(#pcecfd5cb2f)" style="fill: #0000ff"/>
   </g>
   <g id="patch_154">
    <path d="M 267.316928 252 
L 268.62884 252 
L 268.62884 251.489937 
L 267.316928 251.489937 
z
" clip-path="url(#pcecfd5cb2f)" style="fill: #0000ff"/>
   </g>
   <g id="patch_155">
    <path d="M 268.62884 252 
L 269.940752 252 
L 269.940752 252 
L 268.62884 252 
z
" clip-path="url(#pcecfd5cb2f)" style="fill: #0000ff"/>
   </g>
   <g id="patch_156">
    <path d="M 269.940752 252 
L 271.252665 252 
L 271.252665 252 
L 269.940752 252 
z
" clip-path="url(#pcecfd5cb2f)" style="fill: #0000ff"/>
   </g>
   <g id="patch_157">
    <path d="M 271.252665 252 
L 272.564577 252 
L 272.564577 252 
L 271.252665 252 
z
" clip-path="url(#pcecfd5cb2f)" style="fill: #0000ff"/>
   </g>
   <g id="patch_158">
    <path d="M 272.564577 252 
L 273.876489 252 
L 273.876489 252 
L 272.564577 252 
z
" clip-path="url(#pcecfd5cb2f)" style="fill: #0000ff"/>
   </g>
   <g id="patch_159">
    <path d="M 273.876489 252 
L 275.188401 252 
L 275.188401 251.489937 
L 273.876489 251.489937 
z
" clip-path="url(#pcecfd5cb2f)" style="fill: #0000ff"/>
   </g>
   <g id="patch_160">
    <path d="M 275.188401 252 
L 276.500313 252 
L 276.500313 252 
L 275.188401 252 
z
" clip-path="url(#pcecfd5cb2f)" style="fill: #0000ff"/>
   </g>
   <g id="patch_161">
    <path d="M 276.500313 252 
L 277.812226 252 
L 277.812226 252 
L 276.500313 252 
z
" clip-path="url(#pcecfd5cb2f)" style="fill: #0000ff"/>
   </g>
   <g id="patch_162">
    <path d="M 277.812226 252 
L 279.124138 252 
L 279.124138 252 
L 277.812226 252 
z
" clip-path="url(#pcecfd5cb2f)" style="fill: #0000ff"/>
   </g>
   <g id="patch_163">
    <path d="M 279.124138 252 
L 280.43605 252 
L 280.43605 252 
L 279.124138 252 
z
" clip-path="url(#pcecfd5cb2f)" style="fill: #0000ff"/>
   </g>
   <g id="patch_164">
    <path d="M 280.43605 252 
L 281.747962 252 
L 281.747962 252 
L 280.43605 252 
z
" clip-path="url(#pcecfd5cb2f)" style="fill: #0000ff"/>
   </g>
   <g id="patch_165">
    <path d="M 281.747962 252 
L 283.059875 252 
L 283.059875 251.489937 
L 281.747962 251.489937 
z
" clip-path="url(#pcecfd5cb2f)" style="fill: #0000ff"/>
   </g>
   <g id="patch_166">
    <path d="M 283.059875 252 
L 284.371787 252 
L 284.371787 252 
L 283.059875 252 
z
" clip-path="url(#pcecfd5cb2f)" style="fill: #0000ff"/>
   </g>
   <g id="patch_167">
    <path d="M 284.371787 252 
L 285.683699 252 
L 285.683699 252 
L 284.371787 252 
z
" clip-path="url(#pcecfd5cb2f)" style="fill: #0000ff"/>
   </g>
   <g id="patch_168">
    <path d="M 285.683699 252 
L 286.995611 252 
L 286.995611 252 
L 285.683699 252 
z
" clip-path="url(#pcecfd5cb2f)" style="fill: #0000ff"/>
   </g>
   <g id="patch_169">
    <path d="M 286.995611 252 
L 288.307524 252 
L 288.307524 251.489937 
L 286.995611 251.489937 
z
" clip-path="url(#pcecfd5cb2f)" style="fill: #0000ff"/>
   </g>
   <g id="patch_170">
    <path d="M 288.307524 252 
L 289.619436 252 
L 289.619436 252 
L 288.307524 252 
z
" clip-path="url(#pcecfd5cb2f)" style="fill: #0000ff"/>
   </g>
   <g id="patch_171">
    <path d="M 289.619436 252 
L 290.931348 252 
L 290.931348 252 
L 289.619436 252 
z
" clip-path="url(#pcecfd5cb2f)" style="fill: #0000ff"/>
   </g>
   <g id="patch_172">
    <path d="M 290.931348 252 
L 292.24326 252 
L 292.24326 252 
L 290.931348 252 
z
" clip-path="url(#pcecfd5cb2f)" style="fill: #0000ff"/>
   </g>
   <g id="patch_173">
    <path d="M 292.24326 252 
L 293.555172 252 
L 293.555172 252 
L 292.24326 252 
z
" clip-path="url(#pcecfd5cb2f)" style="fill: #0000ff"/>
   </g>
   <g id="patch_174">
    <path d="M 293.555172 252 
L 294.867085 252 
L 294.867085 252 
L 293.555172 252 
z
" clip-path="url(#pcecfd5cb2f)" style="fill: #0000ff"/>
   </g>
   <g id="patch_175">
    <path d="M 294.867085 252 
L 296.178997 252 
L 296.178997 252 
L 294.867085 252 
z
" clip-path="url(#pcecfd5cb2f)" style="fill: #0000ff"/>
   </g>
   <g id="patch_176">
    <path d="M 296.178997 252 
L 297.490909 252 
L 297.490909 251.489937 
L 296.178997 251.489937 
z
" clip-path="url(#pcecfd5cb2f)" style="fill: #0000ff"/>
   </g>
   <g id="patch_177">
    <path d="M 297.490909 252 
L 298.802821 252 
L 298.802821 251.489937 
L 297.490909 251.489937 
z
" clip-path="url(#pcecfd5cb2f)" style="fill: #0000ff"/>
   </g>
   <g id="patch_178">
    <path d="M 298.802821 252 
L 300.114734 252 
L 300.114734 252 
L 298.802821 252 
z
" clip-path="url(#pcecfd5cb2f)" style="fill: #0000ff"/>
   </g>
   <g id="patch_179">
    <path d="M 300.114734 252 
L 301.426646 252 
L 301.426646 252 
L 300.114734 252 
z
" clip-path="url(#pcecfd5cb2f)" style="fill: #0000ff"/>
   </g>
   <g id="patch_180">
    <path d="M 301.426646 252 
L 302.738558 252 
L 302.738558 252 
L 301.426646 252 
z
" clip-path="url(#pcecfd5cb2f)" style="fill: #0000ff"/>
   </g>
   <g id="patch_181">
    <path d="M 302.738558 252 
L 304.05047 252 
L 304.05047 252 
L 302.738558 252 
z
" clip-path="url(#pcecfd5cb2f)" style="fill: #0000ff"/>
   </g>
   <g id="patch_182">
    <path d="M 304.05047 252 
L 305.362382 252 
L 305.362382 252 
L 304.05047 252 
z
" clip-path="url(#pcecfd5cb2f)" style="fill: #0000ff"/>
   </g>
   <g id="patch_183">
    <path d="M 305.362382 252 
L 306.674295 252 
L 306.674295 252 
L 305.362382 252 
z
" clip-path="url(#pcecfd5cb2f)" style="fill: #0000ff"/>
   </g>
   <g id="patch_184">
    <path d="M 306.674295 252 
L 307.986207 252 
L 307.986207 252 
L 306.674295 252 
z
" clip-path="url(#pcecfd5cb2f)" style="fill: #0000ff"/>
   </g>
   <g id="patch_185">
    <path d="M 307.986207 252 
L 309.298119 252 
L 309.298119 252 
L 307.986207 252 
z
" clip-path="url(#pcecfd5cb2f)" style="fill: #0000ff"/>
   </g>
   <g id="patch_186">
    <path d="M 309.298119 252 
L 310.610031 252 
L 310.610031 252 
L 309.298119 252 
z
" clip-path="url(#pcecfd5cb2f)" style="fill: #0000ff"/>
   </g>
   <g id="patch_187">
    <path d="M 310.610031 252 
L 311.921944 252 
L 311.921944 252 
L 310.610031 252 
z
" clip-path="url(#pcecfd5cb2f)" style="fill: #0000ff"/>
   </g>
   <g id="patch_188">
    <path d="M 311.921944 252 
L 313.233856 252 
L 313.233856 252 
L 311.921944 252 
z
" clip-path="url(#pcecfd5cb2f)" style="fill: #0000ff"/>
   </g>
   <g id="patch_189">
    <path d="M 313.233856 252 
L 314.545768 252 
L 314.545768 252 
L 313.233856 252 
z
" clip-path="url(#pcecfd5cb2f)" style="fill: #0000ff"/>
   </g>
   <g id="patch_190">
    <path d="M 314.545768 252 
L 315.85768 252 
L 315.85768 252 
L 314.545768 252 
z
" clip-path="url(#pcecfd5cb2f)" style="fill: #0000ff"/>
   </g>
   <g id="patch_191">
    <path d="M 315.85768 252 
L 317.169592 252 
L 317.169592 252 
L 315.85768 252 
z
" clip-path="url(#pcecfd5cb2f)" style="fill: #0000ff"/>
   </g>
   <g id="patch_192">
    <path d="M 317.169592 252 
L 318.481505 252 
L 318.481505 252 
L 317.169592 252 
z
" clip-path="url(#pcecfd5cb2f)" style="fill: #0000ff"/>
   </g>
   <g id="patch_193">
    <path d="M 318.481505 252 
L 319.793417 252 
L 319.793417 252 
L 318.481505 252 
z
" clip-path="url(#pcecfd5cb2f)" style="fill: #0000ff"/>
   </g>
   <g id="patch_194">
    <path d="M 319.793417 252 
L 321.105329 252 
L 321.105329 252 
L 319.793417 252 
z
" clip-path="url(#pcecfd5cb2f)" style="fill: #0000ff"/>
   </g>
   <g id="patch_195">
    <path d="M 321.105329 252 
L 322.417241 252 
L 322.417241 252 
L 321.105329 252 
z
" clip-path="url(#pcecfd5cb2f)" style="fill: #0000ff"/>
   </g>
   <g id="patch_196">
    <path d="M 322.417241 252 
L 323.729154 252 
L 323.729154 252 
L 322.417241 252 
z
" clip-path="url(#pcecfd5cb2f)" style="fill: #0000ff"/>
   </g>
   <g id="patch_197">
    <path d="M 323.729154 252 
L 325.041066 252 
L 325.041066 251.489937 
L 323.729154 251.489937 
z
" clip-path="url(#pcecfd5cb2f)" style="fill: #0000ff"/>
   </g>
   <g id="patch_198">
    <path d="M 325.041066 252 
L 326.352978 252 
L 326.352978 252 
L 325.041066 252 
z
" clip-path="url(#pcecfd5cb2f)" style="fill: #0000ff"/>
   </g>
   <g id="patch_199">
    <path d="M 326.352978 252 
L 327.66489 252 
L 327.66489 252 
L 326.352978 252 
z
" clip-path="url(#pcecfd5cb2f)" style="fill: #0000ff"/>
   </g>
   <g id="patch_200">
    <path d="M 327.66489 252 
L 328.976803 252 
L 328.976803 252 
L 327.66489 252 
z
" clip-path="url(#pcecfd5cb2f)" style="fill: #0000ff"/>
   </g>
   <g id="patch_201">
    <path d="M 328.976803 252 
L 330.288715 252 
L 330.288715 252 
L 328.976803 252 
z
" clip-path="url(#pcecfd5cb2f)" style="fill: #0000ff"/>
   </g>
   <g id="patch_202">
    <path d="M 330.288715 252 
L 331.600627 252 
L 331.600627 252 
L 330.288715 252 
z
" clip-path="url(#pcecfd5cb2f)" style="fill: #0000ff"/>
   </g>
   <g id="patch_203">
    <path d="M 331.600627 252 
L 332.912539 252 
L 332.912539 252 
L 331.600627 252 
z
" clip-path="url(#pcecfd5cb2f)" style="fill: #0000ff"/>
   </g>
   <g id="patch_204">
    <path d="M 332.912539 252 
L 334.224451 252 
L 334.224451 252 
L 332.912539 252 
z
" clip-path="url(#pcecfd5cb2f)" style="fill: #0000ff"/>
   </g>
   <g id="patch_205">
    <path d="M 334.224451 252 
L 335.536364 252 
L 335.536364 252 
L 334.224451 252 
z
" clip-path="url(#pcecfd5cb2f)" style="fill: #0000ff"/>
   </g>
   <g id="patch_206">
    <path d="M 335.536364 252 
L 336.848276 252 
L 336.848276 252 
L 335.536364 252 
z
" clip-path="url(#pcecfd5cb2f)" style="fill: #0000ff"/>
   </g>
   <g id="patch_207">
    <path d="M 336.848276 252 
L 338.160188 252 
L 338.160188 252 
L 336.848276 252 
z
" clip-path="url(#pcecfd5cb2f)" style="fill: #0000ff"/>
   </g>
   <g id="patch_208">
    <path d="M 338.160188 252 
L 339.4721 252 
L 339.4721 252 
L 338.160188 252 
z
" clip-path="url(#pcecfd5cb2f)" style="fill: #0000ff"/>
   </g>
   <g id="patch_209">
    <path d="M 339.4721 252 
L 340.784013 252 
L 340.784013 252 
L 339.4721 252 
z
" clip-path="url(#pcecfd5cb2f)" style="fill: #0000ff"/>
   </g>
   <g id="patch_210">
    <path d="M 340.784013 252 
L 342.095925 252 
L 342.095925 252 
L 340.784013 252 
z
" clip-path="url(#pcecfd5cb2f)" style="fill: #0000ff"/>
   </g>
   <g id="patch_211">
    <path d="M 342.095925 252 
L 343.407837 252 
L 343.407837 252 
L 342.095925 252 
z
" clip-path="url(#pcecfd5cb2f)" style="fill: #0000ff"/>
   </g>
   <g id="patch_212">
    <path d="M 343.407837 252 
L 344.719749 252 
L 344.719749 252 
L 343.407837 252 
z
" clip-path="url(#pcecfd5cb2f)" style="fill: #0000ff"/>
   </g>
   <g id="patch_213">
    <path d="M 344.719749 252 
L 346.031661 252 
L 346.031661 252 
L 344.719749 252 
z
" clip-path="url(#pcecfd5cb2f)" style="fill: #0000ff"/>
   </g>
   <g id="patch_214">
    <path d="M 346.031661 252 
L 347.343574 252 
L 347.343574 252 
L 346.031661 252 
z
" clip-path="url(#pcecfd5cb2f)" style="fill: #0000ff"/>
   </g>
   <g id="patch_215">
    <path d="M 347.343574 252 
L 348.655486 252 
L 348.655486 252 
L 347.343574 252 
z
" clip-path="url(#pcecfd5cb2f)" style="fill: #0000ff"/>
   </g>
   <g id="patch_216">
    <path d="M 348.655486 252 
L 349.967398 252 
L 349.967398 252 
L 348.655486 252 
z
" clip-path="url(#pcecfd5cb2f)" style="fill: #0000ff"/>
   </g>
   <g id="patch_217">
    <path d="M 349.967398 252 
L 351.27931 252 
L 351.27931 252 
L 349.967398 252 
z
" clip-path="url(#pcecfd5cb2f)" style="fill: #0000ff"/>
   </g>
   <g id="patch_218">
    <path d="M 351.27931 252 
L 352.591223 252 
L 352.591223 252 
L 351.27931 252 
z
" clip-path="url(#pcecfd5cb2f)" style="fill: #0000ff"/>
   </g>
   <g id="patch_219">
    <path d="M 352.591223 252 
L 353.903135 252 
L 353.903135 252 
L 352.591223 252 
z
" clip-path="url(#pcecfd5cb2f)" style="fill: #0000ff"/>
   </g>
   <g id="patch_220">
    <path d="M 353.903135 252 
L 355.215047 252 
L 355.215047 252 
L 353.903135 252 
z
" clip-path="url(#pcecfd5cb2f)" style="fill: #0000ff"/>
   </g>
   <g id="patch_221">
    <path d="M 355.215047 252 
L 356.526959 252 
L 356.526959 252 
L 355.215047 252 
z
" clip-path="url(#pcecfd5cb2f)" style="fill: #0000ff"/>
   </g>
   <g id="patch_222">
    <path d="M 356.526959 252 
L 357.838871 252 
L 357.838871 252 
L 356.526959 252 
z
" clip-path="url(#pcecfd5cb2f)" style="fill: #0000ff"/>
   </g>
   <g id="patch_223">
    <path d="M 357.838871 252 
L 359.150784 252 
L 359.150784 252 
L 357.838871 252 
z
" clip-path="url(#pcecfd5cb2f)" style="fill: #0000ff"/>
   </g>
   <g id="patch_224">
    <path d="M 359.150784 252 
L 360.462696 252 
L 360.462696 252 
L 359.150784 252 
z
" clip-path="url(#pcecfd5cb2f)" style="fill: #0000ff"/>
   </g>
   <g id="patch_225">
    <path d="M 360.462696 252 
L 361.774608 252 
L 361.774608 252 
L 360.462696 252 
z
" clip-path="url(#pcecfd5cb2f)" style="fill: #0000ff"/>
   </g>
   <g id="patch_226">
    <path d="M 361.774608 252 
L 363.08652 252 
L 363.08652 252 
L 361.774608 252 
z
" clip-path="url(#pcecfd5cb2f)" style="fill: #0000ff"/>
   </g>
   <g id="patch_227">
    <path d="M 363.08652 252 
L 364.398433 252 
L 364.398433 252 
L 363.08652 252 
z
" clip-path="url(#pcecfd5cb2f)" style="fill: #0000ff"/>
   </g>
   <g id="patch_228">
    <path d="M 364.398433 252 
L 365.710345 252 
L 365.710345 252 
L 364.398433 252 
z
" clip-path="url(#pcecfd5cb2f)" style="fill: #0000ff"/>
   </g>
   <g id="patch_229">
    <path d="M 365.710345 252 
L 367.022257 252 
L 367.022257 252 
L 365.710345 252 
z
" clip-path="url(#pcecfd5cb2f)" style="fill: #0000ff"/>
   </g>
   <g id="patch_230">
    <path d="M 367.022257 252 
L 368.334169 252 
L 368.334169 252 
L 367.022257 252 
z
" clip-path="url(#pcecfd5cb2f)" style="fill: #0000ff"/>
   </g>
   <g id="patch_231">
    <path d="M 368.334169 252 
L 369.646082 252 
L 369.646082 252 
L 368.334169 252 
z
" clip-path="url(#pcecfd5cb2f)" style="fill: #0000ff"/>
   </g>
   <g id="patch_232">
    <path d="M 369.646082 252 
L 370.957994 252 
L 370.957994 252 
L 369.646082 252 
z
" clip-path="url(#pcecfd5cb2f)" style="fill: #0000ff"/>
   </g>
   <g id="patch_233">
    <path d="M 370.957994 252 
L 372.269906 252 
L 372.269906 252 
L 370.957994 252 
z
" clip-path="url(#pcecfd5cb2f)" style="fill: #0000ff"/>
   </g>
   <g id="patch_234">
    <path d="M 372.269906 252 
L 373.581818 252 
L 373.581818 251.489937 
L 372.269906 251.489937 
z
" clip-path="url(#pcecfd5cb2f)" style="fill: #0000ff"/>
   </g>
   <g id="matplotlib.axis_1">
    <g id="xtick_1">
     <g id="line2d_1">
      <defs>
       <path id="m01e8bebd94" d="M 0 0 
L 0 3.5 
" style="stroke: #000000; stroke-width: 0.8"/>
      </defs>
      <g>
       <use xlink:href="#m01e8bebd94" x="100.704075" y="252" style="stroke: #000000; stroke-width: 0.8"/>
      </g>
     </g>
     <g id="text_1">
      <!-- 50 -->
      <g transform="translate(94.341575 266.598437) scale(0.1 -0.1)">
       <defs>
        <path id="DejaVuSans-35" d="M 691 4666 
L 3169 4666 
L 3169 4134 
L 1269 4134 
L 1269 2991 
Q 1406 3038 1543 3061 
Q 1681 3084 1819 3084 
Q 2600 3084 3056 2656 
Q 3513 2228 3513 1497 
Q 3513 744 3044 326 
Q 2575 -91 1722 -91 
Q 1428 -91 1123 -41 
Q 819 9 494 109 
L 494 744 
Q 775 591 1075 516 
Q 1375 441 1709 441 
Q 2250 441 2565 725 
Q 2881 1009 2881 1497 
Q 2881 1984 2565 2268 
Q 2250 2553 1709 2553 
Q 1456 2553 1204 2497 
Q 953 2441 691 2322 
L 691 4666 
z
" transform="scale(0.015625)"/>
        <path id="DejaVuSans-30" d="M 2034 4250 
Q 1547 4250 1301 3770 
Q 1056 3291 1056 2328 
Q 1056 1369 1301 889 
Q 1547 409 2034 409 
Q 2525 409 2770 889 
Q 3016 1369 3016 2328 
Q 3016 3291 2770 3770 
Q 2525 4250 2034 4250 
z
M 2034 4750 
Q 2819 4750 3233 4129 
Q 3647 3509 3647 2328 
Q 3647 1150 3233 529 
Q 2819 -91 2034 -91 
Q 1250 -91 836 529 
Q 422 1150 422 2328 
Q 422 3509 836 4129 
Q 1250 4750 2034 4750 
z
" transform="scale(0.015625)"/>
       </defs>
       <use xlink:href="#DejaVuSans-35"/>
       <use xlink:href="#DejaVuSans-30" x="63.623047"/>
      </g>
     </g>
    </g>
    <g id="xtick_2">
     <g id="line2d_2">
      <g>
       <use xlink:href="#m01e8bebd94" x="166.299687" y="252" style="stroke: #000000; stroke-width: 0.8"/>
      </g>
     </g>
     <g id="text_2">
      <!-- 100 -->
      <g transform="translate(156.755937 266.598437) scale(0.1 -0.1)">
       <defs>
        <path id="DejaVuSans-31" d="M 794 531 
L 1825 531 
L 1825 4091 
L 703 3866 
L 703 4441 
L 1819 4666 
L 2450 4666 
L 2450 531 
L 3481 531 
L 3481 0 
L 794 0 
L 794 531 
z
" transform="scale(0.015625)"/>
       </defs>
       <use xlink:href="#DejaVuSans-31"/>
       <use xlink:href="#DejaVuSans-30" x="63.623047"/>
       <use xlink:href="#DejaVuSans-30" x="127.246094"/>
      </g>
     </g>
    </g>
    <g id="xtick_3">
     <g id="line2d_3">
      <g>
       <use xlink:href="#m01e8bebd94" x="231.895298" y="252" style="stroke: #000000; stroke-width: 0.8"/>
      </g>
     </g>
     <g id="text_3">
      <!-- 150 -->
      <g transform="translate(222.351548 266.598437) scale(0.1 -0.1)">
       <use xlink:href="#DejaVuSans-31"/>
       <use xlink:href="#DejaVuSans-35" x="63.623047"/>
       <use xlink:href="#DejaVuSans-30" x="127.246094"/>
      </g>
     </g>
    </g>
    <g id="xtick_4">
     <g id="line2d_4">
      <g>
       <use xlink:href="#m01e8bebd94" x="297.490909" y="252" style="stroke: #000000; stroke-width: 0.8"/>
      </g>
     </g>
     <g id="text_4">
      <!-- 200 -->
      <g transform="translate(287.947159 266.598437) scale(0.1 -0.1)">
       <defs>
        <path id="DejaVuSans-32" d="M 1228 531 
L 3431 531 
L 3431 0 
L 469 0 
L 469 531 
Q 828 903 1448 1529 
Q 2069 2156 2228 2338 
Q 2531 2678 2651 2914 
Q 2772 3150 2772 3378 
Q 2772 3750 2511 3984 
Q 2250 4219 1831 4219 
Q 1534 4219 1204 4116 
Q 875 4013 500 3803 
L 500 4441 
Q 881 4594 1212 4672 
Q 1544 4750 1819 4750 
Q 2544 4750 2975 4387 
Q 3406 4025 3406 3419 
Q 3406 3131 3298 2873 
Q 3191 2616 2906 2266 
Q 2828 2175 2409 1742 
Q 1991 1309 1228 531 
z
" transform="scale(0.015625)"/>
       </defs>
       <use xlink:href="#DejaVuSans-32"/>
       <use xlink:href="#DejaVuSans-30" x="63.623047"/>
       <use xlink:href="#DejaVuSans-30" x="127.246094"/>
      </g>
     </g>
    </g>
    <g id="xtick_5">
     <g id="line2d_5">
      <g>
       <use xlink:href="#m01e8bebd94" x="363.08652" y="252" style="stroke: #000000; stroke-width: 0.8"/>
      </g>
     </g>
     <g id="text_5">
      <!-- 250 -->
      <g transform="translate(353.54277 266.598437) scale(0.1 -0.1)">
       <use xlink:href="#DejaVuSans-32"/>
       <use xlink:href="#DejaVuSans-35" x="63.623047"/>
       <use xlink:href="#DejaVuSans-30" x="127.246094"/>
      </g>
     </g>
    </g>
    <g id="text_6">
     <!-- # of photons -->
     <g transform="translate(189.017188 280.276563) scale(0.1 -0.1)">
      <defs>
       <path id="DejaVuSans-23" d="M 3272 2816 
L 2363 2816 
L 2100 1772 
L 3016 1772 
L 3272 2816 
z
M 2803 4594 
L 2478 3297 
L 3391 3297 
L 3719 4594 
L 4219 4594 
L 3897 3297 
L 4872 3297 
L 4872 2816 
L 3775 2816 
L 3519 1772 
L 4513 1772 
L 4513 1294 
L 3397 1294 
L 3072 0 
L 2572 0 
L 2894 1294 
L 1978 1294 
L 1656 0 
L 1153 0 
L 1478 1294 
L 494 1294 
L 494 1772 
L 1594 1772 
L 1856 2816 
L 850 2816 
L 850 3297 
L 1978 3297 
L 2297 4594 
L 2803 4594 
z
" transform="scale(0.015625)"/>
       <path id="DejaVuSans-20" transform="scale(0.015625)"/>
       <path id="DejaVuSans-6f" d="M 1959 3097 
Q 1497 3097 1228 2736 
Q 959 2375 959 1747 
Q 959 1119 1226 758 
Q 1494 397 1959 397 
Q 2419 397 2687 759 
Q 2956 1122 2956 1747 
Q 2956 2369 2687 2733 
Q 2419 3097 1959 3097 
z
M 1959 3584 
Q 2709 3584 3137 3096 
Q 3566 2609 3566 1747 
Q 3566 888 3137 398 
Q 2709 -91 1959 -91 
Q 1206 -91 779 398 
Q 353 888 353 1747 
Q 353 2609 779 3096 
Q 1206 3584 1959 3584 
z
" transform="scale(0.015625)"/>
       <path id="DejaVuSans-66" d="M 2375 4863 
L 2375 4384 
L 1825 4384 
Q 1516 4384 1395 4259 
Q 1275 4134 1275 3809 
L 1275 3500 
L 2222 3500 
L 2222 3053 
L 1275 3053 
L 1275 0 
L 697 0 
L 697 3053 
L 147 3053 
L 147 3500 
L 697 3500 
L 697 3744 
Q 697 4328 969 4595 
Q 1241 4863 1831 4863 
L 2375 4863 
z
" transform="scale(0.015625)"/>
       <path id="DejaVuSans-70" d="M 1159 525 
L 1159 -1331 
L 581 -1331 
L 581 3500 
L 1159 3500 
L 1159 2969 
Q 1341 3281 1617 3432 
Q 1894 3584 2278 3584 
Q 2916 3584 3314 3078 
Q 3713 2572 3713 1747 
Q 3713 922 3314 415 
Q 2916 -91 2278 -91 
Q 1894 -91 1617 61 
Q 1341 213 1159 525 
z
M 3116 1747 
Q 3116 2381 2855 2742 
Q 2594 3103 2138 3103 
Q 1681 3103 1420 2742 
Q 1159 2381 1159 1747 
Q 1159 1113 1420 752 
Q 1681 391 2138 391 
Q 2594 391 2855 752 
Q 3116 1113 3116 1747 
z
" transform="scale(0.015625)"/>
       <path id="DejaVuSans-68" d="M 3513 2113 
L 3513 0 
L 2938 0 
L 2938 2094 
Q 2938 2591 2744 2837 
Q 2550 3084 2163 3084 
Q 1697 3084 1428 2787 
Q 1159 2491 1159 1978 
L 1159 0 
L 581 0 
L 581 4863 
L 1159 4863 
L 1159 2956 
Q 1366 3272 1645 3428 
Q 1925 3584 2291 3584 
Q 2894 3584 3203 3211 
Q 3513 2838 3513 2113 
z
" transform="scale(0.015625)"/>
       <path id="DejaVuSans-74" d="M 1172 4494 
L 1172 3500 
L 2356 3500 
L 2356 3053 
L 1172 3053 
L 1172 1153 
Q 1172 725 1289 603 
Q 1406 481 1766 481 
L 2356 481 
L 2356 0 
L 1766 0 
Q 1100 0 847 248 
Q 594 497 594 1153 
L 594 3053 
L 172 3053 
L 172 3500 
L 594 3500 
L 594 4494 
L 1172 4494 
z
" transform="scale(0.015625)"/>
       <path id="DejaVuSans-6e" d="M 3513 2113 
L 3513 0 
L 2938 0 
L 2938 2094 
Q 2938 2591 2744 2837 
Q 2550 3084 2163 3084 
Q 1697 3084 1428 2787 
Q 1159 2491 1159 1978 
L 1159 0 
L 581 0 
L 581 3500 
L 1159 3500 
L 1159 2956 
Q 1366 3272 1645 3428 
Q 1925 3584 2291 3584 
Q 2894 3584 3203 3211 
Q 3513 2838 3513 2113 
z
" transform="scale(0.015625)"/>
       <path id="DejaVuSans-73" d="M 2834 3397 
L 2834 2853 
Q 2591 2978 2328 3040 
Q 2066 3103 1784 3103 
Q 1356 3103 1142 2972 
Q 928 2841 928 2578 
Q 928 2378 1081 2264 
Q 1234 2150 1697 2047 
L 1894 2003 
Q 2506 1872 2764 1633 
Q 3022 1394 3022 966 
Q 3022 478 2636 193 
Q 2250 -91 1575 -91 
Q 1294 -91 989 -36 
Q 684 19 347 128 
L 347 722 
Q 666 556 975 473 
Q 1284 391 1588 391 
Q 1994 391 2212 530 
Q 2431 669 2431 922 
Q 2431 1156 2273 1281 
Q 2116 1406 1581 1522 
L 1381 1569 
Q 847 1681 609 1914 
Q 372 2147 372 2553 
Q 372 3047 722 3315 
Q 1072 3584 1716 3584 
Q 2034 3584 2315 3537 
Q 2597 3491 2834 3397 
z
" transform="scale(0.015625)"/>
      </defs>
      <use xlink:href="#DejaVuSans-23"/>
      <use xlink:href="#DejaVuSans-20" x="83.789062"/>
      <use xlink:href="#DejaVuSans-6f" x="115.576172"/>
      <use xlink:href="#DejaVuSans-66" x="176.757812"/>
      <use xlink:href="#DejaVuSans-20" x="211.962891"/>
      <use xlink:href="#DejaVuSans-70" x="243.75"/>
      <use xlink:href="#DejaVuSans-68" x="307.226562"/>
      <use xlink:href="#DejaVuSans-6f" x="370.605469"/>
      <use xlink:href="#DejaVuSans-74" x="431.787109"/>
      <use xlink:href="#DejaVuSans-6f" x="470.996094"/>
      <use xlink:href="#DejaVuSans-6e" x="532.177734"/>
      <use xlink:href="#DejaVuSans-73" x="595.556641"/>
     </g>
    </g>
   </g>
   <g id="matplotlib.axis_2">
    <g id="ytick_1">
     <g id="line2d_6">
      <defs>
       <path id="mfb586d99f6" d="M 0 0 
L -3.5 0 
" style="stroke: #000000; stroke-width: 0.8"/>
      </defs>
      <g>
       <use xlink:href="#mfb586d99f6" x="54" y="252" style="stroke: #000000; stroke-width: 0.8"/>
      </g>
     </g>
     <g id="text_7">
      <!-- 0 -->
      <g transform="translate(40.6375 255.799219) scale(0.1 -0.1)">
       <use xlink:href="#DejaVuSans-30"/>
      </g>
     </g>
    </g>
    <g id="ytick_2">
     <g id="line2d_7">
      <g>
       <use xlink:href="#mfb586d99f6" x="54" y="226.496833" style="stroke: #000000; stroke-width: 0.8"/>
      </g>
     </g>
     <g id="text_8">
      <!-- 50 -->
      <g transform="translate(34.275 230.296052) scale(0.1 -0.1)">
       <use xlink:href="#DejaVuSans-35"/>
       <use xlink:href="#DejaVuSans-30" x="63.623047"/>
      </g>
     </g>
    </g>
    <g id="ytick_3">
     <g id="line2d_8">
      <g>
       <use xlink:href="#mfb586d99f6" x="54" y="200.993666" style="stroke: #000000; stroke-width: 0.8"/>
      </g>
     </g>
     <g id="text_9">
      <!-- 100 -->
      <g transform="translate(27.9125 204.792885) scale(0.1 -0.1)">
       <use xlink:href="#DejaVuSans-31"/>
       <use xlink:href="#DejaVuSans-30" x="63.623047"/>
       <use xlink:href="#DejaVuSans-30" x="127.246094"/>
      </g>
     </g>
    </g>
    <g id="ytick_4">
     <g id="line2d_9">
      <g>
       <use xlink:href="#mfb586d99f6" x="54" y="175.4905" style="stroke: #000000; stroke-width: 0.8"/>
      </g>
     </g>
     <g id="text_10">
      <!-- 150 -->
      <g transform="translate(27.9125 179.289718) scale(0.1 -0.1)">
       <use xlink:href="#DejaVuSans-31"/>
       <use xlink:href="#DejaVuSans-35" x="63.623047"/>
       <use xlink:href="#DejaVuSans-30" x="127.246094"/>
      </g>
     </g>
    </g>
    <g id="ytick_5">
     <g id="line2d_10">
      <g>
       <use xlink:href="#mfb586d99f6" x="54" y="149.987333" style="stroke: #000000; stroke-width: 0.8"/>
      </g>
     </g>
     <g id="text_11">
      <!-- 200 -->
      <g transform="translate(27.9125 153.786552) scale(0.1 -0.1)">
       <use xlink:href="#DejaVuSans-32"/>
       <use xlink:href="#DejaVuSans-30" x="63.623047"/>
       <use xlink:href="#DejaVuSans-30" x="127.246094"/>
      </g>
     </g>
    </g>
    <g id="ytick_6">
     <g id="line2d_11">
      <g>
       <use xlink:href="#mfb586d99f6" x="54" y="124.484166" style="stroke: #000000; stroke-width: 0.8"/>
      </g>
     </g>
     <g id="text_12">
      <!-- 250 -->
      <g transform="translate(27.9125 128.283385) scale(0.1 -0.1)">
       <use xlink:href="#DejaVuSans-32"/>
       <use xlink:href="#DejaVuSans-35" x="63.623047"/>
       <use xlink:href="#DejaVuSans-30" x="127.246094"/>
      </g>
     </g>
    </g>
    <g id="ytick_7">
     <g id="line2d_12">
      <g>
       <use xlink:href="#mfb586d99f6" x="54" y="98.980999" style="stroke: #000000; stroke-width: 0.8"/>
      </g>
     </g>
     <g id="text_13">
      <!-- 300 -->
      <g transform="translate(27.9125 102.780218) scale(0.1 -0.1)">
       <defs>
        <path id="DejaVuSans-33" d="M 2597 2516 
Q 3050 2419 3304 2112 
Q 3559 1806 3559 1356 
Q 3559 666 3084 287 
Q 2609 -91 1734 -91 
Q 1441 -91 1130 -33 
Q 819 25 488 141 
L 488 750 
Q 750 597 1062 519 
Q 1375 441 1716 441 
Q 2309 441 2620 675 
Q 2931 909 2931 1356 
Q 2931 1769 2642 2001 
Q 2353 2234 1838 2234 
L 1294 2234 
L 1294 2753 
L 1863 2753 
Q 2328 2753 2575 2939 
Q 2822 3125 2822 3475 
Q 2822 3834 2567 4026 
Q 2313 4219 1838 4219 
Q 1578 4219 1281 4162 
Q 984 4106 628 3988 
L 628 4550 
Q 988 4650 1302 4700 
Q 1616 4750 1894 4750 
Q 2613 4750 3031 4423 
Q 3450 4097 3450 3541 
Q 3450 3153 3228 2886 
Q 3006 2619 2597 2516 
z
" transform="scale(0.015625)"/>
       </defs>
       <use xlink:href="#DejaVuSans-33"/>
       <use xlink:href="#DejaVuSans-30" x="63.623047"/>
       <use xlink:href="#DejaVuSans-30" x="127.246094"/>
      </g>
     </g>
    </g>
    <g id="ytick_8">
     <g id="line2d_13">
      <g>
       <use xlink:href="#mfb586d99f6" x="54" y="73.477833" style="stroke: #000000; stroke-width: 0.8"/>
      </g>
     </g>
     <g id="text_14">
      <!-- 350 -->
      <g transform="translate(27.9125 77.277051) scale(0.1 -0.1)">
       <use xlink:href="#DejaVuSans-33"/>
       <use xlink:href="#DejaVuSans-35" x="63.623047"/>
       <use xlink:href="#DejaVuSans-30" x="127.246094"/>
      </g>
     </g>
    </g>
    <g id="ytick_9">
     <g id="line2d_14">
      <g>
       <use xlink:href="#mfb586d99f6" x="54" y="47.974666" style="stroke: #000000; stroke-width: 0.8"/>
      </g>
     </g>
     <g id="text_15">
      <!-- 400 -->
      <g transform="translate(27.9125 51.773884) scale(0.1 -0.1)">
       <defs>
        <path id="DejaVuSans-34" d="M 2419 4116 
L 825 1625 
L 2419 1625 
L 2419 4116 
z
M 2253 4666 
L 3047 4666 
L 3047 1625 
L 3713 1625 
L 3713 1100 
L 3047 1100 
L 3047 0 
L 2419 0 
L 2419 1100 
L 313 1100 
L 313 1709 
L 2253 4666 
z
" transform="scale(0.015625)"/>
       </defs>
       <use xlink:href="#DejaVuSans-34"/>
       <use xlink:href="#DejaVuSans-30" x="63.623047"/>
       <use xlink:href="#DejaVuSans-30" x="127.246094"/>
      </g>
     </g>
    </g>
    <g id="text_16">
     <!-- # of events -->
     <g transform="translate(21.832812 172.313594) rotate(-90) scale(0.1 -0.1)">
      <defs>
       <path id="DejaVuSans-65" d="M 3597 1894 
L 3597 1613 
L 953 1613 
Q 991 1019 1311 708 
Q 1631 397 2203 397 
Q 2534 397 2845 478 
Q 3156 559 3463 722 
L 3463 178 
Q 3153 47 2828 -22 
Q 2503 -91 2169 -91 
Q 1331 -91 842 396 
Q 353 884 353 1716 
Q 353 2575 817 3079 
Q 1281 3584 2069 3584 
Q 2775 3584 3186 3129 
Q 3597 2675 3597 1894 
z
M 3022 2063 
Q 3016 2534 2758 2815 
Q 2500 3097 2075 3097 
Q 1594 3097 1305 2825 
Q 1016 2553 972 2059 
L 3022 2063 
z
" transform="scale(0.015625)"/>
       <path id="DejaVuSans-76" d="M 191 3500 
L 800 3500 
L 1894 563 
L 2988 3500 
L 3597 3500 
L 2284 0 
L 1503 0 
L 191 3500 
z
" transform="scale(0.015625)"/>
      </defs>
      <use xlink:href="#DejaVuSans-23"/>
      <use xlink:href="#DejaVuSans-20" x="83.789062"/>
      <use xlink:href="#DejaVuSans-6f" x="115.576172"/>
      <use xlink:href="#DejaVuSans-66" x="176.757812"/>
      <use xlink:href="#DejaVuSans-20" x="211.962891"/>
      <use xlink:href="#DejaVuSans-65" x="243.75"/>
      <use xlink:href="#DejaVuSans-76" x="305.273438"/>
      <use xlink:href="#DejaVuSans-65" x="364.453125"/>
      <use xlink:href="#DejaVuSans-6e" x="425.976562"/>
      <use xlink:href="#DejaVuSans-74" x="489.355469"/>
      <use xlink:href="#DejaVuSans-73" x="528.564453"/>
     </g>
    </g>
   </g>
   <g id="patch_235">
    <path d="M 54 252 
L 54 34.56 
" style="fill: none; stroke: #000000; stroke-width: 0.8; stroke-linejoin: miter; stroke-linecap: square"/>
   </g>
   <g id="patch_236">
    <path d="M 388.8 252 
L 388.8 34.56 
" style="fill: none; stroke: #000000; stroke-width: 0.8; stroke-linejoin: miter; stroke-linecap: square"/>
   </g>
   <g id="patch_237">
    <path d="M 54 252 
L 388.8 252 
" style="fill: none; stroke: #000000; stroke-width: 0.8; stroke-linejoin: miter; stroke-linecap: square"/>
   </g>
   <g id="patch_238">
    <path d="M 54 34.56 
L 388.8 34.56 
" style="fill: none; stroke: #000000; stroke-width: 0.8; stroke-linejoin: miter; stroke-linecap: square"/>
   </g>
   <g id="text_17">
    <!-- # of photons, 5GeV mu-; sensor in volume, 2m -->
    <g transform="translate(79.947188 28.56) scale(0.12 -0.12)">
     <defs>
      <path id="DejaVuSans-2c" d="M 750 794 
L 1409 794 
L 1409 256 
L 897 -744 
L 494 -744 
L 750 256 
L 750 794 
z
" transform="scale(0.015625)"/>
      <path id="DejaVuSans-47" d="M 3809 666 
L 3809 1919 
L 2778 1919 
L 2778 2438 
L 4434 2438 
L 4434 434 
Q 4069 175 3628 42 
Q 3188 -91 2688 -91 
Q 1594 -91 976 548 
Q 359 1188 359 2328 
Q 359 3472 976 4111 
Q 1594 4750 2688 4750 
Q 3144 4750 3555 4637 
Q 3966 4525 4313 4306 
L 4313 3634 
Q 3963 3931 3569 4081 
Q 3175 4231 2741 4231 
Q 1884 4231 1454 3753 
Q 1025 3275 1025 2328 
Q 1025 1384 1454 906 
Q 1884 428 2741 428 
Q 3075 428 3337 486 
Q 3600 544 3809 666 
z
" transform="scale(0.015625)"/>
      <path id="DejaVuSans-56" d="M 1831 0 
L 50 4666 
L 709 4666 
L 2188 738 
L 3669 4666 
L 4325 4666 
L 2547 0 
L 1831 0 
z
" transform="scale(0.015625)"/>
      <path id="DejaVuSans-6d" d="M 3328 2828 
Q 3544 3216 3844 3400 
Q 4144 3584 4550 3584 
Q 5097 3584 5394 3201 
Q 5691 2819 5691 2113 
L 5691 0 
L 5113 0 
L 5113 2094 
Q 5113 2597 4934 2840 
Q 4756 3084 4391 3084 
Q 3944 3084 3684 2787 
Q 3425 2491 3425 1978 
L 3425 0 
L 2847 0 
L 2847 2094 
Q 2847 2600 2669 2842 
Q 2491 3084 2119 3084 
Q 1678 3084 1418 2786 
Q 1159 2488 1159 1978 
L 1159 0 
L 581 0 
L 581 3500 
L 1159 3500 
L 1159 2956 
Q 1356 3278 1631 3431 
Q 1906 3584 2284 3584 
Q 2666 3584 2933 3390 
Q 3200 3197 3328 2828 
z
" transform="scale(0.015625)"/>
      <path id="DejaVuSans-75" d="M 544 1381 
L 544 3500 
L 1119 3500 
L 1119 1403 
Q 1119 906 1312 657 
Q 1506 409 1894 409 
Q 2359 409 2629 706 
Q 2900 1003 2900 1516 
L 2900 3500 
L 3475 3500 
L 3475 0 
L 2900 0 
L 2900 538 
Q 2691 219 2414 64 
Q 2138 -91 1772 -91 
Q 1169 -91 856 284 
Q 544 659 544 1381 
z
M 1991 3584 
L 1991 3584 
z
" transform="scale(0.015625)"/>
      <path id="DejaVuSans-2d" d="M 313 2009 
L 1997 2009 
L 1997 1497 
L 313 1497 
L 313 2009 
z
" transform="scale(0.015625)"/>
      <path id="DejaVuSans-3b" d="M 750 3309 
L 1409 3309 
L 1409 2516 
L 750 2516 
L 750 3309 
z
M 750 794 
L 1409 794 
L 1409 256 
L 897 -744 
L 494 -744 
L 750 256 
L 750 794 
z
" transform="scale(0.015625)"/>
      <path id="DejaVuSans-72" d="M 2631 2963 
Q 2534 3019 2420 3045 
Q 2306 3072 2169 3072 
Q 1681 3072 1420 2755 
Q 1159 2438 1159 1844 
L 1159 0 
L 581 0 
L 581 3500 
L 1159 3500 
L 1159 2956 
Q 1341 3275 1631 3429 
Q 1922 3584 2338 3584 
Q 2397 3584 2469 3576 
Q 2541 3569 2628 3553 
L 2631 2963 
z
" transform="scale(0.015625)"/>
      <path id="DejaVuSans-69" d="M 603 3500 
L 1178 3500 
L 1178 0 
L 603 0 
L 603 3500 
z
M 603 4863 
L 1178 4863 
L 1178 4134 
L 603 4134 
L 603 4863 
z
" transform="scale(0.015625)"/>
      <path id="DejaVuSans-6c" d="M 603 4863 
L 1178 4863 
L 1178 0 
L 603 0 
L 603 4863 
z
" transform="scale(0.015625)"/>
     </defs>
     <use xlink:href="#DejaVuSans-23"/>
     <use xlink:href="#DejaVuSans-20" x="83.789062"/>
     <use xlink:href="#DejaVuSans-6f" x="115.576172"/>
     <use xlink:href="#DejaVuSans-66" x="176.757812"/>
     <use xlink:href="#DejaVuSans-20" x="211.962891"/>
     <use xlink:href="#DejaVuSans-70" x="243.75"/>
     <use xlink:href="#DejaVuSans-68" x="307.226562"/>
     <use xlink:href="#DejaVuSans-6f" x="370.605469"/>
     <use xlink:href="#DejaVuSans-74" x="431.787109"/>
     <use xlink:href="#DejaVuSans-6f" x="470.996094"/>
     <use xlink:href="#DejaVuSans-6e" x="532.177734"/>
     <use xlink:href="#DejaVuSans-73" x="595.556641"/>
     <use xlink:href="#DejaVuSans-2c" x="647.65625"/>
     <use xlink:href="#DejaVuSans-20" x="679.443359"/>
     <use xlink:href="#DejaVuSans-35" x="711.230469"/>
     <use xlink:href="#DejaVuSans-47" x="774.853516"/>
     <use xlink:href="#DejaVuSans-65" x="852.34375"/>
     <use xlink:href="#DejaVuSans-56" x="913.867188"/>
     <use xlink:href="#DejaVuSans-20" x="982.275391"/>
     <use xlink:href="#DejaVuSans-6d" x="1014.0625"/>
     <use xlink:href="#DejaVuSans-75" x="1111.474609"/>
     <use xlink:href="#DejaVuSans-2d" x="1174.853516"/>
     <use xlink:href="#DejaVuSans-3b" x="1210.9375"/>
     <use xlink:href="#DejaVuSans-20" x="1244.628906"/>
     <use xlink:href="#DejaVuSans-73" x="1276.416016"/>
     <use xlink:href="#DejaVuSans-65" x="1328.515625"/>
     <use xlink:href="#DejaVuSans-6e" x="1390.039062"/>
     <use xlink:href="#DejaVuSans-73" x="1453.417969"/>
     <use xlink:href="#DejaVuSans-6f" x="1505.517578"/>
     <use xlink:href="#DejaVuSans-72" x="1566.699219"/>
     <use xlink:href="#DejaVuSans-20" x="1607.8125"/>
     <use xlink:href="#DejaVuSans-69" x="1639.599609"/>
     <use xlink:href="#DejaVuSans-6e" x="1667.382812"/>
     <use xlink:href="#DejaVuSans-20" x="1730.761719"/>
     <use xlink:href="#DejaVuSans-76" x="1762.548828"/>
     <use xlink:href="#DejaVuSans-6f" x="1821.728516"/>
     <use xlink:href="#DejaVuSans-6c" x="1882.910156"/>
     <use xlink:href="#DejaVuSans-75" x="1910.693359"/>
     <use xlink:href="#DejaVuSans-6d" x="1974.072266"/>
     <use xlink:href="#DejaVuSans-65" x="2071.484375"/>
     <use xlink:href="#DejaVuSans-2c" x="2133.007812"/>
     <use xlink:href="#DejaVuSans-20" x="2164.794922"/>
     <use xlink:href="#DejaVuSans-32" x="2196.582031"/>
     <use xlink:href="#DejaVuSans-6d" x="2260.205078"/>
    </g>
   </g>
  </g>
 </g>
 <defs>
  <clipPath id="pcecfd5cb2f">
   <rect x="54" y="34.56" width="334.8" height="217.44"/>
  </clipPath>
 </defs>
</svg>
