<?xml version="1.0" encoding="utf-8" standalone="no"?>
<!DOCTYPE svg PUBLIC "-//W3C//DTD SVG 1.1//EN"
  "http://www.w3.org/Graphics/SVG/1.1/DTD/svg11.dtd">
<svg xmlns:xlink="http://www.w3.org/1999/xlink" width="432pt" height="288pt" viewBox="0 0 432 288" xmlns="http://www.w3.org/2000/svg" version="1.1">
 <metadata>
  <rdf:RDF xmlns:dc="http://purl.org/dc/elements/1.1/" xmlns:cc="http://creativecommons.org/ns#" xmlns:rdf="http://www.w3.org/1999/02/22-rdf-syntax-ns#">
   <cc:Work>
    <dc:type rdf:resource="http://purl.org/dc/dcmitype/StillImage"/>
    <dc:date>2024-06-04T13:08:36.069618</dc:date>
    <dc:format>image/svg+xml</dc:format>
    <dc:creator>
     <cc:Agent>
      <dc:title>Matplotlib v3.7.4, https://matplotlib.org/</dc:title>
     </cc:Agent>
    </dc:creator>
   </cc:Work>
  </rdf:RDF>
 </metadata>
 <defs>
  <style type="text/css">*{stroke-linejoin: round; stroke-linecap: butt}</style>
 </defs>
 <g id="figure_1">
  <g id="patch_1">
   <path d="M 0 288 
L 432 288 
L 432 0 
L 0 0 
L 0 288 
z
" style="fill: none"/>
  </g>
  <g id="axes_1">
   <g id="patch_2">
    <path d="M 54 252 
L 388.8 252 
L 388.8 34.56 
L 54 34.56 
z
" style="fill: #ffffff"/>
   </g>
   <g id="patch_3">
    <path d="M 69.218182 252 
L 70.977509 252 
L 70.977509 222.416327 
L 69.218182 222.416327 
z
" clip-path="url(#p7da1fa8cea)" style="fill: #0000ff"/>
   </g>
   <g id="patch_4">
    <path d="M 70.977509 252 
L 72.736837 252 
L 72.736837 252 
L 70.977509 252 
z
" clip-path="url(#p7da1fa8cea)" style="fill: #0000ff"/>
   </g>
   <g id="patch_5">
    <path d="M 72.736837 252 
L 74.496164 252 
L 74.496164 252 
L 72.736837 252 
z
" clip-path="url(#p7da1fa8cea)" style="fill: #0000ff"/>
   </g>
   <g id="patch_6">
    <path d="M 74.496164 252 
L 76.255491 252 
L 76.255491 252 
L 74.496164 252 
z
" clip-path="url(#p7da1fa8cea)" style="fill: #0000ff"/>
   </g>
   <g id="patch_7">
    <path d="M 76.255491 252 
L 78.014819 252 
L 78.014819 252 
L 76.255491 252 
z
" clip-path="url(#p7da1fa8cea)" style="fill: #0000ff"/>
   </g>
   <g id="patch_8">
    <path d="M 78.014819 252 
L 79.774146 252 
L 79.774146 252 
L 78.014819 252 
z
" clip-path="url(#p7da1fa8cea)" style="fill: #0000ff"/>
   </g>
   <g id="patch_9">
    <path d="M 79.774146 252 
L 81.533473 252 
L 81.533473 252 
L 79.774146 252 
z
" clip-path="url(#p7da1fa8cea)" style="fill: #0000ff"/>
   </g>
   <g id="patch_10">
    <path d="M 81.533473 252 
L 83.292801 252 
L 83.292801 252 
L 81.533473 252 
z
" clip-path="url(#p7da1fa8cea)" style="fill: #0000ff"/>
   </g>
   <g id="patch_11">
    <path d="M 83.292801 252 
L 85.052128 252 
L 85.052128 222.416327 
L 83.292801 222.416327 
z
" clip-path="url(#p7da1fa8cea)" style="fill: #0000ff"/>
   </g>
   <g id="patch_12">
    <path d="M 85.052128 252 
L 86.811456 252 
L 86.811456 222.416327 
L 85.052128 222.416327 
z
" clip-path="url(#p7da1fa8cea)" style="fill: #0000ff"/>
   </g>
   <g id="patch_13">
    <path d="M 86.811456 252 
L 88.570783 252 
L 88.570783 192.832653 
L 86.811456 192.832653 
z
" clip-path="url(#p7da1fa8cea)" style="fill: #0000ff"/>
   </g>
   <g id="patch_14">
    <path d="M 88.570783 252 
L 90.33011 252 
L 90.33011 222.416327 
L 88.570783 222.416327 
z
" clip-path="url(#p7da1fa8cea)" style="fill: #0000ff"/>
   </g>
   <g id="patch_15">
    <path d="M 90.33011 252 
L 92.089438 252 
L 92.089438 222.416327 
L 90.33011 222.416327 
z
" clip-path="url(#p7da1fa8cea)" style="fill: #0000ff"/>
   </g>
   <g id="patch_16">
    <path d="M 92.089438 252 
L 93.848765 252 
L 93.848765 222.416327 
L 92.089438 222.416327 
z
" clip-path="url(#p7da1fa8cea)" style="fill: #0000ff"/>
   </g>
   <g id="patch_17">
    <path d="M 93.848765 252 
L 95.608092 252 
L 95.608092 192.832653 
L 93.848765 192.832653 
z
" clip-path="url(#p7da1fa8cea)" style="fill: #0000ff"/>
   </g>
   <g id="patch_18">
    <path d="M 95.608092 252 
L 97.36742 252 
L 97.36742 222.416327 
L 95.608092 222.416327 
z
" clip-path="url(#p7da1fa8cea)" style="fill: #0000ff"/>
   </g>
   <g id="patch_19">
    <path d="M 97.36742 252 
L 99.126747 252 
L 99.126747 163.24898 
L 97.36742 163.24898 
z
" clip-path="url(#p7da1fa8cea)" style="fill: #0000ff"/>
   </g>
   <g id="patch_20">
    <path d="M 99.126747 252 
L 100.886075 252 
L 100.886075 222.416327 
L 99.126747 222.416327 
z
" clip-path="url(#p7da1fa8cea)" style="fill: #0000ff"/>
   </g>
   <g id="patch_21">
    <path d="M 100.886075 252 
L 102.645402 252 
L 102.645402 163.24898 
L 100.886075 163.24898 
z
" clip-path="url(#p7da1fa8cea)" style="fill: #0000ff"/>
   </g>
   <g id="patch_22">
    <path d="M 102.645402 252 
L 104.404729 252 
L 104.404729 192.832653 
L 102.645402 192.832653 
z
" clip-path="url(#p7da1fa8cea)" style="fill: #0000ff"/>
   </g>
   <g id="patch_23">
    <path d="M 104.404729 252 
L 106.164057 252 
L 106.164057 163.24898 
L 104.404729 163.24898 
z
" clip-path="url(#p7da1fa8cea)" style="fill: #0000ff"/>
   </g>
   <g id="patch_24">
    <path d="M 106.164057 252 
L 107.923384 252 
L 107.923384 163.24898 
L 106.164057 163.24898 
z
" clip-path="url(#p7da1fa8cea)" style="fill: #0000ff"/>
   </g>
   <g id="patch_25">
    <path d="M 107.923384 252 
L 109.682712 252 
L 109.682712 44.914286 
L 107.923384 44.914286 
z
" clip-path="url(#p7da1fa8cea)" style="fill: #0000ff"/>
   </g>
   <g id="patch_26">
    <path d="M 109.682712 252 
L 111.442039 252 
L 111.442039 252 
L 109.682712 252 
z
" clip-path="url(#p7da1fa8cea)" style="fill: #0000ff"/>
   </g>
   <g id="patch_27">
    <path d="M 111.442039 252 
L 113.201366 252 
L 113.201366 163.24898 
L 111.442039 163.24898 
z
" clip-path="url(#p7da1fa8cea)" style="fill: #0000ff"/>
   </g>
   <g id="patch_28">
    <path d="M 113.201366 252 
L 114.960694 252 
L 114.960694 133.665306 
L 113.201366 133.665306 
z
" clip-path="url(#p7da1fa8cea)" style="fill: #0000ff"/>
   </g>
   <g id="patch_29">
    <path d="M 114.960694 252 
L 116.720021 252 
L 116.720021 133.665306 
L 114.960694 133.665306 
z
" clip-path="url(#p7da1fa8cea)" style="fill: #0000ff"/>
   </g>
   <g id="patch_30">
    <path d="M 116.720021 252 
L 118.479348 252 
L 118.479348 163.24898 
L 116.720021 163.24898 
z
" clip-path="url(#p7da1fa8cea)" style="fill: #0000ff"/>
   </g>
   <g id="patch_31">
    <path d="M 118.479348 252 
L 120.238676 252 
L 120.238676 222.416327 
L 118.479348 222.416327 
z
" clip-path="url(#p7da1fa8cea)" style="fill: #0000ff"/>
   </g>
   <g id="patch_32">
    <path d="M 120.238676 252 
L 121.998003 252 
L 121.998003 133.665306 
L 120.238676 133.665306 
z
" clip-path="url(#p7da1fa8cea)" style="fill: #0000ff"/>
   </g>
   <g id="patch_33">
    <path d="M 121.998003 252 
L 123.757331 252 
L 123.757331 192.832653 
L 121.998003 192.832653 
z
" clip-path="url(#p7da1fa8cea)" style="fill: #0000ff"/>
   </g>
   <g id="patch_34">
    <path d="M 123.757331 252 
L 125.516658 252 
L 125.516658 133.665306 
L 123.757331 133.665306 
z
" clip-path="url(#p7da1fa8cea)" style="fill: #0000ff"/>
   </g>
   <g id="patch_35">
    <path d="M 125.516658 252 
L 127.275985 252 
L 127.275985 252 
L 125.516658 252 
z
" clip-path="url(#p7da1fa8cea)" style="fill: #0000ff"/>
   </g>
   <g id="patch_36">
    <path d="M 127.275985 252 
L 129.035313 252 
L 129.035313 192.832653 
L 127.275985 192.832653 
z
" clip-path="url(#p7da1fa8cea)" style="fill: #0000ff"/>
   </g>
   <g id="patch_37">
    <path d="M 129.035313 252 
L 130.79464 252 
L 130.79464 192.832653 
L 129.035313 192.832653 
z
" clip-path="url(#p7da1fa8cea)" style="fill: #0000ff"/>
   </g>
   <g id="patch_38">
    <path d="M 130.79464 252 
L 132.553967 252 
L 132.553967 163.24898 
L 130.79464 163.24898 
z
" clip-path="url(#p7da1fa8cea)" style="fill: #0000ff"/>
   </g>
   <g id="patch_39">
    <path d="M 132.553967 252 
L 134.313295 252 
L 134.313295 222.416327 
L 132.553967 222.416327 
z
" clip-path="url(#p7da1fa8cea)" style="fill: #0000ff"/>
   </g>
   <g id="patch_40">
    <path d="M 134.313295 252 
L 136.072622 252 
L 136.072622 192.832653 
L 134.313295 192.832653 
z
" clip-path="url(#p7da1fa8cea)" style="fill: #0000ff"/>
   </g>
   <g id="patch_41">
    <path d="M 136.072622 252 
L 137.83195 252 
L 137.83195 222.416327 
L 136.072622 222.416327 
z
" clip-path="url(#p7da1fa8cea)" style="fill: #0000ff"/>
   </g>
   <g id="patch_42">
    <path d="M 137.83195 252 
L 139.591277 252 
L 139.591277 133.665306 
L 137.83195 133.665306 
z
" clip-path="url(#p7da1fa8cea)" style="fill: #0000ff"/>
   </g>
   <g id="patch_43">
    <path d="M 139.591277 252 
L 141.350604 252 
L 141.350604 222.416327 
L 139.591277 222.416327 
z
" clip-path="url(#p7da1fa8cea)" style="fill: #0000ff"/>
   </g>
   <g id="patch_44">
    <path d="M 141.350604 252 
L 143.109932 252 
L 143.109932 222.416327 
L 141.350604 222.416327 
z
" clip-path="url(#p7da1fa8cea)" style="fill: #0000ff"/>
   </g>
   <g id="patch_45">
    <path d="M 143.109932 252 
L 144.869259 252 
L 144.869259 192.832653 
L 143.109932 192.832653 
z
" clip-path="url(#p7da1fa8cea)" style="fill: #0000ff"/>
   </g>
   <g id="patch_46">
    <path d="M 144.869259 252 
L 146.628586 252 
L 146.628586 252 
L 144.869259 252 
z
" clip-path="url(#p7da1fa8cea)" style="fill: #0000ff"/>
   </g>
   <g id="patch_47">
    <path d="M 146.628586 252 
L 148.387914 252 
L 148.387914 252 
L 146.628586 252 
z
" clip-path="url(#p7da1fa8cea)" style="fill: #0000ff"/>
   </g>
   <g id="patch_48">
    <path d="M 148.387914 252 
L 150.147241 252 
L 150.147241 252 
L 148.387914 252 
z
" clip-path="url(#p7da1fa8cea)" style="fill: #0000ff"/>
   </g>
   <g id="patch_49">
    <path d="M 150.147241 252 
L 151.906569 252 
L 151.906569 252 
L 150.147241 252 
z
" clip-path="url(#p7da1fa8cea)" style="fill: #0000ff"/>
   </g>
   <g id="patch_50">
    <path d="M 151.906569 252 
L 153.665896 252 
L 153.665896 222.416327 
L 151.906569 222.416327 
z
" clip-path="url(#p7da1fa8cea)" style="fill: #0000ff"/>
   </g>
   <g id="patch_51">
    <path d="M 153.665896 252 
L 155.425223 252 
L 155.425223 252 
L 153.665896 252 
z
" clip-path="url(#p7da1fa8cea)" style="fill: #0000ff"/>
   </g>
   <g id="patch_52">
    <path d="M 155.425223 252 
L 157.184551 252 
L 157.184551 222.416327 
L 155.425223 222.416327 
z
" clip-path="url(#p7da1fa8cea)" style="fill: #0000ff"/>
   </g>
   <g id="patch_53">
    <path d="M 157.184551 252 
L 158.943878 252 
L 158.943878 252 
L 157.184551 252 
z
" clip-path="url(#p7da1fa8cea)" style="fill: #0000ff"/>
   </g>
   <g id="patch_54">
    <path d="M 158.943878 252 
L 160.703205 252 
L 160.703205 252 
L 158.943878 252 
z
" clip-path="url(#p7da1fa8cea)" style="fill: #0000ff"/>
   </g>
   <g id="patch_55">
    <path d="M 160.703205 252 
L 162.462533 252 
L 162.462533 222.416327 
L 160.703205 222.416327 
z
" clip-path="url(#p7da1fa8cea)" style="fill: #0000ff"/>
   </g>
   <g id="patch_56">
    <path d="M 162.462533 252 
L 164.22186 252 
L 164.22186 222.416327 
L 162.462533 222.416327 
z
" clip-path="url(#p7da1fa8cea)" style="fill: #0000ff"/>
   </g>
   <g id="patch_57">
    <path d="M 164.22186 252 
L 165.981188 252 
L 165.981188 222.416327 
L 164.22186 222.416327 
z
" clip-path="url(#p7da1fa8cea)" style="fill: #0000ff"/>
   </g>
   <g id="patch_58">
    <path d="M 165.981188 252 
L 167.740515 252 
L 167.740515 163.24898 
L 165.981188 163.24898 
z
" clip-path="url(#p7da1fa8cea)" style="fill: #0000ff"/>
   </g>
   <g id="patch_59">
    <path d="M 167.740515 252 
L 169.499842 252 
L 169.499842 222.416327 
L 167.740515 222.416327 
z
" clip-path="url(#p7da1fa8cea)" style="fill: #0000ff"/>
   </g>
   <g id="patch_60">
    <path d="M 169.499842 252 
L 171.25917 252 
L 171.25917 252 
L 169.499842 252 
z
" clip-path="url(#p7da1fa8cea)" style="fill: #0000ff"/>
   </g>
   <g id="patch_61">
    <path d="M 171.25917 252 
L 173.018497 252 
L 173.018497 222.416327 
L 171.25917 222.416327 
z
" clip-path="url(#p7da1fa8cea)" style="fill: #0000ff"/>
   </g>
   <g id="patch_62">
    <path d="M 173.018497 252 
L 174.777824 252 
L 174.777824 252 
L 173.018497 252 
z
" clip-path="url(#p7da1fa8cea)" style="fill: #0000ff"/>
   </g>
   <g id="patch_63">
    <path d="M 174.777824 252 
L 176.537152 252 
L 176.537152 192.832653 
L 174.777824 192.832653 
z
" clip-path="url(#p7da1fa8cea)" style="fill: #0000ff"/>
   </g>
   <g id="patch_64">
    <path d="M 176.537152 252 
L 178.296479 252 
L 178.296479 252 
L 176.537152 252 
z
" clip-path="url(#p7da1fa8cea)" style="fill: #0000ff"/>
   </g>
   <g id="patch_65">
    <path d="M 178.296479 252 
L 180.055807 252 
L 180.055807 222.416327 
L 178.296479 222.416327 
z
" clip-path="url(#p7da1fa8cea)" style="fill: #0000ff"/>
   </g>
   <g id="patch_66">
    <path d="M 180.055807 252 
L 181.815134 252 
L 181.815134 252 
L 180.055807 252 
z
" clip-path="url(#p7da1fa8cea)" style="fill: #0000ff"/>
   </g>
   <g id="patch_67">
    <path d="M 181.815134 252 
L 183.574461 252 
L 183.574461 222.416327 
L 181.815134 222.416327 
z
" clip-path="url(#p7da1fa8cea)" style="fill: #0000ff"/>
   </g>
   <g id="patch_68">
    <path d="M 183.574461 252 
L 185.333789 252 
L 185.333789 252 
L 183.574461 252 
z
" clip-path="url(#p7da1fa8cea)" style="fill: #0000ff"/>
   </g>
   <g id="patch_69">
    <path d="M 185.333789 252 
L 187.093116 252 
L 187.093116 252 
L 185.333789 252 
z
" clip-path="url(#p7da1fa8cea)" style="fill: #0000ff"/>
   </g>
   <g id="patch_70">
    <path d="M 187.093116 252 
L 188.852444 252 
L 188.852444 222.416327 
L 187.093116 222.416327 
z
" clip-path="url(#p7da1fa8cea)" style="fill: #0000ff"/>
   </g>
   <g id="patch_71">
    <path d="M 188.852444 252 
L 190.611771 252 
L 190.611771 222.416327 
L 188.852444 222.416327 
z
" clip-path="url(#p7da1fa8cea)" style="fill: #0000ff"/>
   </g>
   <g id="patch_72">
    <path d="M 190.611771 252 
L 192.371098 252 
L 192.371098 222.416327 
L 190.611771 222.416327 
z
" clip-path="url(#p7da1fa8cea)" style="fill: #0000ff"/>
   </g>
   <g id="patch_73">
    <path d="M 192.371098 252 
L 194.130426 252 
L 194.130426 252 
L 192.371098 252 
z
" clip-path="url(#p7da1fa8cea)" style="fill: #0000ff"/>
   </g>
   <g id="patch_74">
    <path d="M 194.130426 252 
L 195.889753 252 
L 195.889753 252 
L 194.130426 252 
z
" clip-path="url(#p7da1fa8cea)" style="fill: #0000ff"/>
   </g>
   <g id="patch_75">
    <path d="M 195.889753 252 
L 197.64908 252 
L 197.64908 222.416327 
L 195.889753 222.416327 
z
" clip-path="url(#p7da1fa8cea)" style="fill: #0000ff"/>
   </g>
   <g id="patch_76">
    <path d="M 197.64908 252 
L 199.408408 252 
L 199.408408 222.416327 
L 197.64908 222.416327 
z
" clip-path="url(#p7da1fa8cea)" style="fill: #0000ff"/>
   </g>
   <g id="patch_77">
    <path d="M 199.408408 252 
L 201.167735 252 
L 201.167735 252 
L 199.408408 252 
z
" clip-path="url(#p7da1fa8cea)" style="fill: #0000ff"/>
   </g>
   <g id="patch_78">
    <path d="M 201.167735 252 
L 202.927063 252 
L 202.927063 222.416327 
L 201.167735 222.416327 
z
" clip-path="url(#p7da1fa8cea)" style="fill: #0000ff"/>
   </g>
   <g id="patch_79">
    <path d="M 202.927063 252 
L 204.68639 252 
L 204.68639 252 
L 202.927063 252 
z
" clip-path="url(#p7da1fa8cea)" style="fill: #0000ff"/>
   </g>
   <g id="patch_80">
    <path d="M 204.68639 252 
L 206.445717 252 
L 206.445717 252 
L 204.68639 252 
z
" clip-path="url(#p7da1fa8cea)" style="fill: #0000ff"/>
   </g>
   <g id="patch_81">
    <path d="M 206.445717 252 
L 208.205045 252 
L 208.205045 252 
L 206.445717 252 
z
" clip-path="url(#p7da1fa8cea)" style="fill: #0000ff"/>
   </g>
   <g id="patch_82">
    <path d="M 208.205045 252 
L 209.964372 252 
L 209.964372 252 
L 208.205045 252 
z
" clip-path="url(#p7da1fa8cea)" style="fill: #0000ff"/>
   </g>
   <g id="patch_83">
    <path d="M 209.964372 252 
L 211.723699 252 
L 211.723699 252 
L 209.964372 252 
z
" clip-path="url(#p7da1fa8cea)" style="fill: #0000ff"/>
   </g>
   <g id="patch_84">
    <path d="M 211.723699 252 
L 213.483027 252 
L 213.483027 252 
L 211.723699 252 
z
" clip-path="url(#p7da1fa8cea)" style="fill: #0000ff"/>
   </g>
   <g id="patch_85">
    <path d="M 213.483027 252 
L 215.242354 252 
L 215.242354 252 
L 213.483027 252 
z
" clip-path="url(#p7da1fa8cea)" style="fill: #0000ff"/>
   </g>
   <g id="patch_86">
    <path d="M 215.242354 252 
L 217.001682 252 
L 217.001682 252 
L 215.242354 252 
z
" clip-path="url(#p7da1fa8cea)" style="fill: #0000ff"/>
   </g>
   <g id="patch_87">
    <path d="M 217.001682 252 
L 218.761009 252 
L 218.761009 252 
L 217.001682 252 
z
" clip-path="url(#p7da1fa8cea)" style="fill: #0000ff"/>
   </g>
   <g id="patch_88">
    <path d="M 218.761009 252 
L 220.520336 252 
L 220.520336 252 
L 218.761009 252 
z
" clip-path="url(#p7da1fa8cea)" style="fill: #0000ff"/>
   </g>
   <g id="patch_89">
    <path d="M 220.520336 252 
L 222.279664 252 
L 222.279664 252 
L 220.520336 252 
z
" clip-path="url(#p7da1fa8cea)" style="fill: #0000ff"/>
   </g>
   <g id="patch_90">
    <path d="M 222.279664 252 
L 224.038991 252 
L 224.038991 252 
L 222.279664 252 
z
" clip-path="url(#p7da1fa8cea)" style="fill: #0000ff"/>
   </g>
   <g id="patch_91">
    <path d="M 224.038991 252 
L 225.798318 252 
L 225.798318 252 
L 224.038991 252 
z
" clip-path="url(#p7da1fa8cea)" style="fill: #0000ff"/>
   </g>
   <g id="patch_92">
    <path d="M 225.798318 252 
L 227.557646 252 
L 227.557646 252 
L 225.798318 252 
z
" clip-path="url(#p7da1fa8cea)" style="fill: #0000ff"/>
   </g>
   <g id="patch_93">
    <path d="M 227.557646 252 
L 229.316973 252 
L 229.316973 252 
L 227.557646 252 
z
" clip-path="url(#p7da1fa8cea)" style="fill: #0000ff"/>
   </g>
   <g id="patch_94">
    <path d="M 229.316973 252 
L 231.076301 252 
L 231.076301 252 
L 229.316973 252 
z
" clip-path="url(#p7da1fa8cea)" style="fill: #0000ff"/>
   </g>
   <g id="patch_95">
    <path d="M 231.076301 252 
L 232.835628 252 
L 232.835628 252 
L 231.076301 252 
z
" clip-path="url(#p7da1fa8cea)" style="fill: #0000ff"/>
   </g>
   <g id="patch_96">
    <path d="M 232.835628 252 
L 234.594955 252 
L 234.594955 252 
L 232.835628 252 
z
" clip-path="url(#p7da1fa8cea)" style="fill: #0000ff"/>
   </g>
   <g id="patch_97">
    <path d="M 234.594955 252 
L 236.354283 252 
L 236.354283 252 
L 234.594955 252 
z
" clip-path="url(#p7da1fa8cea)" style="fill: #0000ff"/>
   </g>
   <g id="patch_98">
    <path d="M 236.354283 252 
L 238.11361 252 
L 238.11361 252 
L 236.354283 252 
z
" clip-path="url(#p7da1fa8cea)" style="fill: #0000ff"/>
   </g>
   <g id="patch_99">
    <path d="M 238.11361 252 
L 239.872937 252 
L 239.872937 222.416327 
L 238.11361 222.416327 
z
" clip-path="url(#p7da1fa8cea)" style="fill: #0000ff"/>
   </g>
   <g id="patch_100">
    <path d="M 239.872937 252 
L 241.632265 252 
L 241.632265 252 
L 239.872937 252 
z
" clip-path="url(#p7da1fa8cea)" style="fill: #0000ff"/>
   </g>
   <g id="patch_101">
    <path d="M 241.632265 252 
L 243.391592 252 
L 243.391592 252 
L 241.632265 252 
z
" clip-path="url(#p7da1fa8cea)" style="fill: #0000ff"/>
   </g>
   <g id="patch_102">
    <path d="M 243.391592 252 
L 245.15092 252 
L 245.15092 252 
L 243.391592 252 
z
" clip-path="url(#p7da1fa8cea)" style="fill: #0000ff"/>
   </g>
   <g id="patch_103">
    <path d="M 245.15092 252 
L 246.910247 252 
L 246.910247 252 
L 245.15092 252 
z
" clip-path="url(#p7da1fa8cea)" style="fill: #0000ff"/>
   </g>
   <g id="patch_104">
    <path d="M 246.910247 252 
L 248.669574 252 
L 248.669574 252 
L 246.910247 252 
z
" clip-path="url(#p7da1fa8cea)" style="fill: #0000ff"/>
   </g>
   <g id="patch_105">
    <path d="M 248.669574 252 
L 250.428902 252 
L 250.428902 252 
L 248.669574 252 
z
" clip-path="url(#p7da1fa8cea)" style="fill: #0000ff"/>
   </g>
   <g id="patch_106">
    <path d="M 250.428902 252 
L 252.188229 252 
L 252.188229 252 
L 250.428902 252 
z
" clip-path="url(#p7da1fa8cea)" style="fill: #0000ff"/>
   </g>
   <g id="patch_107">
    <path d="M 252.188229 252 
L 253.947556 252 
L 253.947556 252 
L 252.188229 252 
z
" clip-path="url(#p7da1fa8cea)" style="fill: #0000ff"/>
   </g>
   <g id="patch_108">
    <path d="M 253.947556 252 
L 255.706884 252 
L 255.706884 252 
L 253.947556 252 
z
" clip-path="url(#p7da1fa8cea)" style="fill: #0000ff"/>
   </g>
   <g id="patch_109">
    <path d="M 255.706884 252 
L 257.466211 252 
L 257.466211 252 
L 255.706884 252 
z
" clip-path="url(#p7da1fa8cea)" style="fill: #0000ff"/>
   </g>
   <g id="patch_110">
    <path d="M 257.466211 252 
L 259.225539 252 
L 259.225539 252 
L 257.466211 252 
z
" clip-path="url(#p7da1fa8cea)" style="fill: #0000ff"/>
   </g>
   <g id="patch_111">
    <path d="M 259.225539 252 
L 260.984866 252 
L 260.984866 252 
L 259.225539 252 
z
" clip-path="url(#p7da1fa8cea)" style="fill: #0000ff"/>
   </g>
   <g id="patch_112">
    <path d="M 260.984866 252 
L 262.744193 252 
L 262.744193 252 
L 260.984866 252 
z
" clip-path="url(#p7da1fa8cea)" style="fill: #0000ff"/>
   </g>
   <g id="patch_113">
    <path d="M 262.744193 252 
L 264.503521 252 
L 264.503521 252 
L 262.744193 252 
z
" clip-path="url(#p7da1fa8cea)" style="fill: #0000ff"/>
   </g>
   <g id="patch_114">
    <path d="M 264.503521 252 
L 266.262848 252 
L 266.262848 252 
L 264.503521 252 
z
" clip-path="url(#p7da1fa8cea)" style="fill: #0000ff"/>
   </g>
   <g id="patch_115">
    <path d="M 266.262848 252 
L 268.022176 252 
L 268.022176 252 
L 266.262848 252 
z
" clip-path="url(#p7da1fa8cea)" style="fill: #0000ff"/>
   </g>
   <g id="patch_116">
    <path d="M 268.022176 252 
L 269.781503 252 
L 269.781503 252 
L 268.022176 252 
z
" clip-path="url(#p7da1fa8cea)" style="fill: #0000ff"/>
   </g>
   <g id="patch_117">
    <path d="M 269.781503 252 
L 271.54083 252 
L 271.54083 252 
L 269.781503 252 
z
" clip-path="url(#p7da1fa8cea)" style="fill: #0000ff"/>
   </g>
   <g id="patch_118">
    <path d="M 271.54083 252 
L 273.300158 252 
L 273.300158 252 
L 271.54083 252 
z
" clip-path="url(#p7da1fa8cea)" style="fill: #0000ff"/>
   </g>
   <g id="patch_119">
    <path d="M 273.300158 252 
L 275.059485 252 
L 275.059485 252 
L 273.300158 252 
z
" clip-path="url(#p7da1fa8cea)" style="fill: #0000ff"/>
   </g>
   <g id="patch_120">
    <path d="M 275.059485 252 
L 276.818812 252 
L 276.818812 252 
L 275.059485 252 
z
" clip-path="url(#p7da1fa8cea)" style="fill: #0000ff"/>
   </g>
   <g id="patch_121">
    <path d="M 276.818812 252 
L 278.57814 252 
L 278.57814 252 
L 276.818812 252 
z
" clip-path="url(#p7da1fa8cea)" style="fill: #0000ff"/>
   </g>
   <g id="patch_122">
    <path d="M 278.57814 252 
L 280.337467 252 
L 280.337467 252 
L 278.57814 252 
z
" clip-path="url(#p7da1fa8cea)" style="fill: #0000ff"/>
   </g>
   <g id="patch_123">
    <path d="M 280.337467 252 
L 282.096795 252 
L 282.096795 252 
L 280.337467 252 
z
" clip-path="url(#p7da1fa8cea)" style="fill: #0000ff"/>
   </g>
   <g id="patch_124">
    <path d="M 282.096795 252 
L 283.856122 252 
L 283.856122 252 
L 282.096795 252 
z
" clip-path="url(#p7da1fa8cea)" style="fill: #0000ff"/>
   </g>
   <g id="patch_125">
    <path d="M 283.856122 252 
L 285.615449 252 
L 285.615449 252 
L 283.856122 252 
z
" clip-path="url(#p7da1fa8cea)" style="fill: #0000ff"/>
   </g>
   <g id="patch_126">
    <path d="M 285.615449 252 
L 287.374777 252 
L 287.374777 252 
L 285.615449 252 
z
" clip-path="url(#p7da1fa8cea)" style="fill: #0000ff"/>
   </g>
   <g id="patch_127">
    <path d="M 287.374777 252 
L 289.134104 252 
L 289.134104 252 
L 287.374777 252 
z
" clip-path="url(#p7da1fa8cea)" style="fill: #0000ff"/>
   </g>
   <g id="patch_128">
    <path d="M 289.134104 252 
L 290.893431 252 
L 290.893431 252 
L 289.134104 252 
z
" clip-path="url(#p7da1fa8cea)" style="fill: #0000ff"/>
   </g>
   <g id="patch_129">
    <path d="M 290.893431 252 
L 292.652759 252 
L 292.652759 252 
L 290.893431 252 
z
" clip-path="url(#p7da1fa8cea)" style="fill: #0000ff"/>
   </g>
   <g id="patch_130">
    <path d="M 292.652759 252 
L 294.412086 252 
L 294.412086 252 
L 292.652759 252 
z
" clip-path="url(#p7da1fa8cea)" style="fill: #0000ff"/>
   </g>
   <g id="patch_131">
    <path d="M 294.412086 252 
L 296.171414 252 
L 296.171414 252 
L 294.412086 252 
z
" clip-path="url(#p7da1fa8cea)" style="fill: #0000ff"/>
   </g>
   <g id="patch_132">
    <path d="M 296.171414 252 
L 297.930741 252 
L 297.930741 252 
L 296.171414 252 
z
" clip-path="url(#p7da1fa8cea)" style="fill: #0000ff"/>
   </g>
   <g id="patch_133">
    <path d="M 297.930741 252 
L 299.690068 252 
L 299.690068 252 
L 297.930741 252 
z
" clip-path="url(#p7da1fa8cea)" style="fill: #0000ff"/>
   </g>
   <g id="patch_134">
    <path d="M 299.690068 252 
L 301.449396 252 
L 301.449396 252 
L 299.690068 252 
z
" clip-path="url(#p7da1fa8cea)" style="fill: #0000ff"/>
   </g>
   <g id="patch_135">
    <path d="M 301.449396 252 
L 303.208723 252 
L 303.208723 252 
L 301.449396 252 
z
" clip-path="url(#p7da1fa8cea)" style="fill: #0000ff"/>
   </g>
   <g id="patch_136">
    <path d="M 303.208723 252 
L 304.96805 252 
L 304.96805 252 
L 303.208723 252 
z
" clip-path="url(#p7da1fa8cea)" style="fill: #0000ff"/>
   </g>
   <g id="patch_137">
    <path d="M 304.96805 252 
L 306.727378 252 
L 306.727378 252 
L 304.96805 252 
z
" clip-path="url(#p7da1fa8cea)" style="fill: #0000ff"/>
   </g>
   <g id="patch_138">
    <path d="M 306.727378 252 
L 308.486705 252 
L 308.486705 252 
L 306.727378 252 
z
" clip-path="url(#p7da1fa8cea)" style="fill: #0000ff"/>
   </g>
   <g id="patch_139">
    <path d="M 308.486705 252 
L 310.246033 252 
L 310.246033 252 
L 308.486705 252 
z
" clip-path="url(#p7da1fa8cea)" style="fill: #0000ff"/>
   </g>
   <g id="patch_140">
    <path d="M 310.246033 252 
L 312.00536 252 
L 312.00536 222.416327 
L 310.246033 222.416327 
z
" clip-path="url(#p7da1fa8cea)" style="fill: #0000ff"/>
   </g>
   <g id="patch_141">
    <path d="M 312.00536 252 
L 313.764687 252 
L 313.764687 252 
L 312.00536 252 
z
" clip-path="url(#p7da1fa8cea)" style="fill: #0000ff"/>
   </g>
   <g id="patch_142">
    <path d="M 313.764687 252 
L 315.524015 252 
L 315.524015 252 
L 313.764687 252 
z
" clip-path="url(#p7da1fa8cea)" style="fill: #0000ff"/>
   </g>
   <g id="patch_143">
    <path d="M 315.524015 252 
L 317.283342 252 
L 317.283342 252 
L 315.524015 252 
z
" clip-path="url(#p7da1fa8cea)" style="fill: #0000ff"/>
   </g>
   <g id="patch_144">
    <path d="M 317.283342 252 
L 319.042669 252 
L 319.042669 252 
L 317.283342 252 
z
" clip-path="url(#p7da1fa8cea)" style="fill: #0000ff"/>
   </g>
   <g id="patch_145">
    <path d="M 319.042669 252 
L 320.801997 252 
L 320.801997 252 
L 319.042669 252 
z
" clip-path="url(#p7da1fa8cea)" style="fill: #0000ff"/>
   </g>
   <g id="patch_146">
    <path d="M 320.801997 252 
L 322.561324 252 
L 322.561324 252 
L 320.801997 252 
z
" clip-path="url(#p7da1fa8cea)" style="fill: #0000ff"/>
   </g>
   <g id="patch_147">
    <path d="M 322.561324 252 
L 324.320652 252 
L 324.320652 252 
L 322.561324 252 
z
" clip-path="url(#p7da1fa8cea)" style="fill: #0000ff"/>
   </g>
   <g id="patch_148">
    <path d="M 324.320652 252 
L 326.079979 252 
L 326.079979 252 
L 324.320652 252 
z
" clip-path="url(#p7da1fa8cea)" style="fill: #0000ff"/>
   </g>
   <g id="patch_149">
    <path d="M 326.079979 252 
L 327.839306 252 
L 327.839306 252 
L 326.079979 252 
z
" clip-path="url(#p7da1fa8cea)" style="fill: #0000ff"/>
   </g>
   <g id="patch_150">
    <path d="M 327.839306 252 
L 329.598634 252 
L 329.598634 252 
L 327.839306 252 
z
" clip-path="url(#p7da1fa8cea)" style="fill: #0000ff"/>
   </g>
   <g id="patch_151">
    <path d="M 329.598634 252 
L 331.357961 252 
L 331.357961 252 
L 329.598634 252 
z
" clip-path="url(#p7da1fa8cea)" style="fill: #0000ff"/>
   </g>
   <g id="patch_152">
    <path d="M 331.357961 252 
L 333.117288 252 
L 333.117288 252 
L 331.357961 252 
z
" clip-path="url(#p7da1fa8cea)" style="fill: #0000ff"/>
   </g>
   <g id="patch_153">
    <path d="M 333.117288 252 
L 334.876616 252 
L 334.876616 252 
L 333.117288 252 
z
" clip-path="url(#p7da1fa8cea)" style="fill: #0000ff"/>
   </g>
   <g id="patch_154">
    <path d="M 334.876616 252 
L 336.635943 252 
L 336.635943 252 
L 334.876616 252 
z
" clip-path="url(#p7da1fa8cea)" style="fill: #0000ff"/>
   </g>
   <g id="patch_155">
    <path d="M 336.635943 252 
L 338.395271 252 
L 338.395271 252 
L 336.635943 252 
z
" clip-path="url(#p7da1fa8cea)" style="fill: #0000ff"/>
   </g>
   <g id="patch_156">
    <path d="M 338.395271 252 
L 340.154598 252 
L 340.154598 252 
L 338.395271 252 
z
" clip-path="url(#p7da1fa8cea)" style="fill: #0000ff"/>
   </g>
   <g id="patch_157">
    <path d="M 340.154598 252 
L 341.913925 252 
L 341.913925 252 
L 340.154598 252 
z
" clip-path="url(#p7da1fa8cea)" style="fill: #0000ff"/>
   </g>
   <g id="patch_158">
    <path d="M 341.913925 252 
L 343.673253 252 
L 343.673253 252 
L 341.913925 252 
z
" clip-path="url(#p7da1fa8cea)" style="fill: #0000ff"/>
   </g>
   <g id="patch_159">
    <path d="M 343.673253 252 
L 345.43258 252 
L 345.43258 252 
L 343.673253 252 
z
" clip-path="url(#p7da1fa8cea)" style="fill: #0000ff"/>
   </g>
   <g id="patch_160">
    <path d="M 345.43258 252 
L 347.191908 252 
L 347.191908 252 
L 345.43258 252 
z
" clip-path="url(#p7da1fa8cea)" style="fill: #0000ff"/>
   </g>
   <g id="patch_161">
    <path d="M 347.191908 252 
L 348.951235 252 
L 348.951235 252 
L 347.191908 252 
z
" clip-path="url(#p7da1fa8cea)" style="fill: #0000ff"/>
   </g>
   <g id="patch_162">
    <path d="M 348.951235 252 
L 350.710562 252 
L 350.710562 252 
L 348.951235 252 
z
" clip-path="url(#p7da1fa8cea)" style="fill: #0000ff"/>
   </g>
   <g id="patch_163">
    <path d="M 350.710562 252 
L 352.46989 252 
L 352.46989 252 
L 350.710562 252 
z
" clip-path="url(#p7da1fa8cea)" style="fill: #0000ff"/>
   </g>
   <g id="patch_164">
    <path d="M 352.46989 252 
L 354.229217 252 
L 354.229217 252 
L 352.46989 252 
z
" clip-path="url(#p7da1fa8cea)" style="fill: #0000ff"/>
   </g>
   <g id="patch_165">
    <path d="M 354.229217 252 
L 355.988544 252 
L 355.988544 252 
L 354.229217 252 
z
" clip-path="url(#p7da1fa8cea)" style="fill: #0000ff"/>
   </g>
   <g id="patch_166">
    <path d="M 355.988544 252 
L 357.747872 252 
L 357.747872 252 
L 355.988544 252 
z
" clip-path="url(#p7da1fa8cea)" style="fill: #0000ff"/>
   </g>
   <g id="patch_167">
    <path d="M 357.747872 252 
L 359.507199 252 
L 359.507199 252 
L 357.747872 252 
z
" clip-path="url(#p7da1fa8cea)" style="fill: #0000ff"/>
   </g>
   <g id="patch_168">
    <path d="M 359.507199 252 
L 361.266527 252 
L 361.266527 252 
L 359.507199 252 
z
" clip-path="url(#p7da1fa8cea)" style="fill: #0000ff"/>
   </g>
   <g id="patch_169">
    <path d="M 361.266527 252 
L 363.025854 252 
L 363.025854 252 
L 361.266527 252 
z
" clip-path="url(#p7da1fa8cea)" style="fill: #0000ff"/>
   </g>
   <g id="patch_170">
    <path d="M 363.025854 252 
L 364.785181 252 
L 364.785181 252 
L 363.025854 252 
z
" clip-path="url(#p7da1fa8cea)" style="fill: #0000ff"/>
   </g>
   <g id="patch_171">
    <path d="M 364.785181 252 
L 366.544509 252 
L 366.544509 252 
L 364.785181 252 
z
" clip-path="url(#p7da1fa8cea)" style="fill: #0000ff"/>
   </g>
   <g id="patch_172">
    <path d="M 366.544509 252 
L 368.303836 252 
L 368.303836 252 
L 366.544509 252 
z
" clip-path="url(#p7da1fa8cea)" style="fill: #0000ff"/>
   </g>
   <g id="patch_173">
    <path d="M 368.303836 252 
L 370.063163 252 
L 370.063163 252 
L 368.303836 252 
z
" clip-path="url(#p7da1fa8cea)" style="fill: #0000ff"/>
   </g>
   <g id="patch_174">
    <path d="M 370.063163 252 
L 371.822491 252 
L 371.822491 252 
L 370.063163 252 
z
" clip-path="url(#p7da1fa8cea)" style="fill: #0000ff"/>
   </g>
   <g id="patch_175">
    <path d="M 371.822491 252 
L 373.581818 252 
L 373.581818 222.416327 
L 371.822491 222.416327 
z
" clip-path="url(#p7da1fa8cea)" style="fill: #0000ff"/>
   </g>
   <g id="matplotlib.axis_1">
    <g id="xtick_1">
     <g id="line2d_1">
      <path d="M 69.218182 252 
L 69.218182 34.56 
" clip-path="url(#p7da1fa8cea)" style="fill: none; stroke: #b0b0b0; stroke-width: 0.8; stroke-linecap: square"/>
     </g>
     <g id="line2d_2">
      <defs>
       <path id="md404f933a5" d="M 0 0 
L 0 3.5 
" style="stroke: #000000; stroke-width: 0.8"/>
      </defs>
      <g>
       <use xlink:href="#md404f933a5" x="69.218182" y="252" style="stroke: #000000; stroke-width: 0.8"/>
      </g>
     </g>
     <g id="text_1">
      <!-- 50 -->
      <g transform="translate(62.855682 266.598437) scale(0.1 -0.1)">
       <defs>
        <path id="DejaVuSans-35" d="M 691 4666 
L 3169 4666 
L 3169 4134 
L 1269 4134 
L 1269 2991 
Q 1406 3038 1543 3061 
Q 1681 3084 1819 3084 
Q 2600 3084 3056 2656 
Q 3513 2228 3513 1497 
Q 3513 744 3044 326 
Q 2575 -91 1722 -91 
Q 1428 -91 1123 -41 
Q 819 9 494 109 
L 494 744 
Q 775 591 1075 516 
Q 1375 441 1709 441 
Q 2250 441 2565 725 
Q 2881 1009 2881 1497 
Q 2881 1984 2565 2268 
Q 2250 2553 1709 2553 
Q 1456 2553 1204 2497 
Q 953 2441 691 2322 
L 691 4666 
z
" transform="scale(0.015625)"/>
        <path id="DejaVuSans-30" d="M 2034 4250 
Q 1547 4250 1301 3770 
Q 1056 3291 1056 2328 
Q 1056 1369 1301 889 
Q 1547 409 2034 409 
Q 2525 409 2770 889 
Q 3016 1369 3016 2328 
Q 3016 3291 2770 3770 
Q 2525 4250 2034 4250 
z
M 2034 4750 
Q 2819 4750 3233 4129 
Q 3647 3509 3647 2328 
Q 3647 1150 3233 529 
Q 2819 -91 2034 -91 
Q 1250 -91 836 529 
Q 422 1150 422 2328 
Q 422 3509 836 4129 
Q 1250 4750 2034 4750 
z
" transform="scale(0.015625)"/>
       </defs>
       <use xlink:href="#DejaVuSans-35"/>
       <use xlink:href="#DejaVuSans-30" x="63.623047"/>
      </g>
     </g>
    </g>
    <g id="xtick_2">
     <g id="line2d_3">
      <path d="M 113.201366 252 
L 113.201366 34.56 
" clip-path="url(#p7da1fa8cea)" style="fill: none; stroke: #b0b0b0; stroke-width: 0.8; stroke-linecap: square"/>
     </g>
     <g id="line2d_4">
      <g>
       <use xlink:href="#md404f933a5" x="113.201366" y="252" style="stroke: #000000; stroke-width: 0.8"/>
      </g>
     </g>
     <g id="text_2">
      <!-- 75 -->
      <g transform="translate(106.838866 266.598437) scale(0.1 -0.1)">
       <defs>
        <path id="DejaVuSans-37" d="M 525 4666 
L 3525 4666 
L 3525 4397 
L 1831 0 
L 1172 0 
L 2766 4134 
L 525 4134 
L 525 4666 
z
" transform="scale(0.015625)"/>
       </defs>
       <use xlink:href="#DejaVuSans-37"/>
       <use xlink:href="#DejaVuSans-35" x="63.623047"/>
      </g>
     </g>
    </g>
    <g id="xtick_3">
     <g id="line2d_5">
      <path d="M 157.184551 252 
L 157.184551 34.56 
" clip-path="url(#p7da1fa8cea)" style="fill: none; stroke: #b0b0b0; stroke-width: 0.8; stroke-linecap: square"/>
     </g>
     <g id="line2d_6">
      <g>
       <use xlink:href="#md404f933a5" x="157.184551" y="252" style="stroke: #000000; stroke-width: 0.8"/>
      </g>
     </g>
     <g id="text_3">
      <!-- 100 -->
      <g transform="translate(147.640801 266.598437) scale(0.1 -0.1)">
       <defs>
        <path id="DejaVuSans-31" d="M 794 531 
L 1825 531 
L 1825 4091 
L 703 3866 
L 703 4441 
L 1819 4666 
L 2450 4666 
L 2450 531 
L 3481 531 
L 3481 0 
L 794 0 
L 794 531 
z
" transform="scale(0.015625)"/>
       </defs>
       <use xlink:href="#DejaVuSans-31"/>
       <use xlink:href="#DejaVuSans-30" x="63.623047"/>
       <use xlink:href="#DejaVuSans-30" x="127.246094"/>
      </g>
     </g>
    </g>
    <g id="xtick_4">
     <g id="line2d_7">
      <path d="M 201.167735 252 
L 201.167735 34.56 
" clip-path="url(#p7da1fa8cea)" style="fill: none; stroke: #b0b0b0; stroke-width: 0.8; stroke-linecap: square"/>
     </g>
     <g id="line2d_8">
      <g>
       <use xlink:href="#md404f933a5" x="201.167735" y="252" style="stroke: #000000; stroke-width: 0.8"/>
      </g>
     </g>
     <g id="text_4">
      <!-- 125 -->
      <g transform="translate(191.623985 266.598437) scale(0.1 -0.1)">
       <defs>
        <path id="DejaVuSans-32" d="M 1228 531 
L 3431 531 
L 3431 0 
L 469 0 
L 469 531 
Q 828 903 1448 1529 
Q 2069 2156 2228 2338 
Q 2531 2678 2651 2914 
Q 2772 3150 2772 3378 
Q 2772 3750 2511 3984 
Q 2250 4219 1831 4219 
Q 1534 4219 1204 4116 
Q 875 4013 500 3803 
L 500 4441 
Q 881 4594 1212 4672 
Q 1544 4750 1819 4750 
Q 2544 4750 2975 4387 
Q 3406 4025 3406 3419 
Q 3406 3131 3298 2873 
Q 3191 2616 2906 2266 
Q 2828 2175 2409 1742 
Q 1991 1309 1228 531 
z
" transform="scale(0.015625)"/>
       </defs>
       <use xlink:href="#DejaVuSans-31"/>
       <use xlink:href="#DejaVuSans-32" x="63.623047"/>
       <use xlink:href="#DejaVuSans-35" x="127.246094"/>
      </g>
     </g>
    </g>
    <g id="xtick_5">
     <g id="line2d_9">
      <path d="M 245.15092 252 
L 245.15092 34.56 
" clip-path="url(#p7da1fa8cea)" style="fill: none; stroke: #b0b0b0; stroke-width: 0.8; stroke-linecap: square"/>
     </g>
     <g id="line2d_10">
      <g>
       <use xlink:href="#md404f933a5" x="245.15092" y="252" style="stroke: #000000; stroke-width: 0.8"/>
      </g>
     </g>
     <g id="text_5">
      <!-- 150 -->
      <g transform="translate(235.60717 266.598437) scale(0.1 -0.1)">
       <use xlink:href="#DejaVuSans-31"/>
       <use xlink:href="#DejaVuSans-35" x="63.623047"/>
       <use xlink:href="#DejaVuSans-30" x="127.246094"/>
      </g>
     </g>
    </g>
    <g id="xtick_6">
     <g id="line2d_11">
      <path d="M 289.134104 252 
L 289.134104 34.56 
" clip-path="url(#p7da1fa8cea)" style="fill: none; stroke: #b0b0b0; stroke-width: 0.8; stroke-linecap: square"/>
     </g>
     <g id="line2d_12">
      <g>
       <use xlink:href="#md404f933a5" x="289.134104" y="252" style="stroke: #000000; stroke-width: 0.8"/>
      </g>
     </g>
     <g id="text_6">
      <!-- 175 -->
      <g transform="translate(279.590354 266.598437) scale(0.1 -0.1)">
       <use xlink:href="#DejaVuSans-31"/>
       <use xlink:href="#DejaVuSans-37" x="63.623047"/>
       <use xlink:href="#DejaVuSans-35" x="127.246094"/>
      </g>
     </g>
    </g>
    <g id="xtick_7">
     <g id="line2d_13">
      <path d="M 333.117288 252 
L 333.117288 34.56 
" clip-path="url(#p7da1fa8cea)" style="fill: none; stroke: #b0b0b0; stroke-width: 0.8; stroke-linecap: square"/>
     </g>
     <g id="line2d_14">
      <g>
       <use xlink:href="#md404f933a5" x="333.117288" y="252" style="stroke: #000000; stroke-width: 0.8"/>
      </g>
     </g>
     <g id="text_7">
      <!-- 200 -->
      <g transform="translate(323.573538 266.598437) scale(0.1 -0.1)">
       <use xlink:href="#DejaVuSans-32"/>
       <use xlink:href="#DejaVuSans-30" x="63.623047"/>
       <use xlink:href="#DejaVuSans-30" x="127.246094"/>
      </g>
     </g>
    </g>
    <g id="xtick_8">
     <g id="line2d_15">
      <path d="M 377.100473 252 
L 377.100473 34.56 
" clip-path="url(#p7da1fa8cea)" style="fill: none; stroke: #b0b0b0; stroke-width: 0.8; stroke-linecap: square"/>
     </g>
     <g id="line2d_16">
      <g>
       <use xlink:href="#md404f933a5" x="377.100473" y="252" style="stroke: #000000; stroke-width: 0.8"/>
      </g>
     </g>
     <g id="text_8">
      <!-- 225 -->
      <g transform="translate(367.556723 266.598437) scale(0.1 -0.1)">
       <use xlink:href="#DejaVuSans-32"/>
       <use xlink:href="#DejaVuSans-32" x="63.623047"/>
       <use xlink:href="#DejaVuSans-35" x="127.246094"/>
      </g>
     </g>
    </g>
    <g id="text_9">
     <!-- # of photons -->
     <g transform="translate(189.017188 280.276563) scale(0.1 -0.1)">
      <defs>
       <path id="DejaVuSans-23" d="M 3272 2816 
L 2363 2816 
L 2100 1772 
L 3016 1772 
L 3272 2816 
z
M 2803 4594 
L 2478 3297 
L 3391 3297 
L 3719 4594 
L 4219 4594 
L 3897 3297 
L 4872 3297 
L 4872 2816 
L 3775 2816 
L 3519 1772 
L 4513 1772 
L 4513 1294 
L 3397 1294 
L 3072 0 
L 2572 0 
L 2894 1294 
L 1978 1294 
L 1656 0 
L 1153 0 
L 1478 1294 
L 494 1294 
L 494 1772 
L 1594 1772 
L 1856 2816 
L 850 2816 
L 850 3297 
L 1978 3297 
L 2297 4594 
L 2803 4594 
z
" transform="scale(0.015625)"/>
       <path id="DejaVuSans-20" transform="scale(0.015625)"/>
       <path id="DejaVuSans-6f" d="M 1959 3097 
Q 1497 3097 1228 2736 
Q 959 2375 959 1747 
Q 959 1119 1226 758 
Q 1494 397 1959 397 
Q 2419 397 2687 759 
Q 2956 1122 2956 1747 
Q 2956 2369 2687 2733 
Q 2419 3097 1959 3097 
z
M 1959 3584 
Q 2709 3584 3137 3096 
Q 3566 2609 3566 1747 
Q 3566 888 3137 398 
Q 2709 -91 1959 -91 
Q 1206 -91 779 398 
Q 353 888 353 1747 
Q 353 2609 779 3096 
Q 1206 3584 1959 3584 
z
" transform="scale(0.015625)"/>
       <path id="DejaVuSans-66" d="M 2375 4863 
L 2375 4384 
L 1825 4384 
Q 1516 4384 1395 4259 
Q 1275 4134 1275 3809 
L 1275 3500 
L 2222 3500 
L 2222 3053 
L 1275 3053 
L 1275 0 
L 697 0 
L 697 3053 
L 147 3053 
L 147 3500 
L 697 3500 
L 697 3744 
Q 697 4328 969 4595 
Q 1241 4863 1831 4863 
L 2375 4863 
z
" transform="scale(0.015625)"/>
       <path id="DejaVuSans-70" d="M 1159 525 
L 1159 -1331 
L 581 -1331 
L 581 3500 
L 1159 3500 
L 1159 2969 
Q 1341 3281 1617 3432 
Q 1894 3584 2278 3584 
Q 2916 3584 3314 3078 
Q 3713 2572 3713 1747 
Q 3713 922 3314 415 
Q 2916 -91 2278 -91 
Q 1894 -91 1617 61 
Q 1341 213 1159 525 
z
M 3116 1747 
Q 3116 2381 2855 2742 
Q 2594 3103 2138 3103 
Q 1681 3103 1420 2742 
Q 1159 2381 1159 1747 
Q 1159 1113 1420 752 
Q 1681 391 2138 391 
Q 2594 391 2855 752 
Q 3116 1113 3116 1747 
z
" transform="scale(0.015625)"/>
       <path id="DejaVuSans-68" d="M 3513 2113 
L 3513 0 
L 2938 0 
L 2938 2094 
Q 2938 2591 2744 2837 
Q 2550 3084 2163 3084 
Q 1697 3084 1428 2787 
Q 1159 2491 1159 1978 
L 1159 0 
L 581 0 
L 581 4863 
L 1159 4863 
L 1159 2956 
Q 1366 3272 1645 3428 
Q 1925 3584 2291 3584 
Q 2894 3584 3203 3211 
Q 3513 2838 3513 2113 
z
" transform="scale(0.015625)"/>
       <path id="DejaVuSans-74" d="M 1172 4494 
L 1172 3500 
L 2356 3500 
L 2356 3053 
L 1172 3053 
L 1172 1153 
Q 1172 725 1289 603 
Q 1406 481 1766 481 
L 2356 481 
L 2356 0 
L 1766 0 
Q 1100 0 847 248 
Q 594 497 594 1153 
L 594 3053 
L 172 3053 
L 172 3500 
L 594 3500 
L 594 4494 
L 1172 4494 
z
" transform="scale(0.015625)"/>
       <path id="DejaVuSans-6e" d="M 3513 2113 
L 3513 0 
L 2938 0 
L 2938 2094 
Q 2938 2591 2744 2837 
Q 2550 3084 2163 3084 
Q 1697 3084 1428 2787 
Q 1159 2491 1159 1978 
L 1159 0 
L 581 0 
L 581 3500 
L 1159 3500 
L 1159 2956 
Q 1366 3272 1645 3428 
Q 1925 3584 2291 3584 
Q 2894 3584 3203 3211 
Q 3513 2838 3513 2113 
z
" transform="scale(0.015625)"/>
       <path id="DejaVuSans-73" d="M 2834 3397 
L 2834 2853 
Q 2591 2978 2328 3040 
Q 2066 3103 1784 3103 
Q 1356 3103 1142 2972 
Q 928 2841 928 2578 
Q 928 2378 1081 2264 
Q 1234 2150 1697 2047 
L 1894 2003 
Q 2506 1872 2764 1633 
Q 3022 1394 3022 966 
Q 3022 478 2636 193 
Q 2250 -91 1575 -91 
Q 1294 -91 989 -36 
Q 684 19 347 128 
L 347 722 
Q 666 556 975 473 
Q 1284 391 1588 391 
Q 1994 391 2212 530 
Q 2431 669 2431 922 
Q 2431 1156 2273 1281 
Q 2116 1406 1581 1522 
L 1381 1569 
Q 847 1681 609 1914 
Q 372 2147 372 2553 
Q 372 3047 722 3315 
Q 1072 3584 1716 3584 
Q 2034 3584 2315 3537 
Q 2597 3491 2834 3397 
z
" transform="scale(0.015625)"/>
      </defs>
      <use xlink:href="#DejaVuSans-23"/>
      <use xlink:href="#DejaVuSans-20" x="83.789062"/>
      <use xlink:href="#DejaVuSans-6f" x="115.576172"/>
      <use xlink:href="#DejaVuSans-66" x="176.757812"/>
      <use xlink:href="#DejaVuSans-20" x="211.962891"/>
      <use xlink:href="#DejaVuSans-70" x="243.75"/>
      <use xlink:href="#DejaVuSans-68" x="307.226562"/>
      <use xlink:href="#DejaVuSans-6f" x="370.605469"/>
      <use xlink:href="#DejaVuSans-74" x="431.787109"/>
      <use xlink:href="#DejaVuSans-6f" x="470.996094"/>
      <use xlink:href="#DejaVuSans-6e" x="532.177734"/>
      <use xlink:href="#DejaVuSans-73" x="595.556641"/>
     </g>
    </g>
   </g>
   <g id="matplotlib.axis_2">
    <g id="ytick_1">
     <g id="line2d_17">
      <path d="M 54 252 
L 388.8 252 
" clip-path="url(#p7da1fa8cea)" style="fill: none; stroke: #b0b0b0; stroke-width: 0.8; stroke-linecap: square"/>
     </g>
     <g id="line2d_18">
      <defs>
       <path id="m2569ec8f5c" d="M 0 0 
L -3.5 0 
" style="stroke: #000000; stroke-width: 0.8"/>
      </defs>
      <g>
       <use xlink:href="#m2569ec8f5c" x="54" y="252" style="stroke: #000000; stroke-width: 0.8"/>
      </g>
     </g>
     <g id="text_10">
      <!-- 0 -->
      <g transform="translate(40.6375 255.799219) scale(0.1 -0.1)">
       <use xlink:href="#DejaVuSans-30"/>
      </g>
     </g>
    </g>
    <g id="ytick_2">
     <g id="line2d_19">
      <path d="M 54 222.416327 
L 388.8 222.416327 
" clip-path="url(#p7da1fa8cea)" style="fill: none; stroke: #b0b0b0; stroke-width: 0.8; stroke-linecap: square"/>
     </g>
     <g id="line2d_20">
      <g>
       <use xlink:href="#m2569ec8f5c" x="54" y="222.416327" style="stroke: #000000; stroke-width: 0.8"/>
      </g>
     </g>
     <g id="text_11">
      <!-- 1 -->
      <g transform="translate(40.6375 226.215545) scale(0.1 -0.1)">
       <use xlink:href="#DejaVuSans-31"/>
      </g>
     </g>
    </g>
    <g id="ytick_3">
     <g id="line2d_21">
      <path d="M 54 192.832653 
L 388.8 192.832653 
" clip-path="url(#p7da1fa8cea)" style="fill: none; stroke: #b0b0b0; stroke-width: 0.8; stroke-linecap: square"/>
     </g>
     <g id="line2d_22">
      <g>
       <use xlink:href="#m2569ec8f5c" x="54" y="192.832653" style="stroke: #000000; stroke-width: 0.8"/>
      </g>
     </g>
     <g id="text_12">
      <!-- 2 -->
      <g transform="translate(40.6375 196.631872) scale(0.1 -0.1)">
       <use xlink:href="#DejaVuSans-32"/>
      </g>
     </g>
    </g>
    <g id="ytick_4">
     <g id="line2d_23">
      <path d="M 54 163.24898 
L 388.8 163.24898 
" clip-path="url(#p7da1fa8cea)" style="fill: none; stroke: #b0b0b0; stroke-width: 0.8; stroke-linecap: square"/>
     </g>
     <g id="line2d_24">
      <g>
       <use xlink:href="#m2569ec8f5c" x="54" y="163.24898" style="stroke: #000000; stroke-width: 0.8"/>
      </g>
     </g>
     <g id="text_13">
      <!-- 3 -->
      <g transform="translate(40.6375 167.048198) scale(0.1 -0.1)">
       <defs>
        <path id="DejaVuSans-33" d="M 2597 2516 
Q 3050 2419 3304 2112 
Q 3559 1806 3559 1356 
Q 3559 666 3084 287 
Q 2609 -91 1734 -91 
Q 1441 -91 1130 -33 
Q 819 25 488 141 
L 488 750 
Q 750 597 1062 519 
Q 1375 441 1716 441 
Q 2309 441 2620 675 
Q 2931 909 2931 1356 
Q 2931 1769 2642 2001 
Q 2353 2234 1838 2234 
L 1294 2234 
L 1294 2753 
L 1863 2753 
Q 2328 2753 2575 2939 
Q 2822 3125 2822 3475 
Q 2822 3834 2567 4026 
Q 2313 4219 1838 4219 
Q 1578 4219 1281 4162 
Q 984 4106 628 3988 
L 628 4550 
Q 988 4650 1302 4700 
Q 1616 4750 1894 4750 
Q 2613 4750 3031 4423 
Q 3450 4097 3450 3541 
Q 3450 3153 3228 2886 
Q 3006 2619 2597 2516 
z
" transform="scale(0.015625)"/>
       </defs>
       <use xlink:href="#DejaVuSans-33"/>
      </g>
     </g>
    </g>
    <g id="ytick_5">
     <g id="line2d_25">
      <path d="M 54 133.665306 
L 388.8 133.665306 
" clip-path="url(#p7da1fa8cea)" style="fill: none; stroke: #b0b0b0; stroke-width: 0.8; stroke-linecap: square"/>
     </g>
     <g id="line2d_26">
      <g>
       <use xlink:href="#m2569ec8f5c" x="54" y="133.665306" style="stroke: #000000; stroke-width: 0.8"/>
      </g>
     </g>
     <g id="text_14">
      <!-- 4 -->
      <g transform="translate(40.6375 137.464525) scale(0.1 -0.1)">
       <defs>
        <path id="DejaVuSans-34" d="M 2419 4116 
L 825 1625 
L 2419 1625 
L 2419 4116 
z
M 2253 4666 
L 3047 4666 
L 3047 1625 
L 3713 1625 
L 3713 1100 
L 3047 1100 
L 3047 0 
L 2419 0 
L 2419 1100 
L 313 1100 
L 313 1709 
L 2253 4666 
z
" transform="scale(0.015625)"/>
       </defs>
       <use xlink:href="#DejaVuSans-34"/>
      </g>
     </g>
    </g>
    <g id="ytick_6">
     <g id="line2d_27">
      <path d="M 54 104.081633 
L 388.8 104.081633 
" clip-path="url(#p7da1fa8cea)" style="fill: none; stroke: #b0b0b0; stroke-width: 0.8; stroke-linecap: square"/>
     </g>
     <g id="line2d_28">
      <g>
       <use xlink:href="#m2569ec8f5c" x="54" y="104.081633" style="stroke: #000000; stroke-width: 0.8"/>
      </g>
     </g>
     <g id="text_15">
      <!-- 5 -->
      <g transform="translate(40.6375 107.880851) scale(0.1 -0.1)">
       <use xlink:href="#DejaVuSans-35"/>
      </g>
     </g>
    </g>
    <g id="ytick_7">
     <g id="line2d_29">
      <path d="M 54 74.497959 
L 388.8 74.497959 
" clip-path="url(#p7da1fa8cea)" style="fill: none; stroke: #b0b0b0; stroke-width: 0.8; stroke-linecap: square"/>
     </g>
     <g id="line2d_30">
      <g>
       <use xlink:href="#m2569ec8f5c" x="54" y="74.497959" style="stroke: #000000; stroke-width: 0.8"/>
      </g>
     </g>
     <g id="text_16">
      <!-- 6 -->
      <g transform="translate(40.6375 78.297178) scale(0.1 -0.1)">
       <defs>
        <path id="DejaVuSans-36" d="M 2113 2584 
Q 1688 2584 1439 2293 
Q 1191 2003 1191 1497 
Q 1191 994 1439 701 
Q 1688 409 2113 409 
Q 2538 409 2786 701 
Q 3034 994 3034 1497 
Q 3034 2003 2786 2293 
Q 2538 2584 2113 2584 
z
M 3366 4563 
L 3366 3988 
Q 3128 4100 2886 4159 
Q 2644 4219 2406 4219 
Q 1781 4219 1451 3797 
Q 1122 3375 1075 2522 
Q 1259 2794 1537 2939 
Q 1816 3084 2150 3084 
Q 2853 3084 3261 2657 
Q 3669 2231 3669 1497 
Q 3669 778 3244 343 
Q 2819 -91 2113 -91 
Q 1303 -91 875 529 
Q 447 1150 447 2328 
Q 447 3434 972 4092 
Q 1497 4750 2381 4750 
Q 2619 4750 2861 4703 
Q 3103 4656 3366 4563 
z
" transform="scale(0.015625)"/>
       </defs>
       <use xlink:href="#DejaVuSans-36"/>
      </g>
     </g>
    </g>
    <g id="ytick_8">
     <g id="line2d_31">
      <path d="M 54 44.914286 
L 388.8 44.914286 
" clip-path="url(#p7da1fa8cea)" style="fill: none; stroke: #b0b0b0; stroke-width: 0.8; stroke-linecap: square"/>
     </g>
     <g id="line2d_32">
      <g>
       <use xlink:href="#m2569ec8f5c" x="54" y="44.914286" style="stroke: #000000; stroke-width: 0.8"/>
      </g>
     </g>
     <g id="text_17">
      <!-- 7 -->
      <g transform="translate(40.6375 48.713504) scale(0.1 -0.1)">
       <use xlink:href="#DejaVuSans-37"/>
      </g>
     </g>
    </g>
    <g id="text_18">
     <!-- # of events -->
     <g transform="translate(34.557812 172.313594) rotate(-90) scale(0.1 -0.1)">
      <defs>
       <path id="DejaVuSans-65" d="M 3597 1894 
L 3597 1613 
L 953 1613 
Q 991 1019 1311 708 
Q 1631 397 2203 397 
Q 2534 397 2845 478 
Q 3156 559 3463 722 
L 3463 178 
Q 3153 47 2828 -22 
Q 2503 -91 2169 -91 
Q 1331 -91 842 396 
Q 353 884 353 1716 
Q 353 2575 817 3079 
Q 1281 3584 2069 3584 
Q 2775 3584 3186 3129 
Q 3597 2675 3597 1894 
z
M 3022 2063 
Q 3016 2534 2758 2815 
Q 2500 3097 2075 3097 
Q 1594 3097 1305 2825 
Q 1016 2553 972 2059 
L 3022 2063 
z
" transform="scale(0.015625)"/>
       <path id="DejaVuSans-76" d="M 191 3500 
L 800 3500 
L 1894 563 
L 2988 3500 
L 3597 3500 
L 2284 0 
L 1503 0 
L 191 3500 
z
" transform="scale(0.015625)"/>
      </defs>
      <use xlink:href="#DejaVuSans-23"/>
      <use xlink:href="#DejaVuSans-20" x="83.789062"/>
      <use xlink:href="#DejaVuSans-6f" x="115.576172"/>
      <use xlink:href="#DejaVuSans-66" x="176.757812"/>
      <use xlink:href="#DejaVuSans-20" x="211.962891"/>
      <use xlink:href="#DejaVuSans-65" x="243.75"/>
      <use xlink:href="#DejaVuSans-76" x="305.273438"/>
      <use xlink:href="#DejaVuSans-65" x="364.453125"/>
      <use xlink:href="#DejaVuSans-6e" x="425.976562"/>
      <use xlink:href="#DejaVuSans-74" x="489.355469"/>
      <use xlink:href="#DejaVuSans-73" x="528.564453"/>
     </g>
    </g>
   </g>
   <g id="patch_176">
    <path d="M 54 252 
L 54 34.56 
" style="fill: none; stroke: #000000; stroke-width: 0.8; stroke-linejoin: miter; stroke-linecap: square"/>
   </g>
   <g id="patch_177">
    <path d="M 388.8 252 
L 388.8 34.56 
" style="fill: none; stroke: #000000; stroke-width: 0.8; stroke-linejoin: miter; stroke-linecap: square"/>
   </g>
   <g id="patch_178">
    <path d="M 54 252 
L 388.8 252 
" style="fill: none; stroke: #000000; stroke-width: 0.8; stroke-linejoin: miter; stroke-linecap: square"/>
   </g>
   <g id="patch_179">
    <path d="M 54 34.56 
L 388.8 34.56 
" style="fill: none; stroke: #000000; stroke-width: 0.8; stroke-linejoin: miter; stroke-linecap: square"/>
   </g>
   <g id="text_19">
    <!-- $\mu=85.53,\ \sigma=24.687$ -->
    <g transform="translate(124.636994 163.24898) scale(0.14 -0.14)">
     <defs>
      <path id="DejaVuSans-Oblique-3bc" d="M -84 -1331 
L 856 3500 
L 1434 3500 
L 1009 1322 
Q 997 1256 987 1175 
Q 978 1094 978 1013 
Q 978 722 1161 565 
Q 1344 409 1684 409 
Q 2147 409 2431 671 
Q 2716 934 2816 1459 
L 3213 3500 
L 3788 3500 
L 3266 809 
Q 3253 750 3248 706 
Q 3244 663 3244 628 
Q 3244 531 3283 486 
Q 3322 441 3406 441 
Q 3438 441 3492 456 
Q 3547 472 3647 513 
L 3559 50 
Q 3422 -19 3297 -55 
Q 3172 -91 3053 -91 
Q 2847 -91 2730 40 
Q 2613 172 2613 403 
Q 2438 153 2195 31 
Q 1953 -91 1625 -91 
Q 1334 -91 1117 43 
Q 900 178 831 397 
L 494 -1331 
L -84 -1331 
z
" transform="scale(0.015625)"/>
      <path id="DejaVuSans-3d" d="M 678 2906 
L 4684 2906 
L 4684 2381 
L 678 2381 
L 678 2906 
z
M 678 1631 
L 4684 1631 
L 4684 1100 
L 678 1100 
L 678 1631 
z
" transform="scale(0.015625)"/>
      <path id="DejaVuSans-38" d="M 2034 2216 
Q 1584 2216 1326 1975 
Q 1069 1734 1069 1313 
Q 1069 891 1326 650 
Q 1584 409 2034 409 
Q 2484 409 2743 651 
Q 3003 894 3003 1313 
Q 3003 1734 2745 1975 
Q 2488 2216 2034 2216 
z
M 1403 2484 
Q 997 2584 770 2862 
Q 544 3141 544 3541 
Q 544 4100 942 4425 
Q 1341 4750 2034 4750 
Q 2731 4750 3128 4425 
Q 3525 4100 3525 3541 
Q 3525 3141 3298 2862 
Q 3072 2584 2669 2484 
Q 3125 2378 3379 2068 
Q 3634 1759 3634 1313 
Q 3634 634 3220 271 
Q 2806 -91 2034 -91 
Q 1263 -91 848 271 
Q 434 634 434 1313 
Q 434 1759 690 2068 
Q 947 2378 1403 2484 
z
M 1172 3481 
Q 1172 3119 1398 2916 
Q 1625 2713 2034 2713 
Q 2441 2713 2670 2916 
Q 2900 3119 2900 3481 
Q 2900 3844 2670 4047 
Q 2441 4250 2034 4250 
Q 1625 4250 1398 4047 
Q 1172 3844 1172 3481 
z
" transform="scale(0.015625)"/>
      <path id="DejaVuSans-2e" d="M 684 794 
L 1344 794 
L 1344 0 
L 684 0 
L 684 794 
z
" transform="scale(0.015625)"/>
      <path id="DejaVuSans-2c" d="M 750 794 
L 1409 794 
L 1409 256 
L 897 -744 
L 494 -744 
L 750 256 
L 750 794 
z
" transform="scale(0.015625)"/>
      <path id="DejaVuSans-Oblique-3c3" d="M 2219 3044 
Q 1744 3044 1422 2700 
Q 1081 2341 969 1747 
Q 844 1119 1044 756 
Q 1241 397 1706 397 
Q 2166 397 2503 759 
Q 2844 1122 2966 1747 
Q 3075 2319 2881 2700 
Q 2700 3044 2219 3044 
z
M 2309 3503 
L 4219 3500 
L 4106 2925 
L 3463 2925 
Q 3706 2438 3575 1747 
Q 3406 888 2884 400 
Q 2359 -91 1609 -91 
Q 856 -91 525 400 
Q 194 888 363 1747 
Q 528 2609 1050 3097 
Q 1484 3503 2309 3503 
z
" transform="scale(0.015625)"/>
     </defs>
     <use xlink:href="#DejaVuSans-Oblique-3bc" transform="translate(0 0.78125)"/>
     <use xlink:href="#DejaVuSans-3d" transform="translate(83.105469 0.78125)"/>
     <use xlink:href="#DejaVuSans-38" transform="translate(186.376953 0.78125)"/>
     <use xlink:href="#DejaVuSans-35" transform="translate(250 0.78125)"/>
     <use xlink:href="#DejaVuSans-2e" transform="translate(313.623047 0.78125)"/>
     <use xlink:href="#DejaVuSans-35" transform="translate(345.410156 0.78125)"/>
     <use xlink:href="#DejaVuSans-33" transform="translate(409.033203 0.78125)"/>
     <use xlink:href="#DejaVuSans-2c" transform="translate(472.65625 0.78125)"/>
     <use xlink:href="#DejaVuSans-Oblique-3c3" transform="translate(556.39616 0.78125)"/>
     <use xlink:href="#DejaVuSans-3d" transform="translate(639.257488 0.78125)"/>
     <use xlink:href="#DejaVuSans-32" transform="translate(742.528972 0.78125)"/>
     <use xlink:href="#DejaVuSans-34" transform="translate(806.152019 0.78125)"/>
     <use xlink:href="#DejaVuSans-2e" transform="translate(869.775066 0.78125)"/>
     <use xlink:href="#DejaVuSans-36" transform="translate(901.562175 0.78125)"/>
     <use xlink:href="#DejaVuSans-38" transform="translate(965.185222 0.78125)"/>
     <use xlink:href="#DejaVuSans-37" transform="translate(1028.808269 0.78125)"/>
    </g>
   </g>
   <g id="text_20">
    <!-- # of photons, 5GeV mu-, 1.5m length segment -->
    <g transform="translate(80.289375 28.56) scale(0.12 -0.12)">
     <defs>
      <path id="DejaVuSans-47" d="M 3809 666 
L 3809 1919 
L 2778 1919 
L 2778 2438 
L 4434 2438 
L 4434 434 
Q 4069 175 3628 42 
Q 3188 -91 2688 -91 
Q 1594 -91 976 548 
Q 359 1188 359 2328 
Q 359 3472 976 4111 
Q 1594 4750 2688 4750 
Q 3144 4750 3555 4637 
Q 3966 4525 4313 4306 
L 4313 3634 
Q 3963 3931 3569 4081 
Q 3175 4231 2741 4231 
Q 1884 4231 1454 3753 
Q 1025 3275 1025 2328 
Q 1025 1384 1454 906 
Q 1884 428 2741 428 
Q 3075 428 3337 486 
Q 3600 544 3809 666 
z
" transform="scale(0.015625)"/>
      <path id="DejaVuSans-56" d="M 1831 0 
L 50 4666 
L 709 4666 
L 2188 738 
L 3669 4666 
L 4325 4666 
L 2547 0 
L 1831 0 
z
" transform="scale(0.015625)"/>
      <path id="DejaVuSans-6d" d="M 3328 2828 
Q 3544 3216 3844 3400 
Q 4144 3584 4550 3584 
Q 5097 3584 5394 3201 
Q 5691 2819 5691 2113 
L 5691 0 
L 5113 0 
L 5113 2094 
Q 5113 2597 4934 2840 
Q 4756 3084 4391 3084 
Q 3944 3084 3684 2787 
Q 3425 2491 3425 1978 
L 3425 0 
L 2847 0 
L 2847 2094 
Q 2847 2600 2669 2842 
Q 2491 3084 2119 3084 
Q 1678 3084 1418 2786 
Q 1159 2488 1159 1978 
L 1159 0 
L 581 0 
L 581 3500 
L 1159 3500 
L 1159 2956 
Q 1356 3278 1631 3431 
Q 1906 3584 2284 3584 
Q 2666 3584 2933 3390 
Q 3200 3197 3328 2828 
z
" transform="scale(0.015625)"/>
      <path id="DejaVuSans-75" d="M 544 1381 
L 544 3500 
L 1119 3500 
L 1119 1403 
Q 1119 906 1312 657 
Q 1506 409 1894 409 
Q 2359 409 2629 706 
Q 2900 1003 2900 1516 
L 2900 3500 
L 3475 3500 
L 3475 0 
L 2900 0 
L 2900 538 
Q 2691 219 2414 64 
Q 2138 -91 1772 -91 
Q 1169 -91 856 284 
Q 544 659 544 1381 
z
M 1991 3584 
L 1991 3584 
z
" transform="scale(0.015625)"/>
      <path id="DejaVuSans-2d" d="M 313 2009 
L 1997 2009 
L 1997 1497 
L 313 1497 
L 313 2009 
z
" transform="scale(0.015625)"/>
      <path id="DejaVuSans-6c" d="M 603 4863 
L 1178 4863 
L 1178 0 
L 603 0 
L 603 4863 
z
" transform="scale(0.015625)"/>
      <path id="DejaVuSans-67" d="M 2906 1791 
Q 2906 2416 2648 2759 
Q 2391 3103 1925 3103 
Q 1463 3103 1205 2759 
Q 947 2416 947 1791 
Q 947 1169 1205 825 
Q 1463 481 1925 481 
Q 2391 481 2648 825 
Q 2906 1169 2906 1791 
z
M 3481 434 
Q 3481 -459 3084 -895 
Q 2688 -1331 1869 -1331 
Q 1566 -1331 1297 -1286 
Q 1028 -1241 775 -1147 
L 775 -588 
Q 1028 -725 1275 -790 
Q 1522 -856 1778 -856 
Q 2344 -856 2625 -561 
Q 2906 -266 2906 331 
L 2906 616 
Q 2728 306 2450 153 
Q 2172 0 1784 0 
Q 1141 0 747 490 
Q 353 981 353 1791 
Q 353 2603 747 3093 
Q 1141 3584 1784 3584 
Q 2172 3584 2450 3431 
Q 2728 3278 2906 2969 
L 2906 3500 
L 3481 3500 
L 3481 434 
z
" transform="scale(0.015625)"/>
     </defs>
     <use xlink:href="#DejaVuSans-23"/>
     <use xlink:href="#DejaVuSans-20" x="83.789062"/>
     <use xlink:href="#DejaVuSans-6f" x="115.576172"/>
     <use xlink:href="#DejaVuSans-66" x="176.757812"/>
     <use xlink:href="#DejaVuSans-20" x="211.962891"/>
     <use xlink:href="#DejaVuSans-70" x="243.75"/>
     <use xlink:href="#DejaVuSans-68" x="307.226562"/>
     <use xlink:href="#DejaVuSans-6f" x="370.605469"/>
     <use xlink:href="#DejaVuSans-74" x="431.787109"/>
     <use xlink:href="#DejaVuSans-6f" x="470.996094"/>
     <use xlink:href="#DejaVuSans-6e" x="532.177734"/>
     <use xlink:href="#DejaVuSans-73" x="595.556641"/>
     <use xlink:href="#DejaVuSans-2c" x="647.65625"/>
     <use xlink:href="#DejaVuSans-20" x="679.443359"/>
     <use xlink:href="#DejaVuSans-35" x="711.230469"/>
     <use xlink:href="#DejaVuSans-47" x="774.853516"/>
     <use xlink:href="#DejaVuSans-65" x="852.34375"/>
     <use xlink:href="#DejaVuSans-56" x="913.867188"/>
     <use xlink:href="#DejaVuSans-20" x="982.275391"/>
     <use xlink:href="#DejaVuSans-6d" x="1014.0625"/>
     <use xlink:href="#DejaVuSans-75" x="1111.474609"/>
     <use xlink:href="#DejaVuSans-2d" x="1174.853516"/>
     <use xlink:href="#DejaVuSans-2c" x="1210.9375"/>
     <use xlink:href="#DejaVuSans-20" x="1242.724609"/>
     <use xlink:href="#DejaVuSans-31" x="1274.511719"/>
     <use xlink:href="#DejaVuSans-2e" x="1338.134766"/>
     <use xlink:href="#DejaVuSans-35" x="1369.921875"/>
     <use xlink:href="#DejaVuSans-6d" x="1433.544922"/>
     <use xlink:href="#DejaVuSans-20" x="1530.957031"/>
     <use xlink:href="#DejaVuSans-6c" x="1562.744141"/>
     <use xlink:href="#DejaVuSans-65" x="1590.527344"/>
     <use xlink:href="#DejaVuSans-6e" x="1652.050781"/>
     <use xlink:href="#DejaVuSans-67" x="1715.429688"/>
     <use xlink:href="#DejaVuSans-74" x="1778.90625"/>
     <use xlink:href="#DejaVuSans-68" x="1818.115234"/>
     <use xlink:href="#DejaVuSans-20" x="1881.494141"/>
     <use xlink:href="#DejaVuSans-73" x="1913.28125"/>
     <use xlink:href="#DejaVuSans-65" x="1965.380859"/>
     <use xlink:href="#DejaVuSans-67" x="2026.904297"/>
     <use xlink:href="#DejaVuSans-6d" x="2090.380859"/>
     <use xlink:href="#DejaVuSans-65" x="2187.792969"/>
     <use xlink:href="#DejaVuSans-6e" x="2249.316406"/>
     <use xlink:href="#DejaVuSans-74" x="2312.695312"/>
    </g>
   </g>
  </g>
 </g>
 <defs>
  <clipPath id="p7da1fa8cea">
   <rect x="54" y="34.56" width="334.8" height="217.44"/>
  </clipPath>
 </defs>
</svg>
