<?xml version="1.0" encoding="utf-8" standalone="no"?>
<!DOCTYPE svg PUBLIC "-//W3C//DTD SVG 1.1//EN"
  "http://www.w3.org/Graphics/SVG/1.1/DTD/svg11.dtd">
<svg xmlns:xlink="http://www.w3.org/1999/xlink" width="432pt" height="288pt" viewBox="0 0 432 288" xmlns="http://www.w3.org/2000/svg" version="1.1">
 <metadata>
  <rdf:RDF xmlns:dc="http://purl.org/dc/elements/1.1/" xmlns:cc="http://creativecommons.org/ns#" xmlns:rdf="http://www.w3.org/1999/02/22-rdf-syntax-ns#">
   <cc:Work>
    <dc:type rdf:resource="http://purl.org/dc/dcmitype/StillImage"/>
    <dc:date>2024-06-03T14:44:40.683580</dc:date>
    <dc:format>image/svg+xml</dc:format>
    <dc:creator>
     <cc:Agent>
      <dc:title>Matplotlib v3.7.4, https://matplotlib.org/</dc:title>
     </cc:Agent>
    </dc:creator>
   </cc:Work>
  </rdf:RDF>
 </metadata>
 <defs>
  <style type="text/css">*{stroke-linejoin: round; stroke-linecap: butt}</style>
 </defs>
 <g id="figure_1">
  <g id="patch_1">
   <path d="M 0 288 
L 432 288 
L 432 0 
L 0 0 
L 0 288 
z
" style="fill: none"/>
  </g>
  <g id="axes_1">
   <g id="patch_2">
    <path d="M 54 252 
L 388.8 252 
L 388.8 34.56 
L 54 34.56 
z
" style="fill: #ffffff"/>
   </g>
   <g id="patch_3">
    <path d="M 69.218182 252 
L 71.541568 252 
L 71.541568 251.567671 
L 69.218182 251.567671 
z
" clip-path="url(#p9dfe1211ee)" style="fill: #0000ff"/>
   </g>
   <g id="patch_4">
    <path d="M 71.541568 252 
L 73.864955 252 
L 73.864955 252 
L 71.541568 252 
z
" clip-path="url(#p9dfe1211ee)" style="fill: #0000ff"/>
   </g>
   <g id="patch_5">
    <path d="M 73.864955 252 
L 76.188341 252 
L 76.188341 251.567671 
L 73.864955 251.567671 
z
" clip-path="url(#p9dfe1211ee)" style="fill: #0000ff"/>
   </g>
   <g id="patch_6">
    <path d="M 76.188341 252 
L 78.511728 252 
L 78.511728 252 
L 76.188341 252 
z
" clip-path="url(#p9dfe1211ee)" style="fill: #0000ff"/>
   </g>
   <g id="patch_7">
    <path d="M 78.511728 252 
L 80.835115 252 
L 80.835115 252 
L 78.511728 252 
z
" clip-path="url(#p9dfe1211ee)" style="fill: #0000ff"/>
   </g>
   <g id="patch_8">
    <path d="M 80.835115 252 
L 83.158501 252 
L 83.158501 252 
L 80.835115 252 
z
" clip-path="url(#p9dfe1211ee)" style="fill: #0000ff"/>
   </g>
   <g id="patch_9">
    <path d="M 83.158501 252 
L 85.481888 252 
L 85.481888 251.567671 
L 83.158501 251.567671 
z
" clip-path="url(#p9dfe1211ee)" style="fill: #0000ff"/>
   </g>
   <g id="patch_10">
    <path d="M 85.481888 252 
L 87.805274 252 
L 87.805274 249.838354 
L 85.481888 249.838354 
z
" clip-path="url(#p9dfe1211ee)" style="fill: #0000ff"/>
   </g>
   <g id="patch_11">
    <path d="M 87.805274 252 
L 90.128661 252 
L 90.128661 247.676707 
L 87.805274 247.676707 
z
" clip-path="url(#p9dfe1211ee)" style="fill: #0000ff"/>
   </g>
   <g id="patch_12">
    <path d="M 90.128661 252 
L 92.452047 252 
L 92.452047 246.37972 
L 90.128661 246.37972 
z
" clip-path="url(#p9dfe1211ee)" style="fill: #0000ff"/>
   </g>
   <g id="patch_13">
    <path d="M 92.452047 252 
L 94.775434 252 
L 94.775434 242.056427 
L 92.452047 242.056427 
z
" clip-path="url(#p9dfe1211ee)" style="fill: #0000ff"/>
   </g>
   <g id="patch_14">
    <path d="M 94.775434 252 
L 97.09882 252 
L 97.09882 236.003817 
L 94.775434 236.003817 
z
" clip-path="url(#p9dfe1211ee)" style="fill: #0000ff"/>
   </g>
   <g id="patch_15">
    <path d="M 97.09882 252 
L 99.422207 252 
L 99.422207 231.248196 
L 97.09882 231.248196 
z
" clip-path="url(#p9dfe1211ee)" style="fill: #0000ff"/>
   </g>
   <g id="patch_16">
    <path d="M 99.422207 252 
L 101.745593 252 
L 101.745593 218.710647 
L 99.422207 218.710647 
z
" clip-path="url(#p9dfe1211ee)" style="fill: #0000ff"/>
   </g>
   <g id="patch_17">
    <path d="M 101.745593 252 
L 104.06898 252 
L 104.06898 216.98133 
L 101.745593 216.98133 
z
" clip-path="url(#p9dfe1211ee)" style="fill: #0000ff"/>
   </g>
   <g id="patch_18">
    <path d="M 104.06898 252 
L 106.392366 252 
L 106.392366 199.68816 
L 104.06898 199.68816 
z
" clip-path="url(#p9dfe1211ee)" style="fill: #0000ff"/>
   </g>
   <g id="patch_19">
    <path d="M 106.392366 252 
L 108.715753 252 
L 108.715753 185.853624 
L 106.392366 185.853624 
z
" clip-path="url(#p9dfe1211ee)" style="fill: #0000ff"/>
   </g>
   <g id="patch_20">
    <path d="M 108.715753 252 
L 111.039139 252 
L 111.039139 178.936356 
L 108.715753 178.936356 
z
" clip-path="url(#p9dfe1211ee)" style="fill: #0000ff"/>
   </g>
   <g id="patch_21">
    <path d="M 111.039139 252 
L 113.362526 252 
L 113.362526 146.94399 
L 111.039139 146.94399 
z
" clip-path="url(#p9dfe1211ee)" style="fill: #0000ff"/>
   </g>
   <g id="patch_22">
    <path d="M 113.362526 252 
L 115.685913 252 
L 115.685913 141.32371 
L 113.362526 141.32371 
z
" clip-path="url(#p9dfe1211ee)" style="fill: #0000ff"/>
   </g>
   <g id="patch_23">
    <path d="M 115.685913 252 
L 118.009299 252 
L 118.009299 124.03054 
L 115.685913 124.03054 
z
" clip-path="url(#p9dfe1211ee)" style="fill: #0000ff"/>
   </g>
   <g id="patch_24">
    <path d="M 118.009299 252 
L 120.332686 252 
L 120.332686 111.060662 
L 118.009299 111.060662 
z
" clip-path="url(#p9dfe1211ee)" style="fill: #0000ff"/>
   </g>
   <g id="patch_25">
    <path d="M 120.332686 252 
L 122.656072 252 
L 122.656072 88.579541 
L 120.332686 88.579541 
z
" clip-path="url(#p9dfe1211ee)" style="fill: #0000ff"/>
   </g>
   <g id="patch_26">
    <path d="M 122.656072 252 
L 124.979459 252 
L 124.979459 78.203639 
L 122.656072 78.203639 
z
" clip-path="url(#p9dfe1211ee)" style="fill: #0000ff"/>
   </g>
   <g id="patch_27">
    <path d="M 124.979459 252 
L 127.302845 252 
L 127.302845 72.151029 
L 124.979459 72.151029 
z
" clip-path="url(#p9dfe1211ee)" style="fill: #0000ff"/>
   </g>
   <g id="patch_28">
    <path d="M 127.302845 252 
L 129.626232 252 
L 129.626232 54.857859 
L 127.302845 54.857859 
z
" clip-path="url(#p9dfe1211ee)" style="fill: #0000ff"/>
   </g>
   <g id="patch_29">
    <path d="M 129.626232 252 
L 131.949618 252 
L 131.949618 44.914286 
L 129.626232 44.914286 
z
" clip-path="url(#p9dfe1211ee)" style="fill: #0000ff"/>
   </g>
   <g id="patch_30">
    <path d="M 131.949618 252 
L 134.273005 252 
L 134.273005 55.290188 
L 131.949618 55.290188 
z
" clip-path="url(#p9dfe1211ee)" style="fill: #0000ff"/>
   </g>
   <g id="patch_31">
    <path d="M 134.273005 252 
L 136.596391 252 
L 136.596391 70.421712 
L 134.273005 70.421712 
z
" clip-path="url(#p9dfe1211ee)" style="fill: #0000ff"/>
   </g>
   <g id="patch_32">
    <path d="M 136.596391 252 
L 138.919778 252 
L 138.919778 81.229943 
L 136.596391 81.229943 
z
" clip-path="url(#p9dfe1211ee)" style="fill: #0000ff"/>
   </g>
   <g id="patch_33">
    <path d="M 138.919778 252 
L 141.243164 252 
L 141.243164 70.421712 
L 138.919778 70.421712 
z
" clip-path="url(#p9dfe1211ee)" style="fill: #0000ff"/>
   </g>
   <g id="patch_34">
    <path d="M 141.243164 252 
L 143.566551 252 
L 143.566551 86.850224 
L 141.243164 86.850224 
z
" clip-path="url(#p9dfe1211ee)" style="fill: #0000ff"/>
   </g>
   <g id="patch_35">
    <path d="M 143.566551 252 
L 145.889938 252 
L 145.889938 113.222308 
L 143.566551 113.222308 
z
" clip-path="url(#p9dfe1211ee)" style="fill: #0000ff"/>
   </g>
   <g id="patch_36">
    <path d="M 145.889938 252 
L 148.213324 252 
L 148.213324 98.523114 
L 145.889938 98.523114 
z
" clip-path="url(#p9dfe1211ee)" style="fill: #0000ff"/>
   </g>
   <g id="patch_37">
    <path d="M 148.213324 252 
L 150.536711 252 
L 150.536711 114.519296 
L 148.213324 114.519296 
z
" clip-path="url(#p9dfe1211ee)" style="fill: #0000ff"/>
   </g>
   <g id="patch_38">
    <path d="M 150.536711 252 
L 152.860097 252 
L 152.860097 127.056845 
L 150.536711 127.056845 
z
" clip-path="url(#p9dfe1211ee)" style="fill: #0000ff"/>
   </g>
   <g id="patch_39">
    <path d="M 152.860097 252 
L 155.183484 252 
L 155.183484 129.65082 
L 152.860097 129.65082 
z
" clip-path="url(#p9dfe1211ee)" style="fill: #0000ff"/>
   </g>
   <g id="patch_40">
    <path d="M 155.183484 252 
L 157.50687 252 
L 157.50687 149.970295 
L 155.183484 149.970295 
z
" clip-path="url(#p9dfe1211ee)" style="fill: #0000ff"/>
   </g>
   <g id="patch_41">
    <path d="M 157.50687 252 
L 159.830257 252 
L 159.830257 178.936356 
L 157.50687 178.936356 
z
" clip-path="url(#p9dfe1211ee)" style="fill: #0000ff"/>
   </g>
   <g id="patch_42">
    <path d="M 159.830257 252 
L 162.153643 252 
L 162.153643 175.477721 
L 159.830257 175.477721 
z
" clip-path="url(#p9dfe1211ee)" style="fill: #0000ff"/>
   </g>
   <g id="patch_43">
    <path d="M 162.153643 252 
L 164.47703 252 
L 164.47703 181.530331 
L 162.153643 181.530331 
z
" clip-path="url(#p9dfe1211ee)" style="fill: #0000ff"/>
   </g>
   <g id="patch_44">
    <path d="M 164.47703 252 
L 166.800416 252 
L 166.800416 193.203221 
L 164.47703 193.203221 
z
" clip-path="url(#p9dfe1211ee)" style="fill: #0000ff"/>
   </g>
   <g id="patch_45">
    <path d="M 166.800416 252 
L 169.123803 252 
L 169.123803 205.740769 
L 166.800416 205.740769 
z
" clip-path="url(#p9dfe1211ee)" style="fill: #0000ff"/>
   </g>
   <g id="patch_46">
    <path d="M 169.123803 252 
L 171.447189 252 
L 171.447189 192.770892 
L 169.123803 192.770892 
z
" clip-path="url(#p9dfe1211ee)" style="fill: #0000ff"/>
   </g>
   <g id="patch_47">
    <path d="M 171.447189 252 
L 173.770576 252 
L 173.770576 205.30844 
L 171.447189 205.30844 
z
" clip-path="url(#p9dfe1211ee)" style="fill: #0000ff"/>
   </g>
   <g id="patch_48">
    <path d="M 173.770576 252 
L 176.093963 252 
L 176.093963 215.252013 
L 173.770576 215.252013 
z
" clip-path="url(#p9dfe1211ee)" style="fill: #0000ff"/>
   </g>
   <g id="patch_49">
    <path d="M 176.093963 252 
L 178.417349 252 
L 178.417349 218.278318 
L 176.093963 218.278318 
z
" clip-path="url(#p9dfe1211ee)" style="fill: #0000ff"/>
   </g>
   <g id="patch_50">
    <path d="M 178.417349 252 
L 180.740736 252 
L 180.740736 220.007635 
L 178.417349 220.007635 
z
" clip-path="url(#p9dfe1211ee)" style="fill: #0000ff"/>
   </g>
   <g id="patch_51">
    <path d="M 180.740736 252 
L 183.064122 252 
L 183.064122 222.169281 
L 180.740736 222.169281 
z
" clip-path="url(#p9dfe1211ee)" style="fill: #0000ff"/>
   </g>
   <g id="patch_52">
    <path d="M 183.064122 252 
L 185.387509 252 
L 185.387509 224.330928 
L 183.064122 224.330928 
z
" clip-path="url(#p9dfe1211ee)" style="fill: #0000ff"/>
   </g>
   <g id="patch_53">
    <path d="M 185.387509 252 
L 187.710895 252 
L 187.710895 229.518879 
L 185.387509 229.518879 
z
" clip-path="url(#p9dfe1211ee)" style="fill: #0000ff"/>
   </g>
   <g id="patch_54">
    <path d="M 187.710895 252 
L 190.034282 252 
L 190.034282 226.492574 
L 187.710895 226.492574 
z
" clip-path="url(#p9dfe1211ee)" style="fill: #0000ff"/>
   </g>
   <g id="patch_55">
    <path d="M 190.034282 252 
L 192.357668 252 
L 192.357668 237.300805 
L 190.034282 237.300805 
z
" clip-path="url(#p9dfe1211ee)" style="fill: #0000ff"/>
   </g>
   <g id="patch_56">
    <path d="M 192.357668 252 
L 194.681055 252 
L 194.681055 236.868476 
L 192.357668 236.868476 
z
" clip-path="url(#p9dfe1211ee)" style="fill: #0000ff"/>
   </g>
   <g id="patch_57">
    <path d="M 194.681055 252 
L 197.004441 252 
L 197.004441 234.2745 
L 194.681055 234.2745 
z
" clip-path="url(#p9dfe1211ee)" style="fill: #0000ff"/>
   </g>
   <g id="patch_58">
    <path d="M 197.004441 252 
L 199.327828 252 
L 199.327828 235.571488 
L 197.004441 235.571488 
z
" clip-path="url(#p9dfe1211ee)" style="fill: #0000ff"/>
   </g>
   <g id="patch_59">
    <path d="M 199.327828 252 
L 201.651214 252 
L 201.651214 239.030122 
L 199.327828 239.030122 
z
" clip-path="url(#p9dfe1211ee)" style="fill: #0000ff"/>
   </g>
   <g id="patch_60">
    <path d="M 201.651214 252 
L 203.974601 252 
L 203.974601 239.462452 
L 201.651214 239.462452 
z
" clip-path="url(#p9dfe1211ee)" style="fill: #0000ff"/>
   </g>
   <g id="patch_61">
    <path d="M 203.974601 252 
L 206.297988 252 
L 206.297988 240.32711 
L 203.974601 240.32711 
z
" clip-path="url(#p9dfe1211ee)" style="fill: #0000ff"/>
   </g>
   <g id="patch_62">
    <path d="M 206.297988 252 
L 208.621374 252 
L 208.621374 239.894781 
L 206.297988 239.894781 
z
" clip-path="url(#p9dfe1211ee)" style="fill: #0000ff"/>
   </g>
   <g id="patch_63">
    <path d="M 208.621374 252 
L 210.944761 252 
L 210.944761 242.921086 
L 208.621374 242.921086 
z
" clip-path="url(#p9dfe1211ee)" style="fill: #0000ff"/>
   </g>
   <g id="patch_64">
    <path d="M 210.944761 252 
L 213.268147 252 
L 213.268147 240.32711 
L 210.944761 240.32711 
z
" clip-path="url(#p9dfe1211ee)" style="fill: #0000ff"/>
   </g>
   <g id="patch_65">
    <path d="M 213.268147 252 
L 215.591534 252 
L 215.591534 244.218073 
L 213.268147 244.218073 
z
" clip-path="url(#p9dfe1211ee)" style="fill: #0000ff"/>
   </g>
   <g id="patch_66">
    <path d="M 215.591534 252 
L 217.91492 252 
L 217.91492 244.218073 
L 215.591534 244.218073 
z
" clip-path="url(#p9dfe1211ee)" style="fill: #0000ff"/>
   </g>
   <g id="patch_67">
    <path d="M 217.91492 252 
L 220.238307 252 
L 220.238307 244.218073 
L 217.91492 244.218073 
z
" clip-path="url(#p9dfe1211ee)" style="fill: #0000ff"/>
   </g>
   <g id="patch_68">
    <path d="M 220.238307 252 
L 222.561693 252 
L 222.561693 243.353415 
L 220.238307 243.353415 
z
" clip-path="url(#p9dfe1211ee)" style="fill: #0000ff"/>
   </g>
   <g id="patch_69">
    <path d="M 222.561693 252 
L 224.88508 252 
L 224.88508 243.785744 
L 222.561693 243.785744 
z
" clip-path="url(#p9dfe1211ee)" style="fill: #0000ff"/>
   </g>
   <g id="patch_70">
    <path d="M 224.88508 252 
L 227.208466 252 
L 227.208466 245.515061 
L 224.88508 245.515061 
z
" clip-path="url(#p9dfe1211ee)" style="fill: #0000ff"/>
   </g>
   <g id="patch_71">
    <path d="M 227.208466 252 
L 229.531853 252 
L 229.531853 247.244378 
L 227.208466 247.244378 
z
" clip-path="url(#p9dfe1211ee)" style="fill: #0000ff"/>
   </g>
   <g id="patch_72">
    <path d="M 229.531853 252 
L 231.855239 252 
L 231.855239 245.94739 
L 229.531853 245.94739 
z
" clip-path="url(#p9dfe1211ee)" style="fill: #0000ff"/>
   </g>
   <g id="patch_73">
    <path d="M 231.855239 252 
L 234.178626 252 
L 234.178626 239.462452 
L 231.855239 239.462452 
z
" clip-path="url(#p9dfe1211ee)" style="fill: #0000ff"/>
   </g>
   <g id="patch_74">
    <path d="M 234.178626 252 
L 236.502012 252 
L 236.502012 246.812049 
L 234.178626 246.812049 
z
" clip-path="url(#p9dfe1211ee)" style="fill: #0000ff"/>
   </g>
   <g id="patch_75">
    <path d="M 236.502012 252 
L 238.825399 252 
L 238.825399 248.541366 
L 236.502012 248.541366 
z
" clip-path="url(#p9dfe1211ee)" style="fill: #0000ff"/>
   </g>
   <g id="patch_76">
    <path d="M 238.825399 252 
L 241.148786 252 
L 241.148786 245.515061 
L 238.825399 245.515061 
z
" clip-path="url(#p9dfe1211ee)" style="fill: #0000ff"/>
   </g>
   <g id="patch_77">
    <path d="M 241.148786 252 
L 243.472172 252 
L 243.472172 248.541366 
L 241.148786 248.541366 
z
" clip-path="url(#p9dfe1211ee)" style="fill: #0000ff"/>
   </g>
   <g id="patch_78">
    <path d="M 243.472172 252 
L 245.795559 252 
L 245.795559 247.244378 
L 243.472172 247.244378 
z
" clip-path="url(#p9dfe1211ee)" style="fill: #0000ff"/>
   </g>
   <g id="patch_79">
    <path d="M 245.795559 252 
L 248.118945 252 
L 248.118945 249.406024 
L 245.795559 249.406024 
z
" clip-path="url(#p9dfe1211ee)" style="fill: #0000ff"/>
   </g>
   <g id="patch_80">
    <path d="M 248.118945 252 
L 250.442332 252 
L 250.442332 248.541366 
L 248.118945 248.541366 
z
" clip-path="url(#p9dfe1211ee)" style="fill: #0000ff"/>
   </g>
   <g id="patch_81">
    <path d="M 250.442332 252 
L 252.765718 252 
L 252.765718 250.703012 
L 250.442332 250.703012 
z
" clip-path="url(#p9dfe1211ee)" style="fill: #0000ff"/>
   </g>
   <g id="patch_82">
    <path d="M 252.765718 252 
L 255.089105 252 
L 255.089105 249.406024 
L 252.765718 249.406024 
z
" clip-path="url(#p9dfe1211ee)" style="fill: #0000ff"/>
   </g>
   <g id="patch_83">
    <path d="M 255.089105 252 
L 257.412491 252 
L 257.412491 248.541366 
L 255.089105 248.541366 
z
" clip-path="url(#p9dfe1211ee)" style="fill: #0000ff"/>
   </g>
   <g id="patch_84">
    <path d="M 257.412491 252 
L 259.735878 252 
L 259.735878 251.135341 
L 257.412491 251.135341 
z
" clip-path="url(#p9dfe1211ee)" style="fill: #0000ff"/>
   </g>
   <g id="patch_85">
    <path d="M 259.735878 252 
L 262.059264 252 
L 262.059264 248.541366 
L 259.735878 248.541366 
z
" clip-path="url(#p9dfe1211ee)" style="fill: #0000ff"/>
   </g>
   <g id="patch_86">
    <path d="M 262.059264 252 
L 264.382651 252 
L 264.382651 250.703012 
L 262.059264 250.703012 
z
" clip-path="url(#p9dfe1211ee)" style="fill: #0000ff"/>
   </g>
   <g id="patch_87">
    <path d="M 264.382651 252 
L 266.706037 252 
L 266.706037 249.838354 
L 264.382651 249.838354 
z
" clip-path="url(#p9dfe1211ee)" style="fill: #0000ff"/>
   </g>
   <g id="patch_88">
    <path d="M 266.706037 252 
L 269.029424 252 
L 269.029424 252 
L 266.706037 252 
z
" clip-path="url(#p9dfe1211ee)" style="fill: #0000ff"/>
   </g>
   <g id="patch_89">
    <path d="M 269.029424 252 
L 271.352811 252 
L 271.352811 249.838354 
L 269.029424 249.838354 
z
" clip-path="url(#p9dfe1211ee)" style="fill: #0000ff"/>
   </g>
   <g id="patch_90">
    <path d="M 271.352811 252 
L 273.676197 252 
L 273.676197 249.838354 
L 271.352811 249.838354 
z
" clip-path="url(#p9dfe1211ee)" style="fill: #0000ff"/>
   </g>
   <g id="patch_91">
    <path d="M 273.676197 252 
L 275.999584 252 
L 275.999584 248.973695 
L 273.676197 248.973695 
z
" clip-path="url(#p9dfe1211ee)" style="fill: #0000ff"/>
   </g>
   <g id="patch_92">
    <path d="M 275.999584 252 
L 278.32297 252 
L 278.32297 249.406024 
L 275.999584 249.406024 
z
" clip-path="url(#p9dfe1211ee)" style="fill: #0000ff"/>
   </g>
   <g id="patch_93">
    <path d="M 278.32297 252 
L 280.646357 252 
L 280.646357 249.838354 
L 278.32297 249.838354 
z
" clip-path="url(#p9dfe1211ee)" style="fill: #0000ff"/>
   </g>
   <g id="patch_94">
    <path d="M 280.646357 252 
L 282.969743 252 
L 282.969743 251.135341 
L 280.646357 251.135341 
z
" clip-path="url(#p9dfe1211ee)" style="fill: #0000ff"/>
   </g>
   <g id="patch_95">
    <path d="M 282.969743 252 
L 285.29313 252 
L 285.29313 249.838354 
L 282.969743 249.838354 
z
" clip-path="url(#p9dfe1211ee)" style="fill: #0000ff"/>
   </g>
   <g id="patch_96">
    <path d="M 285.29313 252 
L 287.616516 252 
L 287.616516 251.135341 
L 285.29313 251.135341 
z
" clip-path="url(#p9dfe1211ee)" style="fill: #0000ff"/>
   </g>
   <g id="patch_97">
    <path d="M 287.616516 252 
L 289.939903 252 
L 289.939903 250.270683 
L 287.616516 250.270683 
z
" clip-path="url(#p9dfe1211ee)" style="fill: #0000ff"/>
   </g>
   <g id="patch_98">
    <path d="M 289.939903 252 
L 292.263289 252 
L 292.263289 250.270683 
L 289.939903 250.270683 
z
" clip-path="url(#p9dfe1211ee)" style="fill: #0000ff"/>
   </g>
   <g id="patch_99">
    <path d="M 292.263289 252 
L 294.586676 252 
L 294.586676 251.567671 
L 292.263289 251.567671 
z
" clip-path="url(#p9dfe1211ee)" style="fill: #0000ff"/>
   </g>
   <g id="patch_100">
    <path d="M 294.586676 252 
L 296.910062 252 
L 296.910062 249.838354 
L 294.586676 249.838354 
z
" clip-path="url(#p9dfe1211ee)" style="fill: #0000ff"/>
   </g>
   <g id="patch_101">
    <path d="M 296.910062 252 
L 299.233449 252 
L 299.233449 251.567671 
L 296.910062 251.567671 
z
" clip-path="url(#p9dfe1211ee)" style="fill: #0000ff"/>
   </g>
   <g id="patch_102">
    <path d="M 299.233449 252 
L 301.556836 252 
L 301.556836 251.135341 
L 299.233449 251.135341 
z
" clip-path="url(#p9dfe1211ee)" style="fill: #0000ff"/>
   </g>
   <g id="patch_103">
    <path d="M 301.556836 252 
L 303.880222 252 
L 303.880222 250.703012 
L 301.556836 250.703012 
z
" clip-path="url(#p9dfe1211ee)" style="fill: #0000ff"/>
   </g>
   <g id="patch_104">
    <path d="M 303.880222 252 
L 306.203609 252 
L 306.203609 251.135341 
L 303.880222 251.135341 
z
" clip-path="url(#p9dfe1211ee)" style="fill: #0000ff"/>
   </g>
   <g id="patch_105">
    <path d="M 306.203609 252 
L 308.526995 252 
L 308.526995 249.838354 
L 306.203609 249.838354 
z
" clip-path="url(#p9dfe1211ee)" style="fill: #0000ff"/>
   </g>
   <g id="patch_106">
    <path d="M 308.526995 252 
L 310.850382 252 
L 310.850382 252 
L 308.526995 252 
z
" clip-path="url(#p9dfe1211ee)" style="fill: #0000ff"/>
   </g>
   <g id="patch_107">
    <path d="M 310.850382 252 
L 313.173768 252 
L 313.173768 250.703012 
L 310.850382 250.703012 
z
" clip-path="url(#p9dfe1211ee)" style="fill: #0000ff"/>
   </g>
   <g id="patch_108">
    <path d="M 313.173768 252 
L 315.497155 252 
L 315.497155 251.567671 
L 313.173768 251.567671 
z
" clip-path="url(#p9dfe1211ee)" style="fill: #0000ff"/>
   </g>
   <g id="patch_109">
    <path d="M 315.497155 252 
L 317.820541 252 
L 317.820541 250.703012 
L 315.497155 250.703012 
z
" clip-path="url(#p9dfe1211ee)" style="fill: #0000ff"/>
   </g>
   <g id="patch_110">
    <path d="M 317.820541 252 
L 320.143928 252 
L 320.143928 251.567671 
L 317.820541 251.567671 
z
" clip-path="url(#p9dfe1211ee)" style="fill: #0000ff"/>
   </g>
   <g id="patch_111">
    <path d="M 320.143928 252 
L 322.467314 252 
L 322.467314 252 
L 320.143928 252 
z
" clip-path="url(#p9dfe1211ee)" style="fill: #0000ff"/>
   </g>
   <g id="patch_112">
    <path d="M 322.467314 252 
L 324.790701 252 
L 324.790701 251.567671 
L 322.467314 251.567671 
z
" clip-path="url(#p9dfe1211ee)" style="fill: #0000ff"/>
   </g>
   <g id="patch_113">
    <path d="M 324.790701 252 
L 327.114087 252 
L 327.114087 251.567671 
L 324.790701 251.567671 
z
" clip-path="url(#p9dfe1211ee)" style="fill: #0000ff"/>
   </g>
   <g id="patch_114">
    <path d="M 327.114087 252 
L 329.437474 252 
L 329.437474 252 
L 327.114087 252 
z
" clip-path="url(#p9dfe1211ee)" style="fill: #0000ff"/>
   </g>
   <g id="patch_115">
    <path d="M 329.437474 252 
L 331.760861 252 
L 331.760861 252 
L 329.437474 252 
z
" clip-path="url(#p9dfe1211ee)" style="fill: #0000ff"/>
   </g>
   <g id="patch_116">
    <path d="M 331.760861 252 
L 334.084247 252 
L 334.084247 252 
L 331.760861 252 
z
" clip-path="url(#p9dfe1211ee)" style="fill: #0000ff"/>
   </g>
   <g id="patch_117">
    <path d="M 334.084247 252 
L 336.407634 252 
L 336.407634 251.135341 
L 334.084247 251.135341 
z
" clip-path="url(#p9dfe1211ee)" style="fill: #0000ff"/>
   </g>
   <g id="patch_118">
    <path d="M 336.407634 252 
L 338.73102 252 
L 338.73102 252 
L 336.407634 252 
z
" clip-path="url(#p9dfe1211ee)" style="fill: #0000ff"/>
   </g>
   <g id="patch_119">
    <path d="M 338.73102 252 
L 341.054407 252 
L 341.054407 251.135341 
L 338.73102 251.135341 
z
" clip-path="url(#p9dfe1211ee)" style="fill: #0000ff"/>
   </g>
   <g id="patch_120">
    <path d="M 341.054407 252 
L 343.377793 252 
L 343.377793 252 
L 341.054407 252 
z
" clip-path="url(#p9dfe1211ee)" style="fill: #0000ff"/>
   </g>
   <g id="patch_121">
    <path d="M 343.377793 252 
L 345.70118 252 
L 345.70118 251.567671 
L 343.377793 251.567671 
z
" clip-path="url(#p9dfe1211ee)" style="fill: #0000ff"/>
   </g>
   <g id="patch_122">
    <path d="M 345.70118 252 
L 348.024566 252 
L 348.024566 252 
L 345.70118 252 
z
" clip-path="url(#p9dfe1211ee)" style="fill: #0000ff"/>
   </g>
   <g id="patch_123">
    <path d="M 348.024566 252 
L 350.347953 252 
L 350.347953 252 
L 348.024566 252 
z
" clip-path="url(#p9dfe1211ee)" style="fill: #0000ff"/>
   </g>
   <g id="patch_124">
    <path d="M 350.347953 252 
L 352.671339 252 
L 352.671339 252 
L 350.347953 252 
z
" clip-path="url(#p9dfe1211ee)" style="fill: #0000ff"/>
   </g>
   <g id="patch_125">
    <path d="M 352.671339 252 
L 354.994726 252 
L 354.994726 252 
L 352.671339 252 
z
" clip-path="url(#p9dfe1211ee)" style="fill: #0000ff"/>
   </g>
   <g id="patch_126">
    <path d="M 354.994726 252 
L 357.318112 252 
L 357.318112 252 
L 354.994726 252 
z
" clip-path="url(#p9dfe1211ee)" style="fill: #0000ff"/>
   </g>
   <g id="patch_127">
    <path d="M 357.318112 252 
L 359.641499 252 
L 359.641499 252 
L 357.318112 252 
z
" clip-path="url(#p9dfe1211ee)" style="fill: #0000ff"/>
   </g>
   <g id="patch_128">
    <path d="M 359.641499 252 
L 361.964885 252 
L 361.964885 251.567671 
L 359.641499 251.567671 
z
" clip-path="url(#p9dfe1211ee)" style="fill: #0000ff"/>
   </g>
   <g id="patch_129">
    <path d="M 361.964885 252 
L 364.288272 252 
L 364.288272 252 
L 361.964885 252 
z
" clip-path="url(#p9dfe1211ee)" style="fill: #0000ff"/>
   </g>
   <g id="patch_130">
    <path d="M 364.288272 252 
L 366.611659 252 
L 366.611659 252 
L 364.288272 252 
z
" clip-path="url(#p9dfe1211ee)" style="fill: #0000ff"/>
   </g>
   <g id="patch_131">
    <path d="M 366.611659 252 
L 368.935045 252 
L 368.935045 252 
L 366.611659 252 
z
" clip-path="url(#p9dfe1211ee)" style="fill: #0000ff"/>
   </g>
   <g id="patch_132">
    <path d="M 368.935045 252 
L 371.258432 252 
L 371.258432 252 
L 368.935045 252 
z
" clip-path="url(#p9dfe1211ee)" style="fill: #0000ff"/>
   </g>
   <g id="patch_133">
    <path d="M 371.258432 252 
L 373.581818 252 
L 373.581818 251.567671 
L 371.258432 251.567671 
z
" clip-path="url(#p9dfe1211ee)" style="fill: #0000ff"/>
   </g>
   <g id="matplotlib.axis_1">
    <g id="xtick_1">
     <g id="line2d_1">
      <path d="M 80.835115 252 
L 80.835115 34.56 
" clip-path="url(#p9dfe1211ee)" style="fill: none; stroke: #b0b0b0; stroke-width: 0.8; stroke-linecap: square"/>
     </g>
     <g id="line2d_2">
      <defs>
       <path id="m0dc1757a43" d="M 0 0 
L 0 3.5 
" style="stroke: #000000; stroke-width: 0.8"/>
      </defs>
      <g>
       <use xlink:href="#m0dc1757a43" x="80.835115" y="252" style="stroke: #000000; stroke-width: 0.8"/>
      </g>
     </g>
     <g id="text_1">
      <!-- 20 -->
      <g transform="translate(74.472615 266.598437) scale(0.1 -0.1)">
       <defs>
        <path id="DejaVuSans-32" d="M 1228 531 
L 3431 531 
L 3431 0 
L 469 0 
L 469 531 
Q 828 903 1448 1529 
Q 2069 2156 2228 2338 
Q 2531 2678 2651 2914 
Q 2772 3150 2772 3378 
Q 2772 3750 2511 3984 
Q 2250 4219 1831 4219 
Q 1534 4219 1204 4116 
Q 875 4013 500 3803 
L 500 4441 
Q 881 4594 1212 4672 
Q 1544 4750 1819 4750 
Q 2544 4750 2975 4387 
Q 3406 4025 3406 3419 
Q 3406 3131 3298 2873 
Q 3191 2616 2906 2266 
Q 2828 2175 2409 1742 
Q 1991 1309 1228 531 
z
" transform="scale(0.015625)"/>
        <path id="DejaVuSans-30" d="M 2034 4250 
Q 1547 4250 1301 3770 
Q 1056 3291 1056 2328 
Q 1056 1369 1301 889 
Q 1547 409 2034 409 
Q 2525 409 2770 889 
Q 3016 1369 3016 2328 
Q 3016 3291 2770 3770 
Q 2525 4250 2034 4250 
z
M 2034 4750 
Q 2819 4750 3233 4129 
Q 3647 3509 3647 2328 
Q 3647 1150 3233 529 
Q 2819 -91 2034 -91 
Q 1250 -91 836 529 
Q 422 1150 422 2328 
Q 422 3509 836 4129 
Q 1250 4750 2034 4750 
z
" transform="scale(0.015625)"/>
       </defs>
       <use xlink:href="#DejaVuSans-32"/>
       <use xlink:href="#DejaVuSans-30" x="63.623047"/>
      </g>
     </g>
    </g>
    <g id="xtick_2">
     <g id="line2d_3">
      <path d="M 127.302845 252 
L 127.302845 34.56 
" clip-path="url(#p9dfe1211ee)" style="fill: none; stroke: #b0b0b0; stroke-width: 0.8; stroke-linecap: square"/>
     </g>
     <g id="line2d_4">
      <g>
       <use xlink:href="#m0dc1757a43" x="127.302845" y="252" style="stroke: #000000; stroke-width: 0.8"/>
      </g>
     </g>
     <g id="text_2">
      <!-- 40 -->
      <g transform="translate(120.940345 266.598437) scale(0.1 -0.1)">
       <defs>
        <path id="DejaVuSans-34" d="M 2419 4116 
L 825 1625 
L 2419 1625 
L 2419 4116 
z
M 2253 4666 
L 3047 4666 
L 3047 1625 
L 3713 1625 
L 3713 1100 
L 3047 1100 
L 3047 0 
L 2419 0 
L 2419 1100 
L 313 1100 
L 313 1709 
L 2253 4666 
z
" transform="scale(0.015625)"/>
       </defs>
       <use xlink:href="#DejaVuSans-34"/>
       <use xlink:href="#DejaVuSans-30" x="63.623047"/>
      </g>
     </g>
    </g>
    <g id="xtick_3">
     <g id="line2d_5">
      <path d="M 173.770576 252 
L 173.770576 34.56 
" clip-path="url(#p9dfe1211ee)" style="fill: none; stroke: #b0b0b0; stroke-width: 0.8; stroke-linecap: square"/>
     </g>
     <g id="line2d_6">
      <g>
       <use xlink:href="#m0dc1757a43" x="173.770576" y="252" style="stroke: #000000; stroke-width: 0.8"/>
      </g>
     </g>
     <g id="text_3">
      <!-- 60 -->
      <g transform="translate(167.408076 266.598437) scale(0.1 -0.1)">
       <defs>
        <path id="DejaVuSans-36" d="M 2113 2584 
Q 1688 2584 1439 2293 
Q 1191 2003 1191 1497 
Q 1191 994 1439 701 
Q 1688 409 2113 409 
Q 2538 409 2786 701 
Q 3034 994 3034 1497 
Q 3034 2003 2786 2293 
Q 2538 2584 2113 2584 
z
M 3366 4563 
L 3366 3988 
Q 3128 4100 2886 4159 
Q 2644 4219 2406 4219 
Q 1781 4219 1451 3797 
Q 1122 3375 1075 2522 
Q 1259 2794 1537 2939 
Q 1816 3084 2150 3084 
Q 2853 3084 3261 2657 
Q 3669 2231 3669 1497 
Q 3669 778 3244 343 
Q 2819 -91 2113 -91 
Q 1303 -91 875 529 
Q 447 1150 447 2328 
Q 447 3434 972 4092 
Q 1497 4750 2381 4750 
Q 2619 4750 2861 4703 
Q 3103 4656 3366 4563 
z
" transform="scale(0.015625)"/>
       </defs>
       <use xlink:href="#DejaVuSans-36"/>
       <use xlink:href="#DejaVuSans-30" x="63.623047"/>
      </g>
     </g>
    </g>
    <g id="xtick_4">
     <g id="line2d_7">
      <path d="M 220.238307 252 
L 220.238307 34.56 
" clip-path="url(#p9dfe1211ee)" style="fill: none; stroke: #b0b0b0; stroke-width: 0.8; stroke-linecap: square"/>
     </g>
     <g id="line2d_8">
      <g>
       <use xlink:href="#m0dc1757a43" x="220.238307" y="252" style="stroke: #000000; stroke-width: 0.8"/>
      </g>
     </g>
     <g id="text_4">
      <!-- 80 -->
      <g transform="translate(213.875807 266.598437) scale(0.1 -0.1)">
       <defs>
        <path id="DejaVuSans-38" d="M 2034 2216 
Q 1584 2216 1326 1975 
Q 1069 1734 1069 1313 
Q 1069 891 1326 650 
Q 1584 409 2034 409 
Q 2484 409 2743 651 
Q 3003 894 3003 1313 
Q 3003 1734 2745 1975 
Q 2488 2216 2034 2216 
z
M 1403 2484 
Q 997 2584 770 2862 
Q 544 3141 544 3541 
Q 544 4100 942 4425 
Q 1341 4750 2034 4750 
Q 2731 4750 3128 4425 
Q 3525 4100 3525 3541 
Q 3525 3141 3298 2862 
Q 3072 2584 2669 2484 
Q 3125 2378 3379 2068 
Q 3634 1759 3634 1313 
Q 3634 634 3220 271 
Q 2806 -91 2034 -91 
Q 1263 -91 848 271 
Q 434 634 434 1313 
Q 434 1759 690 2068 
Q 947 2378 1403 2484 
z
M 1172 3481 
Q 1172 3119 1398 2916 
Q 1625 2713 2034 2713 
Q 2441 2713 2670 2916 
Q 2900 3119 2900 3481 
Q 2900 3844 2670 4047 
Q 2441 4250 2034 4250 
Q 1625 4250 1398 4047 
Q 1172 3844 1172 3481 
z
" transform="scale(0.015625)"/>
       </defs>
       <use xlink:href="#DejaVuSans-38"/>
       <use xlink:href="#DejaVuSans-30" x="63.623047"/>
      </g>
     </g>
    </g>
    <g id="xtick_5">
     <g id="line2d_9">
      <path d="M 266.706037 252 
L 266.706037 34.56 
" clip-path="url(#p9dfe1211ee)" style="fill: none; stroke: #b0b0b0; stroke-width: 0.8; stroke-linecap: square"/>
     </g>
     <g id="line2d_10">
      <g>
       <use xlink:href="#m0dc1757a43" x="266.706037" y="252" style="stroke: #000000; stroke-width: 0.8"/>
      </g>
     </g>
     <g id="text_5">
      <!-- 100 -->
      <g transform="translate(257.162287 266.598437) scale(0.1 -0.1)">
       <defs>
        <path id="DejaVuSans-31" d="M 794 531 
L 1825 531 
L 1825 4091 
L 703 3866 
L 703 4441 
L 1819 4666 
L 2450 4666 
L 2450 531 
L 3481 531 
L 3481 0 
L 794 0 
L 794 531 
z
" transform="scale(0.015625)"/>
       </defs>
       <use xlink:href="#DejaVuSans-31"/>
       <use xlink:href="#DejaVuSans-30" x="63.623047"/>
       <use xlink:href="#DejaVuSans-30" x="127.246094"/>
      </g>
     </g>
    </g>
    <g id="xtick_6">
     <g id="line2d_11">
      <path d="M 313.173768 252 
L 313.173768 34.56 
" clip-path="url(#p9dfe1211ee)" style="fill: none; stroke: #b0b0b0; stroke-width: 0.8; stroke-linecap: square"/>
     </g>
     <g id="line2d_12">
      <g>
       <use xlink:href="#m0dc1757a43" x="313.173768" y="252" style="stroke: #000000; stroke-width: 0.8"/>
      </g>
     </g>
     <g id="text_6">
      <!-- 120 -->
      <g transform="translate(303.630018 266.598437) scale(0.1 -0.1)">
       <use xlink:href="#DejaVuSans-31"/>
       <use xlink:href="#DejaVuSans-32" x="63.623047"/>
       <use xlink:href="#DejaVuSans-30" x="127.246094"/>
      </g>
     </g>
    </g>
    <g id="xtick_7">
     <g id="line2d_13">
      <path d="M 359.641499 252 
L 359.641499 34.56 
" clip-path="url(#p9dfe1211ee)" style="fill: none; stroke: #b0b0b0; stroke-width: 0.8; stroke-linecap: square"/>
     </g>
     <g id="line2d_14">
      <g>
       <use xlink:href="#m0dc1757a43" x="359.641499" y="252" style="stroke: #000000; stroke-width: 0.8"/>
      </g>
     </g>
     <g id="text_7">
      <!-- 140 -->
      <g transform="translate(350.097749 266.598437) scale(0.1 -0.1)">
       <use xlink:href="#DejaVuSans-31"/>
       <use xlink:href="#DejaVuSans-34" x="63.623047"/>
       <use xlink:href="#DejaVuSans-30" x="127.246094"/>
      </g>
     </g>
    </g>
    <g id="text_8">
     <!-- # of photons -->
     <g transform="translate(189.017188 280.276563) scale(0.1 -0.1)">
      <defs>
       <path id="DejaVuSans-23" d="M 3272 2816 
L 2363 2816 
L 2100 1772 
L 3016 1772 
L 3272 2816 
z
M 2803 4594 
L 2478 3297 
L 3391 3297 
L 3719 4594 
L 4219 4594 
L 3897 3297 
L 4872 3297 
L 4872 2816 
L 3775 2816 
L 3519 1772 
L 4513 1772 
L 4513 1294 
L 3397 1294 
L 3072 0 
L 2572 0 
L 2894 1294 
L 1978 1294 
L 1656 0 
L 1153 0 
L 1478 1294 
L 494 1294 
L 494 1772 
L 1594 1772 
L 1856 2816 
L 850 2816 
L 850 3297 
L 1978 3297 
L 2297 4594 
L 2803 4594 
z
" transform="scale(0.015625)"/>
       <path id="DejaVuSans-20" transform="scale(0.015625)"/>
       <path id="DejaVuSans-6f" d="M 1959 3097 
Q 1497 3097 1228 2736 
Q 959 2375 959 1747 
Q 959 1119 1226 758 
Q 1494 397 1959 397 
Q 2419 397 2687 759 
Q 2956 1122 2956 1747 
Q 2956 2369 2687 2733 
Q 2419 3097 1959 3097 
z
M 1959 3584 
Q 2709 3584 3137 3096 
Q 3566 2609 3566 1747 
Q 3566 888 3137 398 
Q 2709 -91 1959 -91 
Q 1206 -91 779 398 
Q 353 888 353 1747 
Q 353 2609 779 3096 
Q 1206 3584 1959 3584 
z
" transform="scale(0.015625)"/>
       <path id="DejaVuSans-66" d="M 2375 4863 
L 2375 4384 
L 1825 4384 
Q 1516 4384 1395 4259 
Q 1275 4134 1275 3809 
L 1275 3500 
L 2222 3500 
L 2222 3053 
L 1275 3053 
L 1275 0 
L 697 0 
L 697 3053 
L 147 3053 
L 147 3500 
L 697 3500 
L 697 3744 
Q 697 4328 969 4595 
Q 1241 4863 1831 4863 
L 2375 4863 
z
" transform="scale(0.015625)"/>
       <path id="DejaVuSans-70" d="M 1159 525 
L 1159 -1331 
L 581 -1331 
L 581 3500 
L 1159 3500 
L 1159 2969 
Q 1341 3281 1617 3432 
Q 1894 3584 2278 3584 
Q 2916 3584 3314 3078 
Q 3713 2572 3713 1747 
Q 3713 922 3314 415 
Q 2916 -91 2278 -91 
Q 1894 -91 1617 61 
Q 1341 213 1159 525 
z
M 3116 1747 
Q 3116 2381 2855 2742 
Q 2594 3103 2138 3103 
Q 1681 3103 1420 2742 
Q 1159 2381 1159 1747 
Q 1159 1113 1420 752 
Q 1681 391 2138 391 
Q 2594 391 2855 752 
Q 3116 1113 3116 1747 
z
" transform="scale(0.015625)"/>
       <path id="DejaVuSans-68" d="M 3513 2113 
L 3513 0 
L 2938 0 
L 2938 2094 
Q 2938 2591 2744 2837 
Q 2550 3084 2163 3084 
Q 1697 3084 1428 2787 
Q 1159 2491 1159 1978 
L 1159 0 
L 581 0 
L 581 4863 
L 1159 4863 
L 1159 2956 
Q 1366 3272 1645 3428 
Q 1925 3584 2291 3584 
Q 2894 3584 3203 3211 
Q 3513 2838 3513 2113 
z
" transform="scale(0.015625)"/>
       <path id="DejaVuSans-74" d="M 1172 4494 
L 1172 3500 
L 2356 3500 
L 2356 3053 
L 1172 3053 
L 1172 1153 
Q 1172 725 1289 603 
Q 1406 481 1766 481 
L 2356 481 
L 2356 0 
L 1766 0 
Q 1100 0 847 248 
Q 594 497 594 1153 
L 594 3053 
L 172 3053 
L 172 3500 
L 594 3500 
L 594 4494 
L 1172 4494 
z
" transform="scale(0.015625)"/>
       <path id="DejaVuSans-6e" d="M 3513 2113 
L 3513 0 
L 2938 0 
L 2938 2094 
Q 2938 2591 2744 2837 
Q 2550 3084 2163 3084 
Q 1697 3084 1428 2787 
Q 1159 2491 1159 1978 
L 1159 0 
L 581 0 
L 581 3500 
L 1159 3500 
L 1159 2956 
Q 1366 3272 1645 3428 
Q 1925 3584 2291 3584 
Q 2894 3584 3203 3211 
Q 3513 2838 3513 2113 
z
" transform="scale(0.015625)"/>
       <path id="DejaVuSans-73" d="M 2834 3397 
L 2834 2853 
Q 2591 2978 2328 3040 
Q 2066 3103 1784 3103 
Q 1356 3103 1142 2972 
Q 928 2841 928 2578 
Q 928 2378 1081 2264 
Q 1234 2150 1697 2047 
L 1894 2003 
Q 2506 1872 2764 1633 
Q 3022 1394 3022 966 
Q 3022 478 2636 193 
Q 2250 -91 1575 -91 
Q 1294 -91 989 -36 
Q 684 19 347 128 
L 347 722 
Q 666 556 975 473 
Q 1284 391 1588 391 
Q 1994 391 2212 530 
Q 2431 669 2431 922 
Q 2431 1156 2273 1281 
Q 2116 1406 1581 1522 
L 1381 1569 
Q 847 1681 609 1914 
Q 372 2147 372 2553 
Q 372 3047 722 3315 
Q 1072 3584 1716 3584 
Q 2034 3584 2315 3537 
Q 2597 3491 2834 3397 
z
" transform="scale(0.015625)"/>
      </defs>
      <use xlink:href="#DejaVuSans-23"/>
      <use xlink:href="#DejaVuSans-20" x="83.789062"/>
      <use xlink:href="#DejaVuSans-6f" x="115.576172"/>
      <use xlink:href="#DejaVuSans-66" x="176.757812"/>
      <use xlink:href="#DejaVuSans-20" x="211.962891"/>
      <use xlink:href="#DejaVuSans-70" x="243.75"/>
      <use xlink:href="#DejaVuSans-68" x="307.226562"/>
      <use xlink:href="#DejaVuSans-6f" x="370.605469"/>
      <use xlink:href="#DejaVuSans-74" x="431.787109"/>
      <use xlink:href="#DejaVuSans-6f" x="470.996094"/>
      <use xlink:href="#DejaVuSans-6e" x="532.177734"/>
      <use xlink:href="#DejaVuSans-73" x="595.556641"/>
     </g>
    </g>
   </g>
   <g id="matplotlib.axis_2">
    <g id="ytick_1">
     <g id="line2d_15">
      <path d="M 54 252 
L 388.8 252 
" clip-path="url(#p9dfe1211ee)" style="fill: none; stroke: #b0b0b0; stroke-width: 0.8; stroke-linecap: square"/>
     </g>
     <g id="line2d_16">
      <defs>
       <path id="m4a03d840f5" d="M 0 0 
L -3.5 0 
" style="stroke: #000000; stroke-width: 0.8"/>
      </defs>
      <g>
       <use xlink:href="#m4a03d840f5" x="54" y="252" style="stroke: #000000; stroke-width: 0.8"/>
      </g>
     </g>
     <g id="text_9">
      <!-- 0 -->
      <g transform="translate(40.6375 255.799219) scale(0.1 -0.1)">
       <use xlink:href="#DejaVuSans-30"/>
      </g>
     </g>
    </g>
    <g id="ytick_2">
     <g id="line2d_17">
      <path d="M 54 208.767074 
L 388.8 208.767074 
" clip-path="url(#p9dfe1211ee)" style="fill: none; stroke: #b0b0b0; stroke-width: 0.8; stroke-linecap: square"/>
     </g>
     <g id="line2d_18">
      <g>
       <use xlink:href="#m4a03d840f5" x="54" y="208.767074" style="stroke: #000000; stroke-width: 0.8"/>
      </g>
     </g>
     <g id="text_10">
      <!-- 100 -->
      <g transform="translate(27.9125 212.566293) scale(0.1 -0.1)">
       <use xlink:href="#DejaVuSans-31"/>
       <use xlink:href="#DejaVuSans-30" x="63.623047"/>
       <use xlink:href="#DejaVuSans-30" x="127.246094"/>
      </g>
     </g>
    </g>
    <g id="ytick_3">
     <g id="line2d_19">
      <path d="M 54 165.534149 
L 388.8 165.534149 
" clip-path="url(#p9dfe1211ee)" style="fill: none; stroke: #b0b0b0; stroke-width: 0.8; stroke-linecap: square"/>
     </g>
     <g id="line2d_20">
      <g>
       <use xlink:href="#m4a03d840f5" x="54" y="165.534149" style="stroke: #000000; stroke-width: 0.8"/>
      </g>
     </g>
     <g id="text_11">
      <!-- 200 -->
      <g transform="translate(27.9125 169.333367) scale(0.1 -0.1)">
       <use xlink:href="#DejaVuSans-32"/>
       <use xlink:href="#DejaVuSans-30" x="63.623047"/>
       <use xlink:href="#DejaVuSans-30" x="127.246094"/>
      </g>
     </g>
    </g>
    <g id="ytick_4">
     <g id="line2d_21">
      <path d="M 54 122.301223 
L 388.8 122.301223 
" clip-path="url(#p9dfe1211ee)" style="fill: none; stroke: #b0b0b0; stroke-width: 0.8; stroke-linecap: square"/>
     </g>
     <g id="line2d_22">
      <g>
       <use xlink:href="#m4a03d840f5" x="54" y="122.301223" style="stroke: #000000; stroke-width: 0.8"/>
      </g>
     </g>
     <g id="text_12">
      <!-- 300 -->
      <g transform="translate(27.9125 126.100442) scale(0.1 -0.1)">
       <defs>
        <path id="DejaVuSans-33" d="M 2597 2516 
Q 3050 2419 3304 2112 
Q 3559 1806 3559 1356 
Q 3559 666 3084 287 
Q 2609 -91 1734 -91 
Q 1441 -91 1130 -33 
Q 819 25 488 141 
L 488 750 
Q 750 597 1062 519 
Q 1375 441 1716 441 
Q 2309 441 2620 675 
Q 2931 909 2931 1356 
Q 2931 1769 2642 2001 
Q 2353 2234 1838 2234 
L 1294 2234 
L 1294 2753 
L 1863 2753 
Q 2328 2753 2575 2939 
Q 2822 3125 2822 3475 
Q 2822 3834 2567 4026 
Q 2313 4219 1838 4219 
Q 1578 4219 1281 4162 
Q 984 4106 628 3988 
L 628 4550 
Q 988 4650 1302 4700 
Q 1616 4750 1894 4750 
Q 2613 4750 3031 4423 
Q 3450 4097 3450 3541 
Q 3450 3153 3228 2886 
Q 3006 2619 2597 2516 
z
" transform="scale(0.015625)"/>
       </defs>
       <use xlink:href="#DejaVuSans-33"/>
       <use xlink:href="#DejaVuSans-30" x="63.623047"/>
       <use xlink:href="#DejaVuSans-30" x="127.246094"/>
      </g>
     </g>
    </g>
    <g id="ytick_5">
     <g id="line2d_23">
      <path d="M 54 79.068297 
L 388.8 79.068297 
" clip-path="url(#p9dfe1211ee)" style="fill: none; stroke: #b0b0b0; stroke-width: 0.8; stroke-linecap: square"/>
     </g>
     <g id="line2d_24">
      <g>
       <use xlink:href="#m4a03d840f5" x="54" y="79.068297" style="stroke: #000000; stroke-width: 0.8"/>
      </g>
     </g>
     <g id="text_13">
      <!-- 400 -->
      <g transform="translate(27.9125 82.867516) scale(0.1 -0.1)">
       <use xlink:href="#DejaVuSans-34"/>
       <use xlink:href="#DejaVuSans-30" x="63.623047"/>
       <use xlink:href="#DejaVuSans-30" x="127.246094"/>
      </g>
     </g>
    </g>
    <g id="ytick_6">
     <g id="line2d_25">
      <path d="M 54 35.835371 
L 388.8 35.835371 
" clip-path="url(#p9dfe1211ee)" style="fill: none; stroke: #b0b0b0; stroke-width: 0.8; stroke-linecap: square"/>
     </g>
     <g id="line2d_26">
      <g>
       <use xlink:href="#m4a03d840f5" x="54" y="35.835371" style="stroke: #000000; stroke-width: 0.8"/>
      </g>
     </g>
     <g id="text_14">
      <!-- 500 -->
      <g transform="translate(27.9125 39.63459) scale(0.1 -0.1)">
       <defs>
        <path id="DejaVuSans-35" d="M 691 4666 
L 3169 4666 
L 3169 4134 
L 1269 4134 
L 1269 2991 
Q 1406 3038 1543 3061 
Q 1681 3084 1819 3084 
Q 2600 3084 3056 2656 
Q 3513 2228 3513 1497 
Q 3513 744 3044 326 
Q 2575 -91 1722 -91 
Q 1428 -91 1123 -41 
Q 819 9 494 109 
L 494 744 
Q 775 591 1075 516 
Q 1375 441 1709 441 
Q 2250 441 2565 725 
Q 2881 1009 2881 1497 
Q 2881 1984 2565 2268 
Q 2250 2553 1709 2553 
Q 1456 2553 1204 2497 
Q 953 2441 691 2322 
L 691 4666 
z
" transform="scale(0.015625)"/>
       </defs>
       <use xlink:href="#DejaVuSans-35"/>
       <use xlink:href="#DejaVuSans-30" x="63.623047"/>
       <use xlink:href="#DejaVuSans-30" x="127.246094"/>
      </g>
     </g>
    </g>
    <g id="text_15">
     <!-- # of events -->
     <g transform="translate(21.832812 172.313594) rotate(-90) scale(0.1 -0.1)">
      <defs>
       <path id="DejaVuSans-65" d="M 3597 1894 
L 3597 1613 
L 953 1613 
Q 991 1019 1311 708 
Q 1631 397 2203 397 
Q 2534 397 2845 478 
Q 3156 559 3463 722 
L 3463 178 
Q 3153 47 2828 -22 
Q 2503 -91 2169 -91 
Q 1331 -91 842 396 
Q 353 884 353 1716 
Q 353 2575 817 3079 
Q 1281 3584 2069 3584 
Q 2775 3584 3186 3129 
Q 3597 2675 3597 1894 
z
M 3022 2063 
Q 3016 2534 2758 2815 
Q 2500 3097 2075 3097 
Q 1594 3097 1305 2825 
Q 1016 2553 972 2059 
L 3022 2063 
z
" transform="scale(0.015625)"/>
       <path id="DejaVuSans-76" d="M 191 3500 
L 800 3500 
L 1894 563 
L 2988 3500 
L 3597 3500 
L 2284 0 
L 1503 0 
L 191 3500 
z
" transform="scale(0.015625)"/>
      </defs>
      <use xlink:href="#DejaVuSans-23"/>
      <use xlink:href="#DejaVuSans-20" x="83.789062"/>
      <use xlink:href="#DejaVuSans-6f" x="115.576172"/>
      <use xlink:href="#DejaVuSans-66" x="176.757812"/>
      <use xlink:href="#DejaVuSans-20" x="211.962891"/>
      <use xlink:href="#DejaVuSans-65" x="243.75"/>
      <use xlink:href="#DejaVuSans-76" x="305.273438"/>
      <use xlink:href="#DejaVuSans-65" x="364.453125"/>
      <use xlink:href="#DejaVuSans-6e" x="425.976562"/>
      <use xlink:href="#DejaVuSans-74" x="489.355469"/>
      <use xlink:href="#DejaVuSans-73" x="528.564453"/>
     </g>
    </g>
   </g>
   <g id="patch_134">
    <path d="M 54 252 
L 54 34.56 
" style="fill: none; stroke: #000000; stroke-width: 0.8; stroke-linejoin: miter; stroke-linecap: square"/>
   </g>
   <g id="patch_135">
    <path d="M 388.8 252 
L 388.8 34.56 
" style="fill: none; stroke: #000000; stroke-width: 0.8; stroke-linejoin: miter; stroke-linecap: square"/>
   </g>
   <g id="patch_136">
    <path d="M 54 252 
L 388.8 252 
" style="fill: none; stroke: #000000; stroke-width: 0.8; stroke-linejoin: miter; stroke-linecap: square"/>
   </g>
   <g id="patch_137">
    <path d="M 54 34.56 
L 388.8 34.56 
" style="fill: none; stroke: #000000; stroke-width: 0.8; stroke-linejoin: miter; stroke-linecap: square"/>
   </g>
   <g id="text_16">
    <!-- $\mu=46.32,\ \sigma=13.018$ -->
    <g transform="translate(223.723387 117.97793) scale(0.14 -0.14)">
     <defs>
      <path id="DejaVuSans-Oblique-3bc" d="M -84 -1331 
L 856 3500 
L 1434 3500 
L 1009 1322 
Q 997 1256 987 1175 
Q 978 1094 978 1013 
Q 978 722 1161 565 
Q 1344 409 1684 409 
Q 2147 409 2431 671 
Q 2716 934 2816 1459 
L 3213 3500 
L 3788 3500 
L 3266 809 
Q 3253 750 3248 706 
Q 3244 663 3244 628 
Q 3244 531 3283 486 
Q 3322 441 3406 441 
Q 3438 441 3492 456 
Q 3547 472 3647 513 
L 3559 50 
Q 3422 -19 3297 -55 
Q 3172 -91 3053 -91 
Q 2847 -91 2730 40 
Q 2613 172 2613 403 
Q 2438 153 2195 31 
Q 1953 -91 1625 -91 
Q 1334 -91 1117 43 
Q 900 178 831 397 
L 494 -1331 
L -84 -1331 
z
" transform="scale(0.015625)"/>
      <path id="DejaVuSans-3d" d="M 678 2906 
L 4684 2906 
L 4684 2381 
L 678 2381 
L 678 2906 
z
M 678 1631 
L 4684 1631 
L 4684 1100 
L 678 1100 
L 678 1631 
z
" transform="scale(0.015625)"/>
      <path id="DejaVuSans-2e" d="M 684 794 
L 1344 794 
L 1344 0 
L 684 0 
L 684 794 
z
" transform="scale(0.015625)"/>
      <path id="DejaVuSans-2c" d="M 750 794 
L 1409 794 
L 1409 256 
L 897 -744 
L 494 -744 
L 750 256 
L 750 794 
z
" transform="scale(0.015625)"/>
      <path id="DejaVuSans-Oblique-3c3" d="M 2219 3044 
Q 1744 3044 1422 2700 
Q 1081 2341 969 1747 
Q 844 1119 1044 756 
Q 1241 397 1706 397 
Q 2166 397 2503 759 
Q 2844 1122 2966 1747 
Q 3075 2319 2881 2700 
Q 2700 3044 2219 3044 
z
M 2309 3503 
L 4219 3500 
L 4106 2925 
L 3463 2925 
Q 3706 2438 3575 1747 
Q 3406 888 2884 400 
Q 2359 -91 1609 -91 
Q 856 -91 525 400 
Q 194 888 363 1747 
Q 528 2609 1050 3097 
Q 1484 3503 2309 3503 
z
" transform="scale(0.015625)"/>
     </defs>
     <use xlink:href="#DejaVuSans-Oblique-3bc" transform="translate(0 0.78125)"/>
     <use xlink:href="#DejaVuSans-3d" transform="translate(83.105469 0.78125)"/>
     <use xlink:href="#DejaVuSans-34" transform="translate(186.376953 0.78125)"/>
     <use xlink:href="#DejaVuSans-36" transform="translate(250 0.78125)"/>
     <use xlink:href="#DejaVuSans-2e" transform="translate(313.623047 0.78125)"/>
     <use xlink:href="#DejaVuSans-33" transform="translate(345.410156 0.78125)"/>
     <use xlink:href="#DejaVuSans-32" transform="translate(409.033203 0.78125)"/>
     <use xlink:href="#DejaVuSans-2c" transform="translate(472.65625 0.78125)"/>
     <use xlink:href="#DejaVuSans-Oblique-3c3" transform="translate(556.39616 0.78125)"/>
     <use xlink:href="#DejaVuSans-3d" transform="translate(639.257488 0.78125)"/>
     <use xlink:href="#DejaVuSans-31" transform="translate(742.528972 0.78125)"/>
     <use xlink:href="#DejaVuSans-33" transform="translate(806.152019 0.78125)"/>
     <use xlink:href="#DejaVuSans-2e" transform="translate(869.775066 0.78125)"/>
     <use xlink:href="#DejaVuSans-30" transform="translate(901.562175 0.78125)"/>
     <use xlink:href="#DejaVuSans-31" transform="translate(965.185222 0.78125)"/>
     <use xlink:href="#DejaVuSans-38" transform="translate(1028.808269 0.78125)"/>
    </g>
   </g>
   <g id="text_17">
    <!-- # of photons, 5GeV mu-, 2.5m length segment -->
    <g transform="translate(80.289375 28.56) scale(0.12 -0.12)">
     <defs>
      <path id="DejaVuSans-47" d="M 3809 666 
L 3809 1919 
L 2778 1919 
L 2778 2438 
L 4434 2438 
L 4434 434 
Q 4069 175 3628 42 
Q 3188 -91 2688 -91 
Q 1594 -91 976 548 
Q 359 1188 359 2328 
Q 359 3472 976 4111 
Q 1594 4750 2688 4750 
Q 3144 4750 3555 4637 
Q 3966 4525 4313 4306 
L 4313 3634 
Q 3963 3931 3569 4081 
Q 3175 4231 2741 4231 
Q 1884 4231 1454 3753 
Q 1025 3275 1025 2328 
Q 1025 1384 1454 906 
Q 1884 428 2741 428 
Q 3075 428 3337 486 
Q 3600 544 3809 666 
z
" transform="scale(0.015625)"/>
      <path id="DejaVuSans-56" d="M 1831 0 
L 50 4666 
L 709 4666 
L 2188 738 
L 3669 4666 
L 4325 4666 
L 2547 0 
L 1831 0 
z
" transform="scale(0.015625)"/>
      <path id="DejaVuSans-6d" d="M 3328 2828 
Q 3544 3216 3844 3400 
Q 4144 3584 4550 3584 
Q 5097 3584 5394 3201 
Q 5691 2819 5691 2113 
L 5691 0 
L 5113 0 
L 5113 2094 
Q 5113 2597 4934 2840 
Q 4756 3084 4391 3084 
Q 3944 3084 3684 2787 
Q 3425 2491 3425 1978 
L 3425 0 
L 2847 0 
L 2847 2094 
Q 2847 2600 2669 2842 
Q 2491 3084 2119 3084 
Q 1678 3084 1418 2786 
Q 1159 2488 1159 1978 
L 1159 0 
L 581 0 
L 581 3500 
L 1159 3500 
L 1159 2956 
Q 1356 3278 1631 3431 
Q 1906 3584 2284 3584 
Q 2666 3584 2933 3390 
Q 3200 3197 3328 2828 
z
" transform="scale(0.015625)"/>
      <path id="DejaVuSans-75" d="M 544 1381 
L 544 3500 
L 1119 3500 
L 1119 1403 
Q 1119 906 1312 657 
Q 1506 409 1894 409 
Q 2359 409 2629 706 
Q 2900 1003 2900 1516 
L 2900 3500 
L 3475 3500 
L 3475 0 
L 2900 0 
L 2900 538 
Q 2691 219 2414 64 
Q 2138 -91 1772 -91 
Q 1169 -91 856 284 
Q 544 659 544 1381 
z
M 1991 3584 
L 1991 3584 
z
" transform="scale(0.015625)"/>
      <path id="DejaVuSans-2d" d="M 313 2009 
L 1997 2009 
L 1997 1497 
L 313 1497 
L 313 2009 
z
" transform="scale(0.015625)"/>
      <path id="DejaVuSans-6c" d="M 603 4863 
L 1178 4863 
L 1178 0 
L 603 0 
L 603 4863 
z
" transform="scale(0.015625)"/>
      <path id="DejaVuSans-67" d="M 2906 1791 
Q 2906 2416 2648 2759 
Q 2391 3103 1925 3103 
Q 1463 3103 1205 2759 
Q 947 2416 947 1791 
Q 947 1169 1205 825 
Q 1463 481 1925 481 
Q 2391 481 2648 825 
Q 2906 1169 2906 1791 
z
M 3481 434 
Q 3481 -459 3084 -895 
Q 2688 -1331 1869 -1331 
Q 1566 -1331 1297 -1286 
Q 1028 -1241 775 -1147 
L 775 -588 
Q 1028 -725 1275 -790 
Q 1522 -856 1778 -856 
Q 2344 -856 2625 -561 
Q 2906 -266 2906 331 
L 2906 616 
Q 2728 306 2450 153 
Q 2172 0 1784 0 
Q 1141 0 747 490 
Q 353 981 353 1791 
Q 353 2603 747 3093 
Q 1141 3584 1784 3584 
Q 2172 3584 2450 3431 
Q 2728 3278 2906 2969 
L 2906 3500 
L 3481 3500 
L 3481 434 
z
" transform="scale(0.015625)"/>
     </defs>
     <use xlink:href="#DejaVuSans-23"/>
     <use xlink:href="#DejaVuSans-20" x="83.789062"/>
     <use xlink:href="#DejaVuSans-6f" x="115.576172"/>
     <use xlink:href="#DejaVuSans-66" x="176.757812"/>
     <use xlink:href="#DejaVuSans-20" x="211.962891"/>
     <use xlink:href="#DejaVuSans-70" x="243.75"/>
     <use xlink:href="#DejaVuSans-68" x="307.226562"/>
     <use xlink:href="#DejaVuSans-6f" x="370.605469"/>
     <use xlink:href="#DejaVuSans-74" x="431.787109"/>
     <use xlink:href="#DejaVuSans-6f" x="470.996094"/>
     <use xlink:href="#DejaVuSans-6e" x="532.177734"/>
     <use xlink:href="#DejaVuSans-73" x="595.556641"/>
     <use xlink:href="#DejaVuSans-2c" x="647.65625"/>
     <use xlink:href="#DejaVuSans-20" x="679.443359"/>
     <use xlink:href="#DejaVuSans-35" x="711.230469"/>
     <use xlink:href="#DejaVuSans-47" x="774.853516"/>
     <use xlink:href="#DejaVuSans-65" x="852.34375"/>
     <use xlink:href="#DejaVuSans-56" x="913.867188"/>
     <use xlink:href="#DejaVuSans-20" x="982.275391"/>
     <use xlink:href="#DejaVuSans-6d" x="1014.0625"/>
     <use xlink:href="#DejaVuSans-75" x="1111.474609"/>
     <use xlink:href="#DejaVuSans-2d" x="1174.853516"/>
     <use xlink:href="#DejaVuSans-2c" x="1210.9375"/>
     <use xlink:href="#DejaVuSans-20" x="1242.724609"/>
     <use xlink:href="#DejaVuSans-32" x="1274.511719"/>
     <use xlink:href="#DejaVuSans-2e" x="1338.134766"/>
     <use xlink:href="#DejaVuSans-35" x="1369.921875"/>
     <use xlink:href="#DejaVuSans-6d" x="1433.544922"/>
     <use xlink:href="#DejaVuSans-20" x="1530.957031"/>
     <use xlink:href="#DejaVuSans-6c" x="1562.744141"/>
     <use xlink:href="#DejaVuSans-65" x="1590.527344"/>
     <use xlink:href="#DejaVuSans-6e" x="1652.050781"/>
     <use xlink:href="#DejaVuSans-67" x="1715.429688"/>
     <use xlink:href="#DejaVuSans-74" x="1778.90625"/>
     <use xlink:href="#DejaVuSans-68" x="1818.115234"/>
     <use xlink:href="#DejaVuSans-20" x="1881.494141"/>
     <use xlink:href="#DejaVuSans-73" x="1913.28125"/>
     <use xlink:href="#DejaVuSans-65" x="1965.380859"/>
     <use xlink:href="#DejaVuSans-67" x="2026.904297"/>
     <use xlink:href="#DejaVuSans-6d" x="2090.380859"/>
     <use xlink:href="#DejaVuSans-65" x="2187.792969"/>
     <use xlink:href="#DejaVuSans-6e" x="2249.316406"/>
     <use xlink:href="#DejaVuSans-74" x="2312.695312"/>
    </g>
   </g>
  </g>
 </g>
 <defs>
  <clipPath id="p9dfe1211ee">
   <rect x="54" y="34.56" width="334.8" height="217.44"/>
  </clipPath>
 </defs>
</svg>
