<?xml version="1.0" encoding="utf-8" standalone="no"?>
<!DOCTYPE svg PUBLIC "-//W3C//DTD SVG 1.1//EN"
  "http://www.w3.org/Graphics/SVG/1.1/DTD/svg11.dtd">
<svg xmlns:xlink="http://www.w3.org/1999/xlink" width="432pt" height="288pt" viewBox="0 0 432 288" xmlns="http://www.w3.org/2000/svg" version="1.1">
 <metadata>
  <rdf:RDF xmlns:dc="http://purl.org/dc/elements/1.1/" xmlns:cc="http://creativecommons.org/ns#" xmlns:rdf="http://www.w3.org/1999/02/22-rdf-syntax-ns#">
   <cc:Work>
    <dc:type rdf:resource="http://purl.org/dc/dcmitype/StillImage"/>
    <dc:date>2024-06-03T14:22:12.787225</dc:date>
    <dc:format>image/svg+xml</dc:format>
    <dc:creator>
     <cc:Agent>
      <dc:title>Matplotlib v3.7.4, https://matplotlib.org/</dc:title>
     </cc:Agent>
    </dc:creator>
   </cc:Work>
  </rdf:RDF>
 </metadata>
 <defs>
  <style type="text/css">*{stroke-linejoin: round; stroke-linecap: butt}</style>
 </defs>
 <g id="figure_1">
  <g id="patch_1">
   <path d="M 0 288 
L 432 288 
L 432 0 
L 0 0 
L 0 288 
z
" style="fill: none"/>
  </g>
  <g id="axes_1">
   <g id="patch_2">
    <path d="M 54 252 
L 388.8 252 
L 388.8 34.56 
L 54 34.56 
z
" style="fill: #ffffff"/>
   </g>
   <g id="patch_3">
    <path d="M 69.218182 252 
L 70.71751 252 
L 70.71751 251.295627 
L 69.218182 251.295627 
z
" clip-path="url(#p33754f5582)" style="fill: #008000"/>
   </g>
   <g id="patch_4">
    <path d="M 70.71751 252 
L 72.216838 252 
L 72.216838 252 
L 70.71751 252 
z
" clip-path="url(#p33754f5582)" style="fill: #008000"/>
   </g>
   <g id="patch_5">
    <path d="M 72.216838 252 
L 73.716167 252 
L 73.716167 252 
L 72.216838 252 
z
" clip-path="url(#p33754f5582)" style="fill: #008000"/>
   </g>
   <g id="patch_6">
    <path d="M 73.716167 252 
L 75.215495 252 
L 75.215495 249.88688 
L 73.716167 249.88688 
z
" clip-path="url(#p33754f5582)" style="fill: #008000"/>
   </g>
   <g id="patch_7">
    <path d="M 75.215495 252 
L 76.714823 252 
L 76.714823 249.88688 
L 75.215495 249.88688 
z
" clip-path="url(#p33754f5582)" style="fill: #008000"/>
   </g>
   <g id="patch_8">
    <path d="M 76.714823 252 
L 78.214151 252 
L 78.214151 250.591254 
L 76.714823 250.591254 
z
" clip-path="url(#p33754f5582)" style="fill: #008000"/>
   </g>
   <g id="patch_9">
    <path d="M 78.214151 252 
L 79.71348 252 
L 79.71348 247.773761 
L 78.214151 247.773761 
z
" clip-path="url(#p33754f5582)" style="fill: #008000"/>
   </g>
   <g id="patch_10">
    <path d="M 79.71348 252 
L 81.212808 252 
L 81.212808 245.660641 
L 79.71348 245.660641 
z
" clip-path="url(#p33754f5582)" style="fill: #008000"/>
   </g>
   <g id="patch_11">
    <path d="M 81.212808 252 
L 82.712136 252 
L 82.712136 239.321283 
L 81.212808 239.321283 
z
" clip-path="url(#p33754f5582)" style="fill: #008000"/>
   </g>
   <g id="patch_12">
    <path d="M 82.712136 252 
L 84.211464 252 
L 84.211464 237.208163 
L 82.712136 237.208163 
z
" clip-path="url(#p33754f5582)" style="fill: #008000"/>
   </g>
   <g id="patch_13">
    <path d="M 84.211464 252 
L 85.710793 252 
L 85.710793 233.686297 
L 84.211464 233.686297 
z
" clip-path="url(#p33754f5582)" style="fill: #008000"/>
   </g>
   <g id="patch_14">
    <path d="M 85.710793 252 
L 87.210121 252 
L 87.210121 235.799417 
L 85.710793 235.799417 
z
" clip-path="url(#p33754f5582)" style="fill: #008000"/>
   </g>
   <g id="patch_15">
    <path d="M 87.210121 252 
L 88.709449 252 
L 88.709449 226.642566 
L 87.210121 226.642566 
z
" clip-path="url(#p33754f5582)" style="fill: #008000"/>
   </g>
   <g id="patch_16">
    <path d="M 88.709449 252 
L 90.208777 252 
L 90.208777 220.303207 
L 88.709449 220.303207 
z
" clip-path="url(#p33754f5582)" style="fill: #008000"/>
   </g>
   <g id="patch_17">
    <path d="M 90.208777 252 
L 91.708106 252 
L 91.708106 200.580758 
L 90.208777 200.580758 
z
" clip-path="url(#p33754f5582)" style="fill: #008000"/>
   </g>
   <g id="patch_18">
    <path d="M 91.708106 252 
L 93.207434 252 
L 93.207434 199.876385 
L 91.708106 199.876385 
z
" clip-path="url(#p33754f5582)" style="fill: #008000"/>
   </g>
   <g id="patch_19">
    <path d="M 93.207434 252 
L 94.706762 252 
L 94.706762 192.832653 
L 93.207434 192.832653 
z
" clip-path="url(#p33754f5582)" style="fill: #008000"/>
   </g>
   <g id="patch_20">
    <path d="M 94.706762 252 
L 96.20609 252 
L 96.20609 191.423907 
L 94.706762 191.423907 
z
" clip-path="url(#p33754f5582)" style="fill: #008000"/>
   </g>
   <g id="patch_21">
    <path d="M 96.20609 252 
L 97.705419 252 
L 97.705419 171.701458 
L 96.20609 171.701458 
z
" clip-path="url(#p33754f5582)" style="fill: #008000"/>
   </g>
   <g id="patch_22">
    <path d="M 97.705419 252 
L 99.204747 252 
L 99.204747 154.796501 
L 97.705419 154.796501 
z
" clip-path="url(#p33754f5582)" style="fill: #008000"/>
   </g>
   <g id="patch_23">
    <path d="M 99.204747 252 
L 100.704075 252 
L 100.704075 166.066472 
L 99.204747 166.066472 
z
" clip-path="url(#p33754f5582)" style="fill: #008000"/>
   </g>
   <g id="patch_24">
    <path d="M 100.704075 252 
L 102.203403 252 
L 102.203403 125.917201 
L 100.704075 125.917201 
z
" clip-path="url(#p33754f5582)" style="fill: #008000"/>
   </g>
   <g id="patch_25">
    <path d="M 102.203403 252 
L 103.702732 252 
L 103.702732 143.526531 
L 102.203403 143.526531 
z
" clip-path="url(#p33754f5582)" style="fill: #008000"/>
   </g>
   <g id="patch_26">
    <path d="M 103.702732 252 
L 105.20206 252 
L 105.20206 100.559767 
L 103.702732 100.559767 
z
" clip-path="url(#p33754f5582)" style="fill: #008000"/>
   </g>
   <g id="patch_27">
    <path d="M 105.20206 252 
L 106.701388 252 
L 106.701388 108.307872 
L 105.20206 108.307872 
z
" clip-path="url(#p33754f5582)" style="fill: #008000"/>
   </g>
   <g id="patch_28">
    <path d="M 106.701388 252 
L 108.200717 252 
L 108.200717 75.202332 
L 106.701388 75.202332 
z
" clip-path="url(#p33754f5582)" style="fill: #008000"/>
   </g>
   <g id="patch_29">
    <path d="M 108.200717 252 
L 109.700045 252 
L 109.700045 88.585423 
L 108.200717 88.585423 
z
" clip-path="url(#p33754f5582)" style="fill: #008000"/>
   </g>
   <g id="patch_30">
    <path d="M 109.700045 252 
L 111.199373 252 
L 111.199373 80.837318 
L 109.700045 80.837318 
z
" clip-path="url(#p33754f5582)" style="fill: #008000"/>
   </g>
   <g id="patch_31">
    <path d="M 111.199373 252 
L 112.698701 252 
L 112.698701 51.958017 
L 111.199373 51.958017 
z
" clip-path="url(#p33754f5582)" style="fill: #008000"/>
   </g>
   <g id="patch_32">
    <path d="M 112.698701 252 
L 114.19803 252 
L 114.19803 48.436152 
L 112.698701 48.436152 
z
" clip-path="url(#p33754f5582)" style="fill: #008000"/>
   </g>
   <g id="patch_33">
    <path d="M 114.19803 252 
L 115.697358 252 
L 115.697358 44.914286 
L 114.19803 44.914286 
z
" clip-path="url(#p33754f5582)" style="fill: #008000"/>
   </g>
   <g id="patch_34">
    <path d="M 115.697358 252 
L 117.196686 252 
L 117.196686 61.114869 
L 115.697358 61.114869 
z
" clip-path="url(#p33754f5582)" style="fill: #008000"/>
   </g>
   <g id="patch_35">
    <path d="M 117.196686 252 
L 118.696014 252 
L 118.696014 51.253644 
L 117.196686 51.253644 
z
" clip-path="url(#p33754f5582)" style="fill: #008000"/>
   </g>
   <g id="patch_36">
    <path d="M 118.696014 252 
L 120.195343 252 
L 120.195343 52.662391 
L 118.696014 52.662391 
z
" clip-path="url(#p33754f5582)" style="fill: #008000"/>
   </g>
   <g id="patch_37">
    <path d="M 120.195343 252 
L 121.694671 252 
L 121.694671 50.549271 
L 120.195343 50.549271 
z
" clip-path="url(#p33754f5582)" style="fill: #008000"/>
   </g>
   <g id="patch_38">
    <path d="M 121.694671 252 
L 123.193999 252 
L 123.193999 65.341108 
L 121.694671 65.341108 
z
" clip-path="url(#p33754f5582)" style="fill: #008000"/>
   </g>
   <g id="patch_39">
    <path d="M 123.193999 252 
L 124.693327 252 
L 124.693327 51.253644 
L 123.193999 51.253644 
z
" clip-path="url(#p33754f5582)" style="fill: #008000"/>
   </g>
   <g id="patch_40">
    <path d="M 124.693327 252 
L 126.192656 252 
L 126.192656 56.184257 
L 124.693327 56.184257 
z
" clip-path="url(#p33754f5582)" style="fill: #008000"/>
   </g>
   <g id="patch_41">
    <path d="M 126.192656 252 
L 127.691984 252 
L 127.691984 67.454227 
L 126.192656 67.454227 
z
" clip-path="url(#p33754f5582)" style="fill: #008000"/>
   </g>
   <g id="patch_42">
    <path d="M 127.691984 252 
L 129.191312 252 
L 129.191312 67.454227 
L 127.691984 67.454227 
z
" clip-path="url(#p33754f5582)" style="fill: #008000"/>
   </g>
   <g id="patch_43">
    <path d="M 129.191312 252 
L 130.69064 252 
L 130.69064 91.402915 
L 129.191312 91.402915 
z
" clip-path="url(#p33754f5582)" style="fill: #008000"/>
   </g>
   <g id="patch_44">
    <path d="M 130.69064 252 
L 132.189969 252 
L 132.189969 99.15102 
L 130.69064 99.15102 
z
" clip-path="url(#p33754f5582)" style="fill: #008000"/>
   </g>
   <g id="patch_45">
    <path d="M 132.189969 252 
L 133.689297 252 
L 133.689297 109.012245 
L 132.189969 109.012245 
z
" clip-path="url(#p33754f5582)" style="fill: #008000"/>
   </g>
   <g id="patch_46">
    <path d="M 133.689297 252 
L 135.188625 252 
L 135.188625 123.099708 
L 133.689297 123.099708 
z
" clip-path="url(#p33754f5582)" style="fill: #008000"/>
   </g>
   <g id="patch_47">
    <path d="M 135.188625 252 
L 136.687953 252 
L 136.687953 111.125364 
L 135.188625 111.125364 
z
" clip-path="url(#p33754f5582)" style="fill: #008000"/>
   </g>
   <g id="patch_48">
    <path d="M 136.687953 252 
L 138.187282 252 
L 138.187282 127.325948 
L 136.687953 127.325948 
z
" clip-path="url(#p33754f5582)" style="fill: #008000"/>
   </g>
   <g id="patch_49">
    <path d="M 138.187282 252 
L 139.68661 252 
L 139.68661 138.595918 
L 138.187282 138.595918 
z
" clip-path="url(#p33754f5582)" style="fill: #008000"/>
   </g>
   <g id="patch_50">
    <path d="M 139.68661 252 
L 141.185938 252 
L 141.185938 133.665306 
L 139.68661 133.665306 
z
" clip-path="url(#p33754f5582)" style="fill: #008000"/>
   </g>
   <g id="patch_51">
    <path d="M 141.185938 252 
L 142.685266 252 
L 142.685266 147.75277 
L 141.185938 147.75277 
z
" clip-path="url(#p33754f5582)" style="fill: #008000"/>
   </g>
   <g id="patch_52">
    <path d="M 142.685266 252 
L 144.184595 252 
L 144.184595 135.074052 
L 142.685266 135.074052 
z
" clip-path="url(#p33754f5582)" style="fill: #008000"/>
   </g>
   <g id="patch_53">
    <path d="M 144.184595 252 
L 145.683923 252 
L 145.683923 161.840233 
L 144.184595 161.840233 
z
" clip-path="url(#p33754f5582)" style="fill: #008000"/>
   </g>
   <g id="patch_54">
    <path d="M 145.683923 252 
L 147.183251 252 
L 147.183251 178.74519 
L 145.683923 178.74519 
z
" clip-path="url(#p33754f5582)" style="fill: #008000"/>
   </g>
   <g id="patch_55">
    <path d="M 147.183251 252 
L 148.682579 252 
L 148.682579 168.179592 
L 147.183251 168.179592 
z
" clip-path="url(#p33754f5582)" style="fill: #008000"/>
   </g>
   <g id="patch_56">
    <path d="M 148.682579 252 
L 150.181908 252 
L 150.181908 181.562682 
L 148.682579 181.562682 
z
" clip-path="url(#p33754f5582)" style="fill: #008000"/>
   </g>
   <g id="patch_57">
    <path d="M 150.181908 252 
L 151.681236 252 
L 151.681236 178.040816 
L 150.181908 178.040816 
z
" clip-path="url(#p33754f5582)" style="fill: #008000"/>
   </g>
   <g id="patch_58">
    <path d="M 151.681236 252 
L 153.180564 252 
L 153.180564 178.040816 
L 151.681236 178.040816 
z
" clip-path="url(#p33754f5582)" style="fill: #008000"/>
   </g>
   <g id="patch_59">
    <path d="M 153.180564 252 
L 154.679893 252 
L 154.679893 192.832653 
L 153.180564 192.832653 
z
" clip-path="url(#p33754f5582)" style="fill: #008000"/>
   </g>
   <g id="patch_60">
    <path d="M 154.679893 252 
L 156.179221 252 
L 156.179221 201.285131 
L 154.679893 201.285131 
z
" clip-path="url(#p33754f5582)" style="fill: #008000"/>
   </g>
   <g id="patch_61">
    <path d="M 156.179221 252 
L 157.678549 252 
L 157.678549 197.763265 
L 156.179221 197.763265 
z
" clip-path="url(#p33754f5582)" style="fill: #008000"/>
   </g>
   <g id="patch_62">
    <path d="M 157.678549 252 
L 159.177877 252 
L 159.177877 215.372595 
L 157.678549 215.372595 
z
" clip-path="url(#p33754f5582)" style="fill: #008000"/>
   </g>
   <g id="patch_63">
    <path d="M 159.177877 252 
L 160.677206 252 
L 160.677206 211.146356 
L 159.177877 211.146356 
z
" clip-path="url(#p33754f5582)" style="fill: #008000"/>
   </g>
   <g id="patch_64">
    <path d="M 160.677206 252 
L 162.176534 252 
L 162.176534 204.102624 
L 160.677206 204.102624 
z
" clip-path="url(#p33754f5582)" style="fill: #008000"/>
   </g>
   <g id="patch_65">
    <path d="M 162.176534 252 
L 163.675862 252 
L 163.675862 209.737609 
L 162.176534 209.737609 
z
" clip-path="url(#p33754f5582)" style="fill: #008000"/>
   </g>
   <g id="patch_66">
    <path d="M 163.675862 252 
L 165.17519 252 
L 165.17519 218.190087 
L 163.675862 218.190087 
z
" clip-path="url(#p33754f5582)" style="fill: #008000"/>
   </g>
   <g id="patch_67">
    <path d="M 165.17519 252 
L 166.674519 252 
L 166.674519 221.00758 
L 165.17519 221.00758 
z
" clip-path="url(#p33754f5582)" style="fill: #008000"/>
   </g>
   <g id="patch_68">
    <path d="M 166.674519 252 
L 168.173847 252 
L 168.173847 206.920117 
L 166.674519 206.920117 
z
" clip-path="url(#p33754f5582)" style="fill: #008000"/>
   </g>
   <g id="patch_69">
    <path d="M 168.173847 252 
L 169.673175 252 
L 169.673175 219.598834 
L 168.173847 219.598834 
z
" clip-path="url(#p33754f5582)" style="fill: #008000"/>
   </g>
   <g id="patch_70">
    <path d="M 169.673175 252 
L 171.172503 252 
L 171.172503 223.1207 
L 169.673175 223.1207 
z
" clip-path="url(#p33754f5582)" style="fill: #008000"/>
   </g>
   <g id="patch_71">
    <path d="M 171.172503 252 
L 172.671832 252 
L 172.671832 223.825073 
L 171.172503 223.825073 
z
" clip-path="url(#p33754f5582)" style="fill: #008000"/>
   </g>
   <g id="patch_72">
    <path d="M 172.671832 252 
L 174.17116 252 
L 174.17116 226.642566 
L 172.671832 226.642566 
z
" clip-path="url(#p33754f5582)" style="fill: #008000"/>
   </g>
   <g id="patch_73">
    <path d="M 174.17116 252 
L 175.670488 252 
L 175.670488 232.981924 
L 174.17116 232.981924 
z
" clip-path="url(#p33754f5582)" style="fill: #008000"/>
   </g>
   <g id="patch_74">
    <path d="M 175.670488 252 
L 177.169816 252 
L 177.169816 229.460058 
L 175.670488 229.460058 
z
" clip-path="url(#p33754f5582)" style="fill: #008000"/>
   </g>
   <g id="patch_75">
    <path d="M 177.169816 252 
L 178.669145 252 
L 178.669145 235.799417 
L 177.169816 235.799417 
z
" clip-path="url(#p33754f5582)" style="fill: #008000"/>
   </g>
   <g id="patch_76">
    <path d="M 178.669145 252 
L 180.168473 252 
L 180.168473 238.61691 
L 178.669145 238.61691 
z
" clip-path="url(#p33754f5582)" style="fill: #008000"/>
   </g>
   <g id="patch_77">
    <path d="M 180.168473 252 
L 181.667801 252 
L 181.667801 233.686297 
L 180.168473 233.686297 
z
" clip-path="url(#p33754f5582)" style="fill: #008000"/>
   </g>
   <g id="patch_78">
    <path d="M 181.667801 252 
L 183.167129 252 
L 183.167129 230.868805 
L 181.667801 230.868805 
z
" clip-path="url(#p33754f5582)" style="fill: #008000"/>
   </g>
   <g id="patch_79">
    <path d="M 183.167129 252 
L 184.666458 252 
L 184.666458 233.686297 
L 183.167129 233.686297 
z
" clip-path="url(#p33754f5582)" style="fill: #008000"/>
   </g>
   <g id="patch_80">
    <path d="M 184.666458 252 
L 186.165786 252 
L 186.165786 238.61691 
L 184.666458 238.61691 
z
" clip-path="url(#p33754f5582)" style="fill: #008000"/>
   </g>
   <g id="patch_81">
    <path d="M 186.165786 252 
L 187.665114 252 
L 187.665114 230.868805 
L 186.165786 230.868805 
z
" clip-path="url(#p33754f5582)" style="fill: #008000"/>
   </g>
   <g id="patch_82">
    <path d="M 187.665114 252 
L 189.164442 252 
L 189.164442 237.208163 
L 187.665114 237.208163 
z
" clip-path="url(#p33754f5582)" style="fill: #008000"/>
   </g>
   <g id="patch_83">
    <path d="M 189.164442 252 
L 190.663771 252 
L 190.663771 231.573178 
L 189.164442 231.573178 
z
" clip-path="url(#p33754f5582)" style="fill: #008000"/>
   </g>
   <g id="patch_84">
    <path d="M 190.663771 252 
L 192.163099 252 
L 192.163099 239.321283 
L 190.663771 239.321283 
z
" clip-path="url(#p33754f5582)" style="fill: #008000"/>
   </g>
   <g id="patch_85">
    <path d="M 192.163099 252 
L 193.662427 252 
L 193.662427 237.208163 
L 192.163099 237.208163 
z
" clip-path="url(#p33754f5582)" style="fill: #008000"/>
   </g>
   <g id="patch_86">
    <path d="M 193.662427 252 
L 195.161755 252 
L 195.161755 241.434402 
L 193.662427 241.434402 
z
" clip-path="url(#p33754f5582)" style="fill: #008000"/>
   </g>
   <g id="patch_87">
    <path d="M 195.161755 252 
L 196.661084 252 
L 196.661084 237.208163 
L 195.161755 237.208163 
z
" clip-path="url(#p33754f5582)" style="fill: #008000"/>
   </g>
   <g id="patch_88">
    <path d="M 196.661084 252 
L 198.160412 252 
L 198.160412 240.025656 
L 196.661084 240.025656 
z
" clip-path="url(#p33754f5582)" style="fill: #008000"/>
   </g>
   <g id="patch_89">
    <path d="M 198.160412 252 
L 199.65974 252 
L 199.65974 238.61691 
L 198.160412 238.61691 
z
" clip-path="url(#p33754f5582)" style="fill: #008000"/>
   </g>
   <g id="patch_90">
    <path d="M 199.65974 252 
L 201.159069 252 
L 201.159069 241.434402 
L 199.65974 241.434402 
z
" clip-path="url(#p33754f5582)" style="fill: #008000"/>
   </g>
   <g id="patch_91">
    <path d="M 201.159069 252 
L 202.658397 252 
L 202.658397 239.321283 
L 201.159069 239.321283 
z
" clip-path="url(#p33754f5582)" style="fill: #008000"/>
   </g>
   <g id="patch_92">
    <path d="M 202.658397 252 
L 204.157725 252 
L 204.157725 238.61691 
L 202.658397 238.61691 
z
" clip-path="url(#p33754f5582)" style="fill: #008000"/>
   </g>
   <g id="patch_93">
    <path d="M 204.157725 252 
L 205.657053 252 
L 205.657053 242.138776 
L 204.157725 242.138776 
z
" clip-path="url(#p33754f5582)" style="fill: #008000"/>
   </g>
   <g id="patch_94">
    <path d="M 205.657053 252 
L 207.156382 252 
L 207.156382 239.321283 
L 205.657053 239.321283 
z
" clip-path="url(#p33754f5582)" style="fill: #008000"/>
   </g>
   <g id="patch_95">
    <path d="M 207.156382 252 
L 208.65571 252 
L 208.65571 237.208163 
L 207.156382 237.208163 
z
" clip-path="url(#p33754f5582)" style="fill: #008000"/>
   </g>
   <g id="patch_96">
    <path d="M 208.65571 252 
L 210.155038 252 
L 210.155038 242.138776 
L 208.65571 242.138776 
z
" clip-path="url(#p33754f5582)" style="fill: #008000"/>
   </g>
   <g id="patch_97">
    <path d="M 210.155038 252 
L 211.654366 252 
L 211.654366 249.182507 
L 210.155038 249.182507 
z
" clip-path="url(#p33754f5582)" style="fill: #008000"/>
   </g>
   <g id="patch_98">
    <path d="M 211.654366 252 
L 213.153695 252 
L 213.153695 243.547522 
L 211.654366 243.547522 
z
" clip-path="url(#p33754f5582)" style="fill: #008000"/>
   </g>
   <g id="patch_99">
    <path d="M 213.153695 252 
L 214.653023 252 
L 214.653023 242.843149 
L 213.153695 242.843149 
z
" clip-path="url(#p33754f5582)" style="fill: #008000"/>
   </g>
   <g id="patch_100">
    <path d="M 214.653023 252 
L 216.152351 252 
L 216.152351 245.660641 
L 214.653023 245.660641 
z
" clip-path="url(#p33754f5582)" style="fill: #008000"/>
   </g>
   <g id="patch_101">
    <path d="M 216.152351 252 
L 217.651679 252 
L 217.651679 246.365015 
L 216.152351 246.365015 
z
" clip-path="url(#p33754f5582)" style="fill: #008000"/>
   </g>
   <g id="patch_102">
    <path d="M 217.651679 252 
L 219.151008 252 
L 219.151008 246.365015 
L 217.651679 246.365015 
z
" clip-path="url(#p33754f5582)" style="fill: #008000"/>
   </g>
   <g id="patch_103">
    <path d="M 219.151008 252 
L 220.650336 252 
L 220.650336 244.251895 
L 219.151008 244.251895 
z
" clip-path="url(#p33754f5582)" style="fill: #008000"/>
   </g>
   <g id="patch_104">
    <path d="M 220.650336 252 
L 222.149664 252 
L 222.149664 247.069388 
L 220.650336 247.069388 
z
" clip-path="url(#p33754f5582)" style="fill: #008000"/>
   </g>
   <g id="patch_105">
    <path d="M 222.149664 252 
L 223.648992 252 
L 223.648992 248.478134 
L 222.149664 248.478134 
z
" clip-path="url(#p33754f5582)" style="fill: #008000"/>
   </g>
   <g id="patch_106">
    <path d="M 223.648992 252 
L 225.148321 252 
L 225.148321 244.956268 
L 223.648992 244.956268 
z
" clip-path="url(#p33754f5582)" style="fill: #008000"/>
   </g>
   <g id="patch_107">
    <path d="M 225.148321 252 
L 226.647649 252 
L 226.647649 245.660641 
L 225.148321 245.660641 
z
" clip-path="url(#p33754f5582)" style="fill: #008000"/>
   </g>
   <g id="patch_108">
    <path d="M 226.647649 252 
L 228.146977 252 
L 228.146977 245.660641 
L 226.647649 245.660641 
z
" clip-path="url(#p33754f5582)" style="fill: #008000"/>
   </g>
   <g id="patch_109">
    <path d="M 228.146977 252 
L 229.646305 252 
L 229.646305 247.773761 
L 228.146977 247.773761 
z
" clip-path="url(#p33754f5582)" style="fill: #008000"/>
   </g>
   <g id="patch_110">
    <path d="M 229.646305 252 
L 231.145634 252 
L 231.145634 247.773761 
L 229.646305 247.773761 
z
" clip-path="url(#p33754f5582)" style="fill: #008000"/>
   </g>
   <g id="patch_111">
    <path d="M 231.145634 252 
L 232.644962 252 
L 232.644962 244.956268 
L 231.145634 244.956268 
z
" clip-path="url(#p33754f5582)" style="fill: #008000"/>
   </g>
   <g id="patch_112">
    <path d="M 232.644962 252 
L 234.14429 252 
L 234.14429 246.365015 
L 232.644962 246.365015 
z
" clip-path="url(#p33754f5582)" style="fill: #008000"/>
   </g>
   <g id="patch_113">
    <path d="M 234.14429 252 
L 235.643618 252 
L 235.643618 247.773761 
L 234.14429 247.773761 
z
" clip-path="url(#p33754f5582)" style="fill: #008000"/>
   </g>
   <g id="patch_114">
    <path d="M 235.643618 252 
L 237.142947 252 
L 237.142947 247.773761 
L 235.643618 247.773761 
z
" clip-path="url(#p33754f5582)" style="fill: #008000"/>
   </g>
   <g id="patch_115">
    <path d="M 237.142947 252 
L 238.642275 252 
L 238.642275 242.843149 
L 237.142947 242.843149 
z
" clip-path="url(#p33754f5582)" style="fill: #008000"/>
   </g>
   <g id="patch_116">
    <path d="M 238.642275 252 
L 240.141603 252 
L 240.141603 245.660641 
L 238.642275 245.660641 
z
" clip-path="url(#p33754f5582)" style="fill: #008000"/>
   </g>
   <g id="patch_117">
    <path d="M 240.141603 252 
L 241.640931 252 
L 241.640931 247.069388 
L 240.141603 247.069388 
z
" clip-path="url(#p33754f5582)" style="fill: #008000"/>
   </g>
   <g id="patch_118">
    <path d="M 241.640931 252 
L 243.14026 252 
L 243.14026 251.295627 
L 241.640931 251.295627 
z
" clip-path="url(#p33754f5582)" style="fill: #008000"/>
   </g>
   <g id="patch_119">
    <path d="M 243.14026 252 
L 244.639588 252 
L 244.639588 247.773761 
L 243.14026 247.773761 
z
" clip-path="url(#p33754f5582)" style="fill: #008000"/>
   </g>
   <g id="patch_120">
    <path d="M 244.639588 252 
L 246.138916 252 
L 246.138916 248.478134 
L 244.639588 248.478134 
z
" clip-path="url(#p33754f5582)" style="fill: #008000"/>
   </g>
   <g id="patch_121">
    <path d="M 246.138916 252 
L 247.638245 252 
L 247.638245 244.956268 
L 246.138916 244.956268 
z
" clip-path="url(#p33754f5582)" style="fill: #008000"/>
   </g>
   <g id="patch_122">
    <path d="M 247.638245 252 
L 249.137573 252 
L 249.137573 246.365015 
L 247.638245 246.365015 
z
" clip-path="url(#p33754f5582)" style="fill: #008000"/>
   </g>
   <g id="patch_123">
    <path d="M 249.137573 252 
L 250.636901 252 
L 250.636901 247.069388 
L 249.137573 247.069388 
z
" clip-path="url(#p33754f5582)" style="fill: #008000"/>
   </g>
   <g id="patch_124">
    <path d="M 250.636901 252 
L 252.136229 252 
L 252.136229 248.478134 
L 250.636901 248.478134 
z
" clip-path="url(#p33754f5582)" style="fill: #008000"/>
   </g>
   <g id="patch_125">
    <path d="M 252.136229 252 
L 253.635558 252 
L 253.635558 250.591254 
L 252.136229 250.591254 
z
" clip-path="url(#p33754f5582)" style="fill: #008000"/>
   </g>
   <g id="patch_126">
    <path d="M 253.635558 252 
L 255.134886 252 
L 255.134886 249.88688 
L 253.635558 249.88688 
z
" clip-path="url(#p33754f5582)" style="fill: #008000"/>
   </g>
   <g id="patch_127">
    <path d="M 255.134886 252 
L 256.634214 252 
L 256.634214 247.773761 
L 255.134886 247.773761 
z
" clip-path="url(#p33754f5582)" style="fill: #008000"/>
   </g>
   <g id="patch_128">
    <path d="M 256.634214 252 
L 258.133542 252 
L 258.133542 249.88688 
L 256.634214 249.88688 
z
" clip-path="url(#p33754f5582)" style="fill: #008000"/>
   </g>
   <g id="patch_129">
    <path d="M 258.133542 252 
L 259.632871 252 
L 259.632871 250.591254 
L 258.133542 250.591254 
z
" clip-path="url(#p33754f5582)" style="fill: #008000"/>
   </g>
   <g id="patch_130">
    <path d="M 259.632871 252 
L 261.132199 252 
L 261.132199 248.478134 
L 259.632871 248.478134 
z
" clip-path="url(#p33754f5582)" style="fill: #008000"/>
   </g>
   <g id="patch_131">
    <path d="M 261.132199 252 
L 262.631527 252 
L 262.631527 249.182507 
L 261.132199 249.182507 
z
" clip-path="url(#p33754f5582)" style="fill: #008000"/>
   </g>
   <g id="patch_132">
    <path d="M 262.631527 252 
L 264.130855 252 
L 264.130855 249.182507 
L 262.631527 249.182507 
z
" clip-path="url(#p33754f5582)" style="fill: #008000"/>
   </g>
   <g id="patch_133">
    <path d="M 264.130855 252 
L 265.630184 252 
L 265.630184 249.182507 
L 264.130855 249.182507 
z
" clip-path="url(#p33754f5582)" style="fill: #008000"/>
   </g>
   <g id="patch_134">
    <path d="M 265.630184 252 
L 267.129512 252 
L 267.129512 251.295627 
L 265.630184 251.295627 
z
" clip-path="url(#p33754f5582)" style="fill: #008000"/>
   </g>
   <g id="patch_135">
    <path d="M 267.129512 252 
L 268.62884 252 
L 268.62884 249.182507 
L 267.129512 249.182507 
z
" clip-path="url(#p33754f5582)" style="fill: #008000"/>
   </g>
   <g id="patch_136">
    <path d="M 268.62884 252 
L 270.128168 252 
L 270.128168 250.591254 
L 268.62884 250.591254 
z
" clip-path="url(#p33754f5582)" style="fill: #008000"/>
   </g>
   <g id="patch_137">
    <path d="M 270.128168 252 
L 271.627497 252 
L 271.627497 247.069388 
L 270.128168 247.069388 
z
" clip-path="url(#p33754f5582)" style="fill: #008000"/>
   </g>
   <g id="patch_138">
    <path d="M 271.627497 252 
L 273.126825 252 
L 273.126825 249.182507 
L 271.627497 249.182507 
z
" clip-path="url(#p33754f5582)" style="fill: #008000"/>
   </g>
   <g id="patch_139">
    <path d="M 273.126825 252 
L 274.626153 252 
L 274.626153 251.295627 
L 273.126825 251.295627 
z
" clip-path="url(#p33754f5582)" style="fill: #008000"/>
   </g>
   <g id="patch_140">
    <path d="M 274.626153 252 
L 276.125481 252 
L 276.125481 251.295627 
L 274.626153 251.295627 
z
" clip-path="url(#p33754f5582)" style="fill: #008000"/>
   </g>
   <g id="patch_141">
    <path d="M 276.125481 252 
L 277.62481 252 
L 277.62481 248.478134 
L 276.125481 248.478134 
z
" clip-path="url(#p33754f5582)" style="fill: #008000"/>
   </g>
   <g id="patch_142">
    <path d="M 277.62481 252 
L 279.124138 252 
L 279.124138 251.295627 
L 277.62481 251.295627 
z
" clip-path="url(#p33754f5582)" style="fill: #008000"/>
   </g>
   <g id="patch_143">
    <path d="M 279.124138 252 
L 280.623466 252 
L 280.623466 248.478134 
L 279.124138 248.478134 
z
" clip-path="url(#p33754f5582)" style="fill: #008000"/>
   </g>
   <g id="patch_144">
    <path d="M 280.623466 252 
L 282.122794 252 
L 282.122794 249.88688 
L 280.623466 249.88688 
z
" clip-path="url(#p33754f5582)" style="fill: #008000"/>
   </g>
   <g id="patch_145">
    <path d="M 282.122794 252 
L 283.622123 252 
L 283.622123 251.295627 
L 282.122794 251.295627 
z
" clip-path="url(#p33754f5582)" style="fill: #008000"/>
   </g>
   <g id="patch_146">
    <path d="M 283.622123 252 
L 285.121451 252 
L 285.121451 251.295627 
L 283.622123 251.295627 
z
" clip-path="url(#p33754f5582)" style="fill: #008000"/>
   </g>
   <g id="patch_147">
    <path d="M 285.121451 252 
L 286.620779 252 
L 286.620779 251.295627 
L 285.121451 251.295627 
z
" clip-path="url(#p33754f5582)" style="fill: #008000"/>
   </g>
   <g id="patch_148">
    <path d="M 286.620779 252 
L 288.120107 252 
L 288.120107 251.295627 
L 286.620779 251.295627 
z
" clip-path="url(#p33754f5582)" style="fill: #008000"/>
   </g>
   <g id="patch_149">
    <path d="M 288.120107 252 
L 289.619436 252 
L 289.619436 252 
L 288.120107 252 
z
" clip-path="url(#p33754f5582)" style="fill: #008000"/>
   </g>
   <g id="patch_150">
    <path d="M 289.619436 252 
L 291.118764 252 
L 291.118764 250.591254 
L 289.619436 250.591254 
z
" clip-path="url(#p33754f5582)" style="fill: #008000"/>
   </g>
   <g id="patch_151">
    <path d="M 291.118764 252 
L 292.618092 252 
L 292.618092 249.182507 
L 291.118764 249.182507 
z
" clip-path="url(#p33754f5582)" style="fill: #008000"/>
   </g>
   <g id="patch_152">
    <path d="M 292.618092 252 
L 294.117421 252 
L 294.117421 250.591254 
L 292.618092 250.591254 
z
" clip-path="url(#p33754f5582)" style="fill: #008000"/>
   </g>
   <g id="patch_153">
    <path d="M 294.117421 252 
L 295.616749 252 
L 295.616749 250.591254 
L 294.117421 250.591254 
z
" clip-path="url(#p33754f5582)" style="fill: #008000"/>
   </g>
   <g id="patch_154">
    <path d="M 295.616749 252 
L 297.116077 252 
L 297.116077 251.295627 
L 295.616749 251.295627 
z
" clip-path="url(#p33754f5582)" style="fill: #008000"/>
   </g>
   <g id="patch_155">
    <path d="M 297.116077 252 
L 298.615405 252 
L 298.615405 251.295627 
L 297.116077 251.295627 
z
" clip-path="url(#p33754f5582)" style="fill: #008000"/>
   </g>
   <g id="patch_156">
    <path d="M 298.615405 252 
L 300.114734 252 
L 300.114734 251.295627 
L 298.615405 251.295627 
z
" clip-path="url(#p33754f5582)" style="fill: #008000"/>
   </g>
   <g id="patch_157">
    <path d="M 300.114734 252 
L 301.614062 252 
L 301.614062 251.295627 
L 300.114734 251.295627 
z
" clip-path="url(#p33754f5582)" style="fill: #008000"/>
   </g>
   <g id="patch_158">
    <path d="M 301.614062 252 
L 303.11339 252 
L 303.11339 250.591254 
L 301.614062 250.591254 
z
" clip-path="url(#p33754f5582)" style="fill: #008000"/>
   </g>
   <g id="patch_159">
    <path d="M 303.11339 252 
L 304.612718 252 
L 304.612718 251.295627 
L 303.11339 251.295627 
z
" clip-path="url(#p33754f5582)" style="fill: #008000"/>
   </g>
   <g id="patch_160">
    <path d="M 304.612718 252 
L 306.112047 252 
L 306.112047 250.591254 
L 304.612718 250.591254 
z
" clip-path="url(#p33754f5582)" style="fill: #008000"/>
   </g>
   <g id="patch_161">
    <path d="M 306.112047 252 
L 307.611375 252 
L 307.611375 251.295627 
L 306.112047 251.295627 
z
" clip-path="url(#p33754f5582)" style="fill: #008000"/>
   </g>
   <g id="patch_162">
    <path d="M 307.611375 252 
L 309.110703 252 
L 309.110703 251.295627 
L 307.611375 251.295627 
z
" clip-path="url(#p33754f5582)" style="fill: #008000"/>
   </g>
   <g id="patch_163">
    <path d="M 309.110703 252 
L 310.610031 252 
L 310.610031 252 
L 309.110703 252 
z
" clip-path="url(#p33754f5582)" style="fill: #008000"/>
   </g>
   <g id="patch_164">
    <path d="M 310.610031 252 
L 312.10936 252 
L 312.10936 250.591254 
L 310.610031 250.591254 
z
" clip-path="url(#p33754f5582)" style="fill: #008000"/>
   </g>
   <g id="patch_165">
    <path d="M 312.10936 252 
L 313.608688 252 
L 313.608688 252 
L 312.10936 252 
z
" clip-path="url(#p33754f5582)" style="fill: #008000"/>
   </g>
   <g id="patch_166">
    <path d="M 313.608688 252 
L 315.108016 252 
L 315.108016 252 
L 313.608688 252 
z
" clip-path="url(#p33754f5582)" style="fill: #008000"/>
   </g>
   <g id="patch_167">
    <path d="M 315.108016 252 
L 316.607344 252 
L 316.607344 249.88688 
L 315.108016 249.88688 
z
" clip-path="url(#p33754f5582)" style="fill: #008000"/>
   </g>
   <g id="patch_168">
    <path d="M 316.607344 252 
L 318.106673 252 
L 318.106673 251.295627 
L 316.607344 251.295627 
z
" clip-path="url(#p33754f5582)" style="fill: #008000"/>
   </g>
   <g id="patch_169">
    <path d="M 318.106673 252 
L 319.606001 252 
L 319.606001 250.591254 
L 318.106673 250.591254 
z
" clip-path="url(#p33754f5582)" style="fill: #008000"/>
   </g>
   <g id="patch_170">
    <path d="M 319.606001 252 
L 321.105329 252 
L 321.105329 251.295627 
L 319.606001 251.295627 
z
" clip-path="url(#p33754f5582)" style="fill: #008000"/>
   </g>
   <g id="patch_171">
    <path d="M 321.105329 252 
L 322.604657 252 
L 322.604657 251.295627 
L 321.105329 251.295627 
z
" clip-path="url(#p33754f5582)" style="fill: #008000"/>
   </g>
   <g id="patch_172">
    <path d="M 322.604657 252 
L 324.103986 252 
L 324.103986 252 
L 322.604657 252 
z
" clip-path="url(#p33754f5582)" style="fill: #008000"/>
   </g>
   <g id="patch_173">
    <path d="M 324.103986 252 
L 325.603314 252 
L 325.603314 250.591254 
L 324.103986 250.591254 
z
" clip-path="url(#p33754f5582)" style="fill: #008000"/>
   </g>
   <g id="patch_174">
    <path d="M 325.603314 252 
L 327.102642 252 
L 327.102642 250.591254 
L 325.603314 250.591254 
z
" clip-path="url(#p33754f5582)" style="fill: #008000"/>
   </g>
   <g id="patch_175">
    <path d="M 327.102642 252 
L 328.60197 252 
L 328.60197 250.591254 
L 327.102642 250.591254 
z
" clip-path="url(#p33754f5582)" style="fill: #008000"/>
   </g>
   <g id="patch_176">
    <path d="M 328.60197 252 
L 330.101299 252 
L 330.101299 251.295627 
L 328.60197 251.295627 
z
" clip-path="url(#p33754f5582)" style="fill: #008000"/>
   </g>
   <g id="patch_177">
    <path d="M 330.101299 252 
L 331.600627 252 
L 331.600627 252 
L 330.101299 252 
z
" clip-path="url(#p33754f5582)" style="fill: #008000"/>
   </g>
   <g id="patch_178">
    <path d="M 331.600627 252 
L 333.099955 252 
L 333.099955 252 
L 331.600627 252 
z
" clip-path="url(#p33754f5582)" style="fill: #008000"/>
   </g>
   <g id="patch_179">
    <path d="M 333.099955 252 
L 334.599283 252 
L 334.599283 251.295627 
L 333.099955 251.295627 
z
" clip-path="url(#p33754f5582)" style="fill: #008000"/>
   </g>
   <g id="patch_180">
    <path d="M 334.599283 252 
L 336.098612 252 
L 336.098612 251.295627 
L 334.599283 251.295627 
z
" clip-path="url(#p33754f5582)" style="fill: #008000"/>
   </g>
   <g id="patch_181">
    <path d="M 336.098612 252 
L 337.59794 252 
L 337.59794 250.591254 
L 336.098612 250.591254 
z
" clip-path="url(#p33754f5582)" style="fill: #008000"/>
   </g>
   <g id="patch_182">
    <path d="M 337.59794 252 
L 339.097268 252 
L 339.097268 252 
L 337.59794 252 
z
" clip-path="url(#p33754f5582)" style="fill: #008000"/>
   </g>
   <g id="patch_183">
    <path d="M 339.097268 252 
L 340.596597 252 
L 340.596597 252 
L 339.097268 252 
z
" clip-path="url(#p33754f5582)" style="fill: #008000"/>
   </g>
   <g id="patch_184">
    <path d="M 340.596597 252 
L 342.095925 252 
L 342.095925 249.182507 
L 340.596597 249.182507 
z
" clip-path="url(#p33754f5582)" style="fill: #008000"/>
   </g>
   <g id="patch_185">
    <path d="M 342.095925 252 
L 343.595253 252 
L 343.595253 252 
L 342.095925 252 
z
" clip-path="url(#p33754f5582)" style="fill: #008000"/>
   </g>
   <g id="patch_186">
    <path d="M 343.595253 252 
L 345.094581 252 
L 345.094581 251.295627 
L 343.595253 251.295627 
z
" clip-path="url(#p33754f5582)" style="fill: #008000"/>
   </g>
   <g id="patch_187">
    <path d="M 345.094581 252 
L 346.59391 252 
L 346.59391 250.591254 
L 345.094581 250.591254 
z
" clip-path="url(#p33754f5582)" style="fill: #008000"/>
   </g>
   <g id="patch_188">
    <path d="M 346.59391 252 
L 348.093238 252 
L 348.093238 252 
L 346.59391 252 
z
" clip-path="url(#p33754f5582)" style="fill: #008000"/>
   </g>
   <g id="patch_189">
    <path d="M 348.093238 252 
L 349.592566 252 
L 349.592566 250.591254 
L 348.093238 250.591254 
z
" clip-path="url(#p33754f5582)" style="fill: #008000"/>
   </g>
   <g id="patch_190">
    <path d="M 349.592566 252 
L 351.091894 252 
L 351.091894 252 
L 349.592566 252 
z
" clip-path="url(#p33754f5582)" style="fill: #008000"/>
   </g>
   <g id="patch_191">
    <path d="M 351.091894 252 
L 352.591223 252 
L 352.591223 252 
L 351.091894 252 
z
" clip-path="url(#p33754f5582)" style="fill: #008000"/>
   </g>
   <g id="patch_192">
    <path d="M 352.591223 252 
L 354.090551 252 
L 354.090551 251.295627 
L 352.591223 251.295627 
z
" clip-path="url(#p33754f5582)" style="fill: #008000"/>
   </g>
   <g id="patch_193">
    <path d="M 354.090551 252 
L 355.589879 252 
L 355.589879 251.295627 
L 354.090551 251.295627 
z
" clip-path="url(#p33754f5582)" style="fill: #008000"/>
   </g>
   <g id="patch_194">
    <path d="M 355.589879 252 
L 357.089207 252 
L 357.089207 252 
L 355.589879 252 
z
" clip-path="url(#p33754f5582)" style="fill: #008000"/>
   </g>
   <g id="patch_195">
    <path d="M 357.089207 252 
L 358.588536 252 
L 358.588536 252 
L 357.089207 252 
z
" clip-path="url(#p33754f5582)" style="fill: #008000"/>
   </g>
   <g id="patch_196">
    <path d="M 358.588536 252 
L 360.087864 252 
L 360.087864 251.295627 
L 358.588536 251.295627 
z
" clip-path="url(#p33754f5582)" style="fill: #008000"/>
   </g>
   <g id="patch_197">
    <path d="M 360.087864 252 
L 361.587192 252 
L 361.587192 252 
L 360.087864 252 
z
" clip-path="url(#p33754f5582)" style="fill: #008000"/>
   </g>
   <g id="patch_198">
    <path d="M 361.587192 252 
L 363.08652 252 
L 363.08652 251.295627 
L 361.587192 251.295627 
z
" clip-path="url(#p33754f5582)" style="fill: #008000"/>
   </g>
   <g id="patch_199">
    <path d="M 363.08652 252 
L 364.585849 252 
L 364.585849 252 
L 363.08652 252 
z
" clip-path="url(#p33754f5582)" style="fill: #008000"/>
   </g>
   <g id="patch_200">
    <path d="M 364.585849 252 
L 366.085177 252 
L 366.085177 252 
L 364.585849 252 
z
" clip-path="url(#p33754f5582)" style="fill: #008000"/>
   </g>
   <g id="patch_201">
    <path d="M 366.085177 252 
L 367.584505 252 
L 367.584505 251.295627 
L 366.085177 251.295627 
z
" clip-path="url(#p33754f5582)" style="fill: #008000"/>
   </g>
   <g id="patch_202">
    <path d="M 367.584505 252 
L 369.083833 252 
L 369.083833 252 
L 367.584505 252 
z
" clip-path="url(#p33754f5582)" style="fill: #008000"/>
   </g>
   <g id="patch_203">
    <path d="M 369.083833 252 
L 370.583162 252 
L 370.583162 252 
L 369.083833 252 
z
" clip-path="url(#p33754f5582)" style="fill: #008000"/>
   </g>
   <g id="patch_204">
    <path d="M 370.583162 252 
L 372.08249 252 
L 372.08249 252 
L 370.583162 252 
z
" clip-path="url(#p33754f5582)" style="fill: #008000"/>
   </g>
   <g id="patch_205">
    <path d="M 372.08249 252 
L 373.581818 252 
L 373.581818 249.88688 
L 372.08249 249.88688 
z
" clip-path="url(#p33754f5582)" style="fill: #008000"/>
   </g>
   <g id="matplotlib.axis_1">
    <g id="xtick_1">
     <g id="line2d_1">
      <path d="M 81.212808 252 
L 81.212808 34.56 
" clip-path="url(#p33754f5582)" style="fill: none; stroke: #b0b0b0; stroke-width: 0.8; stroke-linecap: square"/>
     </g>
     <g id="line2d_2">
      <defs>
       <path id="m15c23cc775" d="M 0 0 
L 0 3.5 
" style="stroke: #000000; stroke-width: 0.8"/>
      </defs>
      <g>
       <use xlink:href="#m15c23cc775" x="81.212808" y="252" style="stroke: #000000; stroke-width: 0.8"/>
      </g>
     </g>
     <g id="text_1">
      <!-- 50 -->
      <g transform="translate(74.850308 266.598437) scale(0.1 -0.1)">
       <defs>
        <path id="DejaVuSans-35" d="M 691 4666 
L 3169 4666 
L 3169 4134 
L 1269 4134 
L 1269 2991 
Q 1406 3038 1543 3061 
Q 1681 3084 1819 3084 
Q 2600 3084 3056 2656 
Q 3513 2228 3513 1497 
Q 3513 744 3044 326 
Q 2575 -91 1722 -91 
Q 1428 -91 1123 -41 
Q 819 9 494 109 
L 494 744 
Q 775 591 1075 516 
Q 1375 441 1709 441 
Q 2250 441 2565 725 
Q 2881 1009 2881 1497 
Q 2881 1984 2565 2268 
Q 2250 2553 1709 2553 
Q 1456 2553 1204 2497 
Q 953 2441 691 2322 
L 691 4666 
z
" transform="scale(0.015625)"/>
        <path id="DejaVuSans-30" d="M 2034 4250 
Q 1547 4250 1301 3770 
Q 1056 3291 1056 2328 
Q 1056 1369 1301 889 
Q 1547 409 2034 409 
Q 2525 409 2770 889 
Q 3016 1369 3016 2328 
Q 3016 3291 2770 3770 
Q 2525 4250 2034 4250 
z
M 2034 4750 
Q 2819 4750 3233 4129 
Q 3647 3509 3647 2328 
Q 3647 1150 3233 529 
Q 2819 -91 2034 -91 
Q 1250 -91 836 529 
Q 422 1150 422 2328 
Q 422 3509 836 4129 
Q 1250 4750 2034 4750 
z
" transform="scale(0.015625)"/>
       </defs>
       <use xlink:href="#DejaVuSans-35"/>
       <use xlink:href="#DejaVuSans-30" x="63.623047"/>
      </g>
     </g>
    </g>
    <g id="xtick_2">
     <g id="line2d_3">
      <path d="M 118.696014 252 
L 118.696014 34.56 
" clip-path="url(#p33754f5582)" style="fill: none; stroke: #b0b0b0; stroke-width: 0.8; stroke-linecap: square"/>
     </g>
     <g id="line2d_4">
      <g>
       <use xlink:href="#m15c23cc775" x="118.696014" y="252" style="stroke: #000000; stroke-width: 0.8"/>
      </g>
     </g>
     <g id="text_2">
      <!-- 75 -->
      <g transform="translate(112.333514 266.598437) scale(0.1 -0.1)">
       <defs>
        <path id="DejaVuSans-37" d="M 525 4666 
L 3525 4666 
L 3525 4397 
L 1831 0 
L 1172 0 
L 2766 4134 
L 525 4134 
L 525 4666 
z
" transform="scale(0.015625)"/>
       </defs>
       <use xlink:href="#DejaVuSans-37"/>
       <use xlink:href="#DejaVuSans-35" x="63.623047"/>
      </g>
     </g>
    </g>
    <g id="xtick_3">
     <g id="line2d_5">
      <path d="M 156.179221 252 
L 156.179221 34.56 
" clip-path="url(#p33754f5582)" style="fill: none; stroke: #b0b0b0; stroke-width: 0.8; stroke-linecap: square"/>
     </g>
     <g id="line2d_6">
      <g>
       <use xlink:href="#m15c23cc775" x="156.179221" y="252" style="stroke: #000000; stroke-width: 0.8"/>
      </g>
     </g>
     <g id="text_3">
      <!-- 100 -->
      <g transform="translate(146.635471 266.598437) scale(0.1 -0.1)">
       <defs>
        <path id="DejaVuSans-31" d="M 794 531 
L 1825 531 
L 1825 4091 
L 703 3866 
L 703 4441 
L 1819 4666 
L 2450 4666 
L 2450 531 
L 3481 531 
L 3481 0 
L 794 0 
L 794 531 
z
" transform="scale(0.015625)"/>
       </defs>
       <use xlink:href="#DejaVuSans-31"/>
       <use xlink:href="#DejaVuSans-30" x="63.623047"/>
       <use xlink:href="#DejaVuSans-30" x="127.246094"/>
      </g>
     </g>
    </g>
    <g id="xtick_4">
     <g id="line2d_7">
      <path d="M 193.662427 252 
L 193.662427 34.56 
" clip-path="url(#p33754f5582)" style="fill: none; stroke: #b0b0b0; stroke-width: 0.8; stroke-linecap: square"/>
     </g>
     <g id="line2d_8">
      <g>
       <use xlink:href="#m15c23cc775" x="193.662427" y="252" style="stroke: #000000; stroke-width: 0.8"/>
      </g>
     </g>
     <g id="text_4">
      <!-- 125 -->
      <g transform="translate(184.118677 266.598437) scale(0.1 -0.1)">
       <defs>
        <path id="DejaVuSans-32" d="M 1228 531 
L 3431 531 
L 3431 0 
L 469 0 
L 469 531 
Q 828 903 1448 1529 
Q 2069 2156 2228 2338 
Q 2531 2678 2651 2914 
Q 2772 3150 2772 3378 
Q 2772 3750 2511 3984 
Q 2250 4219 1831 4219 
Q 1534 4219 1204 4116 
Q 875 4013 500 3803 
L 500 4441 
Q 881 4594 1212 4672 
Q 1544 4750 1819 4750 
Q 2544 4750 2975 4387 
Q 3406 4025 3406 3419 
Q 3406 3131 3298 2873 
Q 3191 2616 2906 2266 
Q 2828 2175 2409 1742 
Q 1991 1309 1228 531 
z
" transform="scale(0.015625)"/>
       </defs>
       <use xlink:href="#DejaVuSans-31"/>
       <use xlink:href="#DejaVuSans-32" x="63.623047"/>
       <use xlink:href="#DejaVuSans-35" x="127.246094"/>
      </g>
     </g>
    </g>
    <g id="xtick_5">
     <g id="line2d_9">
      <path d="M 231.145634 252 
L 231.145634 34.56 
" clip-path="url(#p33754f5582)" style="fill: none; stroke: #b0b0b0; stroke-width: 0.8; stroke-linecap: square"/>
     </g>
     <g id="line2d_10">
      <g>
       <use xlink:href="#m15c23cc775" x="231.145634" y="252" style="stroke: #000000; stroke-width: 0.8"/>
      </g>
     </g>
     <g id="text_5">
      <!-- 150 -->
      <g transform="translate(221.601884 266.598437) scale(0.1 -0.1)">
       <use xlink:href="#DejaVuSans-31"/>
       <use xlink:href="#DejaVuSans-35" x="63.623047"/>
       <use xlink:href="#DejaVuSans-30" x="127.246094"/>
      </g>
     </g>
    </g>
    <g id="xtick_6">
     <g id="line2d_11">
      <path d="M 268.62884 252 
L 268.62884 34.56 
" clip-path="url(#p33754f5582)" style="fill: none; stroke: #b0b0b0; stroke-width: 0.8; stroke-linecap: square"/>
     </g>
     <g id="line2d_12">
      <g>
       <use xlink:href="#m15c23cc775" x="268.62884" y="252" style="stroke: #000000; stroke-width: 0.8"/>
      </g>
     </g>
     <g id="text_6">
      <!-- 175 -->
      <g transform="translate(259.08509 266.598437) scale(0.1 -0.1)">
       <use xlink:href="#DejaVuSans-31"/>
       <use xlink:href="#DejaVuSans-37" x="63.623047"/>
       <use xlink:href="#DejaVuSans-35" x="127.246094"/>
      </g>
     </g>
    </g>
    <g id="xtick_7">
     <g id="line2d_13">
      <path d="M 306.112047 252 
L 306.112047 34.56 
" clip-path="url(#p33754f5582)" style="fill: none; stroke: #b0b0b0; stroke-width: 0.8; stroke-linecap: square"/>
     </g>
     <g id="line2d_14">
      <g>
       <use xlink:href="#m15c23cc775" x="306.112047" y="252" style="stroke: #000000; stroke-width: 0.8"/>
      </g>
     </g>
     <g id="text_7">
      <!-- 200 -->
      <g transform="translate(296.568297 266.598437) scale(0.1 -0.1)">
       <use xlink:href="#DejaVuSans-32"/>
       <use xlink:href="#DejaVuSans-30" x="63.623047"/>
       <use xlink:href="#DejaVuSans-30" x="127.246094"/>
      </g>
     </g>
    </g>
    <g id="xtick_8">
     <g id="line2d_15">
      <path d="M 343.595253 252 
L 343.595253 34.56 
" clip-path="url(#p33754f5582)" style="fill: none; stroke: #b0b0b0; stroke-width: 0.8; stroke-linecap: square"/>
     </g>
     <g id="line2d_16">
      <g>
       <use xlink:href="#m15c23cc775" x="343.595253" y="252" style="stroke: #000000; stroke-width: 0.8"/>
      </g>
     </g>
     <g id="text_8">
      <!-- 225 -->
      <g transform="translate(334.051503 266.598437) scale(0.1 -0.1)">
       <use xlink:href="#DejaVuSans-32"/>
       <use xlink:href="#DejaVuSans-32" x="63.623047"/>
       <use xlink:href="#DejaVuSans-35" x="127.246094"/>
      </g>
     </g>
    </g>
    <g id="xtick_9">
     <g id="line2d_17">
      <path d="M 381.078459 252 
L 381.078459 34.56 
" clip-path="url(#p33754f5582)" style="fill: none; stroke: #b0b0b0; stroke-width: 0.8; stroke-linecap: square"/>
     </g>
     <g id="line2d_18">
      <g>
       <use xlink:href="#m15c23cc775" x="381.078459" y="252" style="stroke: #000000; stroke-width: 0.8"/>
      </g>
     </g>
     <g id="text_9">
      <!-- 250 -->
      <g transform="translate(371.534709 266.598437) scale(0.1 -0.1)">
       <use xlink:href="#DejaVuSans-32"/>
       <use xlink:href="#DejaVuSans-35" x="63.623047"/>
       <use xlink:href="#DejaVuSans-30" x="127.246094"/>
      </g>
     </g>
    </g>
    <g id="text_10">
     <!-- # of photons -->
     <g transform="translate(189.017188 280.276563) scale(0.1 -0.1)">
      <defs>
       <path id="DejaVuSans-23" d="M 3272 2816 
L 2363 2816 
L 2100 1772 
L 3016 1772 
L 3272 2816 
z
M 2803 4594 
L 2478 3297 
L 3391 3297 
L 3719 4594 
L 4219 4594 
L 3897 3297 
L 4872 3297 
L 4872 2816 
L 3775 2816 
L 3519 1772 
L 4513 1772 
L 4513 1294 
L 3397 1294 
L 3072 0 
L 2572 0 
L 2894 1294 
L 1978 1294 
L 1656 0 
L 1153 0 
L 1478 1294 
L 494 1294 
L 494 1772 
L 1594 1772 
L 1856 2816 
L 850 2816 
L 850 3297 
L 1978 3297 
L 2297 4594 
L 2803 4594 
z
" transform="scale(0.015625)"/>
       <path id="DejaVuSans-20" transform="scale(0.015625)"/>
       <path id="DejaVuSans-6f" d="M 1959 3097 
Q 1497 3097 1228 2736 
Q 959 2375 959 1747 
Q 959 1119 1226 758 
Q 1494 397 1959 397 
Q 2419 397 2687 759 
Q 2956 1122 2956 1747 
Q 2956 2369 2687 2733 
Q 2419 3097 1959 3097 
z
M 1959 3584 
Q 2709 3584 3137 3096 
Q 3566 2609 3566 1747 
Q 3566 888 3137 398 
Q 2709 -91 1959 -91 
Q 1206 -91 779 398 
Q 353 888 353 1747 
Q 353 2609 779 3096 
Q 1206 3584 1959 3584 
z
" transform="scale(0.015625)"/>
       <path id="DejaVuSans-66" d="M 2375 4863 
L 2375 4384 
L 1825 4384 
Q 1516 4384 1395 4259 
Q 1275 4134 1275 3809 
L 1275 3500 
L 2222 3500 
L 2222 3053 
L 1275 3053 
L 1275 0 
L 697 0 
L 697 3053 
L 147 3053 
L 147 3500 
L 697 3500 
L 697 3744 
Q 697 4328 969 4595 
Q 1241 4863 1831 4863 
L 2375 4863 
z
" transform="scale(0.015625)"/>
       <path id="DejaVuSans-70" d="M 1159 525 
L 1159 -1331 
L 581 -1331 
L 581 3500 
L 1159 3500 
L 1159 2969 
Q 1341 3281 1617 3432 
Q 1894 3584 2278 3584 
Q 2916 3584 3314 3078 
Q 3713 2572 3713 1747 
Q 3713 922 3314 415 
Q 2916 -91 2278 -91 
Q 1894 -91 1617 61 
Q 1341 213 1159 525 
z
M 3116 1747 
Q 3116 2381 2855 2742 
Q 2594 3103 2138 3103 
Q 1681 3103 1420 2742 
Q 1159 2381 1159 1747 
Q 1159 1113 1420 752 
Q 1681 391 2138 391 
Q 2594 391 2855 752 
Q 3116 1113 3116 1747 
z
" transform="scale(0.015625)"/>
       <path id="DejaVuSans-68" d="M 3513 2113 
L 3513 0 
L 2938 0 
L 2938 2094 
Q 2938 2591 2744 2837 
Q 2550 3084 2163 3084 
Q 1697 3084 1428 2787 
Q 1159 2491 1159 1978 
L 1159 0 
L 581 0 
L 581 4863 
L 1159 4863 
L 1159 2956 
Q 1366 3272 1645 3428 
Q 1925 3584 2291 3584 
Q 2894 3584 3203 3211 
Q 3513 2838 3513 2113 
z
" transform="scale(0.015625)"/>
       <path id="DejaVuSans-74" d="M 1172 4494 
L 1172 3500 
L 2356 3500 
L 2356 3053 
L 1172 3053 
L 1172 1153 
Q 1172 725 1289 603 
Q 1406 481 1766 481 
L 2356 481 
L 2356 0 
L 1766 0 
Q 1100 0 847 248 
Q 594 497 594 1153 
L 594 3053 
L 172 3053 
L 172 3500 
L 594 3500 
L 594 4494 
L 1172 4494 
z
" transform="scale(0.015625)"/>
       <path id="DejaVuSans-6e" d="M 3513 2113 
L 3513 0 
L 2938 0 
L 2938 2094 
Q 2938 2591 2744 2837 
Q 2550 3084 2163 3084 
Q 1697 3084 1428 2787 
Q 1159 2491 1159 1978 
L 1159 0 
L 581 0 
L 581 3500 
L 1159 3500 
L 1159 2956 
Q 1366 3272 1645 3428 
Q 1925 3584 2291 3584 
Q 2894 3584 3203 3211 
Q 3513 2838 3513 2113 
z
" transform="scale(0.015625)"/>
       <path id="DejaVuSans-73" d="M 2834 3397 
L 2834 2853 
Q 2591 2978 2328 3040 
Q 2066 3103 1784 3103 
Q 1356 3103 1142 2972 
Q 928 2841 928 2578 
Q 928 2378 1081 2264 
Q 1234 2150 1697 2047 
L 1894 2003 
Q 2506 1872 2764 1633 
Q 3022 1394 3022 966 
Q 3022 478 2636 193 
Q 2250 -91 1575 -91 
Q 1294 -91 989 -36 
Q 684 19 347 128 
L 347 722 
Q 666 556 975 473 
Q 1284 391 1588 391 
Q 1994 391 2212 530 
Q 2431 669 2431 922 
Q 2431 1156 2273 1281 
Q 2116 1406 1581 1522 
L 1381 1569 
Q 847 1681 609 1914 
Q 372 2147 372 2553 
Q 372 3047 722 3315 
Q 1072 3584 1716 3584 
Q 2034 3584 2315 3537 
Q 2597 3491 2834 3397 
z
" transform="scale(0.015625)"/>
      </defs>
      <use xlink:href="#DejaVuSans-23"/>
      <use xlink:href="#DejaVuSans-20" x="83.789062"/>
      <use xlink:href="#DejaVuSans-6f" x="115.576172"/>
      <use xlink:href="#DejaVuSans-66" x="176.757812"/>
      <use xlink:href="#DejaVuSans-20" x="211.962891"/>
      <use xlink:href="#DejaVuSans-70" x="243.75"/>
      <use xlink:href="#DejaVuSans-68" x="307.226562"/>
      <use xlink:href="#DejaVuSans-6f" x="370.605469"/>
      <use xlink:href="#DejaVuSans-74" x="431.787109"/>
      <use xlink:href="#DejaVuSans-6f" x="470.996094"/>
      <use xlink:href="#DejaVuSans-6e" x="532.177734"/>
      <use xlink:href="#DejaVuSans-73" x="595.556641"/>
     </g>
    </g>
   </g>
   <g id="matplotlib.axis_2">
    <g id="ytick_1">
     <g id="line2d_19">
      <path d="M 54 252 
L 388.8 252 
" clip-path="url(#p33754f5582)" style="fill: none; stroke: #b0b0b0; stroke-width: 0.8; stroke-linecap: square"/>
     </g>
     <g id="line2d_20">
      <defs>
       <path id="m3339a817e8" d="M 0 0 
L -3.5 0 
" style="stroke: #000000; stroke-width: 0.8"/>
      </defs>
      <g>
       <use xlink:href="#m3339a817e8" x="54" y="252" style="stroke: #000000; stroke-width: 0.8"/>
      </g>
     </g>
     <g id="text_11">
      <!-- 0 -->
      <g transform="translate(40.6375 255.799219) scale(0.1 -0.1)">
       <use xlink:href="#DejaVuSans-30"/>
      </g>
     </g>
    </g>
    <g id="ytick_2">
     <g id="line2d_21">
      <path d="M 54 216.781341 
L 388.8 216.781341 
" clip-path="url(#p33754f5582)" style="fill: none; stroke: #b0b0b0; stroke-width: 0.8; stroke-linecap: square"/>
     </g>
     <g id="line2d_22">
      <g>
       <use xlink:href="#m3339a817e8" x="54" y="216.781341" style="stroke: #000000; stroke-width: 0.8"/>
      </g>
     </g>
     <g id="text_12">
      <!-- 50 -->
      <g transform="translate(34.275 220.58056) scale(0.1 -0.1)">
       <use xlink:href="#DejaVuSans-35"/>
       <use xlink:href="#DejaVuSans-30" x="63.623047"/>
      </g>
     </g>
    </g>
    <g id="ytick_3">
     <g id="line2d_23">
      <path d="M 54 181.562682 
L 388.8 181.562682 
" clip-path="url(#p33754f5582)" style="fill: none; stroke: #b0b0b0; stroke-width: 0.8; stroke-linecap: square"/>
     </g>
     <g id="line2d_24">
      <g>
       <use xlink:href="#m3339a817e8" x="54" y="181.562682" style="stroke: #000000; stroke-width: 0.8"/>
      </g>
     </g>
     <g id="text_13">
      <!-- 100 -->
      <g transform="translate(27.9125 185.361901) scale(0.1 -0.1)">
       <use xlink:href="#DejaVuSans-31"/>
       <use xlink:href="#DejaVuSans-30" x="63.623047"/>
       <use xlink:href="#DejaVuSans-30" x="127.246094"/>
      </g>
     </g>
    </g>
    <g id="ytick_4">
     <g id="line2d_25">
      <path d="M 54 146.344023 
L 388.8 146.344023 
" clip-path="url(#p33754f5582)" style="fill: none; stroke: #b0b0b0; stroke-width: 0.8; stroke-linecap: square"/>
     </g>
     <g id="line2d_26">
      <g>
       <use xlink:href="#m3339a817e8" x="54" y="146.344023" style="stroke: #000000; stroke-width: 0.8"/>
      </g>
     </g>
     <g id="text_14">
      <!-- 150 -->
      <g transform="translate(27.9125 150.143242) scale(0.1 -0.1)">
       <use xlink:href="#DejaVuSans-31"/>
       <use xlink:href="#DejaVuSans-35" x="63.623047"/>
       <use xlink:href="#DejaVuSans-30" x="127.246094"/>
      </g>
     </g>
    </g>
    <g id="ytick_5">
     <g id="line2d_27">
      <path d="M 54 111.125364 
L 388.8 111.125364 
" clip-path="url(#p33754f5582)" style="fill: none; stroke: #b0b0b0; stroke-width: 0.8; stroke-linecap: square"/>
     </g>
     <g id="line2d_28">
      <g>
       <use xlink:href="#m3339a817e8" x="54" y="111.125364" style="stroke: #000000; stroke-width: 0.8"/>
      </g>
     </g>
     <g id="text_15">
      <!-- 200 -->
      <g transform="translate(27.9125 114.924583) scale(0.1 -0.1)">
       <use xlink:href="#DejaVuSans-32"/>
       <use xlink:href="#DejaVuSans-30" x="63.623047"/>
       <use xlink:href="#DejaVuSans-30" x="127.246094"/>
      </g>
     </g>
    </g>
    <g id="ytick_6">
     <g id="line2d_29">
      <path d="M 54 75.906706 
L 388.8 75.906706 
" clip-path="url(#p33754f5582)" style="fill: none; stroke: #b0b0b0; stroke-width: 0.8; stroke-linecap: square"/>
     </g>
     <g id="line2d_30">
      <g>
       <use xlink:href="#m3339a817e8" x="54" y="75.906706" style="stroke: #000000; stroke-width: 0.8"/>
      </g>
     </g>
     <g id="text_16">
      <!-- 250 -->
      <g transform="translate(27.9125 79.705924) scale(0.1 -0.1)">
       <use xlink:href="#DejaVuSans-32"/>
       <use xlink:href="#DejaVuSans-35" x="63.623047"/>
       <use xlink:href="#DejaVuSans-30" x="127.246094"/>
      </g>
     </g>
    </g>
    <g id="ytick_7">
     <g id="line2d_31">
      <path d="M 54 40.688047 
L 388.8 40.688047 
" clip-path="url(#p33754f5582)" style="fill: none; stroke: #b0b0b0; stroke-width: 0.8; stroke-linecap: square"/>
     </g>
     <g id="line2d_32">
      <g>
       <use xlink:href="#m3339a817e8" x="54" y="40.688047" style="stroke: #000000; stroke-width: 0.8"/>
      </g>
     </g>
     <g id="text_17">
      <!-- 300 -->
      <g transform="translate(27.9125 44.487265) scale(0.1 -0.1)">
       <defs>
        <path id="DejaVuSans-33" d="M 2597 2516 
Q 3050 2419 3304 2112 
Q 3559 1806 3559 1356 
Q 3559 666 3084 287 
Q 2609 -91 1734 -91 
Q 1441 -91 1130 -33 
Q 819 25 488 141 
L 488 750 
Q 750 597 1062 519 
Q 1375 441 1716 441 
Q 2309 441 2620 675 
Q 2931 909 2931 1356 
Q 2931 1769 2642 2001 
Q 2353 2234 1838 2234 
L 1294 2234 
L 1294 2753 
L 1863 2753 
Q 2328 2753 2575 2939 
Q 2822 3125 2822 3475 
Q 2822 3834 2567 4026 
Q 2313 4219 1838 4219 
Q 1578 4219 1281 4162 
Q 984 4106 628 3988 
L 628 4550 
Q 988 4650 1302 4700 
Q 1616 4750 1894 4750 
Q 2613 4750 3031 4423 
Q 3450 4097 3450 3541 
Q 3450 3153 3228 2886 
Q 3006 2619 2597 2516 
z
" transform="scale(0.015625)"/>
       </defs>
       <use xlink:href="#DejaVuSans-33"/>
       <use xlink:href="#DejaVuSans-30" x="63.623047"/>
       <use xlink:href="#DejaVuSans-30" x="127.246094"/>
      </g>
     </g>
    </g>
    <g id="text_18">
     <!-- # of events -->
     <g transform="translate(21.832812 172.313594) rotate(-90) scale(0.1 -0.1)">
      <defs>
       <path id="DejaVuSans-65" d="M 3597 1894 
L 3597 1613 
L 953 1613 
Q 991 1019 1311 708 
Q 1631 397 2203 397 
Q 2534 397 2845 478 
Q 3156 559 3463 722 
L 3463 178 
Q 3153 47 2828 -22 
Q 2503 -91 2169 -91 
Q 1331 -91 842 396 
Q 353 884 353 1716 
Q 353 2575 817 3079 
Q 1281 3584 2069 3584 
Q 2775 3584 3186 3129 
Q 3597 2675 3597 1894 
z
M 3022 2063 
Q 3016 2534 2758 2815 
Q 2500 3097 2075 3097 
Q 1594 3097 1305 2825 
Q 1016 2553 972 2059 
L 3022 2063 
z
" transform="scale(0.015625)"/>
       <path id="DejaVuSans-76" d="M 191 3500 
L 800 3500 
L 1894 563 
L 2988 3500 
L 3597 3500 
L 2284 0 
L 1503 0 
L 191 3500 
z
" transform="scale(0.015625)"/>
      </defs>
      <use xlink:href="#DejaVuSans-23"/>
      <use xlink:href="#DejaVuSans-20" x="83.789062"/>
      <use xlink:href="#DejaVuSans-6f" x="115.576172"/>
      <use xlink:href="#DejaVuSans-66" x="176.757812"/>
      <use xlink:href="#DejaVuSans-20" x="211.962891"/>
      <use xlink:href="#DejaVuSans-65" x="243.75"/>
      <use xlink:href="#DejaVuSans-76" x="305.273438"/>
      <use xlink:href="#DejaVuSans-65" x="364.453125"/>
      <use xlink:href="#DejaVuSans-6e" x="425.976562"/>
      <use xlink:href="#DejaVuSans-74" x="489.355469"/>
      <use xlink:href="#DejaVuSans-73" x="528.564453"/>
     </g>
    </g>
   </g>
   <g id="patch_206">
    <path d="M 54 252 
L 54 34.56 
" style="fill: none; stroke: #000000; stroke-width: 0.8; stroke-linejoin: miter; stroke-linecap: square"/>
   </g>
   <g id="patch_207">
    <path d="M 388.8 252 
L 388.8 34.56 
" style="fill: none; stroke: #000000; stroke-width: 0.8; stroke-linejoin: miter; stroke-linecap: square"/>
   </g>
   <g id="patch_208">
    <path d="M 54 252 
L 388.8 252 
" style="fill: none; stroke: #000000; stroke-width: 0.8; stroke-linejoin: miter; stroke-linecap: square"/>
   </g>
   <g id="patch_209">
    <path d="M 54 34.56 
L 388.8 34.56 
" style="fill: none; stroke: #000000; stroke-width: 0.8; stroke-linejoin: miter; stroke-linecap: square"/>
   </g>
   <g id="text_19">
    <!-- $\mu=83.58,\ \sigma=22.567$ -->
    <g transform="translate(193.662427 104.081633) scale(0.14 -0.14)">
     <defs>
      <path id="DejaVuSans-Oblique-3bc" d="M -84 -1331 
L 856 3500 
L 1434 3500 
L 1009 1322 
Q 997 1256 987 1175 
Q 978 1094 978 1013 
Q 978 722 1161 565 
Q 1344 409 1684 409 
Q 2147 409 2431 671 
Q 2716 934 2816 1459 
L 3213 3500 
L 3788 3500 
L 3266 809 
Q 3253 750 3248 706 
Q 3244 663 3244 628 
Q 3244 531 3283 486 
Q 3322 441 3406 441 
Q 3438 441 3492 456 
Q 3547 472 3647 513 
L 3559 50 
Q 3422 -19 3297 -55 
Q 3172 -91 3053 -91 
Q 2847 -91 2730 40 
Q 2613 172 2613 403 
Q 2438 153 2195 31 
Q 1953 -91 1625 -91 
Q 1334 -91 1117 43 
Q 900 178 831 397 
L 494 -1331 
L -84 -1331 
z
" transform="scale(0.015625)"/>
      <path id="DejaVuSans-3d" d="M 678 2906 
L 4684 2906 
L 4684 2381 
L 678 2381 
L 678 2906 
z
M 678 1631 
L 4684 1631 
L 4684 1100 
L 678 1100 
L 678 1631 
z
" transform="scale(0.015625)"/>
      <path id="DejaVuSans-38" d="M 2034 2216 
Q 1584 2216 1326 1975 
Q 1069 1734 1069 1313 
Q 1069 891 1326 650 
Q 1584 409 2034 409 
Q 2484 409 2743 651 
Q 3003 894 3003 1313 
Q 3003 1734 2745 1975 
Q 2488 2216 2034 2216 
z
M 1403 2484 
Q 997 2584 770 2862 
Q 544 3141 544 3541 
Q 544 4100 942 4425 
Q 1341 4750 2034 4750 
Q 2731 4750 3128 4425 
Q 3525 4100 3525 3541 
Q 3525 3141 3298 2862 
Q 3072 2584 2669 2484 
Q 3125 2378 3379 2068 
Q 3634 1759 3634 1313 
Q 3634 634 3220 271 
Q 2806 -91 2034 -91 
Q 1263 -91 848 271 
Q 434 634 434 1313 
Q 434 1759 690 2068 
Q 947 2378 1403 2484 
z
M 1172 3481 
Q 1172 3119 1398 2916 
Q 1625 2713 2034 2713 
Q 2441 2713 2670 2916 
Q 2900 3119 2900 3481 
Q 2900 3844 2670 4047 
Q 2441 4250 2034 4250 
Q 1625 4250 1398 4047 
Q 1172 3844 1172 3481 
z
" transform="scale(0.015625)"/>
      <path id="DejaVuSans-2e" d="M 684 794 
L 1344 794 
L 1344 0 
L 684 0 
L 684 794 
z
" transform="scale(0.015625)"/>
      <path id="DejaVuSans-2c" d="M 750 794 
L 1409 794 
L 1409 256 
L 897 -744 
L 494 -744 
L 750 256 
L 750 794 
z
" transform="scale(0.015625)"/>
      <path id="DejaVuSans-Oblique-3c3" d="M 2219 3044 
Q 1744 3044 1422 2700 
Q 1081 2341 969 1747 
Q 844 1119 1044 756 
Q 1241 397 1706 397 
Q 2166 397 2503 759 
Q 2844 1122 2966 1747 
Q 3075 2319 2881 2700 
Q 2700 3044 2219 3044 
z
M 2309 3503 
L 4219 3500 
L 4106 2925 
L 3463 2925 
Q 3706 2438 3575 1747 
Q 3406 888 2884 400 
Q 2359 -91 1609 -91 
Q 856 -91 525 400 
Q 194 888 363 1747 
Q 528 2609 1050 3097 
Q 1484 3503 2309 3503 
z
" transform="scale(0.015625)"/>
      <path id="DejaVuSans-36" d="M 2113 2584 
Q 1688 2584 1439 2293 
Q 1191 2003 1191 1497 
Q 1191 994 1439 701 
Q 1688 409 2113 409 
Q 2538 409 2786 701 
Q 3034 994 3034 1497 
Q 3034 2003 2786 2293 
Q 2538 2584 2113 2584 
z
M 3366 4563 
L 3366 3988 
Q 3128 4100 2886 4159 
Q 2644 4219 2406 4219 
Q 1781 4219 1451 3797 
Q 1122 3375 1075 2522 
Q 1259 2794 1537 2939 
Q 1816 3084 2150 3084 
Q 2853 3084 3261 2657 
Q 3669 2231 3669 1497 
Q 3669 778 3244 343 
Q 2819 -91 2113 -91 
Q 1303 -91 875 529 
Q 447 1150 447 2328 
Q 447 3434 972 4092 
Q 1497 4750 2381 4750 
Q 2619 4750 2861 4703 
Q 3103 4656 3366 4563 
z
" transform="scale(0.015625)"/>
     </defs>
     <use xlink:href="#DejaVuSans-Oblique-3bc" transform="translate(0 0.78125)"/>
     <use xlink:href="#DejaVuSans-3d" transform="translate(83.105469 0.78125)"/>
     <use xlink:href="#DejaVuSans-38" transform="translate(186.376953 0.78125)"/>
     <use xlink:href="#DejaVuSans-33" transform="translate(250 0.78125)"/>
     <use xlink:href="#DejaVuSans-2e" transform="translate(313.623047 0.78125)"/>
     <use xlink:href="#DejaVuSans-35" transform="translate(345.410156 0.78125)"/>
     <use xlink:href="#DejaVuSans-38" transform="translate(409.033203 0.78125)"/>
     <use xlink:href="#DejaVuSans-2c" transform="translate(472.65625 0.78125)"/>
     <use xlink:href="#DejaVuSans-Oblique-3c3" transform="translate(556.39616 0.78125)"/>
     <use xlink:href="#DejaVuSans-3d" transform="translate(639.257488 0.78125)"/>
     <use xlink:href="#DejaVuSans-32" transform="translate(742.528972 0.78125)"/>
     <use xlink:href="#DejaVuSans-32" transform="translate(806.152019 0.78125)"/>
     <use xlink:href="#DejaVuSans-2e" transform="translate(869.775066 0.78125)"/>
     <use xlink:href="#DejaVuSans-35" transform="translate(901.562175 0.78125)"/>
     <use xlink:href="#DejaVuSans-36" transform="translate(965.185222 0.78125)"/>
     <use xlink:href="#DejaVuSans-37" transform="translate(1028.808269 0.78125)"/>
    </g>
   </g>
   <g id="text_20">
    <!-- # of photons, 5GeV pi-, 1.5m length segment -->
    <g transform="translate(84.460313 28.56) scale(0.12 -0.12)">
     <defs>
      <path id="DejaVuSans-47" d="M 3809 666 
L 3809 1919 
L 2778 1919 
L 2778 2438 
L 4434 2438 
L 4434 434 
Q 4069 175 3628 42 
Q 3188 -91 2688 -91 
Q 1594 -91 976 548 
Q 359 1188 359 2328 
Q 359 3472 976 4111 
Q 1594 4750 2688 4750 
Q 3144 4750 3555 4637 
Q 3966 4525 4313 4306 
L 4313 3634 
Q 3963 3931 3569 4081 
Q 3175 4231 2741 4231 
Q 1884 4231 1454 3753 
Q 1025 3275 1025 2328 
Q 1025 1384 1454 906 
Q 1884 428 2741 428 
Q 3075 428 3337 486 
Q 3600 544 3809 666 
z
" transform="scale(0.015625)"/>
      <path id="DejaVuSans-56" d="M 1831 0 
L 50 4666 
L 709 4666 
L 2188 738 
L 3669 4666 
L 4325 4666 
L 2547 0 
L 1831 0 
z
" transform="scale(0.015625)"/>
      <path id="DejaVuSans-69" d="M 603 3500 
L 1178 3500 
L 1178 0 
L 603 0 
L 603 3500 
z
M 603 4863 
L 1178 4863 
L 1178 4134 
L 603 4134 
L 603 4863 
z
" transform="scale(0.015625)"/>
      <path id="DejaVuSans-2d" d="M 313 2009 
L 1997 2009 
L 1997 1497 
L 313 1497 
L 313 2009 
z
" transform="scale(0.015625)"/>
      <path id="DejaVuSans-6d" d="M 3328 2828 
Q 3544 3216 3844 3400 
Q 4144 3584 4550 3584 
Q 5097 3584 5394 3201 
Q 5691 2819 5691 2113 
L 5691 0 
L 5113 0 
L 5113 2094 
Q 5113 2597 4934 2840 
Q 4756 3084 4391 3084 
Q 3944 3084 3684 2787 
Q 3425 2491 3425 1978 
L 3425 0 
L 2847 0 
L 2847 2094 
Q 2847 2600 2669 2842 
Q 2491 3084 2119 3084 
Q 1678 3084 1418 2786 
Q 1159 2488 1159 1978 
L 1159 0 
L 581 0 
L 581 3500 
L 1159 3500 
L 1159 2956 
Q 1356 3278 1631 3431 
Q 1906 3584 2284 3584 
Q 2666 3584 2933 3390 
Q 3200 3197 3328 2828 
z
" transform="scale(0.015625)"/>
      <path id="DejaVuSans-6c" d="M 603 4863 
L 1178 4863 
L 1178 0 
L 603 0 
L 603 4863 
z
" transform="scale(0.015625)"/>
      <path id="DejaVuSans-67" d="M 2906 1791 
Q 2906 2416 2648 2759 
Q 2391 3103 1925 3103 
Q 1463 3103 1205 2759 
Q 947 2416 947 1791 
Q 947 1169 1205 825 
Q 1463 481 1925 481 
Q 2391 481 2648 825 
Q 2906 1169 2906 1791 
z
M 3481 434 
Q 3481 -459 3084 -895 
Q 2688 -1331 1869 -1331 
Q 1566 -1331 1297 -1286 
Q 1028 -1241 775 -1147 
L 775 -588 
Q 1028 -725 1275 -790 
Q 1522 -856 1778 -856 
Q 2344 -856 2625 -561 
Q 2906 -266 2906 331 
L 2906 616 
Q 2728 306 2450 153 
Q 2172 0 1784 0 
Q 1141 0 747 490 
Q 353 981 353 1791 
Q 353 2603 747 3093 
Q 1141 3584 1784 3584 
Q 2172 3584 2450 3431 
Q 2728 3278 2906 2969 
L 2906 3500 
L 3481 3500 
L 3481 434 
z
" transform="scale(0.015625)"/>
     </defs>
     <use xlink:href="#DejaVuSans-23"/>
     <use xlink:href="#DejaVuSans-20" x="83.789062"/>
     <use xlink:href="#DejaVuSans-6f" x="115.576172"/>
     <use xlink:href="#DejaVuSans-66" x="176.757812"/>
     <use xlink:href="#DejaVuSans-20" x="211.962891"/>
     <use xlink:href="#DejaVuSans-70" x="243.75"/>
     <use xlink:href="#DejaVuSans-68" x="307.226562"/>
     <use xlink:href="#DejaVuSans-6f" x="370.605469"/>
     <use xlink:href="#DejaVuSans-74" x="431.787109"/>
     <use xlink:href="#DejaVuSans-6f" x="470.996094"/>
     <use xlink:href="#DejaVuSans-6e" x="532.177734"/>
     <use xlink:href="#DejaVuSans-73" x="595.556641"/>
     <use xlink:href="#DejaVuSans-2c" x="647.65625"/>
     <use xlink:href="#DejaVuSans-20" x="679.443359"/>
     <use xlink:href="#DejaVuSans-35" x="711.230469"/>
     <use xlink:href="#DejaVuSans-47" x="774.853516"/>
     <use xlink:href="#DejaVuSans-65" x="852.34375"/>
     <use xlink:href="#DejaVuSans-56" x="913.867188"/>
     <use xlink:href="#DejaVuSans-20" x="982.275391"/>
     <use xlink:href="#DejaVuSans-70" x="1014.0625"/>
     <use xlink:href="#DejaVuSans-69" x="1077.539062"/>
     <use xlink:href="#DejaVuSans-2d" x="1105.322266"/>
     <use xlink:href="#DejaVuSans-2c" x="1141.40625"/>
     <use xlink:href="#DejaVuSans-20" x="1173.193359"/>
     <use xlink:href="#DejaVuSans-31" x="1204.980469"/>
     <use xlink:href="#DejaVuSans-2e" x="1268.603516"/>
     <use xlink:href="#DejaVuSans-35" x="1300.390625"/>
     <use xlink:href="#DejaVuSans-6d" x="1364.013672"/>
     <use xlink:href="#DejaVuSans-20" x="1461.425781"/>
     <use xlink:href="#DejaVuSans-6c" x="1493.212891"/>
     <use xlink:href="#DejaVuSans-65" x="1520.996094"/>
     <use xlink:href="#DejaVuSans-6e" x="1582.519531"/>
     <use xlink:href="#DejaVuSans-67" x="1645.898438"/>
     <use xlink:href="#DejaVuSans-74" x="1709.375"/>
     <use xlink:href="#DejaVuSans-68" x="1748.583984"/>
     <use xlink:href="#DejaVuSans-20" x="1811.962891"/>
     <use xlink:href="#DejaVuSans-73" x="1843.75"/>
     <use xlink:href="#DejaVuSans-65" x="1895.849609"/>
     <use xlink:href="#DejaVuSans-67" x="1957.373047"/>
     <use xlink:href="#DejaVuSans-6d" x="2020.849609"/>
     <use xlink:href="#DejaVuSans-65" x="2118.261719"/>
     <use xlink:href="#DejaVuSans-6e" x="2179.785156"/>
     <use xlink:href="#DejaVuSans-74" x="2243.164062"/>
    </g>
   </g>
  </g>
 </g>
 <defs>
  <clipPath id="p33754f5582">
   <rect x="54" y="34.56" width="334.8" height="217.44"/>
  </clipPath>
 </defs>
</svg>
