<?xml version="1.0" encoding="utf-8" standalone="no"?>
<!DOCTYPE svg PUBLIC "-//W3C//DTD SVG 1.1//EN"
  "http://www.w3.org/Graphics/SVG/1.1/DTD/svg11.dtd">
<svg xmlns:xlink="http://www.w3.org/1999/xlink" width="432pt" height="288pt" viewBox="0 0 432 288" xmlns="http://www.w3.org/2000/svg" version="1.1">
 <metadata>
  <rdf:RDF xmlns:dc="http://purl.org/dc/elements/1.1/" xmlns:cc="http://creativecommons.org/ns#" xmlns:rdf="http://www.w3.org/1999/02/22-rdf-syntax-ns#">
   <cc:Work>
    <dc:type rdf:resource="http://purl.org/dc/dcmitype/StillImage"/>
    <dc:date>2024-06-04T15:24:12.297475</dc:date>
    <dc:format>image/svg+xml</dc:format>
    <dc:creator>
     <cc:Agent>
      <dc:title>Matplotlib v3.7.4, https://matplotlib.org/</dc:title>
     </cc:Agent>
    </dc:creator>
   </cc:Work>
  </rdf:RDF>
 </metadata>
 <defs>
  <style type="text/css">*{stroke-linejoin: round; stroke-linecap: butt}</style>
 </defs>
 <g id="figure_1">
  <g id="patch_1">
   <path d="M 0 288 
L 432 288 
L 432 0 
L 0 0 
L 0 288 
z
" style="fill: none"/>
  </g>
  <g id="axes_1">
   <g id="patch_2">
    <path d="M 54 252 
L 388.8 252 
L 388.8 34.56 
L 54 34.56 
z
" style="fill: #ffffff"/>
   </g>
   <g id="patch_3">
    <path d="M 69.218182 252 
L 74.752066 252 
L 74.752066 251.527202 
L 69.218182 251.527202 
z
" clip-path="url(#p6f15af58be)" style="fill: #008000"/>
   </g>
   <g id="patch_4">
    <path d="M 74.752066 252 
L 80.28595 252 
L 80.28595 250.581605 
L 74.752066 250.581605 
z
" clip-path="url(#p6f15af58be)" style="fill: #008000"/>
   </g>
   <g id="patch_5">
    <path d="M 80.28595 252 
L 85.819835 252 
L 85.819835 249.399609 
L 80.28595 249.399609 
z
" clip-path="url(#p6f15af58be)" style="fill: #008000"/>
   </g>
   <g id="patch_6">
    <path d="M 85.819835 252 
L 91.353719 252 
L 91.353719 242.780431 
L 85.819835 242.780431 
z
" clip-path="url(#p6f15af58be)" style="fill: #008000"/>
   </g>
   <g id="patch_7">
    <path d="M 91.353719 252 
L 96.887603 252 
L 96.887603 234.979256 
L 91.353719 234.979256 
z
" clip-path="url(#p6f15af58be)" style="fill: #008000"/>
   </g>
   <g id="patch_8">
    <path d="M 96.887603 252 
L 102.421488 252 
L 102.421488 213.466928 
L 96.887603 213.466928 
z
" clip-path="url(#p6f15af58be)" style="fill: #008000"/>
   </g>
   <g id="patch_9">
    <path d="M 102.421488 252 
L 107.955372 252 
L 107.955372 197.391781 
L 102.421488 197.391781 
z
" clip-path="url(#p6f15af58be)" style="fill: #008000"/>
   </g>
   <g id="patch_10">
    <path d="M 107.955372 252 
L 113.489256 252 
L 113.489256 158.622309 
L 107.955372 158.622309 
z
" clip-path="url(#p6f15af58be)" style="fill: #008000"/>
   </g>
   <g id="patch_11">
    <path d="M 113.489256 252 
L 119.02314 252 
L 119.02314 121.034834 
L 113.489256 121.034834 
z
" clip-path="url(#p6f15af58be)" style="fill: #008000"/>
   </g>
   <g id="patch_12">
    <path d="M 119.02314 252 
L 124.557025 252 
L 124.557025 91.95773 
L 119.02314 91.95773 
z
" clip-path="url(#p6f15af58be)" style="fill: #008000"/>
   </g>
   <g id="patch_13">
    <path d="M 124.557025 252 
L 130.090909 252 
L 130.090909 70.6818 
L 124.557025 70.6818 
z
" clip-path="url(#p6f15af58be)" style="fill: #008000"/>
   </g>
   <g id="patch_14">
    <path d="M 130.090909 252 
L 135.624793 252 
L 135.624793 44.914286 
L 130.090909 44.914286 
z
" clip-path="url(#p6f15af58be)" style="fill: #008000"/>
   </g>
   <g id="patch_15">
    <path d="M 135.624793 252 
L 141.158678 252 
L 141.158678 57.679843 
L 135.624793 57.679843 
z
" clip-path="url(#p6f15af58be)" style="fill: #008000"/>
   </g>
   <g id="patch_16">
    <path d="M 141.158678 252 
L 146.692562 252 
L 146.692562 47.987476 
L 141.158678 47.987476 
z
" clip-path="url(#p6f15af58be)" style="fill: #008000"/>
   </g>
   <g id="patch_17">
    <path d="M 146.692562 252 
L 152.226446 252 
L 152.226446 59.571037 
L 146.692562 59.571037 
z
" clip-path="url(#p6f15af58be)" style="fill: #008000"/>
   </g>
   <g id="patch_18">
    <path d="M 152.226446 252 
L 157.760331 252 
L 157.760331 86.756947 
L 152.226446 86.756947 
z
" clip-path="url(#p6f15af58be)" style="fill: #008000"/>
   </g>
   <g id="patch_19">
    <path d="M 157.760331 252 
L 163.294215 252 
L 163.294215 110.16047 
L 157.760331 110.16047 
z
" clip-path="url(#p6f15af58be)" style="fill: #008000"/>
   </g>
   <g id="patch_20">
    <path d="M 163.294215 252 
L 168.828099 252 
L 168.828099 131.2 
L 163.294215 131.2 
z
" clip-path="url(#p6f15af58be)" style="fill: #008000"/>
   </g>
   <g id="patch_21">
    <path d="M 168.828099 252 
L 174.361983 252 
L 174.361983 163.586693 
L 168.828099 163.586693 
z
" clip-path="url(#p6f15af58be)" style="fill: #008000"/>
   </g>
   <g id="patch_22">
    <path d="M 174.361983 252 
L 179.895868 252 
L 179.895868 177.061448 
L 174.361983 177.061448 
z
" clip-path="url(#p6f15af58be)" style="fill: #008000"/>
   </g>
   <g id="patch_23">
    <path d="M 179.895868 252 
L 185.429752 252 
L 185.429752 198.810176 
L 179.895868 198.810176 
z
" clip-path="url(#p6f15af58be)" style="fill: #008000"/>
   </g>
   <g id="patch_24">
    <path d="M 185.429752 252 
L 190.963636 252 
L 190.963636 211.339335 
L 185.429752 211.339335 
z
" clip-path="url(#p6f15af58be)" style="fill: #008000"/>
   </g>
   <g id="patch_25">
    <path d="M 190.963636 252 
L 196.497521 252 
L 196.497521 213.466928 
L 190.963636 213.466928 
z
" clip-path="url(#p6f15af58be)" style="fill: #008000"/>
   </g>
   <g id="patch_26">
    <path d="M 196.497521 252 
L 202.031405 252 
L 202.031405 221.977299 
L 196.497521 221.977299 
z
" clip-path="url(#p6f15af58be)" style="fill: #008000"/>
   </g>
   <g id="patch_27">
    <path d="M 202.031405 252 
L 207.565289 252 
L 207.565289 229.778474 
L 202.031405 229.778474 
z
" clip-path="url(#p6f15af58be)" style="fill: #008000"/>
   </g>
   <g id="patch_28">
    <path d="M 207.565289 252 
L 213.099174 252 
L 213.099174 234.033659 
L 207.565289 234.033659 
z
" clip-path="url(#p6f15af58be)" style="fill: #008000"/>
   </g>
   <g id="patch_29">
    <path d="M 213.099174 252 
L 218.633058 252 
L 218.633058 237.106849 
L 213.099174 237.106849 
z
" clip-path="url(#p6f15af58be)" style="fill: #008000"/>
   </g>
   <g id="patch_30">
    <path d="M 218.633058 252 
L 224.166942 252 
L 224.166942 239.234442 
L 218.633058 239.234442 
z
" clip-path="url(#p6f15af58be)" style="fill: #008000"/>
   </g>
   <g id="patch_31">
    <path d="M 224.166942 252 
L 229.700826 252 
L 229.700826 241.362035 
L 224.166942 241.362035 
z
" clip-path="url(#p6f15af58be)" style="fill: #008000"/>
   </g>
   <g id="patch_32">
    <path d="M 229.700826 252 
L 235.234711 252 
L 235.234711 247.272016 
L 229.700826 247.272016 
z
" clip-path="url(#p6f15af58be)" style="fill: #008000"/>
   </g>
   <g id="patch_33">
    <path d="M 235.234711 252 
L 240.768595 252 
L 240.768595 245.144423 
L 235.234711 245.144423 
z
" clip-path="url(#p6f15af58be)" style="fill: #008000"/>
   </g>
   <g id="patch_34">
    <path d="M 240.768595 252 
L 246.302479 252 
L 246.302479 247.981213 
L 240.768595 247.981213 
z
" clip-path="url(#p6f15af58be)" style="fill: #008000"/>
   </g>
   <g id="patch_35">
    <path d="M 246.302479 252 
L 251.836364 252 
L 251.836364 246.326419 
L 246.302479 246.326419 
z
" clip-path="url(#p6f15af58be)" style="fill: #008000"/>
   </g>
   <g id="patch_36">
    <path d="M 251.836364 252 
L 257.370248 252 
L 257.370248 247.981213 
L 251.836364 247.981213 
z
" clip-path="url(#p6f15af58be)" style="fill: #008000"/>
   </g>
   <g id="patch_37">
    <path d="M 257.370248 252 
L 262.904132 252 
L 262.904132 249.163209 
L 257.370248 249.163209 
z
" clip-path="url(#p6f15af58be)" style="fill: #008000"/>
   </g>
   <g id="patch_38">
    <path d="M 262.904132 252 
L 268.438017 252 
L 268.438017 248.690411 
L 262.904132 248.690411 
z
" clip-path="url(#p6f15af58be)" style="fill: #008000"/>
   </g>
   <g id="patch_39">
    <path d="M 268.438017 252 
L 273.971901 252 
L 273.971901 249.399609 
L 268.438017 249.399609 
z
" clip-path="url(#p6f15af58be)" style="fill: #008000"/>
   </g>
   <g id="patch_40">
    <path d="M 273.971901 252 
L 279.505785 252 
L 279.505785 250.345205 
L 273.971901 250.345205 
z
" clip-path="url(#p6f15af58be)" style="fill: #008000"/>
   </g>
   <g id="patch_41">
    <path d="M 279.505785 252 
L 285.039669 252 
L 285.039669 250.345205 
L 279.505785 250.345205 
z
" clip-path="url(#p6f15af58be)" style="fill: #008000"/>
   </g>
   <g id="patch_42">
    <path d="M 285.039669 252 
L 290.573554 252 
L 290.573554 250.345205 
L 285.039669 250.345205 
z
" clip-path="url(#p6f15af58be)" style="fill: #008000"/>
   </g>
   <g id="patch_43">
    <path d="M 290.573554 252 
L 296.107438 252 
L 296.107438 250.581605 
L 290.573554 250.581605 
z
" clip-path="url(#p6f15af58be)" style="fill: #008000"/>
   </g>
   <g id="patch_44">
    <path d="M 296.107438 252 
L 301.641322 252 
L 301.641322 251.527202 
L 296.107438 251.527202 
z
" clip-path="url(#p6f15af58be)" style="fill: #008000"/>
   </g>
   <g id="patch_45">
    <path d="M 301.641322 252 
L 307.175207 252 
L 307.175207 251.763601 
L 301.641322 251.763601 
z
" clip-path="url(#p6f15af58be)" style="fill: #008000"/>
   </g>
   <g id="patch_46">
    <path d="M 307.175207 252 
L 312.709091 252 
L 312.709091 251.527202 
L 307.175207 251.527202 
z
" clip-path="url(#p6f15af58be)" style="fill: #008000"/>
   </g>
   <g id="patch_47">
    <path d="M 312.709091 252 
L 318.242975 252 
L 318.242975 251.527202 
L 312.709091 251.527202 
z
" clip-path="url(#p6f15af58be)" style="fill: #008000"/>
   </g>
   <g id="patch_48">
    <path d="M 318.242975 252 
L 323.77686 252 
L 323.77686 251.527202 
L 318.242975 251.527202 
z
" clip-path="url(#p6f15af58be)" style="fill: #008000"/>
   </g>
   <g id="patch_49">
    <path d="M 323.77686 252 
L 329.310744 252 
L 329.310744 251.054403 
L 323.77686 251.054403 
z
" clip-path="url(#p6f15af58be)" style="fill: #008000"/>
   </g>
   <g id="patch_50">
    <path d="M 329.310744 252 
L 334.844628 252 
L 334.844628 252 
L 329.310744 252 
z
" clip-path="url(#p6f15af58be)" style="fill: #008000"/>
   </g>
   <g id="patch_51">
    <path d="M 334.844628 252 
L 340.378512 252 
L 340.378512 251.763601 
L 334.844628 251.763601 
z
" clip-path="url(#p6f15af58be)" style="fill: #008000"/>
   </g>
   <g id="patch_52">
    <path d="M 340.378512 252 
L 345.912397 252 
L 345.912397 251.527202 
L 340.378512 251.527202 
z
" clip-path="url(#p6f15af58be)" style="fill: #008000"/>
   </g>
   <g id="patch_53">
    <path d="M 345.912397 252 
L 351.446281 252 
L 351.446281 252 
L 345.912397 252 
z
" clip-path="url(#p6f15af58be)" style="fill: #008000"/>
   </g>
   <g id="patch_54">
    <path d="M 351.446281 252 
L 356.980165 252 
L 356.980165 252 
L 351.446281 252 
z
" clip-path="url(#p6f15af58be)" style="fill: #008000"/>
   </g>
   <g id="patch_55">
    <path d="M 356.980165 252 
L 362.51405 252 
L 362.51405 252 
L 356.980165 252 
z
" clip-path="url(#p6f15af58be)" style="fill: #008000"/>
   </g>
   <g id="patch_56">
    <path d="M 362.51405 252 
L 368.047934 252 
L 368.047934 252 
L 362.51405 252 
z
" clip-path="url(#p6f15af58be)" style="fill: #008000"/>
   </g>
   <g id="patch_57">
    <path d="M 368.047934 252 
L 373.581818 252 
L 373.581818 251.763601 
L 368.047934 251.763601 
z
" clip-path="url(#p6f15af58be)" style="fill: #008000"/>
   </g>
   <g id="matplotlib.axis_1">
    <g id="xtick_1">
     <g id="line2d_1">
      <path d="M 58.150413 252 
L 58.150413 34.56 
" clip-path="url(#p6f15af58be)" style="fill: none; stroke: #b0b0b0; stroke-width: 0.8; stroke-linecap: square"/>
     </g>
     <g id="line2d_2">
      <defs>
       <path id="m9a0c0eee16" d="M 0 0 
L 0 3.5 
" style="stroke: #000000; stroke-width: 0.8"/>
      </defs>
      <g>
       <use xlink:href="#m9a0c0eee16" x="58.150413" y="252" style="stroke: #000000; stroke-width: 0.8"/>
      </g>
     </g>
     <g id="text_1">
      <!-- 0 -->
      <g transform="translate(54.969163 266.598437) scale(0.1 -0.1)">
       <defs>
        <path id="DejaVuSans-30" d="M 2034 4250 
Q 1547 4250 1301 3770 
Q 1056 3291 1056 2328 
Q 1056 1369 1301 889 
Q 1547 409 2034 409 
Q 2525 409 2770 889 
Q 3016 1369 3016 2328 
Q 3016 3291 2770 3770 
Q 2525 4250 2034 4250 
z
M 2034 4750 
Q 2819 4750 3233 4129 
Q 3647 3509 3647 2328 
Q 3647 1150 3233 529 
Q 2819 -91 2034 -91 
Q 1250 -91 836 529 
Q 422 1150 422 2328 
Q 422 3509 836 4129 
Q 1250 4750 2034 4750 
z
" transform="scale(0.015625)"/>
       </defs>
       <use xlink:href="#DejaVuSans-30"/>
      </g>
     </g>
    </g>
    <g id="xtick_2">
     <g id="line2d_3">
      <path d="M 113.489256 252 
L 113.489256 34.56 
" clip-path="url(#p6f15af58be)" style="fill: none; stroke: #b0b0b0; stroke-width: 0.8; stroke-linecap: square"/>
     </g>
     <g id="line2d_4">
      <g>
       <use xlink:href="#m9a0c0eee16" x="113.489256" y="252" style="stroke: #000000; stroke-width: 0.8"/>
      </g>
     </g>
     <g id="text_2">
      <!-- 10 -->
      <g transform="translate(107.126756 266.598437) scale(0.1 -0.1)">
       <defs>
        <path id="DejaVuSans-31" d="M 794 531 
L 1825 531 
L 1825 4091 
L 703 3866 
L 703 4441 
L 1819 4666 
L 2450 4666 
L 2450 531 
L 3481 531 
L 3481 0 
L 794 0 
L 794 531 
z
" transform="scale(0.015625)"/>
       </defs>
       <use xlink:href="#DejaVuSans-31"/>
       <use xlink:href="#DejaVuSans-30" x="63.623047"/>
      </g>
     </g>
    </g>
    <g id="xtick_3">
     <g id="line2d_5">
      <path d="M 168.828099 252 
L 168.828099 34.56 
" clip-path="url(#p6f15af58be)" style="fill: none; stroke: #b0b0b0; stroke-width: 0.8; stroke-linecap: square"/>
     </g>
     <g id="line2d_6">
      <g>
       <use xlink:href="#m9a0c0eee16" x="168.828099" y="252" style="stroke: #000000; stroke-width: 0.8"/>
      </g>
     </g>
     <g id="text_3">
      <!-- 20 -->
      <g transform="translate(162.465599 266.598437) scale(0.1 -0.1)">
       <defs>
        <path id="DejaVuSans-32" d="M 1228 531 
L 3431 531 
L 3431 0 
L 469 0 
L 469 531 
Q 828 903 1448 1529 
Q 2069 2156 2228 2338 
Q 2531 2678 2651 2914 
Q 2772 3150 2772 3378 
Q 2772 3750 2511 3984 
Q 2250 4219 1831 4219 
Q 1534 4219 1204 4116 
Q 875 4013 500 3803 
L 500 4441 
Q 881 4594 1212 4672 
Q 1544 4750 1819 4750 
Q 2544 4750 2975 4387 
Q 3406 4025 3406 3419 
Q 3406 3131 3298 2873 
Q 3191 2616 2906 2266 
Q 2828 2175 2409 1742 
Q 1991 1309 1228 531 
z
" transform="scale(0.015625)"/>
       </defs>
       <use xlink:href="#DejaVuSans-32"/>
       <use xlink:href="#DejaVuSans-30" x="63.623047"/>
      </g>
     </g>
    </g>
    <g id="xtick_4">
     <g id="line2d_7">
      <path d="M 224.166942 252 
L 224.166942 34.56 
" clip-path="url(#p6f15af58be)" style="fill: none; stroke: #b0b0b0; stroke-width: 0.8; stroke-linecap: square"/>
     </g>
     <g id="line2d_8">
      <g>
       <use xlink:href="#m9a0c0eee16" x="224.166942" y="252" style="stroke: #000000; stroke-width: 0.8"/>
      </g>
     </g>
     <g id="text_4">
      <!-- 30 -->
      <g transform="translate(217.804442 266.598437) scale(0.1 -0.1)">
       <defs>
        <path id="DejaVuSans-33" d="M 2597 2516 
Q 3050 2419 3304 2112 
Q 3559 1806 3559 1356 
Q 3559 666 3084 287 
Q 2609 -91 1734 -91 
Q 1441 -91 1130 -33 
Q 819 25 488 141 
L 488 750 
Q 750 597 1062 519 
Q 1375 441 1716 441 
Q 2309 441 2620 675 
Q 2931 909 2931 1356 
Q 2931 1769 2642 2001 
Q 2353 2234 1838 2234 
L 1294 2234 
L 1294 2753 
L 1863 2753 
Q 2328 2753 2575 2939 
Q 2822 3125 2822 3475 
Q 2822 3834 2567 4026 
Q 2313 4219 1838 4219 
Q 1578 4219 1281 4162 
Q 984 4106 628 3988 
L 628 4550 
Q 988 4650 1302 4700 
Q 1616 4750 1894 4750 
Q 2613 4750 3031 4423 
Q 3450 4097 3450 3541 
Q 3450 3153 3228 2886 
Q 3006 2619 2597 2516 
z
" transform="scale(0.015625)"/>
       </defs>
       <use xlink:href="#DejaVuSans-33"/>
       <use xlink:href="#DejaVuSans-30" x="63.623047"/>
      </g>
     </g>
    </g>
    <g id="xtick_5">
     <g id="line2d_9">
      <path d="M 279.505785 252 
L 279.505785 34.56 
" clip-path="url(#p6f15af58be)" style="fill: none; stroke: #b0b0b0; stroke-width: 0.8; stroke-linecap: square"/>
     </g>
     <g id="line2d_10">
      <g>
       <use xlink:href="#m9a0c0eee16" x="279.505785" y="252" style="stroke: #000000; stroke-width: 0.8"/>
      </g>
     </g>
     <g id="text_5">
      <!-- 40 -->
      <g transform="translate(273.143285 266.598437) scale(0.1 -0.1)">
       <defs>
        <path id="DejaVuSans-34" d="M 2419 4116 
L 825 1625 
L 2419 1625 
L 2419 4116 
z
M 2253 4666 
L 3047 4666 
L 3047 1625 
L 3713 1625 
L 3713 1100 
L 3047 1100 
L 3047 0 
L 2419 0 
L 2419 1100 
L 313 1100 
L 313 1709 
L 2253 4666 
z
" transform="scale(0.015625)"/>
       </defs>
       <use xlink:href="#DejaVuSans-34"/>
       <use xlink:href="#DejaVuSans-30" x="63.623047"/>
      </g>
     </g>
    </g>
    <g id="xtick_6">
     <g id="line2d_11">
      <path d="M 334.844628 252 
L 334.844628 34.56 
" clip-path="url(#p6f15af58be)" style="fill: none; stroke: #b0b0b0; stroke-width: 0.8; stroke-linecap: square"/>
     </g>
     <g id="line2d_12">
      <g>
       <use xlink:href="#m9a0c0eee16" x="334.844628" y="252" style="stroke: #000000; stroke-width: 0.8"/>
      </g>
     </g>
     <g id="text_6">
      <!-- 50 -->
      <g transform="translate(328.482128 266.598437) scale(0.1 -0.1)">
       <defs>
        <path id="DejaVuSans-35" d="M 691 4666 
L 3169 4666 
L 3169 4134 
L 1269 4134 
L 1269 2991 
Q 1406 3038 1543 3061 
Q 1681 3084 1819 3084 
Q 2600 3084 3056 2656 
Q 3513 2228 3513 1497 
Q 3513 744 3044 326 
Q 2575 -91 1722 -91 
Q 1428 -91 1123 -41 
Q 819 9 494 109 
L 494 744 
Q 775 591 1075 516 
Q 1375 441 1709 441 
Q 2250 441 2565 725 
Q 2881 1009 2881 1497 
Q 2881 1984 2565 2268 
Q 2250 2553 1709 2553 
Q 1456 2553 1204 2497 
Q 953 2441 691 2322 
L 691 4666 
z
" transform="scale(0.015625)"/>
       </defs>
       <use xlink:href="#DejaVuSans-35"/>
       <use xlink:href="#DejaVuSans-30" x="63.623047"/>
      </g>
     </g>
    </g>
    <g id="text_7">
     <!-- # of photons -->
     <g transform="translate(189.017188 280.276563) scale(0.1 -0.1)">
      <defs>
       <path id="DejaVuSans-23" d="M 3272 2816 
L 2363 2816 
L 2100 1772 
L 3016 1772 
L 3272 2816 
z
M 2803 4594 
L 2478 3297 
L 3391 3297 
L 3719 4594 
L 4219 4594 
L 3897 3297 
L 4872 3297 
L 4872 2816 
L 3775 2816 
L 3519 1772 
L 4513 1772 
L 4513 1294 
L 3397 1294 
L 3072 0 
L 2572 0 
L 2894 1294 
L 1978 1294 
L 1656 0 
L 1153 0 
L 1478 1294 
L 494 1294 
L 494 1772 
L 1594 1772 
L 1856 2816 
L 850 2816 
L 850 3297 
L 1978 3297 
L 2297 4594 
L 2803 4594 
z
" transform="scale(0.015625)"/>
       <path id="DejaVuSans-20" transform="scale(0.015625)"/>
       <path id="DejaVuSans-6f" d="M 1959 3097 
Q 1497 3097 1228 2736 
Q 959 2375 959 1747 
Q 959 1119 1226 758 
Q 1494 397 1959 397 
Q 2419 397 2687 759 
Q 2956 1122 2956 1747 
Q 2956 2369 2687 2733 
Q 2419 3097 1959 3097 
z
M 1959 3584 
Q 2709 3584 3137 3096 
Q 3566 2609 3566 1747 
Q 3566 888 3137 398 
Q 2709 -91 1959 -91 
Q 1206 -91 779 398 
Q 353 888 353 1747 
Q 353 2609 779 3096 
Q 1206 3584 1959 3584 
z
" transform="scale(0.015625)"/>
       <path id="DejaVuSans-66" d="M 2375 4863 
L 2375 4384 
L 1825 4384 
Q 1516 4384 1395 4259 
Q 1275 4134 1275 3809 
L 1275 3500 
L 2222 3500 
L 2222 3053 
L 1275 3053 
L 1275 0 
L 697 0 
L 697 3053 
L 147 3053 
L 147 3500 
L 697 3500 
L 697 3744 
Q 697 4328 969 4595 
Q 1241 4863 1831 4863 
L 2375 4863 
z
" transform="scale(0.015625)"/>
       <path id="DejaVuSans-70" d="M 1159 525 
L 1159 -1331 
L 581 -1331 
L 581 3500 
L 1159 3500 
L 1159 2969 
Q 1341 3281 1617 3432 
Q 1894 3584 2278 3584 
Q 2916 3584 3314 3078 
Q 3713 2572 3713 1747 
Q 3713 922 3314 415 
Q 2916 -91 2278 -91 
Q 1894 -91 1617 61 
Q 1341 213 1159 525 
z
M 3116 1747 
Q 3116 2381 2855 2742 
Q 2594 3103 2138 3103 
Q 1681 3103 1420 2742 
Q 1159 2381 1159 1747 
Q 1159 1113 1420 752 
Q 1681 391 2138 391 
Q 2594 391 2855 752 
Q 3116 1113 3116 1747 
z
" transform="scale(0.015625)"/>
       <path id="DejaVuSans-68" d="M 3513 2113 
L 3513 0 
L 2938 0 
L 2938 2094 
Q 2938 2591 2744 2837 
Q 2550 3084 2163 3084 
Q 1697 3084 1428 2787 
Q 1159 2491 1159 1978 
L 1159 0 
L 581 0 
L 581 4863 
L 1159 4863 
L 1159 2956 
Q 1366 3272 1645 3428 
Q 1925 3584 2291 3584 
Q 2894 3584 3203 3211 
Q 3513 2838 3513 2113 
z
" transform="scale(0.015625)"/>
       <path id="DejaVuSans-74" d="M 1172 4494 
L 1172 3500 
L 2356 3500 
L 2356 3053 
L 1172 3053 
L 1172 1153 
Q 1172 725 1289 603 
Q 1406 481 1766 481 
L 2356 481 
L 2356 0 
L 1766 0 
Q 1100 0 847 248 
Q 594 497 594 1153 
L 594 3053 
L 172 3053 
L 172 3500 
L 594 3500 
L 594 4494 
L 1172 4494 
z
" transform="scale(0.015625)"/>
       <path id="DejaVuSans-6e" d="M 3513 2113 
L 3513 0 
L 2938 0 
L 2938 2094 
Q 2938 2591 2744 2837 
Q 2550 3084 2163 3084 
Q 1697 3084 1428 2787 
Q 1159 2491 1159 1978 
L 1159 0 
L 581 0 
L 581 3500 
L 1159 3500 
L 1159 2956 
Q 1366 3272 1645 3428 
Q 1925 3584 2291 3584 
Q 2894 3584 3203 3211 
Q 3513 2838 3513 2113 
z
" transform="scale(0.015625)"/>
       <path id="DejaVuSans-73" d="M 2834 3397 
L 2834 2853 
Q 2591 2978 2328 3040 
Q 2066 3103 1784 3103 
Q 1356 3103 1142 2972 
Q 928 2841 928 2578 
Q 928 2378 1081 2264 
Q 1234 2150 1697 2047 
L 1894 2003 
Q 2506 1872 2764 1633 
Q 3022 1394 3022 966 
Q 3022 478 2636 193 
Q 2250 -91 1575 -91 
Q 1294 -91 989 -36 
Q 684 19 347 128 
L 347 722 
Q 666 556 975 473 
Q 1284 391 1588 391 
Q 1994 391 2212 530 
Q 2431 669 2431 922 
Q 2431 1156 2273 1281 
Q 2116 1406 1581 1522 
L 1381 1569 
Q 847 1681 609 1914 
Q 372 2147 372 2553 
Q 372 3047 722 3315 
Q 1072 3584 1716 3584 
Q 2034 3584 2315 3537 
Q 2597 3491 2834 3397 
z
" transform="scale(0.015625)"/>
      </defs>
      <use xlink:href="#DejaVuSans-23"/>
      <use xlink:href="#DejaVuSans-20" x="83.789062"/>
      <use xlink:href="#DejaVuSans-6f" x="115.576172"/>
      <use xlink:href="#DejaVuSans-66" x="176.757812"/>
      <use xlink:href="#DejaVuSans-20" x="211.962891"/>
      <use xlink:href="#DejaVuSans-70" x="243.75"/>
      <use xlink:href="#DejaVuSans-68" x="307.226562"/>
      <use xlink:href="#DejaVuSans-6f" x="370.605469"/>
      <use xlink:href="#DejaVuSans-74" x="431.787109"/>
      <use xlink:href="#DejaVuSans-6f" x="470.996094"/>
      <use xlink:href="#DejaVuSans-6e" x="532.177734"/>
      <use xlink:href="#DejaVuSans-73" x="595.556641"/>
     </g>
    </g>
   </g>
   <g id="matplotlib.axis_2">
    <g id="ytick_1">
     <g id="line2d_13">
      <path d="M 54 252 
L 388.8 252 
" clip-path="url(#p6f15af58be)" style="fill: none; stroke: #b0b0b0; stroke-width: 0.8; stroke-linecap: square"/>
     </g>
     <g id="line2d_14">
      <defs>
       <path id="m89caf32b9c" d="M 0 0 
L -3.5 0 
" style="stroke: #000000; stroke-width: 0.8"/>
      </defs>
      <g>
       <use xlink:href="#m89caf32b9c" x="54" y="252" style="stroke: #000000; stroke-width: 0.8"/>
      </g>
     </g>
     <g id="text_8">
      <!-- 0 -->
      <g transform="translate(40.6375 255.799219) scale(0.1 -0.1)">
       <use xlink:href="#DejaVuSans-30"/>
      </g>
     </g>
    </g>
    <g id="ytick_2">
     <g id="line2d_15">
      <path d="M 54 204.720157 
L 388.8 204.720157 
" clip-path="url(#p6f15af58be)" style="fill: none; stroke: #b0b0b0; stroke-width: 0.8; stroke-linecap: square"/>
     </g>
     <g id="line2d_16">
      <g>
       <use xlink:href="#m89caf32b9c" x="54" y="204.720157" style="stroke: #000000; stroke-width: 0.8"/>
      </g>
     </g>
     <g id="text_9">
      <!-- 200 -->
      <g transform="translate(27.9125 208.519375) scale(0.1 -0.1)">
       <use xlink:href="#DejaVuSans-32"/>
       <use xlink:href="#DejaVuSans-30" x="63.623047"/>
       <use xlink:href="#DejaVuSans-30" x="127.246094"/>
      </g>
     </g>
    </g>
    <g id="ytick_3">
     <g id="line2d_17">
      <path d="M 54 157.440313 
L 388.8 157.440313 
" clip-path="url(#p6f15af58be)" style="fill: none; stroke: #b0b0b0; stroke-width: 0.8; stroke-linecap: square"/>
     </g>
     <g id="line2d_18">
      <g>
       <use xlink:href="#m89caf32b9c" x="54" y="157.440313" style="stroke: #000000; stroke-width: 0.8"/>
      </g>
     </g>
     <g id="text_10">
      <!-- 400 -->
      <g transform="translate(27.9125 161.239532) scale(0.1 -0.1)">
       <use xlink:href="#DejaVuSans-34"/>
       <use xlink:href="#DejaVuSans-30" x="63.623047"/>
       <use xlink:href="#DejaVuSans-30" x="127.246094"/>
      </g>
     </g>
    </g>
    <g id="ytick_4">
     <g id="line2d_19">
      <path d="M 54 110.16047 
L 388.8 110.16047 
" clip-path="url(#p6f15af58be)" style="fill: none; stroke: #b0b0b0; stroke-width: 0.8; stroke-linecap: square"/>
     </g>
     <g id="line2d_20">
      <g>
       <use xlink:href="#m89caf32b9c" x="54" y="110.16047" style="stroke: #000000; stroke-width: 0.8"/>
      </g>
     </g>
     <g id="text_11">
      <!-- 600 -->
      <g transform="translate(27.9125 113.959688) scale(0.1 -0.1)">
       <defs>
        <path id="DejaVuSans-36" d="M 2113 2584 
Q 1688 2584 1439 2293 
Q 1191 2003 1191 1497 
Q 1191 994 1439 701 
Q 1688 409 2113 409 
Q 2538 409 2786 701 
Q 3034 994 3034 1497 
Q 3034 2003 2786 2293 
Q 2538 2584 2113 2584 
z
M 3366 4563 
L 3366 3988 
Q 3128 4100 2886 4159 
Q 2644 4219 2406 4219 
Q 1781 4219 1451 3797 
Q 1122 3375 1075 2522 
Q 1259 2794 1537 2939 
Q 1816 3084 2150 3084 
Q 2853 3084 3261 2657 
Q 3669 2231 3669 1497 
Q 3669 778 3244 343 
Q 2819 -91 2113 -91 
Q 1303 -91 875 529 
Q 447 1150 447 2328 
Q 447 3434 972 4092 
Q 1497 4750 2381 4750 
Q 2619 4750 2861 4703 
Q 3103 4656 3366 4563 
z
" transform="scale(0.015625)"/>
       </defs>
       <use xlink:href="#DejaVuSans-36"/>
       <use xlink:href="#DejaVuSans-30" x="63.623047"/>
       <use xlink:href="#DejaVuSans-30" x="127.246094"/>
      </g>
     </g>
    </g>
    <g id="ytick_5">
     <g id="line2d_21">
      <path d="M 54 62.880626 
L 388.8 62.880626 
" clip-path="url(#p6f15af58be)" style="fill: none; stroke: #b0b0b0; stroke-width: 0.8; stroke-linecap: square"/>
     </g>
     <g id="line2d_22">
      <g>
       <use xlink:href="#m89caf32b9c" x="54" y="62.880626" style="stroke: #000000; stroke-width: 0.8"/>
      </g>
     </g>
     <g id="text_12">
      <!-- 800 -->
      <g transform="translate(27.9125 66.679845) scale(0.1 -0.1)">
       <defs>
        <path id="DejaVuSans-38" d="M 2034 2216 
Q 1584 2216 1326 1975 
Q 1069 1734 1069 1313 
Q 1069 891 1326 650 
Q 1584 409 2034 409 
Q 2484 409 2743 651 
Q 3003 894 3003 1313 
Q 3003 1734 2745 1975 
Q 2488 2216 2034 2216 
z
M 1403 2484 
Q 997 2584 770 2862 
Q 544 3141 544 3541 
Q 544 4100 942 4425 
Q 1341 4750 2034 4750 
Q 2731 4750 3128 4425 
Q 3525 4100 3525 3541 
Q 3525 3141 3298 2862 
Q 3072 2584 2669 2484 
Q 3125 2378 3379 2068 
Q 3634 1759 3634 1313 
Q 3634 634 3220 271 
Q 2806 -91 2034 -91 
Q 1263 -91 848 271 
Q 434 634 434 1313 
Q 434 1759 690 2068 
Q 947 2378 1403 2484 
z
M 1172 3481 
Q 1172 3119 1398 2916 
Q 1625 2713 2034 2713 
Q 2441 2713 2670 2916 
Q 2900 3119 2900 3481 
Q 2900 3844 2670 4047 
Q 2441 4250 2034 4250 
Q 1625 4250 1398 4047 
Q 1172 3844 1172 3481 
z
" transform="scale(0.015625)"/>
       </defs>
       <use xlink:href="#DejaVuSans-38"/>
       <use xlink:href="#DejaVuSans-30" x="63.623047"/>
       <use xlink:href="#DejaVuSans-30" x="127.246094"/>
      </g>
     </g>
    </g>
    <g id="text_13">
     <!-- # of events -->
     <g transform="translate(21.832812 172.313594) rotate(-90) scale(0.1 -0.1)">
      <defs>
       <path id="DejaVuSans-65" d="M 3597 1894 
L 3597 1613 
L 953 1613 
Q 991 1019 1311 708 
Q 1631 397 2203 397 
Q 2534 397 2845 478 
Q 3156 559 3463 722 
L 3463 178 
Q 3153 47 2828 -22 
Q 2503 -91 2169 -91 
Q 1331 -91 842 396 
Q 353 884 353 1716 
Q 353 2575 817 3079 
Q 1281 3584 2069 3584 
Q 2775 3584 3186 3129 
Q 3597 2675 3597 1894 
z
M 3022 2063 
Q 3016 2534 2758 2815 
Q 2500 3097 2075 3097 
Q 1594 3097 1305 2825 
Q 1016 2553 972 2059 
L 3022 2063 
z
" transform="scale(0.015625)"/>
       <path id="DejaVuSans-76" d="M 191 3500 
L 800 3500 
L 1894 563 
L 2988 3500 
L 3597 3500 
L 2284 0 
L 1503 0 
L 191 3500 
z
" transform="scale(0.015625)"/>
      </defs>
      <use xlink:href="#DejaVuSans-23"/>
      <use xlink:href="#DejaVuSans-20" x="83.789062"/>
      <use xlink:href="#DejaVuSans-6f" x="115.576172"/>
      <use xlink:href="#DejaVuSans-66" x="176.757812"/>
      <use xlink:href="#DejaVuSans-20" x="211.962891"/>
      <use xlink:href="#DejaVuSans-65" x="243.75"/>
      <use xlink:href="#DejaVuSans-76" x="305.273438"/>
      <use xlink:href="#DejaVuSans-65" x="364.453125"/>
      <use xlink:href="#DejaVuSans-6e" x="425.976562"/>
      <use xlink:href="#DejaVuSans-74" x="489.355469"/>
      <use xlink:href="#DejaVuSans-73" x="528.564453"/>
     </g>
    </g>
   </g>
   <g id="patch_58">
    <path d="M 54 252 
L 54 34.56 
" style="fill: none; stroke: #000000; stroke-width: 0.8; stroke-linejoin: miter; stroke-linecap: square"/>
   </g>
   <g id="patch_59">
    <path d="M 388.8 252 
L 388.8 34.56 
" style="fill: none; stroke: #000000; stroke-width: 0.8; stroke-linejoin: miter; stroke-linecap: square"/>
   </g>
   <g id="patch_60">
    <path d="M 54 252 
L 388.8 252 
" style="fill: none; stroke: #000000; stroke-width: 0.8; stroke-linejoin: miter; stroke-linecap: square"/>
   </g>
   <g id="patch_61">
    <path d="M 54 34.56 
L 388.8 34.56 
" style="fill: none; stroke: #000000; stroke-width: 0.8; stroke-linejoin: miter; stroke-linecap: square"/>
   </g>
   <g id="text_14">
    <!-- $\mu=15.68,\ \sigma=5.542$ -->
    <g transform="translate(509.161983 251.290802) scale(0.14 -0.14)">
     <defs>
      <path id="DejaVuSans-Oblique-3bc" d="M -84 -1331 
L 856 3500 
L 1434 3500 
L 1009 1322 
Q 997 1256 987 1175 
Q 978 1094 978 1013 
Q 978 722 1161 565 
Q 1344 409 1684 409 
Q 2147 409 2431 671 
Q 2716 934 2816 1459 
L 3213 3500 
L 3788 3500 
L 3266 809 
Q 3253 750 3248 706 
Q 3244 663 3244 628 
Q 3244 531 3283 486 
Q 3322 441 3406 441 
Q 3438 441 3492 456 
Q 3547 472 3647 513 
L 3559 50 
Q 3422 -19 3297 -55 
Q 3172 -91 3053 -91 
Q 2847 -91 2730 40 
Q 2613 172 2613 403 
Q 2438 153 2195 31 
Q 1953 -91 1625 -91 
Q 1334 -91 1117 43 
Q 900 178 831 397 
L 494 -1331 
L -84 -1331 
z
" transform="scale(0.015625)"/>
      <path id="DejaVuSans-3d" d="M 678 2906 
L 4684 2906 
L 4684 2381 
L 678 2381 
L 678 2906 
z
M 678 1631 
L 4684 1631 
L 4684 1100 
L 678 1100 
L 678 1631 
z
" transform="scale(0.015625)"/>
      <path id="DejaVuSans-2e" d="M 684 794 
L 1344 794 
L 1344 0 
L 684 0 
L 684 794 
z
" transform="scale(0.015625)"/>
      <path id="DejaVuSans-2c" d="M 750 794 
L 1409 794 
L 1409 256 
L 897 -744 
L 494 -744 
L 750 256 
L 750 794 
z
" transform="scale(0.015625)"/>
      <path id="DejaVuSans-Oblique-3c3" d="M 2219 3044 
Q 1744 3044 1422 2700 
Q 1081 2341 969 1747 
Q 844 1119 1044 756 
Q 1241 397 1706 397 
Q 2166 397 2503 759 
Q 2844 1122 2966 1747 
Q 3075 2319 2881 2700 
Q 2700 3044 2219 3044 
z
M 2309 3503 
L 4219 3500 
L 4106 2925 
L 3463 2925 
Q 3706 2438 3575 1747 
Q 3406 888 2884 400 
Q 2359 -91 1609 -91 
Q 856 -91 525 400 
Q 194 888 363 1747 
Q 528 2609 1050 3097 
Q 1484 3503 2309 3503 
z
" transform="scale(0.015625)"/>
     </defs>
     <use xlink:href="#DejaVuSans-Oblique-3bc" transform="translate(0 0.78125)"/>
     <use xlink:href="#DejaVuSans-3d" transform="translate(83.105469 0.78125)"/>
     <use xlink:href="#DejaVuSans-31" transform="translate(186.376953 0.78125)"/>
     <use xlink:href="#DejaVuSans-35" transform="translate(250 0.78125)"/>
     <use xlink:href="#DejaVuSans-2e" transform="translate(313.623047 0.78125)"/>
     <use xlink:href="#DejaVuSans-36" transform="translate(345.410156 0.78125)"/>
     <use xlink:href="#DejaVuSans-38" transform="translate(409.033203 0.78125)"/>
     <use xlink:href="#DejaVuSans-2c" transform="translate(472.65625 0.78125)"/>
     <use xlink:href="#DejaVuSans-Oblique-3c3" transform="translate(556.39616 0.78125)"/>
     <use xlink:href="#DejaVuSans-3d" transform="translate(639.257488 0.78125)"/>
     <use xlink:href="#DejaVuSans-35" transform="translate(742.528972 0.78125)"/>
     <use xlink:href="#DejaVuSans-2e" transform="translate(806.152019 0.78125)"/>
     <use xlink:href="#DejaVuSans-35" transform="translate(837.939128 0.78125)"/>
     <use xlink:href="#DejaVuSans-34" transform="translate(901.562175 0.78125)"/>
     <use xlink:href="#DejaVuSans-32" transform="translate(965.185222 0.78125)"/>
    </g>
   </g>
   <g id="text_15">
    <!-- # of photons, 5GeV pi-, 1.5m length segment -->
    <g transform="translate(84.460313 28.56) scale(0.12 -0.12)">
     <defs>
      <path id="DejaVuSans-47" d="M 3809 666 
L 3809 1919 
L 2778 1919 
L 2778 2438 
L 4434 2438 
L 4434 434 
Q 4069 175 3628 42 
Q 3188 -91 2688 -91 
Q 1594 -91 976 548 
Q 359 1188 359 2328 
Q 359 3472 976 4111 
Q 1594 4750 2688 4750 
Q 3144 4750 3555 4637 
Q 3966 4525 4313 4306 
L 4313 3634 
Q 3963 3931 3569 4081 
Q 3175 4231 2741 4231 
Q 1884 4231 1454 3753 
Q 1025 3275 1025 2328 
Q 1025 1384 1454 906 
Q 1884 428 2741 428 
Q 3075 428 3337 486 
Q 3600 544 3809 666 
z
" transform="scale(0.015625)"/>
      <path id="DejaVuSans-56" d="M 1831 0 
L 50 4666 
L 709 4666 
L 2188 738 
L 3669 4666 
L 4325 4666 
L 2547 0 
L 1831 0 
z
" transform="scale(0.015625)"/>
      <path id="DejaVuSans-69" d="M 603 3500 
L 1178 3500 
L 1178 0 
L 603 0 
L 603 3500 
z
M 603 4863 
L 1178 4863 
L 1178 4134 
L 603 4134 
L 603 4863 
z
" transform="scale(0.015625)"/>
      <path id="DejaVuSans-2d" d="M 313 2009 
L 1997 2009 
L 1997 1497 
L 313 1497 
L 313 2009 
z
" transform="scale(0.015625)"/>
      <path id="DejaVuSans-6d" d="M 3328 2828 
Q 3544 3216 3844 3400 
Q 4144 3584 4550 3584 
Q 5097 3584 5394 3201 
Q 5691 2819 5691 2113 
L 5691 0 
L 5113 0 
L 5113 2094 
Q 5113 2597 4934 2840 
Q 4756 3084 4391 3084 
Q 3944 3084 3684 2787 
Q 3425 2491 3425 1978 
L 3425 0 
L 2847 0 
L 2847 2094 
Q 2847 2600 2669 2842 
Q 2491 3084 2119 3084 
Q 1678 3084 1418 2786 
Q 1159 2488 1159 1978 
L 1159 0 
L 581 0 
L 581 3500 
L 1159 3500 
L 1159 2956 
Q 1356 3278 1631 3431 
Q 1906 3584 2284 3584 
Q 2666 3584 2933 3390 
Q 3200 3197 3328 2828 
z
" transform="scale(0.015625)"/>
      <path id="DejaVuSans-6c" d="M 603 4863 
L 1178 4863 
L 1178 0 
L 603 0 
L 603 4863 
z
" transform="scale(0.015625)"/>
      <path id="DejaVuSans-67" d="M 2906 1791 
Q 2906 2416 2648 2759 
Q 2391 3103 1925 3103 
Q 1463 3103 1205 2759 
Q 947 2416 947 1791 
Q 947 1169 1205 825 
Q 1463 481 1925 481 
Q 2391 481 2648 825 
Q 2906 1169 2906 1791 
z
M 3481 434 
Q 3481 -459 3084 -895 
Q 2688 -1331 1869 -1331 
Q 1566 -1331 1297 -1286 
Q 1028 -1241 775 -1147 
L 775 -588 
Q 1028 -725 1275 -790 
Q 1522 -856 1778 -856 
Q 2344 -856 2625 -561 
Q 2906 -266 2906 331 
L 2906 616 
Q 2728 306 2450 153 
Q 2172 0 1784 0 
Q 1141 0 747 490 
Q 353 981 353 1791 
Q 353 2603 747 3093 
Q 1141 3584 1784 3584 
Q 2172 3584 2450 3431 
Q 2728 3278 2906 2969 
L 2906 3500 
L 3481 3500 
L 3481 434 
z
" transform="scale(0.015625)"/>
     </defs>
     <use xlink:href="#DejaVuSans-23"/>
     <use xlink:href="#DejaVuSans-20" x="83.789062"/>
     <use xlink:href="#DejaVuSans-6f" x="115.576172"/>
     <use xlink:href="#DejaVuSans-66" x="176.757812"/>
     <use xlink:href="#DejaVuSans-20" x="211.962891"/>
     <use xlink:href="#DejaVuSans-70" x="243.75"/>
     <use xlink:href="#DejaVuSans-68" x="307.226562"/>
     <use xlink:href="#DejaVuSans-6f" x="370.605469"/>
     <use xlink:href="#DejaVuSans-74" x="431.787109"/>
     <use xlink:href="#DejaVuSans-6f" x="470.996094"/>
     <use xlink:href="#DejaVuSans-6e" x="532.177734"/>
     <use xlink:href="#DejaVuSans-73" x="595.556641"/>
     <use xlink:href="#DejaVuSans-2c" x="647.65625"/>
     <use xlink:href="#DejaVuSans-20" x="679.443359"/>
     <use xlink:href="#DejaVuSans-35" x="711.230469"/>
     <use xlink:href="#DejaVuSans-47" x="774.853516"/>
     <use xlink:href="#DejaVuSans-65" x="852.34375"/>
     <use xlink:href="#DejaVuSans-56" x="913.867188"/>
     <use xlink:href="#DejaVuSans-20" x="982.275391"/>
     <use xlink:href="#DejaVuSans-70" x="1014.0625"/>
     <use xlink:href="#DejaVuSans-69" x="1077.539062"/>
     <use xlink:href="#DejaVuSans-2d" x="1105.322266"/>
     <use xlink:href="#DejaVuSans-2c" x="1141.40625"/>
     <use xlink:href="#DejaVuSans-20" x="1173.193359"/>
     <use xlink:href="#DejaVuSans-31" x="1204.980469"/>
     <use xlink:href="#DejaVuSans-2e" x="1268.603516"/>
     <use xlink:href="#DejaVuSans-35" x="1300.390625"/>
     <use xlink:href="#DejaVuSans-6d" x="1364.013672"/>
     <use xlink:href="#DejaVuSans-20" x="1461.425781"/>
     <use xlink:href="#DejaVuSans-6c" x="1493.212891"/>
     <use xlink:href="#DejaVuSans-65" x="1520.996094"/>
     <use xlink:href="#DejaVuSans-6e" x="1582.519531"/>
     <use xlink:href="#DejaVuSans-67" x="1645.898438"/>
     <use xlink:href="#DejaVuSans-74" x="1709.375"/>
     <use xlink:href="#DejaVuSans-68" x="1748.583984"/>
     <use xlink:href="#DejaVuSans-20" x="1811.962891"/>
     <use xlink:href="#DejaVuSans-73" x="1843.75"/>
     <use xlink:href="#DejaVuSans-65" x="1895.849609"/>
     <use xlink:href="#DejaVuSans-67" x="1957.373047"/>
     <use xlink:href="#DejaVuSans-6d" x="2020.849609"/>
     <use xlink:href="#DejaVuSans-65" x="2118.261719"/>
     <use xlink:href="#DejaVuSans-6e" x="2179.785156"/>
     <use xlink:href="#DejaVuSans-74" x="2243.164062"/>
    </g>
   </g>
  </g>
 </g>
 <defs>
  <clipPath id="p6f15af58be">
   <rect x="54" y="34.56" width="334.8" height="217.44"/>
  </clipPath>
 </defs>
</svg>
