<?xml version="1.0" encoding="utf-8" standalone="no"?>
<!DOCTYPE svg PUBLIC "-//W3C//DTD SVG 1.1//EN"
  "http://www.w3.org/Graphics/SVG/1.1/DTD/svg11.dtd">
<svg xmlns:xlink="http://www.w3.org/1999/xlink" width="432pt" height="288pt" viewBox="0 0 432 288" xmlns="http://www.w3.org/2000/svg" version="1.1">
 <metadata>
  <rdf:RDF xmlns:dc="http://purl.org/dc/elements/1.1/" xmlns:cc="http://creativecommons.org/ns#" xmlns:rdf="http://www.w3.org/1999/02/22-rdf-syntax-ns#">
   <cc:Work>
    <dc:type rdf:resource="http://purl.org/dc/dcmitype/StillImage"/>
    <dc:date>2024-06-03T14:35:11.486850</dc:date>
    <dc:format>image/svg+xml</dc:format>
    <dc:creator>
     <cc:Agent>
      <dc:title>Matplotlib v3.7.4, https://matplotlib.org/</dc:title>
     </cc:Agent>
    </dc:creator>
   </cc:Work>
  </rdf:RDF>
 </metadata>
 <defs>
  <style type="text/css">*{stroke-linejoin: round; stroke-linecap: butt}</style>
 </defs>
 <g id="figure_1">
  <g id="patch_1">
   <path d="M 0 288 
L 432 288 
L 432 0 
L 0 0 
L 0 288 
z
" style="fill: none"/>
  </g>
  <g id="axes_1">
   <g id="patch_2">
    <path d="M 54 252 
L 388.8 252 
L 388.8 34.56 
L 54 34.56 
z
" style="fill: #ffffff"/>
   </g>
   <g id="patch_3">
    <path d="M 69.218182 252 
L 71.156804 252 
L 71.156804 251.443318 
L 69.218182 251.443318 
z
" clip-path="url(#p61ff8963ff)" style="fill: #008000"/>
   </g>
   <g id="patch_4">
    <path d="M 71.156804 252 
L 73.095426 252 
L 73.095426 252 
L 71.156804 252 
z
" clip-path="url(#p61ff8963ff)" style="fill: #008000"/>
   </g>
   <g id="patch_5">
    <path d="M 73.095426 252 
L 75.034047 252 
L 75.034047 252 
L 73.095426 252 
z
" clip-path="url(#p61ff8963ff)" style="fill: #008000"/>
   </g>
   <g id="patch_6">
    <path d="M 75.034047 252 
L 76.972669 252 
L 76.972669 252 
L 75.034047 252 
z
" clip-path="url(#p61ff8963ff)" style="fill: #008000"/>
   </g>
   <g id="patch_7">
    <path d="M 76.972669 252 
L 78.911291 252 
L 78.911291 252 
L 76.972669 252 
z
" clip-path="url(#p61ff8963ff)" style="fill: #008000"/>
   </g>
   <g id="patch_8">
    <path d="M 78.911291 252 
L 80.849913 252 
L 80.849913 252 
L 78.911291 252 
z
" clip-path="url(#p61ff8963ff)" style="fill: #008000"/>
   </g>
   <g id="patch_9">
    <path d="M 80.849913 252 
L 82.788535 252 
L 82.788535 252 
L 80.849913 252 
z
" clip-path="url(#p61ff8963ff)" style="fill: #008000"/>
   </g>
   <g id="patch_10">
    <path d="M 82.788535 252 
L 84.727157 252 
L 84.727157 252 
L 82.788535 252 
z
" clip-path="url(#p61ff8963ff)" style="fill: #008000"/>
   </g>
   <g id="patch_11">
    <path d="M 84.727157 252 
L 86.665779 252 
L 86.665779 252 
L 84.727157 252 
z
" clip-path="url(#p61ff8963ff)" style="fill: #008000"/>
   </g>
   <g id="patch_12">
    <path d="M 86.665779 252 
L 88.604401 252 
L 88.604401 251.443318 
L 86.665779 251.443318 
z
" clip-path="url(#p61ff8963ff)" style="fill: #008000"/>
   </g>
   <g id="patch_13">
    <path d="M 88.604401 252 
L 90.543023 252 
L 90.543023 252 
L 88.604401 252 
z
" clip-path="url(#p61ff8963ff)" style="fill: #008000"/>
   </g>
   <g id="patch_14">
    <path d="M 90.543023 252 
L 92.481644 252 
L 92.481644 250.329954 
L 90.543023 250.329954 
z
" clip-path="url(#p61ff8963ff)" style="fill: #008000"/>
   </g>
   <g id="patch_15">
    <path d="M 92.481644 252 
L 94.420266 252 
L 94.420266 249.773272 
L 92.481644 249.773272 
z
" clip-path="url(#p61ff8963ff)" style="fill: #008000"/>
   </g>
   <g id="patch_16">
    <path d="M 94.420266 252 
L 96.358888 252 
L 96.358888 250.886636 
L 94.420266 250.886636 
z
" clip-path="url(#p61ff8963ff)" style="fill: #008000"/>
   </g>
   <g id="patch_17">
    <path d="M 96.358888 252 
L 98.29751 252 
L 98.29751 250.329954 
L 96.358888 250.329954 
z
" clip-path="url(#p61ff8963ff)" style="fill: #008000"/>
   </g>
   <g id="patch_18">
    <path d="M 98.29751 252 
L 100.236132 252 
L 100.236132 249.21659 
L 98.29751 249.21659 
z
" clip-path="url(#p61ff8963ff)" style="fill: #008000"/>
   </g>
   <g id="patch_19">
    <path d="M 100.236132 252 
L 102.174754 252 
L 102.174754 244.763134 
L 100.236132 244.763134 
z
" clip-path="url(#p61ff8963ff)" style="fill: #008000"/>
   </g>
   <g id="patch_20">
    <path d="M 102.174754 252 
L 104.113376 252 
L 104.113376 243.64977 
L 102.174754 243.64977 
z
" clip-path="url(#p61ff8963ff)" style="fill: #008000"/>
   </g>
   <g id="patch_21">
    <path d="M 104.113376 252 
L 106.051998 252 
L 106.051998 233.072811 
L 104.113376 233.072811 
z
" clip-path="url(#p61ff8963ff)" style="fill: #008000"/>
   </g>
   <g id="patch_22">
    <path d="M 106.051998 252 
L 107.99062 252 
L 107.99062 240.309677 
L 106.051998 240.309677 
z
" clip-path="url(#p61ff8963ff)" style="fill: #008000"/>
   </g>
   <g id="patch_23">
    <path d="M 107.99062 252 
L 109.929241 252 
L 109.929241 229.732719 
L 107.99062 229.732719 
z
" clip-path="url(#p61ff8963ff)" style="fill: #008000"/>
   </g>
   <g id="patch_24">
    <path d="M 109.929241 252 
L 111.867863 252 
L 111.867863 217.485714 
L 109.929241 217.485714 
z
" clip-path="url(#p61ff8963ff)" style="fill: #008000"/>
   </g>
   <g id="patch_25">
    <path d="M 111.867863 252 
L 113.806485 252 
L 113.806485 212.475576 
L 111.867863 212.475576 
z
" clip-path="url(#p61ff8963ff)" style="fill: #008000"/>
   </g>
   <g id="patch_26">
    <path d="M 113.806485 252 
L 115.745107 252 
L 115.745107 205.23871 
L 113.806485 205.23871 
z
" clip-path="url(#p61ff8963ff)" style="fill: #008000"/>
   </g>
   <g id="patch_27">
    <path d="M 115.745107 252 
L 117.683729 252 
L 117.683729 182.971429 
L 115.745107 182.971429 
z
" clip-path="url(#p61ff8963ff)" style="fill: #008000"/>
   </g>
   <g id="patch_28">
    <path d="M 117.683729 252 
L 119.622351 252 
L 119.622351 168.497696 
L 117.683729 168.497696 
z
" clip-path="url(#p61ff8963ff)" style="fill: #008000"/>
   </g>
   <g id="patch_29">
    <path d="M 119.622351 252 
L 121.560973 252 
L 121.560973 161.817512 
L 119.622351 161.817512 
z
" clip-path="url(#p61ff8963ff)" style="fill: #008000"/>
   </g>
   <g id="patch_30">
    <path d="M 121.560973 252 
L 123.499595 252 
L 123.499595 141.220276 
L 121.560973 141.220276 
z
" clip-path="url(#p61ff8963ff)" style="fill: #008000"/>
   </g>
   <g id="patch_31">
    <path d="M 123.499595 252 
L 125.438217 252 
L 125.438217 120.066359 
L 123.499595 120.066359 
z
" clip-path="url(#p61ff8963ff)" style="fill: #008000"/>
   </g>
   <g id="patch_32">
    <path d="M 125.438217 252 
L 127.376838 252 
L 127.376838 114.499539 
L 125.438217 114.499539 
z
" clip-path="url(#p61ff8963ff)" style="fill: #008000"/>
   </g>
   <g id="patch_33">
    <path d="M 127.376838 252 
L 129.31546 252 
L 129.31546 110.602765 
L 127.376838 110.602765 
z
" clip-path="url(#p61ff8963ff)" style="fill: #008000"/>
   </g>
   <g id="patch_34">
    <path d="M 129.31546 252 
L 131.254082 252 
L 131.254082 93.902304 
L 129.31546 93.902304 
z
" clip-path="url(#p61ff8963ff)" style="fill: #008000"/>
   </g>
   <g id="patch_35">
    <path d="M 131.254082 252 
L 133.192704 252 
L 133.192704 78.315207 
L 131.254082 78.315207 
z
" clip-path="url(#p61ff8963ff)" style="fill: #008000"/>
   </g>
   <g id="patch_36">
    <path d="M 133.192704 252 
L 135.131326 252 
L 135.131326 77.758525 
L 133.192704 77.758525 
z
" clip-path="url(#p61ff8963ff)" style="fill: #008000"/>
   </g>
   <g id="patch_37">
    <path d="M 135.131326 252 
L 137.069948 252 
L 137.069948 65.511521 
L 135.131326 65.511521 
z
" clip-path="url(#p61ff8963ff)" style="fill: #008000"/>
   </g>
   <g id="patch_38">
    <path d="M 137.069948 252 
L 139.00857 252 
L 139.00857 44.914286 
L 137.069948 44.914286 
z
" clip-path="url(#p61ff8963ff)" style="fill: #008000"/>
   </g>
   <g id="patch_39">
    <path d="M 139.00857 252 
L 140.947192 252 
L 140.947192 67.738249 
L 139.00857 67.738249 
z
" clip-path="url(#p61ff8963ff)" style="fill: #008000"/>
   </g>
   <g id="patch_40">
    <path d="M 140.947192 252 
L 142.885814 252 
L 142.885814 56.604608 
L 140.947192 56.604608 
z
" clip-path="url(#p61ff8963ff)" style="fill: #008000"/>
   </g>
   <g id="patch_41">
    <path d="M 142.885814 252 
L 144.824435 252 
L 144.824435 54.934562 
L 142.885814 54.934562 
z
" clip-path="url(#p61ff8963ff)" style="fill: #008000"/>
   </g>
   <g id="patch_42">
    <path d="M 144.824435 252 
L 146.763057 252 
L 146.763057 61.058065 
L 144.824435 61.058065 
z
" clip-path="url(#p61ff8963ff)" style="fill: #008000"/>
   </g>
   <g id="patch_43">
    <path d="M 146.763057 252 
L 148.701679 252 
L 148.701679 76.645161 
L 146.763057 76.645161 
z
" clip-path="url(#p61ff8963ff)" style="fill: #008000"/>
   </g>
   <g id="patch_44">
    <path d="M 148.701679 252 
L 150.640301 252 
L 150.640301 53.821198 
L 148.701679 53.821198 
z
" clip-path="url(#p61ff8963ff)" style="fill: #008000"/>
   </g>
   <g id="patch_45">
    <path d="M 150.640301 252 
L 152.578923 252 
L 152.578923 67.181567 
L 150.640301 67.181567 
z
" clip-path="url(#p61ff8963ff)" style="fill: #008000"/>
   </g>
   <g id="patch_46">
    <path d="M 152.578923 252 
L 154.517545 252 
L 154.517545 92.78894 
L 152.578923 92.78894 
z
" clip-path="url(#p61ff8963ff)" style="fill: #008000"/>
   </g>
   <g id="patch_47">
    <path d="M 154.517545 252 
L 156.456167 252 
L 156.456167 110.602765 
L 154.517545 110.602765 
z
" clip-path="url(#p61ff8963ff)" style="fill: #008000"/>
   </g>
   <g id="patch_48">
    <path d="M 156.456167 252 
L 158.394789 252 
L 158.394789 104.479263 
L 156.456167 104.479263 
z
" clip-path="url(#p61ff8963ff)" style="fill: #008000"/>
   </g>
   <g id="patch_49">
    <path d="M 158.394789 252 
L 160.333411 252 
L 160.333411 120.066359 
L 158.394789 120.066359 
z
" clip-path="url(#p61ff8963ff)" style="fill: #008000"/>
   </g>
   <g id="patch_50">
    <path d="M 160.333411 252 
L 162.272032 252 
L 162.272032 122.84977 
L 160.333411 122.84977 
z
" clip-path="url(#p61ff8963ff)" style="fill: #008000"/>
   </g>
   <g id="patch_51">
    <path d="M 162.272032 252 
L 164.210654 252 
L 164.210654 135.096774 
L 162.272032 135.096774 
z
" clip-path="url(#p61ff8963ff)" style="fill: #008000"/>
   </g>
   <g id="patch_52">
    <path d="M 164.210654 252 
L 166.149276 252 
L 166.149276 157.364055 
L 164.210654 157.364055 
z
" clip-path="url(#p61ff8963ff)" style="fill: #008000"/>
   </g>
   <g id="patch_53">
    <path d="M 166.149276 252 
L 168.087898 252 
L 168.087898 147.900461 
L 166.149276 147.900461 
z
" clip-path="url(#p61ff8963ff)" style="fill: #008000"/>
   </g>
   <g id="patch_54">
    <path d="M 168.087898 252 
L 170.02652 252 
L 170.02652 169.61106 
L 168.087898 169.61106 
z
" clip-path="url(#p61ff8963ff)" style="fill: #008000"/>
   </g>
   <g id="patch_55">
    <path d="M 170.02652 252 
L 171.965142 252 
L 171.965142 172.39447 
L 170.02652 172.39447 
z
" clip-path="url(#p61ff8963ff)" style="fill: #008000"/>
   </g>
   <g id="patch_56">
    <path d="M 171.965142 252 
L 173.903764 252 
L 173.903764 175.17788 
L 171.965142 175.17788 
z
" clip-path="url(#p61ff8963ff)" style="fill: #008000"/>
   </g>
   <g id="patch_57">
    <path d="M 173.903764 252 
L 175.842386 252 
L 175.842386 192.991705 
L 173.903764 192.991705 
z
" clip-path="url(#p61ff8963ff)" style="fill: #008000"/>
   </g>
   <g id="patch_58">
    <path d="M 175.842386 252 
L 177.781008 252 
L 177.781008 186.311521 
L 175.842386 186.311521 
z
" clip-path="url(#p61ff8963ff)" style="fill: #008000"/>
   </g>
   <g id="patch_59">
    <path d="M 177.781008 252 
L 179.719629 252 
L 179.719629 195.775115 
L 177.781008 195.775115 
z
" clip-path="url(#p61ff8963ff)" style="fill: #008000"/>
   </g>
   <g id="patch_60">
    <path d="M 179.719629 252 
L 181.658251 252 
L 181.658251 192.991705 
L 179.719629 192.991705 
z
" clip-path="url(#p61ff8963ff)" style="fill: #008000"/>
   </g>
   <g id="patch_61">
    <path d="M 181.658251 252 
L 183.596873 252 
L 183.596873 206.908756 
L 181.658251 206.908756 
z
" clip-path="url(#p61ff8963ff)" style="fill: #008000"/>
   </g>
   <g id="patch_62">
    <path d="M 183.596873 252 
L 185.535495 252 
L 185.535495 206.352074 
L 183.596873 206.352074 
z
" clip-path="url(#p61ff8963ff)" style="fill: #008000"/>
   </g>
   <g id="patch_63">
    <path d="M 185.535495 252 
L 187.474117 252 
L 187.474117 218.042396 
L 185.535495 218.042396 
z
" clip-path="url(#p61ff8963ff)" style="fill: #008000"/>
   </g>
   <g id="patch_64">
    <path d="M 187.474117 252 
L 189.412739 252 
L 189.412739 215.258986 
L 187.474117 215.258986 
z
" clip-path="url(#p61ff8963ff)" style="fill: #008000"/>
   </g>
   <g id="patch_65">
    <path d="M 189.412739 252 
L 191.351361 252 
L 191.351361 224.722581 
L 189.412739 224.722581 
z
" clip-path="url(#p61ff8963ff)" style="fill: #008000"/>
   </g>
   <g id="patch_66">
    <path d="M 191.351361 252 
L 193.289983 252 
L 193.289983 223.052535 
L 191.351361 223.052535 
z
" clip-path="url(#p61ff8963ff)" style="fill: #008000"/>
   </g>
   <g id="patch_67">
    <path d="M 193.289983 252 
L 195.228605 252 
L 195.228605 218.042396 
L 193.289983 218.042396 
z
" clip-path="url(#p61ff8963ff)" style="fill: #008000"/>
   </g>
   <g id="patch_68">
    <path d="M 195.228605 252 
L 197.167226 252 
L 197.167226 224.165899 
L 195.228605 224.165899 
z
" clip-path="url(#p61ff8963ff)" style="fill: #008000"/>
   </g>
   <g id="patch_69">
    <path d="M 197.167226 252 
L 199.105848 252 
L 199.105848 230.289401 
L 197.167226 230.289401 
z
" clip-path="url(#p61ff8963ff)" style="fill: #008000"/>
   </g>
   <g id="patch_70">
    <path d="M 199.105848 252 
L 201.04447 252 
L 201.04447 230.289401 
L 199.105848 230.289401 
z
" clip-path="url(#p61ff8963ff)" style="fill: #008000"/>
   </g>
   <g id="patch_71">
    <path d="M 201.04447 252 
L 202.983092 252 
L 202.983092 226.949309 
L 201.04447 226.949309 
z
" clip-path="url(#p61ff8963ff)" style="fill: #008000"/>
   </g>
   <g id="patch_72">
    <path d="M 202.983092 252 
L 204.921714 252 
L 204.921714 229.732719 
L 202.983092 229.732719 
z
" clip-path="url(#p61ff8963ff)" style="fill: #008000"/>
   </g>
   <g id="patch_73">
    <path d="M 204.921714 252 
L 206.860336 252 
L 206.860336 226.392627 
L 204.921714 226.392627 
z
" clip-path="url(#p61ff8963ff)" style="fill: #008000"/>
   </g>
   <g id="patch_74">
    <path d="M 206.860336 252 
L 208.798958 252 
L 208.798958 233.629493 
L 206.860336 233.629493 
z
" clip-path="url(#p61ff8963ff)" style="fill: #008000"/>
   </g>
   <g id="patch_75">
    <path d="M 208.798958 252 
L 210.73758 252 
L 210.73758 233.072811 
L 208.798958 233.072811 
z
" clip-path="url(#p61ff8963ff)" style="fill: #008000"/>
   </g>
   <g id="patch_76">
    <path d="M 210.73758 252 
L 212.676202 252 
L 212.676202 233.072811 
L 210.73758 233.072811 
z
" clip-path="url(#p61ff8963ff)" style="fill: #008000"/>
   </g>
   <g id="patch_77">
    <path d="M 212.676202 252 
L 214.614823 252 
L 214.614823 233.629493 
L 212.676202 233.629493 
z
" clip-path="url(#p61ff8963ff)" style="fill: #008000"/>
   </g>
   <g id="patch_78">
    <path d="M 214.614823 252 
L 216.553445 252 
L 216.553445 236.969585 
L 214.614823 236.969585 
z
" clip-path="url(#p61ff8963ff)" style="fill: #008000"/>
   </g>
   <g id="patch_79">
    <path d="M 216.553445 252 
L 218.492067 252 
L 218.492067 244.763134 
L 216.553445 244.763134 
z
" clip-path="url(#p61ff8963ff)" style="fill: #008000"/>
   </g>
   <g id="patch_80">
    <path d="M 218.492067 252 
L 220.430689 252 
L 220.430689 239.196313 
L 218.492067 239.196313 
z
" clip-path="url(#p61ff8963ff)" style="fill: #008000"/>
   </g>
   <g id="patch_81">
    <path d="M 220.430689 252 
L 222.369311 252 
L 222.369311 235.856221 
L 220.430689 235.856221 
z
" clip-path="url(#p61ff8963ff)" style="fill: #008000"/>
   </g>
   <g id="patch_82">
    <path d="M 222.369311 252 
L 224.307933 252 
L 224.307933 237.526267 
L 222.369311 237.526267 
z
" clip-path="url(#p61ff8963ff)" style="fill: #008000"/>
   </g>
   <g id="patch_83">
    <path d="M 224.307933 252 
L 226.246555 252 
L 226.246555 241.423041 
L 224.307933 241.423041 
z
" clip-path="url(#p61ff8963ff)" style="fill: #008000"/>
   </g>
   <g id="patch_84">
    <path d="M 226.246555 252 
L 228.185177 252 
L 228.185177 239.196313 
L 226.246555 239.196313 
z
" clip-path="url(#p61ff8963ff)" style="fill: #008000"/>
   </g>
   <g id="patch_85">
    <path d="M 228.185177 252 
L 230.123798 252 
L 230.123798 243.093088 
L 228.185177 243.093088 
z
" clip-path="url(#p61ff8963ff)" style="fill: #008000"/>
   </g>
   <g id="patch_86">
    <path d="M 230.123798 252 
L 232.06242 252 
L 232.06242 240.866359 
L 230.123798 240.866359 
z
" clip-path="url(#p61ff8963ff)" style="fill: #008000"/>
   </g>
   <g id="patch_87">
    <path d="M 232.06242 252 
L 234.001042 252 
L 234.001042 237.526267 
L 232.06242 237.526267 
z
" clip-path="url(#p61ff8963ff)" style="fill: #008000"/>
   </g>
   <g id="patch_88">
    <path d="M 234.001042 252 
L 235.939664 252 
L 235.939664 243.64977 
L 234.001042 243.64977 
z
" clip-path="url(#p61ff8963ff)" style="fill: #008000"/>
   </g>
   <g id="patch_89">
    <path d="M 235.939664 252 
L 237.878286 252 
L 237.878286 238.639631 
L 235.939664 238.639631 
z
" clip-path="url(#p61ff8963ff)" style="fill: #008000"/>
   </g>
   <g id="patch_90">
    <path d="M 237.878286 252 
L 239.816908 252 
L 239.816908 242.536406 
L 237.878286 242.536406 
z
" clip-path="url(#p61ff8963ff)" style="fill: #008000"/>
   </g>
   <g id="patch_91">
    <path d="M 239.816908 252 
L 241.75553 252 
L 241.75553 244.206452 
L 239.816908 244.206452 
z
" clip-path="url(#p61ff8963ff)" style="fill: #008000"/>
   </g>
   <g id="patch_92">
    <path d="M 241.75553 252 
L 243.694152 252 
L 243.694152 239.752995 
L 241.75553 239.752995 
z
" clip-path="url(#p61ff8963ff)" style="fill: #008000"/>
   </g>
   <g id="patch_93">
    <path d="M 243.694152 252 
L 245.632774 252 
L 245.632774 247.546544 
L 243.694152 247.546544 
z
" clip-path="url(#p61ff8963ff)" style="fill: #008000"/>
   </g>
   <g id="patch_94">
    <path d="M 245.632774 252 
L 247.571395 252 
L 247.571395 244.206452 
L 245.632774 244.206452 
z
" clip-path="url(#p61ff8963ff)" style="fill: #008000"/>
   </g>
   <g id="patch_95">
    <path d="M 247.571395 252 
L 249.510017 252 
L 249.510017 244.206452 
L 247.571395 244.206452 
z
" clip-path="url(#p61ff8963ff)" style="fill: #008000"/>
   </g>
   <g id="patch_96">
    <path d="M 249.510017 252 
L 251.448639 252 
L 251.448639 246.43318 
L 249.510017 246.43318 
z
" clip-path="url(#p61ff8963ff)" style="fill: #008000"/>
   </g>
   <g id="patch_97">
    <path d="M 251.448639 252 
L 253.387261 252 
L 253.387261 247.546544 
L 251.448639 247.546544 
z
" clip-path="url(#p61ff8963ff)" style="fill: #008000"/>
   </g>
   <g id="patch_98">
    <path d="M 253.387261 252 
L 255.325883 252 
L 255.325883 245.319816 
L 253.387261 245.319816 
z
" clip-path="url(#p61ff8963ff)" style="fill: #008000"/>
   </g>
   <g id="patch_99">
    <path d="M 255.325883 252 
L 257.264505 252 
L 257.264505 243.64977 
L 255.325883 243.64977 
z
" clip-path="url(#p61ff8963ff)" style="fill: #008000"/>
   </g>
   <g id="patch_100">
    <path d="M 257.264505 252 
L 259.203127 252 
L 259.203127 245.876498 
L 257.264505 245.876498 
z
" clip-path="url(#p61ff8963ff)" style="fill: #008000"/>
   </g>
   <g id="patch_101">
    <path d="M 259.203127 252 
L 261.141749 252 
L 261.141749 246.989862 
L 259.203127 246.989862 
z
" clip-path="url(#p61ff8963ff)" style="fill: #008000"/>
   </g>
   <g id="patch_102">
    <path d="M 261.141749 252 
L 263.080371 252 
L 263.080371 248.103226 
L 261.141749 248.103226 
z
" clip-path="url(#p61ff8963ff)" style="fill: #008000"/>
   </g>
   <g id="patch_103">
    <path d="M 263.080371 252 
L 265.018992 252 
L 265.018992 243.093088 
L 263.080371 243.093088 
z
" clip-path="url(#p61ff8963ff)" style="fill: #008000"/>
   </g>
   <g id="patch_104">
    <path d="M 265.018992 252 
L 266.957614 252 
L 266.957614 248.659908 
L 265.018992 248.659908 
z
" clip-path="url(#p61ff8963ff)" style="fill: #008000"/>
   </g>
   <g id="patch_105">
    <path d="M 266.957614 252 
L 268.896236 252 
L 268.896236 248.659908 
L 266.957614 248.659908 
z
" clip-path="url(#p61ff8963ff)" style="fill: #008000"/>
   </g>
   <g id="patch_106">
    <path d="M 268.896236 252 
L 270.834858 252 
L 270.834858 249.773272 
L 268.896236 249.773272 
z
" clip-path="url(#p61ff8963ff)" style="fill: #008000"/>
   </g>
   <g id="patch_107">
    <path d="M 270.834858 252 
L 272.77348 252 
L 272.77348 245.876498 
L 270.834858 245.876498 
z
" clip-path="url(#p61ff8963ff)" style="fill: #008000"/>
   </g>
   <g id="patch_108">
    <path d="M 272.77348 252 
L 274.712102 252 
L 274.712102 248.659908 
L 272.77348 248.659908 
z
" clip-path="url(#p61ff8963ff)" style="fill: #008000"/>
   </g>
   <g id="patch_109">
    <path d="M 274.712102 252 
L 276.650724 252 
L 276.650724 248.659908 
L 274.712102 248.659908 
z
" clip-path="url(#p61ff8963ff)" style="fill: #008000"/>
   </g>
   <g id="patch_110">
    <path d="M 276.650724 252 
L 278.589346 252 
L 278.589346 248.659908 
L 276.650724 248.659908 
z
" clip-path="url(#p61ff8963ff)" style="fill: #008000"/>
   </g>
   <g id="patch_111">
    <path d="M 278.589346 252 
L 280.527968 252 
L 280.527968 248.103226 
L 278.589346 248.103226 
z
" clip-path="url(#p61ff8963ff)" style="fill: #008000"/>
   </g>
   <g id="patch_112">
    <path d="M 280.527968 252 
L 282.466589 252 
L 282.466589 249.773272 
L 280.527968 249.773272 
z
" clip-path="url(#p61ff8963ff)" style="fill: #008000"/>
   </g>
   <g id="patch_113">
    <path d="M 282.466589 252 
L 284.405211 252 
L 284.405211 248.103226 
L 282.466589 248.103226 
z
" clip-path="url(#p61ff8963ff)" style="fill: #008000"/>
   </g>
   <g id="patch_114">
    <path d="M 284.405211 252 
L 286.343833 252 
L 286.343833 249.773272 
L 284.405211 249.773272 
z
" clip-path="url(#p61ff8963ff)" style="fill: #008000"/>
   </g>
   <g id="patch_115">
    <path d="M 286.343833 252 
L 288.282455 252 
L 288.282455 246.43318 
L 286.343833 246.43318 
z
" clip-path="url(#p61ff8963ff)" style="fill: #008000"/>
   </g>
   <g id="patch_116">
    <path d="M 288.282455 252 
L 290.221077 252 
L 290.221077 250.886636 
L 288.282455 250.886636 
z
" clip-path="url(#p61ff8963ff)" style="fill: #008000"/>
   </g>
   <g id="patch_117">
    <path d="M 290.221077 252 
L 292.159699 252 
L 292.159699 249.773272 
L 290.221077 249.773272 
z
" clip-path="url(#p61ff8963ff)" style="fill: #008000"/>
   </g>
   <g id="patch_118">
    <path d="M 292.159699 252 
L 294.098321 252 
L 294.098321 250.329954 
L 292.159699 250.329954 
z
" clip-path="url(#p61ff8963ff)" style="fill: #008000"/>
   </g>
   <g id="patch_119">
    <path d="M 294.098321 252 
L 296.036943 252 
L 296.036943 250.886636 
L 294.098321 250.886636 
z
" clip-path="url(#p61ff8963ff)" style="fill: #008000"/>
   </g>
   <g id="patch_120">
    <path d="M 296.036943 252 
L 297.975565 252 
L 297.975565 249.21659 
L 296.036943 249.21659 
z
" clip-path="url(#p61ff8963ff)" style="fill: #008000"/>
   </g>
   <g id="patch_121">
    <path d="M 297.975565 252 
L 299.914186 252 
L 299.914186 251.443318 
L 297.975565 251.443318 
z
" clip-path="url(#p61ff8963ff)" style="fill: #008000"/>
   </g>
   <g id="patch_122">
    <path d="M 299.914186 252 
L 301.852808 252 
L 301.852808 249.21659 
L 299.914186 249.21659 
z
" clip-path="url(#p61ff8963ff)" style="fill: #008000"/>
   </g>
   <g id="patch_123">
    <path d="M 301.852808 252 
L 303.79143 252 
L 303.79143 250.329954 
L 301.852808 250.329954 
z
" clip-path="url(#p61ff8963ff)" style="fill: #008000"/>
   </g>
   <g id="patch_124">
    <path d="M 303.79143 252 
L 305.730052 252 
L 305.730052 248.103226 
L 303.79143 248.103226 
z
" clip-path="url(#p61ff8963ff)" style="fill: #008000"/>
   </g>
   <g id="patch_125">
    <path d="M 305.730052 252 
L 307.668674 252 
L 307.668674 252 
L 305.730052 252 
z
" clip-path="url(#p61ff8963ff)" style="fill: #008000"/>
   </g>
   <g id="patch_126">
    <path d="M 307.668674 252 
L 309.607296 252 
L 309.607296 250.329954 
L 307.668674 250.329954 
z
" clip-path="url(#p61ff8963ff)" style="fill: #008000"/>
   </g>
   <g id="patch_127">
    <path d="M 309.607296 252 
L 311.545918 252 
L 311.545918 250.329954 
L 309.607296 250.329954 
z
" clip-path="url(#p61ff8963ff)" style="fill: #008000"/>
   </g>
   <g id="patch_128">
    <path d="M 311.545918 252 
L 313.48454 252 
L 313.48454 248.659908 
L 311.545918 248.659908 
z
" clip-path="url(#p61ff8963ff)" style="fill: #008000"/>
   </g>
   <g id="patch_129">
    <path d="M 313.48454 252 
L 315.423162 252 
L 315.423162 249.21659 
L 313.48454 249.21659 
z
" clip-path="url(#p61ff8963ff)" style="fill: #008000"/>
   </g>
   <g id="patch_130">
    <path d="M 315.423162 252 
L 317.361783 252 
L 317.361783 251.443318 
L 315.423162 251.443318 
z
" clip-path="url(#p61ff8963ff)" style="fill: #008000"/>
   </g>
   <g id="patch_131">
    <path d="M 317.361783 252 
L 319.300405 252 
L 319.300405 250.886636 
L 317.361783 250.886636 
z
" clip-path="url(#p61ff8963ff)" style="fill: #008000"/>
   </g>
   <g id="patch_132">
    <path d="M 319.300405 252 
L 321.239027 252 
L 321.239027 250.329954 
L 319.300405 250.329954 
z
" clip-path="url(#p61ff8963ff)" style="fill: #008000"/>
   </g>
   <g id="patch_133">
    <path d="M 321.239027 252 
L 323.177649 252 
L 323.177649 252 
L 321.239027 252 
z
" clip-path="url(#p61ff8963ff)" style="fill: #008000"/>
   </g>
   <g id="patch_134">
    <path d="M 323.177649 252 
L 325.116271 252 
L 325.116271 251.443318 
L 323.177649 251.443318 
z
" clip-path="url(#p61ff8963ff)" style="fill: #008000"/>
   </g>
   <g id="patch_135">
    <path d="M 325.116271 252 
L 327.054893 252 
L 327.054893 250.886636 
L 325.116271 250.886636 
z
" clip-path="url(#p61ff8963ff)" style="fill: #008000"/>
   </g>
   <g id="patch_136">
    <path d="M 327.054893 252 
L 328.993515 252 
L 328.993515 251.443318 
L 327.054893 251.443318 
z
" clip-path="url(#p61ff8963ff)" style="fill: #008000"/>
   </g>
   <g id="patch_137">
    <path d="M 328.993515 252 
L 330.932137 252 
L 330.932137 252 
L 328.993515 252 
z
" clip-path="url(#p61ff8963ff)" style="fill: #008000"/>
   </g>
   <g id="patch_138">
    <path d="M 330.932137 252 
L 332.870759 252 
L 332.870759 250.886636 
L 330.932137 250.886636 
z
" clip-path="url(#p61ff8963ff)" style="fill: #008000"/>
   </g>
   <g id="patch_139">
    <path d="M 332.870759 252 
L 334.80938 252 
L 334.80938 251.443318 
L 332.870759 251.443318 
z
" clip-path="url(#p61ff8963ff)" style="fill: #008000"/>
   </g>
   <g id="patch_140">
    <path d="M 334.80938 252 
L 336.748002 252 
L 336.748002 252 
L 334.80938 252 
z
" clip-path="url(#p61ff8963ff)" style="fill: #008000"/>
   </g>
   <g id="patch_141">
    <path d="M 336.748002 252 
L 338.686624 252 
L 338.686624 250.886636 
L 336.748002 250.886636 
z
" clip-path="url(#p61ff8963ff)" style="fill: #008000"/>
   </g>
   <g id="patch_142">
    <path d="M 338.686624 252 
L 340.625246 252 
L 340.625246 250.886636 
L 338.686624 250.886636 
z
" clip-path="url(#p61ff8963ff)" style="fill: #008000"/>
   </g>
   <g id="patch_143">
    <path d="M 340.625246 252 
L 342.563868 252 
L 342.563868 252 
L 340.625246 252 
z
" clip-path="url(#p61ff8963ff)" style="fill: #008000"/>
   </g>
   <g id="patch_144">
    <path d="M 342.563868 252 
L 344.50249 252 
L 344.50249 252 
L 342.563868 252 
z
" clip-path="url(#p61ff8963ff)" style="fill: #008000"/>
   </g>
   <g id="patch_145">
    <path d="M 344.50249 252 
L 346.441112 252 
L 346.441112 250.886636 
L 344.50249 250.886636 
z
" clip-path="url(#p61ff8963ff)" style="fill: #008000"/>
   </g>
   <g id="patch_146">
    <path d="M 346.441112 252 
L 348.379734 252 
L 348.379734 250.886636 
L 346.441112 250.886636 
z
" clip-path="url(#p61ff8963ff)" style="fill: #008000"/>
   </g>
   <g id="patch_147">
    <path d="M 348.379734 252 
L 350.318356 252 
L 350.318356 251.443318 
L 348.379734 251.443318 
z
" clip-path="url(#p61ff8963ff)" style="fill: #008000"/>
   </g>
   <g id="patch_148">
    <path d="M 350.318356 252 
L 352.256977 252 
L 352.256977 251.443318 
L 350.318356 251.443318 
z
" clip-path="url(#p61ff8963ff)" style="fill: #008000"/>
   </g>
   <g id="patch_149">
    <path d="M 352.256977 252 
L 354.195599 252 
L 354.195599 251.443318 
L 352.256977 251.443318 
z
" clip-path="url(#p61ff8963ff)" style="fill: #008000"/>
   </g>
   <g id="patch_150">
    <path d="M 354.195599 252 
L 356.134221 252 
L 356.134221 252 
L 354.195599 252 
z
" clip-path="url(#p61ff8963ff)" style="fill: #008000"/>
   </g>
   <g id="patch_151">
    <path d="M 356.134221 252 
L 358.072843 252 
L 358.072843 251.443318 
L 356.134221 251.443318 
z
" clip-path="url(#p61ff8963ff)" style="fill: #008000"/>
   </g>
   <g id="patch_152">
    <path d="M 358.072843 252 
L 360.011465 252 
L 360.011465 251.443318 
L 358.072843 251.443318 
z
" clip-path="url(#p61ff8963ff)" style="fill: #008000"/>
   </g>
   <g id="patch_153">
    <path d="M 360.011465 252 
L 361.950087 252 
L 361.950087 250.886636 
L 360.011465 250.886636 
z
" clip-path="url(#p61ff8963ff)" style="fill: #008000"/>
   </g>
   <g id="patch_154">
    <path d="M 361.950087 252 
L 363.888709 252 
L 363.888709 250.886636 
L 361.950087 250.886636 
z
" clip-path="url(#p61ff8963ff)" style="fill: #008000"/>
   </g>
   <g id="patch_155">
    <path d="M 363.888709 252 
L 365.827331 252 
L 365.827331 251.443318 
L 363.888709 251.443318 
z
" clip-path="url(#p61ff8963ff)" style="fill: #008000"/>
   </g>
   <g id="patch_156">
    <path d="M 365.827331 252 
L 367.765953 252 
L 367.765953 252 
L 365.827331 252 
z
" clip-path="url(#p61ff8963ff)" style="fill: #008000"/>
   </g>
   <g id="patch_157">
    <path d="M 367.765953 252 
L 369.704574 252 
L 369.704574 251.443318 
L 367.765953 251.443318 
z
" clip-path="url(#p61ff8963ff)" style="fill: #008000"/>
   </g>
   <g id="patch_158">
    <path d="M 369.704574 252 
L 371.643196 252 
L 371.643196 251.443318 
L 369.704574 251.443318 
z
" clip-path="url(#p61ff8963ff)" style="fill: #008000"/>
   </g>
   <g id="patch_159">
    <path d="M 371.643196 252 
L 373.581818 252 
L 373.581818 251.443318 
L 371.643196 251.443318 
z
" clip-path="url(#p61ff8963ff)" style="fill: #008000"/>
   </g>
   <g id="matplotlib.axis_1">
    <g id="xtick_1">
     <g id="line2d_1">
      <path d="M 75.034047 252 
L 75.034047 34.56 
" clip-path="url(#p61ff8963ff)" style="fill: none; stroke: #b0b0b0; stroke-width: 0.8; stroke-linecap: square"/>
     </g>
     <g id="line2d_2">
      <defs>
       <path id="m4dd40d3528" d="M 0 0 
L 0 3.5 
" style="stroke: #000000; stroke-width: 0.8"/>
      </defs>
      <g>
       <use xlink:href="#m4dd40d3528" x="75.034047" y="252" style="stroke: #000000; stroke-width: 0.8"/>
      </g>
     </g>
     <g id="text_1">
      <!-- 20 -->
      <g transform="translate(68.671547 266.598437) scale(0.1 -0.1)">
       <defs>
        <path id="DejaVuSans-32" d="M 1228 531 
L 3431 531 
L 3431 0 
L 469 0 
L 469 531 
Q 828 903 1448 1529 
Q 2069 2156 2228 2338 
Q 2531 2678 2651 2914 
Q 2772 3150 2772 3378 
Q 2772 3750 2511 3984 
Q 2250 4219 1831 4219 
Q 1534 4219 1204 4116 
Q 875 4013 500 3803 
L 500 4441 
Q 881 4594 1212 4672 
Q 1544 4750 1819 4750 
Q 2544 4750 2975 4387 
Q 3406 4025 3406 3419 
Q 3406 3131 3298 2873 
Q 3191 2616 2906 2266 
Q 2828 2175 2409 1742 
Q 1991 1309 1228 531 
z
" transform="scale(0.015625)"/>
        <path id="DejaVuSans-30" d="M 2034 4250 
Q 1547 4250 1301 3770 
Q 1056 3291 1056 2328 
Q 1056 1369 1301 889 
Q 1547 409 2034 409 
Q 2525 409 2770 889 
Q 3016 1369 3016 2328 
Q 3016 3291 2770 3770 
Q 2525 4250 2034 4250 
z
M 2034 4750 
Q 2819 4750 3233 4129 
Q 3647 3509 3647 2328 
Q 3647 1150 3233 529 
Q 2819 -91 2034 -91 
Q 1250 -91 836 529 
Q 422 1150 422 2328 
Q 422 3509 836 4129 
Q 1250 4750 2034 4750 
z
" transform="scale(0.015625)"/>
       </defs>
       <use xlink:href="#DejaVuSans-32"/>
       <use xlink:href="#DejaVuSans-30" x="63.623047"/>
      </g>
     </g>
    </g>
    <g id="xtick_2">
     <g id="line2d_3">
      <path d="M 113.806485 252 
L 113.806485 34.56 
" clip-path="url(#p61ff8963ff)" style="fill: none; stroke: #b0b0b0; stroke-width: 0.8; stroke-linecap: square"/>
     </g>
     <g id="line2d_4">
      <g>
       <use xlink:href="#m4dd40d3528" x="113.806485" y="252" style="stroke: #000000; stroke-width: 0.8"/>
      </g>
     </g>
     <g id="text_2">
      <!-- 40 -->
      <g transform="translate(107.443985 266.598437) scale(0.1 -0.1)">
       <defs>
        <path id="DejaVuSans-34" d="M 2419 4116 
L 825 1625 
L 2419 1625 
L 2419 4116 
z
M 2253 4666 
L 3047 4666 
L 3047 1625 
L 3713 1625 
L 3713 1100 
L 3047 1100 
L 3047 0 
L 2419 0 
L 2419 1100 
L 313 1100 
L 313 1709 
L 2253 4666 
z
" transform="scale(0.015625)"/>
       </defs>
       <use xlink:href="#DejaVuSans-34"/>
       <use xlink:href="#DejaVuSans-30" x="63.623047"/>
      </g>
     </g>
    </g>
    <g id="xtick_3">
     <g id="line2d_5">
      <path d="M 152.578923 252 
L 152.578923 34.56 
" clip-path="url(#p61ff8963ff)" style="fill: none; stroke: #b0b0b0; stroke-width: 0.8; stroke-linecap: square"/>
     </g>
     <g id="line2d_6">
      <g>
       <use xlink:href="#m4dd40d3528" x="152.578923" y="252" style="stroke: #000000; stroke-width: 0.8"/>
      </g>
     </g>
     <g id="text_3">
      <!-- 60 -->
      <g transform="translate(146.216423 266.598437) scale(0.1 -0.1)">
       <defs>
        <path id="DejaVuSans-36" d="M 2113 2584 
Q 1688 2584 1439 2293 
Q 1191 2003 1191 1497 
Q 1191 994 1439 701 
Q 1688 409 2113 409 
Q 2538 409 2786 701 
Q 3034 994 3034 1497 
Q 3034 2003 2786 2293 
Q 2538 2584 2113 2584 
z
M 3366 4563 
L 3366 3988 
Q 3128 4100 2886 4159 
Q 2644 4219 2406 4219 
Q 1781 4219 1451 3797 
Q 1122 3375 1075 2522 
Q 1259 2794 1537 2939 
Q 1816 3084 2150 3084 
Q 2853 3084 3261 2657 
Q 3669 2231 3669 1497 
Q 3669 778 3244 343 
Q 2819 -91 2113 -91 
Q 1303 -91 875 529 
Q 447 1150 447 2328 
Q 447 3434 972 4092 
Q 1497 4750 2381 4750 
Q 2619 4750 2861 4703 
Q 3103 4656 3366 4563 
z
" transform="scale(0.015625)"/>
       </defs>
       <use xlink:href="#DejaVuSans-36"/>
       <use xlink:href="#DejaVuSans-30" x="63.623047"/>
      </g>
     </g>
    </g>
    <g id="xtick_4">
     <g id="line2d_7">
      <path d="M 191.351361 252 
L 191.351361 34.56 
" clip-path="url(#p61ff8963ff)" style="fill: none; stroke: #b0b0b0; stroke-width: 0.8; stroke-linecap: square"/>
     </g>
     <g id="line2d_8">
      <g>
       <use xlink:href="#m4dd40d3528" x="191.351361" y="252" style="stroke: #000000; stroke-width: 0.8"/>
      </g>
     </g>
     <g id="text_4">
      <!-- 80 -->
      <g transform="translate(184.988861 266.598437) scale(0.1 -0.1)">
       <defs>
        <path id="DejaVuSans-38" d="M 2034 2216 
Q 1584 2216 1326 1975 
Q 1069 1734 1069 1313 
Q 1069 891 1326 650 
Q 1584 409 2034 409 
Q 2484 409 2743 651 
Q 3003 894 3003 1313 
Q 3003 1734 2745 1975 
Q 2488 2216 2034 2216 
z
M 1403 2484 
Q 997 2584 770 2862 
Q 544 3141 544 3541 
Q 544 4100 942 4425 
Q 1341 4750 2034 4750 
Q 2731 4750 3128 4425 
Q 3525 4100 3525 3541 
Q 3525 3141 3298 2862 
Q 3072 2584 2669 2484 
Q 3125 2378 3379 2068 
Q 3634 1759 3634 1313 
Q 3634 634 3220 271 
Q 2806 -91 2034 -91 
Q 1263 -91 848 271 
Q 434 634 434 1313 
Q 434 1759 690 2068 
Q 947 2378 1403 2484 
z
M 1172 3481 
Q 1172 3119 1398 2916 
Q 1625 2713 2034 2713 
Q 2441 2713 2670 2916 
Q 2900 3119 2900 3481 
Q 2900 3844 2670 4047 
Q 2441 4250 2034 4250 
Q 1625 4250 1398 4047 
Q 1172 3844 1172 3481 
z
" transform="scale(0.015625)"/>
       </defs>
       <use xlink:href="#DejaVuSans-38"/>
       <use xlink:href="#DejaVuSans-30" x="63.623047"/>
      </g>
     </g>
    </g>
    <g id="xtick_5">
     <g id="line2d_9">
      <path d="M 230.123798 252 
L 230.123798 34.56 
" clip-path="url(#p61ff8963ff)" style="fill: none; stroke: #b0b0b0; stroke-width: 0.8; stroke-linecap: square"/>
     </g>
     <g id="line2d_10">
      <g>
       <use xlink:href="#m4dd40d3528" x="230.123798" y="252" style="stroke: #000000; stroke-width: 0.8"/>
      </g>
     </g>
     <g id="text_5">
      <!-- 100 -->
      <g transform="translate(220.580048 266.598437) scale(0.1 -0.1)">
       <defs>
        <path id="DejaVuSans-31" d="M 794 531 
L 1825 531 
L 1825 4091 
L 703 3866 
L 703 4441 
L 1819 4666 
L 2450 4666 
L 2450 531 
L 3481 531 
L 3481 0 
L 794 0 
L 794 531 
z
" transform="scale(0.015625)"/>
       </defs>
       <use xlink:href="#DejaVuSans-31"/>
       <use xlink:href="#DejaVuSans-30" x="63.623047"/>
       <use xlink:href="#DejaVuSans-30" x="127.246094"/>
      </g>
     </g>
    </g>
    <g id="xtick_6">
     <g id="line2d_11">
      <path d="M 268.896236 252 
L 268.896236 34.56 
" clip-path="url(#p61ff8963ff)" style="fill: none; stroke: #b0b0b0; stroke-width: 0.8; stroke-linecap: square"/>
     </g>
     <g id="line2d_12">
      <g>
       <use xlink:href="#m4dd40d3528" x="268.896236" y="252" style="stroke: #000000; stroke-width: 0.8"/>
      </g>
     </g>
     <g id="text_6">
      <!-- 120 -->
      <g transform="translate(259.352486 266.598437) scale(0.1 -0.1)">
       <use xlink:href="#DejaVuSans-31"/>
       <use xlink:href="#DejaVuSans-32" x="63.623047"/>
       <use xlink:href="#DejaVuSans-30" x="127.246094"/>
      </g>
     </g>
    </g>
    <g id="xtick_7">
     <g id="line2d_13">
      <path d="M 307.668674 252 
L 307.668674 34.56 
" clip-path="url(#p61ff8963ff)" style="fill: none; stroke: #b0b0b0; stroke-width: 0.8; stroke-linecap: square"/>
     </g>
     <g id="line2d_14">
      <g>
       <use xlink:href="#m4dd40d3528" x="307.668674" y="252" style="stroke: #000000; stroke-width: 0.8"/>
      </g>
     </g>
     <g id="text_7">
      <!-- 140 -->
      <g transform="translate(298.124924 266.598437) scale(0.1 -0.1)">
       <use xlink:href="#DejaVuSans-31"/>
       <use xlink:href="#DejaVuSans-34" x="63.623047"/>
       <use xlink:href="#DejaVuSans-30" x="127.246094"/>
      </g>
     </g>
    </g>
    <g id="xtick_8">
     <g id="line2d_15">
      <path d="M 346.441112 252 
L 346.441112 34.56 
" clip-path="url(#p61ff8963ff)" style="fill: none; stroke: #b0b0b0; stroke-width: 0.8; stroke-linecap: square"/>
     </g>
     <g id="line2d_16">
      <g>
       <use xlink:href="#m4dd40d3528" x="346.441112" y="252" style="stroke: #000000; stroke-width: 0.8"/>
      </g>
     </g>
     <g id="text_8">
      <!-- 160 -->
      <g transform="translate(336.897362 266.598437) scale(0.1 -0.1)">
       <use xlink:href="#DejaVuSans-31"/>
       <use xlink:href="#DejaVuSans-36" x="63.623047"/>
       <use xlink:href="#DejaVuSans-30" x="127.246094"/>
      </g>
     </g>
    </g>
    <g id="xtick_9">
     <g id="line2d_17">
      <path d="M 385.21355 252 
L 385.21355 34.56 
" clip-path="url(#p61ff8963ff)" style="fill: none; stroke: #b0b0b0; stroke-width: 0.8; stroke-linecap: square"/>
     </g>
     <g id="line2d_18">
      <g>
       <use xlink:href="#m4dd40d3528" x="385.21355" y="252" style="stroke: #000000; stroke-width: 0.8"/>
      </g>
     </g>
     <g id="text_9">
      <!-- 180 -->
      <g transform="translate(375.6698 266.598437) scale(0.1 -0.1)">
       <use xlink:href="#DejaVuSans-31"/>
       <use xlink:href="#DejaVuSans-38" x="63.623047"/>
       <use xlink:href="#DejaVuSans-30" x="127.246094"/>
      </g>
     </g>
    </g>
    <g id="text_10">
     <!-- # of photons -->
     <g transform="translate(189.017188 280.276563) scale(0.1 -0.1)">
      <defs>
       <path id="DejaVuSans-23" d="M 3272 2816 
L 2363 2816 
L 2100 1772 
L 3016 1772 
L 3272 2816 
z
M 2803 4594 
L 2478 3297 
L 3391 3297 
L 3719 4594 
L 4219 4594 
L 3897 3297 
L 4872 3297 
L 4872 2816 
L 3775 2816 
L 3519 1772 
L 4513 1772 
L 4513 1294 
L 3397 1294 
L 3072 0 
L 2572 0 
L 2894 1294 
L 1978 1294 
L 1656 0 
L 1153 0 
L 1478 1294 
L 494 1294 
L 494 1772 
L 1594 1772 
L 1856 2816 
L 850 2816 
L 850 3297 
L 1978 3297 
L 2297 4594 
L 2803 4594 
z
" transform="scale(0.015625)"/>
       <path id="DejaVuSans-20" transform="scale(0.015625)"/>
       <path id="DejaVuSans-6f" d="M 1959 3097 
Q 1497 3097 1228 2736 
Q 959 2375 959 1747 
Q 959 1119 1226 758 
Q 1494 397 1959 397 
Q 2419 397 2687 759 
Q 2956 1122 2956 1747 
Q 2956 2369 2687 2733 
Q 2419 3097 1959 3097 
z
M 1959 3584 
Q 2709 3584 3137 3096 
Q 3566 2609 3566 1747 
Q 3566 888 3137 398 
Q 2709 -91 1959 -91 
Q 1206 -91 779 398 
Q 353 888 353 1747 
Q 353 2609 779 3096 
Q 1206 3584 1959 3584 
z
" transform="scale(0.015625)"/>
       <path id="DejaVuSans-66" d="M 2375 4863 
L 2375 4384 
L 1825 4384 
Q 1516 4384 1395 4259 
Q 1275 4134 1275 3809 
L 1275 3500 
L 2222 3500 
L 2222 3053 
L 1275 3053 
L 1275 0 
L 697 0 
L 697 3053 
L 147 3053 
L 147 3500 
L 697 3500 
L 697 3744 
Q 697 4328 969 4595 
Q 1241 4863 1831 4863 
L 2375 4863 
z
" transform="scale(0.015625)"/>
       <path id="DejaVuSans-70" d="M 1159 525 
L 1159 -1331 
L 581 -1331 
L 581 3500 
L 1159 3500 
L 1159 2969 
Q 1341 3281 1617 3432 
Q 1894 3584 2278 3584 
Q 2916 3584 3314 3078 
Q 3713 2572 3713 1747 
Q 3713 922 3314 415 
Q 2916 -91 2278 -91 
Q 1894 -91 1617 61 
Q 1341 213 1159 525 
z
M 3116 1747 
Q 3116 2381 2855 2742 
Q 2594 3103 2138 3103 
Q 1681 3103 1420 2742 
Q 1159 2381 1159 1747 
Q 1159 1113 1420 752 
Q 1681 391 2138 391 
Q 2594 391 2855 752 
Q 3116 1113 3116 1747 
z
" transform="scale(0.015625)"/>
       <path id="DejaVuSans-68" d="M 3513 2113 
L 3513 0 
L 2938 0 
L 2938 2094 
Q 2938 2591 2744 2837 
Q 2550 3084 2163 3084 
Q 1697 3084 1428 2787 
Q 1159 2491 1159 1978 
L 1159 0 
L 581 0 
L 581 4863 
L 1159 4863 
L 1159 2956 
Q 1366 3272 1645 3428 
Q 1925 3584 2291 3584 
Q 2894 3584 3203 3211 
Q 3513 2838 3513 2113 
z
" transform="scale(0.015625)"/>
       <path id="DejaVuSans-74" d="M 1172 4494 
L 1172 3500 
L 2356 3500 
L 2356 3053 
L 1172 3053 
L 1172 1153 
Q 1172 725 1289 603 
Q 1406 481 1766 481 
L 2356 481 
L 2356 0 
L 1766 0 
Q 1100 0 847 248 
Q 594 497 594 1153 
L 594 3053 
L 172 3053 
L 172 3500 
L 594 3500 
L 594 4494 
L 1172 4494 
z
" transform="scale(0.015625)"/>
       <path id="DejaVuSans-6e" d="M 3513 2113 
L 3513 0 
L 2938 0 
L 2938 2094 
Q 2938 2591 2744 2837 
Q 2550 3084 2163 3084 
Q 1697 3084 1428 2787 
Q 1159 2491 1159 1978 
L 1159 0 
L 581 0 
L 581 3500 
L 1159 3500 
L 1159 2956 
Q 1366 3272 1645 3428 
Q 1925 3584 2291 3584 
Q 2894 3584 3203 3211 
Q 3513 2838 3513 2113 
z
" transform="scale(0.015625)"/>
       <path id="DejaVuSans-73" d="M 2834 3397 
L 2834 2853 
Q 2591 2978 2328 3040 
Q 2066 3103 1784 3103 
Q 1356 3103 1142 2972 
Q 928 2841 928 2578 
Q 928 2378 1081 2264 
Q 1234 2150 1697 2047 
L 1894 2003 
Q 2506 1872 2764 1633 
Q 3022 1394 3022 966 
Q 3022 478 2636 193 
Q 2250 -91 1575 -91 
Q 1294 -91 989 -36 
Q 684 19 347 128 
L 347 722 
Q 666 556 975 473 
Q 1284 391 1588 391 
Q 1994 391 2212 530 
Q 2431 669 2431 922 
Q 2431 1156 2273 1281 
Q 2116 1406 1581 1522 
L 1381 1569 
Q 847 1681 609 1914 
Q 372 2147 372 2553 
Q 372 3047 722 3315 
Q 1072 3584 1716 3584 
Q 2034 3584 2315 3537 
Q 2597 3491 2834 3397 
z
" transform="scale(0.015625)"/>
      </defs>
      <use xlink:href="#DejaVuSans-23"/>
      <use xlink:href="#DejaVuSans-20" x="83.789062"/>
      <use xlink:href="#DejaVuSans-6f" x="115.576172"/>
      <use xlink:href="#DejaVuSans-66" x="176.757812"/>
      <use xlink:href="#DejaVuSans-20" x="211.962891"/>
      <use xlink:href="#DejaVuSans-70" x="243.75"/>
      <use xlink:href="#DejaVuSans-68" x="307.226562"/>
      <use xlink:href="#DejaVuSans-6f" x="370.605469"/>
      <use xlink:href="#DejaVuSans-74" x="431.787109"/>
      <use xlink:href="#DejaVuSans-6f" x="470.996094"/>
      <use xlink:href="#DejaVuSans-6e" x="532.177734"/>
      <use xlink:href="#DejaVuSans-73" x="595.556641"/>
     </g>
    </g>
   </g>
   <g id="matplotlib.axis_2">
    <g id="ytick_1">
     <g id="line2d_19">
      <path d="M 54 252 
L 388.8 252 
" clip-path="url(#p61ff8963ff)" style="fill: none; stroke: #b0b0b0; stroke-width: 0.8; stroke-linecap: square"/>
     </g>
     <g id="line2d_20">
      <defs>
       <path id="me97e5af3f2" d="M 0 0 
L -3.5 0 
" style="stroke: #000000; stroke-width: 0.8"/>
      </defs>
      <g>
       <use xlink:href="#me97e5af3f2" x="54" y="252" style="stroke: #000000; stroke-width: 0.8"/>
      </g>
     </g>
     <g id="text_11">
      <!-- 0 -->
      <g transform="translate(40.6375 255.799219) scale(0.1 -0.1)">
       <use xlink:href="#DejaVuSans-30"/>
      </g>
     </g>
    </g>
    <g id="ytick_2">
     <g id="line2d_21">
      <path d="M 54 224.165899 
L 388.8 224.165899 
" clip-path="url(#p61ff8963ff)" style="fill: none; stroke: #b0b0b0; stroke-width: 0.8; stroke-linecap: square"/>
     </g>
     <g id="line2d_22">
      <g>
       <use xlink:href="#me97e5af3f2" x="54" y="224.165899" style="stroke: #000000; stroke-width: 0.8"/>
      </g>
     </g>
     <g id="text_12">
      <!-- 50 -->
      <g transform="translate(34.275 227.965117) scale(0.1 -0.1)">
       <defs>
        <path id="DejaVuSans-35" d="M 691 4666 
L 3169 4666 
L 3169 4134 
L 1269 4134 
L 1269 2991 
Q 1406 3038 1543 3061 
Q 1681 3084 1819 3084 
Q 2600 3084 3056 2656 
Q 3513 2228 3513 1497 
Q 3513 744 3044 326 
Q 2575 -91 1722 -91 
Q 1428 -91 1123 -41 
Q 819 9 494 109 
L 494 744 
Q 775 591 1075 516 
Q 1375 441 1709 441 
Q 2250 441 2565 725 
Q 2881 1009 2881 1497 
Q 2881 1984 2565 2268 
Q 2250 2553 1709 2553 
Q 1456 2553 1204 2497 
Q 953 2441 691 2322 
L 691 4666 
z
" transform="scale(0.015625)"/>
       </defs>
       <use xlink:href="#DejaVuSans-35"/>
       <use xlink:href="#DejaVuSans-30" x="63.623047"/>
      </g>
     </g>
    </g>
    <g id="ytick_3">
     <g id="line2d_23">
      <path d="M 54 196.331797 
L 388.8 196.331797 
" clip-path="url(#p61ff8963ff)" style="fill: none; stroke: #b0b0b0; stroke-width: 0.8; stroke-linecap: square"/>
     </g>
     <g id="line2d_24">
      <g>
       <use xlink:href="#me97e5af3f2" x="54" y="196.331797" style="stroke: #000000; stroke-width: 0.8"/>
      </g>
     </g>
     <g id="text_13">
      <!-- 100 -->
      <g transform="translate(27.9125 200.131016) scale(0.1 -0.1)">
       <use xlink:href="#DejaVuSans-31"/>
       <use xlink:href="#DejaVuSans-30" x="63.623047"/>
       <use xlink:href="#DejaVuSans-30" x="127.246094"/>
      </g>
     </g>
    </g>
    <g id="ytick_4">
     <g id="line2d_25">
      <path d="M 54 168.497696 
L 388.8 168.497696 
" clip-path="url(#p61ff8963ff)" style="fill: none; stroke: #b0b0b0; stroke-width: 0.8; stroke-linecap: square"/>
     </g>
     <g id="line2d_26">
      <g>
       <use xlink:href="#me97e5af3f2" x="54" y="168.497696" style="stroke: #000000; stroke-width: 0.8"/>
      </g>
     </g>
     <g id="text_14">
      <!-- 150 -->
      <g transform="translate(27.9125 172.296915) scale(0.1 -0.1)">
       <use xlink:href="#DejaVuSans-31"/>
       <use xlink:href="#DejaVuSans-35" x="63.623047"/>
       <use xlink:href="#DejaVuSans-30" x="127.246094"/>
      </g>
     </g>
    </g>
    <g id="ytick_5">
     <g id="line2d_27">
      <path d="M 54 140.663594 
L 388.8 140.663594 
" clip-path="url(#p61ff8963ff)" style="fill: none; stroke: #b0b0b0; stroke-width: 0.8; stroke-linecap: square"/>
     </g>
     <g id="line2d_28">
      <g>
       <use xlink:href="#me97e5af3f2" x="54" y="140.663594" style="stroke: #000000; stroke-width: 0.8"/>
      </g>
     </g>
     <g id="text_15">
      <!-- 200 -->
      <g transform="translate(27.9125 144.462813) scale(0.1 -0.1)">
       <use xlink:href="#DejaVuSans-32"/>
       <use xlink:href="#DejaVuSans-30" x="63.623047"/>
       <use xlink:href="#DejaVuSans-30" x="127.246094"/>
      </g>
     </g>
    </g>
    <g id="ytick_6">
     <g id="line2d_29">
      <path d="M 54 112.829493 
L 388.8 112.829493 
" clip-path="url(#p61ff8963ff)" style="fill: none; stroke: #b0b0b0; stroke-width: 0.8; stroke-linecap: square"/>
     </g>
     <g id="line2d_30">
      <g>
       <use xlink:href="#me97e5af3f2" x="54" y="112.829493" style="stroke: #000000; stroke-width: 0.8"/>
      </g>
     </g>
     <g id="text_16">
      <!-- 250 -->
      <g transform="translate(27.9125 116.628712) scale(0.1 -0.1)">
       <use xlink:href="#DejaVuSans-32"/>
       <use xlink:href="#DejaVuSans-35" x="63.623047"/>
       <use xlink:href="#DejaVuSans-30" x="127.246094"/>
      </g>
     </g>
    </g>
    <g id="ytick_7">
     <g id="line2d_31">
      <path d="M 54 84.995392 
L 388.8 84.995392 
" clip-path="url(#p61ff8963ff)" style="fill: none; stroke: #b0b0b0; stroke-width: 0.8; stroke-linecap: square"/>
     </g>
     <g id="line2d_32">
      <g>
       <use xlink:href="#me97e5af3f2" x="54" y="84.995392" style="stroke: #000000; stroke-width: 0.8"/>
      </g>
     </g>
     <g id="text_17">
      <!-- 300 -->
      <g transform="translate(27.9125 88.79461) scale(0.1 -0.1)">
       <defs>
        <path id="DejaVuSans-33" d="M 2597 2516 
Q 3050 2419 3304 2112 
Q 3559 1806 3559 1356 
Q 3559 666 3084 287 
Q 2609 -91 1734 -91 
Q 1441 -91 1130 -33 
Q 819 25 488 141 
L 488 750 
Q 750 597 1062 519 
Q 1375 441 1716 441 
Q 2309 441 2620 675 
Q 2931 909 2931 1356 
Q 2931 1769 2642 2001 
Q 2353 2234 1838 2234 
L 1294 2234 
L 1294 2753 
L 1863 2753 
Q 2328 2753 2575 2939 
Q 2822 3125 2822 3475 
Q 2822 3834 2567 4026 
Q 2313 4219 1838 4219 
Q 1578 4219 1281 4162 
Q 984 4106 628 3988 
L 628 4550 
Q 988 4650 1302 4700 
Q 1616 4750 1894 4750 
Q 2613 4750 3031 4423 
Q 3450 4097 3450 3541 
Q 3450 3153 3228 2886 
Q 3006 2619 2597 2516 
z
" transform="scale(0.015625)"/>
       </defs>
       <use xlink:href="#DejaVuSans-33"/>
       <use xlink:href="#DejaVuSans-30" x="63.623047"/>
       <use xlink:href="#DejaVuSans-30" x="127.246094"/>
      </g>
     </g>
    </g>
    <g id="ytick_8">
     <g id="line2d_33">
      <path d="M 54 57.16129 
L 388.8 57.16129 
" clip-path="url(#p61ff8963ff)" style="fill: none; stroke: #b0b0b0; stroke-width: 0.8; stroke-linecap: square"/>
     </g>
     <g id="line2d_34">
      <g>
       <use xlink:href="#me97e5af3f2" x="54" y="57.16129" style="stroke: #000000; stroke-width: 0.8"/>
      </g>
     </g>
     <g id="text_18">
      <!-- 350 -->
      <g transform="translate(27.9125 60.960509) scale(0.1 -0.1)">
       <use xlink:href="#DejaVuSans-33"/>
       <use xlink:href="#DejaVuSans-35" x="63.623047"/>
       <use xlink:href="#DejaVuSans-30" x="127.246094"/>
      </g>
     </g>
    </g>
    <g id="text_19">
     <!-- # of events -->
     <g transform="translate(21.832812 172.313594) rotate(-90) scale(0.1 -0.1)">
      <defs>
       <path id="DejaVuSans-65" d="M 3597 1894 
L 3597 1613 
L 953 1613 
Q 991 1019 1311 708 
Q 1631 397 2203 397 
Q 2534 397 2845 478 
Q 3156 559 3463 722 
L 3463 178 
Q 3153 47 2828 -22 
Q 2503 -91 2169 -91 
Q 1331 -91 842 396 
Q 353 884 353 1716 
Q 353 2575 817 3079 
Q 1281 3584 2069 3584 
Q 2775 3584 3186 3129 
Q 3597 2675 3597 1894 
z
M 3022 2063 
Q 3016 2534 2758 2815 
Q 2500 3097 2075 3097 
Q 1594 3097 1305 2825 
Q 1016 2553 972 2059 
L 3022 2063 
z
" transform="scale(0.015625)"/>
       <path id="DejaVuSans-76" d="M 191 3500 
L 800 3500 
L 1894 563 
L 2988 3500 
L 3597 3500 
L 2284 0 
L 1503 0 
L 191 3500 
z
" transform="scale(0.015625)"/>
      </defs>
      <use xlink:href="#DejaVuSans-23"/>
      <use xlink:href="#DejaVuSans-20" x="83.789062"/>
      <use xlink:href="#DejaVuSans-6f" x="115.576172"/>
      <use xlink:href="#DejaVuSans-66" x="176.757812"/>
      <use xlink:href="#DejaVuSans-20" x="211.962891"/>
      <use xlink:href="#DejaVuSans-65" x="243.75"/>
      <use xlink:href="#DejaVuSans-76" x="305.273438"/>
      <use xlink:href="#DejaVuSans-65" x="364.453125"/>
      <use xlink:href="#DejaVuSans-6e" x="425.976562"/>
      <use xlink:href="#DejaVuSans-74" x="489.355469"/>
      <use xlink:href="#DejaVuSans-73" x="528.564453"/>
     </g>
    </g>
   </g>
   <g id="patch_160">
    <path d="M 54 252 
L 54 34.56 
" style="fill: none; stroke: #000000; stroke-width: 0.8; stroke-linejoin: miter; stroke-linecap: square"/>
   </g>
   <g id="patch_161">
    <path d="M 388.8 252 
L 388.8 34.56 
" style="fill: none; stroke: #000000; stroke-width: 0.8; stroke-linejoin: miter; stroke-linecap: square"/>
   </g>
   <g id="patch_162">
    <path d="M 54 252 
L 388.8 252 
" style="fill: none; stroke: #000000; stroke-width: 0.8; stroke-linejoin: miter; stroke-linecap: square"/>
   </g>
   <g id="patch_163">
    <path d="M 54 34.56 
L 388.8 34.56 
" style="fill: none; stroke: #000000; stroke-width: 0.8; stroke-linejoin: miter; stroke-linecap: square"/>
   </g>
   <g id="text_20">
    <!-- $\mu=60.91,\ \sigma=17.471$ -->
    <g transform="translate(194.259294 135.096774) scale(0.14 -0.14)">
     <defs>
      <path id="DejaVuSans-Oblique-3bc" d="M -84 -1331 
L 856 3500 
L 1434 3500 
L 1009 1322 
Q 997 1256 987 1175 
Q 978 1094 978 1013 
Q 978 722 1161 565 
Q 1344 409 1684 409 
Q 2147 409 2431 671 
Q 2716 934 2816 1459 
L 3213 3500 
L 3788 3500 
L 3266 809 
Q 3253 750 3248 706 
Q 3244 663 3244 628 
Q 3244 531 3283 486 
Q 3322 441 3406 441 
Q 3438 441 3492 456 
Q 3547 472 3647 513 
L 3559 50 
Q 3422 -19 3297 -55 
Q 3172 -91 3053 -91 
Q 2847 -91 2730 40 
Q 2613 172 2613 403 
Q 2438 153 2195 31 
Q 1953 -91 1625 -91 
Q 1334 -91 1117 43 
Q 900 178 831 397 
L 494 -1331 
L -84 -1331 
z
" transform="scale(0.015625)"/>
      <path id="DejaVuSans-3d" d="M 678 2906 
L 4684 2906 
L 4684 2381 
L 678 2381 
L 678 2906 
z
M 678 1631 
L 4684 1631 
L 4684 1100 
L 678 1100 
L 678 1631 
z
" transform="scale(0.015625)"/>
      <path id="DejaVuSans-2e" d="M 684 794 
L 1344 794 
L 1344 0 
L 684 0 
L 684 794 
z
" transform="scale(0.015625)"/>
      <path id="DejaVuSans-39" d="M 703 97 
L 703 672 
Q 941 559 1184 500 
Q 1428 441 1663 441 
Q 2288 441 2617 861 
Q 2947 1281 2994 2138 
Q 2813 1869 2534 1725 
Q 2256 1581 1919 1581 
Q 1219 1581 811 2004 
Q 403 2428 403 3163 
Q 403 3881 828 4315 
Q 1253 4750 1959 4750 
Q 2769 4750 3195 4129 
Q 3622 3509 3622 2328 
Q 3622 1225 3098 567 
Q 2575 -91 1691 -91 
Q 1453 -91 1209 -44 
Q 966 3 703 97 
z
M 1959 2075 
Q 2384 2075 2632 2365 
Q 2881 2656 2881 3163 
Q 2881 3666 2632 3958 
Q 2384 4250 1959 4250 
Q 1534 4250 1286 3958 
Q 1038 3666 1038 3163 
Q 1038 2656 1286 2365 
Q 1534 2075 1959 2075 
z
" transform="scale(0.015625)"/>
      <path id="DejaVuSans-2c" d="M 750 794 
L 1409 794 
L 1409 256 
L 897 -744 
L 494 -744 
L 750 256 
L 750 794 
z
" transform="scale(0.015625)"/>
      <path id="DejaVuSans-Oblique-3c3" d="M 2219 3044 
Q 1744 3044 1422 2700 
Q 1081 2341 969 1747 
Q 844 1119 1044 756 
Q 1241 397 1706 397 
Q 2166 397 2503 759 
Q 2844 1122 2966 1747 
Q 3075 2319 2881 2700 
Q 2700 3044 2219 3044 
z
M 2309 3503 
L 4219 3500 
L 4106 2925 
L 3463 2925 
Q 3706 2438 3575 1747 
Q 3406 888 2884 400 
Q 2359 -91 1609 -91 
Q 856 -91 525 400 
Q 194 888 363 1747 
Q 528 2609 1050 3097 
Q 1484 3503 2309 3503 
z
" transform="scale(0.015625)"/>
      <path id="DejaVuSans-37" d="M 525 4666 
L 3525 4666 
L 3525 4397 
L 1831 0 
L 1172 0 
L 2766 4134 
L 525 4134 
L 525 4666 
z
" transform="scale(0.015625)"/>
     </defs>
     <use xlink:href="#DejaVuSans-Oblique-3bc" transform="translate(0 0.78125)"/>
     <use xlink:href="#DejaVuSans-3d" transform="translate(83.105469 0.78125)"/>
     <use xlink:href="#DejaVuSans-36" transform="translate(186.376953 0.78125)"/>
     <use xlink:href="#DejaVuSans-30" transform="translate(250 0.78125)"/>
     <use xlink:href="#DejaVuSans-2e" transform="translate(313.623047 0.78125)"/>
     <use xlink:href="#DejaVuSans-39" transform="translate(345.410156 0.78125)"/>
     <use xlink:href="#DejaVuSans-31" transform="translate(409.033203 0.78125)"/>
     <use xlink:href="#DejaVuSans-2c" transform="translate(472.65625 0.78125)"/>
     <use xlink:href="#DejaVuSans-Oblique-3c3" transform="translate(556.39616 0.78125)"/>
     <use xlink:href="#DejaVuSans-3d" transform="translate(639.257488 0.78125)"/>
     <use xlink:href="#DejaVuSans-31" transform="translate(742.528972 0.78125)"/>
     <use xlink:href="#DejaVuSans-37" transform="translate(806.152019 0.78125)"/>
     <use xlink:href="#DejaVuSans-2e" transform="translate(869.775066 0.78125)"/>
     <use xlink:href="#DejaVuSans-34" transform="translate(901.562175 0.78125)"/>
     <use xlink:href="#DejaVuSans-37" transform="translate(965.185222 0.78125)"/>
     <use xlink:href="#DejaVuSans-31" transform="translate(1028.808269 0.78125)"/>
    </g>
   </g>
   <g id="text_21">
    <!-- # of photons, 5GeV pi-, 2m length segment -->
    <g transform="translate(90.184688 28.56) scale(0.12 -0.12)">
     <defs>
      <path id="DejaVuSans-47" d="M 3809 666 
L 3809 1919 
L 2778 1919 
L 2778 2438 
L 4434 2438 
L 4434 434 
Q 4069 175 3628 42 
Q 3188 -91 2688 -91 
Q 1594 -91 976 548 
Q 359 1188 359 2328 
Q 359 3472 976 4111 
Q 1594 4750 2688 4750 
Q 3144 4750 3555 4637 
Q 3966 4525 4313 4306 
L 4313 3634 
Q 3963 3931 3569 4081 
Q 3175 4231 2741 4231 
Q 1884 4231 1454 3753 
Q 1025 3275 1025 2328 
Q 1025 1384 1454 906 
Q 1884 428 2741 428 
Q 3075 428 3337 486 
Q 3600 544 3809 666 
z
" transform="scale(0.015625)"/>
      <path id="DejaVuSans-56" d="M 1831 0 
L 50 4666 
L 709 4666 
L 2188 738 
L 3669 4666 
L 4325 4666 
L 2547 0 
L 1831 0 
z
" transform="scale(0.015625)"/>
      <path id="DejaVuSans-69" d="M 603 3500 
L 1178 3500 
L 1178 0 
L 603 0 
L 603 3500 
z
M 603 4863 
L 1178 4863 
L 1178 4134 
L 603 4134 
L 603 4863 
z
" transform="scale(0.015625)"/>
      <path id="DejaVuSans-2d" d="M 313 2009 
L 1997 2009 
L 1997 1497 
L 313 1497 
L 313 2009 
z
" transform="scale(0.015625)"/>
      <path id="DejaVuSans-6d" d="M 3328 2828 
Q 3544 3216 3844 3400 
Q 4144 3584 4550 3584 
Q 5097 3584 5394 3201 
Q 5691 2819 5691 2113 
L 5691 0 
L 5113 0 
L 5113 2094 
Q 5113 2597 4934 2840 
Q 4756 3084 4391 3084 
Q 3944 3084 3684 2787 
Q 3425 2491 3425 1978 
L 3425 0 
L 2847 0 
L 2847 2094 
Q 2847 2600 2669 2842 
Q 2491 3084 2119 3084 
Q 1678 3084 1418 2786 
Q 1159 2488 1159 1978 
L 1159 0 
L 581 0 
L 581 3500 
L 1159 3500 
L 1159 2956 
Q 1356 3278 1631 3431 
Q 1906 3584 2284 3584 
Q 2666 3584 2933 3390 
Q 3200 3197 3328 2828 
z
" transform="scale(0.015625)"/>
      <path id="DejaVuSans-6c" d="M 603 4863 
L 1178 4863 
L 1178 0 
L 603 0 
L 603 4863 
z
" transform="scale(0.015625)"/>
      <path id="DejaVuSans-67" d="M 2906 1791 
Q 2906 2416 2648 2759 
Q 2391 3103 1925 3103 
Q 1463 3103 1205 2759 
Q 947 2416 947 1791 
Q 947 1169 1205 825 
Q 1463 481 1925 481 
Q 2391 481 2648 825 
Q 2906 1169 2906 1791 
z
M 3481 434 
Q 3481 -459 3084 -895 
Q 2688 -1331 1869 -1331 
Q 1566 -1331 1297 -1286 
Q 1028 -1241 775 -1147 
L 775 -588 
Q 1028 -725 1275 -790 
Q 1522 -856 1778 -856 
Q 2344 -856 2625 -561 
Q 2906 -266 2906 331 
L 2906 616 
Q 2728 306 2450 153 
Q 2172 0 1784 0 
Q 1141 0 747 490 
Q 353 981 353 1791 
Q 353 2603 747 3093 
Q 1141 3584 1784 3584 
Q 2172 3584 2450 3431 
Q 2728 3278 2906 2969 
L 2906 3500 
L 3481 3500 
L 3481 434 
z
" transform="scale(0.015625)"/>
     </defs>
     <use xlink:href="#DejaVuSans-23"/>
     <use xlink:href="#DejaVuSans-20" x="83.789062"/>
     <use xlink:href="#DejaVuSans-6f" x="115.576172"/>
     <use xlink:href="#DejaVuSans-66" x="176.757812"/>
     <use xlink:href="#DejaVuSans-20" x="211.962891"/>
     <use xlink:href="#DejaVuSans-70" x="243.75"/>
     <use xlink:href="#DejaVuSans-68" x="307.226562"/>
     <use xlink:href="#DejaVuSans-6f" x="370.605469"/>
     <use xlink:href="#DejaVuSans-74" x="431.787109"/>
     <use xlink:href="#DejaVuSans-6f" x="470.996094"/>
     <use xlink:href="#DejaVuSans-6e" x="532.177734"/>
     <use xlink:href="#DejaVuSans-73" x="595.556641"/>
     <use xlink:href="#DejaVuSans-2c" x="647.65625"/>
     <use xlink:href="#DejaVuSans-20" x="679.443359"/>
     <use xlink:href="#DejaVuSans-35" x="711.230469"/>
     <use xlink:href="#DejaVuSans-47" x="774.853516"/>
     <use xlink:href="#DejaVuSans-65" x="852.34375"/>
     <use xlink:href="#DejaVuSans-56" x="913.867188"/>
     <use xlink:href="#DejaVuSans-20" x="982.275391"/>
     <use xlink:href="#DejaVuSans-70" x="1014.0625"/>
     <use xlink:href="#DejaVuSans-69" x="1077.539062"/>
     <use xlink:href="#DejaVuSans-2d" x="1105.322266"/>
     <use xlink:href="#DejaVuSans-2c" x="1141.40625"/>
     <use xlink:href="#DejaVuSans-20" x="1173.193359"/>
     <use xlink:href="#DejaVuSans-32" x="1204.980469"/>
     <use xlink:href="#DejaVuSans-6d" x="1268.603516"/>
     <use xlink:href="#DejaVuSans-20" x="1366.015625"/>
     <use xlink:href="#DejaVuSans-6c" x="1397.802734"/>
     <use xlink:href="#DejaVuSans-65" x="1425.585938"/>
     <use xlink:href="#DejaVuSans-6e" x="1487.109375"/>
     <use xlink:href="#DejaVuSans-67" x="1550.488281"/>
     <use xlink:href="#DejaVuSans-74" x="1613.964844"/>
     <use xlink:href="#DejaVuSans-68" x="1653.173828"/>
     <use xlink:href="#DejaVuSans-20" x="1716.552734"/>
     <use xlink:href="#DejaVuSans-73" x="1748.339844"/>
     <use xlink:href="#DejaVuSans-65" x="1800.439453"/>
     <use xlink:href="#DejaVuSans-67" x="1861.962891"/>
     <use xlink:href="#DejaVuSans-6d" x="1925.439453"/>
     <use xlink:href="#DejaVuSans-65" x="2022.851562"/>
     <use xlink:href="#DejaVuSans-6e" x="2084.375"/>
     <use xlink:href="#DejaVuSans-74" x="2147.753906"/>
    </g>
   </g>
  </g>
 </g>
 <defs>
  <clipPath id="p61ff8963ff">
   <rect x="54" y="34.56" width="334.8" height="217.44"/>
  </clipPath>
 </defs>
</svg>
